  0
SECTION
  2
HEADER
  9
$ANGBASE
  50
0.0
  9
$ANGDIR
  70
1
  9
$MEASUREMENT
  70
0
  0
ENDSEC
  0
SECTION
  2
TABLES
  0
TABLE
  2
LTYPE
  70
4
  0
LTYPE
  5
40F
  2
CONTINUOUS
  70
0
  3
Solid line
  72
65
  73
0
  40
0.0
  0
LTYPE
  5
410
  2
DASHDOT
 70
0
  3
Dash Dot ____ _ ____ _
 72
65
 73
4
 40
2.0
 49
1.25
 49
-0.25
 49
0.25
 49
-0.25
  0
LTYPE
  5
411
  2
DASHED
 70
0
  3
Dashed __ __ __ __ __
 72
65
 73
2
 40
0.75
 49
0.5
 49
-0.25
  0
LTYPE
  5
43B
  2
DOTTED
 70
0
  3
Dotted .  .  .  .
 72
65
 73
2
 40
0.2
 49
0.0
 49
-0.2
  0
ENDTAB
  0
TABLE
  2
STYLE
  70
4
  0
STYLE
  2
KICAD
  70
0
  40
0
  41
1
  42
1
  50
0
  71
0
  3
isocp.shx
  0
STYLE
  2
KICADB
  70
0
  40
0
  41
1
  42
1
  50
0
  71
0
  3
isocp.shx
  0
STYLE
  2
KICADI
  70
0
  40
0
  41
1
  42
1
  50
15
  71
0
  3
isocp.shx
  0
STYLE
  2
KICADBI
  70
0
  40
0
  41
1
  42
1
  50
15
  71
0
  3
isocp.shx
  0
ENDTAB
  0
TABLE
  2
LAYER
  70
1
  0
LAYER
  2
BLACK
  70
0
  62
7
  6
CONTINUOUS
  0
ENDTAB
  0
ENDSEC
  0
SECTION
  2
ENTITIES
0
LINE
8
BLACK
6
CONTINUOUS
10
5.6496850393700786
20
-4.2466929527559056
11
5.6500616929133853
21
-4.246767874015748
0
LINE
8
BLACK
6
CONTINUOUS
10
5.6500616929133853
20
-4.246767874015748
11
5.65059437007874
21
-4.2473005511811026
0
LINE
8
BLACK
6
CONTINUOUS
10
5.65059437007874
20
-4.2473005511811026
11
5.6506692913385823
21
-4.2476772047244093
0
LINE
8
BLACK
6
CONTINUOUS
10
5.6506692913385823
20
-4.2476772047244093
11
5.6506692913385823
21
-4.7323228346456689
0
LINE
8
BLACK
6
CONTINUOUS
10
5.6506692913385823
20
-4.7323228346456689
11
5.65059437007874
21
-4.7326994881889766
0
LINE
8
BLACK
6
CONTINUOUS
10
5.65059437007874
20
-4.7326994881889766
11
5.6500616929133853
21
-4.7332321653543303
0
LINE
8
BLACK
6
CONTINUOUS
10
5.6500616929133853
20
-4.7332321653543303
11
5.6496850393700786
21
-4.7333070866141735
0
LINE
8
BLACK
6
CONTINUOUS
10
5.6496850393700786
20
-4.7333070866141735
11
5.3103150000000001
21
-4.7333070866141735
0
LINE
8
BLACK
6
CONTINUOUS
10
5.3103150000000001
20
-4.7333070866141735
11
5.3099383464566925
21
-4.7332321653543303
0
LINE
8
BLACK
6
CONTINUOUS
10
5.3099383464566925
20
-4.7332321653543303
11
5.3094056692913387
21
-4.7326994881889766
0
LINE
8
BLACK
6
CONTINUOUS
10
5.3094056692913387
20
-4.7326994881889766
11
5.3093307480314955
21
-4.7323228346456689
0
LINE
8
BLACK
6
CONTINUOUS
10
5.3093307480314955
20
-4.7323228346456689
11
5.3093307086614168
21
-4.2476771653543306
0
LINE
8
BLACK
6
CONTINUOUS
10
5.3093307086614168
20
-4.2476771653543306
11
5.30940562992126
21
-4.2473005118110239
0
LINE
8
BLACK
6
CONTINUOUS
10
5.30940562992126
20
-4.2473005118110239
11
5.3099383070866137
21
-4.2467678346456692
0
LINE
8
BLACK
6
CONTINUOUS
10
5.3099383070866137
20
-4.2467678346456692
11
5.3103149606299214
21
-4.2466929133858269
0
LINE
8
BLACK
6
CONTINUOUS
10
5.3103149606299214
20
-4.2466929133858269
11
5.6496850393700786
21
-4.2466929527559056
0
LINE
8
BLACK
6
CONTINUOUS
10
5.3112992519685038
20
-4.7313385826771652
11
5.6487007874015749
21
-4.7313385826771652
0
LINE
8
BLACK
6
CONTINUOUS
10
5.6487007874015749
20
-4.7313385826771652
11
5.6487007874015749
21
-4.2486614173228343
0
LINE
8
BLACK
6
CONTINUOUS
10
5.6487007874015749
20
-4.2486614173228343
11
5.3112992125984251
21
-4.2486614173228343
0
LINE
8
BLACK
6
CONTINUOUS
10
5.3112992125984251
20
-4.2486614173228343
11
5.3112992519685038
21
-4.7313385826771652
0
LINE
8
BLACK
6
CONTINUOUS
10
5.2125282283464562
20
-4.5561556299212596
11
5.2130609055118109
21
-4.5566883070866142
0
LINE
8
BLACK
6
CONTINUOUS
10
5.2130609055118109
20
-4.5566883070866142
11
5.2131358267716532
21
-4.5570649606299209
0
LINE
8
BLACK
6
CONTINUOUS
10
5.2131358267716532
20
-4.5570649606299209
11
5.2131358267716532
21
-4.6987972440944885
0
LINE
8
BLACK
6
CONTINUOUS
10
5.2131358267716532
20
-4.6987972440944885
11
5.2130609055118109
21
-4.6991738976377952
0
LINE
8
BLACK
6
CONTINUOUS
10
5.2130609055118109
20
-4.6991738976377952
11
5.2125282283464562
21
-4.6997065748031499
0
LINE
8
BLACK
6
CONTINUOUS
10
5.2125282283464562
20
-4.6997065748031499
11
5.2121515748031495
21
-4.6997814960629922
0
LINE
8
BLACK
6
CONTINUOUS
10
5.2121515748031495
20
-4.6997814960629922
11
4.3716003937007875
21
-4.6997814960629922
0
LINE
8
BLACK
6
CONTINUOUS
10
4.3716003937007875
20
-4.6997814960629922
11
4.3712237401574798
21
-4.6997065748031499
0
LINE
8
BLACK
6
CONTINUOUS
10
4.3712237401574798
20
-4.6997065748031499
11
4.3706910629921261
21
-4.6991738976377952
0
LINE
8
BLACK
6
CONTINUOUS
10
4.3706910629921261
20
-4.6991738976377952
11
4.3706161417322837
21
-4.6987972440944885
0
LINE
8
BLACK
6
CONTINUOUS
10
4.3706161417322837
20
-4.6987972440944885
11
4.3706161417322837
21
-4.5570649606299209
0
LINE
8
BLACK
6
CONTINUOUS
10
4.3706161417322837
20
-4.5570649606299209
11
4.3706910629921261
21
-4.5566883070866142
0
LINE
8
BLACK
6
CONTINUOUS
10
4.3706910629921261
20
-4.5566883070866142
11
4.3712237401574798
21
-4.5561556299212596
0
LINE
8
BLACK
6
CONTINUOUS
10
4.3712237401574798
20
-4.5561556299212596
11
4.3716003937007875
21
-4.5560807086614172
0
LINE
8
BLACK
6
CONTINUOUS
10
4.3716003937007875
20
-4.5560807086614172
11
5.2121515748031495
21
-4.5560807086614172
0
LINE
8
BLACK
6
CONTINUOUS
10
5.2121515748031495
20
-4.5560807086614172
11
5.2125282283464562
21
-4.5561556299212596
0
LINE
8
BLACK
6
CONTINUOUS
10
4.3725846456692912
20
-4.5580492125984247
11
4.3725846456692912
21
-4.6978129921259839
0
LINE
8
BLACK
6
CONTINUOUS
10
4.3725846456692912
20
-4.6978129921259839
11
5.2111673228346458
21
-4.6978129921259839
0
LINE
8
BLACK
6
CONTINUOUS
10
5.2111673228346458
20
-4.6978129921259839
11
5.2111673228346458
21
-4.5580492125984247
0
LINE
8
BLACK
6
CONTINUOUS
10
5.2111673228346458
20
-4.5580492125984247
11
4.3725846456692912
21
-4.5580492125984247
0
LINE
8
BLACK
6
CONTINUOUS
10
6.8133156299212594
20
-4.5561556299212596
11
6.813848307086614
21
-4.5566883070866142
0
LINE
8
BLACK
6
CONTINUOUS
10
6.813848307086614
20
-4.5566883070866142
11
6.8139232283464564
21
-4.5570649606299209
0
LINE
8
BLACK
6
CONTINUOUS
10
6.8139232283464564
20
-4.5570649606299209
11
6.8139232283464564
21
-4.6987972440944885
0
LINE
8
BLACK
6
CONTINUOUS
10
6.8139232283464564
20
-4.6987972440944885
11
6.813848307086614
21
-4.6991738976377952
0
LINE
8
BLACK
6
CONTINUOUS
10
6.813848307086614
20
-4.6991738976377952
11
6.8133156299212594
21
-4.6997065748031499
0
LINE
8
BLACK
6
CONTINUOUS
10
6.8133156299212594
20
-4.6997065748031499
11
6.8129389763779526
21
-4.6997814960629922
0
LINE
8
BLACK
6
CONTINUOUS
10
6.8129389763779526
20
-4.6997814960629922
11
5.7716003937007869
21
-4.6997814960629922
0
LINE
8
BLACK
6
CONTINUOUS
10
5.7716003937007869
20
-4.6997814960629922
11
5.7712237401574802
21
-4.6997065748031499
0
LINE
8
BLACK
6
CONTINUOUS
10
5.7712237401574802
20
-4.6997065748031499
11
5.7706910629921255
21
-4.6991738976377952
0
LINE
8
BLACK
6
CONTINUOUS
10
5.7706910629921255
20
-4.6991738976377952
11
5.7706161417322832
21
-4.6987972440944885
0
LINE
8
BLACK
6
CONTINUOUS
10
5.7706161417322832
20
-4.6987972440944885
11
5.7706161417322832
21
-4.5570649606299209
0
LINE
8
BLACK
6
CONTINUOUS
10
5.7706161417322832
20
-4.5570649606299209
11
5.7706910629921255
21
-4.5566883070866142
0
LINE
8
BLACK
6
CONTINUOUS
10
5.7706910629921255
20
-4.5566883070866142
11
5.7712237401574802
21
-4.5561556299212596
0
LINE
8
BLACK
6
CONTINUOUS
10
5.7712237401574802
20
-4.5561556299212596
11
5.7716003937007869
21
-4.5560807086614172
0
LINE
8
BLACK
6
CONTINUOUS
10
5.7716003937007869
20
-4.5560807086614172
11
6.8129389763779526
21
-4.5560807086614172
0
LINE
8
BLACK
6
CONTINUOUS
10
6.8129389763779526
20
-4.5560807086614172
11
6.8133156299212594
21
-4.5561556299212596
0
LINE
8
BLACK
6
CONTINUOUS
10
5.7725846456692915
20
-4.5580492125984247
11
5.7725846456692915
21
-4.6978129921259839
0
LINE
8
BLACK
6
CONTINUOUS
10
5.7725846456692915
20
-4.6978129921259839
11
6.8119547244094489
21
-4.6978129921259839
0
LINE
8
BLACK
6
CONTINUOUS
10
6.8119547244094489
20
-4.6978129921259839
11
6.8119547244094489
21
-4.5580492125984247
0
LINE
8
BLACK
6
CONTINUOUS
10
6.8119547244094489
20
-4.5580492125984247
11
5.7725846456692915
21
-4.5580492125984247
0
LINE
8
BLACK
6
CONTINUOUS
10
6.0885557874015745
20
-4.2331064173228343
11
6.0890884645669292
21
-4.233639094488189
0
LINE
8
BLACK
6
CONTINUOUS
10
6.0890884645669292
20
-4.233639094488189
11
6.0891633858267715
21
-4.2340157480314957
0
LINE
8
BLACK
6
CONTINUOUS
10
6.0891633858267715
20
-4.2340157480314957
11
6.0891633858267715
21
-4.2428740157480318
0
LINE
8
BLACK
6
CONTINUOUS
10
6.0891633858267715
20
-4.2428740157480318
11
6.3997933070866138
21
-4.2428740157480318
0
LINE
8
BLACK
6
CONTINUOUS
10
6.3997933070866138
20
-4.2428740157480318
11
6.3997933070866138
21
-4.2340157480314957
0
LINE
8
BLACK
6
CONTINUOUS
10
6.3997933070866138
20
-4.2340157480314957
11
6.399868228346457
21
-4.233639094488189
0
LINE
8
BLACK
6
CONTINUOUS
10
6.399868228346457
20
-4.233639094488189
11
6.4004009055118107
21
-4.2331064173228343
0
LINE
8
BLACK
6
CONTINUOUS
10
6.4004009055118107
20
-4.2331064173228343
11
6.4007775590551184
21
-4.233031496062992
0
LINE
8
BLACK
6
CONTINUOUS
10
6.4007775590551184
20
-4.233031496062992
11
6.4799114173228345
21
-4.233031496062992
0
LINE
8
BLACK
6
CONTINUOUS
10
6.4799114173228345
20
-4.233031496062992
11
6.4802880708661412
21
-4.2331064173228343
0
LINE
8
BLACK
6
CONTINUOUS
10
6.4802880708661412
20
-4.2331064173228343
11
6.4808207480314959
21
-4.233639094488189
0
LINE
8
BLACK
6
CONTINUOUS
10
6.4808207480314959
20
-4.233639094488189
11
6.4808956692913382
21
-4.2340157480314957
0
LINE
8
BLACK
6
CONTINUOUS
10
6.4808956692913382
20
-4.2340157480314957
11
6.4808956692913382
21
-4.379685039370079
0
LINE
8
BLACK
6
CONTINUOUS
10
6.4808956692913382
20
-4.379685039370079
11
6.4808207480314959
21
-4.3800616929133858
0
LINE
8
BLACK
6
CONTINUOUS
10
6.4808207480314959
20
-4.3800616929133858
11
6.4802880708661412
21
-4.3805943700787404
0
LINE
8
BLACK
6
CONTINUOUS
10
6.4802880708661412
20
-4.3805943700787404
11
6.4799114173228345
21
-4.3806692913385827
0
LINE
8
BLACK
6
CONTINUOUS
10
6.4799114173228345
20
-4.3806692913385827
11
6.4769586220472437
21
-4.3806692913385827
0
LINE
8
BLACK
6
CONTINUOUS
10
6.4769586220472437
20
-4.3806692913385827
11
6.4769586614173225
21
-4.4426771653543309
0
LINE
8
BLACK
6
CONTINUOUS
10
6.4769586614173225
20
-4.4426771653543309
11
6.4768837401574801
21
-4.4430538188976376
0
LINE
8
BLACK
6
CONTINUOUS
10
6.4768837401574801
20
-4.4430538188976376
11
6.4763510629921255
21
-4.4435864960629923
0
LINE
8
BLACK
6
CONTINUOUS
10
6.4763510629921255
20
-4.4435864960629923
11
6.4759744094488187
21
-4.4436614173228346
0
LINE
8
BLACK
6
CONTINUOUS
10
6.4759744094488187
20
-4.4436614173228346
11
6.400187007874016
21
-4.4436614173228346
0
LINE
8
BLACK
6
CONTINUOUS
10
6.400187007874016
20
-4.4436614173228346
11
6.400187007874016
21
-4.485984251968504
0
LINE
8
BLACK
6
CONTINUOUS
10
6.400187007874016
20
-4.485984251968504
11
6.4001120866141727
21
-4.4863609055118108
0
LINE
8
BLACK
6
CONTINUOUS
10
6.4001120866141727
20
-4.4863609055118108
11
6.399579409448819
21
-4.4868935826771654
0
LINE
8
BLACK
6
CONTINUOUS
10
6.399579409448819
20
-4.4868935826771654
11
6.3992027559055114
21
-4.4869685039370077
0
LINE
8
BLACK
6
CONTINUOUS
10
6.3992027559055114
20
-4.4869685039370077
11
6.0897539370078739
21
-4.4869685039370077
0
LINE
8
BLACK
6
CONTINUOUS
10
6.0897539370078739
20
-4.4869685039370077
11
6.0893772834645672
21
-4.4868935826771654
0
LINE
8
BLACK
6
CONTINUOUS
10
6.0893772834645672
20
-4.4868935826771654
11
6.0888446062992125
21
-4.4863609055118108
0
LINE
8
BLACK
6
CONTINUOUS
10
6.0888446062992125
20
-4.4863609055118108
11
6.0887696850393702
21
-4.485984251968504
0
LINE
8
BLACK
6
CONTINUOUS
10
6.0887696850393702
20
-4.485984251968504
11
6.0887696850393702
21
-4.4436614173228346
0
LINE
8
BLACK
6
CONTINUOUS
10
6.0887696850393702
20
-4.4436614173228346
11
6.0129822834645665
21
-4.4436614173228346
0
LINE
8
BLACK
6
CONTINUOUS
10
6.0129822834645665
20
-4.4436614173228346
11
6.0126056299212598
21
-4.4435864960629923
0
LINE
8
BLACK
6
CONTINUOUS
10
6.0126056299212598
20
-4.4435864960629923
11
6.0120729527559051
21
-4.4430538188976376
0
LINE
8
BLACK
6
CONTINUOUS
10
6.0120729527559051
20
-4.4430538188976376
11
6.0119980314960628
21
-4.4426771653543309
0
LINE
8
BLACK
6
CONTINUOUS
10
6.0119980314960628
20
-4.4426771653543309
11
6.0119980708661416
21
-4.3806692913385827
0
LINE
8
BLACK
6
CONTINUOUS
10
6.0119980708661416
20
-4.3806692913385827
11
6.0090452755905508
21
-4.3806692913385827
0
LINE
8
BLACK
6
CONTINUOUS
10
6.0090452755905508
20
-4.3806692913385827
11
6.0086686220472441
21
-4.3805943700787404
0
LINE
8
BLACK
6
CONTINUOUS
10
6.0086686220472441
20
-4.3805943700787404
11
6.0081359448818894
21
-4.3800616929133858
0
LINE
8
BLACK
6
CONTINUOUS
10
6.0081359448818894
20
-4.3800616929133858
11
6.0080610236220471
21
-4.379685039370079
0
LINE
8
BLACK
6
CONTINUOUS
10
6.0080610236220471
20
-4.379685039370079
11
6.0080610236220471
21
-4.2340157480314957
0
LINE
8
BLACK
6
CONTINUOUS
10
6.0080610236220471
20
-4.2340157480314957
11
6.0081359448818894
21
-4.233639094488189
0
LINE
8
BLACK
6
CONTINUOUS
10
6.0081359448818894
20
-4.233639094488189
11
6.0086686220472441
21
-4.2331064173228343
0
LINE
8
BLACK
6
CONTINUOUS
10
6.0086686220472441
20
-4.2331064173228343
11
6.0090452755905508
21
-4.233031496062992
0
LINE
8
BLACK
6
CONTINUOUS
10
6.0090452755905508
20
-4.233031496062992
11
6.0881791338582678
21
-4.233031496062992
0
LINE
8
BLACK
6
CONTINUOUS
10
6.0881791338582678
20
-4.233031496062992
11
6.0885557874015745
21
-4.2331064173228343
0
LINE
8
BLACK
6
CONTINUOUS
10
6.0100295275590554
20
-4.2350000000000003
11
6.0100295275590554
21
-4.3787007874015744
0
LINE
8
BLACK
6
CONTINUOUS
10
6.0100295275590554
20
-4.3787007874015744
11
6.0129823228346453
21
-4.3787007874015744
0
LINE
8
BLACK
6
CONTINUOUS
10
6.0129823228346453
20
-4.3787007874015744
11
6.0133589763779529
21
-4.3787757086614176
0
LINE
8
BLACK
6
CONTINUOUS
10
6.0133589763779529
20
-4.3787757086614176
11
6.0138916535433067
21
-4.3793083858267714
0
LINE
8
BLACK
6
CONTINUOUS
10
6.0138916535433067
20
-4.3793083858267714
11
6.0139665748031499
21
-4.379685039370079
0
LINE
8
BLACK
6
CONTINUOUS
10
6.0139665748031499
20
-4.379685039370079
11
6.0139665354330711
21
-4.4416929133858263
0
LINE
8
BLACK
6
CONTINUOUS
10
6.0139665354330711
20
-4.4416929133858263
11
6.0897539370078739
21
-4.4416929133858263
0
LINE
8
BLACK
6
CONTINUOUS
10
6.0897539370078739
20
-4.4416929133858263
11
6.0901305905511807
21
-4.4417678346456695
0
LINE
8
BLACK
6
CONTINUOUS
10
6.0901305905511807
20
-4.4417678346456695
11
6.0906632677165353
21
-4.4423005118110233
0
LINE
8
BLACK
6
CONTINUOUS
10
6.0906632677165353
20
-4.4423005118110233
11
6.0907381889763776
21
-4.4426771653543309
0
LINE
8
BLACK
6
CONTINUOUS
10
6.0907381889763776
20
-4.4426771653543309
11
6.0907381889763776
21
-4.4850000000000003
0
LINE
8
BLACK
6
CONTINUOUS
10
6.0907381889763776
20
-4.4850000000000003
11
6.3982185039370076
21
-4.4850000000000003
0
LINE
8
BLACK
6
CONTINUOUS
10
6.3982185039370076
20
-4.4850000000000003
11
6.3982185039370076
21
-4.4426771653543309
0
LINE
8
BLACK
6
CONTINUOUS
10
6.3982185039370076
20
-4.4426771653543309
11
6.39829342519685
21
-4.4423005118110233
0
LINE
8
BLACK
6
CONTINUOUS
10
6.39829342519685
20
-4.4423005118110233
11
6.3988261023622046
21
-4.4417678346456695
0
LINE
8
BLACK
6
CONTINUOUS
10
6.3988261023622046
20
-4.4417678346456695
11
6.3992027559055114
21
-4.4416929133858263
0
LINE
8
BLACK
6
CONTINUOUS
10
6.3992027559055114
20
-4.4416929133858263
11
6.474990157480315
21
-4.4416929133858263
0
LINE
8
BLACK
6
CONTINUOUS
10
6.474990157480315
20
-4.4416929133858263
11
6.4749901181102363
21
-4.379685039370079
0
LINE
8
BLACK
6
CONTINUOUS
10
6.4749901181102363
20
-4.379685039370079
11
6.4750650393700786
21
-4.3793083858267714
0
LINE
8
BLACK
6
CONTINUOUS
10
6.4750650393700786
20
-4.3793083858267714
11
6.4755977165354333
21
-4.3787757086614176
0
LINE
8
BLACK
6
CONTINUOUS
10
6.4755977165354333
20
-4.3787757086614176
11
6.47597437007874
21
-4.3787007874015744
0
LINE
8
BLACK
6
CONTINUOUS
10
6.47597437007874
20
-4.3787007874015744
11
6.4789271653543308
21
-4.3787007874015744
0
LINE
8
BLACK
6
CONTINUOUS
10
6.4789271653543308
20
-4.3787007874015744
11
6.4789271653543308
21
-4.2350000000000003
0
LINE
8
BLACK
6
CONTINUOUS
10
6.4789271653543308
20
-4.2350000000000003
11
6.4017618110236221
21
-4.2350000000000003
0
LINE
8
BLACK
6
CONTINUOUS
10
6.4017618110236221
20
-4.2350000000000003
11
6.4017618110236221
21
-4.2438582677165355
0
LINE
8
BLACK
6
CONTINUOUS
10
6.4017618110236221
20
-4.2438582677165355
11
6.4016868897637798
21
-4.2442349212598423
0
LINE
8
BLACK
6
CONTINUOUS
10
6.4016868897637798
20
-4.2442349212598423
11
6.4011542125984251
21
-4.2447675984251969
0
LINE
8
BLACK
6
CONTINUOUS
10
6.4011542125984251
20
-4.2447675984251969
11
6.4007775590551184
21
-4.2448425196850392
0
LINE
8
BLACK
6
CONTINUOUS
10
6.4007775590551184
20
-4.2448425196850392
11
6.0881791338582678
21
-4.2448425196850392
0
LINE
8
BLACK
6
CONTINUOUS
10
6.0881791338582678
20
-4.2448425196850392
11
6.0878024803149602
21
-4.2447675984251969
0
LINE
8
BLACK
6
CONTINUOUS
10
6.0878024803149602
20
-4.2447675984251969
11
6.0872698031496064
21
-4.2442349212598423
0
LINE
8
BLACK
6
CONTINUOUS
10
6.0872698031496064
20
-4.2442349212598423
11
6.0871948818897632
21
-4.2438582677165355
0
LINE
8
BLACK
6
CONTINUOUS
10
6.0871948818897632
20
-4.2438582677165355
11
6.0871948818897632
21
-4.2350000000000003
0
LINE
8
BLACK
6
CONTINUOUS
10
6.0871948818897632
20
-4.2350000000000003
11
6.0100295275590554
21
-4.2350000000000003
0
CIRCLE
8
BLACK
10
4.4424665354330708
20
-4.6279311023622043
40
0.0068897637795276
0
CIRCLE
8
BLACK
10
4.5424665354330704
20
-4.6279311023622043
40
0.0068897637795276
0
CIRCLE
8
BLACK
10
4.6424664960629922
20
-4.6279311023622043
40
0.0068897637795276
0
CIRCLE
8
BLACK
10
4.7424665354330706
20
-4.6279311023622043
40
0.0068897637795276
0
CIRCLE
8
BLACK
10
4.8424665354330712
20
-4.6279311023622043
40
0.0068897637795276
0
CIRCLE
8
BLACK
10
4.9424665354330708
20
-4.6279311023622043
40
0.0068897637795276
0
CIRCLE
8
BLACK
10
5.0424665354330704
20
-4.6279311023622043
40
0.0068897637795276
0
CIRCLE
8
BLACK
10
5.1424665748031497
20
-4.6279311023622043
40
0.0068897637795276
0
CIRCLE
8
BLACK
10
5.8424665354330712
20
-4.6279311023622043
40
0.0068897637795276
0
CIRCLE
8
BLACK
10
5.942466496062992
20
-4.6279311023622043
40
0.0068897637795276
0
CIRCLE
8
BLACK
10
6.0424665748031492
20
-4.6279311023622043
40
0.0068897637795276
0
CIRCLE
8
BLACK
10
6.142466535433071
20
-4.6279311023622043
40
0.0068897637795276
0
CIRCLE
8
BLACK
10
6.2424665354330706
20
-4.6279311023622043
40
0.0068897637795276
0
CIRCLE
8
BLACK
10
6.3424665354330712
20
-4.6279311023622043
40
0.0068897637795276
0
CIRCLE
8
BLACK
10
6.442466496062992
20
-4.6279311023622043
40
0.0068897637795276
0
CIRCLE
8
BLACK
10
6.5424665354330704
20
-4.6279311023622043
40
0.0068897637795276
0
CIRCLE
8
BLACK
10
6.642466535433071
20
-4.6279311023622043
40
0.0068897637795276
0
CIRCLE
8
BLACK
10
6.7424665354330706
20
-4.6279311023622043
40
0.0068897637795276
0
CIRCLE
8
BLACK
10
5.5800000000000001
20
-4.6626377952755904
40
0.0068897637795276
0
CIRCLE
8
BLACK
10
5.4799999999999995
20
-4.6626377952755904
40
0.0068897637795276
0
CIRCLE
8
BLACK
10
5.3800000393700786
20
-4.6626377952755904
40
0.0068897637795276
0
CIRCLE
8
BLACK
10
4.4424665354330708
20
-4.6279311023622043
40
0.0068897637795276
0
CIRCLE
8
BLACK
10
4.5424665354330704
20
-4.6279311023622043
40
0.0068897637795276
0
CIRCLE
8
BLACK
10
4.6424664960629922
20
-4.6279311023622043
40
0.0068897637795276
0
CIRCLE
8
BLACK
10
4.7424665354330706
20
-4.6279311023622043
40
0.0068897637795276
0
CIRCLE
8
BLACK
10
4.8424665354330712
20
-4.6279311023622043
40
0.0068897637795276
0
CIRCLE
8
BLACK
10
4.9424665354330708
20
-4.6279311023622043
40
0.0068897637795276
0
CIRCLE
8
BLACK
10
5.0424665354330704
20
-4.6279311023622043
40
0.0068897637795276
0
CIRCLE
8
BLACK
10
5.1424665748031497
20
-4.6279311023622043
40
0.0068897637795276
0
CIRCLE
8
BLACK
10
5.8424665354330712
20
-4.6279311023622043
40
0.0068897637795276
0
CIRCLE
8
BLACK
10
5.942466496062992
20
-4.6279311023622043
40
0.0068897637795276
0
CIRCLE
8
BLACK
10
6.0424665748031492
20
-4.6279311023622043
40
0.0068897637795276
0
CIRCLE
8
BLACK
10
6.142466535433071
20
-4.6279311023622043
40
0.0068897637795276
0
CIRCLE
8
BLACK
10
6.2424665354330706
20
-4.6279311023622043
40
0.0068897637795276
0
CIRCLE
8
BLACK
10
6.3424665354330712
20
-4.6279311023622043
40
0.0068897637795276
0
CIRCLE
8
BLACK
10
6.442466496062992
20
-4.6279311023622043
40
0.0068897637795276
0
CIRCLE
8
BLACK
10
6.5424665354330704
20
-4.6279311023622043
40
0.0068897637795276
0
CIRCLE
8
BLACK
10
6.642466535433071
20
-4.6279311023622043
40
0.0068897637795276
0
CIRCLE
8
BLACK
10
6.7424665354330706
20
-4.6279311023622043
40
0.0068897637795276
0
CIRCLE
8
BLACK
10
5.5800000000000001
20
-4.6626377952755904
40
0.0068897637795276
0
CIRCLE
8
BLACK
10
5.4799999999999995
20
-4.6626377952755904
40
0.0068897637795276
0
CIRCLE
8
BLACK
10
5.3800000393700786
20
-4.6626377952755904
40
0.0068897637795276
  0
ENDSEC
  0
EOF
