  0
SECTION
  2
HEADER
  9
$ANGBASE
  50
0.0
  9
$ANGDIR
  70
1
  9
$MEASUREMENT
  70
0
  0
ENDSEC
  0
SECTION
  2
TABLES
  0
TABLE
  2
LTYPE
  70
4
  0
LTYPE
  5
40F
  2
CONTINUOUS
  70
0
  3
Solid line
  72
65
  73
0
  40
0.0
  0
LTYPE
  5
410
  2
DASHDOT
 70
0
  3
Dash Dot ____ _ ____ _
 72
65
 73
4
 40
2.0
 49
1.25
 49
-0.25
 49
0.25
 49
-0.25
  0
LTYPE
  5
411
  2
DASHED
 70
0
  3
Dashed __ __ __ __ __
 72
65
 73
2
 40
0.75
 49
0.5
 49
-0.25
  0
LTYPE
  5
43B
  2
DOTTED
 70
0
  3
Dotted .  .  .  .
 72
65
 73
2
 40
0.2
 49
0.0
 49
-0.2
  0
ENDTAB
  0
TABLE
  2
STYLE
  70
4
  0
STYLE
  2
KICAD
  70
0
  40
0
  41
1
  42
1
  50
0
  71
0
  3
isocp.shx
  0
STYLE
  2
KICADB
  70
0
  40
0
  41
1
  42
1
  50
0
  71
0
  3
isocp.shx
  0
STYLE
  2
KICADI
  70
0
  40
0
  41
1
  42
1
  50
15
  71
0
  3
isocp.shx
  0
STYLE
  2
KICADBI
  70
0
  40
0
  41
1
  42
1
  50
15
  71
0
  3
isocp.shx
  0
ENDTAB
  0
TABLE
  2
LAYER
  70
1
  0
LAYER
  2
BLACK
  70
0
  62
7
  6
CONTINUOUS
  0
ENDTAB
  0
ENDSEC
  0
SECTION
  2
ENTITIES
0
LINE
8
BLACK
6
CONTINUOUS
10
5.1830367716535433
20
-4.3970002362204728
11
5.1841021259842517
21
-4.3980655905511812
0
LINE
8
BLACK
6
CONTINUOUS
10
5.1841021259842517
20
-4.3980655905511812
11
5.1842519685039372
21
-4.3988188976377955
0
LINE
8
BLACK
6
CONTINUOUS
10
5.1842519685039372
20
-4.3988188976377955
11
5.1842519685039372
21
-4.4988188976377952
0
LINE
8
BLACK
6
CONTINUOUS
10
5.1842519685039372
20
-4.4988188976377952
11
5.1841021259842517
21
-4.4995722047244096
0
LINE
8
BLACK
6
CONTINUOUS
10
5.1841021259842517
20
-4.4995722047244096
11
5.1830367716535433
21
-4.500637559055118
0
LINE
8
BLACK
6
CONTINUOUS
10
5.1830367716535433
20
-4.500637559055118
11
5.1822834645669289
21
-4.5007874015748026
0
LINE
8
BLACK
6
CONTINUOUS
10
5.1822834645669289
20
-4.5007874015748026
11
4.3822834645669291
21
-4.5007874015748026
0
LINE
8
BLACK
6
CONTINUOUS
10
4.3822834645669291
20
-4.5007874015748026
11
4.3815301574803147
21
-4.500637559055118
0
LINE
8
BLACK
6
CONTINUOUS
10
4.3815301574803147
20
-4.500637559055118
11
4.3804648031496063
21
-4.4995722047244096
0
LINE
8
BLACK
6
CONTINUOUS
10
4.3804648031496063
20
-4.4995722047244096
11
4.3803149606299208
21
-4.4988188976377952
0
LINE
8
BLACK
6
CONTINUOUS
10
4.3803149606299208
20
-4.4988188976377952
11
4.3803149606299208
21
-4.423818897637795
0
LINE
8
BLACK
6
CONTINUOUS
10
4.3803149606299208
20
-4.423818897637795
11
4.3804648031496063
21
-4.4230655905511806
0
LINE
8
BLACK
6
CONTINUOUS
10
4.3804648031496063
20
-4.4230655905511806
11
4.3808915354330704
21
-4.4224269685039372
0
LINE
8
BLACK
6
CONTINUOUS
10
4.3808915354330704
20
-4.4224269685039372
11
4.4058915354330708
21
-4.3974269291338581
0
LINE
8
BLACK
6
CONTINUOUS
10
4.4058915354330708
20
-4.3974269291338581
11
4.4065301574803151
21
-4.3970002362204728
0
LINE
8
BLACK
6
CONTINUOUS
10
4.4065301574803151
20
-4.3970002362204728
11
4.4072834645669294
21
-4.3968503937007872
0
LINE
8
BLACK
6
CONTINUOUS
10
4.4072834645669294
20
-4.3968503937007872
11
5.1822834645669289
21
-4.3968503937007872
0
LINE
8
BLACK
6
CONTINUOUS
10
5.1822834645669289
20
-4.3968503937007872
11
5.1830367716535433
21
-4.3970002362204728
0
LINE
8
BLACK
6
CONTINUOUS
10
4.4080988582677163
20
-4.400787401574803
11
4.3842519685039365
21
-4.424634251968504
0
LINE
8
BLACK
6
CONTINUOUS
10
4.3842519685039365
20
-4.424634251968504
11
4.3842519685039365
21
-4.4968503937007869
0
LINE
8
BLACK
6
CONTINUOUS
10
4.3842519685039365
20
-4.4968503937007869
11
5.1803149606299215
21
-4.4968503937007869
0
LINE
8
BLACK
6
CONTINUOUS
10
5.1803149606299215
20
-4.4968503937007869
11
5.1803149606299215
21
-4.400787401574803
0
LINE
8
BLACK
6
CONTINUOUS
10
5.1803149606299215
20
-4.400787401574803
11
4.4080988582677163
21
-4.400787401574803
0
LINE
8
BLACK
6
CONTINUOUS
10
6.7830367716535429
20
-4.3970002362204728
11
6.7841021259842522
21
-4.3980655905511812
0
LINE
8
BLACK
6
CONTINUOUS
10
6.7841021259842522
20
-4.3980655905511812
11
6.7842519685039369
21
-4.3988188976377955
0
LINE
8
BLACK
6
CONTINUOUS
10
6.7842519685039369
20
-4.3988188976377955
11
6.7842519685039369
21
-4.4988188976377952
0
LINE
8
BLACK
6
CONTINUOUS
10
6.7842519685039369
20
-4.4988188976377952
11
6.7841021259842522
21
-4.4995722047244096
0
LINE
8
BLACK
6
CONTINUOUS
10
6.7841021259842522
20
-4.4995722047244096
11
6.7830367716535429
21
-4.500637559055118
0
LINE
8
BLACK
6
CONTINUOUS
10
6.7830367716535429
20
-4.500637559055118
11
6.7822834645669285
21
-4.5007874015748026
0
LINE
8
BLACK
6
CONTINUOUS
10
6.7822834645669285
20
-4.5007874015748026
11
5.7822834645669294
21
-4.5007874015748026
0
LINE
8
BLACK
6
CONTINUOUS
10
5.7822834645669294
20
-4.5007874015748026
11
5.7815301574803151
21
-4.500637559055118
0
LINE
8
BLACK
6
CONTINUOUS
10
5.7815301574803151
20
-4.500637559055118
11
5.7804648031496058
21
-4.4995722047244096
0
LINE
8
BLACK
6
CONTINUOUS
10
5.7804648031496058
20
-4.4995722047244096
11
5.7803149606299211
21
-4.4988188976377952
0
LINE
8
BLACK
6
CONTINUOUS
10
5.7803149606299211
20
-4.4988188976377952
11
5.7803149606299211
21
-4.423818897637795
0
LINE
8
BLACK
6
CONTINUOUS
10
5.7803149606299211
20
-4.423818897637795
11
5.7804648031496058
21
-4.4230655905511806
0
LINE
8
BLACK
6
CONTINUOUS
10
5.7804648031496058
20
-4.4230655905511806
11
5.7808915354330708
21
-4.4224269685039372
0
LINE
8
BLACK
6
CONTINUOUS
10
5.7808915354330708
20
-4.4224269685039372
11
5.8058915354330711
21
-4.3974269291338581
0
LINE
8
BLACK
6
CONTINUOUS
10
5.8058915354330711
20
-4.3974269291338581
11
5.8065301574803145
21
-4.3970002362204728
0
LINE
8
BLACK
6
CONTINUOUS
10
5.8065301574803145
20
-4.3970002362204728
11
5.8072834645669289
21
-4.3968503937007872
0
LINE
8
BLACK
6
CONTINUOUS
10
5.8072834645669289
20
-4.3968503937007872
11
6.7822834645669285
21
-4.3968503937007872
0
LINE
8
BLACK
6
CONTINUOUS
10
6.7822834645669285
20
-4.3968503937007872
11
6.7830367716535429
21
-4.3970002362204728
0
LINE
8
BLACK
6
CONTINUOUS
10
5.8080988582677167
20
-4.400787401574803
11
5.7842519685039369
21
-4.424634251968504
0
LINE
8
BLACK
6
CONTINUOUS
10
5.7842519685039369
20
-4.424634251968504
11
5.7842519685039369
21
-4.4968503937007869
0
LINE
8
BLACK
6
CONTINUOUS
10
5.7842519685039369
20
-4.4968503937007869
11
6.7803149606299211
21
-4.4968503937007869
0
LINE
8
BLACK
6
CONTINUOUS
10
6.7803149606299211
20
-4.4968503937007869
11
6.7803149606299211
21
-4.400787401574803
0
LINE
8
BLACK
6
CONTINUOUS
10
6.7803149606299211
20
-4.400787401574803
11
5.8080988582677167
21
-4.400787401574803
0
LINE
8
BLACK
6
CONTINUOUS
10
5.3683675590551179
20
-4.3194721653543304
11
5.3684655511811021
21
-4.319512755905512
0
LINE
8
BLACK
6
CONTINUOUS
10
5.3684655511811021
20
-4.319512755905512
11
5.3685713779527555
21
-4.3195202755905511
0
LINE
8
BLACK
6
CONTINUOUS
10
5.3685713779527555
20
-4.3195202755905511
11
5.3691120078740155
21
-4.3197271653543305
0
LINE
8
BLACK
6
CONTINUOUS
10
5.3691120078740155
20
-4.3197271653543305
11
5.3728615354330707
21
-4.3216019291338581
0
LINE
8
BLACK
6
CONTINUOUS
10
5.3728615354330707
20
-4.3216019291338581
11
5.3731095275590546
21
-4.3217579921259839
0
LINE
8
BLACK
6
CONTINUOUS
10
5.3731095275590546
20
-4.3217579921259839
11
5.3731814960629922
21
-4.3217878346456695
0
LINE
8
BLACK
6
CONTINUOUS
10
5.3731814960629922
20
-4.3217878346456695
11
5.3732624409448819
21
-4.3218542913385827
0
LINE
8
BLACK
6
CONTINUOUS
10
5.3732624409448819
20
-4.3218542913385827
11
5.3733514173228345
21
-4.3219102755905512
0
LINE
8
BLACK
6
CONTINUOUS
10
5.3733514173228345
20
-4.3219102755905512
11
5.3734025590551182
21
-4.321969251968504
0
LINE
8
BLACK
6
CONTINUOUS
10
5.3734025590551182
20
-4.321969251968504
11
5.373628937007874
21
-4.3221550393700783
0
LINE
8
BLACK
6
CONTINUOUS
10
5.373628937007874
20
-4.3221550393700783
11
5.3755037007874016
21
-4.3240298031496058
0
LINE
8
BLACK
6
CONTINUOUS
10
5.3755037007874016
20
-4.3240298031496058
11
5.3756894488188971
21
-4.3242561417322838
0
LINE
8
BLACK
6
CONTINUOUS
10
5.3756894488188971
20
-4.3242561417322838
11
5.3757484645669287
21
-4.3243073228346454
0
LINE
8
BLACK
6
CONTINUOUS
10
5.3757484645669287
20
-4.3243073228346454
11
5.3758044094488184
21
-4.3243962598425192
0
LINE
8
BLACK
6
CONTINUOUS
10
5.3758044094488184
20
-4.3243962598425192
11
5.3758709055118112
21
-4.3244772440944885
0
LINE
8
BLACK
6
CONTINUOUS
10
5.3758709055118112
20
-4.3244772440944885
11
5.3759007086614172
21
-4.3245491732283465
0
LINE
8
BLACK
6
CONTINUOUS
10
5.3759007086614172
20
-4.3245491732283465
11
5.3760568110236218
21
-4.3247972047244092
0
LINE
8
BLACK
6
CONTINUOUS
10
5.3760568110236218
20
-4.3247972047244092
11
5.3779315748031493
21
-4.3285467322834643
0
LINE
8
BLACK
6
CONTINUOUS
10
5.3779315748031493
20
-4.3285467322834643
11
5.3781384645669288
21
-4.3290873228346456
0
LINE
8
BLACK
6
CONTINUOUS
10
5.3781384645669288
20
-4.3290873228346456
11
5.3781459842519688
21
-4.3291931889763777
0
LINE
8
BLACK
6
CONTINUOUS
10
5.3781459842519688
20
-4.3291931889763777
11
5.3781865748031494
21
-4.329291181102362
0
LINE
8
BLACK
6
CONTINUOUS
10
5.3781865748031494
20
-4.329291181102362
11
5.3782433070866142
21
-4.3298672440944879
0
LINE
8
BLACK
6
CONTINUOUS
10
5.3782433070866142
20
-4.3298672440944879
11
5.3782433070866142
21
-4.3411158267716532
0
LINE
8
BLACK
6
CONTINUOUS
10
5.3782433070866142
20
-4.3411158267716532
11
5.3781865748031494
21
-4.3416918897637791
0
LINE
8
BLACK
6
CONTINUOUS
10
5.3781865748031494
20
-4.3416918897637791
11
5.3781459842519688
21
-4.3417898425196846
0
LINE
8
BLACK
6
CONTINUOUS
10
5.3781459842519688
20
-4.3417898425196846
11
5.3781384645669288
21
-4.3418957480314964
0
LINE
8
BLACK
6
CONTINUOUS
10
5.3781384645669288
20
-4.3418957480314964
11
5.3779315748031493
21
-4.3424363385826767
0
LINE
8
BLACK
6
CONTINUOUS
10
5.3779315748031493
20
-4.3424363385826767
11
5.3760568110236218
21
-4.3461858661417319
0
LINE
8
BLACK
6
CONTINUOUS
10
5.3760568110236218
20
-4.3461858661417319
11
5.375900748031496
21
-4.3464337401574804
0
LINE
8
BLACK
6
CONTINUOUS
10
5.375900748031496
20
-4.3464337401574804
11
5.37587094488189
21
-4.3465057874015747
0
LINE
8
BLACK
6
CONTINUOUS
10
5.37587094488189
20
-4.3465057874015747
11
5.3758044094488184
21
-4.3465868110236219
0
LINE
8
BLACK
6
CONTINUOUS
10
5.3758044094488184
20
-4.3465868110236219
11
5.3757484645669287
21
-4.3466757480314957
0
LINE
8
BLACK
6
CONTINUOUS
10
5.3757484645669287
20
-4.3466757480314957
11
5.3756894488188971
21
-4.3467268897637794
0
LINE
8
BLACK
6
CONTINUOUS
10
5.3756894488188971
20
-4.3467268897637794
11
5.3755037007874016
21
-4.3469532677165352
0
LINE
8
BLACK
6
CONTINUOUS
10
5.3755037007874016
20
-4.3469532677165352
11
5.3736289763779528
21
-4.3488280314960628
0
LINE
8
BLACK
6
CONTINUOUS
10
5.3736289763779528
20
-4.3488280314960628
11
5.373402598425197
21
-4.3490137795275592
0
LINE
8
BLACK
6
CONTINUOUS
10
5.373402598425197
20
-4.3490137795275592
11
5.3733514173228345
21
-4.3490728346456695
0
LINE
8
BLACK
6
CONTINUOUS
10
5.3733514173228345
20
-4.3490728346456695
11
5.3732624409448819
21
-4.349128818897638
0
LINE
8
BLACK
6
CONTINUOUS
10
5.3732624409448819
20
-4.349128818897638
11
5.3731814960629922
21
-4.3491952755905512
0
LINE
8
BLACK
6
CONTINUOUS
10
5.3731814960629922
20
-4.3491952755905512
11
5.3731095275590546
21
-4.3492250787401572
0
LINE
8
BLACK
6
CONTINUOUS
10
5.3731095275590546
20
-4.3492250787401572
11
5.3728615354330707
21
-4.3493811811023617
0
LINE
8
BLACK
6
CONTINUOUS
10
5.3728615354330707
20
-4.3493811811023617
11
5.3691120078740155
21
-4.3512559448818893
0
LINE
8
BLACK
6
CONTINUOUS
10
5.3691120078740155
20
-4.3512559448818893
11
5.3685713779527555
21
-4.3514628346456696
0
LINE
8
BLACK
6
CONTINUOUS
10
5.3685713779527555
20
-4.3514628346456696
11
5.3684655511811021
21
-4.35147031496063
0
LINE
8
BLACK
6
CONTINUOUS
10
5.3684655511811021
20
-4.35147031496063
11
5.3683675590551179
21
-4.3515109448818894
0
LINE
8
BLACK
6
CONTINUOUS
10
5.3683675590551179
20
-4.3515109448818894
11
5.367791496062992
21
-4.3515676771653542
0
LINE
8
BLACK
6
CONTINUOUS
10
5.367791496062992
20
-4.3515676771653542
11
5.3602924409448818
21
-4.3515676771653542
0
LINE
8
BLACK
6
CONTINUOUS
10
5.3602924409448818
20
-4.3515676771653542
11
5.3597163779527559
21
-4.3515109448818894
0
LINE
8
BLACK
6
CONTINUOUS
10
5.3597163779527559
20
-4.3515109448818894
11
5.3596183858267716
21
-4.3514703543307087
0
LINE
8
BLACK
6
CONTINUOUS
10
5.3596183858267716
20
-4.3514703543307087
11
5.3595125196850395
21
-4.3514628346456696
0
LINE
8
BLACK
6
CONTINUOUS
10
5.3595125196850395
20
-4.3514628346456696
11
5.3594956692913387
21
-4.351456377952756
0
LINE
8
BLACK
6
CONTINUOUS
10
5.3594956692913387
20
-4.351456377952756
11
5.3594956692913387
21
-4.3617382677165351
0
LINE
8
BLACK
6
CONTINUOUS
10
5.3594956692913387
20
-4.3617382677165351
11
5.3594389370078739
21
-4.3623143307086609
0
LINE
8
BLACK
6
CONTINUOUS
10
5.3594389370078739
20
-4.3623143307086609
11
5.3589980314960632
21
-4.3633787401574802
0
LINE
8
BLACK
6
CONTINUOUS
10
5.3589980314960632
20
-4.3633787401574802
11
5.3581833858267718
21
-4.3641933858267716
0
LINE
8
BLACK
6
CONTINUOUS
10
5.3581833858267718
20
-4.3641933858267716
11
5.3571189763779525
21
-4.3646342913385823
0
LINE
8
BLACK
6
CONTINUOUS
10
5.3571189763779525
20
-4.3646342913385823
11
5.3559668503937008
21
-4.3646342913385823
0
LINE
8
BLACK
6
CONTINUOUS
10
5.3559668503937008
20
-4.3646342913385823
11
5.3549024409448815
21
-4.3641933858267716
0
LINE
8
BLACK
6
CONTINUOUS
10
5.3549024409448815
20
-4.3641933858267716
11
5.3540877952755901
21
-4.3633787401574802
0
LINE
8
BLACK
6
CONTINUOUS
10
5.3540877952755901
20
-4.3633787401574802
11
5.3536468897637794
21
-4.3623143307086609
0
LINE
8
BLACK
6
CONTINUOUS
10
5.3536468897637794
20
-4.3623143307086609
11
5.3535901574803146
21
-4.3617382677165351
0
LINE
8
BLACK
6
CONTINUOUS
10
5.3535901574803146
20
-4.3617382677165351
11
5.3535901574803146
21
-4.3223681889763776
0
LINE
8
BLACK
6
CONTINUOUS
10
5.3535901574803146
20
-4.3223681889763776
11
5.3536468897637794
21
-4.3217921259842518
0
LINE
8
BLACK
6
CONTINUOUS
10
5.3536468897637794
20
-4.3217921259842518
11
5.3540877952755901
21
-4.3207277165354334
0
LINE
8
BLACK
6
CONTINUOUS
10
5.3540877952755901
20
-4.3207277165354334
11
5.3549024409448815
21
-4.319913070866142
0
LINE
8
BLACK
6
CONTINUOUS
10
5.3549024409448815
20
-4.319913070866142
11
5.3559668503937008
21
-4.3194721653543304
0
LINE
8
BLACK
6
CONTINUOUS
10
5.3559668503937008
20
-4.3194721653543304
11
5.3571189763779525
21
-4.3194721653543304
0
LINE
8
BLACK
6
CONTINUOUS
10
5.3571189763779525
20
-4.3194721653543304
11
5.3581833858267718
21
-4.319913070866142
0
LINE
8
BLACK
6
CONTINUOUS
10
5.3581833858267718
20
-4.319913070866142
11
5.3583222834645667
21
-4.3200519685039369
0
LINE
8
BLACK
6
CONTINUOUS
10
5.3583222834645667
20
-4.3200519685039369
11
5.3589719291338582
21
-4.3197271653543305
0
LINE
8
BLACK
6
CONTINUOUS
10
5.3589719291338582
20
-4.3197271653543305
11
5.3595125196850395
21
-4.3195202755905511
0
LINE
8
BLACK
6
CONTINUOUS
10
5.3595125196850395
20
-4.3195202755905511
11
5.3596183858267716
21
-4.3195127165354332
0
LINE
8
BLACK
6
CONTINUOUS
10
5.3596183858267716
20
-4.3195127165354332
11
5.3597163779527559
21
-4.3194721653543304
0
LINE
8
BLACK
6
CONTINUOUS
10
5.3597163779527559
20
-4.3194721653543304
11
5.3602924409448818
21
-4.3194154330708656
0
LINE
8
BLACK
6
CONTINUOUS
10
5.3602924409448818
20
-4.3194154330708656
11
5.367791496062992
21
-4.3194154330708656
0
LINE
8
BLACK
6
CONTINUOUS
10
5.367791496062992
20
-4.3194154330708656
11
5.3683675590551179
21
-4.3194721653543304
0
LINE
8
BLACK
6
CONTINUOUS
10
5.3594956692913387
20
-4.3260678346456691
11
5.3594956692913387
21
-4.3449152362204719
0
LINE
8
BLACK
6
CONTINUOUS
10
5.3594956692913387
20
-4.3449152362204719
11
5.3609894881889764
21
-4.345662165354331
0
LINE
8
BLACK
6
CONTINUOUS
10
5.3609894881889764
20
-4.345662165354331
11
5.3670944488188974
21
-4.345662165354331
0
LINE
8
BLACK
6
CONTINUOUS
10
5.3670944488188974
20
-4.345662165354331
11
5.3697918897637793
21
-4.3443134251968507
0
LINE
8
BLACK
6
CONTINUOUS
10
5.3697918897637793
20
-4.3443134251968507
11
5.3709890157480311
21
-4.3431162598425193
0
LINE
8
BLACK
6
CONTINUOUS
10
5.3709890157480311
20
-4.3431162598425193
11
5.3723377952755902
21
-4.3404187795275586
0
LINE
8
BLACK
6
CONTINUOUS
10
5.3723377952755902
20
-4.3404187795275586
11
5.3723377952755902
21
-4.3305642913385824
0
LINE
8
BLACK
6
CONTINUOUS
10
5.3723377952755902
20
-4.3305642913385824
11
5.3709890551181099
21
-4.3278668110236218
0
LINE
8
BLACK
6
CONTINUOUS
10
5.3709890551181099
20
-4.3278668110236218
11
5.3697919291338581
21
-4.32666968503937
0
LINE
8
BLACK
6
CONTINUOUS
10
5.3697919291338581
20
-4.32666968503937
11
5.3670944488188974
21
-4.3253209448818897
0
LINE
8
BLACK
6
CONTINUOUS
10
5.3670944488188974
20
-4.3253209448818897
11
5.3609894881889764
21
-4.3253209448818897
0
LINE
8
BLACK
6
CONTINUOUS
10
5.3609894881889764
20
-4.3253209448818897
11
5.3594956692913387
21
-4.3260678346456691
0
LINE
8
BLACK
6
CONTINUOUS
10
5.4039881102362202
20
-4.3194721653543304
11
5.4040861023622044
21
-4.319512755905512
0
LINE
8
BLACK
6
CONTINUOUS
10
5.4040861023622044
20
-4.319512755905512
11
5.4041919291338578
21
-4.3195202755905511
0
LINE
8
BLACK
6
CONTINUOUS
10
5.4041919291338578
20
-4.3195202755905511
11
5.4047325590551178
21
-4.3197271653543305
0
LINE
8
BLACK
6
CONTINUOUS
10
5.4047325590551178
20
-4.3197271653543305
11
5.408482086614173
21
-4.3216019291338581
0
LINE
8
BLACK
6
CONTINUOUS
10
5.408482086614173
20
-4.3216019291338581
11
5.4087300787401578
21
-4.3217579921259839
0
LINE
8
BLACK
6
CONTINUOUS
10
5.4087300787401578
20
-4.3217579921259839
11
5.4088020472440945
21
-4.3217878346456695
0
LINE
8
BLACK
6
CONTINUOUS
10
5.4088020472440945
20
-4.3217878346456695
11
5.4088829921259842
21
-4.3218542913385827
0
LINE
8
BLACK
6
CONTINUOUS
10
5.4088829921259842
20
-4.3218542913385827
11
5.4089719685039368
21
-4.3219102755905512
0
LINE
8
BLACK
6
CONTINUOUS
10
5.4089719685039368
20
-4.3219102755905512
11
5.4090231102362205
21
-4.321969251968504
0
LINE
8
BLACK
6
CONTINUOUS
10
5.4090231102362205
20
-4.321969251968504
11
5.4092494881889763
21
-4.3221550393700783
0
LINE
8
BLACK
6
CONTINUOUS
10
5.4092494881889763
20
-4.3221550393700783
11
5.4111242519685039
21
-4.3240298031496058
0
LINE
8
BLACK
6
CONTINUOUS
10
5.4111242519685039
20
-4.3240298031496058
11
5.4113100000000003
21
-4.3242561417322838
0
LINE
8
BLACK
6
CONTINUOUS
10
5.4113100000000003
20
-4.3242561417322838
11
5.411369015748031
21
-4.3243073228346454
0
LINE
8
BLACK
6
CONTINUOUS
10
5.411369015748031
20
-4.3243073228346454
11
5.4114249606299207
21
-4.3243962598425192
0
LINE
8
BLACK
6
CONTINUOUS
10
5.4114249606299207
20
-4.3243962598425192
11
5.4114914566929135
21
-4.3244772440944885
0
LINE
8
BLACK
6
CONTINUOUS
10
5.4114914566929135
20
-4.3244772440944885
11
5.4115212598425195
21
-4.3245491732283465
0
LINE
8
BLACK
6
CONTINUOUS
10
5.4115212598425195
20
-4.3245491732283465
11
5.4116773622047241
21
-4.3247972047244092
0
LINE
8
BLACK
6
CONTINUOUS
10
5.4116773622047241
20
-4.3247972047244092
11
5.4135521259842516
21
-4.3285467322834643
0
LINE
8
BLACK
6
CONTINUOUS
10
5.4135521259842516
20
-4.3285467322834643
11
5.4137590157480311
21
-4.3290873228346456
0
LINE
8
BLACK
6
CONTINUOUS
10
5.4137590157480311
20
-4.3290873228346456
11
5.4137665354330711
21
-4.3291931889763777
0
LINE
8
BLACK
6
CONTINUOUS
10
5.4137665354330711
20
-4.3291931889763777
11
5.4138071259842517
21
-4.329291181102362
0
LINE
8
BLACK
6
CONTINUOUS
10
5.4138071259842517
20
-4.329291181102362
11
5.4138638582677165
21
-4.3298672440944879
0
LINE
8
BLACK
6
CONTINUOUS
10
5.4138638582677165
20
-4.3298672440944879
11
5.4138638582677165
21
-4.3411158267716532
0
LINE
8
BLACK
6
CONTINUOUS
10
5.4138638582677165
20
-4.3411158267716532
11
5.4138071259842517
21
-4.3416918897637791
0
LINE
8
BLACK
6
CONTINUOUS
10
5.4138071259842517
20
-4.3416918897637791
11
5.4137665354330711
21
-4.3417898425196846
0
LINE
8
BLACK
6
CONTINUOUS
10
5.4137665354330711
20
-4.3417898425196846
11
5.4137590157480311
21
-4.3418957480314964
0
LINE
8
BLACK
6
CONTINUOUS
10
5.4137590157480311
20
-4.3418957480314964
11
5.4135521259842516
21
-4.3424363385826767
0
LINE
8
BLACK
6
CONTINUOUS
10
5.4135521259842516
20
-4.3424363385826767
11
5.4116773622047241
21
-4.3461858661417319
0
LINE
8
BLACK
6
CONTINUOUS
10
5.4116773622047241
20
-4.3461858661417319
11
5.4115212992125983
21
-4.3464337401574804
0
LINE
8
BLACK
6
CONTINUOUS
10
5.4115212992125983
20
-4.3464337401574804
11
5.4114914960629923
21
-4.3465057874015747
0
LINE
8
BLACK
6
CONTINUOUS
10
5.4114914960629923
20
-4.3465057874015747
11
5.4114249606299207
21
-4.3465868110236219
0
LINE
8
BLACK
6
CONTINUOUS
10
5.4114249606299207
20
-4.3465868110236219
11
5.411369015748031
21
-4.3466757480314957
0
LINE
8
BLACK
6
CONTINUOUS
10
5.411369015748031
20
-4.3466757480314957
11
5.4113100000000003
21
-4.3467268897637794
0
LINE
8
BLACK
6
CONTINUOUS
10
5.4113100000000003
20
-4.3467268897637794
11
5.4111242519685039
21
-4.3469532677165352
0
LINE
8
BLACK
6
CONTINUOUS
10
5.4111242519685039
20
-4.3469532677165352
11
5.4092495275590551
21
-4.3488280314960628
0
LINE
8
BLACK
6
CONTINUOUS
10
5.4092495275590551
20
-4.3488280314960628
11
5.4090231496062993
21
-4.3490137795275592
0
LINE
8
BLACK
6
CONTINUOUS
10
5.4090231496062993
20
-4.3490137795275592
11
5.4089719685039368
21
-4.3490728346456695
0
LINE
8
BLACK
6
CONTINUOUS
10
5.4089719685039368
20
-4.3490728346456695
11
5.4088829921259842
21
-4.349128818897638
0
LINE
8
BLACK
6
CONTINUOUS
10
5.4088829921259842
20
-4.349128818897638
11
5.4088020472440945
21
-4.3491952755905512
0
LINE
8
BLACK
6
CONTINUOUS
10
5.4088020472440945
20
-4.3491952755905512
11
5.4087300787401578
21
-4.3492250787401572
0
LINE
8
BLACK
6
CONTINUOUS
10
5.4087300787401578
20
-4.3492250787401572
11
5.408482086614173
21
-4.3493811811023617
0
LINE
8
BLACK
6
CONTINUOUS
10
5.408482086614173
20
-4.3493811811023617
11
5.4047325590551178
21
-4.3512559448818893
0
LINE
8
BLACK
6
CONTINUOUS
10
5.4047325590551178
20
-4.3512559448818893
11
5.4041919291338578
21
-4.3514628346456696
0
LINE
8
BLACK
6
CONTINUOUS
10
5.4041919291338578
20
-4.3514628346456696
11
5.4040861023622044
21
-4.35147031496063
0
LINE
8
BLACK
6
CONTINUOUS
10
5.4040861023622044
20
-4.35147031496063
11
5.4039881102362202
21
-4.3515109448818894
0
LINE
8
BLACK
6
CONTINUOUS
10
5.4039881102362202
20
-4.3515109448818894
11
5.4034120472440943
21
-4.3515676771653542
0
LINE
8
BLACK
6
CONTINUOUS
10
5.4034120472440943
20
-4.3515676771653542
11
5.3959129921259841
21
-4.3515676771653542
0
LINE
8
BLACK
6
CONTINUOUS
10
5.3959129921259841
20
-4.3515676771653542
11
5.3953369291338582
21
-4.3515109448818894
0
LINE
8
BLACK
6
CONTINUOUS
10
5.3953369291338582
20
-4.3515109448818894
11
5.3952389370078739
21
-4.3514703543307087
0
LINE
8
BLACK
6
CONTINUOUS
10
5.3952389370078739
20
-4.3514703543307087
11
5.3951330708661418
21
-4.3514628346456696
0
LINE
8
BLACK
6
CONTINUOUS
10
5.3951330708661418
20
-4.3514628346456696
11
5.395116220472441
21
-4.351456377952756
0
LINE
8
BLACK
6
CONTINUOUS
10
5.395116220472441
20
-4.351456377952756
11
5.395116220472441
21
-4.3617382677165351
0
LINE
8
BLACK
6
CONTINUOUS
10
5.395116220472441
20
-4.3617382677165351
11
5.3950594881889762
21
-4.3623143307086609
0
LINE
8
BLACK
6
CONTINUOUS
10
5.3950594881889762
20
-4.3623143307086609
11
5.3946185826771655
21
-4.3633787401574802
0
LINE
8
BLACK
6
CONTINUOUS
10
5.3946185826771655
20
-4.3633787401574802
11
5.3938039370078741
21
-4.3641933858267716
0
LINE
8
BLACK
6
CONTINUOUS
10
5.3938039370078741
20
-4.3641933858267716
11
5.3927395275590548
21
-4.3646342913385823
0
LINE
8
BLACK
6
CONTINUOUS
10
5.3927395275590548
20
-4.3646342913385823
11
5.3915874015748031
21
-4.3646342913385823
0
LINE
8
BLACK
6
CONTINUOUS
10
5.3915874015748031
20
-4.3646342913385823
11
5.3905229921259838
21
-4.3641933858267716
0
LINE
8
BLACK
6
CONTINUOUS
10
5.3905229921259838
20
-4.3641933858267716
11
5.3897083464566924
21
-4.3633787401574802
0
LINE
8
BLACK
6
CONTINUOUS
10
5.3897083464566924
20
-4.3633787401574802
11
5.3892674409448817
21
-4.3623143307086609
0
LINE
8
BLACK
6
CONTINUOUS
10
5.3892674409448817
20
-4.3623143307086609
11
5.3892107086614169
21
-4.3617382677165351
0
LINE
8
BLACK
6
CONTINUOUS
10
5.3892107086614169
20
-4.3617382677165351
11
5.3892107086614169
21
-4.3223681889763776
0
LINE
8
BLACK
6
CONTINUOUS
10
5.3892107086614169
20
-4.3223681889763776
11
5.3892674409448817
21
-4.3217921259842518
0
LINE
8
BLACK
6
CONTINUOUS
10
5.3892674409448817
20
-4.3217921259842518
11
5.3897083464566924
21
-4.3207277165354334
0
LINE
8
BLACK
6
CONTINUOUS
10
5.3897083464566924
20
-4.3207277165354334
11
5.3905229921259838
21
-4.319913070866142
0
LINE
8
BLACK
6
CONTINUOUS
10
5.3905229921259838
20
-4.319913070866142
11
5.3915874015748031
21
-4.3194721653543304
0
LINE
8
BLACK
6
CONTINUOUS
10
5.3915874015748031
20
-4.3194721653543304
11
5.3927395275590548
21
-4.3194721653543304
0
LINE
8
BLACK
6
CONTINUOUS
10
5.3927395275590548
20
-4.3194721653543304
11
5.3938039370078741
21
-4.319913070866142
0
LINE
8
BLACK
6
CONTINUOUS
10
5.3938039370078741
20
-4.319913070866142
11
5.393942834645669
21
-4.3200519685039369
0
LINE
8
BLACK
6
CONTINUOUS
10
5.393942834645669
20
-4.3200519685039369
11
5.3945924803149605
21
-4.3197271653543305
0
LINE
8
BLACK
6
CONTINUOUS
10
5.3945924803149605
20
-4.3197271653543305
11
5.3951330708661418
21
-4.3195202755905511
0
LINE
8
BLACK
6
CONTINUOUS
10
5.3951330708661418
20
-4.3195202755905511
11
5.3952389370078739
21
-4.3195127165354332
0
LINE
8
BLACK
6
CONTINUOUS
10
5.3952389370078739
20
-4.3195127165354332
11
5.3953369291338582
21
-4.3194721653543304
0
LINE
8
BLACK
6
CONTINUOUS
10
5.3953369291338582
20
-4.3194721653543304
11
5.3959129921259841
21
-4.3194154330708656
0
LINE
8
BLACK
6
CONTINUOUS
10
5.3959129921259841
20
-4.3194154330708656
11
5.4034120472440943
21
-4.3194154330708656
0
LINE
8
BLACK
6
CONTINUOUS
10
5.4034120472440943
20
-4.3194154330708656
11
5.4039881102362202
21
-4.3194721653543304
0
LINE
8
BLACK
6
CONTINUOUS
10
5.395116220472441
20
-4.3260678346456691
11
5.395116220472441
21
-4.3449152362204719
0
LINE
8
BLACK
6
CONTINUOUS
10
5.395116220472441
20
-4.3449152362204719
11
5.3966100393700787
21
-4.345662165354331
0
LINE
8
BLACK
6
CONTINUOUS
10
5.3966100393700787
20
-4.345662165354331
11
5.4027149999999997
21
-4.345662165354331
0
LINE
8
BLACK
6
CONTINUOUS
10
5.4027149999999997
20
-4.345662165354331
11
5.4054124409448816
21
-4.3443134251968507
0
LINE
8
BLACK
6
CONTINUOUS
10
5.4054124409448816
20
-4.3443134251968507
11
5.4066095669291334
21
-4.3431162598425193
0
LINE
8
BLACK
6
CONTINUOUS
10
5.4066095669291334
20
-4.3431162598425193
11
5.4079583464566925
21
-4.3404187795275586
0
LINE
8
BLACK
6
CONTINUOUS
10
5.4079583464566925
20
-4.3404187795275586
11
5.4079583464566925
21
-4.3305642913385824
0
LINE
8
BLACK
6
CONTINUOUS
10
5.4079583464566925
20
-4.3305642913385824
11
5.4066096062992122
21
-4.3278668110236218
0
LINE
8
BLACK
6
CONTINUOUS
10
5.4066096062992122
20
-4.3278668110236218
11
5.4054124803149604
21
-4.32666968503937
0
LINE
8
BLACK
6
CONTINUOUS
10
5.4054124803149604
20
-4.32666968503937
11
5.4027149999999997
21
-4.3253209448818897
0
LINE
8
BLACK
6
CONTINUOUS
10
5.4027149999999997
20
-4.3253209448818897
11
5.3966100393700787
21
-4.3253209448818897
0
LINE
8
BLACK
6
CONTINUOUS
10
5.3966100393700787
20
-4.3253209448818897
11
5.395116220472441
21
-4.3260678346456691
0
LINE
8
BLACK
6
CONTINUOUS
10
5.507100236220472
20
-4.3494684251968501
11
5.5081646456692912
21
-4.3499093307086616
0
LINE
8
BLACK
6
CONTINUOUS
10
5.5081646456692912
20
-4.3499093307086616
11
5.5089792913385827
21
-4.3507239763779531
0
LINE
8
BLACK
6
CONTINUOUS
10
5.5089792913385827
20
-4.3507239763779531
11
5.5094201968503933
21
-4.3517883858267714
0
LINE
8
BLACK
6
CONTINUOUS
10
5.5094201968503933
20
-4.3517883858267714
11
5.5094201968503933
21
-4.3529405118110231
0
LINE
8
BLACK
6
CONTINUOUS
10
5.5094201968503933
20
-4.3529405118110231
11
5.5089792913385827
21
-4.3540049212598424
0
LINE
8
BLACK
6
CONTINUOUS
10
5.5089792913385827
20
-4.3540049212598424
11
5.5081646456692912
21
-4.3548195669291339
0
LINE
8
BLACK
6
CONTINUOUS
10
5.5081646456692912
20
-4.3548195669291339
11
5.507100236220472
21
-4.3552604724409445
0
LINE
8
BLACK
6
CONTINUOUS
10
5.507100236220472
20
-4.3552604724409445
11
5.5065241732283461
21
-4.3553172047244093
0
LINE
8
BLACK
6
CONTINUOUS
10
5.5065241732283461
20
-4.3553172047244093
11
5.4765279527559052
21
-4.3553172047244093
0
LINE
8
BLACK
6
CONTINUOUS
10
5.4765279527559052
20
-4.3553172047244093
11
5.4759518897637793
21
-4.3552604724409445
0
LINE
8
BLACK
6
CONTINUOUS
10
5.4759518897637793
20
-4.3552604724409445
11
5.4748874803149601
21
-4.3548195669291339
0
LINE
8
BLACK
6
CONTINUOUS
10
5.4748874803149601
20
-4.3548195669291339
11
5.4740728346456695
21
-4.3540049212598424
0
LINE
8
BLACK
6
CONTINUOUS
10
5.4740728346456695
20
-4.3540049212598424
11
5.473631929133858
21
-4.3529405118110231
0
LINE
8
BLACK
6
CONTINUOUS
10
5.473631929133858
20
-4.3529405118110231
11
5.473631929133858
21
-4.3517883858267714
0
LINE
8
BLACK
6
CONTINUOUS
10
5.473631929133858
20
-4.3517883858267714
11
5.4740728346456695
21
-4.3507239763779531
0
LINE
8
BLACK
6
CONTINUOUS
10
5.4740728346456695
20
-4.3507239763779531
11
5.4748874803149601
21
-4.3499093307086616
0
LINE
8
BLACK
6
CONTINUOUS
10
5.4748874803149601
20
-4.3499093307086616
11
5.4759518897637793
21
-4.3494684251968501
0
LINE
8
BLACK
6
CONTINUOUS
10
5.4759518897637793
20
-4.3494684251968501
11
5.4765279527559052
21
-4.3494116929133861
0
LINE
8
BLACK
6
CONTINUOUS
10
5.4765279527559052
20
-4.3494116929133861
11
5.5065241732283461
21
-4.3494116929133861
0
LINE
8
BLACK
6
CONTINUOUS
10
5.5065241732283461
20
-4.3494116929133861
11
5.507100236220472
21
-4.3494684251968501
0
LINE
8
BLACK
6
CONTINUOUS
10
4.3743438582677161
20
-4.3067897244094491
11
4.3751585039370076
21
-4.3076043700787396
0
LINE
8
BLACK
6
CONTINUOUS
10
4.3751585039370076
20
-4.3076043700787396
11
4.3755994094488191
21
-4.3086687795275589
0
LINE
8
BLACK
6
CONTINUOUS
10
4.3755994094488191
20
-4.3086687795275589
11
4.375656141732283
21
-4.3092448425196848
0
LINE
8
BLACK
6
CONTINUOUS
10
4.375656141732283
20
-4.3092448425196848
11
4.375656141732283
21
-4.3373662992125981
0
LINE
8
BLACK
6
CONTINUOUS
10
4.375656141732283
20
-4.3373662992125981
11
4.3756274015748033
21
-4.3376578740157479
0
LINE
8
BLACK
6
CONTINUOUS
10
4.3756274015748033
20
-4.3376578740157479
11
4.3756329527559057
21
-4.3377356299212595
0
LINE
8
BLACK
6
CONTINUOUS
10
4.3756329527559057
20
-4.3377356299212595
11
4.37560968503937
21
-4.3378378740157482
0
LINE
8
BLACK
6
CONTINUOUS
10
4.37560968503937
20
-4.3378378740157482
11
4.3755994094488191
21
-4.337942362204724
0
LINE
8
BLACK
6
CONTINUOUS
10
4.3755994094488191
20
-4.337942362204724
11
4.3755695275590547
21
-4.3380144094488191
0
LINE
8
BLACK
6
CONTINUOUS
10
4.3755695275590547
20
-4.3380144094488191
11
4.3755046062992129
21
-4.3383000787401578
0
LINE
8
BLACK
6
CONTINUOUS
10
4.3755046062992129
20
-4.3383000787401578
11
4.3736298425196853
21
-4.3439243307086617
0
LINE
8
BLACK
6
CONTINUOUS
10
4.3736298425196853
20
-4.3439243307086617
11
4.3733938582677165
21
-4.344452913385827
0
LINE
8
BLACK
6
CONTINUOUS
10
4.3733938582677165
20
-4.344452913385827
11
4.3733243307086616
21
-4.3445330314960628
0
LINE
8
BLACK
6
CONTINUOUS
10
4.3733243307086616
20
-4.3445330314960628
11
4.3732837795275588
21
-4.3446310236220471
0
LINE
8
BLACK
6
CONTINUOUS
10
4.3732837795275588
20
-4.3446310236220471
11
4.3729165748031491
21
-4.3450784645669289
0
LINE
8
BLACK
6
CONTINUOUS
10
4.3729165748031491
20
-4.3450784645669289
11
4.3691670078740152
21
-4.3488280708661415
0
LINE
8
BLACK
6
CONTINUOUS
10
4.3691670078740152
20
-4.3488280708661415
11
4.3687195669291334
21
-4.3491952755905512
0
LINE
8
BLACK
6
CONTINUOUS
10
4.3687195669291334
20
-4.3491952755905512
11
4.3686214960629917
21
-4.3492358661417319
0
LINE
8
BLACK
6
CONTINUOUS
10
4.3686214960629917
20
-4.3492358661417319
11
4.3685413779527558
21
-4.3493053937007877
0
LINE
8
BLACK
6
CONTINUOUS
10
4.3685413779527558
20
-4.3493053937007877
11
4.3680128346456693
21
-4.3495413779527556
0
LINE
8
BLACK
6
CONTINUOUS
10
4.3680128346456693
20
-4.3495413779527556
11
4.3623885433070866
21
-4.3514161417322832
0
LINE
8
BLACK
6
CONTINUOUS
10
4.3623885433070866
20
-4.3514161417322832
11
4.3621029527559054
21
-4.3514810629921259
0
LINE
8
BLACK
6
CONTINUOUS
10
4.3621029527559054
20
-4.3514810629921259
11
4.3620308661417324
21
-4.3515109448818894
0
LINE
8
BLACK
6
CONTINUOUS
10
4.3620308661417324
20
-4.3515109448818894
11
4.361926338582677
21
-4.3515212204724412
0
LINE
8
BLACK
6
CONTINUOUS
10
4.361926338582677
20
-4.3515212204724412
11
4.3618240944881892
21
-4.351544488188976
0
LINE
8
BLACK
6
CONTINUOUS
10
4.3618240944881892
20
-4.351544488188976
11
4.3617463385826767
21
-4.3515389370078736
0
LINE
8
BLACK
6
CONTINUOUS
10
4.3617463385826767
20
-4.3515389370078736
11
4.3614548031496065
21
-4.3515676771653542
0
LINE
8
BLACK
6
CONTINUOUS
10
4.3614548031496065
20
-4.3515676771653542
11
4.3577052755905514
21
-4.3515676771653542
0
LINE
8
BLACK
6
CONTINUOUS
10
4.3577052755905514
20
-4.3515676771653542
11
4.3571292125984247
21
-4.3515109448818894
0
LINE
8
BLACK
6
CONTINUOUS
10
4.3571292125984247
20
-4.3515109448818894
11
4.3560648031496063
21
-4.3510700393700787
0
LINE
8
BLACK
6
CONTINUOUS
10
4.3560648031496063
20
-4.3510700393700787
11
4.3552501574803149
21
-4.3502553937007873
0
LINE
8
BLACK
6
CONTINUOUS
10
4.3552501574803149
20
-4.3502553937007873
11
4.3548092519685042
21
-4.349190984251968
0
LINE
8
BLACK
6
CONTINUOUS
10
4.3548092519685042
20
-4.349190984251968
11
4.3548092519685042
21
-4.3480388582677163
0
LINE
8
BLACK
6
CONTINUOUS
10
4.3548092519685042
20
-4.3480388582677163
11
4.3552501574803149
21
-4.3469744488188979
0
LINE
8
BLACK
6
CONTINUOUS
10
4.3552501574803149
20
-4.3469744488188979
11
4.3560648031496063
21
-4.3461598031496065
0
LINE
8
BLACK
6
CONTINUOUS
10
4.3560648031496063
20
-4.3461598031496065
11
4.3571292125984247
21
-4.345718897637795
0
LINE
8
BLACK
6
CONTINUOUS
10
4.3571292125984247
20
-4.345718897637795
11
4.3577052755905514
21
-4.345662165354331
0
LINE
8
BLACK
6
CONTINUOUS
10
4.3577052755905514
20
-4.345662165354331
11
4.3609756692913386
21
-4.345662165354331
0
LINE
8
BLACK
6
CONTINUOUS
10
4.3609756692913386
20
-4.345662165354331
11
4.3654840551181104
21
-4.3441593307086617
0
LINE
8
BLACK
6
CONTINUOUS
10
4.3654840551181104
20
-4.3441593307086617
11
4.3682477952755905
21
-4.341395551181102
0
LINE
8
BLACK
6
CONTINUOUS
10
4.3682477952755905
20
-4.341395551181102
11
4.3697506299212598
21
-4.3368871653543311
0
LINE
8
BLACK
6
CONTINUOUS
10
4.3697506299212598
20
-4.3368871653543311
11
4.3697506299212598
21
-4.3092448425196848
0
LINE
8
BLACK
6
CONTINUOUS
10
4.3697506299212598
20
-4.3092448425196848
11
4.3698073622047247
21
-4.3086687795275589
0
LINE
8
BLACK
6
CONTINUOUS
10
4.3698073622047247
20
-4.3086687795275589
11
4.3702482677165353
21
-4.3076043700787396
0
LINE
8
BLACK
6
CONTINUOUS
10
4.3702482677165353
20
-4.3076043700787396
11
4.3710629133858268
21
-4.3067897244094491
0
LINE
8
BLACK
6
CONTINUOUS
10
4.3710629133858268
20
-4.3067897244094491
11
4.372127322834646
21
-4.3063488188976375
0
LINE
8
BLACK
6
CONTINUOUS
10
4.372127322834646
20
-4.3063488188976375
11
4.3732794488188977
21
-4.3063488188976375
0
LINE
8
BLACK
6
CONTINUOUS
10
4.3732794488188977
20
-4.3063488188976375
11
4.3743438582677161
21
-4.3067897244094491
0
LINE
8
BLACK
6
CONTINUOUS
10
4.4011085433070862
20
-4.3063488188976375
11
4.4014009448818898
21
-4.3063488188976375
0
LINE
8
BLACK
6
CONTINUOUS
10
4.4014009448818898
20
-4.3063488188976375
11
4.4016681889763776
21
-4.3064595275590554
0
LINE
8
BLACK
6
CONTINUOUS
10
4.4016681889763776
20
-4.3064595275590554
11
4.4019520078740157
21
-4.3065156692913389
0
LINE
8
BLACK
6
CONTINUOUS
10
4.4019520078740157
20
-4.3065156692913389
11
4.4021952755905511
21
-4.3066778346456696
0
LINE
8
BLACK
6
CONTINUOUS
10
4.4021952755905511
20
-4.3066778346456696
11
4.4024653543307082
21
-4.3067897244094491
0
LINE
8
BLACK
6
CONTINUOUS
10
4.4024653543307082
20
-4.3067897244094491
11
4.4026698031496059
21
-4.3069941732283468
0
LINE
8
BLACK
6
CONTINUOUS
10
4.4026698031496059
20
-4.3069941732283468
11
4.4029106299212595
21
-4.3071547244094486
0
LINE
8
BLACK
6
CONTINUOUS
10
4.4029106299212595
20
-4.3071547244094486
11
4.4030733464566927
21
-4.3073977165354327
0
LINE
8
BLACK
6
CONTINUOUS
10
4.4030733464566927
20
-4.3073977165354327
11
4.4032799999999996
21
-4.3076043700787396
0
LINE
8
BLACK
6
CONTINUOUS
10
4.4032799999999996
20
-4.3076043700787396
11
4.4033906692913387
21
-4.3078715748031495
0
LINE
8
BLACK
6
CONTINUOUS
10
4.4033906692913387
20
-4.3078715748031495
11
4.4035516929133856
21
-4.3081120078740156
0
LINE
8
BLACK
6
CONTINUOUS
10
4.4035516929133856
20
-4.3081120078740156
11
4.4036090157480317
21
-4.3083986614173231
0
LINE
8
BLACK
6
CONTINUOUS
10
4.4036090157480317
20
-4.3083986614173231
11
4.4037209055118112
21
-4.3086687795275589
0
LINE
8
BLACK
6
CONTINUOUS
10
4.4037209055118112
20
-4.3086687795275589
11
4.4037770078740159
21
-4.3092387007874011
0
LINE
8
BLACK
6
CONTINUOUS
10
4.4037770078740159
20
-4.3092387007874011
11
4.4037776377952751
21
-4.3092417322834642
0
LINE
8
BLACK
6
CONTINUOUS
10
4.4037776377952751
20
-4.3092417322834642
11
4.4037774015748035
21
-4.3092427559055118
0
LINE
8
BLACK
6
CONTINUOUS
10
4.4037774015748035
20
-4.3092427559055118
11
4.4037776377952751
21
-4.3092448425196848
0
LINE
8
BLACK
6
CONTINUOUS
10
4.4037776377952751
20
-4.3092448425196848
11
4.4037776377952751
21
-4.345662165354331
0
LINE
8
BLACK
6
CONTINUOUS
10
4.4037776377952751
20
-4.345662165354331
11
4.4120734645669293
21
-4.345662165354331
0
LINE
8
BLACK
6
CONTINUOUS
10
4.4120734645669293
20
-4.345662165354331
11
4.4126495275590552
21
-4.345718897637795
0
LINE
8
BLACK
6
CONTINUOUS
10
4.4126495275590552
20
-4.345718897637795
11
4.4137139370078735
21
-4.3461598031496065
0
LINE
8
BLACK
6
CONTINUOUS
10
4.4137139370078735
20
-4.3461598031496065
11
4.414528582677165
21
-4.3469744488188979
0
LINE
8
BLACK
6
CONTINUOUS
10
4.414528582677165
20
-4.3469744488188979
11
4.4149694881889765
21
-4.3480388582677163
0
LINE
8
BLACK
6
CONTINUOUS
10
4.4149694881889765
20
-4.3480388582677163
11
4.4149694881889765
21
-4.349190984251968
0
LINE
8
BLACK
6
CONTINUOUS
10
4.4149694881889765
20
-4.349190984251968
11
4.414528582677165
21
-4.3502553937007873
0
LINE
8
BLACK
6
CONTINUOUS
10
4.414528582677165
20
-4.3502553937007873
11
4.4137139370078735
21
-4.3510700393700787
0
LINE
8
BLACK
6
CONTINUOUS
10
4.4137139370078735
20
-4.3510700393700787
11
4.4126495275590552
21
-4.3515109448818894
0
LINE
8
BLACK
6
CONTINUOUS
10
4.4126495275590552
20
-4.3515109448818894
11
4.4120734645669293
21
-4.3515676771653542
0
LINE
8
BLACK
6
CONTINUOUS
10
4.4120734645669293
20
-4.3515676771653542
11
4.3895762992125986
21
-4.3515676771653542
0
LINE
8
BLACK
6
CONTINUOUS
10
4.3895762992125986
20
-4.3515676771653542
11
4.3890002362204728
21
-4.3515109448818894
0
LINE
8
BLACK
6
CONTINUOUS
10
4.3890002362204728
20
-4.3515109448818894
11
4.3879358267716535
21
-4.3510700393700787
0
LINE
8
BLACK
6
CONTINUOUS
10
4.3879358267716535
20
-4.3510700393700787
11
4.387121181102362
21
-4.3502553937007873
0
LINE
8
BLACK
6
CONTINUOUS
10
4.387121181102362
20
-4.3502553937007873
11
4.3866802755905514
21
-4.349190984251968
0
LINE
8
BLACK
6
CONTINUOUS
10
4.3866802755905514
20
-4.349190984251968
11
4.3866802755905514
21
-4.3480388582677163
0
LINE
8
BLACK
6
CONTINUOUS
10
4.3866802755905514
20
-4.3480388582677163
11
4.387121181102362
21
-4.3469744488188979
0
LINE
8
BLACK
6
CONTINUOUS
10
4.387121181102362
20
-4.3469744488188979
11
4.3879358267716535
21
-4.3461598031496065
0
LINE
8
BLACK
6
CONTINUOUS
10
4.3879358267716535
20
-4.3461598031496065
11
4.3890002362204728
21
-4.345718897637795
0
LINE
8
BLACK
6
CONTINUOUS
10
4.3890002362204728
20
-4.345718897637795
11
4.3895762992125986
21
-4.345662165354331
0
LINE
8
BLACK
6
CONTINUOUS
10
4.3895762992125986
20
-4.345662165354331
11
4.3978721259842519
21
-4.345662165354331
0
LINE
8
BLACK
6
CONTINUOUS
10
4.3978721259842519
20
-4.345662165354331
11
4.3978721259842519
21
-4.3182481889763782
0
LINE
8
BLACK
6
CONTINUOUS
10
4.3978721259842519
20
-4.3182481889763782
11
4.3954137401574807
21
-4.3207065748031495
0
LINE
8
BLACK
6
CONTINUOUS
10
4.3954137401574807
20
-4.3207065748031495
11
4.3951873622047239
21
-4.3208923228346459
0
LINE
8
BLACK
6
CONTINUOUS
10
4.3951873622047239
20
-4.3208923228346459
11
4.3951362204724411
21
-4.3209513385826774
0
LINE
8
BLACK
6
CONTINUOUS
10
4.3951362204724411
20
-4.3209513385826774
11
4.3950472440944877
21
-4.3210072834645672
0
LINE
8
BLACK
6
CONTINUOUS
10
4.3950472440944877
20
-4.3210072834645672
11
4.394966299212598
21
-4.3210737795275591
0
LINE
8
BLACK
6
CONTINUOUS
10
4.394966299212598
20
-4.3210737795275591
11
4.3948943307086612
21
-4.3211035826771651
0
LINE
8
BLACK
6
CONTINUOUS
10
4.3948943307086612
20
-4.3211035826771651
11
4.3946463385826773
21
-4.3212596850393696
0
LINE
8
BLACK
6
CONTINUOUS
10
4.3946463385826773
20
-4.3212596850393696
11
4.3908968110236222
21
-4.3231344488188972
0
LINE
8
BLACK
6
CONTINUOUS
10
4.3908968110236222
20
-4.3231344488188972
11
4.3903561811023621
21
-4.3233413385826767
0
LINE
8
BLACK
6
CONTINUOUS
10
4.3903561811023621
20
-4.3233413385826767
11
4.3892069685039372
21
-4.3234229921259839
0
LINE
8
BLACK
6
CONTINUOUS
10
4.3892069685039372
20
-4.3234229921259839
11
4.3881140157480312
21
-4.3230586614173223
0
LINE
8
BLACK
6
CONTINUOUS
10
4.3881140157480312
20
-4.3230586614173223
11
4.3872436220472437
21
-4.3223038188976375
0
LINE
8
BLACK
6
CONTINUOUS
10
4.3872436220472437
20
-4.3223038188976375
11
4.3867283858267712
21
-4.3212733070866145
0
LINE
8
BLACK
6
CONTINUOUS
10
4.3867283858267712
20
-4.3212733070866145
11
4.3866467322834648
21
-4.3201240944881887
0
LINE
8
BLACK
6
CONTINUOUS
10
4.3866467322834648
20
-4.3201240944881887
11
4.3870110629921255
21
-4.3190311417322835
0
LINE
8
BLACK
6
CONTINUOUS
10
4.3870110629921255
20
-4.3190311417322835
11
4.3877659055118112
21
-4.3181607480314961
0
LINE
8
BLACK
6
CONTINUOUS
10
4.3877659055118112
20
-4.3181607480314961
11
4.3882557874015751
21
-4.317852401574803
0
LINE
8
BLACK
6
CONTINUOUS
10
4.3882557874015751
20
-4.317852401574803
11
4.3915767322834647
21
-4.3161919291338577
0
LINE
8
BLACK
6
CONTINUOUS
10
4.3915767322834647
20
-4.3161919291338577
11
4.39478062992126
21
-4.3129880314960625
0
LINE
8
BLACK
6
CONTINUOUS
10
4.39478062992126
20
-4.3129880314960625
11
4.3983680314960631
21
-4.3076069291338586
0
LINE
8
BLACK
6
CONTINUOUS
10
4.3983680314960631
20
-4.3076069291338586
11
4.3983693700787398
21
-4.3076052362204722
0
LINE
8
BLACK
6
CONTINUOUS
10
4.3983693700787398
20
-4.3076052362204722
11
4.3983697637795274
21
-4.3076043700787396
0
LINE
8
BLACK
6
CONTINUOUS
10
4.3983697637795274
20
-4.3076043700787396
11
4.3983717716535429
21
-4.3076023228346454
0
LINE
8
BLACK
6
CONTINUOUS
10
4.3983717716535429
20
-4.3076023228346454
11
4.3987348031496065
21
-4.3071590944881892
0
LINE
8
BLACK
6
CONTINUOUS
10
4.3987348031496065
20
-4.3071590944881892
11
4.3989776771653544
21
-4.3069964173228348
0
LINE
8
BLACK
6
CONTINUOUS
10
4.3989776771653544
20
-4.3069964173228348
11
4.3991844094488188
21
-4.3067897244094491
0
LINE
8
BLACK
6
CONTINUOUS
10
4.3991844094488188
20
-4.3067897244094491
11
4.3994516929133853
21
-4.3066789763779525
0
LINE
8
BLACK
6
CONTINUOUS
10
4.3994516929133853
20
-4.3066789763779525
11
4.3996920866141735
21
-4.3065180314960632
0
LINE
8
BLACK
6
CONTINUOUS
10
4.3996920866141735
20
-4.3065180314960632
11
4.3999787007874014
21
-4.3064606692913383
0
LINE
8
BLACK
6
CONTINUOUS
10
4.3999787007874014
20
-4.3064606692913383
11
4.4002488188976381
21
-4.3063488188976375
0
LINE
8
BLACK
6
CONTINUOUS
10
4.4002488188976381
20
-4.3063488188976375
11
4.4005381102362202
21
-4.3063488188976375
0
LINE
8
BLACK
6
CONTINUOUS
10
4.4005381102362202
20
-4.3063488188976375
11
4.4008217716535434
21
-4.3062920866141727
0
LINE
8
BLACK
6
CONTINUOUS
10
4.4008217716535434
20
-4.3062920866141727
11
4.4011085433070862
21
-4.3063488188976375
0
LINE
8
BLACK
6
CONTINUOUS
10
5.4396086614173225
20
-4.3194721653543304
11
5.4397066535433067
21
-4.319512755905512
0
LINE
8
BLACK
6
CONTINUOUS
10
5.4397066535433067
20
-4.319512755905512
11
5.4398124803149601
21
-4.3195202755905511
0
LINE
8
BLACK
6
CONTINUOUS
10
5.4398124803149601
20
-4.3195202755905511
11
5.4403531102362201
21
-4.3197271653543305
0
LINE
8
BLACK
6
CONTINUOUS
10
5.4403531102362201
20
-4.3197271653543305
11
5.4441026377952753
21
-4.3216019291338581
0
LINE
8
BLACK
6
CONTINUOUS
10
5.4441026377952753
20
-4.3216019291338581
11
5.4441989763779528
21
-4.3216625590551176
0
LINE
8
BLACK
6
CONTINUOUS
10
5.4441989763779528
20
-4.3216625590551176
11
5.4442444094488192
21
-4.321677716535433
0
LINE
8
BLACK
6
CONTINUOUS
10
5.4442444094488192
20
-4.321677716535433
11
5.4443009448818893
21
-4.321726732283464
0
LINE
8
BLACK
6
CONTINUOUS
10
5.4443009448818893
20
-4.321726732283464
11
5.4445925196850391
21
-4.3219102755905512
0
LINE
8
BLACK
6
CONTINUOUS
10
5.4445925196850391
20
-4.3219102755905512
11
5.4448350787401569
21
-4.3221899606299212
0
LINE
8
BLACK
6
CONTINUOUS
10
5.4448350787401569
20
-4.3221899606299212
11
5.4451148031496066
21
-4.3224325590551178
0
LINE
8
BLACK
6
CONTINUOUS
10
5.4451148031496066
20
-4.3224325590551178
11
5.4452983070866141
21
-4.3227240944881888
0
LINE
8
BLACK
6
CONTINUOUS
10
5.4452983070866141
20
-4.3227240944881888
11
5.4453473622047239
21
-4.3227806692913386
0
LINE
8
BLACK
6
CONTINUOUS
10
5.4453473622047239
20
-4.3227806692913386
11
5.4453624803149605
21
-4.3228260629921262
0
LINE
8
BLACK
6
CONTINUOUS
10
5.4453624803149605
20
-4.3228260629921262
11
5.4454231496062988
21
-4.3229224409448817
0
LINE
8
BLACK
6
CONTINUOUS
10
5.4454231496062988
20
-4.3229224409448817
11
5.4472979133858264
21
-4.3266719685039368
0
LINE
8
BLACK
6
CONTINUOUS
10
5.4472979133858264
20
-4.3266719685039368
11
5.4475048031496058
21
-4.327212559055118
0
LINE
8
BLACK
6
CONTINUOUS
10
5.4475048031496058
20
-4.327212559055118
11
5.4475123228346458
21
-4.3273184251968502
0
LINE
8
BLACK
6
CONTINUOUS
10
5.4475123228346458
20
-4.3273184251968502
11
5.4475529133858265
21
-4.3274164173228344
0
LINE
8
BLACK
6
CONTINUOUS
10
5.4475529133858265
20
-4.3274164173228344
11
5.4476096456692913
21
-4.3279924803149603
0
LINE
8
BLACK
6
CONTINUOUS
10
5.4476096456692913
20
-4.3279924803149603
11
5.4476096456692913
21
-4.3317420078740154
0
LINE
8
BLACK
6
CONTINUOUS
10
5.4476096456692913
20
-4.3317420078740154
11
5.4475529133858265
21
-4.3323180708661413
0
LINE
8
BLACK
6
CONTINUOUS
10
5.4475529133858265
20
-4.3323180708661413
11
5.447442125984252
21
-4.3325854330708662
0
LINE
8
BLACK
6
CONTINUOUS
10
5.447442125984252
20
-4.3325854330708662
11
5.4473860236220473
21
-4.3328691338582672
0
LINE
8
BLACK
6
CONTINUOUS
10
5.4473860236220473
20
-4.3328691338582672
11
5.4472239370078741
21
-4.3331122440944885
0
LINE
8
BLACK
6
CONTINUOUS
10
5.4472239370078741
20
-4.3331122440944885
11
5.4471120078740158
21
-4.3333824803149605
0
LINE
8
BLACK
6
CONTINUOUS
10
5.4471120078740158
20
-4.3333824803149605
11
5.4469073622047244
21
-4.333587125984252
0
LINE
8
BLACK
6
CONTINUOUS
10
5.4469073622047244
20
-4.333587125984252
11
5.4467469685039367
21
-4.3338277165354331
0
LINE
8
BLACK
6
CONTINUOUS
10
5.4467469685039367
20
-4.3338277165354331
11
5.4465041338582676
21
-4.33399031496063
0
LINE
8
BLACK
6
CONTINUOUS
10
5.4465041338582676
20
-4.33399031496063
11
5.4462973622047244
21
-4.334197125984252
0
LINE
8
BLACK
6
CONTINUOUS
10
5.4462973622047244
20
-4.334197125984252
11
5.446030078740157
21
-4.3343078346456689
0
LINE
8
BLACK
6
CONTINUOUS
10
5.446030078740157
20
-4.3343078346456689
11
5.4457897244094484
21
-4.3344688188976379
0
LINE
8
BLACK
6
CONTINUOUS
10
5.4457897244094484
20
-4.3344688188976379
11
5.4452359448818894
21
-4.3346374409448813
0
LINE
8
BLACK
6
CONTINUOUS
10
5.4452359448818894
20
-4.3346374409448813
11
5.4288620078740157
21
-4.3379122047244092
0
LINE
8
BLACK
6
CONTINUOUS
10
5.4288620078740157
20
-4.3379122047244092
11
5.4288620078740157
21
-4.3422935433070862
0
LINE
8
BLACK
6
CONTINUOUS
10
5.4288620078740157
20
-4.3422935433070862
11
5.4299848425196853
21
-4.3445392913385827
0
LINE
8
BLACK
6
CONTINUOUS
10
5.4299848425196853
20
-4.3445392913385827
11
5.432230590551181
21
-4.345662165354331
0
LINE
8
BLACK
6
CONTINUOUS
10
5.432230590551181
20
-4.345662165354331
11
5.438335551181102
21
-4.345662165354331
0
LINE
8
BLACK
6
CONTINUOUS
10
5.438335551181102
20
-4.345662165354331
11
5.4414616141732282
21
-4.3440991338582675
0
LINE
8
BLACK
6
CONTINUOUS
10
5.4414616141732282
20
-4.3440991338582675
11
5.4420022047244094
21
-4.343892244094488
0
LINE
8
BLACK
6
CONTINUOUS
10
5.4420022047244094
20
-4.343892244094488
11
5.4431514173228344
21
-4.3438105905511808
0
LINE
8
BLACK
6
CONTINUOUS
10
5.4431514173228344
20
-4.3438105905511808
11
5.4442444094488192
21
-4.3441749212598424
0
LINE
8
BLACK
6
CONTINUOUS
10
5.4442444094488192
20
-4.3441749212598424
11
5.4451147637795279
21
-4.3449297637795272
0
LINE
8
BLACK
6
CONTINUOUS
10
5.4451147637795279
20
-4.3449297637795272
11
5.4456300393700783
21
-4.3459602755905511
0
LINE
8
BLACK
6
CONTINUOUS
10
5.4456300393700783
20
-4.3459602755905511
11
5.4457116929133855
21
-4.347109488188976
0
LINE
8
BLACK
6
CONTINUOUS
10
5.4457116929133855
20
-4.347109488188976
11
5.4453473622047239
21
-4.3482024409448821
0
LINE
8
BLACK
6
CONTINUOUS
10
5.4453473622047239
20
-4.3482024409448821
11
5.4445925196850391
21
-4.3490728346456695
0
LINE
8
BLACK
6
CONTINUOUS
10
5.4445925196850391
20
-4.3490728346456695
11
5.4441026377952753
21
-4.3493811811023617
0
LINE
8
BLACK
6
CONTINUOUS
10
5.4441026377952753
20
-4.3493811811023617
11
5.4403531102362201
21
-4.3512559448818893
0
LINE
8
BLACK
6
CONTINUOUS
10
5.4403531102362201
20
-4.3512559448818893
11
5.4398124803149601
21
-4.3514628346456696
0
LINE
8
BLACK
6
CONTINUOUS
10
5.4398124803149601
20
-4.3514628346456696
11
5.4397066535433067
21
-4.35147031496063
0
LINE
8
BLACK
6
CONTINUOUS
10
5.4397066535433067
20
-4.35147031496063
11
5.4396086614173225
21
-4.3515109448818894
0
LINE
8
BLACK
6
CONTINUOUS
10
5.4396086614173225
20
-4.3515109448818894
11
5.4390325984251966
21
-4.3515676771653542
0
LINE
8
BLACK
6
CONTINUOUS
10
5.4390325984251966
20
-4.3515676771653542
11
5.4315335433070864
21
-4.3515676771653542
0
LINE
8
BLACK
6
CONTINUOUS
10
5.4315335433070864
20
-4.3515676771653542
11
5.4309574803149605
21
-4.3515109448818894
0
LINE
8
BLACK
6
CONTINUOUS
10
5.4309574803149605
20
-4.3515109448818894
11
5.4308594881889762
21
-4.3514703543307087
0
LINE
8
BLACK
6
CONTINUOUS
10
5.4308594881889762
20
-4.3514703543307087
11
5.4307536220472441
21
-4.3514628346456696
0
LINE
8
BLACK
6
CONTINUOUS
10
5.4307536220472441
20
-4.3514628346456696
11
5.4302130314960628
21
-4.3512559448818893
0
LINE
8
BLACK
6
CONTINUOUS
10
5.4302130314960628
20
-4.3512559448818893
11
5.4264635039370077
21
-4.3493811811023617
0
LINE
8
BLACK
6
CONTINUOUS
10
5.4264635039370077
20
-4.3493811811023617
11
5.4263671259842514
21
-4.3493205118110234
0
LINE
8
BLACK
6
CONTINUOUS
10
5.4263671259842514
20
-4.3493205118110234
11
5.4263217322834647
21
-4.3493053937007877
0
LINE
8
BLACK
6
CONTINUOUS
10
5.4263217322834647
20
-4.3493053937007877
11
5.4262651574803149
21
-4.349256338582677
0
LINE
8
BLACK
6
CONTINUOUS
10
5.4262651574803149
20
-4.349256338582677
11
5.4259736220472439
21
-4.3490728346456695
0
LINE
8
BLACK
6
CONTINUOUS
10
5.4259736220472439
20
-4.3490728346456695
11
5.4257309448818898
21
-4.3487929921259845
0
LINE
8
BLACK
6
CONTINUOUS
10
5.4257309448818898
20
-4.3487929921259845
11
5.4254513385826773
21
-4.3485505118110233
0
LINE
8
BLACK
6
CONTINUOUS
10
5.4254513385826773
20
-4.3485505118110233
11
5.4252678346456689
21
-4.348259015748031
0
LINE
8
BLACK
6
CONTINUOUS
10
5.4252678346456689
20
-4.348259015748031
11
5.425218779527559
21
-4.3482024409448821
0
LINE
8
BLACK
6
CONTINUOUS
10
5.425218779527559
20
-4.3482024409448821
11
5.4252036220472437
21
-4.348156968503937
0
LINE
8
BLACK
6
CONTINUOUS
10
5.4252036220472437
20
-4.348156968503937
11
5.4251429921259842
21
-4.3480606692913382
0
LINE
8
BLACK
6
CONTINUOUS
10
5.4251429921259842
20
-4.3480606692913382
11
5.4232682283464566
21
-4.3443111023622043
0
LINE
8
BLACK
6
CONTINUOUS
10
5.4232682283464566
20
-4.3443111023622043
11
5.4230613385826771
21
-4.3437704724409452
0
LINE
8
BLACK
6
CONTINUOUS
10
5.4230613385826771
20
-4.3437704724409452
11
5.423053818897638
21
-4.3436646456692909
0
LINE
8
BLACK
6
CONTINUOUS
10
5.423053818897638
20
-4.3436646456692909
11
5.4230132283464565
21
-4.3435666535433066
0
LINE
8
BLACK
6
CONTINUOUS
10
5.4230132283464565
20
-4.3435666535433066
11
5.4229564960629917
21
-4.3429905905511808
0
LINE
8
BLACK
6
CONTINUOUS
10
5.4229564960629917
20
-4.3429905905511808
11
5.4229564960629917
21
-4.3279924803149603
0
LINE
8
BLACK
6
CONTINUOUS
10
5.4229564960629917
20
-4.3279924803149603
11
5.4230132283464565
21
-4.3274164173228344
0
LINE
8
BLACK
6
CONTINUOUS
10
5.4230132283464565
20
-4.3274164173228344
11
5.423053818897638
21
-4.3273183858267714
0
LINE
8
BLACK
6
CONTINUOUS
10
5.423053818897638
20
-4.3273183858267714
11
5.4230613385826771
21
-4.3272125984251968
0
LINE
8
BLACK
6
CONTINUOUS
10
5.4230613385826771
20
-4.3272125984251968
11
5.4232682283464566
21
-4.3266719685039368
0
LINE
8
BLACK
6
CONTINUOUS
10
5.4232682283464566
20
-4.3266719685039368
11
5.4251429921259842
21
-4.3229224409448817
0
LINE
8
BLACK
6
CONTINUOUS
10
5.4251429921259842
20
-4.3229224409448817
11
5.4252036220472437
21
-4.3228260629921262
0
LINE
8
BLACK
6
CONTINUOUS
10
5.4252036220472437
20
-4.3228260629921262
11
5.425218779527559
21
-4.3227806692913386
0
LINE
8
BLACK
6
CONTINUOUS
10
5.425218779527559
20
-4.3227806692913386
11
5.4252677952755901
21
-4.3227240944881888
0
LINE
8
BLACK
6
CONTINUOUS
10
5.4252677952755901
20
-4.3227240944881888
11
5.4254513385826773
21
-4.3224325590551178
0
LINE
8
BLACK
6
CONTINUOUS
10
5.4254513385826773
20
-4.3224325590551178
11
5.4257310236220473
21
-4.3221899606299212
0
LINE
8
BLACK
6
CONTINUOUS
10
5.4257310236220473
20
-4.3221899606299212
11
5.4259736220472439
21
-4.3219102755905512
0
LINE
8
BLACK
6
CONTINUOUS
10
5.4259736220472439
20
-4.3219102755905512
11
5.4262651574803149
21
-4.321726732283464
0
LINE
8
BLACK
6
CONTINUOUS
10
5.4262651574803149
20
-4.321726732283464
11
5.4263217322834647
21
-4.321677716535433
0
LINE
8
BLACK
6
CONTINUOUS
10
5.4263217322834647
20
-4.321677716535433
11
5.4263671259842514
21
-4.3216625590551176
0
LINE
8
BLACK
6
CONTINUOUS
10
5.4263671259842514
20
-4.3216625590551176
11
5.4264635039370077
21
-4.3216019291338581
0
LINE
8
BLACK
6
CONTINUOUS
10
5.4264635039370077
20
-4.3216019291338581
11
5.4302130314960628
21
-4.3197271653543305
0
LINE
8
BLACK
6
CONTINUOUS
10
5.4302130314960628
20
-4.3197271653543305
11
5.4307536220472441
21
-4.3195202755905511
0
LINE
8
BLACK
6
CONTINUOUS
10
5.4307536220472441
20
-4.3195202755905511
11
5.4308594881889762
21
-4.3195127165354332
0
LINE
8
BLACK
6
CONTINUOUS
10
5.4308594881889762
20
-4.3195127165354332
11
5.4309574803149605
21
-4.3194721653543304
0
LINE
8
BLACK
6
CONTINUOUS
10
5.4309574803149605
20
-4.3194721653543304
11
5.4315335433070864
21
-4.3194154330708656
0
LINE
8
BLACK
6
CONTINUOUS
10
5.4315335433070864
20
-4.3194154330708656
11
5.4390325984251966
21
-4.3194154330708656
0
LINE
8
BLACK
6
CONTINUOUS
10
5.4390325984251966
20
-4.3194154330708656
11
5.4396086614173225
21
-4.3194721653543304
0
LINE
8
BLACK
6
CONTINUOUS
10
5.4299848425196853
20
-4.3264437795275592
11
5.4288620078740157
21
-4.3286895275590549
0
LINE
8
BLACK
6
CONTINUOUS
10
5.4288620078740157
20
-4.3286895275590549
11
5.4288620078740157
21
-4.3318897244094483
0
LINE
8
BLACK
6
CONTINUOUS
10
5.4288620078740157
20
-4.3318897244094483
11
5.4417041338582672
21
-4.3293213385826768
0
LINE
8
BLACK
6
CONTINUOUS
10
5.4417041338582672
20
-4.3293213385826768
11
5.4417041338582672
21
-4.3286895275590549
0
LINE
8
BLACK
6
CONTINUOUS
10
5.4417041338582672
20
-4.3286895275590549
11
5.4405812598425198
21
-4.3264437795275592
0
LINE
8
BLACK
6
CONTINUOUS
10
5.4405812598425198
20
-4.3264437795275592
11
5.438335551181102
21
-4.3253209448818897
0
LINE
8
BLACK
6
CONTINUOUS
10
5.438335551181102
20
-4.3253209448818897
11
5.432230590551181
21
-4.3253209448818897
0
LINE
8
BLACK
6
CONTINUOUS
10
5.432230590551181
20
-4.3253209448818897
11
5.4299848425196853
21
-4.3264437795275592
0
LINE
8
BLACK
6
CONTINUOUS
10
5.5389712598425191
20
-4.3063488188976375
11
5.5392385039370078
21
-4.3064595275590554
0
LINE
8
BLACK
6
CONTINUOUS
10
5.5392385039370078
20
-4.3064595275590554
11
5.539522322834646
21
-4.3065156692913389
0
LINE
8
BLACK
6
CONTINUOUS
10
5.539522322834646
20
-4.3065156692913389
11
5.5397655511811026
21
-4.3066778346456696
0
LINE
8
BLACK
6
CONTINUOUS
10
5.5397655511811026
20
-4.3066778346456696
11
5.5400356692913384
21
-4.3067897244094491
0
LINE
8
BLACK
6
CONTINUOUS
10
5.5400356692913384
20
-4.3067897244094491
11
5.5402401968503936
21
-4.3069942519685043
0
LINE
8
BLACK
6
CONTINUOUS
10
5.5402401968503936
20
-4.3069942519685043
11
5.5404809448818897
21
-4.3071547637795273
0
LINE
8
BLACK
6
CONTINUOUS
10
5.5404809448818897
20
-4.3071547637795273
11
5.5406435826771654
21
-4.3073976377952752
0
LINE
8
BLACK
6
CONTINUOUS
10
5.5406435826771654
20
-4.3073976377952752
11
5.5408503149606299
21
-4.3076043700787396
0
LINE
8
BLACK
6
CONTINUOUS
10
5.5408503149606299
20
-4.3076043700787396
11
5.5409610236220468
21
-4.307871653543307
0
LINE
8
BLACK
6
CONTINUOUS
10
5.5409610236220468
20
-4.307871653543307
11
5.5411220078740158
21
-4.3081120472440944
0
LINE
8
BLACK
6
CONTINUOUS
10
5.5411220078740158
20
-4.3081120472440944
11
5.541179330708661
21
-4.3083986614173231
0
LINE
8
BLACK
6
CONTINUOUS
10
5.541179330708661
20
-4.3083986614173231
11
5.5412912204724405
21
-4.3086687795275589
0
LINE
8
BLACK
6
CONTINUOUS
10
5.5412912204724405
20
-4.3086687795275589
11
5.5412912204724405
21
-4.3089580708661419
0
LINE
8
BLACK
6
CONTINUOUS
10
5.5412912204724405
20
-4.3089580708661419
11
5.5413479527559053
21
-4.3092417322834642
0
LINE
8
BLACK
6
CONTINUOUS
10
5.5413479527559053
20
-4.3092417322834642
11
5.5412912204724405
21
-4.3095285039370079
0
LINE
8
BLACK
6
CONTINUOUS
10
5.5412912204724405
20
-4.3095285039370079
11
5.5412912204724405
21
-4.3098209055118106
0
LINE
8
BLACK
6
CONTINUOUS
10
5.5412912204724405
20
-4.3098209055118106
11
5.5411804724409448
21
-4.3100881496062993
0
LINE
8
BLACK
6
CONTINUOUS
10
5.5411804724409448
20
-4.3100881496062993
11
5.54112437007874
21
-4.3103719685039366
0
LINE
8
BLACK
6
CONTINUOUS
10
5.54112437007874
20
-4.3103719685039366
11
5.5408520472440941
21
-4.3108827559055118
0
LINE
8
BLACK
6
CONTINUOUS
10
5.5408520472440941
20
-4.3108827559055118
11
5.5176657874015751
21
-4.345662165354331
0
LINE
8
BLACK
6
CONTINUOUS
10
5.5176657874015751
20
-4.345662165354331
11
5.5383951968503933
21
-4.345662165354331
0
LINE
8
BLACK
6
CONTINUOUS
10
5.5383951968503933
20
-4.345662165354331
11
5.5389712598425191
21
-4.345718897637795
0
LINE
8
BLACK
6
CONTINUOUS
10
5.5389712598425191
20
-4.345718897637795
11
5.5400356692913384
21
-4.3461598031496065
0
LINE
8
BLACK
6
CONTINUOUS
10
5.5400356692913384
20
-4.3461598031496065
11
5.5408503149606299
21
-4.3469744488188979
0
LINE
8
BLACK
6
CONTINUOUS
10
5.5408503149606299
20
-4.3469744488188979
11
5.5412912204724405
21
-4.3480388582677163
0
LINE
8
BLACK
6
CONTINUOUS
10
5.5412912204724405
20
-4.3480388582677163
11
5.5412912204724405
21
-4.349190984251968
0
LINE
8
BLACK
6
CONTINUOUS
10
5.5412912204724405
20
-4.349190984251968
11
5.5408503149606299
21
-4.3502553937007873
0
LINE
8
BLACK
6
CONTINUOUS
10
5.5408503149606299
20
-4.3502553937007873
11
5.5400356692913384
21
-4.3510700393700787
0
LINE
8
BLACK
6
CONTINUOUS
10
5.5400356692913384
20
-4.3510700393700787
11
5.5389712598425191
21
-4.3515109448818894
0
LINE
8
BLACK
6
CONTINUOUS
10
5.5389712598425191
20
-4.3515109448818894
11
5.5383951968503933
21
-4.3515676771653542
0
LINE
8
BLACK
6
CONTINUOUS
10
5.5383951968503933
20
-4.3515676771653542
11
5.5121516141732281
21
-4.3515676771653542
0
LINE
8
BLACK
6
CONTINUOUS
10
5.5121516141732281
20
-4.3515676771653542
11
5.5121485039370075
21
-4.3515676771653542
0
LINE
8
BLACK
6
CONTINUOUS
10
5.5121485039370075
20
-4.3515676771653542
11
5.5115724409448816
21
-4.3515109448818894
0
LINE
8
BLACK
6
CONTINUOUS
10
5.5115724409448816
20
-4.3515109448818894
11
5.5113051574803151
21
-4.3514001968503937
0
LINE
8
BLACK
6
CONTINUOUS
10
5.5113051574803151
20
-4.3514001968503937
11
5.5110213779527557
21
-4.3513440944881889
0
LINE
8
BLACK
6
CONTINUOUS
10
5.5110213779527557
20
-4.3513440944881889
11
5.5107781102362203
21
-4.3511818897637795
0
LINE
8
BLACK
6
CONTINUOUS
10
5.5107781102362203
20
-4.3511818897637795
11
5.5105080314960633
21
-4.3510700393700787
0
LINE
8
BLACK
6
CONTINUOUS
10
5.5105080314960633
20
-4.3510700393700787
11
5.5103034645669293
21
-4.3508654724409448
0
LINE
8
BLACK
6
CONTINUOUS
10
5.5103034645669293
20
-4.3508654724409448
11
5.510062755905512
21
-4.3507049999999996
0
LINE
8
BLACK
6
CONTINUOUS
10
5.510062755905512
20
-4.3507049999999996
11
5.5099000787401575
21
-4.350462086614173
0
LINE
8
BLACK
6
CONTINUOUS
10
5.5099000787401575
20
-4.350462086614173
11
5.5096933858267718
21
-4.3502553937007873
0
LINE
8
BLACK
6
CONTINUOUS
10
5.5096933858267718
20
-4.3502553937007873
11
5.5095826377952752
21
-4.349988070866142
0
LINE
8
BLACK
6
CONTINUOUS
10
5.5095826377952752
20
-4.349988070866142
11
5.5094216929133859
21
-4.3497477165354326
0
LINE
8
BLACK
6
CONTINUOUS
10
5.5094216929133859
20
-4.3497477165354326
11
5.5093643307086611
21
-4.349461062992126
0
LINE
8
BLACK
6
CONTINUOUS
10
5.5093643307086611
20
-4.349461062992126
11
5.5092524803149603
21
-4.349190984251968
0
LINE
8
BLACK
6
CONTINUOUS
10
5.5092524803149603
20
-4.349190984251968
11
5.5092524803149603
21
-4.3489016535433072
0
LINE
8
BLACK
6
CONTINUOUS
10
5.5092524803149603
20
-4.3489016535433072
11
5.5091957480314964
21
-4.3486180314960627
0
LINE
8
BLACK
6
CONTINUOUS
10
5.5091957480314964
20
-4.3486180314960627
11
5.5092524803149603
21
-4.3483312204724411
0
LINE
8
BLACK
6
CONTINUOUS
10
5.5092524803149603
20
-4.3483312204724411
11
5.5092524803149603
21
-4.3480388582677163
0
LINE
8
BLACK
6
CONTINUOUS
10
5.5092524803149603
20
-4.3480388582677163
11
5.5093631889763781
21
-4.3477715748031498
0
LINE
8
BLACK
6
CONTINUOUS
10
5.5093631889763781
20
-4.3477715748031498
11
5.5094193307086616
21
-4.3474877952755904
0
LINE
8
BLACK
6
CONTINUOUS
10
5.5094193307086616
20
-4.3474877952755904
11
5.5096916535433067
21
-4.3469770472440947
0
LINE
8
BLACK
6
CONTINUOUS
10
5.5096916535433067
20
-4.3469770472440947
11
5.5328779133858266
21
-4.3121975984251968
0
LINE
8
BLACK
6
CONTINUOUS
10
5.5328779133858266
20
-4.3121975984251968
11
5.5121485039370075
21
-4.3121975984251968
0
LINE
8
BLACK
6
CONTINUOUS
10
5.5121485039370075
20
-4.3121975984251968
11
5.5115724409448816
21
-4.312140866141732
0
LINE
8
BLACK
6
CONTINUOUS
10
5.5115724409448816
20
-4.312140866141732
11
5.5105080314960633
21
-4.3116999606299213
0
LINE
8
BLACK
6
CONTINUOUS
10
5.5105080314960633
20
-4.3116999606299213
11
5.5096933858267718
21
-4.3108853149606299
0
LINE
8
BLACK
6
CONTINUOUS
10
5.5096933858267718
20
-4.3108853149606299
11
5.5092524803149603
21
-4.3098209055118106
0
LINE
8
BLACK
6
CONTINUOUS
10
5.5092524803149603
20
-4.3098209055118106
11
5.5092524803149603
21
-4.3086687795275589
0
LINE
8
BLACK
6
CONTINUOUS
10
5.5092524803149603
20
-4.3086687795275589
11
5.5096933858267718
21
-4.3076043700787396
0
LINE
8
BLACK
6
CONTINUOUS
10
5.5096933858267718
20
-4.3076043700787396
11
5.5105080314960633
21
-4.3067897244094491
0
LINE
8
BLACK
6
CONTINUOUS
10
5.5105080314960633
20
-4.3067897244094491
11
5.5115724409448816
21
-4.3063488188976375
0
LINE
8
BLACK
6
CONTINUOUS
10
5.5115724409448816
20
-4.3063488188976375
11
5.5121485039370075
21
-4.3062920866141727
0
LINE
8
BLACK
6
CONTINUOUS
10
5.5121485039370075
20
-4.3062920866141727
11
5.5383951968503933
21
-4.3062920866141727
0
LINE
8
BLACK
6
CONTINUOUS
10
5.5383951968503933
20
-4.3062920866141727
11
5.5389712598425191
21
-4.3063488188976375
0
LINE
8
BLACK
6
CONTINUOUS
10
5.5652179921259846
20
-4.3194721653543304
11
5.5653159842519679
21
-4.319512755905512
0
LINE
8
BLACK
6
CONTINUOUS
10
5.5653159842519679
20
-4.319512755905512
11
5.5654218110236222
21
-4.3195202755905511
0
LINE
8
BLACK
6
CONTINUOUS
10
5.5654218110236222
20
-4.3195202755905511
11
5.5659624409448814
21
-4.3197271653543305
0
LINE
8
BLACK
6
CONTINUOUS
10
5.5659624409448814
20
-4.3197271653543305
11
5.5697119685039365
21
-4.3216019291338581
0
LINE
8
BLACK
6
CONTINUOUS
10
5.5697119685039365
20
-4.3216019291338581
11
5.569808307086614
21
-4.3216625590551176
0
LINE
8
BLACK
6
CONTINUOUS
10
5.569808307086614
20
-4.3216625590551176
11
5.5698537401574804
21
-4.321677716535433
0
LINE
8
BLACK
6
CONTINUOUS
10
5.5698537401574804
20
-4.321677716535433
11
5.5699102755905514
21
-4.321726732283464
0
LINE
8
BLACK
6
CONTINUOUS
10
5.5699102755905514
20
-4.321726732283464
11
5.5702018503937003
21
-4.3219102755905512
0
LINE
8
BLACK
6
CONTINUOUS
10
5.5702018503937003
20
-4.3219102755905512
11
5.570444409448819
21
-4.3221899606299212
0
LINE
8
BLACK
6
CONTINUOUS
10
5.570444409448819
20
-4.3221899606299212
11
5.5707241338582678
21
-4.3224325590551178
0
LINE
8
BLACK
6
CONTINUOUS
10
5.5707241338582678
20
-4.3224325590551178
11
5.5709076377952753
21
-4.3227240944881888
0
LINE
8
BLACK
6
CONTINUOUS
10
5.5709076377952753
20
-4.3227240944881888
11
5.570956692913386
21
-4.3227806692913386
0
LINE
8
BLACK
6
CONTINUOUS
10
5.570956692913386
20
-4.3227806692913386
11
5.5709718110236217
21
-4.3228260629921262
0
LINE
8
BLACK
6
CONTINUOUS
10
5.5709718110236217
20
-4.3228260629921262
11
5.5710324803149609
21
-4.3229224409448817
0
LINE
8
BLACK
6
CONTINUOUS
10
5.5710324803149609
20
-4.3229224409448817
11
5.5729072440944885
21
-4.3266719685039368
0
LINE
8
BLACK
6
CONTINUOUS
10
5.5729072440944885
20
-4.3266719685039368
11
5.5731141338582679
21
-4.327212559055118
0
LINE
8
BLACK
6
CONTINUOUS
10
5.5731141338582679
20
-4.327212559055118
11
5.573121653543307
21
-4.3273184251968502
0
LINE
8
BLACK
6
CONTINUOUS
10
5.573121653543307
20
-4.3273184251968502
11
5.5731622440944877
21
-4.3274164173228344
0
LINE
8
BLACK
6
CONTINUOUS
10
5.5731622440944877
20
-4.3274164173228344
11
5.5732189763779525
21
-4.3279924803149603
0
LINE
8
BLACK
6
CONTINUOUS
10
5.5732189763779525
20
-4.3279924803149603
11
5.5732189763779525
21
-4.3317420078740154
0
LINE
8
BLACK
6
CONTINUOUS
10
5.5732189763779525
20
-4.3317420078740154
11
5.5731622440944877
21
-4.3323180708661413
0
LINE
8
BLACK
6
CONTINUOUS
10
5.5731622440944877
20
-4.3323180708661413
11
5.5730514566929132
21
-4.3325854330708662
0
LINE
8
BLACK
6
CONTINUOUS
10
5.5730514566929132
20
-4.3325854330708662
11
5.5729953543307085
21
-4.3328691338582672
0
LINE
8
BLACK
6
CONTINUOUS
10
5.5729953543307085
20
-4.3328691338582672
11
5.5728332677165353
21
-4.3331122440944885
0
LINE
8
BLACK
6
CONTINUOUS
10
5.5728332677165353
20
-4.3331122440944885
11
5.572721338582677
21
-4.3333824803149605
0
LINE
8
BLACK
6
CONTINUOUS
10
5.572721338582677
20
-4.3333824803149605
11
5.5725166929133856
21
-4.333587125984252
0
LINE
8
BLACK
6
CONTINUOUS
10
5.5725166929133856
20
-4.333587125984252
11
5.5723562992125979
21
-4.3338277165354331
0
LINE
8
BLACK
6
CONTINUOUS
10
5.5723562992125979
20
-4.3338277165354331
11
5.5721134645669288
21
-4.33399031496063
0
LINE
8
BLACK
6
CONTINUOUS
10
5.5721134645669288
20
-4.33399031496063
11
5.5719066929133856
21
-4.334197125984252
0
LINE
8
BLACK
6
CONTINUOUS
10
5.5719066929133856
20
-4.334197125984252
11
5.5716394094488191
21
-4.3343078346456689
0
LINE
8
BLACK
6
CONTINUOUS
10
5.5716394094488191
20
-4.3343078346456689
11
5.5713990551181105
21
-4.3344688188976379
0
LINE
8
BLACK
6
CONTINUOUS
10
5.5713990551181105
20
-4.3344688188976379
11
5.5708452755905506
21
-4.3346374409448813
0
LINE
8
BLACK
6
CONTINUOUS
10
5.5708452755905506
20
-4.3346374409448813
11
5.5544713385826769
21
-4.3379122047244092
0
LINE
8
BLACK
6
CONTINUOUS
10
5.5544713385826769
20
-4.3379122047244092
11
5.5544713385826769
21
-4.3422935433070862
0
LINE
8
BLACK
6
CONTINUOUS
10
5.5544713385826769
20
-4.3422935433070862
11
5.5555941732283465
21
-4.3445392913385827
0
LINE
8
BLACK
6
CONTINUOUS
10
5.5555941732283465
20
-4.3445392913385827
11
5.5578399212598422
21
-4.345662165354331
0
LINE
8
BLACK
6
CONTINUOUS
10
5.5578399212598422
20
-4.345662165354331
11
5.5639448818897632
21
-4.345662165354331
0
LINE
8
BLACK
6
CONTINUOUS
10
5.5639448818897632
20
-4.345662165354331
11
5.5670709448818894
21
-4.3440991338582675
0
LINE
8
BLACK
6
CONTINUOUS
10
5.5670709448818894
20
-4.3440991338582675
11
5.5676115354330706
21
-4.343892244094488
0
LINE
8
BLACK
6
CONTINUOUS
10
5.5676115354330706
20
-4.343892244094488
11
5.5687607480314956
21
-4.3438105905511808
0
LINE
8
BLACK
6
CONTINUOUS
10
5.5687607480314956
20
-4.3438105905511808
11
5.5698537401574804
21
-4.3441749212598424
0
LINE
8
BLACK
6
CONTINUOUS
10
5.5698537401574804
20
-4.3441749212598424
11
5.5707240944881891
21
-4.3449297637795272
0
LINE
8
BLACK
6
CONTINUOUS
10
5.5707240944881891
20
-4.3449297637795272
11
5.5712393700787404
21
-4.3459602755905511
0
LINE
8
BLACK
6
CONTINUOUS
10
5.5712393700787404
20
-4.3459602755905511
11
5.5713210236220467
21
-4.347109488188976
0
LINE
8
BLACK
6
CONTINUOUS
10
5.5713210236220467
20
-4.347109488188976
11
5.570956692913386
21
-4.3482024409448821
0
LINE
8
BLACK
6
CONTINUOUS
10
5.570956692913386
20
-4.3482024409448821
11
5.5702018503937003
21
-4.3490728346456695
0
LINE
8
BLACK
6
CONTINUOUS
10
5.5702018503937003
20
-4.3490728346456695
11
5.5697119685039365
21
-4.3493811811023617
0
LINE
8
BLACK
6
CONTINUOUS
10
5.5697119685039365
20
-4.3493811811023617
11
5.5659624409448814
21
-4.3512559448818893
0
LINE
8
BLACK
6
CONTINUOUS
10
5.5659624409448814
20
-4.3512559448818893
11
5.5654218110236222
21
-4.3514628346456696
0
LINE
8
BLACK
6
CONTINUOUS
10
5.5654218110236222
20
-4.3514628346456696
11
5.5653159842519679
21
-4.35147031496063
0
LINE
8
BLACK
6
CONTINUOUS
10
5.5653159842519679
20
-4.35147031496063
11
5.5652179921259846
21
-4.3515109448818894
0
LINE
8
BLACK
6
CONTINUOUS
10
5.5652179921259846
20
-4.3515109448818894
11
5.5646419291338578
21
-4.3515676771653542
0
LINE
8
BLACK
6
CONTINUOUS
10
5.5646419291338578
20
-4.3515676771653542
11
5.5571428740157476
21
-4.3515676771653542
0
LINE
8
BLACK
6
CONTINUOUS
10
5.5571428740157476
20
-4.3515676771653542
11
5.5565668110236217
21
-4.3515109448818894
0
LINE
8
BLACK
6
CONTINUOUS
10
5.5565668110236217
20
-4.3515109448818894
11
5.5564688188976374
21
-4.3514703543307087
0
LINE
8
BLACK
6
CONTINUOUS
10
5.5564688188976374
20
-4.3514703543307087
11
5.5563629527559053
21
-4.3514628346456696
0
LINE
8
BLACK
6
CONTINUOUS
10
5.5563629527559053
20
-4.3514628346456696
11
5.555822362204724
21
-4.3512559448818893
0
LINE
8
BLACK
6
CONTINUOUS
10
5.555822362204724
20
-4.3512559448818893
11
5.5520728346456689
21
-4.3493811811023617
0
LINE
8
BLACK
6
CONTINUOUS
10
5.5520728346456689
20
-4.3493811811023617
11
5.5519764566929135
21
-4.3493205118110234
0
LINE
8
BLACK
6
CONTINUOUS
10
5.5519764566929135
20
-4.3493205118110234
11
5.5519310629921259
21
-4.3493053937007877
0
LINE
8
BLACK
6
CONTINUOUS
10
5.5519310629921259
20
-4.3493053937007877
11
5.5518744881889761
21
-4.349256338582677
0
LINE
8
BLACK
6
CONTINUOUS
10
5.5518744881889761
20
-4.349256338582677
11
5.5515829527559051
21
-4.3490728346456695
0
LINE
8
BLACK
6
CONTINUOUS
10
5.5515829527559051
20
-4.3490728346456695
11
5.551340275590551
21
-4.3487929921259845
0
LINE
8
BLACK
6
CONTINUOUS
10
5.551340275590551
20
-4.3487929921259845
11
5.5510606692913385
21
-4.3485505118110233
0
LINE
8
BLACK
6
CONTINUOUS
10
5.5510606692913385
20
-4.3485505118110233
11
5.550877165354331
21
-4.348259015748031
0
LINE
8
BLACK
6
CONTINUOUS
10
5.550877165354331
20
-4.348259015748031
11
5.5508281102362202
21
-4.3482024409448821
0
LINE
8
BLACK
6
CONTINUOUS
10
5.5508281102362202
20
-4.3482024409448821
11
5.5508129527559058
21
-4.348156968503937
0
LINE
8
BLACK
6
CONTINUOUS
10
5.5508129527559058
20
-4.348156968503937
11
5.5507523228346454
21
-4.3480606692913382
0
LINE
8
BLACK
6
CONTINUOUS
10
5.5507523228346454
20
-4.3480606692913382
11
5.5488775590551178
21
-4.3443111023622043
0
LINE
8
BLACK
6
CONTINUOUS
10
5.5488775590551178
20
-4.3443111023622043
11
5.5486706692913383
21
-4.3437704724409452
0
LINE
8
BLACK
6
CONTINUOUS
10
5.5486706692913383
20
-4.3437704724409452
11
5.5486631496062992
21
-4.3436646456692909
0
LINE
8
BLACK
6
CONTINUOUS
10
5.5486631496062992
20
-4.3436646456692909
11
5.5486225590551177
21
-4.3435666535433066
0
LINE
8
BLACK
6
CONTINUOUS
10
5.5486225590551177
20
-4.3435666535433066
11
5.5485658267716538
21
-4.3429905905511808
0
LINE
8
BLACK
6
CONTINUOUS
10
5.5485658267716538
20
-4.3429905905511808
11
5.5485658267716538
21
-4.3279924803149603
0
LINE
8
BLACK
6
CONTINUOUS
10
5.5485658267716538
20
-4.3279924803149603
11
5.5486225590551177
21
-4.3274164173228344
0
LINE
8
BLACK
6
CONTINUOUS
10
5.5486225590551177
20
-4.3274164173228344
11
5.5486631496062992
21
-4.3273183858267714
0
LINE
8
BLACK
6
CONTINUOUS
10
5.5486631496062992
20
-4.3273183858267714
11
5.5486706692913383
21
-4.3272125984251968
0
LINE
8
BLACK
6
CONTINUOUS
10
5.5486706692913383
20
-4.3272125984251968
11
5.5488775590551178
21
-4.3266719685039368
0
LINE
8
BLACK
6
CONTINUOUS
10
5.5488775590551178
20
-4.3266719685039368
11
5.5507523228346454
21
-4.3229224409448817
0
LINE
8
BLACK
6
CONTINUOUS
10
5.5507523228346454
20
-4.3229224409448817
11
5.5508129527559058
21
-4.3228260629921262
0
LINE
8
BLACK
6
CONTINUOUS
10
5.5508129527559058
20
-4.3228260629921262
11
5.5508281102362202
21
-4.3227806692913386
0
LINE
8
BLACK
6
CONTINUOUS
10
5.5508281102362202
20
-4.3227806692913386
11
5.5508771259842522
21
-4.3227240944881888
0
LINE
8
BLACK
6
CONTINUOUS
10
5.5508771259842522
20
-4.3227240944881888
11
5.5510606692913385
21
-4.3224325590551178
0
LINE
8
BLACK
6
CONTINUOUS
10
5.5510606692913385
20
-4.3224325590551178
11
5.5513403543307085
21
-4.3221899606299212
0
LINE
8
BLACK
6
CONTINUOUS
10
5.5513403543307085
20
-4.3221899606299212
11
5.5515829527559051
21
-4.3219102755905512
0
LINE
8
BLACK
6
CONTINUOUS
10
5.5515829527559051
20
-4.3219102755905512
11
5.5518744881889761
21
-4.321726732283464
0
LINE
8
BLACK
6
CONTINUOUS
10
5.5518744881889761
20
-4.321726732283464
11
5.5519310629921259
21
-4.321677716535433
0
LINE
8
BLACK
6
CONTINUOUS
10
5.5519310629921259
20
-4.321677716535433
11
5.5519764566929135
21
-4.3216625590551176
0
LINE
8
BLACK
6
CONTINUOUS
10
5.5519764566929135
20
-4.3216625590551176
11
5.5520728346456689
21
-4.3216019291338581
0
LINE
8
BLACK
6
CONTINUOUS
10
5.5520728346456689
20
-4.3216019291338581
11
5.555822362204724
21
-4.3197271653543305
0
LINE
8
BLACK
6
CONTINUOUS
10
5.555822362204724
20
-4.3197271653543305
11
5.5563629527559053
21
-4.3195202755905511
0
LINE
8
BLACK
6
CONTINUOUS
10
5.5563629527559053
20
-4.3195202755905511
11
5.5564688188976374
21
-4.3195127165354332
0
LINE
8
BLACK
6
CONTINUOUS
10
5.5564688188976374
20
-4.3195127165354332
11
5.5565668110236217
21
-4.3194721653543304
0
LINE
8
BLACK
6
CONTINUOUS
10
5.5565668110236217
20
-4.3194721653543304
11
5.5571428740157476
21
-4.3194154330708656
0
LINE
8
BLACK
6
CONTINUOUS
10
5.5571428740157476
20
-4.3194154330708656
11
5.5646419291338578
21
-4.3194154330708656
0
LINE
8
BLACK
6
CONTINUOUS
10
5.5646419291338578
20
-4.3194154330708656
11
5.5652179921259846
21
-4.3194721653543304
0
LINE
8
BLACK
6
CONTINUOUS
10
5.5555941732283465
20
-4.3264437795275592
11
5.5544713385826769
21
-4.3286895275590549
0
LINE
8
BLACK
6
CONTINUOUS
10
5.5544713385826769
20
-4.3286895275590549
11
5.5544713385826769
21
-4.3318897244094483
0
LINE
8
BLACK
6
CONTINUOUS
10
5.5544713385826769
20
-4.3318897244094483
11
5.5673134645669293
21
-4.3293213385826768
0
LINE
8
BLACK
6
CONTINUOUS
10
5.5673134645669293
20
-4.3293213385826768
11
5.5673134645669293
21
-4.3286895275590549
0
LINE
8
BLACK
6
CONTINUOUS
10
5.5673134645669293
20
-4.3286895275590549
11
5.566190590551181
21
-4.3264437795275592
0
LINE
8
BLACK
6
CONTINUOUS
10
5.566190590551181
20
-4.3264437795275592
11
5.5639448818897632
21
-4.3253209448818897
0
LINE
8
BLACK
6
CONTINUOUS
10
5.5639448818897632
20
-4.3253209448818897
11
5.5578399212598422
21
-4.3253209448818897
0
LINE
8
BLACK
6
CONTINUOUS
10
5.5578399212598422
20
-4.3253209448818897
11
5.5555941732283465
21
-4.3264437795275592
0
LINE
8
BLACK
6
CONTINUOUS
10
5.6233357480314963
20
-4.3194721653543304
11
5.6234337401574805
21
-4.319512755905512
0
LINE
8
BLACK
6
CONTINUOUS
10
5.6234337401574805
20
-4.319512755905512
11
5.6235395669291339
21
-4.3195202755905511
0
LINE
8
BLACK
6
CONTINUOUS
10
5.6235395669291339
20
-4.3195202755905511
11
5.624080196850394
21
-4.3197271653543305
0
LINE
8
BLACK
6
CONTINUOUS
10
5.624080196850394
20
-4.3197271653543305
11
5.6278297244094491
21
-4.3216019291338581
0
LINE
8
BLACK
6
CONTINUOUS
10
5.6278297244094491
20
-4.3216019291338581
11
5.628077716535433
21
-4.3217579921259839
0
LINE
8
BLACK
6
CONTINUOUS
10
5.628077716535433
20
-4.3217579921259839
11
5.6281496850393697
21
-4.3217878346456695
0
LINE
8
BLACK
6
CONTINUOUS
10
5.6281496850393697
20
-4.3217878346456695
11
5.6282306299212594
21
-4.3218542913385827
0
LINE
8
BLACK
6
CONTINUOUS
10
5.6282306299212594
20
-4.3218542913385827
11
5.6283196062992129
21
-4.3219102755905512
0
LINE
8
BLACK
6
CONTINUOUS
10
5.6283196062992129
20
-4.3219102755905512
11
5.6283707480314957
21
-4.321969251968504
0
LINE
8
BLACK
6
CONTINUOUS
10
5.6283707480314957
20
-4.321969251968504
11
5.6285971259842515
21
-4.3221550393700783
0
LINE
8
BLACK
6
CONTINUOUS
10
5.6285971259842515
20
-4.3221550393700783
11
5.6304718897637791
21
-4.3240298031496058
0
LINE
8
BLACK
6
CONTINUOUS
10
5.6304718897637791
20
-4.3240298031496058
11
5.6306576377952755
21
-4.3242561417322838
0
LINE
8
BLACK
6
CONTINUOUS
10
5.6306576377952755
20
-4.3242561417322838
11
5.6307166535433071
21
-4.3243073228346454
0
LINE
8
BLACK
6
CONTINUOUS
10
5.6307166535433071
20
-4.3243073228346454
11
5.6307725984251968
21
-4.3243962598425192
0
LINE
8
BLACK
6
CONTINUOUS
10
5.6307725984251968
20
-4.3243962598425192
11
5.6308390944881888
21
-4.3244772440944885
0
LINE
8
BLACK
6
CONTINUOUS
10
5.6308390944881888
20
-4.3244772440944885
11
5.6308688976377947
21
-4.3245491732283465
0
LINE
8
BLACK
6
CONTINUOUS
10
5.6308688976377947
20
-4.3245491732283465
11
5.6310250000000002
21
-4.3247972047244092
0
LINE
8
BLACK
6
CONTINUOUS
10
5.6310250000000002
20
-4.3247972047244092
11
5.6328997637795277
21
-4.3285467322834643
0
LINE
8
BLACK
6
CONTINUOUS
10
5.6328997637795277
20
-4.3285467322834643
11
5.6331066535433072
21
-4.3290873228346456
0
LINE
8
BLACK
6
CONTINUOUS
10
5.6331066535433072
20
-4.3290873228346456
11
5.6331141732283463
21
-4.3291931889763777
0
LINE
8
BLACK
6
CONTINUOUS
10
5.6331141732283463
20
-4.3291931889763777
11
5.6331547637795278
21
-4.329291181102362
0
LINE
8
BLACK
6
CONTINUOUS
10
5.6331547637795278
20
-4.329291181102362
11
5.6332114960629918
21
-4.3298672440944879
0
LINE
8
BLACK
6
CONTINUOUS
10
5.6332114960629918
20
-4.3298672440944879
11
5.6332114960629918
21
-4.3411158267716532
0
LINE
8
BLACK
6
CONTINUOUS
10
5.6332114960629918
20
-4.3411158267716532
11
5.6331547637795278
21
-4.3416918897637791
0
LINE
8
BLACK
6
CONTINUOUS
10
5.6331547637795278
20
-4.3416918897637791
11
5.6331141732283463
21
-4.3417898425196846
0
LINE
8
BLACK
6
CONTINUOUS
10
5.6331141732283463
20
-4.3417898425196846
11
5.6331066535433072
21
-4.3418957480314964
0
LINE
8
BLACK
6
CONTINUOUS
10
5.6331066535433072
20
-4.3418957480314964
11
5.6328997637795277
21
-4.3424363385826767
0
LINE
8
BLACK
6
CONTINUOUS
10
5.6328997637795277
20
-4.3424363385826767
11
5.6310250000000002
21
-4.3461858661417319
0
LINE
8
BLACK
6
CONTINUOUS
10
5.6310250000000002
20
-4.3461858661417319
11
5.6308689370078735
21
-4.3464337401574804
0
LINE
8
BLACK
6
CONTINUOUS
10
5.6308689370078735
20
-4.3464337401574804
11
5.6308391338582675
21
-4.3465057874015747
0
LINE
8
BLACK
6
CONTINUOUS
10
5.6308391338582675
20
-4.3465057874015747
11
5.6307725984251968
21
-4.3465868110236219
0
LINE
8
BLACK
6
CONTINUOUS
10
5.6307725984251968
20
-4.3465868110236219
11
5.6307166535433071
21
-4.3466757480314957
0
LINE
8
BLACK
6
CONTINUOUS
10
5.6307166535433071
20
-4.3466757480314957
11
5.6306576377952755
21
-4.3467268897637794
0
LINE
8
BLACK
6
CONTINUOUS
10
5.6306576377952755
20
-4.3467268897637794
11
5.6304718897637791
21
-4.3469532677165352
0
LINE
8
BLACK
6
CONTINUOUS
10
5.6304718897637791
20
-4.3469532677165352
11
5.6285971653543303
21
-4.3488280314960628
0
LINE
8
BLACK
6
CONTINUOUS
10
5.6285971653543303
20
-4.3488280314960628
11
5.6283707874015745
21
-4.3490137795275592
0
LINE
8
BLACK
6
CONTINUOUS
10
5.6283707874015745
20
-4.3490137795275592
11
5.6283196062992129
21
-4.3490728346456695
0
LINE
8
BLACK
6
CONTINUOUS
10
5.6283196062992129
20
-4.3490728346456695
11
5.6282306299212594
21
-4.349128818897638
0
LINE
8
BLACK
6
CONTINUOUS
10
5.6282306299212594
20
-4.349128818897638
11
5.6281496850393697
21
-4.3491952755905512
0
LINE
8
BLACK
6
CONTINUOUS
10
5.6281496850393697
20
-4.3491952755905512
11
5.628077716535433
21
-4.3492250787401572
0
LINE
8
BLACK
6
CONTINUOUS
10
5.628077716535433
20
-4.3492250787401572
11
5.6278297244094491
21
-4.3493811811023617
0
LINE
8
BLACK
6
CONTINUOUS
10
5.6278297244094491
20
-4.3493811811023617
11
5.624080196850394
21
-4.3512559448818893
0
LINE
8
BLACK
6
CONTINUOUS
10
5.624080196850394
20
-4.3512559448818893
11
5.6235395669291339
21
-4.3514628346456696
0
LINE
8
BLACK
6
CONTINUOUS
10
5.6235395669291339
20
-4.3514628346456696
11
5.6234337401574805
21
-4.35147031496063
0
LINE
8
BLACK
6
CONTINUOUS
10
5.6234337401574805
20
-4.35147031496063
11
5.6233357480314963
21
-4.3515109448818894
0
LINE
8
BLACK
6
CONTINUOUS
10
5.6233357480314963
20
-4.3515109448818894
11
5.6227596850393695
21
-4.3515676771653542
0
LINE
8
BLACK
6
CONTINUOUS
10
5.6227596850393695
20
-4.3515676771653542
11
5.6171353937007868
21
-4.3515676771653542
0
LINE
8
BLACK
6
CONTINUOUS
10
5.6171353937007868
20
-4.3515676771653542
11
5.616559330708661
21
-4.3515109448818894
0
LINE
8
BLACK
6
CONTINUOUS
10
5.616559330708661
20
-4.3515109448818894
11
5.6164613385826767
21
-4.3514703543307087
0
LINE
8
BLACK
6
CONTINUOUS
10
5.6164613385826767
20
-4.3514703543307087
11
5.6163554724409446
21
-4.3514628346456696
0
LINE
8
BLACK
6
CONTINUOUS
10
5.6163554724409446
20
-4.3514628346456696
11
5.6158148818897633
21
-4.3512559448818893
0
LINE
8
BLACK
6
CONTINUOUS
10
5.6158148818897633
20
-4.3512559448818893
11
5.6120653543307082
21
-4.3493811811023617
0
LINE
8
BLACK
6
CONTINUOUS
10
5.6120653543307082
20
-4.3493811811023617
11
5.6118173228346455
21
-4.3492250787401572
0
LINE
8
BLACK
6
CONTINUOUS
10
5.6118173228346455
20
-4.3492250787401572
11
5.6117453937007875
21
-4.3491952755905512
0
LINE
8
BLACK
6
CONTINUOUS
10
5.6117453937007875
20
-4.3491952755905512
11
5.6116644094488191
21
-4.349128818897638
0
LINE
8
BLACK
6
CONTINUOUS
10
5.6116644094488191
20
-4.349128818897638
11
5.6115754724409443
21
-4.3490728346456695
0
LINE
8
BLACK
6
CONTINUOUS
10
5.6115754724409443
20
-4.3490728346456695
11
5.611524251968504
21
-4.3490137795275592
0
LINE
8
BLACK
6
CONTINUOUS
10
5.611524251968504
20
-4.3490137795275592
11
5.611297913385827
21
-4.3488280314960628
0
LINE
8
BLACK
6
CONTINUOUS
10
5.611297913385827
20
-4.3488280314960628
11
5.6094231496062994
21
-4.3469532283464565
0
LINE
8
BLACK
6
CONTINUOUS
10
5.6094231496062994
20
-4.3469532283464565
11
5.609237401574803
21
-4.3467268897637794
0
LINE
8
BLACK
6
CONTINUOUS
10
5.609237401574803
20
-4.3467268897637794
11
5.6091784251968502
21
-4.3466757480314957
0
LINE
8
BLACK
6
CONTINUOUS
10
5.6091784251968502
20
-4.3466757480314957
11
5.6091224409448817
21
-4.3465868110236219
0
LINE
8
BLACK
6
CONTINUOUS
10
5.6091224409448817
20
-4.3465868110236219
11
5.6090559448818897
21
-4.3465057874015747
0
LINE
8
BLACK
6
CONTINUOUS
10
5.6090559448818897
20
-4.3465057874015747
11
5.609026102362205
21
-4.3464337401574804
0
LINE
8
BLACK
6
CONTINUOUS
10
5.609026102362205
20
-4.3464337401574804
11
5.6088700787401571
21
-4.3461858661417319
0
LINE
8
BLACK
6
CONTINUOUS
10
5.6088700787401571
20
-4.3461858661417319
11
5.6069953149606295
21
-4.3424363385826767
0
LINE
8
BLACK
6
CONTINUOUS
10
5.6069953149606295
20
-4.3424363385826767
11
5.6067884251968501
21
-4.3418957086614176
0
LINE
8
BLACK
6
CONTINUOUS
10
5.6067884251968501
20
-4.3418957086614176
11
5.606780905511811
21
-4.3417898818897633
0
LINE
8
BLACK
6
CONTINUOUS
10
5.606780905511811
20
-4.3417898818897633
11
5.6067403149606294
21
-4.3416918897637791
0
LINE
8
BLACK
6
CONTINUOUS
10
5.6067403149606294
20
-4.3416918897637791
11
5.6066835826771655
21
-4.3411158267716532
0
LINE
8
BLACK
6
CONTINUOUS
10
5.6066835826771655
20
-4.3411158267716532
11
5.6066835826771655
21
-4.3298672440944879
0
LINE
8
BLACK
6
CONTINUOUS
10
5.6066835826771655
20
-4.3298672440944879
11
5.6067403149606294
21
-4.329291181102362
0
LINE
8
BLACK
6
CONTINUOUS
10
5.6067403149606294
20
-4.329291181102362
11
5.606780905511811
21
-4.329193149606299
0
LINE
8
BLACK
6
CONTINUOUS
10
5.606780905511811
20
-4.329193149606299
11
5.6067884251968501
21
-4.3290873622047243
0
LINE
8
BLACK
6
CONTINUOUS
10
5.6067884251968501
20
-4.3290873622047243
11
5.6069953149606295
21
-4.3285467322834643
0
LINE
8
BLACK
6
CONTINUOUS
10
5.6069953149606295
20
-4.3285467322834643
11
5.6088700787401571
21
-4.3247972047244092
0
LINE
8
BLACK
6
CONTINUOUS
10
5.6088700787401571
20
-4.3247972047244092
11
5.6090261417322838
21
-4.3245491732283465
0
LINE
8
BLACK
6
CONTINUOUS
10
5.6090261417322838
20
-4.3245491732283465
11
5.6090559842519685
21
-4.3244772440944885
0
LINE
8
BLACK
6
CONTINUOUS
10
5.6090559842519685
20
-4.3244772440944885
11
5.6091224409448817
21
-4.3243962598425192
0
LINE
8
BLACK
6
CONTINUOUS
10
5.6091224409448817
20
-4.3243962598425192
11
5.6091784251968502
21
-4.3243073228346454
0
LINE
8
BLACK
6
CONTINUOUS
10
5.6091784251968502
20
-4.3243073228346454
11
5.609237401574803
21
-4.3242561417322838
0
LINE
8
BLACK
6
CONTINUOUS
10
5.609237401574803
20
-4.3242561417322838
11
5.6094231889763781
21
-4.3240298031496058
0
LINE
8
BLACK
6
CONTINUOUS
10
5.6094231889763781
20
-4.3240298031496058
11
5.6112979527559057
21
-4.3221550393700783
0
LINE
8
BLACK
6
CONTINUOUS
10
5.6112979527559057
20
-4.3221550393700783
11
5.6115242913385828
21
-4.321969251968504
0
LINE
8
BLACK
6
CONTINUOUS
10
5.6115242913385828
20
-4.321969251968504
11
5.6115754724409443
21
-4.3219102755905512
0
LINE
8
BLACK
6
CONTINUOUS
10
5.6115754724409443
20
-4.3219102755905512
11
5.6116644094488191
21
-4.3218542913385827
0
LINE
8
BLACK
6
CONTINUOUS
10
5.6116644094488191
20
-4.3218542913385827
11
5.6117453937007875
21
-4.3217878346456695
0
LINE
8
BLACK
6
CONTINUOUS
10
5.6117453937007875
20
-4.3217878346456695
11
5.6118173228346455
21
-4.3217579921259839
0
LINE
8
BLACK
6
CONTINUOUS
10
5.6118173228346455
20
-4.3217579921259839
11
5.6120653543307082
21
-4.3216019291338581
0
LINE
8
BLACK
6
CONTINUOUS
10
5.6120653543307082
20
-4.3216019291338581
11
5.6158148818897633
21
-4.3197271653543305
0
LINE
8
BLACK
6
CONTINUOUS
10
5.6158148818897633
20
-4.3197271653543305
11
5.6163554724409446
21
-4.3195202755905511
0
LINE
8
BLACK
6
CONTINUOUS
10
5.6163554724409446
20
-4.3195202755905511
11
5.6164613385826767
21
-4.3195127165354332
0
LINE
8
BLACK
6
CONTINUOUS
10
5.6164613385826767
20
-4.3195127165354332
11
5.616559330708661
21
-4.3194721653543304
0
LINE
8
BLACK
6
CONTINUOUS
10
5.616559330708661
20
-4.3194721653543304
11
5.6171353937007868
21
-4.3194154330708656
0
LINE
8
BLACK
6
CONTINUOUS
10
5.6171353937007868
20
-4.3194154330708656
11
5.6227596850393695
21
-4.3194154330708656
0
LINE
8
BLACK
6
CONTINUOUS
10
5.6227596850393695
20
-4.3194154330708656
11
5.6233357480314963
21
-4.3194721653543304
0
LINE
8
BLACK
6
CONTINUOUS
10
5.6151349606299208
20
-4.32666968503937
11
5.613937834645669
21
-4.3278668110236218
0
LINE
8
BLACK
6
CONTINUOUS
10
5.613937834645669
20
-4.3278668110236218
11
5.6125890944881887
21
-4.3305642913385824
0
LINE
8
BLACK
6
CONTINUOUS
10
5.6125890944881887
20
-4.3305642913385824
11
5.6125890944881887
21
-4.3404187795275586
0
LINE
8
BLACK
6
CONTINUOUS
10
5.6125890944881887
20
-4.3404187795275586
11
5.613937834645669
21
-4.3431162598425193
0
LINE
8
BLACK
6
CONTINUOUS
10
5.613937834645669
20
-4.3431162598425193
11
5.6151349606299208
21
-4.3443134251968507
0
LINE
8
BLACK
6
CONTINUOUS
10
5.6151349606299208
20
-4.3443134251968507
11
5.6178324409448814
21
-4.345662165354331
0
LINE
8
BLACK
6
CONTINUOUS
10
5.6178324409448814
20
-4.345662165354331
11
5.6220626377952758
21
-4.345662165354331
0
LINE
8
BLACK
6
CONTINUOUS
10
5.6220626377952758
20
-4.345662165354331
11
5.6247600787401577
21
-4.3443134251968507
0
LINE
8
BLACK
6
CONTINUOUS
10
5.6247600787401577
20
-4.3443134251968507
11
5.6259572047244095
21
-4.3431162598425193
0
LINE
8
BLACK
6
CONTINUOUS
10
5.6259572047244095
20
-4.3431162598425193
11
5.6273059842519686
21
-4.3404187795275586
0
LINE
8
BLACK
6
CONTINUOUS
10
5.6273059842519686
20
-4.3404187795275586
11
5.6273059842519686
21
-4.3305642913385824
0
LINE
8
BLACK
6
CONTINUOUS
10
5.6273059842519686
20
-4.3305642913385824
11
5.6259572440944883
21
-4.3278668110236218
0
LINE
8
BLACK
6
CONTINUOUS
10
5.6259572440944883
20
-4.3278668110236218
11
5.6247601181102365
21
-4.32666968503937
0
LINE
8
BLACK
6
CONTINUOUS
10
5.6247601181102365
20
-4.32666968503937
11
5.6220626377952758
21
-4.3253209448818897
0
LINE
8
BLACK
6
CONTINUOUS
10
5.6220626377952758
20
-4.3253209448818897
11
5.6178324409448814
21
-4.3253209448818897
0
LINE
8
BLACK
6
CONTINUOUS
10
5.6178324409448814
20
-4.3253209448818897
11
5.6151349606299208
21
-4.32666968503937
0
LINE
8
BLACK
6
CONTINUOUS
10
5.3188133070866144
20
-4.3067897244094491
11
5.3196279527559058
21
-4.3076043700787396
0
LINE
8
BLACK
6
CONTINUOUS
10
5.3196279527559058
20
-4.3076043700787396
11
5.3200688582677165
21
-4.3086687795275589
0
LINE
8
BLACK
6
CONTINUOUS
10
5.3200688582677165
20
-4.3086687795275589
11
5.3201255905511813
21
-4.3092448425196848
0
LINE
8
BLACK
6
CONTINUOUS
10
5.3201255905511813
20
-4.3092448425196848
11
5.3201255905511813
21
-4.3422935433070862
0
LINE
8
BLACK
6
CONTINUOUS
10
5.3201255905511813
20
-4.3422935433070862
11
5.3212484251968499
21
-4.3445392913385827
0
LINE
8
BLACK
6
CONTINUOUS
10
5.3212484251968499
20
-4.3445392913385827
11
5.3241176377952755
21
-4.3459738976377951
0
LINE
8
BLACK
6
CONTINUOUS
10
5.3241176377952755
20
-4.3459738976377951
11
5.3246075196850393
21
-4.3462822440944882
0
LINE
8
BLACK
6
CONTINUOUS
10
5.3246075196850393
20
-4.3462822440944882
11
5.3253623622047241
21
-4.3471526377952756
0
LINE
8
BLACK
6
CONTINUOUS
10
5.3253623622047241
20
-4.3471526377952756
11
5.3257266929133857
21
-4.3482455905511808
0
LINE
8
BLACK
6
CONTINUOUS
10
5.3257266929133857
20
-4.3482455905511808
11
5.3256450393700785
21
-4.3493948031496066
0
LINE
8
BLACK
6
CONTINUOUS
10
5.3256450393700785
20
-4.3493948031496066
11
5.3251297637795272
21
-4.3504253149606296
0
LINE
8
BLACK
6
CONTINUOUS
10
5.3251297637795272
20
-4.3504253149606296
11
5.3242594094488185
21
-4.3511801574803153
0
LINE
8
BLACK
6
CONTINUOUS
10
5.3242594094488185
20
-4.3511801574803153
11
5.3231664173228346
21
-4.351544488188976
0
LINE
8
BLACK
6
CONTINUOUS
10
5.3231664173228346
20
-4.351544488188976
11
5.3220172047244096
21
-4.3514628346456696
0
LINE
8
BLACK
6
CONTINUOUS
10
5.3220172047244096
20
-4.3514628346456696
11
5.3214766141732284
21
-4.3512559448818893
0
LINE
8
BLACK
6
CONTINUOUS
10
5.3214766141732284
20
-4.3512559448818893
11
5.3177270866141733
21
-4.3493811811023617
0
LINE
8
BLACK
6
CONTINUOUS
10
5.3177270866141733
20
-4.3493811811023617
11
5.317630708661417
21
-4.3493205118110234
0
LINE
8
BLACK
6
CONTINUOUS
10
5.317630708661417
20
-4.3493205118110234
11
5.3175853149606294
21
-4.3493053937007877
0
LINE
8
BLACK
6
CONTINUOUS
10
5.3175853149606294
20
-4.3493053937007877
11
5.3175287401574804
21
-4.349256338582677
0
LINE
8
BLACK
6
CONTINUOUS
10
5.3175287401574804
20
-4.349256338582677
11
5.3172372047244094
21
-4.3490728346456695
0
LINE
8
BLACK
6
CONTINUOUS
10
5.3172372047244094
20
-4.3490728346456695
11
5.3169945275590553
21
-4.3487929921259845
0
LINE
8
BLACK
6
CONTINUOUS
10
5.3169945275590553
20
-4.3487929921259845
11
5.3167149212598428
21
-4.3485505118110233
0
LINE
8
BLACK
6
CONTINUOUS
10
5.3167149212598428
20
-4.3485505118110233
11
5.3165314173228344
21
-4.348259015748031
0
LINE
8
BLACK
6
CONTINUOUS
10
5.3165314173228344
20
-4.348259015748031
11
5.3164823622047246
21
-4.3482024409448821
0
LINE
8
BLACK
6
CONTINUOUS
10
5.3164823622047246
20
-4.3482024409448821
11
5.3164672047244093
21
-4.348156968503937
0
LINE
8
BLACK
6
CONTINUOUS
10
5.3164672047244093
20
-4.348156968503937
11
5.3164065748031497
21
-4.3480606692913382
0
LINE
8
BLACK
6
CONTINUOUS
10
5.3164065748031497
20
-4.3480606692913382
11
5.3145318110236222
21
-4.3443111023622043
0
LINE
8
BLACK
6
CONTINUOUS
10
5.3145318110236222
20
-4.3443111023622043
11
5.3143249212598427
21
-4.3437704724409452
0
LINE
8
BLACK
6
CONTINUOUS
10
5.3143249212598427
20
-4.3437704724409452
11
5.3143174015748027
21
-4.3436646456692909
0
LINE
8
BLACK
6
CONTINUOUS
10
5.3143174015748027
20
-4.3436646456692909
11
5.314276811023622
21
-4.3435666535433066
0
LINE
8
BLACK
6
CONTINUOUS
10
5.314276811023622
20
-4.3435666535433066
11
5.3142200787401572
21
-4.3429905905511808
0
LINE
8
BLACK
6
CONTINUOUS
10
5.3142200787401572
20
-4.3429905905511808
11
5.3142200787401572
21
-4.3092448425196848
0
LINE
8
BLACK
6
CONTINUOUS
10
5.3142200787401572
20
-4.3092448425196848
11
5.314276811023622
21
-4.3086687795275589
0
LINE
8
BLACK
6
CONTINUOUS
10
5.314276811023622
20
-4.3086687795275589
11
5.3147177165354327
21
-4.3076043700787396
0
LINE
8
BLACK
6
CONTINUOUS
10
5.3147177165354327
20
-4.3076043700787396
11
5.3155323622047241
21
-4.3067897244094491
0
LINE
8
BLACK
6
CONTINUOUS
10
5.3155323622047241
20
-4.3067897244094491
11
5.3165967716535434
21
-4.3063488188976375
0
LINE
8
BLACK
6
CONTINUOUS
10
5.3165967716535434
20
-4.3063488188976375
11
5.3177488976377951
21
-4.3063488188976375
0
LINE
8
BLACK
6
CONTINUOUS
10
5.3177488976377951
20
-4.3063488188976375
11
5.3188133070866144
21
-4.3067897244094491
0
LINE
8
BLACK
6
CONTINUOUS
10
5.3027507480314959
20
-4.3063488188976375
11
5.3038151574803152
21
-4.3067897244094491
0
LINE
8
BLACK
6
CONTINUOUS
10
5.3038151574803152
20
-4.3067897244094491
11
5.3046298031496057
21
-4.3076043700787396
0
LINE
8
BLACK
6
CONTINUOUS
10
5.3046298031496057
20
-4.3076043700787396
11
5.3050707086614173
21
-4.3086687795275589
0
LINE
8
BLACK
6
CONTINUOUS
10
5.3050707086614173
20
-4.3086687795275589
11
5.3050707086614173
21
-4.3098209055118106
0
LINE
8
BLACK
6
CONTINUOUS
10
5.3050707086614173
20
-4.3098209055118106
11
5.3046298031496057
21
-4.3108853149606299
0
LINE
8
BLACK
6
CONTINUOUS
10
5.3046298031496057
20
-4.3108853149606299
11
5.3038151574803152
21
-4.3116999606299213
0
LINE
8
BLACK
6
CONTINUOUS
10
5.3038151574803152
20
-4.3116999606299213
11
5.3027507480314959
21
-4.312140866141732
0
LINE
8
BLACK
6
CONTINUOUS
10
5.3027507480314959
20
-4.312140866141732
11
5.3021746850393701
21
-4.3121975984251968
0
LINE
8
BLACK
6
CONTINUOUS
10
5.3021746850393701
20
-4.3121975984251968
11
5.2863798031496065
21
-4.3121975984251968
0
LINE
8
BLACK
6
CONTINUOUS
10
5.2863798031496065
20
-4.3121975984251968
11
5.2863798031496065
21
-4.3250397244094483
0
LINE
8
BLACK
6
CONTINUOUS
10
5.2863798031496065
20
-4.3250397244094483
11
5.2965503937007874
21
-4.3250397244094483
0
LINE
8
BLACK
6
CONTINUOUS
10
5.2965503937007874
20
-4.3250397244094483
11
5.2971264566929133
21
-4.3250964566929131
0
LINE
8
BLACK
6
CONTINUOUS
10
5.2971264566929133
20
-4.3250964566929131
11
5.2981908661417325
21
-4.3255373622047246
0
LINE
8
BLACK
6
CONTINUOUS
10
5.2981908661417325
20
-4.3255373622047246
11
5.2990055118110231
21
-4.3263520078740161
0
LINE
8
BLACK
6
CONTINUOUS
10
5.2990055118110231
20
-4.3263520078740161
11
5.2994464173228346
21
-4.3274164173228344
0
LINE
8
BLACK
6
CONTINUOUS
10
5.2994464173228346
20
-4.3274164173228344
11
5.2994464173228346
21
-4.3285685433070862
0
LINE
8
BLACK
6
CONTINUOUS
10
5.2994464173228346
20
-4.3285685433070862
11
5.2990055118110231
21
-4.3296329527559054
0
LINE
8
BLACK
6
CONTINUOUS
10
5.2990055118110231
20
-4.3296329527559054
11
5.2981908661417325
21
-4.3304475984251969
0
LINE
8
BLACK
6
CONTINUOUS
10
5.2981908661417325
20
-4.3304475984251969
11
5.2971264566929133
21
-4.3308885039370075
0
LINE
8
BLACK
6
CONTINUOUS
10
5.2971264566929133
20
-4.3308885039370075
11
5.2965503937007874
21
-4.3309452362204723
0
LINE
8
BLACK
6
CONTINUOUS
10
5.2965503937007874
20
-4.3309452362204723
11
5.2863798031496065
21
-4.3309452362204723
0
LINE
8
BLACK
6
CONTINUOUS
10
5.2863798031496065
20
-4.3309452362204723
11
5.2863798031496065
21
-4.3486149212598422
0
LINE
8
BLACK
6
CONTINUOUS
10
5.2863798031496065
20
-4.3486149212598422
11
5.2863230708661417
21
-4.349190984251968
0
LINE
8
BLACK
6
CONTINUOUS
10
5.2863230708661417
20
-4.349190984251968
11
5.2858821653543302
21
-4.3502553937007873
0
LINE
8
BLACK
6
CONTINUOUS
10
5.2858821653543302
20
-4.3502553937007873
11
5.2850675196850396
21
-4.3510700393700787
0
LINE
8
BLACK
6
CONTINUOUS
10
5.2850675196850396
20
-4.3510700393700787
11
5.2840031102362204
21
-4.3515109448818894
0
LINE
8
BLACK
6
CONTINUOUS
10
5.2840031102362204
20
-4.3515109448818894
11
5.2828509842519686
21
-4.3515109448818894
0
LINE
8
BLACK
6
CONTINUOUS
10
5.2828509842519686
20
-4.3515109448818894
11
5.2817865748031494
21
-4.3510700393700787
0
LINE
8
BLACK
6
CONTINUOUS
10
5.2817865748031494
20
-4.3510700393700787
11
5.2809719291338579
21
-4.3502553937007873
0
LINE
8
BLACK
6
CONTINUOUS
10
5.2809719291338579
20
-4.3502553937007873
11
5.2805310236220473
21
-4.349190984251968
0
LINE
8
BLACK
6
CONTINUOUS
10
5.2805310236220473
20
-4.349190984251968
11
5.2804742913385825
21
-4.3486149212598422
0
LINE
8
BLACK
6
CONTINUOUS
10
5.2804742913385825
20
-4.3486149212598422
11
5.2804742913385825
21
-4.3092448425196848
0
LINE
8
BLACK
6
CONTINUOUS
10
5.2804742913385825
20
-4.3092448425196848
11
5.2805310236220473
21
-4.3086687795275589
0
LINE
8
BLACK
6
CONTINUOUS
10
5.2805310236220473
20
-4.3086687795275589
11
5.2809719291338579
21
-4.3076043700787396
0
LINE
8
BLACK
6
CONTINUOUS
10
5.2809719291338579
20
-4.3076043700787396
11
5.2817865748031494
21
-4.3067897244094491
0
LINE
8
BLACK
6
CONTINUOUS
10
5.2817865748031494
20
-4.3067897244094491
11
5.2828509842519686
21
-4.3063488188976375
0
LINE
8
BLACK
6
CONTINUOUS
10
5.2828509842519686
20
-4.3063488188976375
11
5.2834270472440945
21
-4.3062920866141727
0
LINE
8
BLACK
6
CONTINUOUS
10
5.2834270472440945
20
-4.3062920866141727
11
5.3021746850393701
21
-4.3062920866141727
0
LINE
8
BLACK
6
CONTINUOUS
10
5.3021746850393701
20
-4.3062920866141727
11
5.3027507480314959
21
-4.3063488188976375
0
LINE
8
BLACK
6
CONTINUOUS
10
5.3394357480314962
20
-4.319913070866142
11
5.3402503937007877
21
-4.3207277165354334
0
LINE
8
BLACK
6
CONTINUOUS
10
5.3402503937007877
20
-4.3207277165354334
11
5.3406912992125983
21
-4.3217921259842518
0
LINE
8
BLACK
6
CONTINUOUS
10
5.3406912992125983
20
-4.3217921259842518
11
5.3407480314960631
21
-4.3223681889763776
0
LINE
8
BLACK
6
CONTINUOUS
10
5.3407480314960631
20
-4.3223681889763776
11
5.3407480314960631
21
-4.3486149212598422
0
LINE
8
BLACK
6
CONTINUOUS
10
5.3407480314960631
20
-4.3486149212598422
11
5.3406912992125983
21
-4.349190984251968
0
LINE
8
BLACK
6
CONTINUOUS
10
5.3406912992125983
20
-4.349190984251968
11
5.3402503937007877
21
-4.3502553937007873
0
LINE
8
BLACK
6
CONTINUOUS
10
5.3402503937007877
20
-4.3502553937007873
11
5.3394357480314962
21
-4.3510700393700787
0
LINE
8
BLACK
6
CONTINUOUS
10
5.3394357480314962
20
-4.3510700393700787
11
5.338371338582677
21
-4.3515109448818894
0
LINE
8
BLACK
6
CONTINUOUS
10
5.338371338582677
20
-4.3515109448818894
11
5.3372192125984252
21
-4.3515109448818894
0
LINE
8
BLACK
6
CONTINUOUS
10
5.3372192125984252
20
-4.3515109448818894
11
5.336154803149606
21
-4.3510700393700787
0
LINE
8
BLACK
6
CONTINUOUS
10
5.336154803149606
20
-4.3510700393700787
11
5.3353401574803145
21
-4.3502553937007873
0
LINE
8
BLACK
6
CONTINUOUS
10
5.3353401574803145
20
-4.3502553937007873
11
5.3348992519685039
21
-4.349190984251968
0
LINE
8
BLACK
6
CONTINUOUS
10
5.3348992519685039
20
-4.349190984251968
11
5.3348425196850391
21
-4.3486149212598422
0
LINE
8
BLACK
6
CONTINUOUS
10
5.3348425196850391
20
-4.3486149212598422
11
5.3348425196850391
21
-4.3223681889763776
0
LINE
8
BLACK
6
CONTINUOUS
10
5.3348425196850391
20
-4.3223681889763776
11
5.3348992519685039
21
-4.3217921259842518
0
LINE
8
BLACK
6
CONTINUOUS
10
5.3348992519685039
20
-4.3217921259842518
11
5.3353401574803145
21
-4.3207277165354334
0
LINE
8
BLACK
6
CONTINUOUS
10
5.3353401574803145
20
-4.3207277165354334
11
5.336154803149606
21
-4.319913070866142
0
LINE
8
BLACK
6
CONTINUOUS
10
5.336154803149606
20
-4.319913070866142
11
5.3372192125984252
21
-4.3194721653543304
0
LINE
8
BLACK
6
CONTINUOUS
10
5.3372192125984252
20
-4.3194721653543304
11
5.338371338582677
21
-4.3194721653543304
0
LINE
8
BLACK
6
CONTINUOUS
10
5.338371338582677
20
-4.3194721653543304
11
5.3394357480314962
21
-4.319913070866142
0
LINE
8
BLACK
6
CONTINUOUS
10
5.4733544488188972
20
-4.3194721653543304
11
5.4744188582677165
21
-4.319913070866142
0
LINE
8
BLACK
6
CONTINUOUS
10
5.4744188582677165
20
-4.319913070866142
11
5.4752335039370079
21
-4.3207277165354334
0
LINE
8
BLACK
6
CONTINUOUS
10
5.4752335039370079
20
-4.3207277165354334
11
5.4756744094488186
21
-4.3217921259842518
0
LINE
8
BLACK
6
CONTINUOUS
10
5.4756744094488186
20
-4.3217921259842518
11
5.4756744094488186
21
-4.3229442519685035
0
LINE
8
BLACK
6
CONTINUOUS
10
5.4756744094488186
20
-4.3229442519685035
11
5.4752335039370079
21
-4.3240086614173228
0
LINE
8
BLACK
6
CONTINUOUS
10
5.4752335039370079
20
-4.3240086614173228
11
5.4744188582677165
21
-4.3248233070866142
0
LINE
8
BLACK
6
CONTINUOUS
10
5.4744188582677165
20
-4.3248233070866142
11
5.4733544488188972
21
-4.3252642125984249
0
LINE
8
BLACK
6
CONTINUOUS
10
5.4733544488188972
20
-4.3252642125984249
11
5.4727783858267713
21
-4.3253209448818897
0
LINE
8
BLACK
6
CONTINUOUS
10
5.4727783858267713
20
-4.3253209448818897
11
5.4697259055118108
21
-4.3253209448818897
0
LINE
8
BLACK
6
CONTINUOUS
10
5.4697259055118108
20
-4.3253209448818897
11
5.4670284251968502
21
-4.32666968503937
0
LINE
8
BLACK
6
CONTINUOUS
10
5.4670284251968502
20
-4.32666968503937
11
5.4658312992125984
21
-4.3278668110236218
0
LINE
8
BLACK
6
CONTINUOUS
10
5.4658312992125984
20
-4.3278668110236218
11
5.464482559055118
21
-4.3305642913385824
0
LINE
8
BLACK
6
CONTINUOUS
10
5.464482559055118
20
-4.3305642913385824
11
5.464482559055118
21
-4.3486149212598422
0
LINE
8
BLACK
6
CONTINUOUS
10
5.464482559055118
20
-4.3486149212598422
11
5.4644258267716532
21
-4.349190984251968
0
LINE
8
BLACK
6
CONTINUOUS
10
5.4644258267716532
20
-4.349190984251968
11
5.4639849212598426
21
-4.3502553937007873
0
LINE
8
BLACK
6
CONTINUOUS
10
5.4639849212598426
20
-4.3502553937007873
11
5.4631702755905511
21
-4.3510700393700787
0
LINE
8
BLACK
6
CONTINUOUS
10
5.4631702755905511
20
-4.3510700393700787
11
5.4621058661417319
21
-4.3515109448818894
0
LINE
8
BLACK
6
CONTINUOUS
10
5.4621058661417319
20
-4.3515109448818894
11
5.4609537401574801
21
-4.3515109448818894
0
LINE
8
BLACK
6
CONTINUOUS
10
5.4609537401574801
20
-4.3515109448818894
11
5.4598893307086609
21
-4.3510700393700787
0
LINE
8
BLACK
6
CONTINUOUS
10
5.4598893307086609
20
-4.3510700393700787
11
5.4590746850393703
21
-4.3502553937007873
0
LINE
8
BLACK
6
CONTINUOUS
10
5.4590746850393703
20
-4.3502553937007873
11
5.4586337795275588
21
-4.349190984251968
0
LINE
8
BLACK
6
CONTINUOUS
10
5.4586337795275588
20
-4.349190984251968
11
5.458577047244094
21
-4.3486149212598422
0
LINE
8
BLACK
6
CONTINUOUS
10
5.458577047244094
20
-4.3486149212598422
11
5.458577047244094
21
-4.3223681889763776
0
LINE
8
BLACK
6
CONTINUOUS
10
5.458577047244094
20
-4.3223681889763776
11
5.4586337795275588
21
-4.3217921259842518
0
LINE
8
BLACK
6
CONTINUOUS
10
5.4586337795275588
20
-4.3217921259842518
11
5.4590746850393703
21
-4.3207277165354334
0
LINE
8
BLACK
6
CONTINUOUS
10
5.4590746850393703
20
-4.3207277165354334
11
5.4598893307086609
21
-4.319913070866142
0
LINE
8
BLACK
6
CONTINUOUS
10
5.4598893307086609
20
-4.319913070866142
11
5.4609537401574801
21
-4.3194721653543304
0
LINE
8
BLACK
6
CONTINUOUS
10
5.4609537401574801
20
-4.3194721653543304
11
5.4621058661417319
21
-4.3194721653543304
0
LINE
8
BLACK
6
CONTINUOUS
10
5.4621058661417319
20
-4.3194721653543304
11
5.4631702755905511
21
-4.319913070866142
0
LINE
8
BLACK
6
CONTINUOUS
10
5.4631702755905511
20
-4.319913070866142
11
5.4639849212598426
21
-4.3207277165354334
0
LINE
8
BLACK
6
CONTINUOUS
10
5.4639849212598426
20
-4.3207277165354334
11
5.4642803937007871
21
-4.321441102362205
0
LINE
8
BLACK
6
CONTINUOUS
10
5.4642803937007871
20
-4.321441102362205
11
5.4677083464566927
21
-4.3197271653543305
0
LINE
8
BLACK
6
CONTINUOUS
10
5.4677083464566927
20
-4.3197271653543305
11
5.468248937007874
21
-4.3195202755905511
0
LINE
8
BLACK
6
CONTINUOUS
10
5.468248937007874
20
-4.3195202755905511
11
5.4683548031496061
21
-4.3195127165354332
0
LINE
8
BLACK
6
CONTINUOUS
10
5.4683548031496061
20
-4.3195127165354332
11
5.4684527952755904
21
-4.3194721653543304
0
LINE
8
BLACK
6
CONTINUOUS
10
5.4684527952755904
20
-4.3194721653543304
11
5.4690288582677162
21
-4.3194154330708656
0
LINE
8
BLACK
6
CONTINUOUS
10
5.4690288582677162
20
-4.3194154330708656
11
5.4727783858267713
21
-4.3194154330708656
0
LINE
8
BLACK
6
CONTINUOUS
10
5.4727783858267713
20
-4.3194154330708656
11
5.4733544488188972
21
-4.3194721653543304
0
LINE
8
BLACK
6
CONTINUOUS
10
5.5989637795275593
20
-4.3194721653543304
11
5.6000281889763777
21
-4.319913070866142
0
LINE
8
BLACK
6
CONTINUOUS
10
5.6000281889763777
20
-4.319913070866142
11
5.6008428346456691
21
-4.3207277165354334
0
LINE
8
BLACK
6
CONTINUOUS
10
5.6008428346456691
20
-4.3207277165354334
11
5.6012837401574798
21
-4.3217921259842518
0
LINE
8
BLACK
6
CONTINUOUS
10
5.6012837401574798
20
-4.3217921259842518
11
5.6012837401574798
21
-4.3229442519685035
0
LINE
8
BLACK
6
CONTINUOUS
10
5.6012837401574798
20
-4.3229442519685035
11
5.6008428346456691
21
-4.3240086614173228
0
LINE
8
BLACK
6
CONTINUOUS
10
5.6008428346456691
20
-4.3240086614173228
11
5.6000281889763777
21
-4.3248233070866142
0
LINE
8
BLACK
6
CONTINUOUS
10
5.6000281889763777
20
-4.3248233070866142
11
5.5989637795275593
21
-4.3252642125984249
0
LINE
8
BLACK
6
CONTINUOUS
10
5.5989637795275593
20
-4.3252642125984249
11
5.5983877165354325
21
-4.3253209448818897
0
LINE
8
BLACK
6
CONTINUOUS
10
5.5983877165354325
20
-4.3253209448818897
11
5.595335236220472
21
-4.3253209448818897
0
LINE
8
BLACK
6
CONTINUOUS
10
5.595335236220472
20
-4.3253209448818897
11
5.5926377559055114
21
-4.32666968503937
0
LINE
8
BLACK
6
CONTINUOUS
10
5.5926377559055114
20
-4.32666968503937
11
5.5914406299212596
21
-4.3278668110236218
0
LINE
8
BLACK
6
CONTINUOUS
10
5.5914406299212596
20
-4.3278668110236218
11
5.5900918897637792
21
-4.3305642913385824
0
LINE
8
BLACK
6
CONTINUOUS
10
5.5900918897637792
20
-4.3305642913385824
11
5.5900918897637792
21
-4.3486149212598422
0
LINE
8
BLACK
6
CONTINUOUS
10
5.5900918897637792
20
-4.3486149212598422
11
5.5900351574803144
21
-4.349190984251968
0
LINE
8
BLACK
6
CONTINUOUS
10
5.5900351574803144
20
-4.349190984251968
11
5.5895942519685038
21
-4.3502553937007873
0
LINE
8
BLACK
6
CONTINUOUS
10
5.5895942519685038
20
-4.3502553937007873
11
5.5887796062992123
21
-4.3510700393700787
0
LINE
8
BLACK
6
CONTINUOUS
10
5.5887796062992123
20
-4.3510700393700787
11
5.587715196850394
21
-4.3515109448818894
0
LINE
8
BLACK
6
CONTINUOUS
10
5.587715196850394
20
-4.3515109448818894
11
5.5865630708661413
21
-4.3515109448818894
0
LINE
8
BLACK
6
CONTINUOUS
10
5.5865630708661413
20
-4.3515109448818894
11
5.585498661417323
21
-4.3510700393700787
0
LINE
8
BLACK
6
CONTINUOUS
10
5.585498661417323
20
-4.3510700393700787
11
5.5846840157480315
21
-4.3502553937007873
0
LINE
8
BLACK
6
CONTINUOUS
10
5.5846840157480315
20
-4.3502553937007873
11
5.58424311023622
21
-4.349190984251968
0
LINE
8
BLACK
6
CONTINUOUS
10
5.58424311023622
20
-4.349190984251968
11
5.5841863779527561
21
-4.3486149212598422
0
LINE
8
BLACK
6
CONTINUOUS
10
5.5841863779527561
20
-4.3486149212598422
11
5.5841863779527561
21
-4.3223681889763776
0
LINE
8
BLACK
6
CONTINUOUS
10
5.5841863779527561
20
-4.3223681889763776
11
5.58424311023622
21
-4.3217921259842518
0
LINE
8
BLACK
6
CONTINUOUS
10
5.58424311023622
20
-4.3217921259842518
11
5.5846840157480315
21
-4.3207277165354334
0
LINE
8
BLACK
6
CONTINUOUS
10
5.5846840157480315
20
-4.3207277165354334
11
5.585498661417323
21
-4.319913070866142
0
LINE
8
BLACK
6
CONTINUOUS
10
5.585498661417323
20
-4.319913070866142
11
5.5865630708661413
21
-4.3194721653543304
0
LINE
8
BLACK
6
CONTINUOUS
10
5.5865630708661413
20
-4.3194721653543304
11
5.587715196850394
21
-4.3194721653543304
0
LINE
8
BLACK
6
CONTINUOUS
10
5.587715196850394
20
-4.3194721653543304
11
5.5887796062992123
21
-4.319913070866142
0
LINE
8
BLACK
6
CONTINUOUS
10
5.5887796062992123
20
-4.319913070866142
11
5.5895942519685038
21
-4.3207277165354334
0
LINE
8
BLACK
6
CONTINUOUS
10
5.5895942519685038
20
-4.3207277165354334
11
5.5898897244094483
21
-4.321441102362205
0
LINE
8
BLACK
6
CONTINUOUS
10
5.5898897244094483
20
-4.321441102362205
11
5.5933176771653539
21
-4.3197271653543305
0
LINE
8
BLACK
6
CONTINUOUS
10
5.5933176771653539
20
-4.3197271653543305
11
5.5938582677165352
21
-4.3195202755905511
0
LINE
8
BLACK
6
CONTINUOUS
10
5.5938582677165352
20
-4.3195202755905511
11
5.5939641338582673
21
-4.3195127165354332
0
LINE
8
BLACK
6
CONTINUOUS
10
5.5939641338582673
20
-4.3195127165354332
11
5.5940621259842516
21
-4.3194721653543304
0
LINE
8
BLACK
6
CONTINUOUS
10
5.5940621259842516
20
-4.3194721653543304
11
5.5946381889763774
21
-4.3194154330708656
0
LINE
8
BLACK
6
CONTINUOUS
10
5.5946381889763774
20
-4.3194154330708656
11
5.5983877165354325
21
-4.3194154330708656
0
LINE
8
BLACK
6
CONTINUOUS
10
5.5983877165354325
20
-4.3194154330708656
11
5.5989637795275593
21
-4.3194721653543304
0
LINE
8
BLACK
6
CONTINUOUS
10
5.3394357480314962
20
-4.3067897244094491
11
5.339883188976378
21
-4.3071569291338578
0
LINE
8
BLACK
6
CONTINUOUS
10
5.339883188976378
20
-4.3071569291338578
11
5.3417579527559056
21
-4.3090316929133854
0
LINE
8
BLACK
6
CONTINUOUS
10
5.3417579527559056
20
-4.3090316929133854
11
5.3421251574803152
21
-4.3094791338582672
0
LINE
8
BLACK
6
CONTINUOUS
10
5.3421251574803152
20
-4.3094791338582672
11
5.3424949999999995
21
-4.3103719685039366
0
LINE
8
BLACK
6
CONTINUOUS
10
5.3424949999999995
20
-4.3103719685039366
11
5.3425660629921259
21
-4.3105435826771652
0
LINE
8
BLACK
6
CONTINUOUS
10
5.3425660629921259
20
-4.3105435826771652
11
5.3425660629921259
21
-4.3116956692913382
0
LINE
8
BLACK
6
CONTINUOUS
10
5.3425660629921259
20
-4.3116956692913382
11
5.3421251574803152
21
-4.3127600787401574
0
LINE
8
BLACK
6
CONTINUOUS
10
5.3421251574803152
20
-4.3127600787401574
11
5.3417579527559056
21
-4.3132075196850392
0
LINE
8
BLACK
6
CONTINUOUS
10
5.3417579527559056
20
-4.3132075196850392
11
5.339883188976378
21
-4.3150822834645668
0
LINE
8
BLACK
6
CONTINUOUS
10
5.339883188976378
20
-4.3150822834645668
11
5.3394357480314962
21
-4.3154494881889764
0
LINE
8
BLACK
6
CONTINUOUS
10
5.3394357480314962
20
-4.3154494881889764
11
5.338371338582677
21
-4.3158903937007871
0
LINE
8
BLACK
6
CONTINUOUS
10
5.338371338582677
20
-4.3158903937007871
11
5.3383712992125982
21
-4.3158903937007871
0
LINE
8
BLACK
6
CONTINUOUS
10
5.3383712992125982
20
-4.3158903937007871
11
5.337219251968504
21
-4.3158903937007871
0
LINE
8
BLACK
6
CONTINUOUS
10
5.337219251968504
20
-4.3158903937007871
11
5.3372192125984252
21
-4.3158903937007871
0
LINE
8
BLACK
6
CONTINUOUS
10
5.3372192125984252
20
-4.3158903937007871
11
5.336154803149606
21
-4.3154494881889764
0
LINE
8
BLACK
6
CONTINUOUS
10
5.336154803149606
20
-4.3154494881889764
11
5.3357073622047242
21
-4.3150822834645668
0
LINE
8
BLACK
6
CONTINUOUS
10
5.3357073622047242
20
-4.3150822834645668
11
5.3338325984251966
21
-4.3132075196850392
0
LINE
8
BLACK
6
CONTINUOUS
10
5.3338325984251966
20
-4.3132075196850392
11
5.333465393700787
21
-4.3127600787401574
0
LINE
8
BLACK
6
CONTINUOUS
10
5.333465393700787
20
-4.3127600787401574
11
5.3330244881889763
21
-4.3116956299212594
0
LINE
8
BLACK
6
CONTINUOUS
10
5.3330244881889763
20
-4.3116956299212594
11
5.3330244881889763
21
-4.3105435826771652
0
LINE
8
BLACK
6
CONTINUOUS
10
5.3330244881889763
20
-4.3105435826771652
11
5.333465393700787
21
-4.3094791338582672
0
LINE
8
BLACK
6
CONTINUOUS
10
5.333465393700787
20
-4.3094791338582672
11
5.3338325984251966
21
-4.3090316929133854
0
LINE
8
BLACK
6
CONTINUOUS
10
5.3338325984251966
20
-4.3090316929133854
11
5.3357073622047242
21
-4.3071569291338578
0
LINE
8
BLACK
6
CONTINUOUS
10
5.3357073622047242
20
-4.3071569291338578
11
5.336154803149606
21
-4.3067897244094491
0
LINE
8
BLACK
6
CONTINUOUS
10
5.336154803149606
20
-4.3067897244094491
11
5.3372192125984252
21
-4.3063488188976375
0
LINE
8
BLACK
6
CONTINUOUS
10
5.3372192125984252
20
-4.3063488188976375
11
5.3383712992125982
21
-4.3063488188976375
0
LINE
8
BLACK
6
CONTINUOUS
10
5.3383712992125982
20
-4.3063488188976375
11
5.338371338582677
21
-4.3063488188976375
0
LINE
8
BLACK
6
CONTINUOUS
10
5.338371338582677
20
-4.3063488188976375
11
5.3394357480314962
21
-4.3067897244094491
0
CIRCLE
8
BLACK
10
4.4322834645669289
20
-4.4488188976377954
40
0.0068897637795276
0
CIRCLE
8
BLACK
10
4.5322834645669294
20
-4.4488188976377954
40
0.0068897637795276
0
CIRCLE
8
BLACK
10
4.6322834645669291
20
-4.4488188976377954
40
0.0068897637795276
0
CIRCLE
8
BLACK
10
4.7322834645669287
20
-4.4488188976377954
40
0.0068897637795276
0
CIRCLE
8
BLACK
10
4.8322834645669293
20
-4.4488188976377954
40
0.0068897637795276
0
CIRCLE
8
BLACK
10
4.9322834645669289
20
-4.4488188976377954
40
0.0068897637795276
0
CIRCLE
8
BLACK
10
5.0322834645669294
20
-4.4488188976377954
40
0.0068897637795276
0
CIRCLE
8
BLACK
10
5.1322834645669291
20
-4.4488188976377954
40
0.0068897637795276
0
CIRCLE
8
BLACK
10
5.8322834645669293
20
-4.4488188976377954
40
0.0068897637795276
0
CIRCLE
8
BLACK
10
5.9322834645669289
20
-4.4488188976377954
40
0.0068897637795276
0
CIRCLE
8
BLACK
10
6.0322834645669294
20
-4.4488188976377954
40
0.0068897637795276
0
CIRCLE
8
BLACK
10
6.1322834645669291
20
-4.4488188976377954
40
0.0068897637795276
0
CIRCLE
8
BLACK
10
6.2322834645669287
20
-4.4488188976377954
40
0.0068897637795276
0
CIRCLE
8
BLACK
10
6.3322834645669293
20
-4.4488188976377954
40
0.0068897637795276
0
CIRCLE
8
BLACK
10
6.4322834645669289
20
-4.4488188976377954
40
0.0068897637795276
0
CIRCLE
8
BLACK
10
6.5322834645669285
20
-4.4488188976377954
40
0.0068897637795276
0
CIRCLE
8
BLACK
10
6.6322834645669291
20
-4.4488188976377954
40
0.0068897637795276
0
CIRCLE
8
BLACK
10
6.7322834645669287
20
-4.4488188976377954
40
0.0068897637795276
0
CIRCLE
8
BLACK
10
4.4322834645669289
20
-4.4488188976377954
40
0.0068897637795276
0
CIRCLE
8
BLACK
10
4.5322834645669294
20
-4.4488188976377954
40
0.0068897637795276
0
CIRCLE
8
BLACK
10
4.6322834645669291
20
-4.4488188976377954
40
0.0068897637795276
0
CIRCLE
8
BLACK
10
4.7322834645669287
20
-4.4488188976377954
40
0.0068897637795276
0
CIRCLE
8
BLACK
10
4.8322834645669293
20
-4.4488188976377954
40
0.0068897637795276
0
CIRCLE
8
BLACK
10
4.9322834645669289
20
-4.4488188976377954
40
0.0068897637795276
0
CIRCLE
8
BLACK
10
5.0322834645669294
20
-4.4488188976377954
40
0.0068897637795276
0
CIRCLE
8
BLACK
10
5.1322834645669291
20
-4.4488188976377954
40
0.0068897637795276
0
CIRCLE
8
BLACK
10
5.8322834645669293
20
-4.4488188976377954
40
0.0068897637795276
0
CIRCLE
8
BLACK
10
5.9322834645669289
20
-4.4488188976377954
40
0.0068897637795276
0
CIRCLE
8
BLACK
10
6.0322834645669294
20
-4.4488188976377954
40
0.0068897637795276
0
CIRCLE
8
BLACK
10
6.1322834645669291
20
-4.4488188976377954
40
0.0068897637795276
0
CIRCLE
8
BLACK
10
6.2322834645669287
20
-4.4488188976377954
40
0.0068897637795276
0
CIRCLE
8
BLACK
10
6.3322834645669293
20
-4.4488188976377954
40
0.0068897637795276
0
CIRCLE
8
BLACK
10
6.4322834645669289
20
-4.4488188976377954
40
0.0068897637795276
0
CIRCLE
8
BLACK
10
6.5322834645669285
20
-4.4488188976377954
40
0.0068897637795276
0
CIRCLE
8
BLACK
10
6.6322834645669291
20
-4.4488188976377954
40
0.0068897637795276
0
CIRCLE
8
BLACK
10
6.7322834645669287
20
-4.4488188976377954
40
0.0068897637795276
  0
ENDSEC
  0
EOF
