  0
SECTION
  2
HEADER
  9
$ANGBASE
  50
0.0
  9
$ANGDIR
  70
1
  9
$MEASUREMENT
  70
0
  0
ENDSEC
  0
SECTION
  2
TABLES
  0
TABLE
  2
LTYPE
  70
4
  0
LTYPE
  5
40F
  2
CONTINUOUS
  70
0
  3
Solid line
  72
65
  73
0
  40
0.0
  0
LTYPE
  5
410
  2
DASHDOT
 70
0
  3
Dash Dot ____ _ ____ _
 72
65
 73
4
 40
2.0
 49
1.25
 49
-0.25
 49
0.25
 49
-0.25
  0
LTYPE
  5
411
  2
DASHED
 70
0
  3
Dashed __ __ __ __ __
 72
65
 73
2
 40
0.75
 49
0.5
 49
-0.25
  0
LTYPE
  5
43B
  2
DOTTED
 70
0
  3
Dotted .  .  .  .
 72
65
 73
2
 40
0.2
 49
0.0
 49
-0.2
  0
ENDTAB
  0
TABLE
  2
STYLE
  70
4
  0
STYLE
  2
KICAD
  70
0
  40
0
  41
1
  42
1
  50
0
  71
0
  3
isocp.shx
  0
STYLE
  2
KICADB
  70
0
  40
0
  41
1
  42
1
  50
0
  71
0
  3
isocp.shx
  0
STYLE
  2
KICADI
  70
0
  40
0
  41
1
  42
1
  50
15
  71
0
  3
isocp.shx
  0
STYLE
  2
KICADBI
  70
0
  40
0
  41
1
  42
1
  50
15
  71
0
  3
isocp.shx
  0
ENDTAB
  0
TABLE
  2
LAYER
  70
1
  0
LAYER
  2
BLACK
  70
0
  62
7
  6
CONTINUOUS
  0
ENDTAB
  0
ENDSEC
  0
SECTION
  2
ENTITIES
0
LINE
8
BLACK
6
CONTINUOUS
10
5.6496850393700786
20
-4.2466929527559056
11
5.6500616929133853
21
-4.246767874015748
0
LINE
8
BLACK
6
CONTINUOUS
10
5.6500616929133853
20
-4.246767874015748
11
5.65059437007874
21
-4.2473005511811026
0
LINE
8
BLACK
6
CONTINUOUS
10
5.65059437007874
20
-4.2473005511811026
11
5.6506692913385823
21
-4.2476772047244093
0
LINE
8
BLACK
6
CONTINUOUS
10
5.6506692913385823
20
-4.2476772047244093
11
5.6506692913385823
21
-4.7323228346456689
0
LINE
8
BLACK
6
CONTINUOUS
10
5.6506692913385823
20
-4.7323228346456689
11
5.65059437007874
21
-4.7326994881889766
0
LINE
8
BLACK
6
CONTINUOUS
10
5.65059437007874
20
-4.7326994881889766
11
5.6500616929133853
21
-4.7332321653543303
0
LINE
8
BLACK
6
CONTINUOUS
10
5.6500616929133853
20
-4.7332321653543303
11
5.6496850393700786
21
-4.7333070866141735
0
LINE
8
BLACK
6
CONTINUOUS
10
5.6496850393700786
20
-4.7333070866141735
11
5.3103150000000001
21
-4.7333070866141735
0
LINE
8
BLACK
6
CONTINUOUS
10
5.3103150000000001
20
-4.7333070866141735
11
5.3099383464566925
21
-4.7332321653543303
0
LINE
8
BLACK
6
CONTINUOUS
10
5.3099383464566925
20
-4.7332321653543303
11
5.3094056692913387
21
-4.7326994881889766
0
LINE
8
BLACK
6
CONTINUOUS
10
5.3094056692913387
20
-4.7326994881889766
11
5.3093307480314955
21
-4.7323228346456689
0
LINE
8
BLACK
6
CONTINUOUS
10
5.3093307480314955
20
-4.7323228346456689
11
5.3093307086614168
21
-4.2476771653543306
0
LINE
8
BLACK
6
CONTINUOUS
10
5.3093307086614168
20
-4.2476771653543306
11
5.30940562992126
21
-4.2473005118110239
0
LINE
8
BLACK
6
CONTINUOUS
10
5.30940562992126
20
-4.2473005118110239
11
5.3099383070866137
21
-4.2467678346456692
0
LINE
8
BLACK
6
CONTINUOUS
10
5.3099383070866137
20
-4.2467678346456692
11
5.3103149606299214
21
-4.2466929133858269
0
LINE
8
BLACK
6
CONTINUOUS
10
5.3103149606299214
20
-4.2466929133858269
11
5.6496850393700786
21
-4.2466929527559056
0
LINE
8
BLACK
6
CONTINUOUS
10
5.3112992519685038
20
-4.7313385826771652
11
5.6487007874015749
21
-4.7313385826771652
0
LINE
8
BLACK
6
CONTINUOUS
10
5.6487007874015749
20
-4.7313385826771652
11
5.6487007874015749
21
-4.2486614173228343
0
LINE
8
BLACK
6
CONTINUOUS
10
5.6487007874015749
20
-4.2486614173228343
11
5.3112992125984251
21
-4.2486614173228343
0
LINE
8
BLACK
6
CONTINUOUS
10
5.3112992125984251
20
-4.2486614173228343
11
5.3112992519685038
21
-4.7313385826771652
0
LINE
8
BLACK
6
CONTINUOUS
10
5.2125282283464562
20
-4.5561556299212596
11
5.2130609055118109
21
-4.5566883070866142
0
LINE
8
BLACK
6
CONTINUOUS
10
5.2130609055118109
20
-4.5566883070866142
11
5.2131358267716532
21
-4.5570649606299209
0
LINE
8
BLACK
6
CONTINUOUS
10
5.2131358267716532
20
-4.5570649606299209
11
5.2131358267716532
21
-4.6987972440944885
0
LINE
8
BLACK
6
CONTINUOUS
10
5.2131358267716532
20
-4.6987972440944885
11
5.2130609055118109
21
-4.6991738976377952
0
LINE
8
BLACK
6
CONTINUOUS
10
5.2130609055118109
20
-4.6991738976377952
11
5.2125282283464562
21
-4.6997065748031499
0
LINE
8
BLACK
6
CONTINUOUS
10
5.2125282283464562
20
-4.6997065748031499
11
5.2121515748031495
21
-4.6997814960629922
0
LINE
8
BLACK
6
CONTINUOUS
10
5.2121515748031495
20
-4.6997814960629922
11
4.3716003937007875
21
-4.6997814960629922
0
LINE
8
BLACK
6
CONTINUOUS
10
4.3716003937007875
20
-4.6997814960629922
11
4.3712237401574798
21
-4.6997065748031499
0
LINE
8
BLACK
6
CONTINUOUS
10
4.3712237401574798
20
-4.6997065748031499
11
4.3706910629921261
21
-4.6991738976377952
0
LINE
8
BLACK
6
CONTINUOUS
10
4.3706910629921261
20
-4.6991738976377952
11
4.3706161417322837
21
-4.6987972440944885
0
LINE
8
BLACK
6
CONTINUOUS
10
4.3706161417322837
20
-4.6987972440944885
11
4.3706161417322837
21
-4.5570649606299209
0
LINE
8
BLACK
6
CONTINUOUS
10
4.3706161417322837
20
-4.5570649606299209
11
4.3706910629921261
21
-4.5566883070866142
0
LINE
8
BLACK
6
CONTINUOUS
10
4.3706910629921261
20
-4.5566883070866142
11
4.3712237401574798
21
-4.5561556299212596
0
LINE
8
BLACK
6
CONTINUOUS
10
4.3712237401574798
20
-4.5561556299212596
11
4.3716003937007875
21
-4.5560807086614172
0
LINE
8
BLACK
6
CONTINUOUS
10
4.3716003937007875
20
-4.5560807086614172
11
5.2121515748031495
21
-4.5560807086614172
0
LINE
8
BLACK
6
CONTINUOUS
10
5.2121515748031495
20
-4.5560807086614172
11
5.2125282283464562
21
-4.5561556299212596
0
LINE
8
BLACK
6
CONTINUOUS
10
4.3725846456692912
20
-4.5580492125984247
11
4.3725846456692912
21
-4.6978129921259839
0
LINE
8
BLACK
6
CONTINUOUS
10
4.3725846456692912
20
-4.6978129921259839
11
5.2111673228346458
21
-4.6978129921259839
0
LINE
8
BLACK
6
CONTINUOUS
10
5.2111673228346458
20
-4.6978129921259839
11
5.2111673228346458
21
-4.5580492125984247
0
LINE
8
BLACK
6
CONTINUOUS
10
5.2111673228346458
20
-4.5580492125984247
11
4.3725846456692912
21
-4.5580492125984247
0
LINE
8
BLACK
6
CONTINUOUS
10
6.8133156299212594
20
-4.5561556299212596
11
6.813848307086614
21
-4.5566883070866142
0
LINE
8
BLACK
6
CONTINUOUS
10
6.813848307086614
20
-4.5566883070866142
11
6.8139232283464564
21
-4.5570649606299209
0
LINE
8
BLACK
6
CONTINUOUS
10
6.8139232283464564
20
-4.5570649606299209
11
6.8139232283464564
21
-4.6987972440944885
0
LINE
8
BLACK
6
CONTINUOUS
10
6.8139232283464564
20
-4.6987972440944885
11
6.813848307086614
21
-4.6991738976377952
0
LINE
8
BLACK
6
CONTINUOUS
10
6.813848307086614
20
-4.6991738976377952
11
6.8133156299212594
21
-4.6997065748031499
0
LINE
8
BLACK
6
CONTINUOUS
10
6.8133156299212594
20
-4.6997065748031499
11
6.8129389763779526
21
-4.6997814960629922
0
LINE
8
BLACK
6
CONTINUOUS
10
6.8129389763779526
20
-4.6997814960629922
11
5.7716003937007869
21
-4.6997814960629922
0
LINE
8
BLACK
6
CONTINUOUS
10
5.7716003937007869
20
-4.6997814960629922
11
5.7712237401574802
21
-4.6997065748031499
0
LINE
8
BLACK
6
CONTINUOUS
10
5.7712237401574802
20
-4.6997065748031499
11
5.7706910629921255
21
-4.6991738976377952
0
LINE
8
BLACK
6
CONTINUOUS
10
5.7706910629921255
20
-4.6991738976377952
11
5.7706161417322832
21
-4.6987972440944885
0
LINE
8
BLACK
6
CONTINUOUS
10
5.7706161417322832
20
-4.6987972440944885
11
5.7706161417322832
21
-4.5570649606299209
0
LINE
8
BLACK
6
CONTINUOUS
10
5.7706161417322832
20
-4.5570649606299209
11
5.7706910629921255
21
-4.5566883070866142
0
LINE
8
BLACK
6
CONTINUOUS
10
5.7706910629921255
20
-4.5566883070866142
11
5.7712237401574802
21
-4.5561556299212596
0
LINE
8
BLACK
6
CONTINUOUS
10
5.7712237401574802
20
-4.5561556299212596
11
5.7716003937007869
21
-4.5560807086614172
0
LINE
8
BLACK
6
CONTINUOUS
10
5.7716003937007869
20
-4.5560807086614172
11
6.8129389763779526
21
-4.5560807086614172
0
LINE
8
BLACK
6
CONTINUOUS
10
6.8129389763779526
20
-4.5560807086614172
11
6.8133156299212594
21
-4.5561556299212596
0
LINE
8
BLACK
6
CONTINUOUS
10
5.7725846456692915
20
-4.5580492125984247
11
5.7725846456692915
21
-4.6978129921259839
0
LINE
8
BLACK
6
CONTINUOUS
10
5.7725846456692915
20
-4.6978129921259839
11
6.8119547244094489
21
-4.6978129921259839
0
LINE
8
BLACK
6
CONTINUOUS
10
6.8119547244094489
20
-4.6978129921259839
11
6.8119547244094489
21
-4.5580492125984247
0
LINE
8
BLACK
6
CONTINUOUS
10
6.8119547244094489
20
-4.5580492125984247
11
5.7725846456692915
21
-4.5580492125984247
0
LINE
8
BLACK
6
CONTINUOUS
10
4.8440774409448819
20
-4.2231064173228345
11
4.8446101181102357
21
-4.2236390944881892
0
LINE
8
BLACK
6
CONTINUOUS
10
4.8446101181102357
20
-4.2236390944881892
11
4.8446850393700789
21
-4.2240157480314959
0
LINE
8
BLACK
6
CONTINUOUS
10
4.8446850393700789
20
-4.2240157480314959
11
4.8446850393700789
21
-4.2328740157480311
0
LINE
8
BLACK
6
CONTINUOUS
10
4.8446850393700789
20
-4.2328740157480311
11
5.1553149606299211
21
-4.2328740157480311
0
LINE
8
BLACK
6
CONTINUOUS
10
5.1553149606299211
20
-4.2328740157480311
11
5.1553149606299211
21
-4.2240157480314959
0
LINE
8
BLACK
6
CONTINUOUS
10
5.1553149606299211
20
-4.2240157480314959
11
5.1553898818897634
21
-4.2236390944881892
0
LINE
8
BLACK
6
CONTINUOUS
10
5.1553898818897634
20
-4.2236390944881892
11
5.1559225590551181
21
-4.2231064173228345
0
LINE
8
BLACK
6
CONTINUOUS
10
5.1559225590551181
20
-4.2231064173228345
11
5.1562992125984248
21
-4.2230314960629922
0
LINE
8
BLACK
6
CONTINUOUS
10
5.1562992125984248
20
-4.2230314960629922
11
5.2354330708661418
21
-4.2230314960629922
0
LINE
8
BLACK
6
CONTINUOUS
10
5.2354330708661418
20
-4.2230314960629922
11
5.2358097244094486
21
-4.2231064173228345
0
LINE
8
BLACK
6
CONTINUOUS
10
5.2358097244094486
20
-4.2231064173228345
11
5.2363424015748032
21
-4.2236390944881892
0
LINE
8
BLACK
6
CONTINUOUS
10
5.2363424015748032
20
-4.2236390944881892
11
5.2364173228346456
21
-4.2240157480314959
0
LINE
8
BLACK
6
CONTINUOUS
10
5.2364173228346456
20
-4.2240157480314959
11
5.2364173228346456
21
-4.3696850393700783
0
LINE
8
BLACK
6
CONTINUOUS
10
5.2364173228346456
20
-4.3696850393700783
11
5.2363424015748032
21
-4.370061692913386
0
LINE
8
BLACK
6
CONTINUOUS
10
5.2363424015748032
20
-4.370061692913386
11
5.2358097244094486
21
-4.3705943700787397
0
LINE
8
BLACK
6
CONTINUOUS
10
5.2358097244094486
20
-4.3705943700787397
11
5.2354330708661418
21
-4.370669291338583
0
LINE
8
BLACK
6
CONTINUOUS
10
5.2354330708661418
20
-4.370669291338583
11
5.2324802755905511
21
-4.370669291338583
0
LINE
8
BLACK
6
CONTINUOUS
10
5.2324802755905511
20
-4.370669291338583
11
5.2324803149606298
21
-4.4326771653543302
0
LINE
8
BLACK
6
CONTINUOUS
10
5.2324803149606298
20
-4.4326771653543302
11
5.2324053937007875
21
-4.4330538188976378
0
LINE
8
BLACK
6
CONTINUOUS
10
5.2324053937007875
20
-4.4330538188976378
11
5.2318727165354328
21
-4.4335864960629916
0
LINE
8
BLACK
6
CONTINUOUS
10
5.2318727165354328
20
-4.4335864960629916
11
5.2314960629921261
21
-4.4336614173228348
0
LINE
8
BLACK
6
CONTINUOUS
10
5.2314960629921261
20
-4.4336614173228348
11
5.1557086614173224
21
-4.4336614173228348
0
LINE
8
BLACK
6
CONTINUOUS
10
5.1557086614173224
20
-4.4336614173228348
11
5.1557086614173224
21
-4.4759842519685042
0
LINE
8
BLACK
6
CONTINUOUS
10
5.1557086614173224
20
-4.4759842519685042
11
5.1556337401574801
21
-4.476360905511811
0
LINE
8
BLACK
6
CONTINUOUS
10
5.1556337401574801
20
-4.476360905511811
11
5.1551010629921254
21
-4.4768935826771656
0
LINE
8
BLACK
6
CONTINUOUS
10
5.1551010629921254
20
-4.4768935826771656
11
5.1547244094488187
21
-4.476968503937008
0
LINE
8
BLACK
6
CONTINUOUS
10
5.1547244094488187
20
-4.476968503937008
11
4.8452755905511813
21
-4.476968503937008
0
LINE
8
BLACK
6
CONTINUOUS
10
4.8452755905511813
20
-4.476968503937008
11
4.8448989370078737
21
-4.4768935826771656
0
LINE
8
BLACK
6
CONTINUOUS
10
4.8448989370078737
20
-4.4768935826771656
11
4.8443662598425199
21
-4.476360905511811
0
LINE
8
BLACK
6
CONTINUOUS
10
4.8443662598425199
20
-4.476360905511811
11
4.8442913385826767
21
-4.4759842519685042
0
LINE
8
BLACK
6
CONTINUOUS
10
4.8442913385826767
20
-4.4759842519685042
11
4.8442913385826767
21
-4.4336614173228348
0
LINE
8
BLACK
6
CONTINUOUS
10
4.8442913385826767
20
-4.4336614173228348
11
4.7685039370078739
21
-4.4336614173228348
0
LINE
8
BLACK
6
CONTINUOUS
10
4.7685039370078739
20
-4.4336614173228348
11
4.7681272834645672
21
-4.4335864960629916
0
LINE
8
BLACK
6
CONTINUOUS
10
4.7681272834645672
20
-4.4335864960629916
11
4.7675946062992125
21
-4.4330538188976378
0
LINE
8
BLACK
6
CONTINUOUS
10
4.7675946062992125
20
-4.4330538188976378
11
4.7675196850393702
21
-4.4326771653543302
0
LINE
8
BLACK
6
CONTINUOUS
10
4.7675196850393702
20
-4.4326771653543302
11
4.7675197244094489
21
-4.370669291338583
0
LINE
8
BLACK
6
CONTINUOUS
10
4.7675197244094489
20
-4.370669291338583
11
4.7645669291338582
21
-4.370669291338583
0
LINE
8
BLACK
6
CONTINUOUS
10
4.7645669291338582
20
-4.370669291338583
11
4.7641902755905514
21
-4.3705943700787397
0
LINE
8
BLACK
6
CONTINUOUS
10
4.7641902755905514
20
-4.3705943700787397
11
4.7636575984251968
21
-4.370061692913386
0
LINE
8
BLACK
6
CONTINUOUS
10
4.7636575984251968
20
-4.370061692913386
11
4.7635826771653544
21
-4.3696850393700783
0
LINE
8
BLACK
6
CONTINUOUS
10
4.7635826771653544
20
-4.3696850393700783
11
4.7635826771653544
21
-4.2240157480314959
0
LINE
8
BLACK
6
CONTINUOUS
10
4.7635826771653544
20
-4.2240157480314959
11
4.7636575984251968
21
-4.2236390944881892
0
LINE
8
BLACK
6
CONTINUOUS
10
4.7636575984251968
20
-4.2236390944881892
11
4.7641902755905514
21
-4.2231064173228345
0
LINE
8
BLACK
6
CONTINUOUS
10
4.7641902755905514
20
-4.2231064173228345
11
4.7645669291338582
21
-4.2230314960629922
0
LINE
8
BLACK
6
CONTINUOUS
10
4.7645669291338582
20
-4.2230314960629922
11
4.8437007874015743
21
-4.2230314960629922
0
LINE
8
BLACK
6
CONTINUOUS
10
4.8437007874015743
20
-4.2230314960629922
11
4.8440774409448819
21
-4.2231064173228345
0
LINE
8
BLACK
6
CONTINUOUS
10
4.7655511811023619
20
-4.2249999999999996
11
4.7655511811023619
21
-4.3687007874015746
0
LINE
8
BLACK
6
CONTINUOUS
10
4.7655511811023619
20
-4.3687007874015746
11
4.7685039763779526
21
-4.3687007874015746
0
LINE
8
BLACK
6
CONTINUOUS
10
4.7685039763779526
20
-4.3687007874015746
11
4.7688806299212594
21
-4.368775708661417
0
LINE
8
BLACK
6
CONTINUOUS
10
4.7688806299212594
20
-4.368775708661417
11
4.769413307086614
21
-4.3693083858267716
0
LINE
8
BLACK
6
CONTINUOUS
10
4.769413307086614
20
-4.3693083858267716
11
4.7694882283464564
21
-4.3696850393700783
0
LINE
8
BLACK
6
CONTINUOUS
10
4.7694882283464564
20
-4.3696850393700783
11
4.7694881889763776
21
-4.4316929133858265
0
LINE
8
BLACK
6
CONTINUOUS
10
4.7694881889763776
20
-4.4316929133858265
11
4.8452755905511813
21
-4.4316929133858265
0
LINE
8
BLACK
6
CONTINUOUS
10
4.8452755905511813
20
-4.4316929133858265
11
4.845652244094488
21
-4.4317678346456688
0
LINE
8
BLACK
6
CONTINUOUS
10
4.845652244094488
20
-4.4317678346456688
11
4.8461849212598427
21
-4.4323005118110235
0
LINE
8
BLACK
6
CONTINUOUS
10
4.8461849212598427
20
-4.4323005118110235
11
4.846259842519685
21
-4.4326771653543302
0
LINE
8
BLACK
6
CONTINUOUS
10
4.846259842519685
20
-4.4326771653543302
11
4.846259842519685
21
-4.4749999999999996
0
LINE
8
BLACK
6
CONTINUOUS
10
4.846259842519685
20
-4.4749999999999996
11
5.153740157480315
21
-4.4749999999999996
0
LINE
8
BLACK
6
CONTINUOUS
10
5.153740157480315
20
-4.4749999999999996
11
5.153740157480315
21
-4.4326771653543302
0
LINE
8
BLACK
6
CONTINUOUS
10
5.153740157480315
20
-4.4326771653543302
11
5.1538150787401573
21
-4.4323005118110235
0
LINE
8
BLACK
6
CONTINUOUS
10
5.1538150787401573
20
-4.4323005118110235
11
5.154347755905512
21
-4.4317678346456688
0
LINE
8
BLACK
6
CONTINUOUS
10
5.154347755905512
20
-4.4317678346456688
11
5.1547244094488187
21
-4.4316929133858265
0
LINE
8
BLACK
6
CONTINUOUS
10
5.1547244094488187
20
-4.4316929133858265
11
5.2305118110236215
21
-4.4316929133858265
0
LINE
8
BLACK
6
CONTINUOUS
10
5.2305118110236215
20
-4.4316929133858265
11
5.2305117716535428
21
-4.3696850393700783
0
LINE
8
BLACK
6
CONTINUOUS
10
5.2305117716535428
20
-4.3696850393700783
11
5.230586692913386
21
-4.3693083858267716
0
LINE
8
BLACK
6
CONTINUOUS
10
5.230586692913386
20
-4.3693083858267716
11
5.2311193700787397
21
-4.368775708661417
0
LINE
8
BLACK
6
CONTINUOUS
10
5.2311193700787397
20
-4.368775708661417
11
5.2314960236220474
21
-4.3687007874015746
0
LINE
8
BLACK
6
CONTINUOUS
10
5.2314960236220474
20
-4.3687007874015746
11
5.2344488188976372
21
-4.3687007874015746
0
LINE
8
BLACK
6
CONTINUOUS
10
5.2344488188976372
20
-4.3687007874015746
11
5.2344488188976372
21
-4.2249999999999996
0
LINE
8
BLACK
6
CONTINUOUS
10
5.2344488188976372
20
-4.2249999999999996
11
5.1572834645669294
21
-4.2249999999999996
0
LINE
8
BLACK
6
CONTINUOUS
10
5.1572834645669294
20
-4.2249999999999996
11
5.1572834645669294
21
-4.2338582677165357
0
LINE
8
BLACK
6
CONTINUOUS
10
5.1572834645669294
20
-4.2338582677165357
11
5.1572085433070862
21
-4.2342349212598425
0
LINE
8
BLACK
6
CONTINUOUS
10
5.1572085433070862
20
-4.2342349212598425
11
5.1566758661417325
21
-4.2347675984251971
0
LINE
8
BLACK
6
CONTINUOUS
10
5.1566758661417325
20
-4.2347675984251971
11
5.1562992125984248
21
-4.2348425196850394
0
LINE
8
BLACK
6
CONTINUOUS
10
5.1562992125984248
20
-4.2348425196850394
11
4.8437007874015743
21
-4.2348425196850394
0
LINE
8
BLACK
6
CONTINUOUS
10
4.8437007874015743
20
-4.2348425196850394
11
4.8433241338582675
21
-4.2347675984251971
0
LINE
8
BLACK
6
CONTINUOUS
10
4.8433241338582675
20
-4.2347675984251971
11
4.8427914566929129
21
-4.2342349212598425
0
LINE
8
BLACK
6
CONTINUOUS
10
4.8427914566929129
20
-4.2342349212598425
11
4.8427165354330706
21
-4.2338582677165357
0
LINE
8
BLACK
6
CONTINUOUS
10
4.8427165354330706
20
-4.2338582677165357
11
4.8427165354330706
21
-4.2249999999999996
0
LINE
8
BLACK
6
CONTINUOUS
10
4.8427165354330706
20
-4.2249999999999996
11
4.7655511811023619
21
-4.2249999999999996
0
LINE
8
BLACK
6
CONTINUOUS
10
5.897227047244094
20
-4.2231064173228345
11
5.8977597244094486
21
-4.2236390944881892
0
LINE
8
BLACK
6
CONTINUOUS
10
5.8977597244094486
20
-4.2236390944881892
11
5.8978346456692909
21
-4.2240157480314959
0
LINE
8
BLACK
6
CONTINUOUS
10
5.8978346456692909
20
-4.2240157480314959
11
5.8978346456692909
21
-4.2328740157480311
0
LINE
8
BLACK
6
CONTINUOUS
10
5.8978346456692909
20
-4.2328740157480311
11
6.3068897637795276
21
-4.2328740157480311
0
LINE
8
BLACK
6
CONTINUOUS
10
6.3068897637795276
20
-4.2328740157480311
11
6.3068897637795276
21
-4.2240157480314959
0
LINE
8
BLACK
6
CONTINUOUS
10
6.3068897637795276
20
-4.2240157480314959
11
6.3069646850393699
21
-4.2236390944881892
0
LINE
8
BLACK
6
CONTINUOUS
10
6.3069646850393699
20
-4.2236390944881892
11
6.3074973622047246
21
-4.2231064173228345
0
LINE
8
BLACK
6
CONTINUOUS
10
6.3074973622047246
20
-4.2231064173228345
11
6.3078740157480313
21
-4.2230314960629922
0
LINE
8
BLACK
6
CONTINUOUS
10
6.3078740157480313
20
-4.2230314960629922
11
6.3870078740157483
21
-4.2230314960629922
0
LINE
8
BLACK
6
CONTINUOUS
10
6.3870078740157483
20
-4.2230314960629922
11
6.3873845275590551
21
-4.2231064173228345
0
LINE
8
BLACK
6
CONTINUOUS
10
6.3873845275590551
20
-4.2231064173228345
11
6.3879172047244097
21
-4.2236390944881892
0
LINE
8
BLACK
6
CONTINUOUS
10
6.3879172047244097
20
-4.2236390944881892
11
6.387992125984252
21
-4.2240157480314959
0
LINE
8
BLACK
6
CONTINUOUS
10
6.387992125984252
20
-4.2240157480314959
11
6.387992125984252
21
-4.3696850393700783
0
LINE
8
BLACK
6
CONTINUOUS
10
6.387992125984252
20
-4.3696850393700783
11
6.3879172047244097
21
-4.370061692913386
0
LINE
8
BLACK
6
CONTINUOUS
10
6.3879172047244097
20
-4.370061692913386
11
6.3873845275590551
21
-4.3705943700787397
0
LINE
8
BLACK
6
CONTINUOUS
10
6.3873845275590551
20
-4.3705943700787397
11
6.3870078740157483
21
-4.370669291338583
0
LINE
8
BLACK
6
CONTINUOUS
10
6.3870078740157483
20
-4.370669291338583
11
6.3840551181102363
21
-4.370669291338583
0
LINE
8
BLACK
6
CONTINUOUS
10
6.3840551181102363
20
-4.370669291338583
11
6.3840551181102363
21
-4.4326771653543302
0
LINE
8
BLACK
6
CONTINUOUS
10
6.3840551181102363
20
-4.4326771653543302
11
6.383980196850394
21
-4.4330538188976378
0
LINE
8
BLACK
6
CONTINUOUS
10
6.383980196850394
20
-4.4330538188976378
11
6.3834475196850393
21
-4.4335864960629916
0
LINE
8
BLACK
6
CONTINUOUS
10
6.3834475196850393
20
-4.4335864960629916
11
6.3830708661417326
21
-4.4336614173228348
0
LINE
8
BLACK
6
CONTINUOUS
10
6.3830708661417326
20
-4.4336614173228348
11
6.3072834645669289
21
-4.4336614173228348
0
LINE
8
BLACK
6
CONTINUOUS
10
6.3072834645669289
20
-4.4336614173228348
11
6.3072834645669289
21
-4.4759842519685042
0
LINE
8
BLACK
6
CONTINUOUS
10
6.3072834645669289
20
-4.4759842519685042
11
6.3072085433070866
21
-4.476360905511811
0
LINE
8
BLACK
6
CONTINUOUS
10
6.3072085433070866
20
-4.476360905511811
11
6.3066758661417319
21
-4.4768935826771656
0
LINE
8
BLACK
6
CONTINUOUS
10
6.3066758661417319
20
-4.4768935826771656
11
6.3062992125984252
21
-4.476968503937008
0
LINE
8
BLACK
6
CONTINUOUS
10
6.3062992125984252
20
-4.476968503937008
11
5.8984251968503933
21
-4.476968503937008
0
LINE
8
BLACK
6
CONTINUOUS
10
5.8984251968503933
20
-4.476968503937008
11
5.8980485433070866
21
-4.4768935826771656
0
LINE
8
BLACK
6
CONTINUOUS
10
5.8980485433070866
20
-4.4768935826771656
11
5.897515866141732
21
-4.476360905511811
0
LINE
8
BLACK
6
CONTINUOUS
10
5.897515866141732
20
-4.476360905511811
11
5.8974409448818896
21
-4.4759842519685042
0
LINE
8
BLACK
6
CONTINUOUS
10
5.8974409448818896
20
-4.4759842519685042
11
5.8974409448818896
21
-4.4336614173228348
0
LINE
8
BLACK
6
CONTINUOUS
10
5.8974409448818896
20
-4.4336614173228348
11
5.8216535433070868
21
-4.4336614173228348
0
LINE
8
BLACK
6
CONTINUOUS
10
5.8216535433070868
20
-4.4336614173228348
11
5.8212768897637792
21
-4.4335864960629916
0
LINE
8
BLACK
6
CONTINUOUS
10
5.8212768897637792
20
-4.4335864960629916
11
5.8207442125984254
21
-4.4330538188976378
0
LINE
8
BLACK
6
CONTINUOUS
10
5.8207442125984254
20
-4.4330538188976378
11
5.8206692913385822
21
-4.4326771653543302
0
LINE
8
BLACK
6
CONTINUOUS
10
5.8206692913385822
20
-4.4326771653543302
11
5.8206692913385822
21
-4.370669291338583
0
LINE
8
BLACK
6
CONTINUOUS
10
5.8206692913385822
20
-4.370669291338583
11
5.8177165354330711
21
-4.370669291338583
0
LINE
8
BLACK
6
CONTINUOUS
10
5.8177165354330711
20
-4.370669291338583
11
5.8173398818897635
21
-4.3705943700787397
0
LINE
8
BLACK
6
CONTINUOUS
10
5.8173398818897635
20
-4.3705943700787397
11
5.8168072047244097
21
-4.370061692913386
0
LINE
8
BLACK
6
CONTINUOUS
10
5.8168072047244097
20
-4.370061692913386
11
5.8167322834645665
21
-4.3696850393700783
0
LINE
8
BLACK
6
CONTINUOUS
10
5.8167322834645665
20
-4.3696850393700783
11
5.8167322834645665
21
-4.2240157480314959
0
LINE
8
BLACK
6
CONTINUOUS
10
5.8167322834645665
20
-4.2240157480314959
11
5.8168072047244097
21
-4.2236390944881892
0
LINE
8
BLACK
6
CONTINUOUS
10
5.8168072047244097
20
-4.2236390944881892
11
5.8173398818897635
21
-4.2231064173228345
0
LINE
8
BLACK
6
CONTINUOUS
10
5.8173398818897635
20
-4.2231064173228345
11
5.8177165354330711
21
-4.2230314960629922
0
LINE
8
BLACK
6
CONTINUOUS
10
5.8177165354330711
20
-4.2230314960629922
11
5.8968503937007872
21
-4.2230314960629922
0
LINE
8
BLACK
6
CONTINUOUS
10
5.8968503937007872
20
-4.2230314960629922
11
5.897227047244094
21
-4.2231064173228345
0
LINE
8
BLACK
6
CONTINUOUS
10
5.8187007874015748
20
-4.2249999999999996
11
5.8187007874015748
21
-4.3687007874015746
0
LINE
8
BLACK
6
CONTINUOUS
10
5.8187007874015748
20
-4.3687007874015746
11
5.8216535433070868
21
-4.3687007874015746
0
LINE
8
BLACK
6
CONTINUOUS
10
5.8216535433070868
20
-4.3687007874015746
11
5.8220301968503936
21
-4.368775708661417
0
LINE
8
BLACK
6
CONTINUOUS
10
5.8220301968503936
20
-4.368775708661417
11
5.8225628740157482
21
-4.3693083858267716
0
LINE
8
BLACK
6
CONTINUOUS
10
5.8225628740157482
20
-4.3693083858267716
11
5.8226377952755906
21
-4.3696850393700783
0
LINE
8
BLACK
6
CONTINUOUS
10
5.8226377952755906
20
-4.3696850393700783
11
5.8226377952755906
21
-4.4316929133858265
0
LINE
8
BLACK
6
CONTINUOUS
10
5.8226377952755906
20
-4.4316929133858265
11
5.8984251968503933
21
-4.4316929133858265
0
LINE
8
BLACK
6
CONTINUOUS
10
5.8984251968503933
20
-4.4316929133858265
11
5.898801850393701
21
-4.4317678346456688
0
LINE
8
BLACK
6
CONTINUOUS
10
5.898801850393701
20
-4.4317678346456688
11
5.8993345275590547
21
-4.4323005118110235
0
LINE
8
BLACK
6
CONTINUOUS
10
5.8993345275590547
20
-4.4323005118110235
11
5.8994094488188971
21
-4.4326771653543302
0
LINE
8
BLACK
6
CONTINUOUS
10
5.8994094488188971
20
-4.4326771653543302
11
5.8994094488188971
21
-4.4749999999999996
0
LINE
8
BLACK
6
CONTINUOUS
10
5.8994094488188971
20
-4.4749999999999996
11
6.3053149606299215
21
-4.4749999999999996
0
LINE
8
BLACK
6
CONTINUOUS
10
6.3053149606299215
20
-4.4749999999999996
11
6.3053149606299215
21
-4.4326771653543302
0
LINE
8
BLACK
6
CONTINUOUS
10
6.3053149606299215
20
-4.4326771653543302
11
6.3053898818897638
21
-4.4323005118110235
0
LINE
8
BLACK
6
CONTINUOUS
10
6.3053898818897638
20
-4.4323005118110235
11
6.3059225590551176
21
-4.4317678346456688
0
LINE
8
BLACK
6
CONTINUOUS
10
6.3059225590551176
20
-4.4317678346456688
11
6.3062992125984252
21
-4.4316929133858265
0
LINE
8
BLACK
6
CONTINUOUS
10
6.3062992125984252
20
-4.4316929133858265
11
6.382086614173228
21
-4.4316929133858265
0
LINE
8
BLACK
6
CONTINUOUS
10
6.382086614173228
20
-4.4316929133858265
11
6.382086614173228
21
-4.3696850393700783
0
LINE
8
BLACK
6
CONTINUOUS
10
6.382086614173228
20
-4.3696850393700783
11
6.3821615354330703
21
-4.3693083858267716
0
LINE
8
BLACK
6
CONTINUOUS
10
6.3821615354330703
20
-4.3693083858267716
11
6.382694212598425
21
-4.368775708661417
0
LINE
8
BLACK
6
CONTINUOUS
10
6.382694212598425
20
-4.368775708661417
11
6.3830708661417326
21
-4.3687007874015746
0
LINE
8
BLACK
6
CONTINUOUS
10
6.3830708661417326
20
-4.3687007874015746
11
6.3860236220472437
21
-4.3687007874015746
0
LINE
8
BLACK
6
CONTINUOUS
10
6.3860236220472437
20
-4.3687007874015746
11
6.3860236220472437
21
-4.2249999999999996
0
LINE
8
BLACK
6
CONTINUOUS
10
6.3860236220472437
20
-4.2249999999999996
11
6.308858267716535
21
-4.2249999999999996
0
LINE
8
BLACK
6
CONTINUOUS
10
6.308858267716535
20
-4.2249999999999996
11
6.308858267716535
21
-4.2338582677165357
0
LINE
8
BLACK
6
CONTINUOUS
10
6.308858267716535
20
-4.2338582677165357
11
6.3087833464566927
21
-4.2342349212598425
0
LINE
8
BLACK
6
CONTINUOUS
10
6.3087833464566927
20
-4.2342349212598425
11
6.308250669291338
21
-4.2347675984251971
0
LINE
8
BLACK
6
CONTINUOUS
10
6.308250669291338
20
-4.2347675984251971
11
6.3078740157480313
21
-4.2348425196850394
0
LINE
8
BLACK
6
CONTINUOUS
10
6.3078740157480313
20
-4.2348425196850394
11
5.8968503937007872
21
-4.2348425196850394
0
LINE
8
BLACK
6
CONTINUOUS
10
5.8968503937007872
20
-4.2348425196850394
11
5.8964737401574805
21
-4.2347675984251971
0
LINE
8
BLACK
6
CONTINUOUS
10
5.8964737401574805
20
-4.2347675984251971
11
5.8959410629921258
21
-4.2342349212598425
0
LINE
8
BLACK
6
CONTINUOUS
10
5.8959410629921258
20
-4.2342349212598425
11
5.8958661417322835
21
-4.2338582677165357
0
LINE
8
BLACK
6
CONTINUOUS
10
5.8958661417322835
20
-4.2338582677165357
11
5.8958661417322835
21
-4.2249999999999996
0
LINE
8
BLACK
6
CONTINUOUS
10
5.8958661417322835
20
-4.2249999999999996
11
5.8187007874015748
21
-4.2249999999999996
0
CIRCLE
8
BLACK
10
4.4424665354330708
20
-4.6279311023622043
40
0.0068897637795276
0
CIRCLE
8
BLACK
10
4.5424665354330704
20
-4.6279311023622043
40
0.0068897637795276
0
CIRCLE
8
BLACK
10
4.6424664960629922
20
-4.6279311023622043
40
0.0068897637795276
0
CIRCLE
8
BLACK
10
4.7424665354330706
20
-4.6279311023622043
40
0.0068897637795276
0
CIRCLE
8
BLACK
10
4.8424665354330712
20
-4.6279311023622043
40
0.0068897637795276
0
CIRCLE
8
BLACK
10
4.9424665354330708
20
-4.6279311023622043
40
0.0068897637795276
0
CIRCLE
8
BLACK
10
5.0424665354330704
20
-4.6279311023622043
40
0.0068897637795276
0
CIRCLE
8
BLACK
10
5.1424665748031497
20
-4.6279311023622043
40
0.0068897637795276
0
CIRCLE
8
BLACK
10
5.8424665354330712
20
-4.6279311023622043
40
0.0068897637795276
0
CIRCLE
8
BLACK
10
5.942466496062992
20
-4.6279311023622043
40
0.0068897637795276
0
CIRCLE
8
BLACK
10
6.0424665748031492
20
-4.6279311023622043
40
0.0068897637795276
0
CIRCLE
8
BLACK
10
6.142466535433071
20
-4.6279311023622043
40
0.0068897637795276
0
CIRCLE
8
BLACK
10
6.2424665354330706
20
-4.6279311023622043
40
0.0068897637795276
0
CIRCLE
8
BLACK
10
6.3424665354330712
20
-4.6279311023622043
40
0.0068897637795276
0
CIRCLE
8
BLACK
10
6.442466496062992
20
-4.6279311023622043
40
0.0068897637795276
0
CIRCLE
8
BLACK
10
6.5424665354330704
20
-4.6279311023622043
40
0.0068897637795276
0
CIRCLE
8
BLACK
10
6.642466535433071
20
-4.6279311023622043
40
0.0068897637795276
0
CIRCLE
8
BLACK
10
6.7424665354330706
20
-4.6279311023622043
40
0.0068897637795276
0
CIRCLE
8
BLACK
10
5.5800000000000001
20
-4.6626377952755904
40
0.0068897637795276
0
CIRCLE
8
BLACK
10
5.4799999999999995
20
-4.6626377952755904
40
0.0068897637795276
0
CIRCLE
8
BLACK
10
5.3800000393700786
20
-4.6626377952755904
40
0.0068897637795276
0
CIRCLE
8
BLACK
10
4.4424665354330708
20
-4.6279311023622043
40
0.0068897637795276
0
CIRCLE
8
BLACK
10
4.5424665354330704
20
-4.6279311023622043
40
0.0068897637795276
0
CIRCLE
8
BLACK
10
4.6424664960629922
20
-4.6279311023622043
40
0.0068897637795276
0
CIRCLE
8
BLACK
10
4.7424665354330706
20
-4.6279311023622043
40
0.0068897637795276
0
CIRCLE
8
BLACK
10
4.8424665354330712
20
-4.6279311023622043
40
0.0068897637795276
0
CIRCLE
8
BLACK
10
4.9424665354330708
20
-4.6279311023622043
40
0.0068897637795276
0
CIRCLE
8
BLACK
10
5.0424665354330704
20
-4.6279311023622043
40
0.0068897637795276
0
CIRCLE
8
BLACK
10
5.1424665748031497
20
-4.6279311023622043
40
0.0068897637795276
0
CIRCLE
8
BLACK
10
5.8424665354330712
20
-4.6279311023622043
40
0.0068897637795276
0
CIRCLE
8
BLACK
10
5.942466496062992
20
-4.6279311023622043
40
0.0068897637795276
0
CIRCLE
8
BLACK
10
6.0424665748031492
20
-4.6279311023622043
40
0.0068897637795276
0
CIRCLE
8
BLACK
10
6.142466535433071
20
-4.6279311023622043
40
0.0068897637795276
0
CIRCLE
8
BLACK
10
6.2424665354330706
20
-4.6279311023622043
40
0.0068897637795276
0
CIRCLE
8
BLACK
10
6.3424665354330712
20
-4.6279311023622043
40
0.0068897637795276
0
CIRCLE
8
BLACK
10
6.442466496062992
20
-4.6279311023622043
40
0.0068897637795276
0
CIRCLE
8
BLACK
10
6.5424665354330704
20
-4.6279311023622043
40
0.0068897637795276
0
CIRCLE
8
BLACK
10
6.642466535433071
20
-4.6279311023622043
40
0.0068897637795276
0
CIRCLE
8
BLACK
10
6.7424665354330706
20
-4.6279311023622043
40
0.0068897637795276
0
CIRCLE
8
BLACK
10
5.5800000000000001
20
-4.6626377952755904
40
0.0068897637795276
0
CIRCLE
8
BLACK
10
5.4799999999999995
20
-4.6626377952755904
40
0.0068897637795276
0
CIRCLE
8
BLACK
10
5.3800000393700786
20
-4.6626377952755904
40
0.0068897637795276
  0
ENDSEC
  0
EOF
