  0
SECTION
  2
HEADER
  9
$ANGBASE
  50
0.0
  9
$ANGDIR
  70
1
  9
$MEASUREMENT
  70
0
  0
ENDSEC
  0
SECTION
  2
TABLES
  0
TABLE
  2
LTYPE
  70
4
  0
LTYPE
  5
40F
  2
CONTINUOUS
  70
0
  3
Solid line
  72
65
  73
0
  40
0.0
  0
LTYPE
  5
410
  2
DASHDOT
 70
0
  3
Dash Dot ____ _ ____ _
 72
65
 73
4
 40
2.0
 49
1.25
 49
-0.25
 49
0.25
 49
-0.25
  0
LTYPE
  5
411
  2
DASHED
 70
0
  3
Dashed __ __ __ __ __
 72
65
 73
2
 40
0.75
 49
0.5
 49
-0.25
  0
LTYPE
  5
43B
  2
DOTTED
 70
0
  3
Dotted .  .  .  .
 72
65
 73
2
 40
0.2
 49
0.0
 49
-0.2
  0
ENDTAB
  0
TABLE
  2
STYLE
  70
4
  0
STYLE
  2
KICAD
  70
0
  40
0
  41
1
  42
1
  50
0
  71
0
  3
isocp.shx
  0
STYLE
  2
KICADB
  70
0
  40
0
  41
1
  42
1
  50
0
  71
0
  3
isocp.shx
  0
STYLE
  2
KICADI
  70
0
  40
0
  41
1
  42
1
  50
15
  71
0
  3
isocp.shx
  0
STYLE
  2
KICADBI
  70
0
  40
0
  41
1
  42
1
  50
15
  71
0
  3
isocp.shx
  0
ENDTAB
  0
TABLE
  2
LAYER
  70
1
  0
LAYER
  2
BLACK
  70
0
  62
7
  6
CONTINUOUS
  0
ENDTAB
  0
ENDSEC
  0
SECTION
  2
ENTITIES
0
LINE
8
BLACK
6
CONTINUOUS
10
5.6134645669291334
20
-4.6961023622047247
11
5.5465354330708658
21
-4.6961023622047247
0
LINE
8
BLACK
6
CONTINUOUS
10
5.5465354330708658
20
-4.6961023622047247
11
5.5465354330708658
21
-4.6291732283464562
0
LINE
8
BLACK
6
CONTINUOUS
10
5.5465354330708658
20
-4.6291732283464562
11
5.6134645669291334
21
-4.6291732283464562
0
LINE
8
BLACK
6
CONTINUOUS
10
5.6134645669291334
20
-4.6291732283464562
11
5.6134645669291334
21
-4.6961023622047247
0
LINE
8
BLACK
6
CONTINUOUS
10
5.3897142913385823
20
-4.6306142125984247
11
5.3957751181102358
21
-4.6331246850393697
0
LINE
8
BLACK
6
CONTINUOUS
10
5.3957751181102358
20
-4.6331246850393697
11
5.4012297244094487
21
-4.6367693307086615
0
LINE
8
BLACK
6
CONTINUOUS
10
5.4012297244094487
20
-4.6367693307086615
11
5.4058685039370076
21
-4.6414081102362204
0
LINE
8
BLACK
6
CONTINUOUS
10
5.4058685039370076
20
-4.6414081102362204
11
5.4095131496062994
21
-4.6468627165354333
0
LINE
8
BLACK
6
CONTINUOUS
10
5.4095131496062994
20
-4.6468627165354333
11
5.4120236220472444
21
-4.6529235433070868
0
LINE
8
BLACK
6
CONTINUOUS
10
5.4120236220472444
20
-4.6529235433070868
11
5.4133034645669289
21
-4.659357677165354
0
LINE
8
BLACK
6
CONTINUOUS
10
5.4133034645669289
20
-4.659357677165354
11
5.4133034645669289
21
-4.6659179133858268
0
LINE
8
BLACK
6
CONTINUOUS
10
5.4133034645669289
20
-4.6659179133858268
11
5.4120236220472444
21
-4.672352047244094
0
LINE
8
BLACK
6
CONTINUOUS
10
5.4120236220472444
20
-4.672352047244094
11
5.4095131496062994
21
-4.6784128740157476
0
LINE
8
BLACK
6
CONTINUOUS
10
5.4095131496062994
20
-4.6784128740157476
11
5.4058685039370076
21
-4.6838674803149605
0
LINE
8
BLACK
6
CONTINUOUS
10
5.4058685039370076
20
-4.6838674803149605
11
5.4012297244094487
21
-4.6885062598425193
0
LINE
8
BLACK
6
CONTINUOUS
10
5.4012297244094487
20
-4.6885062598425193
11
5.3957751181102358
21
-4.6921509055118111
0
LINE
8
BLACK
6
CONTINUOUS
10
5.3957751181102358
20
-4.6921509055118111
11
5.3897142913385823
21
-4.6946613779527562
0
LINE
8
BLACK
6
CONTINUOUS
10
5.3897142913385823
20
-4.6946613779527562
11
5.3832801574803151
21
-4.6959412204724407
0
LINE
8
BLACK
6
CONTINUOUS
10
5.3832801574803151
20
-4.6959412204724407
11
5.3767199212598422
21
-4.6959412204724407
0
LINE
8
BLACK
6
CONTINUOUS
10
5.3767199212598422
20
-4.6959412204724407
11
5.370285787401575
21
-4.6946613779527562
0
LINE
8
BLACK
6
CONTINUOUS
10
5.370285787401575
20
-4.6946613779527562
11
5.3642249606299215
21
-4.6921509055118111
0
LINE
8
BLACK
6
CONTINUOUS
10
5.3642249606299215
20
-4.6921509055118111
11
5.3587703543307086
21
-4.6885062598425193
0
LINE
8
BLACK
6
CONTINUOUS
10
5.3587703543307086
20
-4.6885062598425193
11
5.3541315748031497
21
-4.6838674803149605
0
LINE
8
BLACK
6
CONTINUOUS
10
5.3541315748031497
20
-4.6838674803149605
11
5.3504869291338579
21
-4.6784128740157476
0
LINE
8
BLACK
6
CONTINUOUS
10
5.3504869291338579
20
-4.6784128740157476
11
5.3479764566929129
21
-4.672352047244094
0
LINE
8
BLACK
6
CONTINUOUS
10
5.3479764566929129
20
-4.672352047244094
11
5.3466966141732284
21
-4.6659179133858268
0
LINE
8
BLACK
6
CONTINUOUS
10
5.3466966141732284
20
-4.6659179133858268
11
5.3466966141732284
21
-4.659357677165354
0
LINE
8
BLACK
6
CONTINUOUS
10
5.3466966141732284
20
-4.659357677165354
11
5.3479764566929129
21
-4.6529235433070868
0
LINE
8
BLACK
6
CONTINUOUS
10
5.3479764566929129
20
-4.6529235433070868
11
5.3504869291338579
21
-4.6468627165354333
0
LINE
8
BLACK
6
CONTINUOUS
10
5.3504869291338579
20
-4.6468627165354333
11
5.3541315748031497
21
-4.6414081102362204
0
LINE
8
BLACK
6
CONTINUOUS
10
5.3541315748031497
20
-4.6414081102362204
11
5.3587703543307086
21
-4.6367693307086615
0
LINE
8
BLACK
6
CONTINUOUS
10
5.3587703543307086
20
-4.6367693307086615
11
5.3642249606299215
21
-4.6331246850393697
0
LINE
8
BLACK
6
CONTINUOUS
10
5.3642249606299215
20
-4.6331246850393697
11
5.370285787401575
21
-4.6306142125984247
0
LINE
8
BLACK
6
CONTINUOUS
10
5.370285787401575
20
-4.6306142125984247
11
5.3767199212598422
21
-4.6293343700787402
0
LINE
8
BLACK
6
CONTINUOUS
10
5.3767199212598422
20
-4.6293343700787402
11
5.3832801574803151
21
-4.6293343700787402
0
LINE
8
BLACK
6
CONTINUOUS
10
5.3832801574803151
20
-4.6293343700787402
11
5.3897142913385823
21
-4.6306142125984247
0
LINE
8
BLACK
6
CONTINUOUS
10
5.489714251968504
20
-4.6306142125984247
11
5.4957750787401576
21
-4.6331246850393697
0
LINE
8
BLACK
6
CONTINUOUS
10
5.4957750787401576
20
-4.6331246850393697
11
5.5012296850393696
21
-4.6367693307086615
0
LINE
8
BLACK
6
CONTINUOUS
10
5.5012296850393696
20
-4.6367693307086615
11
5.5058684645669294
21
-4.6414081102362204
0
LINE
8
BLACK
6
CONTINUOUS
10
5.5058684645669294
20
-4.6414081102362204
11
5.5095131102362203
21
-4.6468627165354333
0
LINE
8
BLACK
6
CONTINUOUS
10
5.5095131102362203
20
-4.6468627165354333
11
5.5120235826771653
21
-4.6529235433070868
0
LINE
8
BLACK
6
CONTINUOUS
10
5.5120235826771653
20
-4.6529235433070868
11
5.5133034251968507
21
-4.659357677165354
0
LINE
8
BLACK
6
CONTINUOUS
10
5.5133034251968507
20
-4.659357677165354
11
5.5133034251968507
21
-4.6659179133858268
0
LINE
8
BLACK
6
CONTINUOUS
10
5.5133034251968507
20
-4.6659179133858268
11
5.5120235826771653
21
-4.672352047244094
0
LINE
8
BLACK
6
CONTINUOUS
10
5.5120235826771653
20
-4.672352047244094
11
5.5095131102362203
21
-4.6784128740157476
0
LINE
8
BLACK
6
CONTINUOUS
10
5.5095131102362203
20
-4.6784128740157476
11
5.5058684645669294
21
-4.6838674803149605
0
LINE
8
BLACK
6
CONTINUOUS
10
5.5058684645669294
20
-4.6838674803149605
11
5.5012296850393696
21
-4.6885062598425193
0
LINE
8
BLACK
6
CONTINUOUS
10
5.5012296850393696
20
-4.6885062598425193
11
5.4957750787401576
21
-4.6921509055118111
0
LINE
8
BLACK
6
CONTINUOUS
10
5.4957750787401576
20
-4.6921509055118111
11
5.489714251968504
21
-4.6946613779527562
0
LINE
8
BLACK
6
CONTINUOUS
10
5.489714251968504
20
-4.6946613779527562
11
5.483280118110236
21
-4.6959412204724407
0
LINE
8
BLACK
6
CONTINUOUS
10
5.483280118110236
20
-4.6959412204724407
11
5.476719881889764
21
-4.6959412204724407
0
LINE
8
BLACK
6
CONTINUOUS
10
5.476719881889764
20
-4.6959412204724407
11
5.4702857480314959
21
-4.6946613779527562
0
LINE
8
BLACK
6
CONTINUOUS
10
5.4702857480314959
20
-4.6946613779527562
11
5.4642249212598424
21
-4.6921509055118111
0
LINE
8
BLACK
6
CONTINUOUS
10
5.4642249212598424
20
-4.6921509055118111
11
5.4587703149606295
21
-4.6885062598425193
0
LINE
8
BLACK
6
CONTINUOUS
10
5.4587703149606295
20
-4.6885062598425193
11
5.4541315354330706
21
-4.6838674803149605
0
LINE
8
BLACK
6
CONTINUOUS
10
5.4541315354330706
20
-4.6838674803149605
11
5.4504868897637797
21
-4.6784128740157476
0
LINE
8
BLACK
6
CONTINUOUS
10
5.4504868897637797
20
-4.6784128740157476
11
5.4479764173228347
21
-4.672352047244094
0
LINE
8
BLACK
6
CONTINUOUS
10
5.4479764173228347
20
-4.672352047244094
11
5.4466965748031493
21
-4.6659179133858268
0
LINE
8
BLACK
6
CONTINUOUS
10
5.4466965748031493
20
-4.6659179133858268
11
5.4466965748031493
21
-4.659357677165354
0
LINE
8
BLACK
6
CONTINUOUS
10
5.4466965748031493
20
-4.659357677165354
11
5.4479764173228347
21
-4.6529235433070868
0
LINE
8
BLACK
6
CONTINUOUS
10
5.4479764173228347
20
-4.6529235433070868
11
5.4504868897637797
21
-4.6468627165354333
0
LINE
8
BLACK
6
CONTINUOUS
10
5.4504868897637797
20
-4.6468627165354333
11
5.4541315354330706
21
-4.6414081102362204
0
LINE
8
BLACK
6
CONTINUOUS
10
5.4541315354330706
20
-4.6414081102362204
11
5.4587703149606295
21
-4.6367693307086615
0
LINE
8
BLACK
6
CONTINUOUS
10
5.4587703149606295
20
-4.6367693307086615
11
5.4642249212598424
21
-4.6331246850393697
0
LINE
8
BLACK
6
CONTINUOUS
10
5.4642249212598424
20
-4.6331246850393697
11
5.4702857480314959
21
-4.6306142125984247
0
LINE
8
BLACK
6
CONTINUOUS
10
5.4702857480314959
20
-4.6306142125984247
11
5.476719881889764
21
-4.6293343700787402
0
LINE
8
BLACK
6
CONTINUOUS
10
5.476719881889764
20
-4.6293343700787402
11
5.483280118110236
21
-4.6293343700787402
0
LINE
8
BLACK
6
CONTINUOUS
10
5.483280118110236
20
-4.6293343700787402
11
5.489714251968504
21
-4.6306142125984247
0
LINE
8
BLACK
6
CONTINUOUS
10
4.475931102362205
20
-4.6613956692913385
11
4.4090019685039366
21
-4.6613956692913385
0
LINE
8
BLACK
6
CONTINUOUS
10
4.4090019685039366
20
-4.6613956692913385
11
4.4090019685039366
21
-4.5944665354330709
0
LINE
8
BLACK
6
CONTINUOUS
10
4.4090019685039366
20
-4.5944665354330709
11
4.475931102362205
21
-4.5944665354330709
0
LINE
8
BLACK
6
CONTINUOUS
10
4.475931102362205
20
-4.5944665354330709
11
4.475931102362205
21
-4.6613956692913385
0
LINE
8
BLACK
6
CONTINUOUS
10
4.5521807874015749
20
-4.5959075196850394
11
4.5582416141732285
21
-4.5984179921259845
0
LINE
8
BLACK
6
CONTINUOUS
10
4.5582416141732285
20
-4.5984179921259845
11
4.5636962204724405
21
-4.6020626377952754
0
LINE
8
BLACK
6
CONTINUOUS
10
4.5636962204724405
20
-4.6020626377952754
11
4.5683350000000003
21
-4.6067014173228342
0
LINE
8
BLACK
6
CONTINUOUS
10
4.5683350000000003
20
-4.6067014173228342
11
4.5719796456692912
21
-4.6121560236220471
0
LINE
8
BLACK
6
CONTINUOUS
10
4.5719796456692912
20
-4.6121560236220471
11
4.5744901181102362
21
-4.6182168503937007
0
LINE
8
BLACK
6
CONTINUOUS
10
4.5744901181102362
20
-4.6182168503937007
11
4.5757699606299216
21
-4.6246509842519687
0
LINE
8
BLACK
6
CONTINUOUS
10
4.5757699606299216
20
-4.6246509842519687
11
4.5757699606299216
21
-4.6312112204724407
0
LINE
8
BLACK
6
CONTINUOUS
10
4.5757699606299216
20
-4.6312112204724407
11
4.5744901181102362
21
-4.6376453543307088
0
LINE
8
BLACK
6
CONTINUOUS
10
4.5744901181102362
20
-4.6376453543307088
11
4.5719796456692912
21
-4.6437061811023623
0
LINE
8
BLACK
6
CONTINUOUS
10
4.5719796456692912
20
-4.6437061811023623
11
4.5683350000000003
21
-4.6491607874015743
0
LINE
8
BLACK
6
CONTINUOUS
10
4.5683350000000003
20
-4.6491607874015743
11
4.5636962204724405
21
-4.6537995669291341
0
LINE
8
BLACK
6
CONTINUOUS
10
4.5636962204724405
20
-4.6537995669291341
11
4.5582416141732285
21
-4.657444212598425
0
LINE
8
BLACK
6
CONTINUOUS
10
4.5582416141732285
20
-4.657444212598425
11
4.5521807874015749
21
-4.65995468503937
0
LINE
8
BLACK
6
CONTINUOUS
10
4.5521807874015749
20
-4.65995468503937
11
4.5457466535433069
21
-4.6612345275590554
0
LINE
8
BLACK
6
CONTINUOUS
10
4.5457466535433069
20
-4.6612345275590554
11
4.5391864173228349
21
-4.6612345275590554
0
LINE
8
BLACK
6
CONTINUOUS
10
4.5391864173228349
20
-4.6612345275590554
11
4.5327522834645668
21
-4.65995468503937
0
LINE
8
BLACK
6
CONTINUOUS
10
4.5327522834645668
20
-4.65995468503937
11
4.5266914566929133
21
-4.657444212598425
0
LINE
8
BLACK
6
CONTINUOUS
10
4.5266914566929133
20
-4.657444212598425
11
4.5212368503937004
21
-4.6537995669291341
0
LINE
8
BLACK
6
CONTINUOUS
10
4.5212368503937004
20
-4.6537995669291341
11
4.5165980708661415
21
-4.6491607874015743
0
LINE
8
BLACK
6
CONTINUOUS
10
4.5165980708661415
20
-4.6491607874015743
11
4.5129534251968506
21
-4.6437061811023623
0
LINE
8
BLACK
6
CONTINUOUS
10
4.5129534251968506
20
-4.6437061811023623
11
4.5104429527559056
21
-4.6376453543307088
0
LINE
8
BLACK
6
CONTINUOUS
10
4.5104429527559056
20
-4.6376453543307088
11
4.5091631102362202
21
-4.6312112204724407
0
LINE
8
BLACK
6
CONTINUOUS
10
4.5091631102362202
20
-4.6312112204724407
11
4.5091631102362202
21
-4.6246509842519687
0
LINE
8
BLACK
6
CONTINUOUS
10
4.5091631102362202
20
-4.6246509842519687
11
4.5104429527559056
21
-4.6182168503937007
0
LINE
8
BLACK
6
CONTINUOUS
10
4.5104429527559056
20
-4.6182168503937007
11
4.5129534251968506
21
-4.6121560236220471
0
LINE
8
BLACK
6
CONTINUOUS
10
4.5129534251968506
20
-4.6121560236220471
11
4.5165980708661415
21
-4.6067014173228342
0
LINE
8
BLACK
6
CONTINUOUS
10
4.5165980708661415
20
-4.6067014173228342
11
4.5212368503937004
21
-4.6020626377952754
0
LINE
8
BLACK
6
CONTINUOUS
10
4.5212368503937004
20
-4.6020626377952754
11
4.5266914566929133
21
-4.5984179921259845
0
LINE
8
BLACK
6
CONTINUOUS
10
4.5266914566929133
20
-4.5984179921259845
11
4.5327522834645668
21
-4.5959075196850394
0
LINE
8
BLACK
6
CONTINUOUS
10
4.5327522834645668
20
-4.5959075196850394
11
4.5391864173228349
21
-4.594627677165354
0
LINE
8
BLACK
6
CONTINUOUS
10
4.5391864173228349
20
-4.594627677165354
11
4.5457466535433069
21
-4.594627677165354
0
LINE
8
BLACK
6
CONTINUOUS
10
4.5457466535433069
20
-4.594627677165354
11
4.5521807874015749
21
-4.5959075196850394
0
LINE
8
BLACK
6
CONTINUOUS
10
4.6521807480314958
20
-4.5959075196850394
11
4.6582415748031494
21
-4.5984179921259845
0
LINE
8
BLACK
6
CONTINUOUS
10
4.6582415748031494
20
-4.5984179921259845
11
4.6636961811023623
21
-4.6020626377952754
0
LINE
8
BLACK
6
CONTINUOUS
10
4.6636961811023623
20
-4.6020626377952754
11
4.6683349606299211
21
-4.6067014173228342
0
LINE
8
BLACK
6
CONTINUOUS
10
4.6683349606299211
20
-4.6067014173228342
11
4.6719796062992121
21
-4.6121560236220471
0
LINE
8
BLACK
6
CONTINUOUS
10
4.6719796062992121
20
-4.6121560236220471
11
4.6744900787401571
21
-4.6182168503937007
0
LINE
8
BLACK
6
CONTINUOUS
10
4.6744900787401571
20
-4.6182168503937007
11
4.6757699212598425
21
-4.6246509842519687
0
LINE
8
BLACK
6
CONTINUOUS
10
4.6757699212598425
20
-4.6246509842519687
11
4.6757699212598425
21
-4.6312112204724407
0
LINE
8
BLACK
6
CONTINUOUS
10
4.6757699212598425
20
-4.6312112204724407
11
4.6744900787401571
21
-4.6376453543307088
0
LINE
8
BLACK
6
CONTINUOUS
10
4.6744900787401571
20
-4.6376453543307088
11
4.6719796062992121
21
-4.6437061811023623
0
LINE
8
BLACK
6
CONTINUOUS
10
4.6719796062992121
20
-4.6437061811023623
11
4.6683349606299211
21
-4.6491607874015743
0
LINE
8
BLACK
6
CONTINUOUS
10
4.6683349606299211
20
-4.6491607874015743
11
4.6636961811023623
21
-4.6537995669291341
0
LINE
8
BLACK
6
CONTINUOUS
10
4.6636961811023623
20
-4.6537995669291341
11
4.6582415748031494
21
-4.657444212598425
0
LINE
8
BLACK
6
CONTINUOUS
10
4.6582415748031494
20
-4.657444212598425
11
4.6521807480314958
21
-4.65995468503937
0
LINE
8
BLACK
6
CONTINUOUS
10
4.6521807480314958
20
-4.65995468503937
11
4.6457466141732287
21
-4.6612345275590554
0
LINE
8
BLACK
6
CONTINUOUS
10
4.6457466141732287
20
-4.6612345275590554
11
4.6391863779527558
21
-4.6612345275590554
0
LINE
8
BLACK
6
CONTINUOUS
10
4.6391863779527558
20
-4.6612345275590554
11
4.6327522440944877
21
-4.65995468503937
0
LINE
8
BLACK
6
CONTINUOUS
10
4.6327522440944877
20
-4.65995468503937
11
4.6266914173228342
21
-4.657444212598425
0
LINE
8
BLACK
6
CONTINUOUS
10
4.6266914173228342
20
-4.657444212598425
11
4.6212368110236222
21
-4.6537995669291341
0
LINE
8
BLACK
6
CONTINUOUS
10
4.6212368110236222
20
-4.6537995669291341
11
4.6165980314960633
21
-4.6491607874015743
0
LINE
8
BLACK
6
CONTINUOUS
10
4.6165980314960633
20
-4.6491607874015743
11
4.6129533858267715
21
-4.6437061811023623
0
LINE
8
BLACK
6
CONTINUOUS
10
4.6129533858267715
20
-4.6437061811023623
11
4.6104429133858265
21
-4.6376453543307088
0
LINE
8
BLACK
6
CONTINUOUS
10
4.6104429133858265
20
-4.6376453543307088
11
4.609163070866142
21
-4.6312112204724407
0
LINE
8
BLACK
6
CONTINUOUS
10
4.609163070866142
20
-4.6312112204724407
11
4.609163070866142
21
-4.6246509842519687
0
LINE
8
BLACK
6
CONTINUOUS
10
4.609163070866142
20
-4.6246509842519687
11
4.6104429133858265
21
-4.6182168503937007
0
LINE
8
BLACK
6
CONTINUOUS
10
4.6104429133858265
20
-4.6182168503937007
11
4.6129533858267715
21
-4.6121560236220471
0
LINE
8
BLACK
6
CONTINUOUS
10
4.6129533858267715
20
-4.6121560236220471
11
4.6165980314960633
21
-4.6067014173228342
0
LINE
8
BLACK
6
CONTINUOUS
10
4.6165980314960633
20
-4.6067014173228342
11
4.6212368110236222
21
-4.6020626377952754
0
LINE
8
BLACK
6
CONTINUOUS
10
4.6212368110236222
20
-4.6020626377952754
11
4.6266914173228342
21
-4.5984179921259845
0
LINE
8
BLACK
6
CONTINUOUS
10
4.6266914173228342
20
-4.5984179921259845
11
4.6327522440944877
21
-4.5959075196850394
0
LINE
8
BLACK
6
CONTINUOUS
10
4.6327522440944877
20
-4.5959075196850394
11
4.6391863779527558
21
-4.594627677165354
0
LINE
8
BLACK
6
CONTINUOUS
10
4.6391863779527558
20
-4.594627677165354
11
4.6457466141732287
21
-4.594627677165354
0
LINE
8
BLACK
6
CONTINUOUS
10
4.6457466141732287
20
-4.594627677165354
11
4.6521807480314958
21
-4.5959075196850394
0
LINE
8
BLACK
6
CONTINUOUS
10
4.7521807874015751
20
-4.5959075196850394
11
4.7582416141732287
21
-4.5984179921259845
0
LINE
8
BLACK
6
CONTINUOUS
10
4.7582416141732287
20
-4.5984179921259845
11
4.7636962204724407
21
-4.6020626377952754
0
LINE
8
BLACK
6
CONTINUOUS
10
4.7636962204724407
20
-4.6020626377952754
11
4.7683349999999995
21
-4.6067014173228342
0
LINE
8
BLACK
6
CONTINUOUS
10
4.7683349999999995
20
-4.6067014173228342
11
4.7719796456692913
21
-4.6121560236220471
0
LINE
8
BLACK
6
CONTINUOUS
10
4.7719796456692913
20
-4.6121560236220471
11
4.7744901181102364
21
-4.6182168503937007
0
LINE
8
BLACK
6
CONTINUOUS
10
4.7744901181102364
20
-4.6182168503937007
11
4.7757699606299209
21
-4.6246509842519687
0
LINE
8
BLACK
6
CONTINUOUS
10
4.7757699606299209
20
-4.6246509842519687
11
4.7757699606299209
21
-4.6312112204724407
0
LINE
8
BLACK
6
CONTINUOUS
10
4.7757699606299209
20
-4.6312112204724407
11
4.7744901181102364
21
-4.6376453543307088
0
LINE
8
BLACK
6
CONTINUOUS
10
4.7744901181102364
20
-4.6376453543307088
11
4.7719796456692913
21
-4.6437061811023623
0
LINE
8
BLACK
6
CONTINUOUS
10
4.7719796456692913
20
-4.6437061811023623
11
4.7683349999999995
21
-4.6491607874015743
0
LINE
8
BLACK
6
CONTINUOUS
10
4.7683349999999995
20
-4.6491607874015743
11
4.7636962204724407
21
-4.6537995669291341
0
LINE
8
BLACK
6
CONTINUOUS
10
4.7636962204724407
20
-4.6537995669291341
11
4.7582416141732287
21
-4.657444212598425
0
LINE
8
BLACK
6
CONTINUOUS
10
4.7582416141732287
20
-4.657444212598425
11
4.7521807874015751
21
-4.65995468503937
0
LINE
8
BLACK
6
CONTINUOUS
10
4.7521807874015751
20
-4.65995468503937
11
4.745746653543307
21
-4.6612345275590554
0
LINE
8
BLACK
6
CONTINUOUS
10
4.745746653543307
20
-4.6612345275590554
11
4.7391864173228342
21
-4.6612345275590554
0
LINE
8
BLACK
6
CONTINUOUS
10
4.7391864173228342
20
-4.6612345275590554
11
4.732752283464567
21
-4.65995468503937
0
LINE
8
BLACK
6
CONTINUOUS
10
4.732752283464567
20
-4.65995468503937
11
4.7266914566929135
21
-4.657444212598425
0
LINE
8
BLACK
6
CONTINUOUS
10
4.7266914566929135
20
-4.657444212598425
11
4.7212368503937006
21
-4.6537995669291341
0
LINE
8
BLACK
6
CONTINUOUS
10
4.7212368503937006
20
-4.6537995669291341
11
4.7165980708661417
21
-4.6491607874015743
0
LINE
8
BLACK
6
CONTINUOUS
10
4.7165980708661417
20
-4.6491607874015743
11
4.7129534251968499
21
-4.6437061811023623
0
LINE
8
BLACK
6
CONTINUOUS
10
4.7129534251968499
20
-4.6437061811023623
11
4.7104429527559057
21
-4.6376453543307088
0
LINE
8
BLACK
6
CONTINUOUS
10
4.7104429527559057
20
-4.6376453543307088
11
4.7091631102362204
21
-4.6312112204724407
0
LINE
8
BLACK
6
CONTINUOUS
10
4.7091631102362204
20
-4.6312112204724407
11
4.7091631102362204
21
-4.6246509842519687
0
LINE
8
BLACK
6
CONTINUOUS
10
4.7091631102362204
20
-4.6246509842519687
11
4.7104429527559057
21
-4.6182168503937007
0
LINE
8
BLACK
6
CONTINUOUS
10
4.7104429527559057
20
-4.6182168503937007
11
4.7129534251968499
21
-4.6121560236220471
0
LINE
8
BLACK
6
CONTINUOUS
10
4.7129534251968499
20
-4.6121560236220471
11
4.7165980708661417
21
-4.6067014173228342
0
LINE
8
BLACK
6
CONTINUOUS
10
4.7165980708661417
20
-4.6067014173228342
11
4.7212368503937006
21
-4.6020626377952754
0
LINE
8
BLACK
6
CONTINUOUS
10
4.7212368503937006
20
-4.6020626377952754
11
4.7266914566929135
21
-4.5984179921259845
0
LINE
8
BLACK
6
CONTINUOUS
10
4.7266914566929135
20
-4.5984179921259845
11
4.732752283464567
21
-4.5959075196850394
0
LINE
8
BLACK
6
CONTINUOUS
10
4.732752283464567
20
-4.5959075196850394
11
4.7391864173228342
21
-4.594627677165354
0
LINE
8
BLACK
6
CONTINUOUS
10
4.7391864173228342
20
-4.594627677165354
11
4.745746653543307
21
-4.594627677165354
0
LINE
8
BLACK
6
CONTINUOUS
10
4.745746653543307
20
-4.594627677165354
11
4.7521807874015751
21
-4.5959075196850394
0
LINE
8
BLACK
6
CONTINUOUS
10
4.8521807874015748
20
-4.5959075196850394
11
4.8582416141732283
21
-4.5984179921259845
0
LINE
8
BLACK
6
CONTINUOUS
10
4.8582416141732283
20
-4.5984179921259845
11
4.8636962204724412
21
-4.6020626377952754
0
LINE
8
BLACK
6
CONTINUOUS
10
4.8636962204724412
20
-4.6020626377952754
11
4.8683350000000001
21
-4.6067014173228342
0
LINE
8
BLACK
6
CONTINUOUS
10
4.8683350000000001
20
-4.6067014173228342
11
4.871979645669291
21
-4.6121560236220471
0
LINE
8
BLACK
6
CONTINUOUS
10
4.871979645669291
20
-4.6121560236220471
11
4.874490118110236
21
-4.6182168503937007
0
LINE
8
BLACK
6
CONTINUOUS
10
4.874490118110236
20
-4.6182168503937007
11
4.8757699606299214
21
-4.6246509842519687
0
LINE
8
BLACK
6
CONTINUOUS
10
4.8757699606299214
20
-4.6246509842519687
11
4.8757699606299214
21
-4.6312112204724407
0
LINE
8
BLACK
6
CONTINUOUS
10
4.8757699606299214
20
-4.6312112204724407
11
4.874490118110236
21
-4.6376453543307088
0
LINE
8
BLACK
6
CONTINUOUS
10
4.874490118110236
20
-4.6376453543307088
11
4.871979645669291
21
-4.6437061811023623
0
LINE
8
BLACK
6
CONTINUOUS
10
4.871979645669291
20
-4.6437061811023623
11
4.8683350000000001
21
-4.6491607874015743
0
LINE
8
BLACK
6
CONTINUOUS
10
4.8683350000000001
20
-4.6491607874015743
11
4.8636962204724412
21
-4.6537995669291341
0
LINE
8
BLACK
6
CONTINUOUS
10
4.8636962204724412
20
-4.6537995669291341
11
4.8582416141732283
21
-4.657444212598425
0
LINE
8
BLACK
6
CONTINUOUS
10
4.8582416141732283
20
-4.657444212598425
11
4.8521807874015748
21
-4.65995468503937
0
LINE
8
BLACK
6
CONTINUOUS
10
4.8521807874015748
20
-4.65995468503937
11
4.8457466535433067
21
-4.6612345275590554
0
LINE
8
BLACK
6
CONTINUOUS
10
4.8457466535433067
20
-4.6612345275590554
11
4.8391864173228347
21
-4.6612345275590554
0
LINE
8
BLACK
6
CONTINUOUS
10
4.8391864173228347
20
-4.6612345275590554
11
4.8327522834645666
21
-4.65995468503937
0
LINE
8
BLACK
6
CONTINUOUS
10
4.8327522834645666
20
-4.65995468503937
11
4.8266914566929131
21
-4.657444212598425
0
LINE
8
BLACK
6
CONTINUOUS
10
4.8266914566929131
20
-4.657444212598425
11
4.8212368503937011
21
-4.6537995669291341
0
LINE
8
BLACK
6
CONTINUOUS
10
4.8212368503937011
20
-4.6537995669291341
11
4.8165980708661413
21
-4.6491607874015743
0
LINE
8
BLACK
6
CONTINUOUS
10
4.8165980708661413
20
-4.6491607874015743
11
4.8129534251968504
21
-4.6437061811023623
0
LINE
8
BLACK
6
CONTINUOUS
10
4.8129534251968504
20
-4.6437061811023623
11
4.8104429527559054
21
-4.6376453543307088
0
LINE
8
BLACK
6
CONTINUOUS
10
4.8104429527559054
20
-4.6376453543307088
11
4.80916311023622
21
-4.6312112204724407
0
LINE
8
BLACK
6
CONTINUOUS
10
4.80916311023622
20
-4.6312112204724407
11
4.80916311023622
21
-4.6246509842519687
0
LINE
8
BLACK
6
CONTINUOUS
10
4.80916311023622
20
-4.6246509842519687
11
4.8104429527559054
21
-4.6182168503937007
0
LINE
8
BLACK
6
CONTINUOUS
10
4.8104429527559054
20
-4.6182168503937007
11
4.8129534251968504
21
-4.6121560236220471
0
LINE
8
BLACK
6
CONTINUOUS
10
4.8129534251968504
20
-4.6121560236220471
11
4.8165980708661413
21
-4.6067014173228342
0
LINE
8
BLACK
6
CONTINUOUS
10
4.8165980708661413
20
-4.6067014173228342
11
4.8212368503937011
21
-4.6020626377952754
0
LINE
8
BLACK
6
CONTINUOUS
10
4.8212368503937011
20
-4.6020626377952754
11
4.8266914566929131
21
-4.5984179921259845
0
LINE
8
BLACK
6
CONTINUOUS
10
4.8266914566929131
20
-4.5984179921259845
11
4.8327522834645666
21
-4.5959075196850394
0
LINE
8
BLACK
6
CONTINUOUS
10
4.8327522834645666
20
-4.5959075196850394
11
4.8391864173228347
21
-4.594627677165354
0
LINE
8
BLACK
6
CONTINUOUS
10
4.8391864173228347
20
-4.594627677165354
11
4.8457466535433067
21
-4.594627677165354
0
LINE
8
BLACK
6
CONTINUOUS
10
4.8457466535433067
20
-4.594627677165354
11
4.8521807874015748
21
-4.5959075196850394
0
LINE
8
BLACK
6
CONTINUOUS
10
4.9521807874015744
20
-4.5959075196850394
11
4.958241614173228
21
-4.5984179921259845
0
LINE
8
BLACK
6
CONTINUOUS
10
4.958241614173228
20
-4.5984179921259845
11
4.9636962204724409
21
-4.6020626377952754
0
LINE
8
BLACK
6
CONTINUOUS
10
4.9636962204724409
20
-4.6020626377952754
11
4.9683349999999997
21
-4.6067014173228342
0
LINE
8
BLACK
6
CONTINUOUS
10
4.9683349999999997
20
-4.6067014173228342
11
4.9719796456692915
21
-4.6121560236220471
0
LINE
8
BLACK
6
CONTINUOUS
10
4.9719796456692915
20
-4.6121560236220471
11
4.9744901181102357
21
-4.6182168503937007
0
LINE
8
BLACK
6
CONTINUOUS
10
4.9744901181102357
20
-4.6182168503937007
11
4.9757699606299211
21
-4.6246509842519687
0
LINE
8
BLACK
6
CONTINUOUS
10
4.9757699606299211
20
-4.6246509842519687
11
4.9757699606299211
21
-4.6312112204724407
0
LINE
8
BLACK
6
CONTINUOUS
10
4.9757699606299211
20
-4.6312112204724407
11
4.9744901181102357
21
-4.6376453543307088
0
LINE
8
BLACK
6
CONTINUOUS
10
4.9744901181102357
20
-4.6376453543307088
11
4.9719796456692915
21
-4.6437061811023623
0
LINE
8
BLACK
6
CONTINUOUS
10
4.9719796456692915
20
-4.6437061811023623
11
4.9683349999999997
21
-4.6491607874015743
0
LINE
8
BLACK
6
CONTINUOUS
10
4.9683349999999997
20
-4.6491607874015743
11
4.9636962204724409
21
-4.6537995669291341
0
LINE
8
BLACK
6
CONTINUOUS
10
4.9636962204724409
20
-4.6537995669291341
11
4.958241614173228
21
-4.657444212598425
0
LINE
8
BLACK
6
CONTINUOUS
10
4.958241614173228
20
-4.657444212598425
11
4.9521807874015744
21
-4.65995468503937
0
LINE
8
BLACK
6
CONTINUOUS
10
4.9521807874015744
20
-4.65995468503937
11
4.9457466535433072
21
-4.6612345275590554
0
LINE
8
BLACK
6
CONTINUOUS
10
4.9457466535433072
20
-4.6612345275590554
11
4.9391864173228344
21
-4.6612345275590554
0
LINE
8
BLACK
6
CONTINUOUS
10
4.9391864173228344
20
-4.6612345275590554
11
4.9327522834645672
21
-4.65995468503937
0
LINE
8
BLACK
6
CONTINUOUS
10
4.9327522834645672
20
-4.65995468503937
11
4.9266914566929136
21
-4.657444212598425
0
LINE
8
BLACK
6
CONTINUOUS
10
4.9266914566929136
20
-4.657444212598425
11
4.9212368503937007
21
-4.6537995669291341
0
LINE
8
BLACK
6
CONTINUOUS
10
4.9212368503937007
20
-4.6537995669291341
11
4.9165980708661419
21
-4.6491607874015743
0
LINE
8
BLACK
6
CONTINUOUS
10
4.9165980708661419
20
-4.6491607874015743
11
4.9129534251968501
21
-4.6437061811023623
0
LINE
8
BLACK
6
CONTINUOUS
10
4.9129534251968501
20
-4.6437061811023623
11
4.910442952755905
21
-4.6376453543307088
0
LINE
8
BLACK
6
CONTINUOUS
10
4.910442952755905
20
-4.6376453543307088
11
4.9091631102362205
21
-4.6312112204724407
0
LINE
8
BLACK
6
CONTINUOUS
10
4.9091631102362205
20
-4.6312112204724407
11
4.9091631102362205
21
-4.6246509842519687
0
LINE
8
BLACK
6
CONTINUOUS
10
4.9091631102362205
20
-4.6246509842519687
11
4.910442952755905
21
-4.6182168503937007
0
LINE
8
BLACK
6
CONTINUOUS
10
4.910442952755905
20
-4.6182168503937007
11
4.9129534251968501
21
-4.6121560236220471
0
LINE
8
BLACK
6
CONTINUOUS
10
4.9129534251968501
20
-4.6121560236220471
11
4.9165980708661419
21
-4.6067014173228342
0
LINE
8
BLACK
6
CONTINUOUS
10
4.9165980708661419
20
-4.6067014173228342
11
4.9212368503937007
21
-4.6020626377952754
0
LINE
8
BLACK
6
CONTINUOUS
10
4.9212368503937007
20
-4.6020626377952754
11
4.9266914566929136
21
-4.5984179921259845
0
LINE
8
BLACK
6
CONTINUOUS
10
4.9266914566929136
20
-4.5984179921259845
11
4.9327522834645672
21
-4.5959075196850394
0
LINE
8
BLACK
6
CONTINUOUS
10
4.9327522834645672
20
-4.5959075196850394
11
4.9391864173228344
21
-4.594627677165354
0
LINE
8
BLACK
6
CONTINUOUS
10
4.9391864173228344
20
-4.594627677165354
11
4.9457466535433072
21
-4.594627677165354
0
LINE
8
BLACK
6
CONTINUOUS
10
4.9457466535433072
20
-4.594627677165354
11
4.9521807874015744
21
-4.5959075196850394
0
LINE
8
BLACK
6
CONTINUOUS
10
5.0521807874015749
20
-4.5959075196850394
11
5.0582416141732285
21
-4.5984179921259845
0
LINE
8
BLACK
6
CONTINUOUS
10
5.0582416141732285
20
-4.5984179921259845
11
5.0636962204724405
21
-4.6020626377952754
0
LINE
8
BLACK
6
CONTINUOUS
10
5.0636962204724405
20
-4.6020626377952754
11
5.0683350000000003
21
-4.6067014173228342
0
LINE
8
BLACK
6
CONTINUOUS
10
5.0683350000000003
20
-4.6067014173228342
11
5.0719796456692912
21
-4.6121560236220471
0
LINE
8
BLACK
6
CONTINUOUS
10
5.0719796456692912
20
-4.6121560236220471
11
5.0744901181102362
21
-4.6182168503937007
0
LINE
8
BLACK
6
CONTINUOUS
10
5.0744901181102362
20
-4.6182168503937007
11
5.0757699606299216
21
-4.6246509842519687
0
LINE
8
BLACK
6
CONTINUOUS
10
5.0757699606299216
20
-4.6246509842519687
11
5.0757699606299216
21
-4.6312112204724407
0
LINE
8
BLACK
6
CONTINUOUS
10
5.0757699606299216
20
-4.6312112204724407
11
5.0744901181102362
21
-4.6376453543307088
0
LINE
8
BLACK
6
CONTINUOUS
10
5.0744901181102362
20
-4.6376453543307088
11
5.0719796456692912
21
-4.6437061811023623
0
LINE
8
BLACK
6
CONTINUOUS
10
5.0719796456692912
20
-4.6437061811023623
11
5.0683350000000003
21
-4.6491607874015743
0
LINE
8
BLACK
6
CONTINUOUS
10
5.0683350000000003
20
-4.6491607874015743
11
5.0636962204724405
21
-4.6537995669291341
0
LINE
8
BLACK
6
CONTINUOUS
10
5.0636962204724405
20
-4.6537995669291341
11
5.0582416141732285
21
-4.657444212598425
0
LINE
8
BLACK
6
CONTINUOUS
10
5.0582416141732285
20
-4.657444212598425
11
5.0521807874015749
21
-4.65995468503937
0
LINE
8
BLACK
6
CONTINUOUS
10
5.0521807874015749
20
-4.65995468503937
11
5.0457466535433069
21
-4.6612345275590554
0
LINE
8
BLACK
6
CONTINUOUS
10
5.0457466535433069
20
-4.6612345275590554
11
5.0391864173228349
21
-4.6612345275590554
0
LINE
8
BLACK
6
CONTINUOUS
10
5.0391864173228349
20
-4.6612345275590554
11
5.0327522834645668
21
-4.65995468503937
0
LINE
8
BLACK
6
CONTINUOUS
10
5.0327522834645668
20
-4.65995468503937
11
5.0266914566929133
21
-4.657444212598425
0
LINE
8
BLACK
6
CONTINUOUS
10
5.0266914566929133
20
-4.657444212598425
11
5.0212368503937004
21
-4.6537995669291341
0
LINE
8
BLACK
6
CONTINUOUS
10
5.0212368503937004
20
-4.6537995669291341
11
5.0165980708661415
21
-4.6491607874015743
0
LINE
8
BLACK
6
CONTINUOUS
10
5.0165980708661415
20
-4.6491607874015743
11
5.0129534251968506
21
-4.6437061811023623
0
LINE
8
BLACK
6
CONTINUOUS
10
5.0129534251968506
20
-4.6437061811023623
11
5.0104429527559056
21
-4.6376453543307088
0
LINE
8
BLACK
6
CONTINUOUS
10
5.0104429527559056
20
-4.6376453543307088
11
5.0091631102362202
21
-4.6312112204724407
0
LINE
8
BLACK
6
CONTINUOUS
10
5.0091631102362202
20
-4.6312112204724407
11
5.0091631102362202
21
-4.6246509842519687
0
LINE
8
BLACK
6
CONTINUOUS
10
5.0091631102362202
20
-4.6246509842519687
11
5.0104429527559056
21
-4.6182168503937007
0
LINE
8
BLACK
6
CONTINUOUS
10
5.0104429527559056
20
-4.6182168503937007
11
5.0129534251968506
21
-4.6121560236220471
0
LINE
8
BLACK
6
CONTINUOUS
10
5.0129534251968506
20
-4.6121560236220471
11
5.0165980708661415
21
-4.6067014173228342
0
LINE
8
BLACK
6
CONTINUOUS
10
5.0165980708661415
20
-4.6067014173228342
11
5.0212368503937004
21
-4.6020626377952754
0
LINE
8
BLACK
6
CONTINUOUS
10
5.0212368503937004
20
-4.6020626377952754
11
5.0266914566929133
21
-4.5984179921259845
0
LINE
8
BLACK
6
CONTINUOUS
10
5.0266914566929133
20
-4.5984179921259845
11
5.0327522834645668
21
-4.5959075196850394
0
LINE
8
BLACK
6
CONTINUOUS
10
5.0327522834645668
20
-4.5959075196850394
11
5.0391864173228349
21
-4.594627677165354
0
LINE
8
BLACK
6
CONTINUOUS
10
5.0391864173228349
20
-4.594627677165354
11
5.0457466535433069
21
-4.594627677165354
0
LINE
8
BLACK
6
CONTINUOUS
10
5.0457466535433069
20
-4.594627677165354
11
5.0521807874015749
21
-4.5959075196850394
0
LINE
8
BLACK
6
CONTINUOUS
10
5.1521808267716533
20
-4.5959075196850394
11
5.1582416535433069
21
-4.5984179921259845
0
LINE
8
BLACK
6
CONTINUOUS
10
5.1582416535433069
20
-4.5984179921259845
11
5.1636962598425198
21
-4.6020626377952754
0
LINE
8
BLACK
6
CONTINUOUS
10
5.1636962598425198
20
-4.6020626377952754
11
5.1683350393700787
21
-4.6067014173228342
0
LINE
8
BLACK
6
CONTINUOUS
10
5.1683350393700787
20
-4.6067014173228342
11
5.1719796850393696
21
-4.6121560236220471
0
LINE
8
BLACK
6
CONTINUOUS
10
5.1719796850393696
20
-4.6121560236220471
11
5.1744901574803146
21
-4.6182168503937007
0
LINE
8
BLACK
6
CONTINUOUS
10
5.1744901574803146
20
-4.6182168503937007
11
5.17577
21
-4.6246509842519687
0
LINE
8
BLACK
6
CONTINUOUS
10
5.17577
20
-4.6246509842519687
11
5.17577
21
-4.6312112204724407
0
LINE
8
BLACK
6
CONTINUOUS
10
5.17577
20
-4.6312112204724407
11
5.1744901574803146
21
-4.6376453543307088
0
LINE
8
BLACK
6
CONTINUOUS
10
5.1744901574803146
20
-4.6376453543307088
11
5.1719796850393696
21
-4.6437061811023623
0
LINE
8
BLACK
6
CONTINUOUS
10
5.1719796850393696
20
-4.6437061811023623
11
5.1683350393700787
21
-4.6491607874015743
0
LINE
8
BLACK
6
CONTINUOUS
10
5.1683350393700787
20
-4.6491607874015743
11
5.1636962598425198
21
-4.6537995669291341
0
LINE
8
BLACK
6
CONTINUOUS
10
5.1636962598425198
20
-4.6537995669291341
11
5.1582416535433069
21
-4.657444212598425
0
LINE
8
BLACK
6
CONTINUOUS
10
5.1582416535433069
20
-4.657444212598425
11
5.1521808267716533
21
-4.65995468503937
0
LINE
8
BLACK
6
CONTINUOUS
10
5.1521808267716533
20
-4.65995468503937
11
5.1457466929133853
21
-4.6612345275590554
0
LINE
8
BLACK
6
CONTINUOUS
10
5.1457466929133853
20
-4.6612345275590554
11
5.1391864566929133
21
-4.6612345275590554
0
LINE
8
BLACK
6
CONTINUOUS
10
5.1391864566929133
20
-4.6612345275590554
11
5.1327523228346452
21
-4.65995468503937
0
LINE
8
BLACK
6
CONTINUOUS
10
5.1327523228346452
20
-4.65995468503937
11
5.1266914960629917
21
-4.657444212598425
0
LINE
8
BLACK
6
CONTINUOUS
10
5.1266914960629917
20
-4.657444212598425
11
5.1212368897637797
21
-4.6537995669291341
0
LINE
8
BLACK
6
CONTINUOUS
10
5.1212368897637797
20
-4.6537995669291341
11
5.1165981102362208
21
-4.6491607874015743
0
LINE
8
BLACK
6
CONTINUOUS
10
5.1165981102362208
20
-4.6491607874015743
11
5.112953464566929
21
-4.6437061811023623
0
LINE
8
BLACK
6
CONTINUOUS
10
5.112953464566929
20
-4.6437061811023623
11
5.110442992125984
21
-4.6376453543307088
0
LINE
8
BLACK
6
CONTINUOUS
10
5.110442992125984
20
-4.6376453543307088
11
5.1091631496062995
21
-4.6312112204724407
0
LINE
8
BLACK
6
CONTINUOUS
10
5.1091631496062995
20
-4.6312112204724407
11
5.1091631496062995
21
-4.6246509842519687
0
LINE
8
BLACK
6
CONTINUOUS
10
5.1091631496062995
20
-4.6246509842519687
11
5.110442992125984
21
-4.6182168503937007
0
LINE
8
BLACK
6
CONTINUOUS
10
5.110442992125984
20
-4.6182168503937007
11
5.112953464566929
21
-4.6121560236220471
0
LINE
8
BLACK
6
CONTINUOUS
10
5.112953464566929
20
-4.6121560236220471
11
5.1165981102362208
21
-4.6067014173228342
0
LINE
8
BLACK
6
CONTINUOUS
10
5.1165981102362208
20
-4.6067014173228342
11
5.1212368897637797
21
-4.6020626377952754
0
LINE
8
BLACK
6
CONTINUOUS
10
5.1212368897637797
20
-4.6020626377952754
11
5.1266914960629917
21
-4.5984179921259845
0
LINE
8
BLACK
6
CONTINUOUS
10
5.1266914960629917
20
-4.5984179921259845
11
5.1327523228346452
21
-4.5959075196850394
0
LINE
8
BLACK
6
CONTINUOUS
10
5.1327523228346452
20
-4.5959075196850394
11
5.1391864566929133
21
-4.594627677165354
0
LINE
8
BLACK
6
CONTINUOUS
10
5.1391864566929133
20
-4.594627677165354
11
5.1457466929133853
21
-4.594627677165354
0
LINE
8
BLACK
6
CONTINUOUS
10
5.1457466929133853
20
-4.594627677165354
11
5.1521808267716533
21
-4.5959075196850394
0
LINE
8
BLACK
6
CONTINUOUS
10
5.8521807874015748
20
-4.5959075196850394
11
5.8582416141732283
21
-4.5984179921259845
0
LINE
8
BLACK
6
CONTINUOUS
10
5.8582416141732283
20
-4.5984179921259845
11
5.8636962204724412
21
-4.6020626377952754
0
LINE
8
BLACK
6
CONTINUOUS
10
5.8636962204724412
20
-4.6020626377952754
11
5.8683350000000001
21
-4.6067014173228342
0
LINE
8
BLACK
6
CONTINUOUS
10
5.8683350000000001
20
-4.6067014173228342
11
5.871979645669291
21
-4.6121560236220471
0
LINE
8
BLACK
6
CONTINUOUS
10
5.871979645669291
20
-4.6121560236220471
11
5.874490118110236
21
-4.6182168503937007
0
LINE
8
BLACK
6
CONTINUOUS
10
5.874490118110236
20
-4.6182168503937007
11
5.8757699606299214
21
-4.6246509842519687
0
LINE
8
BLACK
6
CONTINUOUS
10
5.8757699606299214
20
-4.6246509842519687
11
5.8757699606299214
21
-4.6312112204724407
0
LINE
8
BLACK
6
CONTINUOUS
10
5.8757699606299214
20
-4.6312112204724407
11
5.874490118110236
21
-4.6376453543307088
0
LINE
8
BLACK
6
CONTINUOUS
10
5.874490118110236
20
-4.6376453543307088
11
5.871979645669291
21
-4.6437061811023623
0
LINE
8
BLACK
6
CONTINUOUS
10
5.871979645669291
20
-4.6437061811023623
11
5.8683350000000001
21
-4.6491607874015743
0
LINE
8
BLACK
6
CONTINUOUS
10
5.8683350000000001
20
-4.6491607874015743
11
5.8636962204724412
21
-4.6537995669291341
0
LINE
8
BLACK
6
CONTINUOUS
10
5.8636962204724412
20
-4.6537995669291341
11
5.8582416141732283
21
-4.657444212598425
0
LINE
8
BLACK
6
CONTINUOUS
10
5.8582416141732283
20
-4.657444212598425
11
5.8521807874015748
21
-4.65995468503937
0
LINE
8
BLACK
6
CONTINUOUS
10
5.8521807874015748
20
-4.65995468503937
11
5.8457466535433067
21
-4.6612345275590554
0
LINE
8
BLACK
6
CONTINUOUS
10
5.8457466535433067
20
-4.6612345275590554
11
5.8391864173228347
21
-4.6612345275590554
0
LINE
8
BLACK
6
CONTINUOUS
10
5.8391864173228347
20
-4.6612345275590554
11
5.8327522834645666
21
-4.65995468503937
0
LINE
8
BLACK
6
CONTINUOUS
10
5.8327522834645666
20
-4.65995468503937
11
5.8266914566929131
21
-4.657444212598425
0
LINE
8
BLACK
6
CONTINUOUS
10
5.8266914566929131
20
-4.657444212598425
11
5.8212368503937011
21
-4.6537995669291341
0
LINE
8
BLACK
6
CONTINUOUS
10
5.8212368503937011
20
-4.6537995669291341
11
5.8165980708661413
21
-4.6491607874015743
0
LINE
8
BLACK
6
CONTINUOUS
10
5.8165980708661413
20
-4.6491607874015743
11
5.8129534251968504
21
-4.6437061811023623
0
LINE
8
BLACK
6
CONTINUOUS
10
5.8129534251968504
20
-4.6437061811023623
11
5.8104429527559054
21
-4.6376453543307088
0
LINE
8
BLACK
6
CONTINUOUS
10
5.8104429527559054
20
-4.6376453543307088
11
5.80916311023622
21
-4.6312112204724407
0
LINE
8
BLACK
6
CONTINUOUS
10
5.80916311023622
20
-4.6312112204724407
11
5.80916311023622
21
-4.6246509842519687
0
LINE
8
BLACK
6
CONTINUOUS
10
5.80916311023622
20
-4.6246509842519687
11
5.8104429527559054
21
-4.6182168503937007
0
LINE
8
BLACK
6
CONTINUOUS
10
5.8104429527559054
20
-4.6182168503937007
11
5.8129534251968504
21
-4.6121560236220471
0
LINE
8
BLACK
6
CONTINUOUS
10
5.8129534251968504
20
-4.6121560236220471
11
5.8165980708661413
21
-4.6067014173228342
0
LINE
8
BLACK
6
CONTINUOUS
10
5.8165980708661413
20
-4.6067014173228342
11
5.8212368503937011
21
-4.6020626377952754
0
LINE
8
BLACK
6
CONTINUOUS
10
5.8212368503937011
20
-4.6020626377952754
11
5.8266914566929131
21
-4.5984179921259845
0
LINE
8
BLACK
6
CONTINUOUS
10
5.8266914566929131
20
-4.5984179921259845
11
5.8327522834645666
21
-4.5959075196850394
0
LINE
8
BLACK
6
CONTINUOUS
10
5.8327522834645666
20
-4.5959075196850394
11
5.8391864173228347
21
-4.594627677165354
0
LINE
8
BLACK
6
CONTINUOUS
10
5.8391864173228347
20
-4.594627677165354
11
5.8457466535433067
21
-4.594627677165354
0
LINE
8
BLACK
6
CONTINUOUS
10
5.8457466535433067
20
-4.594627677165354
11
5.8521807874015748
21
-4.5959075196850394
0
LINE
8
BLACK
6
CONTINUOUS
10
5.9521807480314957
20
-4.5959075196850394
11
5.9582415748031492
21
-4.5984179921259845
0
LINE
8
BLACK
6
CONTINUOUS
10
5.9582415748031492
20
-4.5984179921259845
11
5.9636961811023621
21
-4.6020626377952754
0
LINE
8
BLACK
6
CONTINUOUS
10
5.9636961811023621
20
-4.6020626377952754
11
5.968334960629921
21
-4.6067014173228342
0
LINE
8
BLACK
6
CONTINUOUS
10
5.968334960629921
20
-4.6067014173228342
11
5.9719796062992128
21
-4.6121560236220471
0
LINE
8
BLACK
6
CONTINUOUS
10
5.9719796062992128
20
-4.6121560236220471
11
5.9744900787401569
21
-4.6182168503937007
0
LINE
8
BLACK
6
CONTINUOUS
10
5.9744900787401569
20
-4.6182168503937007
11
5.9757699212598423
21
-4.6246509842519687
0
LINE
8
BLACK
6
CONTINUOUS
10
5.9757699212598423
20
-4.6246509842519687
11
5.9757699212598423
21
-4.6312112204724407
0
LINE
8
BLACK
6
CONTINUOUS
10
5.9757699212598423
20
-4.6312112204724407
11
5.9744900787401569
21
-4.6376453543307088
0
LINE
8
BLACK
6
CONTINUOUS
10
5.9744900787401569
20
-4.6376453543307088
11
5.9719796062992128
21
-4.6437061811023623
0
LINE
8
BLACK
6
CONTINUOUS
10
5.9719796062992128
20
-4.6437061811023623
11
5.968334960629921
21
-4.6491607874015743
0
LINE
8
BLACK
6
CONTINUOUS
10
5.968334960629921
20
-4.6491607874015743
11
5.9636961811023621
21
-4.6537995669291341
0
LINE
8
BLACK
6
CONTINUOUS
10
5.9636961811023621
20
-4.6537995669291341
11
5.9582415748031492
21
-4.657444212598425
0
LINE
8
BLACK
6
CONTINUOUS
10
5.9582415748031492
20
-4.657444212598425
11
5.9521807480314957
21
-4.65995468503937
0
LINE
8
BLACK
6
CONTINUOUS
10
5.9521807480314957
20
-4.65995468503937
11
5.9457466141732285
21
-4.6612345275590554
0
LINE
8
BLACK
6
CONTINUOUS
10
5.9457466141732285
20
-4.6612345275590554
11
5.9391863779527556
21
-4.6612345275590554
0
LINE
8
BLACK
6
CONTINUOUS
10
5.9391863779527556
20
-4.6612345275590554
11
5.9327522440944884
21
-4.65995468503937
0
LINE
8
BLACK
6
CONTINUOUS
10
5.9327522440944884
20
-4.65995468503937
11
5.9266914173228349
21
-4.657444212598425
0
LINE
8
BLACK
6
CONTINUOUS
10
5.9266914173228349
20
-4.657444212598425
11
5.921236811023622
21
-4.6537995669291341
0
LINE
8
BLACK
6
CONTINUOUS
10
5.921236811023622
20
-4.6537995669291341
11
5.9165980314960631
21
-4.6491607874015743
0
LINE
8
BLACK
6
CONTINUOUS
10
5.9165980314960631
20
-4.6491607874015743
11
5.9129533858267713
21
-4.6437061811023623
0
LINE
8
BLACK
6
CONTINUOUS
10
5.9129533858267713
20
-4.6437061811023623
11
5.9104429133858263
21
-4.6376453543307088
0
LINE
8
BLACK
6
CONTINUOUS
10
5.9104429133858263
20
-4.6376453543307088
11
5.9091630708661418
21
-4.6312112204724407
0
LINE
8
BLACK
6
CONTINUOUS
10
5.9091630708661418
20
-4.6312112204724407
11
5.9091630708661418
21
-4.6246509842519687
0
LINE
8
BLACK
6
CONTINUOUS
10
5.9091630708661418
20
-4.6246509842519687
11
5.9104429133858263
21
-4.6182168503937007
0
LINE
8
BLACK
6
CONTINUOUS
10
5.9104429133858263
20
-4.6182168503937007
11
5.9129533858267713
21
-4.6121560236220471
0
LINE
8
BLACK
6
CONTINUOUS
10
5.9129533858267713
20
-4.6121560236220471
11
5.9165980314960631
21
-4.6067014173228342
0
LINE
8
BLACK
6
CONTINUOUS
10
5.9165980314960631
20
-4.6067014173228342
11
5.921236811023622
21
-4.6020626377952754
0
LINE
8
BLACK
6
CONTINUOUS
10
5.921236811023622
20
-4.6020626377952754
11
5.9266914173228349
21
-4.5984179921259845
0
LINE
8
BLACK
6
CONTINUOUS
10
5.9266914173228349
20
-4.5984179921259845
11
5.9327522440944884
21
-4.5959075196850394
0
LINE
8
BLACK
6
CONTINUOUS
10
5.9327522440944884
20
-4.5959075196850394
11
5.9391863779527556
21
-4.594627677165354
0
LINE
8
BLACK
6
CONTINUOUS
10
5.9391863779527556
20
-4.594627677165354
11
5.9457466141732285
21
-4.594627677165354
0
LINE
8
BLACK
6
CONTINUOUS
10
5.9457466141732285
20
-4.594627677165354
11
5.9521807480314957
21
-4.5959075196850394
0
LINE
8
BLACK
6
CONTINUOUS
10
6.0521808267716537
20
-4.5959075196850394
11
6.0582416535433072
21
-4.5984179921259845
0
LINE
8
BLACK
6
CONTINUOUS
10
6.0582416535433072
20
-4.5984179921259845
11
6.0636962598425193
21
-4.6020626377952754
0
LINE
8
BLACK
6
CONTINUOUS
10
6.0636962598425193
20
-4.6020626377952754
11
6.068335039370079
21
-4.6067014173228342
0
LINE
8
BLACK
6
CONTINUOUS
10
6.068335039370079
20
-4.6067014173228342
11
6.0719796850393699
21
-4.6121560236220471
0
LINE
8
BLACK
6
CONTINUOUS
10
6.0719796850393699
20
-4.6121560236220471
11
6.074490157480315
21
-4.6182168503937007
0
LINE
8
BLACK
6
CONTINUOUS
10
6.074490157480315
20
-4.6182168503937007
11
6.0757699999999994
21
-4.6246509842519687
0
LINE
8
BLACK
6
CONTINUOUS
10
6.0757699999999994
20
-4.6246509842519687
11
6.0757699999999994
21
-4.6312112204724407
0
LINE
8
BLACK
6
CONTINUOUS
10
6.0757699999999994
20
-4.6312112204724407
11
6.074490157480315
21
-4.6376453543307088
0
LINE
8
BLACK
6
CONTINUOUS
10
6.074490157480315
20
-4.6376453543307088
11
6.0719796850393699
21
-4.6437061811023623
0
LINE
8
BLACK
6
CONTINUOUS
10
6.0719796850393699
20
-4.6437061811023623
11
6.068335039370079
21
-4.6491607874015743
0
LINE
8
BLACK
6
CONTINUOUS
10
6.068335039370079
20
-4.6491607874015743
11
6.0636962598425193
21
-4.6537995669291341
0
LINE
8
BLACK
6
CONTINUOUS
10
6.0636962598425193
20
-4.6537995669291341
11
6.0582416535433072
21
-4.657444212598425
0
LINE
8
BLACK
6
CONTINUOUS
10
6.0582416535433072
20
-4.657444212598425
11
6.0521808267716537
21
-4.65995468503937
0
LINE
8
BLACK
6
CONTINUOUS
10
6.0521808267716537
20
-4.65995468503937
11
6.0457466929133856
21
-4.6612345275590554
0
LINE
8
BLACK
6
CONTINUOUS
10
6.0457466929133856
20
-4.6612345275590554
11
6.0391864566929137
21
-4.6612345275590554
0
LINE
8
BLACK
6
CONTINUOUS
10
6.0391864566929137
20
-4.6612345275590554
11
6.0327523228346456
21
-4.65995468503937
0
LINE
8
BLACK
6
CONTINUOUS
10
6.0327523228346456
20
-4.65995468503937
11
6.026691496062992
21
-4.657444212598425
0
LINE
8
BLACK
6
CONTINUOUS
10
6.026691496062992
20
-4.657444212598425
11
6.0212368897637791
21
-4.6537995669291341
0
LINE
8
BLACK
6
CONTINUOUS
10
6.0212368897637791
20
-4.6537995669291341
11
6.0165981102362203
21
-4.6491607874015743
0
LINE
8
BLACK
6
CONTINUOUS
10
6.0165981102362203
20
-4.6491607874015743
11
6.0129534645669294
21
-4.6437061811023623
0
LINE
8
BLACK
6
CONTINUOUS
10
6.0129534645669294
20
-4.6437061811023623
11
6.0104429921259843
21
-4.6376453543307088
0
LINE
8
BLACK
6
CONTINUOUS
10
6.0104429921259843
20
-4.6376453543307088
11
6.0091631496062989
21
-4.6312112204724407
0
LINE
8
BLACK
6
CONTINUOUS
10
6.0091631496062989
20
-4.6312112204724407
11
6.0091631496062989
21
-4.6246509842519687
0
LINE
8
BLACK
6
CONTINUOUS
10
6.0091631496062989
20
-4.6246509842519687
11
6.0104429921259843
21
-4.6182168503937007
0
LINE
8
BLACK
6
CONTINUOUS
10
6.0104429921259843
20
-4.6182168503937007
11
6.0129534645669294
21
-4.6121560236220471
0
LINE
8
BLACK
6
CONTINUOUS
10
6.0129534645669294
20
-4.6121560236220471
11
6.0165981102362203
21
-4.6067014173228342
0
LINE
8
BLACK
6
CONTINUOUS
10
6.0165981102362203
20
-4.6067014173228342
11
6.0212368897637791
21
-4.6020626377952754
0
LINE
8
BLACK
6
CONTINUOUS
10
6.0212368897637791
20
-4.6020626377952754
11
6.026691496062992
21
-4.5984179921259845
0
LINE
8
BLACK
6
CONTINUOUS
10
6.026691496062992
20
-4.5984179921259845
11
6.0327523228346456
21
-4.5959075196850394
0
LINE
8
BLACK
6
CONTINUOUS
10
6.0327523228346456
20
-4.5959075196850394
11
6.0391864566929137
21
-4.594627677165354
0
LINE
8
BLACK
6
CONTINUOUS
10
6.0391864566929137
20
-4.594627677165354
11
6.0457466929133856
21
-4.594627677165354
0
LINE
8
BLACK
6
CONTINUOUS
10
6.0457466929133856
20
-4.594627677165354
11
6.0521808267716537
21
-4.5959075196850394
0
LINE
8
BLACK
6
CONTINUOUS
10
6.1521807874015746
20
-4.5959075196850394
11
6.1582416141732281
21
-4.5984179921259845
0
LINE
8
BLACK
6
CONTINUOUS
10
6.1582416141732281
20
-4.5984179921259845
11
6.163696220472441
21
-4.6020626377952754
0
LINE
8
BLACK
6
CONTINUOUS
10
6.163696220472441
20
-4.6020626377952754
11
6.1683349999999999
21
-4.6067014173228342
0
LINE
8
BLACK
6
CONTINUOUS
10
6.1683349999999999
20
-4.6067014173228342
11
6.1719796456692908
21
-4.6121560236220471
0
LINE
8
BLACK
6
CONTINUOUS
10
6.1719796456692908
20
-4.6121560236220471
11
6.1744901181102358
21
-4.6182168503937007
0
LINE
8
BLACK
6
CONTINUOUS
10
6.1744901181102358
20
-4.6182168503937007
11
6.1757699606299212
21
-4.6246509842519687
0
LINE
8
BLACK
6
CONTINUOUS
10
6.1757699606299212
20
-4.6246509842519687
11
6.1757699606299212
21
-4.6312112204724407
0
LINE
8
BLACK
6
CONTINUOUS
10
6.1757699606299212
20
-4.6312112204724407
11
6.1744901181102358
21
-4.6376453543307088
0
LINE
8
BLACK
6
CONTINUOUS
10
6.1744901181102358
20
-4.6376453543307088
11
6.1719796456692908
21
-4.6437061811023623
0
LINE
8
BLACK
6
CONTINUOUS
10
6.1719796456692908
20
-4.6437061811023623
11
6.1683349999999999
21
-4.6491607874015743
0
LINE
8
BLACK
6
CONTINUOUS
10
6.1683349999999999
20
-4.6491607874015743
11
6.163696220472441
21
-4.6537995669291341
0
LINE
8
BLACK
6
CONTINUOUS
10
6.163696220472441
20
-4.6537995669291341
11
6.1582416141732281
21
-4.657444212598425
0
LINE
8
BLACK
6
CONTINUOUS
10
6.1582416141732281
20
-4.657444212598425
11
6.1521807874015746
21
-4.65995468503937
0
LINE
8
BLACK
6
CONTINUOUS
10
6.1521807874015746
20
-4.65995468503937
11
6.1457466535433065
21
-4.6612345275590554
0
LINE
8
BLACK
6
CONTINUOUS
10
6.1457466535433065
20
-4.6612345275590554
11
6.1391864173228345
21
-4.6612345275590554
0
LINE
8
BLACK
6
CONTINUOUS
10
6.1391864173228345
20
-4.6612345275590554
11
6.1327522834645665
21
-4.65995468503937
0
LINE
8
BLACK
6
CONTINUOUS
10
6.1327522834645665
20
-4.65995468503937
11
6.1266914566929129
21
-4.657444212598425
0
LINE
8
BLACK
6
CONTINUOUS
10
6.1266914566929129
20
-4.657444212598425
11
6.1212368503937009
21
-4.6537995669291341
0
LINE
8
BLACK
6
CONTINUOUS
10
6.1212368503937009
20
-4.6537995669291341
11
6.1165980708661412
21
-4.6491607874015743
0
LINE
8
BLACK
6
CONTINUOUS
10
6.1165980708661412
20
-4.6491607874015743
11
6.1129534251968503
21
-4.6437061811023623
0
LINE
8
BLACK
6
CONTINUOUS
10
6.1129534251968503
20
-4.6437061811023623
11
6.1104429527559052
21
-4.6376453543307088
0
LINE
8
BLACK
6
CONTINUOUS
10
6.1104429527559052
20
-4.6376453543307088
11
6.1091631102362207
21
-4.6312112204724407
0
LINE
8
BLACK
6
CONTINUOUS
10
6.1091631102362207
20
-4.6312112204724407
11
6.1091631102362207
21
-4.6246509842519687
0
LINE
8
BLACK
6
CONTINUOUS
10
6.1091631102362207
20
-4.6246509842519687
11
6.1104429527559052
21
-4.6182168503937007
0
LINE
8
BLACK
6
CONTINUOUS
10
6.1104429527559052
20
-4.6182168503937007
11
6.1129534251968503
21
-4.6121560236220471
0
LINE
8
BLACK
6
CONTINUOUS
10
6.1129534251968503
20
-4.6121560236220471
11
6.1165980708661412
21
-4.6067014173228342
0
LINE
8
BLACK
6
CONTINUOUS
10
6.1165980708661412
20
-4.6067014173228342
11
6.1212368503937009
21
-4.6020626377952754
0
LINE
8
BLACK
6
CONTINUOUS
10
6.1212368503937009
20
-4.6020626377952754
11
6.1266914566929129
21
-4.5984179921259845
0
LINE
8
BLACK
6
CONTINUOUS
10
6.1266914566929129
20
-4.5984179921259845
11
6.1327522834645665
21
-4.5959075196850394
0
LINE
8
BLACK
6
CONTINUOUS
10
6.1327522834645665
20
-4.5959075196850394
11
6.1391864173228345
21
-4.594627677165354
0
LINE
8
BLACK
6
CONTINUOUS
10
6.1391864173228345
20
-4.594627677165354
11
6.1457466535433065
21
-4.594627677165354
0
LINE
8
BLACK
6
CONTINUOUS
10
6.1457466535433065
20
-4.594627677165354
11
6.1521807874015746
21
-4.5959075196850394
0
LINE
8
BLACK
6
CONTINUOUS
10
6.2521807874015742
20
-4.5959075196850394
11
6.2582416141732278
21
-4.5984179921259845
0
LINE
8
BLACK
6
CONTINUOUS
10
6.2582416141732278
20
-4.5984179921259845
11
6.2636962204724407
21
-4.6020626377952754
0
LINE
8
BLACK
6
CONTINUOUS
10
6.2636962204724407
20
-4.6020626377952754
11
6.2683349999999995
21
-4.6067014173228342
0
LINE
8
BLACK
6
CONTINUOUS
10
6.2683349999999995
20
-4.6067014173228342
11
6.2719796456692913
21
-4.6121560236220471
0
LINE
8
BLACK
6
CONTINUOUS
10
6.2719796456692913
20
-4.6121560236220471
11
6.2744901181102364
21
-4.6182168503937007
0
LINE
8
BLACK
6
CONTINUOUS
10
6.2744901181102364
20
-4.6182168503937007
11
6.2757699606299209
21
-4.6246509842519687
0
LINE
8
BLACK
6
CONTINUOUS
10
6.2757699606299209
20
-4.6246509842519687
11
6.2757699606299209
21
-4.6312112204724407
0
LINE
8
BLACK
6
CONTINUOUS
10
6.2757699606299209
20
-4.6312112204724407
11
6.2744901181102364
21
-4.6376453543307088
0
LINE
8
BLACK
6
CONTINUOUS
10
6.2744901181102364
20
-4.6376453543307088
11
6.2719796456692913
21
-4.6437061811023623
0
LINE
8
BLACK
6
CONTINUOUS
10
6.2719796456692913
20
-4.6437061811023623
11
6.2683349999999995
21
-4.6491607874015743
0
LINE
8
BLACK
6
CONTINUOUS
10
6.2683349999999995
20
-4.6491607874015743
11
6.2636962204724407
21
-4.6537995669291341
0
LINE
8
BLACK
6
CONTINUOUS
10
6.2636962204724407
20
-4.6537995669291341
11
6.2582416141732278
21
-4.657444212598425
0
LINE
8
BLACK
6
CONTINUOUS
10
6.2582416141732278
20
-4.657444212598425
11
6.2521807874015742
21
-4.65995468503937
0
LINE
8
BLACK
6
CONTINUOUS
10
6.2521807874015742
20
-4.65995468503937
11
6.245746653543307
21
-4.6612345275590554
0
LINE
8
BLACK
6
CONTINUOUS
10
6.245746653543307
20
-4.6612345275590554
11
6.2391864173228342
21
-4.6612345275590554
0
LINE
8
BLACK
6
CONTINUOUS
10
6.2391864173228342
20
-4.6612345275590554
11
6.232752283464567
21
-4.65995468503937
0
LINE
8
BLACK
6
CONTINUOUS
10
6.232752283464567
20
-4.65995468503937
11
6.2266914566929135
21
-4.657444212598425
0
LINE
8
BLACK
6
CONTINUOUS
10
6.2266914566929135
20
-4.657444212598425
11
6.2212368503937006
21
-4.6537995669291341
0
LINE
8
BLACK
6
CONTINUOUS
10
6.2212368503937006
20
-4.6537995669291341
11
6.2165980708661417
21
-4.6491607874015743
0
LINE
8
BLACK
6
CONTINUOUS
10
6.2165980708661417
20
-4.6491607874015743
11
6.2129534251968499
21
-4.6437061811023623
0
LINE
8
BLACK
6
CONTINUOUS
10
6.2129534251968499
20
-4.6437061811023623
11
6.2104429527559057
21
-4.6376453543307088
0
LINE
8
BLACK
6
CONTINUOUS
10
6.2104429527559057
20
-4.6376453543307088
11
6.2091631102362204
21
-4.6312112204724407
0
LINE
8
BLACK
6
CONTINUOUS
10
6.2091631102362204
20
-4.6312112204724407
11
6.2091631102362204
21
-4.6246509842519687
0
LINE
8
BLACK
6
CONTINUOUS
10
6.2091631102362204
20
-4.6246509842519687
11
6.2104429527559057
21
-4.6182168503937007
0
LINE
8
BLACK
6
CONTINUOUS
10
6.2104429527559057
20
-4.6182168503937007
11
6.2129534251968499
21
-4.6121560236220471
0
LINE
8
BLACK
6
CONTINUOUS
10
6.2129534251968499
20
-4.6121560236220471
11
6.2165980708661417
21
-4.6067014173228342
0
LINE
8
BLACK
6
CONTINUOUS
10
6.2165980708661417
20
-4.6067014173228342
11
6.2212368503937006
21
-4.6020626377952754
0
LINE
8
BLACK
6
CONTINUOUS
10
6.2212368503937006
20
-4.6020626377952754
11
6.2266914566929135
21
-4.5984179921259845
0
LINE
8
BLACK
6
CONTINUOUS
10
6.2266914566929135
20
-4.5984179921259845
11
6.232752283464567
21
-4.5959075196850394
0
LINE
8
BLACK
6
CONTINUOUS
10
6.232752283464567
20
-4.5959075196850394
11
6.2391864173228342
21
-4.594627677165354
0
LINE
8
BLACK
6
CONTINUOUS
10
6.2391864173228342
20
-4.594627677165354
11
6.245746653543307
21
-4.594627677165354
0
LINE
8
BLACK
6
CONTINUOUS
10
6.245746653543307
20
-4.594627677165354
11
6.2521807874015742
21
-4.5959075196850394
0
LINE
8
BLACK
6
CONTINUOUS
10
6.3521807874015748
20
-4.5959075196850394
11
6.3582416141732283
21
-4.5984179921259845
0
LINE
8
BLACK
6
CONTINUOUS
10
6.3582416141732283
20
-4.5984179921259845
11
6.3636962204724412
21
-4.6020626377952754
0
LINE
8
BLACK
6
CONTINUOUS
10
6.3636962204724412
20
-4.6020626377952754
11
6.3683350000000001
21
-4.6067014173228342
0
LINE
8
BLACK
6
CONTINUOUS
10
6.3683350000000001
20
-4.6067014173228342
11
6.371979645669291
21
-4.6121560236220471
0
LINE
8
BLACK
6
CONTINUOUS
10
6.371979645669291
20
-4.6121560236220471
11
6.374490118110236
21
-4.6182168503937007
0
LINE
8
BLACK
6
CONTINUOUS
10
6.374490118110236
20
-4.6182168503937007
11
6.3757699606299214
21
-4.6246509842519687
0
LINE
8
BLACK
6
CONTINUOUS
10
6.3757699606299214
20
-4.6246509842519687
11
6.3757699606299214
21
-4.6312112204724407
0
LINE
8
BLACK
6
CONTINUOUS
10
6.3757699606299214
20
-4.6312112204724407
11
6.374490118110236
21
-4.6376453543307088
0
LINE
8
BLACK
6
CONTINUOUS
10
6.374490118110236
20
-4.6376453543307088
11
6.371979645669291
21
-4.6437061811023623
0
LINE
8
BLACK
6
CONTINUOUS
10
6.371979645669291
20
-4.6437061811023623
11
6.3683350000000001
21
-4.6491607874015743
0
LINE
8
BLACK
6
CONTINUOUS
10
6.3683350000000001
20
-4.6491607874015743
11
6.3636962204724412
21
-4.6537995669291341
0
LINE
8
BLACK
6
CONTINUOUS
10
6.3636962204724412
20
-4.6537995669291341
11
6.3582416141732283
21
-4.657444212598425
0
LINE
8
BLACK
6
CONTINUOUS
10
6.3582416141732283
20
-4.657444212598425
11
6.3521807874015748
21
-4.65995468503937
0
LINE
8
BLACK
6
CONTINUOUS
10
6.3521807874015748
20
-4.65995468503937
11
6.3457466535433067
21
-4.6612345275590554
0
LINE
8
BLACK
6
CONTINUOUS
10
6.3457466535433067
20
-4.6612345275590554
11
6.3391864173228347
21
-4.6612345275590554
0
LINE
8
BLACK
6
CONTINUOUS
10
6.3391864173228347
20
-4.6612345275590554
11
6.3327522834645666
21
-4.65995468503937
0
LINE
8
BLACK
6
CONTINUOUS
10
6.3327522834645666
20
-4.65995468503937
11
6.3266914566929131
21
-4.657444212598425
0
LINE
8
BLACK
6
CONTINUOUS
10
6.3266914566929131
20
-4.657444212598425
11
6.3212368503937002
21
-4.6537995669291341
0
LINE
8
BLACK
6
CONTINUOUS
10
6.3212368503937002
20
-4.6537995669291341
11
6.3165980708661413
21
-4.6491607874015743
0
LINE
8
BLACK
6
CONTINUOUS
10
6.3165980708661413
20
-4.6491607874015743
11
6.3129534251968504
21
-4.6437061811023623
0
LINE
8
BLACK
6
CONTINUOUS
10
6.3129534251968504
20
-4.6437061811023623
11
6.3104429527559054
21
-4.6376453543307088
0
LINE
8
BLACK
6
CONTINUOUS
10
6.3104429527559054
20
-4.6376453543307088
11
6.30916311023622
21
-4.6312112204724407
0
LINE
8
BLACK
6
CONTINUOUS
10
6.30916311023622
20
-4.6312112204724407
11
6.30916311023622
21
-4.6246509842519687
0
LINE
8
BLACK
6
CONTINUOUS
10
6.30916311023622
20
-4.6246509842519687
11
6.3104429527559054
21
-4.6182168503937007
0
LINE
8
BLACK
6
CONTINUOUS
10
6.3104429527559054
20
-4.6182168503937007
11
6.3129534251968504
21
-4.6121560236220471
0
LINE
8
BLACK
6
CONTINUOUS
10
6.3129534251968504
20
-4.6121560236220471
11
6.3165980708661413
21
-4.6067014173228342
0
LINE
8
BLACK
6
CONTINUOUS
10
6.3165980708661413
20
-4.6067014173228342
11
6.3212368503937002
21
-4.6020626377952754
0
LINE
8
BLACK
6
CONTINUOUS
10
6.3212368503937002
20
-4.6020626377952754
11
6.3266914566929131
21
-4.5984179921259845
0
LINE
8
BLACK
6
CONTINUOUS
10
6.3266914566929131
20
-4.5984179921259845
11
6.3327522834645666
21
-4.5959075196850394
0
LINE
8
BLACK
6
CONTINUOUS
10
6.3327522834645666
20
-4.5959075196850394
11
6.3391864173228347
21
-4.594627677165354
0
LINE
8
BLACK
6
CONTINUOUS
10
6.3391864173228347
20
-4.594627677165354
11
6.3457466535433067
21
-4.594627677165354
0
LINE
8
BLACK
6
CONTINUOUS
10
6.3457466535433067
20
-4.594627677165354
11
6.3521807874015748
21
-4.5959075196850394
0
LINE
8
BLACK
6
CONTINUOUS
10
6.4521807480314957
20
-4.5959075196850394
11
6.4582415748031492
21
-4.5984179921259845
0
LINE
8
BLACK
6
CONTINUOUS
10
6.4582415748031492
20
-4.5984179921259845
11
6.4636961811023621
21
-4.6020626377952754
0
LINE
8
BLACK
6
CONTINUOUS
10
6.4636961811023621
20
-4.6020626377952754
11
6.468334960629921
21
-4.6067014173228342
0
LINE
8
BLACK
6
CONTINUOUS
10
6.468334960629921
20
-4.6067014173228342
11
6.4719796062992128
21
-4.6121560236220471
0
LINE
8
BLACK
6
CONTINUOUS
10
6.4719796062992128
20
-4.6121560236220471
11
6.4744900787401569
21
-4.6182168503937007
0
LINE
8
BLACK
6
CONTINUOUS
10
6.4744900787401569
20
-4.6182168503937007
11
6.4757699212598423
21
-4.6246509842519687
0
LINE
8
BLACK
6
CONTINUOUS
10
6.4757699212598423
20
-4.6246509842519687
11
6.4757699212598423
21
-4.6312112204724407
0
LINE
8
BLACK
6
CONTINUOUS
10
6.4757699212598423
20
-4.6312112204724407
11
6.4744900787401569
21
-4.6376453543307088
0
LINE
8
BLACK
6
CONTINUOUS
10
6.4744900787401569
20
-4.6376453543307088
11
6.4719796062992128
21
-4.6437061811023623
0
LINE
8
BLACK
6
CONTINUOUS
10
6.4719796062992128
20
-4.6437061811023623
11
6.468334960629921
21
-4.6491607874015743
0
LINE
8
BLACK
6
CONTINUOUS
10
6.468334960629921
20
-4.6491607874015743
11
6.4636961811023621
21
-4.6537995669291341
0
LINE
8
BLACK
6
CONTINUOUS
10
6.4636961811023621
20
-4.6537995669291341
11
6.4582415748031492
21
-4.657444212598425
0
LINE
8
BLACK
6
CONTINUOUS
10
6.4582415748031492
20
-4.657444212598425
11
6.4521807480314957
21
-4.65995468503937
0
LINE
8
BLACK
6
CONTINUOUS
10
6.4521807480314957
20
-4.65995468503937
11
6.4457466141732285
21
-4.6612345275590554
0
LINE
8
BLACK
6
CONTINUOUS
10
6.4457466141732285
20
-4.6612345275590554
11
6.4391863779527556
21
-4.6612345275590554
0
LINE
8
BLACK
6
CONTINUOUS
10
6.4391863779527556
20
-4.6612345275590554
11
6.4327522440944884
21
-4.65995468503937
0
LINE
8
BLACK
6
CONTINUOUS
10
6.4327522440944884
20
-4.65995468503937
11
6.4266914173228349
21
-4.657444212598425
0
LINE
8
BLACK
6
CONTINUOUS
10
6.4266914173228349
20
-4.657444212598425
11
6.421236811023622
21
-4.6537995669291341
0
LINE
8
BLACK
6
CONTINUOUS
10
6.421236811023622
20
-4.6537995669291341
11
6.4165980314960631
21
-4.6491607874015743
0
LINE
8
BLACK
6
CONTINUOUS
10
6.4165980314960631
20
-4.6491607874015743
11
6.4129533858267713
21
-4.6437061811023623
0
LINE
8
BLACK
6
CONTINUOUS
10
6.4129533858267713
20
-4.6437061811023623
11
6.4104429133858263
21
-4.6376453543307088
0
LINE
8
BLACK
6
CONTINUOUS
10
6.4104429133858263
20
-4.6376453543307088
11
6.4091630708661418
21
-4.6312112204724407
0
LINE
8
BLACK
6
CONTINUOUS
10
6.4091630708661418
20
-4.6312112204724407
11
6.4091630708661418
21
-4.6246509842519687
0
LINE
8
BLACK
6
CONTINUOUS
10
6.4091630708661418
20
-4.6246509842519687
11
6.4104429133858263
21
-4.6182168503937007
0
LINE
8
BLACK
6
CONTINUOUS
10
6.4104429133858263
20
-4.6182168503937007
11
6.4129533858267713
21
-4.6121560236220471
0
LINE
8
BLACK
6
CONTINUOUS
10
6.4129533858267713
20
-4.6121560236220471
11
6.4165980314960631
21
-4.6067014173228342
0
LINE
8
BLACK
6
CONTINUOUS
10
6.4165980314960631
20
-4.6067014173228342
11
6.421236811023622
21
-4.6020626377952754
0
LINE
8
BLACK
6
CONTINUOUS
10
6.421236811023622
20
-4.6020626377952754
11
6.4266914173228349
21
-4.5984179921259845
0
LINE
8
BLACK
6
CONTINUOUS
10
6.4266914173228349
20
-4.5984179921259845
11
6.4327522440944884
21
-4.5959075196850394
0
LINE
8
BLACK
6
CONTINUOUS
10
6.4327522440944884
20
-4.5959075196850394
11
6.4391863779527556
21
-4.594627677165354
0
LINE
8
BLACK
6
CONTINUOUS
10
6.4391863779527556
20
-4.594627677165354
11
6.4457466141732285
21
-4.594627677165354
0
LINE
8
BLACK
6
CONTINUOUS
10
6.4457466141732285
20
-4.594627677165354
11
6.4521807480314957
21
-4.5959075196850394
0
LINE
8
BLACK
6
CONTINUOUS
10
6.5521807874015749
20
-4.5959075196850394
11
6.5582416141732285
21
-4.5984179921259845
0
LINE
8
BLACK
6
CONTINUOUS
10
6.5582416141732285
20
-4.5984179921259845
11
6.5636962204724405
21
-4.6020626377952754
0
LINE
8
BLACK
6
CONTINUOUS
10
6.5636962204724405
20
-4.6020626377952754
11
6.5683350000000003
21
-4.6067014173228342
0
LINE
8
BLACK
6
CONTINUOUS
10
6.5683350000000003
20
-4.6067014173228342
11
6.5719796456692912
21
-4.6121560236220471
0
LINE
8
BLACK
6
CONTINUOUS
10
6.5719796456692912
20
-4.6121560236220471
11
6.5744901181102362
21
-4.6182168503937007
0
LINE
8
BLACK
6
CONTINUOUS
10
6.5744901181102362
20
-4.6182168503937007
11
6.5757699606299207
21
-4.6246509842519687
0
LINE
8
BLACK
6
CONTINUOUS
10
6.5757699606299207
20
-4.6246509842519687
11
6.5757699606299207
21
-4.6312112204724407
0
LINE
8
BLACK
6
CONTINUOUS
10
6.5757699606299207
20
-4.6312112204724407
11
6.5744901181102362
21
-4.6376453543307088
0
LINE
8
BLACK
6
CONTINUOUS
10
6.5744901181102362
20
-4.6376453543307088
11
6.5719796456692912
21
-4.6437061811023623
0
LINE
8
BLACK
6
CONTINUOUS
10
6.5719796456692912
20
-4.6437061811023623
11
6.5683350000000003
21
-4.6491607874015743
0
LINE
8
BLACK
6
CONTINUOUS
10
6.5683350000000003
20
-4.6491607874015743
11
6.5636962204724405
21
-4.6537995669291341
0
LINE
8
BLACK
6
CONTINUOUS
10
6.5636962204724405
20
-4.6537995669291341
11
6.5582416141732285
21
-4.657444212598425
0
LINE
8
BLACK
6
CONTINUOUS
10
6.5582416141732285
20
-4.657444212598425
11
6.5521807874015749
21
-4.65995468503937
0
LINE
8
BLACK
6
CONTINUOUS
10
6.5521807874015749
20
-4.65995468503937
11
6.5457466535433069
21
-4.6612345275590554
0
LINE
8
BLACK
6
CONTINUOUS
10
6.5457466535433069
20
-4.6612345275590554
11
6.5391864173228349
21
-4.6612345275590554
0
LINE
8
BLACK
6
CONTINUOUS
10
6.5391864173228349
20
-4.6612345275590554
11
6.5327522834645668
21
-4.65995468503937
0
LINE
8
BLACK
6
CONTINUOUS
10
6.5327522834645668
20
-4.65995468503937
11
6.5266914566929133
21
-4.657444212598425
0
LINE
8
BLACK
6
CONTINUOUS
10
6.5266914566929133
20
-4.657444212598425
11
6.5212368503937004
21
-4.6537995669291341
0
LINE
8
BLACK
6
CONTINUOUS
10
6.5212368503937004
20
-4.6537995669291341
11
6.5165980708661415
21
-4.6491607874015743
0
LINE
8
BLACK
6
CONTINUOUS
10
6.5165980708661415
20
-4.6491607874015743
11
6.5129534251968506
21
-4.6437061811023623
0
LINE
8
BLACK
6
CONTINUOUS
10
6.5129534251968506
20
-4.6437061811023623
11
6.5104429527559056
21
-4.6376453543307088
0
LINE
8
BLACK
6
CONTINUOUS
10
6.5104429527559056
20
-4.6376453543307088
11
6.5091631102362202
21
-4.6312112204724407
0
LINE
8
BLACK
6
CONTINUOUS
10
6.5091631102362202
20
-4.6312112204724407
11
6.5091631102362202
21
-4.6246509842519687
0
LINE
8
BLACK
6
CONTINUOUS
10
6.5091631102362202
20
-4.6246509842519687
11
6.5104429527559056
21
-4.6182168503937007
0
LINE
8
BLACK
6
CONTINUOUS
10
6.5104429527559056
20
-4.6182168503937007
11
6.5129534251968506
21
-4.6121560236220471
0
LINE
8
BLACK
6
CONTINUOUS
10
6.5129534251968506
20
-4.6121560236220471
11
6.5165980708661415
21
-4.6067014173228342
0
LINE
8
BLACK
6
CONTINUOUS
10
6.5165980708661415
20
-4.6067014173228342
11
6.5212368503937004
21
-4.6020626377952754
0
LINE
8
BLACK
6
CONTINUOUS
10
6.5212368503937004
20
-4.6020626377952754
11
6.5266914566929133
21
-4.5984179921259845
0
LINE
8
BLACK
6
CONTINUOUS
10
6.5266914566929133
20
-4.5984179921259845
11
6.5327522834645668
21
-4.5959075196850394
0
LINE
8
BLACK
6
CONTINUOUS
10
6.5327522834645668
20
-4.5959075196850394
11
6.5391864173228349
21
-4.594627677165354
0
LINE
8
BLACK
6
CONTINUOUS
10
6.5391864173228349
20
-4.594627677165354
11
6.5457466535433069
21
-4.594627677165354
0
LINE
8
BLACK
6
CONTINUOUS
10
6.5457466535433069
20
-4.594627677165354
11
6.5521807874015749
21
-4.5959075196850394
0
LINE
8
BLACK
6
CONTINUOUS
10
6.6521807874015746
20
-4.5959075196850394
11
6.6582416141732281
21
-4.5984179921259845
0
LINE
8
BLACK
6
CONTINUOUS
10
6.6582416141732281
20
-4.5984179921259845
11
6.663696220472441
21
-4.6020626377952754
0
LINE
8
BLACK
6
CONTINUOUS
10
6.663696220472441
20
-4.6020626377952754
11
6.6683349999999999
21
-4.6067014173228342
0
LINE
8
BLACK
6
CONTINUOUS
10
6.6683349999999999
20
-4.6067014173228342
11
6.6719796456692908
21
-4.6121560236220471
0
LINE
8
BLACK
6
CONTINUOUS
10
6.6719796456692908
20
-4.6121560236220471
11
6.6744901181102358
21
-4.6182168503937007
0
LINE
8
BLACK
6
CONTINUOUS
10
6.6744901181102358
20
-4.6182168503937007
11
6.6757699606299212
21
-4.6246509842519687
0
LINE
8
BLACK
6
CONTINUOUS
10
6.6757699606299212
20
-4.6246509842519687
11
6.6757699606299212
21
-4.6312112204724407
0
LINE
8
BLACK
6
CONTINUOUS
10
6.6757699606299212
20
-4.6312112204724407
11
6.6744901181102358
21
-4.6376453543307088
0
LINE
8
BLACK
6
CONTINUOUS
10
6.6744901181102358
20
-4.6376453543307088
11
6.6719796456692908
21
-4.6437061811023623
0
LINE
8
BLACK
6
CONTINUOUS
10
6.6719796456692908
20
-4.6437061811023623
11
6.6683349999999999
21
-4.6491607874015743
0
LINE
8
BLACK
6
CONTINUOUS
10
6.6683349999999999
20
-4.6491607874015743
11
6.663696220472441
21
-4.6537995669291341
0
LINE
8
BLACK
6
CONTINUOUS
10
6.663696220472441
20
-4.6537995669291341
11
6.6582416141732281
21
-4.657444212598425
0
LINE
8
BLACK
6
CONTINUOUS
10
6.6582416141732281
20
-4.657444212598425
11
6.6521807874015746
21
-4.65995468503937
0
LINE
8
BLACK
6
CONTINUOUS
10
6.6521807874015746
20
-4.65995468503937
11
6.6457466535433065
21
-4.6612345275590554
0
LINE
8
BLACK
6
CONTINUOUS
10
6.6457466535433065
20
-4.6612345275590554
11
6.6391864173228345
21
-4.6612345275590554
0
LINE
8
BLACK
6
CONTINUOUS
10
6.6391864173228345
20
-4.6612345275590554
11
6.6327522834645665
21
-4.65995468503937
0
LINE
8
BLACK
6
CONTINUOUS
10
6.6327522834645665
20
-4.65995468503937
11
6.6266914566929129
21
-4.657444212598425
0
LINE
8
BLACK
6
CONTINUOUS
10
6.6266914566929129
20
-4.657444212598425
11
6.6212368503937009
21
-4.6537995669291341
0
LINE
8
BLACK
6
CONTINUOUS
10
6.6212368503937009
20
-4.6537995669291341
11
6.6165980708661412
21
-4.6491607874015743
0
LINE
8
BLACK
6
CONTINUOUS
10
6.6165980708661412
20
-4.6491607874015743
11
6.6129534251968503
21
-4.6437061811023623
0
LINE
8
BLACK
6
CONTINUOUS
10
6.6129534251968503
20
-4.6437061811023623
11
6.6104429527559052
21
-4.6376453543307088
0
LINE
8
BLACK
6
CONTINUOUS
10
6.6104429527559052
20
-4.6376453543307088
11
6.6091631102362207
21
-4.6312112204724407
0
LINE
8
BLACK
6
CONTINUOUS
10
6.6091631102362207
20
-4.6312112204724407
11
6.6091631102362207
21
-4.6246509842519687
0
LINE
8
BLACK
6
CONTINUOUS
10
6.6091631102362207
20
-4.6246509842519687
11
6.6104429527559052
21
-4.6182168503937007
0
LINE
8
BLACK
6
CONTINUOUS
10
6.6104429527559052
20
-4.6182168503937007
11
6.6129534251968503
21
-4.6121560236220471
0
LINE
8
BLACK
6
CONTINUOUS
10
6.6129534251968503
20
-4.6121560236220471
11
6.6165980708661412
21
-4.6067014173228342
0
LINE
8
BLACK
6
CONTINUOUS
10
6.6165980708661412
20
-4.6067014173228342
11
6.6212368503937009
21
-4.6020626377952754
0
LINE
8
BLACK
6
CONTINUOUS
10
6.6212368503937009
20
-4.6020626377952754
11
6.6266914566929129
21
-4.5984179921259845
0
LINE
8
BLACK
6
CONTINUOUS
10
6.6266914566929129
20
-4.5984179921259845
11
6.6327522834645665
21
-4.5959075196850394
0
LINE
8
BLACK
6
CONTINUOUS
10
6.6327522834645665
20
-4.5959075196850394
11
6.6391864173228345
21
-4.594627677165354
0
LINE
8
BLACK
6
CONTINUOUS
10
6.6391864173228345
20
-4.594627677165354
11
6.6457466535433065
21
-4.594627677165354
0
LINE
8
BLACK
6
CONTINUOUS
10
6.6457466535433065
20
-4.594627677165354
11
6.6521807874015746
21
-4.5959075196850394
0
LINE
8
BLACK
6
CONTINUOUS
10
6.7521807874015742
20
-4.5959075196850394
11
6.7582416141732278
21
-4.5984179921259845
0
LINE
8
BLACK
6
CONTINUOUS
10
6.7582416141732278
20
-4.5984179921259845
11
6.7636962204724407
21
-4.6020626377952754
0
LINE
8
BLACK
6
CONTINUOUS
10
6.7636962204724407
20
-4.6020626377952754
11
6.7683349999999995
21
-4.6067014173228342
0
LINE
8
BLACK
6
CONTINUOUS
10
6.7683349999999995
20
-4.6067014173228342
11
6.7719796456692913
21
-4.6121560236220471
0
LINE
8
BLACK
6
CONTINUOUS
10
6.7719796456692913
20
-4.6121560236220471
11
6.7744901181102364
21
-4.6182168503937007
0
LINE
8
BLACK
6
CONTINUOUS
10
6.7744901181102364
20
-4.6182168503937007
11
6.7757699606299209
21
-4.6246509842519687
0
LINE
8
BLACK
6
CONTINUOUS
10
6.7757699606299209
20
-4.6246509842519687
11
6.7757699606299209
21
-4.6312112204724407
0
LINE
8
BLACK
6
CONTINUOUS
10
6.7757699606299209
20
-4.6312112204724407
11
6.7744901181102364
21
-4.6376453543307088
0
LINE
8
BLACK
6
CONTINUOUS
10
6.7744901181102364
20
-4.6376453543307088
11
6.7719796456692913
21
-4.6437061811023623
0
LINE
8
BLACK
6
CONTINUOUS
10
6.7719796456692913
20
-4.6437061811023623
11
6.7683349999999995
21
-4.6491607874015743
0
LINE
8
BLACK
6
CONTINUOUS
10
6.7683349999999995
20
-4.6491607874015743
11
6.7636962204724407
21
-4.6537995669291341
0
LINE
8
BLACK
6
CONTINUOUS
10
6.7636962204724407
20
-4.6537995669291341
11
6.7582416141732278
21
-4.657444212598425
0
LINE
8
BLACK
6
CONTINUOUS
10
6.7582416141732278
20
-4.657444212598425
11
6.7521807874015742
21
-4.65995468503937
0
LINE
8
BLACK
6
CONTINUOUS
10
6.7521807874015742
20
-4.65995468503937
11
6.745746653543307
21
-4.6612345275590554
0
LINE
8
BLACK
6
CONTINUOUS
10
6.745746653543307
20
-4.6612345275590554
11
6.7391864173228342
21
-4.6612345275590554
0
LINE
8
BLACK
6
CONTINUOUS
10
6.7391864173228342
20
-4.6612345275590554
11
6.732752283464567
21
-4.65995468503937
0
LINE
8
BLACK
6
CONTINUOUS
10
6.732752283464567
20
-4.65995468503937
11
6.7266914566929135
21
-4.657444212598425
0
LINE
8
BLACK
6
CONTINUOUS
10
6.7266914566929135
20
-4.657444212598425
11
6.7212368503937006
21
-4.6537995669291341
0
LINE
8
BLACK
6
CONTINUOUS
10
6.7212368503937006
20
-4.6537995669291341
11
6.7165980708661417
21
-4.6491607874015743
0
LINE
8
BLACK
6
CONTINUOUS
10
6.7165980708661417
20
-4.6491607874015743
11
6.7129534251968499
21
-4.6437061811023623
0
LINE
8
BLACK
6
CONTINUOUS
10
6.7129534251968499
20
-4.6437061811023623
11
6.7104429527559057
21
-4.6376453543307088
0
LINE
8
BLACK
6
CONTINUOUS
10
6.7104429527559057
20
-4.6376453543307088
11
6.7091631102362204
21
-4.6312112204724407
0
LINE
8
BLACK
6
CONTINUOUS
10
6.7091631102362204
20
-4.6312112204724407
11
6.7091631102362204
21
-4.6246509842519687
0
LINE
8
BLACK
6
CONTINUOUS
10
6.7091631102362204
20
-4.6246509842519687
11
6.7104429527559057
21
-4.6182168503937007
0
LINE
8
BLACK
6
CONTINUOUS
10
6.7104429527559057
20
-4.6182168503937007
11
6.7129534251968499
21
-4.6121560236220471
0
LINE
8
BLACK
6
CONTINUOUS
10
6.7129534251968499
20
-4.6121560236220471
11
6.7165980708661417
21
-4.6067014173228342
0
LINE
8
BLACK
6
CONTINUOUS
10
6.7165980708661417
20
-4.6067014173228342
11
6.7212368503937006
21
-4.6020626377952754
0
LINE
8
BLACK
6
CONTINUOUS
10
6.7212368503937006
20
-4.6020626377952754
11
6.7266914566929135
21
-4.5984179921259845
0
LINE
8
BLACK
6
CONTINUOUS
10
6.7266914566929135
20
-4.5984179921259845
11
6.732752283464567
21
-4.5959075196850394
0
LINE
8
BLACK
6
CONTINUOUS
10
6.732752283464567
20
-4.5959075196850394
11
6.7391864173228342
21
-4.594627677165354
0
LINE
8
BLACK
6
CONTINUOUS
10
6.7391864173228342
20
-4.594627677165354
11
6.745746653543307
21
-4.594627677165354
0
LINE
8
BLACK
6
CONTINUOUS
10
6.745746653543307
20
-4.594627677165354
11
6.7521807874015742
21
-4.5959075196850394
0
LINE
8
BLACK
6
CONTINUOUS
10
6.129612322834646
20
-4.3998196062992125
11
6.131528188976378
21
-4.4010997637795271
0
LINE
8
BLACK
6
CONTINUOUS
10
6.131528188976378
20
-4.4010997637795271
11
6.1328083464566925
21
-4.4030156299212599
0
LINE
8
BLACK
6
CONTINUOUS
10
6.1328083464566925
20
-4.4030156299212599
11
6.1332578740157482
21
-4.4052755905511809
0
LINE
8
BLACK
6
CONTINUOUS
10
6.1332578740157482
20
-4.4052755905511809
11
6.1332578740157482
21
-4.4603937007874013
0
LINE
8
BLACK
6
CONTINUOUS
10
6.1332578740157482
20
-4.4603937007874013
11
6.1328083464566925
21
-4.4626536614173231
0
LINE
8
BLACK
6
CONTINUOUS
10
6.1328083464566925
20
-4.4626536614173231
11
6.131528188976378
21
-4.4645695275590551
0
LINE
8
BLACK
6
CONTINUOUS
10
6.131528188976378
20
-4.4645695275590551
11
6.129612322834646
21
-4.4658496850393696
0
LINE
8
BLACK
6
CONTINUOUS
10
6.129612322834646
20
-4.4658496850393696
11
6.1273523622047241
21
-4.4662992125984253
0
LINE
8
BLACK
6
CONTINUOUS
10
6.1273523622047241
20
-4.4662992125984253
11
6.1155413385826769
21
-4.4662992125984253
0
LINE
8
BLACK
6
CONTINUOUS
10
6.1155413385826769
20
-4.4662992125984253
11
6.1132813779527559
21
-4.4658496850393696
0
LINE
8
BLACK
6
CONTINUOUS
10
6.1132813779527559
20
-4.4658496850393696
11
6.1113655118110231
21
-4.4645695275590551
0
LINE
8
BLACK
6
CONTINUOUS
10
6.1113655118110231
20
-4.4645695275590551
11
6.1100853543307085
21
-4.4626536614173231
0
LINE
8
BLACK
6
CONTINUOUS
10
6.1100853543307085
20
-4.4626536614173231
11
6.1096358267716537
21
-4.4603937007874013
0
LINE
8
BLACK
6
CONTINUOUS
10
6.1096358267716537
20
-4.4603937007874013
11
6.1096358267716537
21
-4.4052755905511809
0
LINE
8
BLACK
6
CONTINUOUS
10
6.1096358267716537
20
-4.4052755905511809
11
6.1100853543307085
21
-4.4030156299212599
0
LINE
8
BLACK
6
CONTINUOUS
10
6.1100853543307085
20
-4.4030156299212599
11
6.1113655118110231
21
-4.4010997637795271
0
LINE
8
BLACK
6
CONTINUOUS
10
6.1113655118110231
20
-4.4010997637795271
11
6.1132813779527559
21
-4.3998196062992125
0
LINE
8
BLACK
6
CONTINUOUS
10
6.1132813779527559
20
-4.3998196062992125
11
6.1155413385826769
21
-4.3993700787401577
0
LINE
8
BLACK
6
CONTINUOUS
10
6.1155413385826769
20
-4.3993700787401577
11
6.1273523622047241
21
-4.3993700787401577
0
LINE
8
BLACK
6
CONTINUOUS
10
6.1273523622047241
20
-4.3993700787401577
11
6.129612322834646
21
-4.3998196062992125
0
LINE
8
BLACK
6
CONTINUOUS
10
6.1788249212598423
20
-4.3998196062992125
11
6.1807407874015743
21
-4.4010997637795271
0
LINE
8
BLACK
6
CONTINUOUS
10
6.1807407874015743
20
-4.4010997637795271
11
6.1820209448818897
21
-4.4030156299212599
0
LINE
8
BLACK
6
CONTINUOUS
10
6.1820209448818897
20
-4.4030156299212599
11
6.1824704724409445
21
-4.4052755905511809
0
LINE
8
BLACK
6
CONTINUOUS
10
6.1824704724409445
20
-4.4052755905511809
11
6.1824704724409445
21
-4.4603937007874013
0
LINE
8
BLACK
6
CONTINUOUS
10
6.1824704724409445
20
-4.4603937007874013
11
6.1820209448818897
21
-4.4626536614173231
0
LINE
8
BLACK
6
CONTINUOUS
10
6.1820209448818897
20
-4.4626536614173231
11
6.1807407874015743
21
-4.4645695275590551
0
LINE
8
BLACK
6
CONTINUOUS
10
6.1807407874015743
20
-4.4645695275590551
11
6.1788249212598423
21
-4.4658496850393696
0
LINE
8
BLACK
6
CONTINUOUS
10
6.1788249212598423
20
-4.4658496850393696
11
6.1765649606299213
21
-4.4662992125984253
0
LINE
8
BLACK
6
CONTINUOUS
10
6.1765649606299213
20
-4.4662992125984253
11
6.1647539370078741
21
-4.4662992125984253
0
LINE
8
BLACK
6
CONTINUOUS
10
6.1647539370078741
20
-4.4662992125984253
11
6.1624939763779523
21
-4.4658496850393696
0
LINE
8
BLACK
6
CONTINUOUS
10
6.1624939763779523
20
-4.4658496850393696
11
6.1605781102362203
21
-4.4645695275590551
0
LINE
8
BLACK
6
CONTINUOUS
10
6.1605781102362203
20
-4.4645695275590551
11
6.1592979527559057
21
-4.4626536614173231
0
LINE
8
BLACK
6
CONTINUOUS
10
6.1592979527559057
20
-4.4626536614173231
11
6.1588484251968501
21
-4.4603937007874013
0
LINE
8
BLACK
6
CONTINUOUS
10
6.1588484251968501
20
-4.4603937007874013
11
6.1588484251968501
21
-4.4052755905511809
0
LINE
8
BLACK
6
CONTINUOUS
10
6.1588484251968501
20
-4.4052755905511809
11
6.1592979527559057
21
-4.4030156299212599
0
LINE
8
BLACK
6
CONTINUOUS
10
6.1592979527559057
20
-4.4030156299212599
11
6.1605781102362203
21
-4.4010997637795271
0
LINE
8
BLACK
6
CONTINUOUS
10
6.1605781102362203
20
-4.4010997637795271
11
6.1624939763779523
21
-4.3998196062992125
0
LINE
8
BLACK
6
CONTINUOUS
10
6.1624939763779523
20
-4.3998196062992125
11
6.1647539370078741
21
-4.3993700787401577
0
LINE
8
BLACK
6
CONTINUOUS
10
6.1647539370078741
20
-4.3993700787401577
11
6.1765649606299213
21
-4.3993700787401577
0
LINE
8
BLACK
6
CONTINUOUS
10
6.1765649606299213
20
-4.3993700787401577
11
6.1788249212598423
21
-4.3998196062992125
0
LINE
8
BLACK
6
CONTINUOUS
10
6.2280375196850395
20
-4.3998196062992125
11
6.2299533858267715
21
-4.4010997637795271
0
LINE
8
BLACK
6
CONTINUOUS
10
6.2299533858267715
20
-4.4010997637795271
11
6.2312335433070869
21
-4.4030156299212599
0
LINE
8
BLACK
6
CONTINUOUS
10
6.2312335433070869
20
-4.4030156299212599
11
6.2316830708661417
21
-4.4052755905511809
0
LINE
8
BLACK
6
CONTINUOUS
10
6.2316830708661417
20
-4.4052755905511809
11
6.2316830708661417
21
-4.4603937007874013
0
LINE
8
BLACK
6
CONTINUOUS
10
6.2316830708661417
20
-4.4603937007874013
11
6.2312335433070869
21
-4.4626536614173231
0
LINE
8
BLACK
6
CONTINUOUS
10
6.2312335433070869
20
-4.4626536614173231
11
6.2299533858267715
21
-4.4645695275590551
0
LINE
8
BLACK
6
CONTINUOUS
10
6.2299533858267715
20
-4.4645695275590551
11
6.2280375196850395
21
-4.4658496850393696
0
LINE
8
BLACK
6
CONTINUOUS
10
6.2280375196850395
20
-4.4658496850393696
11
6.2257775590551176
21
-4.4662992125984253
0
LINE
8
BLACK
6
CONTINUOUS
10
6.2257775590551176
20
-4.4662992125984253
11
6.2139665354330704
21
-4.4662992125984253
0
LINE
8
BLACK
6
CONTINUOUS
10
6.2139665354330704
20
-4.4662992125984253
11
6.2117065748031495
21
-4.4658496850393696
0
LINE
8
BLACK
6
CONTINUOUS
10
6.2117065748031495
20
-4.4658496850393696
11
6.2097907086614175
21
-4.4645695275590551
0
LINE
8
BLACK
6
CONTINUOUS
10
6.2097907086614175
20
-4.4645695275590551
11
6.2085105511811021
21
-4.4626536614173231
0
LINE
8
BLACK
6
CONTINUOUS
10
6.2085105511811021
20
-4.4626536614173231
11
6.2080610236220473
21
-4.4603937007874013
0
LINE
8
BLACK
6
CONTINUOUS
10
6.2080610236220473
20
-4.4603937007874013
11
6.2080610236220473
21
-4.4052755905511809
0
LINE
8
BLACK
6
CONTINUOUS
10
6.2080610236220473
20
-4.4052755905511809
11
6.2085105511811021
21
-4.4030156299212599
0
LINE
8
BLACK
6
CONTINUOUS
10
6.2085105511811021
20
-4.4030156299212599
11
6.2097907086614175
21
-4.4010997637795271
0
LINE
8
BLACK
6
CONTINUOUS
10
6.2097907086614175
20
-4.4010997637795271
11
6.2117065748031495
21
-4.3998196062992125
0
LINE
8
BLACK
6
CONTINUOUS
10
6.2117065748031495
20
-4.3998196062992125
11
6.2139665354330704
21
-4.3993700787401577
0
LINE
8
BLACK
6
CONTINUOUS
10
6.2139665354330704
20
-4.3993700787401577
11
6.2257775590551176
21
-4.3993700787401577
0
LINE
8
BLACK
6
CONTINUOUS
10
6.2257775590551176
20
-4.3993700787401577
11
6.2280375196850395
21
-4.3998196062992125
0
LINE
8
BLACK
6
CONTINUOUS
10
6.2772501181102358
20
-4.3998196062992125
11
6.2791659842519687
21
-4.4010997637795271
0
LINE
8
BLACK
6
CONTINUOUS
10
6.2791659842519687
20
-4.4010997637795271
11
6.2804461417322832
21
-4.4030156299212599
0
LINE
8
BLACK
6
CONTINUOUS
10
6.2804461417322832
20
-4.4030156299212599
11
6.280895669291338
21
-4.4052755905511809
0
LINE
8
BLACK
6
CONTINUOUS
10
6.280895669291338
20
-4.4052755905511809
11
6.280895669291338
21
-4.4603937007874013
0
LINE
8
BLACK
6
CONTINUOUS
10
6.280895669291338
20
-4.4603937007874013
11
6.2804461417322832
21
-4.4626536614173231
0
LINE
8
BLACK
6
CONTINUOUS
10
6.2804461417322832
20
-4.4626536614173231
11
6.2791659842519687
21
-4.4645695275590551
0
LINE
8
BLACK
6
CONTINUOUS
10
6.2791659842519687
20
-4.4645695275590551
11
6.2772501181102358
21
-4.4658496850393696
0
LINE
8
BLACK
6
CONTINUOUS
10
6.2772501181102358
20
-4.4658496850393696
11
6.2749901574803149
21
-4.4662992125984253
0
LINE
8
BLACK
6
CONTINUOUS
10
6.2749901574803149
20
-4.4662992125984253
11
6.2631791338582676
21
-4.4662992125984253
0
LINE
8
BLACK
6
CONTINUOUS
10
6.2631791338582676
20
-4.4662992125984253
11
6.2609191732283467
21
-4.4658496850393696
0
LINE
8
BLACK
6
CONTINUOUS
10
6.2609191732283467
20
-4.4658496850393696
11
6.2590033070866138
21
-4.4645695275590551
0
LINE
8
BLACK
6
CONTINUOUS
10
6.2590033070866138
20
-4.4645695275590551
11
6.2577231496062993
21
-4.4626536614173231
0
LINE
8
BLACK
6
CONTINUOUS
10
6.2577231496062993
20
-4.4626536614173231
11
6.2572736220472436
21
-4.4603937007874013
0
LINE
8
BLACK
6
CONTINUOUS
10
6.2572736220472436
20
-4.4603937007874013
11
6.2572736220472436
21
-4.4052755905511809
0
LINE
8
BLACK
6
CONTINUOUS
10
6.2572736220472436
20
-4.4052755905511809
11
6.2577231496062993
21
-4.4030156299212599
0
LINE
8
BLACK
6
CONTINUOUS
10
6.2577231496062993
20
-4.4030156299212599
11
6.2590033070866138
21
-4.4010997637795271
0
LINE
8
BLACK
6
CONTINUOUS
10
6.2590033070866138
20
-4.4010997637795271
11
6.2609191732283467
21
-4.3998196062992125
0
LINE
8
BLACK
6
CONTINUOUS
10
6.2609191732283467
20
-4.3998196062992125
11
6.2631791338582676
21
-4.3993700787401577
0
LINE
8
BLACK
6
CONTINUOUS
10
6.2631791338582676
20
-4.3993700787401577
11
6.2749901574803149
21
-4.3993700787401577
0
LINE
8
BLACK
6
CONTINUOUS
10
6.2749901574803149
20
-4.3993700787401577
11
6.2772501181102358
21
-4.3998196062992125
0
LINE
8
BLACK
6
CONTINUOUS
10
6.326462716535433
20
-4.3998196062992125
11
6.328378582677165
21
-4.4010997637795271
0
LINE
8
BLACK
6
CONTINUOUS
10
6.328378582677165
20
-4.4010997637795271
11
6.3296587401574804
21
-4.4030156299212599
0
LINE
8
BLACK
6
CONTINUOUS
10
6.3296587401574804
20
-4.4030156299212599
11
6.3301082677165352
21
-4.4052755905511809
0
LINE
8
BLACK
6
CONTINUOUS
10
6.3301082677165352
20
-4.4052755905511809
11
6.3301082677165352
21
-4.4603937007874013
0
LINE
8
BLACK
6
CONTINUOUS
10
6.3301082677165352
20
-4.4603937007874013
11
6.3296587401574804
21
-4.4626536614173231
0
LINE
8
BLACK
6
CONTINUOUS
10
6.3296587401574804
20
-4.4626536614173231
11
6.328378582677165
21
-4.4645695275590551
0
LINE
8
BLACK
6
CONTINUOUS
10
6.328378582677165
20
-4.4645695275590551
11
6.326462716535433
21
-4.4658496850393696
0
LINE
8
BLACK
6
CONTINUOUS
10
6.326462716535433
20
-4.4658496850393696
11
6.3242027559055121
21
-4.4662992125984253
0
LINE
8
BLACK
6
CONTINUOUS
10
6.3242027559055121
20
-4.4662992125984253
11
6.3123917322834648
21
-4.4662992125984253
0
LINE
8
BLACK
6
CONTINUOUS
10
6.3123917322834648
20
-4.4662992125984253
11
6.310131771653543
21
-4.4658496850393696
0
LINE
8
BLACK
6
CONTINUOUS
10
6.310131771653543
20
-4.4658496850393696
11
6.308215905511811
21
-4.4645695275590551
0
LINE
8
BLACK
6
CONTINUOUS
10
6.308215905511811
20
-4.4645695275590551
11
6.3069357480314956
21
-4.4626536614173231
0
LINE
8
BLACK
6
CONTINUOUS
10
6.3069357480314956
20
-4.4626536614173231
11
6.3064862204724408
21
-4.4603937007874013
0
LINE
8
BLACK
6
CONTINUOUS
10
6.3064862204724408
20
-4.4603937007874013
11
6.3064862204724408
21
-4.4052755905511809
0
LINE
8
BLACK
6
CONTINUOUS
10
6.3064862204724408
20
-4.4052755905511809
11
6.3069357480314956
21
-4.4030156299212599
0
LINE
8
BLACK
6
CONTINUOUS
10
6.3069357480314956
20
-4.4030156299212599
11
6.308215905511811
21
-4.4010997637795271
0
LINE
8
BLACK
6
CONTINUOUS
10
6.308215905511811
20
-4.4010997637795271
11
6.310131771653543
21
-4.3998196062992125
0
LINE
8
BLACK
6
CONTINUOUS
10
6.310131771653543
20
-4.3998196062992125
11
6.3123917322834648
21
-4.3993700787401577
0
LINE
8
BLACK
6
CONTINUOUS
10
6.3123917322834648
20
-4.3993700787401577
11
6.3242027559055121
21
-4.3993700787401577
0
LINE
8
BLACK
6
CONTINUOUS
10
6.3242027559055121
20
-4.3993700787401577
11
6.326462716535433
21
-4.3998196062992125
0
LINE
8
BLACK
6
CONTINUOUS
10
6.3756753149606293
20
-4.3998196062992125
11
6.3775911811023622
21
-4.4010997637795271
0
LINE
8
BLACK
6
CONTINUOUS
10
6.3775911811023622
20
-4.4010997637795271
11
6.3788713385826767
21
-4.4030156299212599
0
LINE
8
BLACK
6
CONTINUOUS
10
6.3788713385826767
20
-4.4030156299212599
11
6.3793208661417324
21
-4.4052755905511809
0
LINE
8
BLACK
6
CONTINUOUS
10
6.3793208661417324
20
-4.4052755905511809
11
6.3793208661417324
21
-4.4603937007874013
0
LINE
8
BLACK
6
CONTINUOUS
10
6.3793208661417324
20
-4.4603937007874013
11
6.3788713385826767
21
-4.4626536614173231
0
LINE
8
BLACK
6
CONTINUOUS
10
6.3788713385826767
20
-4.4626536614173231
11
6.3775911811023622
21
-4.4645695275590551
0
LINE
8
BLACK
6
CONTINUOUS
10
6.3775911811023622
20
-4.4645695275590551
11
6.3756753149606293
21
-4.4658496850393696
0
LINE
8
BLACK
6
CONTINUOUS
10
6.3756753149606293
20
-4.4658496850393696
11
6.3734153543307084
21
-4.4662992125984253
0
LINE
8
BLACK
6
CONTINUOUS
10
6.3734153543307084
20
-4.4662992125984253
11
6.3616043307086612
21
-4.4662992125984253
0
LINE
8
BLACK
6
CONTINUOUS
10
6.3616043307086612
20
-4.4662992125984253
11
6.3593443700787402
21
-4.4658496850393696
0
LINE
8
BLACK
6
CONTINUOUS
10
6.3593443700787402
20
-4.4658496850393696
11
6.3574285039370073
21
-4.4645695275590551
0
LINE
8
BLACK
6
CONTINUOUS
10
6.3574285039370073
20
-4.4645695275590551
11
6.3561483464566928
21
-4.4626536614173231
0
LINE
8
BLACK
6
CONTINUOUS
10
6.3561483464566928
20
-4.4626536614173231
11
6.355698818897638
21
-4.4603937007874013
0
LINE
8
BLACK
6
CONTINUOUS
10
6.355698818897638
20
-4.4603937007874013
11
6.355698818897638
21
-4.4052755905511809
0
LINE
8
BLACK
6
CONTINUOUS
10
6.355698818897638
20
-4.4052755905511809
11
6.3561483464566928
21
-4.4030156299212599
0
LINE
8
BLACK
6
CONTINUOUS
10
6.3561483464566928
20
-4.4030156299212599
11
6.3574285039370073
21
-4.4010997637795271
0
LINE
8
BLACK
6
CONTINUOUS
10
6.3574285039370073
20
-4.4010997637795271
11
6.3593443700787402
21
-4.3998196062992125
0
LINE
8
BLACK
6
CONTINUOUS
10
6.3593443700787402
20
-4.3998196062992125
11
6.3616043307086612
21
-4.3993700787401577
0
LINE
8
BLACK
6
CONTINUOUS
10
6.3616043307086612
20
-4.3993700787401577
11
6.3734153543307084
21
-4.3993700787401577
0
LINE
8
BLACK
6
CONTINUOUS
10
6.3734153543307084
20
-4.3993700787401577
11
6.3756753149606293
21
-4.3998196062992125
0
LINE
8
BLACK
6
CONTINUOUS
10
6.0622212992125979
20
-4.2544500000000003
11
6.0654144488188972
21
-4.2565835826771652
0
LINE
8
BLACK
6
CONTINUOUS
10
6.0654144488188972
20
-4.2565835826771652
11
6.067548031496063
21
-4.2597767322834645
0
LINE
8
BLACK
6
CONTINUOUS
10
6.067548031496063
20
-4.2597767322834645
11
6.068297244094488
21
-4.2635433070866142
0
LINE
8
BLACK
6
CONTINUOUS
10
6.068297244094488
20
-4.2635433070866142
11
6.068297244094488
21
-4.3501574803149605
0
LINE
8
BLACK
6
CONTINUOUS
10
6.068297244094488
20
-4.3501574803149605
11
6.067548031496063
21
-4.3539240551181102
0
LINE
8
BLACK
6
CONTINUOUS
10
6.067548031496063
20
-4.3539240551181102
11
6.0654144488188972
21
-4.3571172047244096
0
LINE
8
BLACK
6
CONTINUOUS
10
6.0654144488188972
20
-4.3571172047244096
11
6.0622212992125979
21
-4.3592507874015745
0
LINE
8
BLACK
6
CONTINUOUS
10
6.0622212992125979
20
-4.3592507874015745
11
6.0584547244094491
21
-4.3600000000000003
0
LINE
8
BLACK
6
CONTINUOUS
10
6.0584547244094491
20
-4.3600000000000003
11
6.0387696850393695
21
-4.3600000000000003
0
LINE
8
BLACK
6
CONTINUOUS
10
6.0387696850393695
20
-4.3600000000000003
11
6.0350031102362207
21
-4.3592507874015745
0
LINE
8
BLACK
6
CONTINUOUS
10
6.0350031102362207
20
-4.3592507874015745
11
6.0318099606299214
21
-4.3571172047244096
0
LINE
8
BLACK
6
CONTINUOUS
10
6.0318099606299214
20
-4.3571172047244096
11
6.0296763779527556
21
-4.3539240551181102
0
LINE
8
BLACK
6
CONTINUOUS
10
6.0296763779527556
20
-4.3539240551181102
11
6.0289271653543306
21
-4.3501574803149605
0
LINE
8
BLACK
6
CONTINUOUS
10
6.0289271653543306
20
-4.3501574803149605
11
6.0289271653543306
21
-4.2635433070866142
0
LINE
8
BLACK
6
CONTINUOUS
10
6.0289271653543306
20
-4.2635433070866142
11
6.0296763779527556
21
-4.2597767322834645
0
LINE
8
BLACK
6
CONTINUOUS
10
6.0296763779527556
20
-4.2597767322834645
11
6.0318099606299214
21
-4.2565835826771652
0
LINE
8
BLACK
6
CONTINUOUS
10
6.0318099606299214
20
-4.2565835826771652
11
6.0350031102362207
21
-4.2544500000000003
0
LINE
8
BLACK
6
CONTINUOUS
10
6.0350031102362207
20
-4.2544500000000003
11
6.0387696850393695
21
-4.2537007874015744
0
LINE
8
BLACK
6
CONTINUOUS
10
6.0387696850393695
20
-4.2537007874015744
11
6.0584547244094491
21
-4.2537007874015744
0
LINE
8
BLACK
6
CONTINUOUS
10
6.0584547244094491
20
-4.2537007874015744
11
6.0622212992125979
21
-4.2544500000000003
0
LINE
8
BLACK
6
CONTINUOUS
10
6.4539535826771655
20
-4.2544500000000003
11
6.4571467322834648
21
-4.2565835826771652
0
LINE
8
BLACK
6
CONTINUOUS
10
6.4571467322834648
20
-4.2565835826771652
11
6.4592803149606297
21
-4.2597767322834645
0
LINE
8
BLACK
6
CONTINUOUS
10
6.4592803149606297
20
-4.2597767322834645
11
6.4600295275590547
21
-4.2635433070866142
0
LINE
8
BLACK
6
CONTINUOUS
10
6.4600295275590547
20
-4.2635433070866142
11
6.4600295275590547
21
-4.3501574803149605
0
LINE
8
BLACK
6
CONTINUOUS
10
6.4600295275590547
20
-4.3501574803149605
11
6.4592803149606297
21
-4.3539240551181102
0
LINE
8
BLACK
6
CONTINUOUS
10
6.4592803149606297
20
-4.3539240551181102
11
6.4571467322834648
21
-4.3571172047244096
0
LINE
8
BLACK
6
CONTINUOUS
10
6.4571467322834648
20
-4.3571172047244096
11
6.4539535826771655
21
-4.3592507874015745
0
LINE
8
BLACK
6
CONTINUOUS
10
6.4539535826771655
20
-4.3592507874015745
11
6.4501870078740158
21
-4.3600000000000003
0
LINE
8
BLACK
6
CONTINUOUS
10
6.4501870078740158
20
-4.3600000000000003
11
6.4305019685039371
21
-4.3600000000000003
0
LINE
8
BLACK
6
CONTINUOUS
10
6.4305019685039371
20
-4.3600000000000003
11
6.4267353937007874
21
-4.3592507874015745
0
LINE
8
BLACK
6
CONTINUOUS
10
6.4267353937007874
20
-4.3592507874015745
11
6.423542244094488
21
-4.3571172047244096
0
LINE
8
BLACK
6
CONTINUOUS
10
6.423542244094488
20
-4.3571172047244096
11
6.4214086614173223
21
-4.3539240551181102
0
LINE
8
BLACK
6
CONTINUOUS
10
6.4214086614173223
20
-4.3539240551181102
11
6.4206594488188973
21
-4.3501574803149605
0
LINE
8
BLACK
6
CONTINUOUS
10
6.4206594488188973
20
-4.3501574803149605
11
6.4206594488188973
21
-4.2635433070866142
0
LINE
8
BLACK
6
CONTINUOUS
10
6.4206594488188973
20
-4.2635433070866142
11
6.4214086614173223
21
-4.2597767322834645
0
LINE
8
BLACK
6
CONTINUOUS
10
6.4214086614173223
20
-4.2597767322834645
11
6.423542244094488
21
-4.2565835826771652
0
LINE
8
BLACK
6
CONTINUOUS
10
6.423542244094488
20
-4.2565835826771652
11
6.4267353937007874
21
-4.2544500000000003
0
LINE
8
BLACK
6
CONTINUOUS
10
6.4267353937007874
20
-4.2544500000000003
11
6.4305019685039371
21
-4.2537007874015744
0
LINE
8
BLACK
6
CONTINUOUS
10
6.4305019685039371
20
-4.2537007874015744
11
6.4501870078740158
21
-4.2537007874015744
0
LINE
8
BLACK
6
CONTINUOUS
10
6.4501870078740158
20
-4.2537007874015744
11
6.4539535826771655
21
-4.2544500000000003
0
CIRCLE
8
BLACK
10
4.4424665354330708
20
-4.6279311023622043
40
0.0068897637795276
0
CIRCLE
8
BLACK
10
4.5424665354330704
20
-4.6279311023622043
40
0.0068897637795276
0
CIRCLE
8
BLACK
10
4.6424664960629922
20
-4.6279311023622043
40
0.0068897637795276
0
CIRCLE
8
BLACK
10
4.7424665354330706
20
-4.6279311023622043
40
0.0068897637795276
0
CIRCLE
8
BLACK
10
4.8424665354330712
20
-4.6279311023622043
40
0.0068897637795276
0
CIRCLE
8
BLACK
10
4.9424665354330708
20
-4.6279311023622043
40
0.0068897637795276
0
CIRCLE
8
BLACK
10
5.0424665354330704
20
-4.6279311023622043
40
0.0068897637795276
0
CIRCLE
8
BLACK
10
5.1424665748031497
20
-4.6279311023622043
40
0.0068897637795276
0
CIRCLE
8
BLACK
10
5.8424665354330712
20
-4.6279311023622043
40
0.0068897637795276
0
CIRCLE
8
BLACK
10
5.942466496062992
20
-4.6279311023622043
40
0.0068897637795276
0
CIRCLE
8
BLACK
10
6.0424665748031492
20
-4.6279311023622043
40
0.0068897637795276
0
CIRCLE
8
BLACK
10
6.142466535433071
20
-4.6279311023622043
40
0.0068897637795276
0
CIRCLE
8
BLACK
10
6.2424665354330706
20
-4.6279311023622043
40
0.0068897637795276
0
CIRCLE
8
BLACK
10
6.3424665354330712
20
-4.6279311023622043
40
0.0068897637795276
0
CIRCLE
8
BLACK
10
6.442466496062992
20
-4.6279311023622043
40
0.0068897637795276
0
CIRCLE
8
BLACK
10
6.5424665354330704
20
-4.6279311023622043
40
0.0068897637795276
0
CIRCLE
8
BLACK
10
6.642466535433071
20
-4.6279311023622043
40
0.0068897637795276
0
CIRCLE
8
BLACK
10
6.7424665354330706
20
-4.6279311023622043
40
0.0068897637795276
0
CIRCLE
8
BLACK
10
5.5800000000000001
20
-4.6626377952755904
40
0.0068897637795276
0
CIRCLE
8
BLACK
10
5.4799999999999995
20
-4.6626377952755904
40
0.0068897637795276
0
CIRCLE
8
BLACK
10
5.3800000393700786
20
-4.6626377952755904
40
0.0068897637795276
0
CIRCLE
8
WHITE
10
4.4424665354330708
20
-4.6279311023622043
40
0.0068897637795276
0
CIRCLE
8
WHITE
10
4.5424665354330704
20
-4.6279311023622043
40
0.0068897637795276
0
CIRCLE
8
WHITE
10
4.6424664960629922
20
-4.6279311023622043
40
0.0068897637795276
0
CIRCLE
8
WHITE
10
4.7424665354330706
20
-4.6279311023622043
40
0.0068897637795276
0
CIRCLE
8
WHITE
10
4.8424665354330712
20
-4.6279311023622043
40
0.0068897637795276
0
CIRCLE
8
WHITE
10
4.9424665354330708
20
-4.6279311023622043
40
0.0068897637795276
0
CIRCLE
8
WHITE
10
5.0424665354330704
20
-4.6279311023622043
40
0.0068897637795276
0
CIRCLE
8
WHITE
10
5.1424665748031497
20
-4.6279311023622043
40
0.0068897637795276
0
CIRCLE
8
WHITE
10
5.8424665354330712
20
-4.6279311023622043
40
0.0068897637795276
0
CIRCLE
8
WHITE
10
5.942466496062992
20
-4.6279311023622043
40
0.0068897637795276
0
CIRCLE
8
WHITE
10
6.0424665748031492
20
-4.6279311023622043
40
0.0068897637795276
0
CIRCLE
8
WHITE
10
6.142466535433071
20
-4.6279311023622043
40
0.0068897637795276
0
CIRCLE
8
WHITE
10
6.2424665354330706
20
-4.6279311023622043
40
0.0068897637795276
0
CIRCLE
8
WHITE
10
6.3424665354330712
20
-4.6279311023622043
40
0.0068897637795276
0
CIRCLE
8
WHITE
10
6.442466496062992
20
-4.6279311023622043
40
0.0068897637795276
0
CIRCLE
8
WHITE
10
6.5424665354330704
20
-4.6279311023622043
40
0.0068897637795276
0
CIRCLE
8
WHITE
10
6.642466535433071
20
-4.6279311023622043
40
0.0068897637795276
0
CIRCLE
8
WHITE
10
6.7424665354330706
20
-4.6279311023622043
40
0.0068897637795276
0
CIRCLE
8
WHITE
10
5.5800000000000001
20
-4.6626377952755904
40
0.0068897637795276
0
CIRCLE
8
WHITE
10
5.4799999999999995
20
-4.6626377952755904
40
0.0068897637795276
0
CIRCLE
8
WHITE
10
5.3800000393700786
20
-4.6626377952755904
40
0.0068897637795276
  0
ENDSEC
  0
EOF
