  0
SECTION
  2
HEADER
  9
$ANGBASE
  50
0.0
  9
$ANGDIR
  70
1
  9
$MEASUREMENT
  70
0
  0
ENDSEC
  0
SECTION
  2
TABLES
  0
TABLE
  2
LTYPE
  70
4
  0
LTYPE
  5
40F
  2
CONTINUOUS
  70
0
  3
Solid line
  72
65
  73
0
  40
0.0
  0
LTYPE
  5
410
  2
DASHDOT
 70
0
  3
Dash Dot ____ _ ____ _
 72
65
 73
4
 40
2.0
 49
1.25
 49
-0.25
 49
0.25
 49
-0.25
  0
LTYPE
  5
411
  2
DASHED
 70
0
  3
Dashed __ __ __ __ __
 72
65
 73
2
 40
0.75
 49
0.5
 49
-0.25
  0
LTYPE
  5
43B
  2
DOTTED
 70
0
  3
Dotted .  .  .  .
 72
65
 73
2
 40
0.2
 49
0.0
 49
-0.2
  0
ENDTAB
  0
TABLE
  2
STYLE
  70
4
  0
STYLE
  2
KICAD
  70
0
  40
0
  41
1
  42
1
  50
0
  71
0
  3
isocp.shx
  0
STYLE
  2
KICADB
  70
0
  40
0
  41
1
  42
1
  50
0
  71
0
  3
isocp.shx
  0
STYLE
  2
KICADI
  70
0
  40
0
  41
1
  42
1
  50
15
  71
0
  3
isocp.shx
  0
STYLE
  2
KICADBI
  70
0
  40
0
  41
1
  42
1
  50
15
  71
0
  3
isocp.shx
  0
ENDTAB
  0
TABLE
  2
LAYER
  70
1
  0
LAYER
  2
BLACK
  70
0
  62
7
  6
CONTINUOUS
  0
ENDTAB
  0
ENDSEC
  0
SECTION
  2
ENTITIES
0
LINE
8
BLACK
6
CONTINUOUS
10
4.4657480314960631
20
-4.4822834645669287
11
4.3988188976377955
21
-4.4822834645669287
0
LINE
8
BLACK
6
CONTINUOUS
10
4.3988188976377955
20
-4.4822834645669287
11
4.3988188976377955
21
-4.4153543307086611
0
LINE
8
BLACK
6
CONTINUOUS
10
4.3988188976377955
20
-4.4153543307086611
11
4.4657480314960631
21
-4.4153543307086611
0
LINE
8
BLACK
6
CONTINUOUS
10
4.4657480314960631
20
-4.4153543307086611
11
4.4657480314960631
21
-4.4822834645669287
0
LINE
8
BLACK
6
CONTINUOUS
10
4.541997716535433
20
-4.4167953149606296
11
4.5480585433070866
21
-4.4193057874015746
0
LINE
8
BLACK
6
CONTINUOUS
10
4.5480585433070866
20
-4.4193057874015746
11
4.5535131496062995
21
-4.4229504330708664
0
LINE
8
BLACK
6
CONTINUOUS
10
4.5535131496062995
20
-4.4229504330708664
11
4.5581519291338584
21
-4.4275892125984253
0
LINE
8
BLACK
6
CONTINUOUS
10
4.5581519291338584
20
-4.4275892125984253
11
4.5617965748031493
21
-4.4330438188976373
0
LINE
8
BLACK
6
CONTINUOUS
10
4.5617965748031493
20
-4.4330438188976373
11
4.5643070472440943
21
-4.4391046456692909
0
LINE
8
BLACK
6
CONTINUOUS
10
4.5643070472440943
20
-4.4391046456692909
11
4.5655868897637797
21
-4.4455387795275589
0
LINE
8
BLACK
6
CONTINUOUS
10
4.5655868897637797
20
-4.4455387795275589
11
4.5655868897637797
21
-4.4520990157480318
0
LINE
8
BLACK
6
CONTINUOUS
10
4.5655868897637797
20
-4.4520990157480318
11
4.5643070472440943
21
-4.458533149606299
0
LINE
8
BLACK
6
CONTINUOUS
10
4.5643070472440943
20
-4.458533149606299
11
4.5617965748031493
21
-4.4645939763779525
0
LINE
8
BLACK
6
CONTINUOUS
10
4.5617965748031493
20
-4.4645939763779525
11
4.5581519291338584
21
-4.4700485826771654
0
LINE
8
BLACK
6
CONTINUOUS
10
4.5581519291338584
20
-4.4700485826771654
11
4.5535131496062995
21
-4.4746873622047243
0
LINE
8
BLACK
6
CONTINUOUS
10
4.5535131496062995
20
-4.4746873622047243
11
4.5480585433070866
21
-4.4783320078740161
0
LINE
8
BLACK
6
CONTINUOUS
10
4.5480585433070866
20
-4.4783320078740161
11
4.541997716535433
21
-4.4808424803149602
0
LINE
8
BLACK
6
CONTINUOUS
10
4.541997716535433
20
-4.4808424803149602
11
4.535563582677165
21
-4.4821223228346456
0
LINE
8
BLACK
6
CONTINUOUS
10
4.535563582677165
20
-4.4821223228346456
11
4.529003346456693
21
-4.4821223228346456
0
LINE
8
BLACK
6
CONTINUOUS
10
4.529003346456693
20
-4.4821223228346456
11
4.5225692125984249
21
-4.4808424803149602
0
LINE
8
BLACK
6
CONTINUOUS
10
4.5225692125984249
20
-4.4808424803149602
11
4.5165083858267714
21
-4.4783320078740161
0
LINE
8
BLACK
6
CONTINUOUS
10
4.5165083858267714
20
-4.4783320078740161
11
4.5110537795275594
21
-4.4746873622047243
0
LINE
8
BLACK
6
CONTINUOUS
10
4.5110537795275594
20
-4.4746873622047243
11
4.5064149999999996
21
-4.4700485826771654
0
LINE
8
BLACK
6
CONTINUOUS
10
4.5064149999999996
20
-4.4700485826771654
11
4.5027703543307087
21
-4.4645939763779525
0
LINE
8
BLACK
6
CONTINUOUS
10
4.5027703543307087
20
-4.4645939763779525
11
4.5002598818897637
21
-4.458533149606299
0
LINE
8
BLACK
6
CONTINUOUS
10
4.5002598818897637
20
-4.458533149606299
11
4.4989800393700783
21
-4.4520990157480318
0
LINE
8
BLACK
6
CONTINUOUS
10
4.4989800393700783
20
-4.4520990157480318
11
4.4989800393700783
21
-4.4455387795275589
0
LINE
8
BLACK
6
CONTINUOUS
10
4.4989800393700783
20
-4.4455387795275589
11
4.5002598818897637
21
-4.4391046456692909
0
LINE
8
BLACK
6
CONTINUOUS
10
4.5002598818897637
20
-4.4391046456692909
11
4.5027703543307087
21
-4.4330438188976373
0
LINE
8
BLACK
6
CONTINUOUS
10
4.5027703543307087
20
-4.4330438188976373
11
4.5064149999999996
21
-4.4275892125984253
0
LINE
8
BLACK
6
CONTINUOUS
10
4.5064149999999996
20
-4.4275892125984253
11
4.5110537795275594
21
-4.4229504330708664
0
LINE
8
BLACK
6
CONTINUOUS
10
4.5110537795275594
20
-4.4229504330708664
11
4.5165083858267714
21
-4.4193057874015746
0
LINE
8
BLACK
6
CONTINUOUS
10
4.5165083858267714
20
-4.4193057874015746
11
4.5225692125984249
21
-4.4167953149606296
0
LINE
8
BLACK
6
CONTINUOUS
10
4.5225692125984249
20
-4.4167953149606296
11
4.529003346456693
21
-4.4155154724409451
0
LINE
8
BLACK
6
CONTINUOUS
10
4.529003346456693
20
-4.4155154724409451
11
4.535563582677165
21
-4.4155154724409451
0
LINE
8
BLACK
6
CONTINUOUS
10
4.535563582677165
20
-4.4155154724409451
11
4.541997716535433
21
-4.4167953149606296
0
LINE
8
BLACK
6
CONTINUOUS
10
4.6419977165354327
20
-4.4167953149606296
11
4.6480585433070862
21
-4.4193057874015746
0
LINE
8
BLACK
6
CONTINUOUS
10
4.6480585433070862
20
-4.4193057874015746
11
4.6535131496062991
21
-4.4229504330708664
0
LINE
8
BLACK
6
CONTINUOUS
10
4.6535131496062991
20
-4.4229504330708664
11
4.658151929133858
21
-4.4275892125984253
0
LINE
8
BLACK
6
CONTINUOUS
10
4.658151929133858
20
-4.4275892125984253
11
4.6617965748031498
21
-4.4330438188976373
0
LINE
8
BLACK
6
CONTINUOUS
10
4.6617965748031498
20
-4.4330438188976373
11
4.664307047244094
21
-4.4391046456692909
0
LINE
8
BLACK
6
CONTINUOUS
10
4.664307047244094
20
-4.4391046456692909
11
4.6655868897637793
21
-4.4455387795275589
0
LINE
8
BLACK
6
CONTINUOUS
10
4.6655868897637793
20
-4.4455387795275589
11
4.6655868897637793
21
-4.4520990157480318
0
LINE
8
BLACK
6
CONTINUOUS
10
4.6655868897637793
20
-4.4520990157480318
11
4.664307047244094
21
-4.458533149606299
0
LINE
8
BLACK
6
CONTINUOUS
10
4.664307047244094
20
-4.458533149606299
11
4.6617965748031498
21
-4.4645939763779525
0
LINE
8
BLACK
6
CONTINUOUS
10
4.6617965748031498
20
-4.4645939763779525
11
4.658151929133858
21
-4.4700485826771654
0
LINE
8
BLACK
6
CONTINUOUS
10
4.658151929133858
20
-4.4700485826771654
11
4.6535131496062991
21
-4.4746873622047243
0
LINE
8
BLACK
6
CONTINUOUS
10
4.6535131496062991
20
-4.4746873622047243
11
4.6480585433070862
21
-4.4783320078740161
0
LINE
8
BLACK
6
CONTINUOUS
10
4.6480585433070862
20
-4.4783320078740161
11
4.6419977165354327
21
-4.4808424803149602
0
LINE
8
BLACK
6
CONTINUOUS
10
4.6419977165354327
20
-4.4808424803149602
11
4.6355635826771655
21
-4.4821223228346456
0
LINE
8
BLACK
6
CONTINUOUS
10
4.6355635826771655
20
-4.4821223228346456
11
4.6290033464566926
21
-4.4821223228346456
0
LINE
8
BLACK
6
CONTINUOUS
10
4.6290033464566926
20
-4.4821223228346456
11
4.6225692125984255
21
-4.4808424803149602
0
LINE
8
BLACK
6
CONTINUOUS
10
4.6225692125984255
20
-4.4808424803149602
11
4.6165083858267719
21
-4.4783320078740161
0
LINE
8
BLACK
6
CONTINUOUS
10
4.6165083858267719
20
-4.4783320078740161
11
4.611053779527559
21
-4.4746873622047243
0
LINE
8
BLACK
6
CONTINUOUS
10
4.611053779527559
20
-4.4746873622047243
11
4.6064150000000001
21
-4.4700485826771654
0
LINE
8
BLACK
6
CONTINUOUS
10
4.6064150000000001
20
-4.4700485826771654
11
4.6027703543307084
21
-4.4645939763779525
0
LINE
8
BLACK
6
CONTINUOUS
10
4.6027703543307084
20
-4.4645939763779525
11
4.6002598818897633
21
-4.458533149606299
0
LINE
8
BLACK
6
CONTINUOUS
10
4.6002598818897633
20
-4.458533149606299
11
4.5989800393700788
21
-4.4520990157480318
0
LINE
8
BLACK
6
CONTINUOUS
10
4.5989800393700788
20
-4.4520990157480318
11
4.5989800393700788
21
-4.4455387795275589
0
LINE
8
BLACK
6
CONTINUOUS
10
4.5989800393700788
20
-4.4455387795275589
11
4.6002598818897633
21
-4.4391046456692909
0
LINE
8
BLACK
6
CONTINUOUS
10
4.6002598818897633
20
-4.4391046456692909
11
4.6027703543307084
21
-4.4330438188976373
0
LINE
8
BLACK
6
CONTINUOUS
10
4.6027703543307084
20
-4.4330438188976373
11
4.6064150000000001
21
-4.4275892125984253
0
LINE
8
BLACK
6
CONTINUOUS
10
4.6064150000000001
20
-4.4275892125984253
11
4.611053779527559
21
-4.4229504330708664
0
LINE
8
BLACK
6
CONTINUOUS
10
4.611053779527559
20
-4.4229504330708664
11
4.6165083858267719
21
-4.4193057874015746
0
LINE
8
BLACK
6
CONTINUOUS
10
4.6165083858267719
20
-4.4193057874015746
11
4.6225692125984255
21
-4.4167953149606296
0
LINE
8
BLACK
6
CONTINUOUS
10
4.6225692125984255
20
-4.4167953149606296
11
4.6290033464566926
21
-4.4155154724409451
0
LINE
8
BLACK
6
CONTINUOUS
10
4.6290033464566926
20
-4.4155154724409451
11
4.6355635826771655
21
-4.4155154724409451
0
LINE
8
BLACK
6
CONTINUOUS
10
4.6355635826771655
20
-4.4155154724409451
11
4.6419977165354327
21
-4.4167953149606296
0
LINE
8
BLACK
6
CONTINUOUS
10
4.7419977165354332
20
-4.4167953149606296
11
4.7480585433070868
21
-4.4193057874015746
0
LINE
8
BLACK
6
CONTINUOUS
10
4.7480585433070868
20
-4.4193057874015746
11
4.7535131496062988
21
-4.4229504330708664
0
LINE
8
BLACK
6
CONTINUOUS
10
4.7535131496062988
20
-4.4229504330708664
11
4.7581519291338585
21
-4.4275892125984253
0
LINE
8
BLACK
6
CONTINUOUS
10
4.7581519291338585
20
-4.4275892125984253
11
4.7617965748031494
21
-4.4330438188976373
0
LINE
8
BLACK
6
CONTINUOUS
10
4.7617965748031494
20
-4.4330438188976373
11
4.7643070472440945
21
-4.4391046456692909
0
LINE
8
BLACK
6
CONTINUOUS
10
4.7643070472440945
20
-4.4391046456692909
11
4.765586889763779
21
-4.4455387795275589
0
LINE
8
BLACK
6
CONTINUOUS
10
4.765586889763779
20
-4.4455387795275589
11
4.765586889763779
21
-4.4520990157480318
0
LINE
8
BLACK
6
CONTINUOUS
10
4.765586889763779
20
-4.4520990157480318
11
4.7643070472440945
21
-4.458533149606299
0
LINE
8
BLACK
6
CONTINUOUS
10
4.7643070472440945
20
-4.458533149606299
11
4.7617965748031494
21
-4.4645939763779525
0
LINE
8
BLACK
6
CONTINUOUS
10
4.7617965748031494
20
-4.4645939763779525
11
4.7581519291338585
21
-4.4700485826771654
0
LINE
8
BLACK
6
CONTINUOUS
10
4.7581519291338585
20
-4.4700485826771654
11
4.7535131496062988
21
-4.4746873622047243
0
LINE
8
BLACK
6
CONTINUOUS
10
4.7535131496062988
20
-4.4746873622047243
11
4.7480585433070868
21
-4.4783320078740161
0
LINE
8
BLACK
6
CONTINUOUS
10
4.7480585433070868
20
-4.4783320078740161
11
4.7419977165354332
21
-4.4808424803149602
0
LINE
8
BLACK
6
CONTINUOUS
10
4.7419977165354332
20
-4.4808424803149602
11
4.7355635826771652
21
-4.4821223228346456
0
LINE
8
BLACK
6
CONTINUOUS
10
4.7355635826771652
20
-4.4821223228346456
11
4.7290033464566932
21
-4.4821223228346456
0
LINE
8
BLACK
6
CONTINUOUS
10
4.7290033464566932
20
-4.4821223228346456
11
4.7225692125984251
21
-4.4808424803149602
0
LINE
8
BLACK
6
CONTINUOUS
10
4.7225692125984251
20
-4.4808424803149602
11
4.7165083858267716
21
-4.4783320078740161
0
LINE
8
BLACK
6
CONTINUOUS
10
4.7165083858267716
20
-4.4783320078740161
11
4.7110537795275587
21
-4.4746873622047243
0
LINE
8
BLACK
6
CONTINUOUS
10
4.7110537795275587
20
-4.4746873622047243
11
4.7064149999999998
21
-4.4700485826771654
0
LINE
8
BLACK
6
CONTINUOUS
10
4.7064149999999998
20
-4.4700485826771654
11
4.7027703543307089
21
-4.4645939763779525
0
LINE
8
BLACK
6
CONTINUOUS
10
4.7027703543307089
20
-4.4645939763779525
11
4.7002598818897638
21
-4.458533149606299
0
LINE
8
BLACK
6
CONTINUOUS
10
4.7002598818897638
20
-4.458533149606299
11
4.6989800393700785
21
-4.4520990157480318
0
LINE
8
BLACK
6
CONTINUOUS
10
4.6989800393700785
20
-4.4520990157480318
11
4.6989800393700785
21
-4.4455387795275589
0
LINE
8
BLACK
6
CONTINUOUS
10
4.6989800393700785
20
-4.4455387795275589
11
4.7002598818897638
21
-4.4391046456692909
0
LINE
8
BLACK
6
CONTINUOUS
10
4.7002598818897638
20
-4.4391046456692909
11
4.7027703543307089
21
-4.4330438188976373
0
LINE
8
BLACK
6
CONTINUOUS
10
4.7027703543307089
20
-4.4330438188976373
11
4.7064149999999998
21
-4.4275892125984253
0
LINE
8
BLACK
6
CONTINUOUS
10
4.7064149999999998
20
-4.4275892125984253
11
4.7110537795275587
21
-4.4229504330708664
0
LINE
8
BLACK
6
CONTINUOUS
10
4.7110537795275587
20
-4.4229504330708664
11
4.7165083858267716
21
-4.4193057874015746
0
LINE
8
BLACK
6
CONTINUOUS
10
4.7165083858267716
20
-4.4193057874015746
11
4.7225692125984251
21
-4.4167953149606296
0
LINE
8
BLACK
6
CONTINUOUS
10
4.7225692125984251
20
-4.4167953149606296
11
4.7290033464566932
21
-4.4155154724409451
0
LINE
8
BLACK
6
CONTINUOUS
10
4.7290033464566932
20
-4.4155154724409451
11
4.7355635826771652
21
-4.4155154724409451
0
LINE
8
BLACK
6
CONTINUOUS
10
4.7355635826771652
20
-4.4155154724409451
11
4.7419977165354332
21
-4.4167953149606296
0
LINE
8
BLACK
6
CONTINUOUS
10
4.8419977165354329
20
-4.4167953149606296
11
4.8480585433070864
21
-4.4193057874015746
0
LINE
8
BLACK
6
CONTINUOUS
10
4.8480585433070864
20
-4.4193057874015746
11
4.8535131496062993
21
-4.4229504330708664
0
LINE
8
BLACK
6
CONTINUOUS
10
4.8535131496062993
20
-4.4229504330708664
11
4.8581519291338582
21
-4.4275892125984253
0
LINE
8
BLACK
6
CONTINUOUS
10
4.8581519291338582
20
-4.4275892125984253
11
4.8617965748031491
21
-4.4330438188976373
0
LINE
8
BLACK
6
CONTINUOUS
10
4.8617965748031491
20
-4.4330438188976373
11
4.8643070472440941
21
-4.4391046456692909
0
LINE
8
BLACK
6
CONTINUOUS
10
4.8643070472440941
20
-4.4391046456692909
11
4.8655868897637795
21
-4.4455387795275589
0
LINE
8
BLACK
6
CONTINUOUS
10
4.8655868897637795
20
-4.4455387795275589
11
4.8655868897637795
21
-4.4520990157480318
0
LINE
8
BLACK
6
CONTINUOUS
10
4.8655868897637795
20
-4.4520990157480318
11
4.8643070472440941
21
-4.458533149606299
0
LINE
8
BLACK
6
CONTINUOUS
10
4.8643070472440941
20
-4.458533149606299
11
4.8617965748031491
21
-4.4645939763779525
0
LINE
8
BLACK
6
CONTINUOUS
10
4.8617965748031491
20
-4.4645939763779525
11
4.8581519291338582
21
-4.4700485826771654
0
LINE
8
BLACK
6
CONTINUOUS
10
4.8581519291338582
20
-4.4700485826771654
11
4.8535131496062993
21
-4.4746873622047243
0
LINE
8
BLACK
6
CONTINUOUS
10
4.8535131496062993
20
-4.4746873622047243
11
4.8480585433070864
21
-4.4783320078740161
0
LINE
8
BLACK
6
CONTINUOUS
10
4.8480585433070864
20
-4.4783320078740161
11
4.8419977165354329
21
-4.4808424803149602
0
LINE
8
BLACK
6
CONTINUOUS
10
4.8419977165354329
20
-4.4808424803149602
11
4.8355635826771657
21
-4.4821223228346456
0
LINE
8
BLACK
6
CONTINUOUS
10
4.8355635826771657
20
-4.4821223228346456
11
4.8290033464566928
21
-4.4821223228346456
0
LINE
8
BLACK
6
CONTINUOUS
10
4.8290033464566928
20
-4.4821223228346456
11
4.8225692125984247
21
-4.4808424803149602
0
LINE
8
BLACK
6
CONTINUOUS
10
4.8225692125984247
20
-4.4808424803149602
11
4.8165083858267712
21
-4.4783320078740161
0
LINE
8
BLACK
6
CONTINUOUS
10
4.8165083858267712
20
-4.4783320078740161
11
4.8110537795275592
21
-4.4746873622047243
0
LINE
8
BLACK
6
CONTINUOUS
10
4.8110537795275592
20
-4.4746873622047243
11
4.8064150000000003
21
-4.4700485826771654
0
LINE
8
BLACK
6
CONTINUOUS
10
4.8064150000000003
20
-4.4700485826771654
11
4.8027703543307085
21
-4.4645939763779525
0
LINE
8
BLACK
6
CONTINUOUS
10
4.8027703543307085
20
-4.4645939763779525
11
4.8002598818897635
21
-4.458533149606299
0
LINE
8
BLACK
6
CONTINUOUS
10
4.8002598818897635
20
-4.458533149606299
11
4.798980039370079
21
-4.4520990157480318
0
LINE
8
BLACK
6
CONTINUOUS
10
4.798980039370079
20
-4.4520990157480318
11
4.798980039370079
21
-4.4455387795275589
0
LINE
8
BLACK
6
CONTINUOUS
10
4.798980039370079
20
-4.4455387795275589
11
4.8002598818897635
21
-4.4391046456692909
0
LINE
8
BLACK
6
CONTINUOUS
10
4.8002598818897635
20
-4.4391046456692909
11
4.8027703543307085
21
-4.4330438188976373
0
LINE
8
BLACK
6
CONTINUOUS
10
4.8027703543307085
20
-4.4330438188976373
11
4.8064150000000003
21
-4.4275892125984253
0
LINE
8
BLACK
6
CONTINUOUS
10
4.8064150000000003
20
-4.4275892125984253
11
4.8110537795275592
21
-4.4229504330708664
0
LINE
8
BLACK
6
CONTINUOUS
10
4.8110537795275592
20
-4.4229504330708664
11
4.8165083858267712
21
-4.4193057874015746
0
LINE
8
BLACK
6
CONTINUOUS
10
4.8165083858267712
20
-4.4193057874015746
11
4.8225692125984247
21
-4.4167953149606296
0
LINE
8
BLACK
6
CONTINUOUS
10
4.8225692125984247
20
-4.4167953149606296
11
4.8290033464566928
21
-4.4155154724409451
0
LINE
8
BLACK
6
CONTINUOUS
10
4.8290033464566928
20
-4.4155154724409451
11
4.8355635826771657
21
-4.4155154724409451
0
LINE
8
BLACK
6
CONTINUOUS
10
4.8355635826771657
20
-4.4155154724409451
11
4.8419977165354329
21
-4.4167953149606296
0
LINE
8
BLACK
6
CONTINUOUS
10
4.9419977165354325
20
-4.4167953149606296
11
4.9480585433070869
21
-4.4193057874015746
0
LINE
8
BLACK
6
CONTINUOUS
10
4.9480585433070869
20
-4.4193057874015746
11
4.953513149606299
21
-4.4229504330708664
0
LINE
8
BLACK
6
CONTINUOUS
10
4.953513149606299
20
-4.4229504330708664
11
4.9581519291338578
21
-4.4275892125984253
0
LINE
8
BLACK
6
CONTINUOUS
10
4.9581519291338578
20
-4.4275892125984253
11
4.9617965748031496
21
-4.4330438188976373
0
LINE
8
BLACK
6
CONTINUOUS
10
4.9617965748031496
20
-4.4330438188976373
11
4.9643070472440947
21
-4.4391046456692909
0
LINE
8
BLACK
6
CONTINUOUS
10
4.9643070472440947
20
-4.4391046456692909
11
4.9655868897637792
21
-4.4455387795275589
0
LINE
8
BLACK
6
CONTINUOUS
10
4.9655868897637792
20
-4.4455387795275589
11
4.9655868897637792
21
-4.4520990157480318
0
LINE
8
BLACK
6
CONTINUOUS
10
4.9655868897637792
20
-4.4520990157480318
11
4.9643070472440947
21
-4.458533149606299
0
LINE
8
BLACK
6
CONTINUOUS
10
4.9643070472440947
20
-4.458533149606299
11
4.9617965748031496
21
-4.4645939763779525
0
LINE
8
BLACK
6
CONTINUOUS
10
4.9617965748031496
20
-4.4645939763779525
11
4.9581519291338578
21
-4.4700485826771654
0
LINE
8
BLACK
6
CONTINUOUS
10
4.9581519291338578
20
-4.4700485826771654
11
4.953513149606299
21
-4.4746873622047243
0
LINE
8
BLACK
6
CONTINUOUS
10
4.953513149606299
20
-4.4746873622047243
11
4.9480585433070869
21
-4.4783320078740161
0
LINE
8
BLACK
6
CONTINUOUS
10
4.9480585433070869
20
-4.4783320078740161
11
4.9419977165354325
21
-4.4808424803149602
0
LINE
8
BLACK
6
CONTINUOUS
10
4.9419977165354325
20
-4.4808424803149602
11
4.9355635826771653
21
-4.4821223228346456
0
LINE
8
BLACK
6
CONTINUOUS
10
4.9355635826771653
20
-4.4821223228346456
11
4.9290033464566925
21
-4.4821223228346456
0
LINE
8
BLACK
6
CONTINUOUS
10
4.9290033464566925
20
-4.4821223228346456
11
4.9225692125984253
21
-4.4808424803149602
0
LINE
8
BLACK
6
CONTINUOUS
10
4.9225692125984253
20
-4.4808424803149602
11
4.9165083858267717
21
-4.4783320078740161
0
LINE
8
BLACK
6
CONTINUOUS
10
4.9165083858267717
20
-4.4783320078740161
11
4.9110537795275588
21
-4.4746873622047243
0
LINE
8
BLACK
6
CONTINUOUS
10
4.9110537795275588
20
-4.4746873622047243
11
4.906415
21
-4.4700485826771654
0
LINE
8
BLACK
6
CONTINUOUS
10
4.906415
20
-4.4700485826771654
11
4.9027703543307082
21
-4.4645939763779525
0
LINE
8
BLACK
6
CONTINUOUS
10
4.9027703543307082
20
-4.4645939763779525
11
4.900259881889764
21
-4.458533149606299
0
LINE
8
BLACK
6
CONTINUOUS
10
4.900259881889764
20
-4.458533149606299
11
4.8989800393700786
21
-4.4520990157480318
0
LINE
8
BLACK
6
CONTINUOUS
10
4.8989800393700786
20
-4.4520990157480318
11
4.8989800393700786
21
-4.4455387795275589
0
LINE
8
BLACK
6
CONTINUOUS
10
4.8989800393700786
20
-4.4455387795275589
11
4.900259881889764
21
-4.4391046456692909
0
LINE
8
BLACK
6
CONTINUOUS
10
4.900259881889764
20
-4.4391046456692909
11
4.9027703543307082
21
-4.4330438188976373
0
LINE
8
BLACK
6
CONTINUOUS
10
4.9027703543307082
20
-4.4330438188976373
11
4.906415
21
-4.4275892125984253
0
LINE
8
BLACK
6
CONTINUOUS
10
4.906415
20
-4.4275892125984253
11
4.9110537795275588
21
-4.4229504330708664
0
LINE
8
BLACK
6
CONTINUOUS
10
4.9110537795275588
20
-4.4229504330708664
11
4.9165083858267717
21
-4.4193057874015746
0
LINE
8
BLACK
6
CONTINUOUS
10
4.9165083858267717
20
-4.4193057874015746
11
4.9225692125984253
21
-4.4167953149606296
0
LINE
8
BLACK
6
CONTINUOUS
10
4.9225692125984253
20
-4.4167953149606296
11
4.9290033464566925
21
-4.4155154724409451
0
LINE
8
BLACK
6
CONTINUOUS
10
4.9290033464566925
20
-4.4155154724409451
11
4.9355635826771653
21
-4.4155154724409451
0
LINE
8
BLACK
6
CONTINUOUS
10
4.9355635826771653
20
-4.4155154724409451
11
4.9419977165354325
21
-4.4167953149606296
0
LINE
8
BLACK
6
CONTINUOUS
10
5.041997716535433
20
-4.4167953149606296
11
5.0480585433070866
21
-4.4193057874015746
0
LINE
8
BLACK
6
CONTINUOUS
10
5.0480585433070866
20
-4.4193057874015746
11
5.0535131496062995
21
-4.4229504330708664
0
LINE
8
BLACK
6
CONTINUOUS
10
5.0535131496062995
20
-4.4229504330708664
11
5.0581519291338584
21
-4.4275892125984253
0
LINE
8
BLACK
6
CONTINUOUS
10
5.0581519291338584
20
-4.4275892125984253
11
5.0617965748031493
21
-4.4330438188976373
0
LINE
8
BLACK
6
CONTINUOUS
10
5.0617965748031493
20
-4.4330438188976373
11
5.0643070472440943
21
-4.4391046456692909
0
LINE
8
BLACK
6
CONTINUOUS
10
5.0643070472440943
20
-4.4391046456692909
11
5.0655868897637797
21
-4.4455387795275589
0
LINE
8
BLACK
6
CONTINUOUS
10
5.0655868897637797
20
-4.4455387795275589
11
5.0655868897637797
21
-4.4520990157480318
0
LINE
8
BLACK
6
CONTINUOUS
10
5.0655868897637797
20
-4.4520990157480318
11
5.0643070472440943
21
-4.458533149606299
0
LINE
8
BLACK
6
CONTINUOUS
10
5.0643070472440943
20
-4.458533149606299
11
5.0617965748031493
21
-4.4645939763779525
0
LINE
8
BLACK
6
CONTINUOUS
10
5.0617965748031493
20
-4.4645939763779525
11
5.0581519291338584
21
-4.4700485826771654
0
LINE
8
BLACK
6
CONTINUOUS
10
5.0581519291338584
20
-4.4700485826771654
11
5.0535131496062995
21
-4.4746873622047243
0
LINE
8
BLACK
6
CONTINUOUS
10
5.0535131496062995
20
-4.4746873622047243
11
5.0480585433070866
21
-4.4783320078740161
0
LINE
8
BLACK
6
CONTINUOUS
10
5.0480585433070866
20
-4.4783320078740161
11
5.041997716535433
21
-4.4808424803149602
0
LINE
8
BLACK
6
CONTINUOUS
10
5.041997716535433
20
-4.4808424803149602
11
5.035563582677165
21
-4.4821223228346456
0
LINE
8
BLACK
6
CONTINUOUS
10
5.035563582677165
20
-4.4821223228346456
11
5.029003346456693
21
-4.4821223228346456
0
LINE
8
BLACK
6
CONTINUOUS
10
5.029003346456693
20
-4.4821223228346456
11
5.0225692125984249
21
-4.4808424803149602
0
LINE
8
BLACK
6
CONTINUOUS
10
5.0225692125984249
20
-4.4808424803149602
11
5.0165083858267714
21
-4.4783320078740161
0
LINE
8
BLACK
6
CONTINUOUS
10
5.0165083858267714
20
-4.4783320078740161
11
5.0110537795275594
21
-4.4746873622047243
0
LINE
8
BLACK
6
CONTINUOUS
10
5.0110537795275594
20
-4.4746873622047243
11
5.0064149999999996
21
-4.4700485826771654
0
LINE
8
BLACK
6
CONTINUOUS
10
5.0064149999999996
20
-4.4700485826771654
11
5.0027703543307087
21
-4.4645939763779525
0
LINE
8
BLACK
6
CONTINUOUS
10
5.0027703543307087
20
-4.4645939763779525
11
5.0002598818897637
21
-4.458533149606299
0
LINE
8
BLACK
6
CONTINUOUS
10
5.0002598818897637
20
-4.458533149606299
11
4.9989800393700783
21
-4.4520990157480318
0
LINE
8
BLACK
6
CONTINUOUS
10
4.9989800393700783
20
-4.4520990157480318
11
4.9989800393700783
21
-4.4455387795275589
0
LINE
8
BLACK
6
CONTINUOUS
10
4.9989800393700783
20
-4.4455387795275589
11
5.0002598818897637
21
-4.4391046456692909
0
LINE
8
BLACK
6
CONTINUOUS
10
5.0002598818897637
20
-4.4391046456692909
11
5.0027703543307087
21
-4.4330438188976373
0
LINE
8
BLACK
6
CONTINUOUS
10
5.0027703543307087
20
-4.4330438188976373
11
5.0064149999999996
21
-4.4275892125984253
0
LINE
8
BLACK
6
CONTINUOUS
10
5.0064149999999996
20
-4.4275892125984253
11
5.0110537795275594
21
-4.4229504330708664
0
LINE
8
BLACK
6
CONTINUOUS
10
5.0110537795275594
20
-4.4229504330708664
11
5.0165083858267714
21
-4.4193057874015746
0
LINE
8
BLACK
6
CONTINUOUS
10
5.0165083858267714
20
-4.4193057874015746
11
5.0225692125984249
21
-4.4167953149606296
0
LINE
8
BLACK
6
CONTINUOUS
10
5.0225692125984249
20
-4.4167953149606296
11
5.029003346456693
21
-4.4155154724409451
0
LINE
8
BLACK
6
CONTINUOUS
10
5.029003346456693
20
-4.4155154724409451
11
5.035563582677165
21
-4.4155154724409451
0
LINE
8
BLACK
6
CONTINUOUS
10
5.035563582677165
20
-4.4155154724409451
11
5.041997716535433
21
-4.4167953149606296
0
LINE
8
BLACK
6
CONTINUOUS
10
5.1419977165354327
20
-4.4167953149606296
11
5.1480585433070862
21
-4.4193057874015746
0
LINE
8
BLACK
6
CONTINUOUS
10
5.1480585433070862
20
-4.4193057874015746
11
5.1535131496062991
21
-4.4229504330708664
0
LINE
8
BLACK
6
CONTINUOUS
10
5.1535131496062991
20
-4.4229504330708664
11
5.158151929133858
21
-4.4275892125984253
0
LINE
8
BLACK
6
CONTINUOUS
10
5.158151929133858
20
-4.4275892125984253
11
5.1617965748031498
21
-4.4330438188976373
0
LINE
8
BLACK
6
CONTINUOUS
10
5.1617965748031498
20
-4.4330438188976373
11
5.164307047244094
21
-4.4391046456692909
0
LINE
8
BLACK
6
CONTINUOUS
10
5.164307047244094
20
-4.4391046456692909
11
5.1655868897637793
21
-4.4455387795275589
0
LINE
8
BLACK
6
CONTINUOUS
10
5.1655868897637793
20
-4.4455387795275589
11
5.1655868897637793
21
-4.4520990157480318
0
LINE
8
BLACK
6
CONTINUOUS
10
5.1655868897637793
20
-4.4520990157480318
11
5.164307047244094
21
-4.458533149606299
0
LINE
8
BLACK
6
CONTINUOUS
10
5.164307047244094
20
-4.458533149606299
11
5.1617965748031498
21
-4.4645939763779525
0
LINE
8
BLACK
6
CONTINUOUS
10
5.1617965748031498
20
-4.4645939763779525
11
5.158151929133858
21
-4.4700485826771654
0
LINE
8
BLACK
6
CONTINUOUS
10
5.158151929133858
20
-4.4700485826771654
11
5.1535131496062991
21
-4.4746873622047243
0
LINE
8
BLACK
6
CONTINUOUS
10
5.1535131496062991
20
-4.4746873622047243
11
5.1480585433070862
21
-4.4783320078740161
0
LINE
8
BLACK
6
CONTINUOUS
10
5.1480585433070862
20
-4.4783320078740161
11
5.1419977165354327
21
-4.4808424803149602
0
LINE
8
BLACK
6
CONTINUOUS
10
5.1419977165354327
20
-4.4808424803149602
11
5.1355635826771655
21
-4.4821223228346456
0
LINE
8
BLACK
6
CONTINUOUS
10
5.1355635826771655
20
-4.4821223228346456
11
5.1290033464566926
21
-4.4821223228346456
0
LINE
8
BLACK
6
CONTINUOUS
10
5.1290033464566926
20
-4.4821223228346456
11
5.1225692125984255
21
-4.4808424803149602
0
LINE
8
BLACK
6
CONTINUOUS
10
5.1225692125984255
20
-4.4808424803149602
11
5.1165083858267719
21
-4.4783320078740161
0
LINE
8
BLACK
6
CONTINUOUS
10
5.1165083858267719
20
-4.4783320078740161
11
5.111053779527559
21
-4.4746873622047243
0
LINE
8
BLACK
6
CONTINUOUS
10
5.111053779527559
20
-4.4746873622047243
11
5.1064150000000001
21
-4.4700485826771654
0
LINE
8
BLACK
6
CONTINUOUS
10
5.1064150000000001
20
-4.4700485826771654
11
5.1027703543307084
21
-4.4645939763779525
0
LINE
8
BLACK
6
CONTINUOUS
10
5.1027703543307084
20
-4.4645939763779525
11
5.1002598818897633
21
-4.458533149606299
0
LINE
8
BLACK
6
CONTINUOUS
10
5.1002598818897633
20
-4.458533149606299
11
5.0989800393700788
21
-4.4520990157480318
0
LINE
8
BLACK
6
CONTINUOUS
10
5.0989800393700788
20
-4.4520990157480318
11
5.0989800393700788
21
-4.4455387795275589
0
LINE
8
BLACK
6
CONTINUOUS
10
5.0989800393700788
20
-4.4455387795275589
11
5.1002598818897633
21
-4.4391046456692909
0
LINE
8
BLACK
6
CONTINUOUS
10
5.1002598818897633
20
-4.4391046456692909
11
5.1027703543307084
21
-4.4330438188976373
0
LINE
8
BLACK
6
CONTINUOUS
10
5.1027703543307084
20
-4.4330438188976373
11
5.1064150000000001
21
-4.4275892125984253
0
LINE
8
BLACK
6
CONTINUOUS
10
5.1064150000000001
20
-4.4275892125984253
11
5.111053779527559
21
-4.4229504330708664
0
LINE
8
BLACK
6
CONTINUOUS
10
5.111053779527559
20
-4.4229504330708664
11
5.1165083858267719
21
-4.4193057874015746
0
LINE
8
BLACK
6
CONTINUOUS
10
5.1165083858267719
20
-4.4193057874015746
11
5.1225692125984255
21
-4.4167953149606296
0
LINE
8
BLACK
6
CONTINUOUS
10
5.1225692125984255
20
-4.4167953149606296
11
5.1290033464566926
21
-4.4155154724409451
0
LINE
8
BLACK
6
CONTINUOUS
10
5.1290033464566926
20
-4.4155154724409451
11
5.1355635826771655
21
-4.4155154724409451
0
LINE
8
BLACK
6
CONTINUOUS
10
5.1355635826771655
20
-4.4155154724409451
11
5.1419977165354327
21
-4.4167953149606296
0
LINE
8
BLACK
6
CONTINUOUS
10
5.8419977165354329
20
-4.4167953149606296
11
5.8480585433070864
21
-4.4193057874015746
0
LINE
8
BLACK
6
CONTINUOUS
10
5.8480585433070864
20
-4.4193057874015746
11
5.8535131496062993
21
-4.4229504330708664
0
LINE
8
BLACK
6
CONTINUOUS
10
5.8535131496062993
20
-4.4229504330708664
11
5.8581519291338582
21
-4.4275892125984253
0
LINE
8
BLACK
6
CONTINUOUS
10
5.8581519291338582
20
-4.4275892125984253
11
5.8617965748031491
21
-4.4330438188976373
0
LINE
8
BLACK
6
CONTINUOUS
10
5.8617965748031491
20
-4.4330438188976373
11
5.8643070472440941
21
-4.4391046456692909
0
LINE
8
BLACK
6
CONTINUOUS
10
5.8643070472440941
20
-4.4391046456692909
11
5.8655868897637795
21
-4.4455387795275589
0
LINE
8
BLACK
6
CONTINUOUS
10
5.8655868897637795
20
-4.4455387795275589
11
5.8655868897637795
21
-4.4520990157480318
0
LINE
8
BLACK
6
CONTINUOUS
10
5.8655868897637795
20
-4.4520990157480318
11
5.8643070472440941
21
-4.458533149606299
0
LINE
8
BLACK
6
CONTINUOUS
10
5.8643070472440941
20
-4.458533149606299
11
5.8617965748031491
21
-4.4645939763779525
0
LINE
8
BLACK
6
CONTINUOUS
10
5.8617965748031491
20
-4.4645939763779525
11
5.8581519291338582
21
-4.4700485826771654
0
LINE
8
BLACK
6
CONTINUOUS
10
5.8581519291338582
20
-4.4700485826771654
11
5.8535131496062993
21
-4.4746873622047243
0
LINE
8
BLACK
6
CONTINUOUS
10
5.8535131496062993
20
-4.4746873622047243
11
5.8480585433070864
21
-4.4783320078740161
0
LINE
8
BLACK
6
CONTINUOUS
10
5.8480585433070864
20
-4.4783320078740161
11
5.8419977165354329
21
-4.4808424803149602
0
LINE
8
BLACK
6
CONTINUOUS
10
5.8419977165354329
20
-4.4808424803149602
11
5.8355635826771648
21
-4.4821223228346456
0
LINE
8
BLACK
6
CONTINUOUS
10
5.8355635826771648
20
-4.4821223228346456
11
5.8290033464566928
21
-4.4821223228346456
0
LINE
8
BLACK
6
CONTINUOUS
10
5.8290033464566928
20
-4.4821223228346456
11
5.8225692125984247
21
-4.4808424803149602
0
LINE
8
BLACK
6
CONTINUOUS
10
5.8225692125984247
20
-4.4808424803149602
11
5.8165083858267712
21
-4.4783320078740161
0
LINE
8
BLACK
6
CONTINUOUS
10
5.8165083858267712
20
-4.4783320078740161
11
5.8110537795275592
21
-4.4746873622047243
0
LINE
8
BLACK
6
CONTINUOUS
10
5.8110537795275592
20
-4.4746873622047243
11
5.8064149999999994
21
-4.4700485826771654
0
LINE
8
BLACK
6
CONTINUOUS
10
5.8064149999999994
20
-4.4700485826771654
11
5.8027703543307085
21
-4.4645939763779525
0
LINE
8
BLACK
6
CONTINUOUS
10
5.8027703543307085
20
-4.4645939763779525
11
5.8002598818897635
21
-4.458533149606299
0
LINE
8
BLACK
6
CONTINUOUS
10
5.8002598818897635
20
-4.458533149606299
11
5.798980039370079
21
-4.4520990157480318
0
LINE
8
BLACK
6
CONTINUOUS
10
5.798980039370079
20
-4.4520990157480318
11
5.798980039370079
21
-4.4455387795275589
0
LINE
8
BLACK
6
CONTINUOUS
10
5.798980039370079
20
-4.4455387795275589
11
5.8002598818897635
21
-4.4391046456692909
0
LINE
8
BLACK
6
CONTINUOUS
10
5.8002598818897635
20
-4.4391046456692909
11
5.8027703543307085
21
-4.4330438188976373
0
LINE
8
BLACK
6
CONTINUOUS
10
5.8027703543307085
20
-4.4330438188976373
11
5.8064149999999994
21
-4.4275892125984253
0
LINE
8
BLACK
6
CONTINUOUS
10
5.8064149999999994
20
-4.4275892125984253
11
5.8110537795275592
21
-4.4229504330708664
0
LINE
8
BLACK
6
CONTINUOUS
10
5.8110537795275592
20
-4.4229504330708664
11
5.8165083858267712
21
-4.4193057874015746
0
LINE
8
BLACK
6
CONTINUOUS
10
5.8165083858267712
20
-4.4193057874015746
11
5.8225692125984247
21
-4.4167953149606296
0
LINE
8
BLACK
6
CONTINUOUS
10
5.8225692125984247
20
-4.4167953149606296
11
5.8290033464566928
21
-4.4155154724409451
0
LINE
8
BLACK
6
CONTINUOUS
10
5.8290033464566928
20
-4.4155154724409451
11
5.8355635826771648
21
-4.4155154724409451
0
LINE
8
BLACK
6
CONTINUOUS
10
5.8355635826771648
20
-4.4155154724409451
11
5.8419977165354329
21
-4.4167953149606296
0
LINE
8
BLACK
6
CONTINUOUS
10
5.9419977165354325
20
-4.4167953149606296
11
5.9480585433070861
21
-4.4193057874015746
0
LINE
8
BLACK
6
CONTINUOUS
10
5.9480585433070861
20
-4.4193057874015746
11
5.953513149606299
21
-4.4229504330708664
0
LINE
8
BLACK
6
CONTINUOUS
10
5.953513149606299
20
-4.4229504330708664
11
5.9581519291338578
21
-4.4275892125984253
0
LINE
8
BLACK
6
CONTINUOUS
10
5.9581519291338578
20
-4.4275892125984253
11
5.9617965748031496
21
-4.4330438188976373
0
LINE
8
BLACK
6
CONTINUOUS
10
5.9617965748031496
20
-4.4330438188976373
11
5.9643070472440947
21
-4.4391046456692909
0
LINE
8
BLACK
6
CONTINUOUS
10
5.9643070472440947
20
-4.4391046456692909
11
5.9655868897637792
21
-4.4455387795275589
0
LINE
8
BLACK
6
CONTINUOUS
10
5.9655868897637792
20
-4.4455387795275589
11
5.9655868897637792
21
-4.4520990157480318
0
LINE
8
BLACK
6
CONTINUOUS
10
5.9655868897637792
20
-4.4520990157480318
11
5.9643070472440947
21
-4.458533149606299
0
LINE
8
BLACK
6
CONTINUOUS
10
5.9643070472440947
20
-4.458533149606299
11
5.9617965748031496
21
-4.4645939763779525
0
LINE
8
BLACK
6
CONTINUOUS
10
5.9617965748031496
20
-4.4645939763779525
11
5.9581519291338578
21
-4.4700485826771654
0
LINE
8
BLACK
6
CONTINUOUS
10
5.9581519291338578
20
-4.4700485826771654
11
5.953513149606299
21
-4.4746873622047243
0
LINE
8
BLACK
6
CONTINUOUS
10
5.953513149606299
20
-4.4746873622047243
11
5.9480585433070861
21
-4.4783320078740161
0
LINE
8
BLACK
6
CONTINUOUS
10
5.9480585433070861
20
-4.4783320078740161
11
5.9419977165354325
21
-4.4808424803149602
0
LINE
8
BLACK
6
CONTINUOUS
10
5.9419977165354325
20
-4.4808424803149602
11
5.9355635826771653
21
-4.4821223228346456
0
LINE
8
BLACK
6
CONTINUOUS
10
5.9355635826771653
20
-4.4821223228346456
11
5.9290033464566925
21
-4.4821223228346456
0
LINE
8
BLACK
6
CONTINUOUS
10
5.9290033464566925
20
-4.4821223228346456
11
5.9225692125984253
21
-4.4808424803149602
0
LINE
8
BLACK
6
CONTINUOUS
10
5.9225692125984253
20
-4.4808424803149602
11
5.9165083858267717
21
-4.4783320078740161
0
LINE
8
BLACK
6
CONTINUOUS
10
5.9165083858267717
20
-4.4783320078740161
11
5.9110537795275588
21
-4.4746873622047243
0
LINE
8
BLACK
6
CONTINUOUS
10
5.9110537795275588
20
-4.4746873622047243
11
5.906415
21
-4.4700485826771654
0
LINE
8
BLACK
6
CONTINUOUS
10
5.906415
20
-4.4700485826771654
11
5.9027703543307082
21
-4.4645939763779525
0
LINE
8
BLACK
6
CONTINUOUS
10
5.9027703543307082
20
-4.4645939763779525
11
5.900259881889764
21
-4.458533149606299
0
LINE
8
BLACK
6
CONTINUOUS
10
5.900259881889764
20
-4.458533149606299
11
5.8989800393700786
21
-4.4520990157480318
0
LINE
8
BLACK
6
CONTINUOUS
10
5.8989800393700786
20
-4.4520990157480318
11
5.8989800393700786
21
-4.4455387795275589
0
LINE
8
BLACK
6
CONTINUOUS
10
5.8989800393700786
20
-4.4455387795275589
11
5.900259881889764
21
-4.4391046456692909
0
LINE
8
BLACK
6
CONTINUOUS
10
5.900259881889764
20
-4.4391046456692909
11
5.9027703543307082
21
-4.4330438188976373
0
LINE
8
BLACK
6
CONTINUOUS
10
5.9027703543307082
20
-4.4330438188976373
11
5.906415
21
-4.4275892125984253
0
LINE
8
BLACK
6
CONTINUOUS
10
5.906415
20
-4.4275892125984253
11
5.9110537795275588
21
-4.4229504330708664
0
LINE
8
BLACK
6
CONTINUOUS
10
5.9110537795275588
20
-4.4229504330708664
11
5.9165083858267717
21
-4.4193057874015746
0
LINE
8
BLACK
6
CONTINUOUS
10
5.9165083858267717
20
-4.4193057874015746
11
5.9225692125984253
21
-4.4167953149606296
0
LINE
8
BLACK
6
CONTINUOUS
10
5.9225692125984253
20
-4.4167953149606296
11
5.9290033464566925
21
-4.4155154724409451
0
LINE
8
BLACK
6
CONTINUOUS
10
5.9290033464566925
20
-4.4155154724409451
11
5.9355635826771653
21
-4.4155154724409451
0
LINE
8
BLACK
6
CONTINUOUS
10
5.9355635826771653
20
-4.4155154724409451
11
5.9419977165354325
21
-4.4167953149606296
0
LINE
8
BLACK
6
CONTINUOUS
10
6.041997716535433
20
-4.4167953149606296
11
6.0480585433070866
21
-4.4193057874015746
0
LINE
8
BLACK
6
CONTINUOUS
10
6.0480585433070866
20
-4.4193057874015746
11
6.0535131496062995
21
-4.4229504330708664
0
LINE
8
BLACK
6
CONTINUOUS
10
6.0535131496062995
20
-4.4229504330708664
11
6.0581519291338584
21
-4.4275892125984253
0
LINE
8
BLACK
6
CONTINUOUS
10
6.0581519291338584
20
-4.4275892125984253
11
6.0617965748031493
21
-4.4330438188976373
0
LINE
8
BLACK
6
CONTINUOUS
10
6.0617965748031493
20
-4.4330438188976373
11
6.0643070472440943
21
-4.4391046456692909
0
LINE
8
BLACK
6
CONTINUOUS
10
6.0643070472440943
20
-4.4391046456692909
11
6.0655868897637797
21
-4.4455387795275589
0
LINE
8
BLACK
6
CONTINUOUS
10
6.0655868897637797
20
-4.4455387795275589
11
6.0655868897637797
21
-4.4520990157480318
0
LINE
8
BLACK
6
CONTINUOUS
10
6.0655868897637797
20
-4.4520990157480318
11
6.0643070472440943
21
-4.458533149606299
0
LINE
8
BLACK
6
CONTINUOUS
10
6.0643070472440943
20
-4.458533149606299
11
6.0617965748031493
21
-4.4645939763779525
0
LINE
8
BLACK
6
CONTINUOUS
10
6.0617965748031493
20
-4.4645939763779525
11
6.0581519291338584
21
-4.4700485826771654
0
LINE
8
BLACK
6
CONTINUOUS
10
6.0581519291338584
20
-4.4700485826771654
11
6.0535131496062995
21
-4.4746873622047243
0
LINE
8
BLACK
6
CONTINUOUS
10
6.0535131496062995
20
-4.4746873622047243
11
6.0480585433070866
21
-4.4783320078740161
0
LINE
8
BLACK
6
CONTINUOUS
10
6.0480585433070866
20
-4.4783320078740161
11
6.041997716535433
21
-4.4808424803149602
0
LINE
8
BLACK
6
CONTINUOUS
10
6.041997716535433
20
-4.4808424803149602
11
6.035563582677165
21
-4.4821223228346456
0
LINE
8
BLACK
6
CONTINUOUS
10
6.035563582677165
20
-4.4821223228346456
11
6.029003346456693
21
-4.4821223228346456
0
LINE
8
BLACK
6
CONTINUOUS
10
6.029003346456693
20
-4.4821223228346456
11
6.0225692125984249
21
-4.4808424803149602
0
LINE
8
BLACK
6
CONTINUOUS
10
6.0225692125984249
20
-4.4808424803149602
11
6.0165083858267714
21
-4.4783320078740161
0
LINE
8
BLACK
6
CONTINUOUS
10
6.0165083858267714
20
-4.4783320078740161
11
6.0110537795275585
21
-4.4746873622047243
0
LINE
8
BLACK
6
CONTINUOUS
10
6.0110537795275585
20
-4.4746873622047243
11
6.0064149999999996
21
-4.4700485826771654
0
LINE
8
BLACK
6
CONTINUOUS
10
6.0064149999999996
20
-4.4700485826771654
11
6.0027703543307087
21
-4.4645939763779525
0
LINE
8
BLACK
6
CONTINUOUS
10
6.0027703543307087
20
-4.4645939763779525
11
6.0002598818897637
21
-4.458533149606299
0
LINE
8
BLACK
6
CONTINUOUS
10
6.0002598818897637
20
-4.458533149606299
11
5.9989800393700783
21
-4.4520990157480318
0
LINE
8
BLACK
6
CONTINUOUS
10
5.9989800393700783
20
-4.4520990157480318
11
5.9989800393700783
21
-4.4455387795275589
0
LINE
8
BLACK
6
CONTINUOUS
10
5.9989800393700783
20
-4.4455387795275589
11
6.0002598818897637
21
-4.4391046456692909
0
LINE
8
BLACK
6
CONTINUOUS
10
6.0002598818897637
20
-4.4391046456692909
11
6.0027703543307087
21
-4.4330438188976373
0
LINE
8
BLACK
6
CONTINUOUS
10
6.0027703543307087
20
-4.4330438188976373
11
6.0064149999999996
21
-4.4275892125984253
0
LINE
8
BLACK
6
CONTINUOUS
10
6.0064149999999996
20
-4.4275892125984253
11
6.0110537795275585
21
-4.4229504330708664
0
LINE
8
BLACK
6
CONTINUOUS
10
6.0110537795275585
20
-4.4229504330708664
11
6.0165083858267714
21
-4.4193057874015746
0
LINE
8
BLACK
6
CONTINUOUS
10
6.0165083858267714
20
-4.4193057874015746
11
6.0225692125984249
21
-4.4167953149606296
0
LINE
8
BLACK
6
CONTINUOUS
10
6.0225692125984249
20
-4.4167953149606296
11
6.029003346456693
21
-4.4155154724409451
0
LINE
8
BLACK
6
CONTINUOUS
10
6.029003346456693
20
-4.4155154724409451
11
6.035563582677165
21
-4.4155154724409451
0
LINE
8
BLACK
6
CONTINUOUS
10
6.035563582677165
20
-4.4155154724409451
11
6.041997716535433
21
-4.4167953149606296
0
LINE
8
BLACK
6
CONTINUOUS
10
6.1419977165354327
20
-4.4167953149606296
11
6.1480585433070862
21
-4.4193057874015746
0
LINE
8
BLACK
6
CONTINUOUS
10
6.1480585433070862
20
-4.4193057874015746
11
6.1535131496062991
21
-4.4229504330708664
0
LINE
8
BLACK
6
CONTINUOUS
10
6.1535131496062991
20
-4.4229504330708664
11
6.158151929133858
21
-4.4275892125984253
0
LINE
8
BLACK
6
CONTINUOUS
10
6.158151929133858
20
-4.4275892125984253
11
6.1617965748031498
21
-4.4330438188976373
0
LINE
8
BLACK
6
CONTINUOUS
10
6.1617965748031498
20
-4.4330438188976373
11
6.164307047244094
21
-4.4391046456692909
0
LINE
8
BLACK
6
CONTINUOUS
10
6.164307047244094
20
-4.4391046456692909
11
6.1655868897637793
21
-4.4455387795275589
0
LINE
8
BLACK
6
CONTINUOUS
10
6.1655868897637793
20
-4.4455387795275589
11
6.1655868897637793
21
-4.4520990157480318
0
LINE
8
BLACK
6
CONTINUOUS
10
6.1655868897637793
20
-4.4520990157480318
11
6.164307047244094
21
-4.458533149606299
0
LINE
8
BLACK
6
CONTINUOUS
10
6.164307047244094
20
-4.458533149606299
11
6.1617965748031498
21
-4.4645939763779525
0
LINE
8
BLACK
6
CONTINUOUS
10
6.1617965748031498
20
-4.4645939763779525
11
6.158151929133858
21
-4.4700485826771654
0
LINE
8
BLACK
6
CONTINUOUS
10
6.158151929133858
20
-4.4700485826771654
11
6.1535131496062991
21
-4.4746873622047243
0
LINE
8
BLACK
6
CONTINUOUS
10
6.1535131496062991
20
-4.4746873622047243
11
6.1480585433070862
21
-4.4783320078740161
0
LINE
8
BLACK
6
CONTINUOUS
10
6.1480585433070862
20
-4.4783320078740161
11
6.1419977165354327
21
-4.4808424803149602
0
LINE
8
BLACK
6
CONTINUOUS
10
6.1419977165354327
20
-4.4808424803149602
11
6.1355635826771655
21
-4.4821223228346456
0
LINE
8
BLACK
6
CONTINUOUS
10
6.1355635826771655
20
-4.4821223228346456
11
6.1290033464566926
21
-4.4821223228346456
0
LINE
8
BLACK
6
CONTINUOUS
10
6.1290033464566926
20
-4.4821223228346456
11
6.1225692125984255
21
-4.4808424803149602
0
LINE
8
BLACK
6
CONTINUOUS
10
6.1225692125984255
20
-4.4808424803149602
11
6.1165083858267719
21
-4.4783320078740161
0
LINE
8
BLACK
6
CONTINUOUS
10
6.1165083858267719
20
-4.4783320078740161
11
6.111053779527559
21
-4.4746873622047243
0
LINE
8
BLACK
6
CONTINUOUS
10
6.111053779527559
20
-4.4746873622047243
11
6.1064150000000001
21
-4.4700485826771654
0
LINE
8
BLACK
6
CONTINUOUS
10
6.1064150000000001
20
-4.4700485826771654
11
6.1027703543307084
21
-4.4645939763779525
0
LINE
8
BLACK
6
CONTINUOUS
10
6.1027703543307084
20
-4.4645939763779525
11
6.1002598818897633
21
-4.458533149606299
0
LINE
8
BLACK
6
CONTINUOUS
10
6.1002598818897633
20
-4.458533149606299
11
6.0989800393700788
21
-4.4520990157480318
0
LINE
8
BLACK
6
CONTINUOUS
10
6.0989800393700788
20
-4.4520990157480318
11
6.0989800393700788
21
-4.4455387795275589
0
LINE
8
BLACK
6
CONTINUOUS
10
6.0989800393700788
20
-4.4455387795275589
11
6.1002598818897633
21
-4.4391046456692909
0
LINE
8
BLACK
6
CONTINUOUS
10
6.1002598818897633
20
-4.4391046456692909
11
6.1027703543307084
21
-4.4330438188976373
0
LINE
8
BLACK
6
CONTINUOUS
10
6.1027703543307084
20
-4.4330438188976373
11
6.1064150000000001
21
-4.4275892125984253
0
LINE
8
BLACK
6
CONTINUOUS
10
6.1064150000000001
20
-4.4275892125984253
11
6.111053779527559
21
-4.4229504330708664
0
LINE
8
BLACK
6
CONTINUOUS
10
6.111053779527559
20
-4.4229504330708664
11
6.1165083858267719
21
-4.4193057874015746
0
LINE
8
BLACK
6
CONTINUOUS
10
6.1165083858267719
20
-4.4193057874015746
11
6.1225692125984255
21
-4.4167953149606296
0
LINE
8
BLACK
6
CONTINUOUS
10
6.1225692125984255
20
-4.4167953149606296
11
6.1290033464566926
21
-4.4155154724409451
0
LINE
8
BLACK
6
CONTINUOUS
10
6.1290033464566926
20
-4.4155154724409451
11
6.1355635826771655
21
-4.4155154724409451
0
LINE
8
BLACK
6
CONTINUOUS
10
6.1355635826771655
20
-4.4155154724409451
11
6.1419977165354327
21
-4.4167953149606296
0
LINE
8
BLACK
6
CONTINUOUS
10
6.2419977165354332
20
-4.4167953149606296
11
6.2480585433070868
21
-4.4193057874015746
0
LINE
8
BLACK
6
CONTINUOUS
10
6.2480585433070868
20
-4.4193057874015746
11
6.2535131496062988
21
-4.4229504330708664
0
LINE
8
BLACK
6
CONTINUOUS
10
6.2535131496062988
20
-4.4229504330708664
11
6.2581519291338585
21
-4.4275892125984253
0
LINE
8
BLACK
6
CONTINUOUS
10
6.2581519291338585
20
-4.4275892125984253
11
6.2617965748031494
21
-4.4330438188976373
0
LINE
8
BLACK
6
CONTINUOUS
10
6.2617965748031494
20
-4.4330438188976373
11
6.2643070472440945
21
-4.4391046456692909
0
LINE
8
BLACK
6
CONTINUOUS
10
6.2643070472440945
20
-4.4391046456692909
11
6.265586889763779
21
-4.4455387795275589
0
LINE
8
BLACK
6
CONTINUOUS
10
6.265586889763779
20
-4.4455387795275589
11
6.265586889763779
21
-4.4520990157480318
0
LINE
8
BLACK
6
CONTINUOUS
10
6.265586889763779
20
-4.4520990157480318
11
6.2643070472440945
21
-4.458533149606299
0
LINE
8
BLACK
6
CONTINUOUS
10
6.2643070472440945
20
-4.458533149606299
11
6.2617965748031494
21
-4.4645939763779525
0
LINE
8
BLACK
6
CONTINUOUS
10
6.2617965748031494
20
-4.4645939763779525
11
6.2581519291338585
21
-4.4700485826771654
0
LINE
8
BLACK
6
CONTINUOUS
10
6.2581519291338585
20
-4.4700485826771654
11
6.2535131496062988
21
-4.4746873622047243
0
LINE
8
BLACK
6
CONTINUOUS
10
6.2535131496062988
20
-4.4746873622047243
11
6.2480585433070868
21
-4.4783320078740161
0
LINE
8
BLACK
6
CONTINUOUS
10
6.2480585433070868
20
-4.4783320078740161
11
6.2419977165354332
21
-4.4808424803149602
0
LINE
8
BLACK
6
CONTINUOUS
10
6.2419977165354332
20
-4.4808424803149602
11
6.2355635826771652
21
-4.4821223228346456
0
LINE
8
BLACK
6
CONTINUOUS
10
6.2355635826771652
20
-4.4821223228346456
11
6.2290033464566932
21
-4.4821223228346456
0
LINE
8
BLACK
6
CONTINUOUS
10
6.2290033464566932
20
-4.4821223228346456
11
6.2225692125984251
21
-4.4808424803149602
0
LINE
8
BLACK
6
CONTINUOUS
10
6.2225692125984251
20
-4.4808424803149602
11
6.2165083858267716
21
-4.4783320078740161
0
LINE
8
BLACK
6
CONTINUOUS
10
6.2165083858267716
20
-4.4783320078740161
11
6.2110537795275587
21
-4.4746873622047243
0
LINE
8
BLACK
6
CONTINUOUS
10
6.2110537795275587
20
-4.4746873622047243
11
6.2064149999999998
21
-4.4700485826771654
0
LINE
8
BLACK
6
CONTINUOUS
10
6.2064149999999998
20
-4.4700485826771654
11
6.2027703543307089
21
-4.4645939763779525
0
LINE
8
BLACK
6
CONTINUOUS
10
6.2027703543307089
20
-4.4645939763779525
11
6.2002598818897638
21
-4.458533149606299
0
LINE
8
BLACK
6
CONTINUOUS
10
6.2002598818897638
20
-4.458533149606299
11
6.1989800393700785
21
-4.4520990157480318
0
LINE
8
BLACK
6
CONTINUOUS
10
6.1989800393700785
20
-4.4520990157480318
11
6.1989800393700785
21
-4.4455387795275589
0
LINE
8
BLACK
6
CONTINUOUS
10
6.1989800393700785
20
-4.4455387795275589
11
6.2002598818897638
21
-4.4391046456692909
0
LINE
8
BLACK
6
CONTINUOUS
10
6.2002598818897638
20
-4.4391046456692909
11
6.2027703543307089
21
-4.4330438188976373
0
LINE
8
BLACK
6
CONTINUOUS
10
6.2027703543307089
20
-4.4330438188976373
11
6.2064149999999998
21
-4.4275892125984253
0
LINE
8
BLACK
6
CONTINUOUS
10
6.2064149999999998
20
-4.4275892125984253
11
6.2110537795275587
21
-4.4229504330708664
0
LINE
8
BLACK
6
CONTINUOUS
10
6.2110537795275587
20
-4.4229504330708664
11
6.2165083858267716
21
-4.4193057874015746
0
LINE
8
BLACK
6
CONTINUOUS
10
6.2165083858267716
20
-4.4193057874015746
11
6.2225692125984251
21
-4.4167953149606296
0
LINE
8
BLACK
6
CONTINUOUS
10
6.2225692125984251
20
-4.4167953149606296
11
6.2290033464566932
21
-4.4155154724409451
0
LINE
8
BLACK
6
CONTINUOUS
10
6.2290033464566932
20
-4.4155154724409451
11
6.2355635826771652
21
-4.4155154724409451
0
LINE
8
BLACK
6
CONTINUOUS
10
6.2355635826771652
20
-4.4155154724409451
11
6.2419977165354332
21
-4.4167953149606296
0
LINE
8
BLACK
6
CONTINUOUS
10
6.3419977165354329
20
-4.4167953149606296
11
6.3480585433070864
21
-4.4193057874015746
0
LINE
8
BLACK
6
CONTINUOUS
10
6.3480585433070864
20
-4.4193057874015746
11
6.3535131496062993
21
-4.4229504330708664
0
LINE
8
BLACK
6
CONTINUOUS
10
6.3535131496062993
20
-4.4229504330708664
11
6.3581519291338582
21
-4.4275892125984253
0
LINE
8
BLACK
6
CONTINUOUS
10
6.3581519291338582
20
-4.4275892125984253
11
6.3617965748031491
21
-4.4330438188976373
0
LINE
8
BLACK
6
CONTINUOUS
10
6.3617965748031491
20
-4.4330438188976373
11
6.3643070472440941
21
-4.4391046456692909
0
LINE
8
BLACK
6
CONTINUOUS
10
6.3643070472440941
20
-4.4391046456692909
11
6.3655868897637795
21
-4.4455387795275589
0
LINE
8
BLACK
6
CONTINUOUS
10
6.3655868897637795
20
-4.4455387795275589
11
6.3655868897637795
21
-4.4520990157480318
0
LINE
8
BLACK
6
CONTINUOUS
10
6.3655868897637795
20
-4.4520990157480318
11
6.3643070472440941
21
-4.458533149606299
0
LINE
8
BLACK
6
CONTINUOUS
10
6.3643070472440941
20
-4.458533149606299
11
6.3617965748031491
21
-4.4645939763779525
0
LINE
8
BLACK
6
CONTINUOUS
10
6.3617965748031491
20
-4.4645939763779525
11
6.3581519291338582
21
-4.4700485826771654
0
LINE
8
BLACK
6
CONTINUOUS
10
6.3581519291338582
20
-4.4700485826771654
11
6.3535131496062993
21
-4.4746873622047243
0
LINE
8
BLACK
6
CONTINUOUS
10
6.3535131496062993
20
-4.4746873622047243
11
6.3480585433070864
21
-4.4783320078740161
0
LINE
8
BLACK
6
CONTINUOUS
10
6.3480585433070864
20
-4.4783320078740161
11
6.3419977165354329
21
-4.4808424803149602
0
LINE
8
BLACK
6
CONTINUOUS
10
6.3419977165354329
20
-4.4808424803149602
11
6.3355635826771648
21
-4.4821223228346456
0
LINE
8
BLACK
6
CONTINUOUS
10
6.3355635826771648
20
-4.4821223228346456
11
6.3290033464566928
21
-4.4821223228346456
0
LINE
8
BLACK
6
CONTINUOUS
10
6.3290033464566928
20
-4.4821223228346456
11
6.3225692125984247
21
-4.4808424803149602
0
LINE
8
BLACK
6
CONTINUOUS
10
6.3225692125984247
20
-4.4808424803149602
11
6.3165083858267712
21
-4.4783320078740161
0
LINE
8
BLACK
6
CONTINUOUS
10
6.3165083858267712
20
-4.4783320078740161
11
6.3110537795275592
21
-4.4746873622047243
0
LINE
8
BLACK
6
CONTINUOUS
10
6.3110537795275592
20
-4.4746873622047243
11
6.3064149999999994
21
-4.4700485826771654
0
LINE
8
BLACK
6
CONTINUOUS
10
6.3064149999999994
20
-4.4700485826771654
11
6.3027703543307085
21
-4.4645939763779525
0
LINE
8
BLACK
6
CONTINUOUS
10
6.3027703543307085
20
-4.4645939763779525
11
6.3002598818897635
21
-4.458533149606299
0
LINE
8
BLACK
6
CONTINUOUS
10
6.3002598818897635
20
-4.458533149606299
11
6.298980039370079
21
-4.4520990157480318
0
LINE
8
BLACK
6
CONTINUOUS
10
6.298980039370079
20
-4.4520990157480318
11
6.298980039370079
21
-4.4455387795275589
0
LINE
8
BLACK
6
CONTINUOUS
10
6.298980039370079
20
-4.4455387795275589
11
6.3002598818897635
21
-4.4391046456692909
0
LINE
8
BLACK
6
CONTINUOUS
10
6.3002598818897635
20
-4.4391046456692909
11
6.3027703543307085
21
-4.4330438188976373
0
LINE
8
BLACK
6
CONTINUOUS
10
6.3027703543307085
20
-4.4330438188976373
11
6.3064149999999994
21
-4.4275892125984253
0
LINE
8
BLACK
6
CONTINUOUS
10
6.3064149999999994
20
-4.4275892125984253
11
6.3110537795275592
21
-4.4229504330708664
0
LINE
8
BLACK
6
CONTINUOUS
10
6.3110537795275592
20
-4.4229504330708664
11
6.3165083858267712
21
-4.4193057874015746
0
LINE
8
BLACK
6
CONTINUOUS
10
6.3165083858267712
20
-4.4193057874015746
11
6.3225692125984247
21
-4.4167953149606296
0
LINE
8
BLACK
6
CONTINUOUS
10
6.3225692125984247
20
-4.4167953149606296
11
6.3290033464566928
21
-4.4155154724409451
0
LINE
8
BLACK
6
CONTINUOUS
10
6.3290033464566928
20
-4.4155154724409451
11
6.3355635826771648
21
-4.4155154724409451
0
LINE
8
BLACK
6
CONTINUOUS
10
6.3355635826771648
20
-4.4155154724409451
11
6.3419977165354329
21
-4.4167953149606296
0
LINE
8
BLACK
6
CONTINUOUS
10
6.4419977165354325
20
-4.4167953149606296
11
6.4480585433070861
21
-4.4193057874015746
0
LINE
8
BLACK
6
CONTINUOUS
10
6.4480585433070861
20
-4.4193057874015746
11
6.453513149606299
21
-4.4229504330708664
0
LINE
8
BLACK
6
CONTINUOUS
10
6.453513149606299
20
-4.4229504330708664
11
6.4581519291338578
21
-4.4275892125984253
0
LINE
8
BLACK
6
CONTINUOUS
10
6.4581519291338578
20
-4.4275892125984253
11
6.4617965748031496
21
-4.4330438188976373
0
LINE
8
BLACK
6
CONTINUOUS
10
6.4617965748031496
20
-4.4330438188976373
11
6.4643070472440947
21
-4.4391046456692909
0
LINE
8
BLACK
6
CONTINUOUS
10
6.4643070472440947
20
-4.4391046456692909
11
6.4655868897637792
21
-4.4455387795275589
0
LINE
8
BLACK
6
CONTINUOUS
10
6.4655868897637792
20
-4.4455387795275589
11
6.4655868897637792
21
-4.4520990157480318
0
LINE
8
BLACK
6
CONTINUOUS
10
6.4655868897637792
20
-4.4520990157480318
11
6.4643070472440947
21
-4.458533149606299
0
LINE
8
BLACK
6
CONTINUOUS
10
6.4643070472440947
20
-4.458533149606299
11
6.4617965748031496
21
-4.4645939763779525
0
LINE
8
BLACK
6
CONTINUOUS
10
6.4617965748031496
20
-4.4645939763779525
11
6.4581519291338578
21
-4.4700485826771654
0
LINE
8
BLACK
6
CONTINUOUS
10
6.4581519291338578
20
-4.4700485826771654
11
6.453513149606299
21
-4.4746873622047243
0
LINE
8
BLACK
6
CONTINUOUS
10
6.453513149606299
20
-4.4746873622047243
11
6.4480585433070861
21
-4.4783320078740161
0
LINE
8
BLACK
6
CONTINUOUS
10
6.4480585433070861
20
-4.4783320078740161
11
6.4419977165354325
21
-4.4808424803149602
0
LINE
8
BLACK
6
CONTINUOUS
10
6.4419977165354325
20
-4.4808424803149602
11
6.4355635826771653
21
-4.4821223228346456
0
LINE
8
BLACK
6
CONTINUOUS
10
6.4355635826771653
20
-4.4821223228346456
11
6.4290033464566925
21
-4.4821223228346456
0
LINE
8
BLACK
6
CONTINUOUS
10
6.4290033464566925
20
-4.4821223228346456
11
6.4225692125984253
21
-4.4808424803149602
0
LINE
8
BLACK
6
CONTINUOUS
10
6.4225692125984253
20
-4.4808424803149602
11
6.4165083858267717
21
-4.4783320078740161
0
LINE
8
BLACK
6
CONTINUOUS
10
6.4165083858267717
20
-4.4783320078740161
11
6.4110537795275588
21
-4.4746873622047243
0
LINE
8
BLACK
6
CONTINUOUS
10
6.4110537795275588
20
-4.4746873622047243
11
6.406415
21
-4.4700485826771654
0
LINE
8
BLACK
6
CONTINUOUS
10
6.406415
20
-4.4700485826771654
11
6.4027703543307082
21
-4.4645939763779525
0
LINE
8
BLACK
6
CONTINUOUS
10
6.4027703543307082
20
-4.4645939763779525
11
6.400259881889764
21
-4.458533149606299
0
LINE
8
BLACK
6
CONTINUOUS
10
6.400259881889764
20
-4.458533149606299
11
6.3989800393700786
21
-4.4520990157480318
0
LINE
8
BLACK
6
CONTINUOUS
10
6.3989800393700786
20
-4.4520990157480318
11
6.3989800393700786
21
-4.4455387795275589
0
LINE
8
BLACK
6
CONTINUOUS
10
6.3989800393700786
20
-4.4455387795275589
11
6.400259881889764
21
-4.4391046456692909
0
LINE
8
BLACK
6
CONTINUOUS
10
6.400259881889764
20
-4.4391046456692909
11
6.4027703543307082
21
-4.4330438188976373
0
LINE
8
BLACK
6
CONTINUOUS
10
6.4027703543307082
20
-4.4330438188976373
11
6.406415
21
-4.4275892125984253
0
LINE
8
BLACK
6
CONTINUOUS
10
6.406415
20
-4.4275892125984253
11
6.4110537795275588
21
-4.4229504330708664
0
LINE
8
BLACK
6
CONTINUOUS
10
6.4110537795275588
20
-4.4229504330708664
11
6.4165083858267717
21
-4.4193057874015746
0
LINE
8
BLACK
6
CONTINUOUS
10
6.4165083858267717
20
-4.4193057874015746
11
6.4225692125984253
21
-4.4167953149606296
0
LINE
8
BLACK
6
CONTINUOUS
10
6.4225692125984253
20
-4.4167953149606296
11
6.4290033464566925
21
-4.4155154724409451
0
LINE
8
BLACK
6
CONTINUOUS
10
6.4290033464566925
20
-4.4155154724409451
11
6.4355635826771653
21
-4.4155154724409451
0
LINE
8
BLACK
6
CONTINUOUS
10
6.4355635826771653
20
-4.4155154724409451
11
6.4419977165354325
21
-4.4167953149606296
0
LINE
8
BLACK
6
CONTINUOUS
10
6.541997716535433
20
-4.4167953149606296
11
6.5480585433070866
21
-4.4193057874015746
0
LINE
8
BLACK
6
CONTINUOUS
10
6.5480585433070866
20
-4.4193057874015746
11
6.5535131496062995
21
-4.4229504330708664
0
LINE
8
BLACK
6
CONTINUOUS
10
6.5535131496062995
20
-4.4229504330708664
11
6.5581519291338584
21
-4.4275892125984253
0
LINE
8
BLACK
6
CONTINUOUS
10
6.5581519291338584
20
-4.4275892125984253
11
6.5617965748031493
21
-4.4330438188976373
0
LINE
8
BLACK
6
CONTINUOUS
10
6.5617965748031493
20
-4.4330438188976373
11
6.5643070472440943
21
-4.4391046456692909
0
LINE
8
BLACK
6
CONTINUOUS
10
6.5643070472440943
20
-4.4391046456692909
11
6.5655868897637797
21
-4.4455387795275589
0
LINE
8
BLACK
6
CONTINUOUS
10
6.5655868897637797
20
-4.4455387795275589
11
6.5655868897637797
21
-4.4520990157480318
0
LINE
8
BLACK
6
CONTINUOUS
10
6.5655868897637797
20
-4.4520990157480318
11
6.5643070472440943
21
-4.458533149606299
0
LINE
8
BLACK
6
CONTINUOUS
10
6.5643070472440943
20
-4.458533149606299
11
6.5617965748031493
21
-4.4645939763779525
0
LINE
8
BLACK
6
CONTINUOUS
10
6.5617965748031493
20
-4.4645939763779525
11
6.5581519291338584
21
-4.4700485826771654
0
LINE
8
BLACK
6
CONTINUOUS
10
6.5581519291338584
20
-4.4700485826771654
11
6.5535131496062995
21
-4.4746873622047243
0
LINE
8
BLACK
6
CONTINUOUS
10
6.5535131496062995
20
-4.4746873622047243
11
6.5480585433070866
21
-4.4783320078740161
0
LINE
8
BLACK
6
CONTINUOUS
10
6.5480585433070866
20
-4.4783320078740161
11
6.541997716535433
21
-4.4808424803149602
0
LINE
8
BLACK
6
CONTINUOUS
10
6.541997716535433
20
-4.4808424803149602
11
6.535563582677165
21
-4.4821223228346456
0
LINE
8
BLACK
6
CONTINUOUS
10
6.535563582677165
20
-4.4821223228346456
11
6.529003346456693
21
-4.4821223228346456
0
LINE
8
BLACK
6
CONTINUOUS
10
6.529003346456693
20
-4.4821223228346456
11
6.5225692125984249
21
-4.4808424803149602
0
LINE
8
BLACK
6
CONTINUOUS
10
6.5225692125984249
20
-4.4808424803149602
11
6.5165083858267714
21
-4.4783320078740161
0
LINE
8
BLACK
6
CONTINUOUS
10
6.5165083858267714
20
-4.4783320078740161
11
6.5110537795275585
21
-4.4746873622047243
0
LINE
8
BLACK
6
CONTINUOUS
10
6.5110537795275585
20
-4.4746873622047243
11
6.5064149999999996
21
-4.4700485826771654
0
LINE
8
BLACK
6
CONTINUOUS
10
6.5064149999999996
20
-4.4700485826771654
11
6.5027703543307087
21
-4.4645939763779525
0
LINE
8
BLACK
6
CONTINUOUS
10
6.5027703543307087
20
-4.4645939763779525
11
6.5002598818897637
21
-4.458533149606299
0
LINE
8
BLACK
6
CONTINUOUS
10
6.5002598818897637
20
-4.458533149606299
11
6.4989800393700783
21
-4.4520990157480318
0
LINE
8
BLACK
6
CONTINUOUS
10
6.4989800393700783
20
-4.4520990157480318
11
6.4989800393700783
21
-4.4455387795275589
0
LINE
8
BLACK
6
CONTINUOUS
10
6.4989800393700783
20
-4.4455387795275589
11
6.5002598818897637
21
-4.4391046456692909
0
LINE
8
BLACK
6
CONTINUOUS
10
6.5002598818897637
20
-4.4391046456692909
11
6.5027703543307087
21
-4.4330438188976373
0
LINE
8
BLACK
6
CONTINUOUS
10
6.5027703543307087
20
-4.4330438188976373
11
6.5064149999999996
21
-4.4275892125984253
0
LINE
8
BLACK
6
CONTINUOUS
10
6.5064149999999996
20
-4.4275892125984253
11
6.5110537795275585
21
-4.4229504330708664
0
LINE
8
BLACK
6
CONTINUOUS
10
6.5110537795275585
20
-4.4229504330708664
11
6.5165083858267714
21
-4.4193057874015746
0
LINE
8
BLACK
6
CONTINUOUS
10
6.5165083858267714
20
-4.4193057874015746
11
6.5225692125984249
21
-4.4167953149606296
0
LINE
8
BLACK
6
CONTINUOUS
10
6.5225692125984249
20
-4.4167953149606296
11
6.529003346456693
21
-4.4155154724409451
0
LINE
8
BLACK
6
CONTINUOUS
10
6.529003346456693
20
-4.4155154724409451
11
6.535563582677165
21
-4.4155154724409451
0
LINE
8
BLACK
6
CONTINUOUS
10
6.535563582677165
20
-4.4155154724409451
11
6.541997716535433
21
-4.4167953149606296
0
LINE
8
BLACK
6
CONTINUOUS
10
6.6419977165354327
20
-4.4167953149606296
11
6.6480585433070862
21
-4.4193057874015746
0
LINE
8
BLACK
6
CONTINUOUS
10
6.6480585433070862
20
-4.4193057874015746
11
6.6535131496062991
21
-4.4229504330708664
0
LINE
8
BLACK
6
CONTINUOUS
10
6.6535131496062991
20
-4.4229504330708664
11
6.658151929133858
21
-4.4275892125984253
0
LINE
8
BLACK
6
CONTINUOUS
10
6.658151929133858
20
-4.4275892125984253
11
6.6617965748031498
21
-4.4330438188976373
0
LINE
8
BLACK
6
CONTINUOUS
10
6.6617965748031498
20
-4.4330438188976373
11
6.664307047244094
21
-4.4391046456692909
0
LINE
8
BLACK
6
CONTINUOUS
10
6.664307047244094
20
-4.4391046456692909
11
6.6655868897637793
21
-4.4455387795275589
0
LINE
8
BLACK
6
CONTINUOUS
10
6.6655868897637793
20
-4.4455387795275589
11
6.6655868897637793
21
-4.4520990157480318
0
LINE
8
BLACK
6
CONTINUOUS
10
6.6655868897637793
20
-4.4520990157480318
11
6.664307047244094
21
-4.458533149606299
0
LINE
8
BLACK
6
CONTINUOUS
10
6.664307047244094
20
-4.458533149606299
11
6.6617965748031498
21
-4.4645939763779525
0
LINE
8
BLACK
6
CONTINUOUS
10
6.6617965748031498
20
-4.4645939763779525
11
6.658151929133858
21
-4.4700485826771654
0
LINE
8
BLACK
6
CONTINUOUS
10
6.658151929133858
20
-4.4700485826771654
11
6.6535131496062991
21
-4.4746873622047243
0
LINE
8
BLACK
6
CONTINUOUS
10
6.6535131496062991
20
-4.4746873622047243
11
6.6480585433070862
21
-4.4783320078740161
0
LINE
8
BLACK
6
CONTINUOUS
10
6.6480585433070862
20
-4.4783320078740161
11
6.6419977165354327
21
-4.4808424803149602
0
LINE
8
BLACK
6
CONTINUOUS
10
6.6419977165354327
20
-4.4808424803149602
11
6.6355635826771655
21
-4.4821223228346456
0
LINE
8
BLACK
6
CONTINUOUS
10
6.6355635826771655
20
-4.4821223228346456
11
6.6290033464566926
21
-4.4821223228346456
0
LINE
8
BLACK
6
CONTINUOUS
10
6.6290033464566926
20
-4.4821223228346456
11
6.6225692125984255
21
-4.4808424803149602
0
LINE
8
BLACK
6
CONTINUOUS
10
6.6225692125984255
20
-4.4808424803149602
11
6.6165083858267719
21
-4.4783320078740161
0
LINE
8
BLACK
6
CONTINUOUS
10
6.6165083858267719
20
-4.4783320078740161
11
6.611053779527559
21
-4.4746873622047243
0
LINE
8
BLACK
6
CONTINUOUS
10
6.611053779527559
20
-4.4746873622047243
11
6.6064150000000001
21
-4.4700485826771654
0
LINE
8
BLACK
6
CONTINUOUS
10
6.6064150000000001
20
-4.4700485826771654
11
6.6027703543307084
21
-4.4645939763779525
0
LINE
8
BLACK
6
CONTINUOUS
10
6.6027703543307084
20
-4.4645939763779525
11
6.6002598818897633
21
-4.458533149606299
0
LINE
8
BLACK
6
CONTINUOUS
10
6.6002598818897633
20
-4.458533149606299
11
6.5989800393700788
21
-4.4520990157480318
0
LINE
8
BLACK
6
CONTINUOUS
10
6.5989800393700788
20
-4.4520990157480318
11
6.5989800393700788
21
-4.4455387795275589
0
LINE
8
BLACK
6
CONTINUOUS
10
6.5989800393700788
20
-4.4455387795275589
11
6.6002598818897633
21
-4.4391046456692909
0
LINE
8
BLACK
6
CONTINUOUS
10
6.6002598818897633
20
-4.4391046456692909
11
6.6027703543307084
21
-4.4330438188976373
0
LINE
8
BLACK
6
CONTINUOUS
10
6.6027703543307084
20
-4.4330438188976373
11
6.6064150000000001
21
-4.4275892125984253
0
LINE
8
BLACK
6
CONTINUOUS
10
6.6064150000000001
20
-4.4275892125984253
11
6.611053779527559
21
-4.4229504330708664
0
LINE
8
BLACK
6
CONTINUOUS
10
6.611053779527559
20
-4.4229504330708664
11
6.6165083858267719
21
-4.4193057874015746
0
LINE
8
BLACK
6
CONTINUOUS
10
6.6165083858267719
20
-4.4193057874015746
11
6.6225692125984255
21
-4.4167953149606296
0
LINE
8
BLACK
6
CONTINUOUS
10
6.6225692125984255
20
-4.4167953149606296
11
6.6290033464566926
21
-4.4155154724409451
0
LINE
8
BLACK
6
CONTINUOUS
10
6.6290033464566926
20
-4.4155154724409451
11
6.6355635826771655
21
-4.4155154724409451
0
LINE
8
BLACK
6
CONTINUOUS
10
6.6355635826771655
20
-4.4155154724409451
11
6.6419977165354327
21
-4.4167953149606296
0
LINE
8
BLACK
6
CONTINUOUS
10
6.7419977165354332
20
-4.4167953149606296
11
6.7480585433070868
21
-4.4193057874015746
0
LINE
8
BLACK
6
CONTINUOUS
10
6.7480585433070868
20
-4.4193057874015746
11
6.7535131496062988
21
-4.4229504330708664
0
LINE
8
BLACK
6
CONTINUOUS
10
6.7535131496062988
20
-4.4229504330708664
11
6.7581519291338585
21
-4.4275892125984253
0
LINE
8
BLACK
6
CONTINUOUS
10
6.7581519291338585
20
-4.4275892125984253
11
6.7617965748031494
21
-4.4330438188976373
0
LINE
8
BLACK
6
CONTINUOUS
10
6.7617965748031494
20
-4.4330438188976373
11
6.7643070472440945
21
-4.4391046456692909
0
LINE
8
BLACK
6
CONTINUOUS
10
6.7643070472440945
20
-4.4391046456692909
11
6.765586889763779
21
-4.4455387795275589
0
LINE
8
BLACK
6
CONTINUOUS
10
6.765586889763779
20
-4.4455387795275589
11
6.765586889763779
21
-4.4520990157480318
0
LINE
8
BLACK
6
CONTINUOUS
10
6.765586889763779
20
-4.4520990157480318
11
6.7643070472440945
21
-4.458533149606299
0
LINE
8
BLACK
6
CONTINUOUS
10
6.7643070472440945
20
-4.458533149606299
11
6.7617965748031494
21
-4.4645939763779525
0
LINE
8
BLACK
6
CONTINUOUS
10
6.7617965748031494
20
-4.4645939763779525
11
6.7581519291338585
21
-4.4700485826771654
0
LINE
8
BLACK
6
CONTINUOUS
10
6.7581519291338585
20
-4.4700485826771654
11
6.7535131496062988
21
-4.4746873622047243
0
LINE
8
BLACK
6
CONTINUOUS
10
6.7535131496062988
20
-4.4746873622047243
11
6.7480585433070868
21
-4.4783320078740161
0
LINE
8
BLACK
6
CONTINUOUS
10
6.7480585433070868
20
-4.4783320078740161
11
6.7419977165354332
21
-4.4808424803149602
0
LINE
8
BLACK
6
CONTINUOUS
10
6.7419977165354332
20
-4.4808424803149602
11
6.7355635826771652
21
-4.4821223228346456
0
LINE
8
BLACK
6
CONTINUOUS
10
6.7355635826771652
20
-4.4821223228346456
11
6.7290033464566932
21
-4.4821223228346456
0
LINE
8
BLACK
6
CONTINUOUS
10
6.7290033464566932
20
-4.4821223228346456
11
6.7225692125984251
21
-4.4808424803149602
0
LINE
8
BLACK
6
CONTINUOUS
10
6.7225692125984251
20
-4.4808424803149602
11
6.7165083858267716
21
-4.4783320078740161
0
LINE
8
BLACK
6
CONTINUOUS
10
6.7165083858267716
20
-4.4783320078740161
11
6.7110537795275587
21
-4.4746873622047243
0
LINE
8
BLACK
6
CONTINUOUS
10
6.7110537795275587
20
-4.4746873622047243
11
6.7064149999999998
21
-4.4700485826771654
0
LINE
8
BLACK
6
CONTINUOUS
10
6.7064149999999998
20
-4.4700485826771654
11
6.7027703543307089
21
-4.4645939763779525
0
LINE
8
BLACK
6
CONTINUOUS
10
6.7027703543307089
20
-4.4645939763779525
11
6.7002598818897638
21
-4.458533149606299
0
LINE
8
BLACK
6
CONTINUOUS
10
6.7002598818897638
20
-4.458533149606299
11
6.6989800393700785
21
-4.4520990157480318
0
LINE
8
BLACK
6
CONTINUOUS
10
6.6989800393700785
20
-4.4520990157480318
11
6.6989800393700785
21
-4.4455387795275589
0
LINE
8
BLACK
6
CONTINUOUS
10
6.6989800393700785
20
-4.4455387795275589
11
6.7002598818897638
21
-4.4391046456692909
0
LINE
8
BLACK
6
CONTINUOUS
10
6.7002598818897638
20
-4.4391046456692909
11
6.7027703543307089
21
-4.4330438188976373
0
LINE
8
BLACK
6
CONTINUOUS
10
6.7027703543307089
20
-4.4330438188976373
11
6.7064149999999998
21
-4.4275892125984253
0
LINE
8
BLACK
6
CONTINUOUS
10
6.7064149999999998
20
-4.4275892125984253
11
6.7110537795275587
21
-4.4229504330708664
0
LINE
8
BLACK
6
CONTINUOUS
10
6.7110537795275587
20
-4.4229504330708664
11
6.7165083858267716
21
-4.4193057874015746
0
LINE
8
BLACK
6
CONTINUOUS
10
6.7165083858267716
20
-4.4193057874015746
11
6.7225692125984251
21
-4.4167953149606296
0
LINE
8
BLACK
6
CONTINUOUS
10
6.7225692125984251
20
-4.4167953149606296
11
6.7290033464566932
21
-4.4155154724409451
0
LINE
8
BLACK
6
CONTINUOUS
10
6.7290033464566932
20
-4.4155154724409451
11
6.7355635826771652
21
-4.4155154724409451
0
LINE
8
BLACK
6
CONTINUOUS
10
6.7355635826771652
20
-4.4155154724409451
11
6.7419977165354332
21
-4.4167953149606296
0
CIRCLE
8
BLACK
10
4.4322834645669289
20
-4.4488188976377954
40
0.0068897637795276
0
CIRCLE
8
BLACK
10
4.5322834645669294
20
-4.4488188976377954
40
0.0068897637795276
0
CIRCLE
8
BLACK
10
4.6322834645669291
20
-4.4488188976377954
40
0.0068897637795276
0
CIRCLE
8
BLACK
10
4.7322834645669287
20
-4.4488188976377954
40
0.0068897637795276
0
CIRCLE
8
BLACK
10
4.8322834645669293
20
-4.4488188976377954
40
0.0068897637795276
0
CIRCLE
8
BLACK
10
4.9322834645669289
20
-4.4488188976377954
40
0.0068897637795276
0
CIRCLE
8
BLACK
10
5.0322834645669294
20
-4.4488188976377954
40
0.0068897637795276
0
CIRCLE
8
BLACK
10
5.1322834645669291
20
-4.4488188976377954
40
0.0068897637795276
0
CIRCLE
8
BLACK
10
5.8322834645669293
20
-4.4488188976377954
40
0.0068897637795276
0
CIRCLE
8
BLACK
10
5.9322834645669289
20
-4.4488188976377954
40
0.0068897637795276
0
CIRCLE
8
BLACK
10
6.0322834645669294
20
-4.4488188976377954
40
0.0068897637795276
0
CIRCLE
8
BLACK
10
6.1322834645669291
20
-4.4488188976377954
40
0.0068897637795276
0
CIRCLE
8
BLACK
10
6.2322834645669287
20
-4.4488188976377954
40
0.0068897637795276
0
CIRCLE
8
BLACK
10
6.3322834645669293
20
-4.4488188976377954
40
0.0068897637795276
0
CIRCLE
8
BLACK
10
6.4322834645669289
20
-4.4488188976377954
40
0.0068897637795276
0
CIRCLE
8
BLACK
10
6.5322834645669285
20
-4.4488188976377954
40
0.0068897637795276
0
CIRCLE
8
BLACK
10
6.6322834645669291
20
-4.4488188976377954
40
0.0068897637795276
0
CIRCLE
8
BLACK
10
6.7322834645669287
20
-4.4488188976377954
40
0.0068897637795276
0
CIRCLE
8
WHITE
10
4.4322834645669289
20
-4.4488188976377954
40
0.0068897637795276
0
CIRCLE
8
WHITE
10
4.5322834645669294
20
-4.4488188976377954
40
0.0068897637795276
0
CIRCLE
8
WHITE
10
4.6322834645669291
20
-4.4488188976377954
40
0.0068897637795276
0
CIRCLE
8
WHITE
10
4.7322834645669287
20
-4.4488188976377954
40
0.0068897637795276
0
CIRCLE
8
WHITE
10
4.8322834645669293
20
-4.4488188976377954
40
0.0068897637795276
0
CIRCLE
8
WHITE
10
4.9322834645669289
20
-4.4488188976377954
40
0.0068897637795276
0
CIRCLE
8
WHITE
10
5.0322834645669294
20
-4.4488188976377954
40
0.0068897637795276
0
CIRCLE
8
WHITE
10
5.1322834645669291
20
-4.4488188976377954
40
0.0068897637795276
0
CIRCLE
8
WHITE
10
5.8322834645669293
20
-4.4488188976377954
40
0.0068897637795276
0
CIRCLE
8
WHITE
10
5.9322834645669289
20
-4.4488188976377954
40
0.0068897637795276
0
CIRCLE
8
WHITE
10
6.0322834645669294
20
-4.4488188976377954
40
0.0068897637795276
0
CIRCLE
8
WHITE
10
6.1322834645669291
20
-4.4488188976377954
40
0.0068897637795276
0
CIRCLE
8
WHITE
10
6.2322834645669287
20
-4.4488188976377954
40
0.0068897637795276
0
CIRCLE
8
WHITE
10
6.3322834645669293
20
-4.4488188976377954
40
0.0068897637795276
0
CIRCLE
8
WHITE
10
6.4322834645669289
20
-4.4488188976377954
40
0.0068897637795276
0
CIRCLE
8
WHITE
10
6.5322834645669285
20
-4.4488188976377954
40
0.0068897637795276
0
CIRCLE
8
WHITE
10
6.6322834645669291
20
-4.4488188976377954
40
0.0068897637795276
0
CIRCLE
8
WHITE
10
6.7322834645669287
20
-4.4488188976377954
40
0.0068897637795276
  0
ENDSEC
  0
EOF
