  0
SECTION
  2
HEADER
  9
$ANGBASE
  50
0.0
  9
$ANGDIR
  70
1
  9
$MEASUREMENT
  70
0
  0
ENDSEC
  0
SECTION
  2
TABLES
  0
TABLE
  2
LTYPE
  70
4
  0
LTYPE
  5
40F
  2
CONTINUOUS
  70
0
  3
Solid line
  72
65
  73
0
  40
0.0
  0
LTYPE
  5
410
  2
DASHDOT
 70
0
  3
Dash Dot ____ _ ____ _
 72
65
 73
4
 40
2.0
 49
1.25
 49
-0.25
 49
0.25
 49
-0.25
  0
LTYPE
  5
411
  2
DASHED
 70
0
  3
Dashed __ __ __ __ __
 72
65
 73
2
 40
0.75
 49
0.5
 49
-0.25
  0
LTYPE
  5
43B
  2
DOTTED
 70
0
  3
Dotted .  .  .  .
 72
65
 73
2
 40
0.2
 49
0.0
 49
-0.2
  0
ENDTAB
  0
TABLE
  2
STYLE
  70
4
  0
STYLE
  2
KICAD
  70
0
  40
0
  41
1
  42
1
  50
0
  71
0
  3
isocp.shx
  0
STYLE
  2
KICADB
  70
0
  40
0
  41
1
  42
1
  50
0
  71
0
  3
isocp.shx
  0
STYLE
  2
KICADI
  70
0
  40
0
  41
1
  42
1
  50
15
  71
0
  3
isocp.shx
  0
STYLE
  2
KICADBI
  70
0
  40
0
  41
1
  42
1
  50
15
  71
0
  3
isocp.shx
  0
ENDTAB
  0
TABLE
  2
LAYER
  70
1
  0
LAYER
  2
BLACK
  70
0
  62
7
  6
CONTINUOUS
  0
ENDTAB
  0
ENDSEC
  0
SECTION
  2
ENTITIES
0
CIRCLE
8
BLACK
10
4.4322834645669289
20
-4.4488188976377954
40
0.0068897637795276
0
CIRCLE
8
BLACK
10
4.5322834645669294
20
-4.4488188976377954
40
0.0068897637795276
0
CIRCLE
8
BLACK
10
4.6322834645669291
20
-4.4488188976377954
40
0.0068897637795276
0
CIRCLE
8
BLACK
10
4.7322834645669287
20
-4.4488188976377954
40
0.0068897637795276
0
CIRCLE
8
BLACK
10
4.8322834645669293
20
-4.4488188976377954
40
0.0068897637795276
0
CIRCLE
8
BLACK
10
4.9322834645669289
20
-4.4488188976377954
40
0.0068897637795276
0
CIRCLE
8
BLACK
10
5.0322834645669294
20
-4.4488188976377954
40
0.0068897637795276
0
CIRCLE
8
BLACK
10
5.1322834645669291
20
-4.4488188976377954
40
0.0068897637795276
0
CIRCLE
8
BLACK
10
5.8322834645669293
20
-4.4488188976377954
40
0.0068897637795276
0
CIRCLE
8
BLACK
10
5.9322834645669289
20
-4.4488188976377954
40
0.0068897637795276
0
CIRCLE
8
BLACK
10
6.0322834645669294
20
-4.4488188976377954
40
0.0068897637795276
0
CIRCLE
8
BLACK
10
6.1322834645669291
20
-4.4488188976377954
40
0.0068897637795276
0
CIRCLE
8
BLACK
10
6.2322834645669287
20
-4.4488188976377954
40
0.0068897637795276
0
CIRCLE
8
BLACK
10
6.3322834645669293
20
-4.4488188976377954
40
0.0068897637795276
0
CIRCLE
8
BLACK
10
6.4322834645669289
20
-4.4488188976377954
40
0.0068897637795276
0
CIRCLE
8
BLACK
10
6.5322834645669285
20
-4.4488188976377954
40
0.0068897637795276
0
CIRCLE
8
BLACK
10
6.6322834645669291
20
-4.4488188976377954
40
0.0068897637795276
0
CIRCLE
8
BLACK
10
6.7322834645669287
20
-4.4488188976377954
40
0.0068897637795276
  0
ENDSEC
  0
EOF
