  0
SECTION
  2
HEADER
  9
$ANGBASE
  50
0.0
  9
$ANGDIR
  70
1
  9
$MEASUREMENT
  70
0
  0
ENDSEC
  0
SECTION
  2
TABLES
  0
TABLE
  2
LTYPE
  70
4
  0
LTYPE
  5
40F
  2
CONTINUOUS
  70
0
  3
Solid line
  72
65
  73
0
  40
0.0
  0
LTYPE
  5
410
  2
DASHDOT
 70
0
  3
Dash Dot ____ _ ____ _
 72
65
 73
4
 40
2.0
 49
1.25
 49
-0.25
 49
0.25
 49
-0.25
  0
LTYPE
  5
411
  2
DASHED
 70
0
  3
Dashed __ __ __ __ __
 72
65
 73
2
 40
0.75
 49
0.5
 49
-0.25
  0
LTYPE
  5
43B
  2
DOTTED
 70
0
  3
Dotted .  .  .  .
 72
65
 73
2
 40
0.2
 49
0.0
 49
-0.2
  0
ENDTAB
  0
TABLE
  2
STYLE
  70
4
  0
STYLE
  2
KICAD
  70
0
  40
0
  41
1
  42
1
  50
0
  71
0
  3
isocp.shx
  0
STYLE
  2
KICADB
  70
0
  40
0
  41
1
  42
1
  50
0
  71
0
  3
isocp.shx
  0
STYLE
  2
KICADI
  70
0
  40
0
  41
1
  42
1
  50
15
  71
0
  3
isocp.shx
  0
STYLE
  2
KICADBI
  70
0
  40
0
  41
1
  42
1
  50
15
  71
0
  3
isocp.shx
  0
ENDTAB
  0
TABLE
  2
LAYER
  70
1
  0
LAYER
  2
BLACK
  70
0
  62
7
  6
CONTINUOUS
  0
ENDTAB
  0
ENDSEC
  0
SECTION
  2
ENTITIES
0
LINE
8
BLACK
6
CONTINUOUS
10
4.422832598425197
20
-4.7252390157480315
11
4.4238970078740154
21
-4.7256799212598422
0
LINE
8
BLACK
6
CONTINUOUS
10
4.4238970078740154
20
-4.7256799212598422
11
4.4247116535433069
21
-4.7264945669291336
0
LINE
8
BLACK
6
CONTINUOUS
10
4.4247116535433069
20
-4.7264945669291336
11
4.4251525590551184
21
-4.7275589763779529
0
LINE
8
BLACK
6
CONTINUOUS
10
4.4251525590551184
20
-4.7275589763779529
11
4.4251525590551184
21
-4.7287111023622046
0
LINE
8
BLACK
6
CONTINUOUS
10
4.4251525590551184
20
-4.7287111023622046
11
4.4247116535433069
21
-4.7297755118110238
0
LINE
8
BLACK
6
CONTINUOUS
10
4.4247116535433069
20
-4.7297755118110238
11
4.4238970078740154
21
-4.7305901574803144
0
LINE
8
BLACK
6
CONTINUOUS
10
4.4238970078740154
20
-4.7305901574803144
11
4.422832598425197
21
-4.7310310629921259
0
LINE
8
BLACK
6
CONTINUOUS
10
4.422832598425197
20
-4.7310310629921259
11
4.4222565354330712
21
-4.7310877952755908
0
LINE
8
BLACK
6
CONTINUOUS
10
4.4222565354330712
20
-4.7310877952755908
11
4.413960708661417
21
-4.7310877952755908
0
LINE
8
BLACK
6
CONTINUOUS
10
4.413960708661417
20
-4.7310877952755908
11
4.413960708661417
21
-4.7675051181102361
0
LINE
8
BLACK
6
CONTINUOUS
10
4.413960708661417
20
-4.7675051181102361
11
4.4139604724409445
21
-4.7675071653543304
0
LINE
8
BLACK
6
CONTINUOUS
10
4.4139604724409445
20
-4.7675071653543304
11
4.413960708661417
21
-4.7675082283464567
0
LINE
8
BLACK
6
CONTINUOUS
10
4.413960708661417
20
-4.7675082283464567
11
4.4139600787401569
21
-4.767511220472441
0
LINE
8
BLACK
6
CONTINUOUS
10
4.4139600787401569
20
-4.767511220472441
11
4.4139039763779531
21
-4.768081181102362
0
LINE
8
BLACK
6
CONTINUOUS
10
4.4139039763779531
20
-4.768081181102362
11
4.4137920866141735
21
-4.76835125984252
0
LINE
8
BLACK
6
CONTINUOUS
10
4.4137920866141735
20
-4.76835125984252
11
4.4137347637795274
21
-4.7686379527559053
0
LINE
8
BLACK
6
CONTINUOUS
10
4.4137347637795274
20
-4.7686379527559053
11
4.4135737401574806
21
-4.7688783464566926
0
LINE
8
BLACK
6
CONTINUOUS
10
4.4135737401574806
20
-4.7688783464566926
11
4.4134630708661415
21
-4.7691455905511813
0
LINE
8
BLACK
6
CONTINUOUS
10
4.4134630708661415
20
-4.7691455905511813
11
4.4132564173228346
21
-4.7693522047244095
0
LINE
8
BLACK
6
CONTINUOUS
10
4.4132564173228346
20
-4.7693522047244095
11
4.4130937007874014
21
-4.7695952362204723
0
LINE
8
BLACK
6
CONTINUOUS
10
4.4130937007874014
20
-4.7695952362204723
11
4.4128528740157478
21
-4.7697557480314963
0
LINE
8
BLACK
6
CONTINUOUS
10
4.4128528740157478
20
-4.7697557480314963
11
4.4126484251968501
21
-4.7699602362204727
0
LINE
8
BLACK
6
CONTINUOUS
10
4.4126484251968501
20
-4.7699602362204727
11
4.412378346456693
21
-4.7700720866141735
0
LINE
8
BLACK
6
CONTINUOUS
10
4.412378346456693
20
-4.7700720866141735
11
4.4121350787401576
21
-4.7702342913385829
0
LINE
8
BLACK
6
CONTINUOUS
10
4.4121350787401576
20
-4.7702342913385829
11
4.4118512598425195
21
-4.7702903937007877
0
LINE
8
BLACK
6
CONTINUOUS
10
4.4118512598425195
20
-4.7702903937007877
11
4.4115840157480317
21
-4.7704011417322834
0
LINE
8
BLACK
6
CONTINUOUS
10
4.4115840157480317
20
-4.7704011417322834
11
4.4112916141732281
21
-4.7704011417322834
0
LINE
8
BLACK
6
CONTINUOUS
10
4.4112916141732281
20
-4.7704011417322834
11
4.4110048425196853
21
-4.7704578740157482
0
LINE
8
BLACK
6
CONTINUOUS
10
4.4110048425196853
20
-4.7704578740157482
11
4.4107211811023621
21
-4.7704011417322834
0
LINE
8
BLACK
6
CONTINUOUS
10
4.4107211811023621
20
-4.7704011417322834
11
4.4104318897637791
21
-4.7704011417322834
0
LINE
8
BLACK
6
CONTINUOUS
10
4.4104318897637791
20
-4.7704011417322834
11
4.4101617716535433
21
-4.7702892519685038
0
LINE
8
BLACK
6
CONTINUOUS
10
4.4101617716535433
20
-4.7702892519685038
11
4.4098751574803146
21
-4.7702319291338577
0
LINE
8
BLACK
6
CONTINUOUS
10
4.4098751574803146
20
-4.7702319291338577
11
4.4096347637795272
21
-4.7700709448818897
0
LINE
8
BLACK
6
CONTINUOUS
10
4.4096347637795272
20
-4.7700709448818897
11
4.4093674803149607
21
-4.7699602362204727
0
LINE
8
BLACK
6
CONTINUOUS
10
4.4093674803149607
20
-4.7699602362204727
11
4.4091607480314963
21
-4.7697535039370074
0
LINE
8
BLACK
6
CONTINUOUS
10
4.4091607480314963
20
-4.7697535039370074
11
4.4089178740157475
21
-4.7695908661417326
0
LINE
8
BLACK
6
CONTINUOUS
10
4.4089178740157475
20
-4.7695908661417326
11
4.4085548425196848
21
-4.7691475984251968
0
LINE
8
BLACK
6
CONTINUOUS
10
4.4085548425196848
20
-4.7691475984251968
11
4.4085528346456693
21
-4.7691455905511813
0
LINE
8
BLACK
6
CONTINUOUS
10
4.4085528346456693
20
-4.7691455905511813
11
4.4085524409448817
21
-4.7691446850393699
0
LINE
8
BLACK
6
CONTINUOUS
10
4.4085524409448817
20
-4.7691446850393699
11
4.408551102362205
21
-4.7691430314960632
0
LINE
8
BLACK
6
CONTINUOUS
10
4.408551102362205
20
-4.7691430314960632
11
4.4049637007874018
21
-4.7637619291338584
0
LINE
8
BLACK
6
CONTINUOUS
10
4.4049637007874018
20
-4.7637619291338584
11
4.4017598031496066
21
-4.7605580314960632
0
LINE
8
BLACK
6
CONTINUOUS
10
4.4017598031496066
20
-4.7605580314960632
11
4.3984388582677161
21
-4.7588975590551179
0
LINE
8
BLACK
6
CONTINUOUS
10
4.3984388582677161
20
-4.7588975590551179
11
4.3979489763779522
21
-4.7585892125984248
0
LINE
8
BLACK
6
CONTINUOUS
10
4.3979489763779522
20
-4.7585892125984248
11
4.3971941338582674
21
-4.7577188188976374
0
LINE
8
BLACK
6
CONTINUOUS
10
4.3971941338582674
20
-4.7577188188976374
11
4.3968298031496058
21
-4.7566258661417322
0
LINE
8
BLACK
6
CONTINUOUS
10
4.3968298031496058
20
-4.7566258661417322
11
4.3969114566929131
21
-4.7554766535433073
0
LINE
8
BLACK
6
CONTINUOUS
10
4.3969114566929131
20
-4.7554766535433073
11
4.3974266929133856
21
-4.7544461417322834
0
LINE
8
BLACK
6
CONTINUOUS
10
4.3974266929133856
20
-4.7544461417322834
11
4.3982970866141731
21
-4.7536912992125986
0
LINE
8
BLACK
6
CONTINUOUS
10
4.3982970866141731
20
-4.7536912992125986
11
4.3993900393700782
21
-4.753326968503937
0
LINE
8
BLACK
6
CONTINUOUS
10
4.3993900393700782
20
-4.753326968503937
11
4.400539251968504
21
-4.7534086220472442
0
LINE
8
BLACK
6
CONTINUOUS
10
4.400539251968504
20
-4.7534086220472442
11
4.4010798818897641
21
-4.7536155118110237
0
LINE
8
BLACK
6
CONTINUOUS
10
4.4010798818897641
20
-4.7536155118110237
11
4.4048294094488192
21
-4.7554902755905513
0
LINE
8
BLACK
6
CONTINUOUS
10
4.4048294094488192
20
-4.7554902755905513
11
4.4050774015748031
21
-4.755646338582677
0
LINE
8
BLACK
6
CONTINUOUS
10
4.4050774015748031
20
-4.755646338582677
11
4.4051493700787399
21
-4.7556761811023618
0
LINE
8
BLACK
6
CONTINUOUS
10
4.4051493700787399
20
-4.7556761811023618
11
4.4052303149606296
21
-4.7557426377952758
0
LINE
8
BLACK
6
CONTINUOUS
10
4.4052303149606296
20
-4.7557426377952758
11
4.405319291338583
21
-4.7557986220472444
0
LINE
8
BLACK
6
CONTINUOUS
10
4.405319291338583
20
-4.7557986220472444
11
4.4053704330708658
21
-4.7558575984251972
0
LINE
8
BLACK
6
CONTINUOUS
10
4.4053704330708658
20
-4.7558575984251972
11
4.4055968110236217
21
-4.7560433858267714
0
LINE
8
BLACK
6
CONTINUOUS
10
4.4055968110236217
20
-4.7560433858267714
11
4.4080551968503938
21
-4.7585017716535436
0
LINE
8
BLACK
6
CONTINUOUS
10
4.4080551968503938
20
-4.7585017716535436
11
4.4080551968503938
21
-4.7310877952755908
0
LINE
8
BLACK
6
CONTINUOUS
10
4.4080551968503938
20
-4.7310877952755908
11
4.3997593700787396
21
-4.7310877952755908
0
LINE
8
BLACK
6
CONTINUOUS
10
4.3997593700787396
20
-4.7310877952755908
11
4.3991833070866138
21
-4.7310310629921259
0
LINE
8
BLACK
6
CONTINUOUS
10
4.3991833070866138
20
-4.7310310629921259
11
4.3981188976377954
21
-4.7305901574803144
0
LINE
8
BLACK
6
CONTINUOUS
10
4.3981188976377954
20
-4.7305901574803144
11
4.3973042519685039
21
-4.7297755118110238
0
LINE
8
BLACK
6
CONTINUOUS
10
4.3973042519685039
20
-4.7297755118110238
11
4.3968633464566924
21
-4.7287111023622046
0
LINE
8
BLACK
6
CONTINUOUS
10
4.3968633464566924
20
-4.7287111023622046
11
4.3968633464566924
21
-4.7275589763779529
0
LINE
8
BLACK
6
CONTINUOUS
10
4.3968633464566924
20
-4.7275589763779529
11
4.3973042519685039
21
-4.7264945669291336
0
LINE
8
BLACK
6
CONTINUOUS
10
4.3973042519685039
20
-4.7264945669291336
11
4.3981188976377954
21
-4.7256799212598422
0
LINE
8
BLACK
6
CONTINUOUS
10
4.3981188976377954
20
-4.7256799212598422
11
4.3991833070866138
21
-4.7252390157480315
0
LINE
8
BLACK
6
CONTINUOUS
10
4.3991833070866138
20
-4.7252390157480315
11
4.3997593700787396
21
-4.7251822834645667
0
LINE
8
BLACK
6
CONTINUOUS
10
4.3997593700787396
20
-4.7251822834645667
11
4.4222565354330712
21
-4.7251822834645667
0
LINE
8
BLACK
6
CONTINUOUS
10
4.4222565354330712
20
-4.7251822834645667
11
4.422832598425197
21
-4.7252390157480315
0
LINE
8
BLACK
6
CONTINUOUS
10
4.3719294094488186
20
-4.7252109842519685
11
4.372007204724409
21
-4.7252054724409449
0
LINE
8
BLACK
6
CONTINUOUS
10
4.372007204724409
20
-4.7252054724409449
11
4.3721094488188976
21
-4.7252287007874019
0
LINE
8
BLACK
6
CONTINUOUS
10
4.3721094488188976
20
-4.7252287007874019
11
4.3722139370078743
21
-4.7252390157480315
0
LINE
8
BLACK
6
CONTINUOUS
10
4.3722139370078743
20
-4.7252390157480315
11
4.3722859842519686
21
-4.7252688582677163
0
LINE
8
BLACK
6
CONTINUOUS
10
4.3722859842519686
20
-4.7252688582677163
11
4.3725716535433072
21
-4.7253338188976377
0
LINE
8
BLACK
6
CONTINUOUS
10
4.3725716535433072
20
-4.7253338188976377
11
4.3781959448818899
21
-4.727208622047244
0
LINE
8
BLACK
6
CONTINUOUS
10
4.3781959448818899
20
-4.727208622047244
11
4.3787244881889764
21
-4.7274446062992128
0
LINE
8
BLACK
6
CONTINUOUS
10
4.3787244881889764
20
-4.7274446062992128
11
4.3788046456692911
21
-4.7275141338582678
0
LINE
8
BLACK
6
CONTINUOUS
10
4.3788046456692911
20
-4.7275141338582678
11
4.3789026377952753
21
-4.7275547244094485
0
LINE
8
BLACK
6
CONTINUOUS
10
4.3789026377952753
20
-4.7275547244094485
11
4.3793500787401571
21
-4.7279219291338581
0
LINE
8
BLACK
6
CONTINUOUS
10
4.3793500787401571
20
-4.7279219291338581
11
4.3830996062992122
21
-4.7316714566929132
0
LINE
8
BLACK
6
CONTINUOUS
10
4.3830996062992122
20
-4.7316714566929132
11
4.3834668503937007
21
-4.732118897637795
0
LINE
8
BLACK
6
CONTINUOUS
10
4.3834668503937007
20
-4.732118897637795
11
4.3835074409448822
21
-4.7322169291338581
0
LINE
8
BLACK
6
CONTINUOUS
10
4.3835074409448822
20
-4.7322169291338581
11
4.3835769291338584
21
-4.7322970472440939
0
LINE
8
BLACK
6
CONTINUOUS
10
4.3835769291338584
20
-4.7322970472440939
11
4.3838129133858263
21
-4.7328256299212601
0
LINE
8
BLACK
6
CONTINUOUS
10
4.3838129133858263
20
-4.7328256299212601
11
4.3856876771653539
21
-4.738449881889764
0
LINE
8
BLACK
6
CONTINUOUS
10
4.3856876771653539
20
-4.738449881889764
11
4.3857525984251966
21
-4.7387355118110239
0
LINE
8
BLACK
6
CONTINUOUS
10
4.3857525984251966
20
-4.7387355118110239
11
4.3857824803149601
21
-4.7388075984251969
0
LINE
8
BLACK
6
CONTINUOUS
10
4.3857824803149601
20
-4.7388075984251969
11
4.3857927559055119
21
-4.738912047244094
0
LINE
8
BLACK
6
CONTINUOUS
10
4.3857927559055119
20
-4.738912047244094
11
4.3858160236220476
21
-4.7390143307086614
0
LINE
8
BLACK
6
CONTINUOUS
10
4.3858160236220476
20
-4.7390143307086614
11
4.3858104724409444
21
-4.7390920472440943
0
LINE
8
BLACK
6
CONTINUOUS
10
4.3858104724409444
20
-4.7390920472440943
11
4.3858392125984249
21
-4.7393836614173228
0
LINE
8
BLACK
6
CONTINUOUS
10
4.3858392125984249
20
-4.7393836614173228
11
4.3858392125984249
21
-4.7675051181102361
0
LINE
8
BLACK
6
CONTINUOUS
10
4.3858392125984249
20
-4.7675051181102361
11
4.3857824803149601
21
-4.768081181102362
0
LINE
8
BLACK
6
CONTINUOUS
10
4.3857824803149601
20
-4.768081181102362
11
4.3853415748031495
21
-4.7691455905511813
0
LINE
8
BLACK
6
CONTINUOUS
10
4.3853415748031495
20
-4.7691455905511813
11
4.384526929133858
21
-4.7699602362204727
0
LINE
8
BLACK
6
CONTINUOUS
10
4.384526929133858
20
-4.7699602362204727
11
4.3834625196850396
21
-4.7704011417322834
0
LINE
8
BLACK
6
CONTINUOUS
10
4.3834625196850396
20
-4.7704011417322834
11
4.382310393700787
21
-4.7704011417322834
0
LINE
8
BLACK
6
CONTINUOUS
10
4.382310393700787
20
-4.7704011417322834
11
4.3812459842519687
21
-4.7699602362204727
0
LINE
8
BLACK
6
CONTINUOUS
10
4.3812459842519687
20
-4.7699602362204727
11
4.3804313385826772
21
-4.7691455905511813
0
LINE
8
BLACK
6
CONTINUOUS
10
4.3804313385826772
20
-4.7691455905511813
11
4.3799904330708657
21
-4.768081181102362
0
LINE
8
BLACK
6
CONTINUOUS
10
4.3799904330708657
20
-4.768081181102362
11
4.3799337007874017
21
-4.7675051181102361
0
LINE
8
BLACK
6
CONTINUOUS
10
4.3799337007874017
20
-4.7675051181102361
11
4.3799337007874017
21
-4.7398627952755907
0
LINE
8
BLACK
6
CONTINUOUS
10
4.3799337007874017
20
-4.7398627952755907
11
4.3784309055118111
21
-4.7353544094488189
0
LINE
8
BLACK
6
CONTINUOUS
10
4.3784309055118111
20
-4.7353544094488189
11
4.3756670866141727
21
-4.7325905905511814
0
LINE
8
BLACK
6
CONTINUOUS
10
4.3756670866141727
20
-4.7325905905511814
11
4.3711587007874018
21
-4.7310877952755908
0
LINE
8
BLACK
6
CONTINUOUS
10
4.3711587007874018
20
-4.7310877952755908
11
4.3678883464566924
21
-4.7310877952755908
0
LINE
8
BLACK
6
CONTINUOUS
10
4.3678883464566924
20
-4.7310877952755908
11
4.3673122834645666
21
-4.7310310629921259
0
LINE
8
BLACK
6
CONTINUOUS
10
4.3673122834645666
20
-4.7310310629921259
11
4.3662478740157482
21
-4.7305901574803144
0
LINE
8
BLACK
6
CONTINUOUS
10
4.3662478740157482
20
-4.7305901574803144
11
4.3654332283464568
21
-4.7297755118110238
0
LINE
8
BLACK
6
CONTINUOUS
10
4.3654332283464568
20
-4.7297755118110238
11
4.3649923228346452
21
-4.7287111023622046
0
LINE
8
BLACK
6
CONTINUOUS
10
4.3649923228346452
20
-4.7287111023622046
11
4.3649923228346452
21
-4.7275589763779529
0
LINE
8
BLACK
6
CONTINUOUS
10
4.3649923228346452
20
-4.7275589763779529
11
4.3654332283464568
21
-4.7264945669291336
0
LINE
8
BLACK
6
CONTINUOUS
10
4.3654332283464568
20
-4.7264945669291336
11
4.3662478740157482
21
-4.7256799212598422
0
LINE
8
BLACK
6
CONTINUOUS
10
4.3662478740157482
20
-4.7256799212598422
11
4.3673122834645666
21
-4.7252390157480315
0
LINE
8
BLACK
6
CONTINUOUS
10
4.3673122834645666
20
-4.7252390157480315
11
4.3678883464566924
21
-4.7251822834645667
0
LINE
8
BLACK
6
CONTINUOUS
10
4.3678883464566924
20
-4.7251822834645667
11
4.3716378740157475
21
-4.7251822834645667
0
LINE
8
BLACK
6
CONTINUOUS
10
4.3716378740157475
20
-4.7251822834645667
11
4.3719294094488186
21
-4.7252109842519685
0
LINE
8
BLACK
6
CONTINUOUS
10
4.3922867322834644
20
-4.6270271259842515
11
4.392466535433071
21
-4.6279311023622043
0
LINE
8
BLACK
6
CONTINUOUS
10
4.392466535433071
20
-4.6279311023622043
11
4.392466535433071
21
-4.677931102362205
0
LINE
8
BLACK
6
CONTINUOUS
10
4.392466535433071
20
-4.677931102362205
11
4.4424665354330708
21
-4.677931102362205
0
LINE
8
BLACK
6
CONTINUOUS
10
4.4424665354330708
20
-4.677931102362205
11
4.4433705118110236
21
-4.6781109055118106
0
LINE
8
BLACK
6
CONTINUOUS
10
4.4433705118110236
20
-4.6781109055118106
11
4.4446489370078739
21
-4.6793893307086609
0
LINE
8
BLACK
6
CONTINUOUS
10
4.4446489370078739
20
-4.6793893307086609
11
4.4446489370078739
21
-4.6811972834645665
0
LINE
8
BLACK
6
CONTINUOUS
10
4.4446489370078739
20
-4.6811972834645665
11
4.4433705118110236
21
-4.6824757086614168
0
LINE
8
BLACK
6
CONTINUOUS
10
4.4433705118110236
20
-4.6824757086614168
11
4.4424665354330708
21
-4.6826555118110234
0
LINE
8
BLACK
6
CONTINUOUS
10
4.4424665354330708
20
-4.6826555118110234
11
4.3901043307086614
21
-4.6826555118110234
0
LINE
8
BLACK
6
CONTINUOUS
10
4.3901043307086614
20
-4.6826555118110234
11
4.3892003543307085
21
-4.6824757086614168
0
LINE
8
BLACK
6
CONTINUOUS
10
4.3892003543307085
20
-4.6824757086614168
11
4.3879219291338583
21
-4.6811972834645665
0
LINE
8
BLACK
6
CONTINUOUS
10
4.3879219291338583
20
-4.6811972834645665
11
4.3877421259842517
21
-4.6802933070866137
0
LINE
8
BLACK
6
CONTINUOUS
10
4.3877421259842517
20
-4.6802933070866137
11
4.3877421259842517
21
-4.6279311023622043
0
LINE
8
BLACK
6
CONTINUOUS
10
4.3877421259842517
20
-4.6279311023622043
11
4.3879219291338583
21
-4.6270271259842515
0
LINE
8
BLACK
6
CONTINUOUS
10
4.3879219291338583
20
-4.6270271259842515
11
4.3892003543307085
21
-4.6257487007874012
0
LINE
8
BLACK
6
CONTINUOUS
10
4.3892003543307085
20
-4.6257487007874012
11
4.3910083070866142
21
-4.6257487007874012
0
LINE
8
BLACK
6
CONTINUOUS
10
4.3910083070866142
20
-4.6257487007874012
11
4.3922867322834644
21
-4.6270271259842515
0
LINE
8
BLACK
6
CONTINUOUS
10
5.195732755905512
20
-4.5733864960629917
11
5.1970111811023623
21
-4.574664921259842
0
LINE
8
BLACK
6
CONTINUOUS
10
5.1970111811023623
20
-4.574664921259842
11
5.1971909842519688
21
-4.5755688976377948
0
LINE
8
BLACK
6
CONTINUOUS
10
5.1971909842519688
20
-4.5755688976377948
11
5.1971909842519688
21
-4.6802933070866137
0
LINE
8
BLACK
6
CONTINUOUS
10
5.1971909842519688
20
-4.6802933070866137
11
5.1970111811023623
21
-4.6811972834645665
0
LINE
8
BLACK
6
CONTINUOUS
10
5.1970111811023623
20
-4.6811972834645665
11
5.195732755905512
21
-4.6824757086614168
0
LINE
8
BLACK
6
CONTINUOUS
10
5.195732755905512
20
-4.6824757086614168
11
5.1948287795275592
21
-4.6826555118110234
0
LINE
8
BLACK
6
CONTINUOUS
10
5.1948287795275592
20
-4.6826555118110234
11
4.4924665748031494
21
-4.6826555118110234
0
LINE
8
BLACK
6
CONTINUOUS
10
4.4924665748031494
20
-4.6826555118110234
11
4.4915625984251966
21
-4.6824757086614168
0
LINE
8
BLACK
6
CONTINUOUS
10
4.4915625984251966
20
-4.6824757086614168
11
4.4902841732283463
21
-4.6811972834645665
0
LINE
8
BLACK
6
CONTINUOUS
10
4.4902841732283463
20
-4.6811972834645665
11
4.4901043700787397
21
-4.6802933070866137
0
LINE
8
BLACK
6
CONTINUOUS
10
4.4901043700787397
20
-4.6802933070866137
11
4.4901043700787397
21
-4.5755688976377948
0
LINE
8
BLACK
6
CONTINUOUS
10
4.4901043700787397
20
-4.5755688976377948
11
4.4902841732283463
21
-4.574664921259842
0
LINE
8
BLACK
6
CONTINUOUS
10
4.4902841732283463
20
-4.574664921259842
11
4.4915625984251966
21
-4.5733864960629917
0
LINE
8
BLACK
6
CONTINUOUS
10
4.4915625984251966
20
-4.5733864960629917
11
4.4924665748031494
21
-4.5732066929133861
0
LINE
8
BLACK
6
CONTINUOUS
10
4.4924665748031494
20
-4.5732066929133861
11
5.1948287795275592
21
-4.5732066929133861
0
LINE
8
BLACK
6
CONTINUOUS
10
5.1948287795275592
20
-4.5732066929133861
11
5.195732755905512
21
-4.5733864960629917
0
LINE
8
BLACK
6
CONTINUOUS
10
4.494828779527559
20
-4.5779311023622045
11
4.494828779527559
21
-4.677931102362205
0
LINE
8
BLACK
6
CONTINUOUS
10
4.494828779527559
20
-4.677931102362205
11
5.1924665748031495
21
-4.677931102362205
0
LINE
8
BLACK
6
CONTINUOUS
10
5.1924665748031495
20
-4.677931102362205
11
5.1924665748031495
21
-4.5779311023622045
0
LINE
8
BLACK
6
CONTINUOUS
10
5.1924665748031495
20
-4.5779311023622045
11
4.494828779527559
21
-4.5779311023622045
0
LINE
8
BLACK
6
CONTINUOUS
10
6.7957327165354329
20
-4.5733864960629917
11
6.7970111417322832
21
-4.574664921259842
0
LINE
8
BLACK
6
CONTINUOUS
10
6.7970111417322832
20
-4.574664921259842
11
6.7971909448818897
21
-4.5755688976377948
0
LINE
8
BLACK
6
CONTINUOUS
10
6.7971909448818897
20
-4.5755688976377948
11
6.7971909448818897
21
-4.6802933070866137
0
LINE
8
BLACK
6
CONTINUOUS
10
6.7971909448818897
20
-4.6802933070866137
11
6.7970111417322832
21
-4.6811972834645665
0
LINE
8
BLACK
6
CONTINUOUS
10
6.7970111417322832
20
-4.6811972834645665
11
6.7957327165354329
21
-4.6824757086614168
0
LINE
8
BLACK
6
CONTINUOUS
10
6.7957327165354329
20
-4.6824757086614168
11
6.7948287401574801
21
-4.6826555118110234
0
LINE
8
BLACK
6
CONTINUOUS
10
6.7948287401574801
20
-4.6826555118110234
11
5.7924665748031492
21
-4.6826555118110234
0
LINE
8
BLACK
6
CONTINUOUS
10
5.7924665748031492
20
-4.6826555118110234
11
5.7915625984251964
21
-4.6824757086614168
0
LINE
8
BLACK
6
CONTINUOUS
10
5.7915625984251964
20
-4.6824757086614168
11
5.7902841732283461
21
-4.6811972834645665
0
LINE
8
BLACK
6
CONTINUOUS
10
5.7902841732283461
20
-4.6811972834645665
11
5.7901043700787405
21
-4.6802933070866137
0
LINE
8
BLACK
6
CONTINUOUS
10
5.7901043700787405
20
-4.6802933070866137
11
5.7901043700787405
21
-4.5755688976377948
0
LINE
8
BLACK
6
CONTINUOUS
10
5.7901043700787405
20
-4.5755688976377948
11
5.7902841732283461
21
-4.574664921259842
0
LINE
8
BLACK
6
CONTINUOUS
10
5.7902841732283461
20
-4.574664921259842
11
5.7915625984251964
21
-4.5733864960629917
0
LINE
8
BLACK
6
CONTINUOUS
10
5.7915625984251964
20
-4.5733864960629917
11
5.7924665748031492
21
-4.5732066929133861
0
LINE
8
BLACK
6
CONTINUOUS
10
5.7924665748031492
20
-4.5732066929133861
11
6.7948287401574801
21
-4.5732066929133861
0
LINE
8
BLACK
6
CONTINUOUS
10
6.7948287401574801
20
-4.5732066929133861
11
6.7957327165354329
21
-4.5733864960629917
0
LINE
8
BLACK
6
CONTINUOUS
10
5.7948287795275588
20
-4.5779311023622045
11
5.7948287795275588
21
-4.677931102362205
0
LINE
8
BLACK
6
CONTINUOUS
10
5.7948287795275588
20
-4.677931102362205
11
6.7924665354330704
21
-4.677931102362205
0
LINE
8
BLACK
6
CONTINUOUS
10
6.7924665354330704
20
-4.677931102362205
11
6.7924665354330704
21
-4.5779311023622045
0
LINE
8
BLACK
6
CONTINUOUS
10
6.7924665354330704
20
-4.5779311023622045
11
5.7948287795275588
21
-4.5779311023622045
0
LINE
8
BLACK
6
CONTINUOUS
10
4.4310000787401576
20
-4.4972499212598427
11
4.4341249999999999
21
-4.4972498425196852
0
LINE
8
BLACK
6
CONTINUOUS
10
4.4341249999999999
20
-4.4972498425196852
11
4.4341249999999999
21
-4.5003749212598425
0
LINE
8
BLACK
6
CONTINUOUS
10
4.4341249999999999
20
-4.5003749212598425
11
4.4341250393700786
21
-4.5034999606299211
0
LINE
8
BLACK
6
CONTINUOUS
10
4.4341250393700786
20
-4.5034999606299211
11
4.4372499606299209
21
-4.5034999999999998
0
LINE
8
BLACK
6
CONTINUOUS
10
4.4372499606299209
20
-4.5034999999999998
11
4.4372499212598422
21
-4.509749921259842
0
LINE
8
BLACK
6
CONTINUOUS
10
4.4372499212598422
20
-4.509749921259842
11
4.4403750393700783
21
-4.509749921259842
0
LINE
8
BLACK
6
CONTINUOUS
10
4.4403750393700783
20
-4.509749921259842
11
4.4403749999999995
21
-4.516
0
LINE
8
BLACK
6
CONTINUOUS
10
4.4403749999999995
20
-4.516
11
4.4435000000000002
21
-4.516
0
LINE
8
BLACK
6
CONTINUOUS
10
4.4435000000000002
20
-4.516
11
4.4435000000000002
21
-4.5222499606299209
0
LINE
8
BLACK
6
CONTINUOUS
10
4.4435000000000002
20
-4.5222499606299209
11
4.4372500393700784
21
-4.5222499606299209
0
LINE
8
BLACK
6
CONTINUOUS
10
4.4372500393700784
20
-4.5222499606299209
11
4.4372499606299209
21
-4.5191249606299211
0
LINE
8
BLACK
6
CONTINUOUS
10
4.4372499606299209
20
-4.5191249606299211
11
4.4341250393700786
21
-4.5191249606299211
0
LINE
8
BLACK
6
CONTINUOUS
10
4.4341250393700786
20
-4.5191249606299211
11
4.4341250393700786
21
-4.5128750000000002
0
LINE
8
BLACK
6
CONTINUOUS
10
4.4341250393700786
20
-4.5128750000000002
11
4.431
21
-4.5128750393700789
0
LINE
8
BLACK
6
CONTINUOUS
10
4.431
20
-4.5128750393700789
11
4.431
21
-4.5097499606299207
0
LINE
8
BLACK
6
CONTINUOUS
10
4.431
20
-4.5097499606299207
11
4.4091250393700783
21
-4.509749921259842
0
LINE
8
BLACK
6
CONTINUOUS
10
4.4091250393700783
20
-4.509749921259842
11
4.4091250393700783
21
-4.5128749606299214
0
LINE
8
BLACK
6
CONTINUOUS
10
4.4091250393700783
20
-4.5128749606299214
11
4.4060000393700784
21
-4.5128750000000002
0
LINE
8
BLACK
6
CONTINUOUS
10
4.4060000393700784
20
-4.5128750000000002
11
4.4060000393700784
21
-4.516
0
LINE
8
BLACK
6
CONTINUOUS
10
4.4060000393700784
20
-4.516
11
4.4028749606299211
21
-4.516
0
LINE
8
BLACK
6
CONTINUOUS
10
4.4028749606299211
20
-4.516
11
4.4028749606299211
21
-4.5191249606299211
0
LINE
8
BLACK
6
CONTINUOUS
10
4.4028749606299211
20
-4.5191249606299211
11
4.39975
21
-4.5191249212598423
0
LINE
8
BLACK
6
CONTINUOUS
10
4.39975
20
-4.5191249212598423
11
4.39975
21
-4.5222499606299209
0
LINE
8
BLACK
6
CONTINUOUS
10
4.39975
20
-4.5222499606299209
11
4.3966250000000002
21
-4.5222499606299209
0
LINE
8
BLACK
6
CONTINUOUS
10
4.3966250000000002
20
-4.5222499606299209
11
4.3966250000000002
21
-4.525374921259842
0
LINE
8
BLACK
6
CONTINUOUS
10
4.3966250000000002
20
-4.525374921259842
11
4.3934999606299208
21
-4.5253749606299207
0
LINE
8
BLACK
6
CONTINUOUS
10
4.3934999606299208
20
-4.5253749606299207
11
4.3934999606299208
21
-4.5285000393700789
0
LINE
8
BLACK
6
CONTINUOUS
10
4.3934999606299208
20
-4.5285000393700789
11
4.3872500393700786
21
-4.5285000000000002
0
LINE
8
BLACK
6
CONTINUOUS
10
4.3872500393700786
20
-4.5285000000000002
11
4.3872500787401574
21
-4.5222499606299209
0
LINE
8
BLACK
6
CONTINUOUS
10
4.3872500787401574
20
-4.5222499606299209
11
4.3903749606299209
21
-4.5222499606299209
0
LINE
8
BLACK
6
CONTINUOUS
10
4.3903749606299209
20
-4.5222499606299209
11
4.3903749606299209
21
-4.5191249606299211
0
LINE
8
BLACK
6
CONTINUOUS
10
4.3903749606299209
20
-4.5191249606299211
11
4.3934999999999995
21
-4.5191249606299211
0
LINE
8
BLACK
6
CONTINUOUS
10
4.3934999999999995
20
-4.5191249606299211
11
4.3934999999999995
21
-4.516
0
LINE
8
BLACK
6
CONTINUOUS
10
4.3934999999999995
20
-4.516
11
4.3966250000000002
21
-4.516
0
LINE
8
BLACK
6
CONTINUOUS
10
4.3966250000000002
20
-4.516
11
4.3966250000000002
21
-4.5128750000000002
0
LINE
8
BLACK
6
CONTINUOUS
10
4.3966250000000002
20
-4.5128750000000002
11
4.39975
21
-4.5128750000000002
0
LINE
8
BLACK
6
CONTINUOUS
10
4.39975
20
-4.5128750000000002
11
4.39975
21
-4.5066249606299209
0
LINE
8
BLACK
6
CONTINUOUS
10
4.39975
20
-4.5066249606299209
11
4.3966250000000002
21
-4.5066249606299209
0
LINE
8
BLACK
6
CONTINUOUS
10
4.3966250000000002
20
-4.5066249606299209
11
4.3966250000000002
21
-4.5034999606299211
0
LINE
8
BLACK
6
CONTINUOUS
10
4.3966250000000002
20
-4.5034999606299211
11
4.3935000393700783
21
-4.5034999606299211
0
LINE
8
BLACK
6
CONTINUOUS
10
4.3935000393700783
20
-4.5034999606299211
11
4.3934999999999995
21
-4.500375
0
LINE
8
BLACK
6
CONTINUOUS
10
4.3934999999999995
20
-4.500375
11
4.3903749606299209
21
-4.5003749212598425
0
LINE
8
BLACK
6
CONTINUOUS
10
4.3903749606299209
20
-4.5003749212598425
11
4.3903749606299209
21
-4.4972499212598427
0
LINE
8
BLACK
6
CONTINUOUS
10
4.3903749606299209
20
-4.4972499212598427
11
4.3872499999999999
21
-4.4972498425196852
0
LINE
8
BLACK
6
CONTINUOUS
10
4.3872499999999999
20
-4.4972498425196852
11
4.3872499606299211
21
-4.4941249606299207
0
LINE
8
BLACK
6
CONTINUOUS
10
4.3872499606299211
20
-4.4941249606299207
11
4.384125
21
-4.4941249606299207
0
LINE
8
BLACK
6
CONTINUOUS
10
4.384125
20
-4.4941249606299207
11
4.384125
21
-4.4909999606299209
0
LINE
8
BLACK
6
CONTINUOUS
10
4.384125
20
-4.4909999606299209
11
4.431
21
-4.4909998818897634
0
LINE
8
BLACK
6
CONTINUOUS
10
4.431
20
-4.4909998818897634
11
4.4310000787401576
21
-4.4972499212598427
0
LINE
8
BLACK
6
CONTINUOUS
10
4.39975
20
-4.5003748818897638
11
4.4028749606299211
21
-4.500375
0
LINE
8
BLACK
6
CONTINUOUS
10
4.4028749606299211
20
-4.500375
11
4.4028749606299211
21
-4.5034999212598423
0
LINE
8
BLACK
6
CONTINUOUS
10
4.4028749606299211
20
-4.5034999212598423
11
4.4278750000000002
21
-4.5034999606299211
0
LINE
8
BLACK
6
CONTINUOUS
10
4.4278750000000002
20
-4.5034999606299211
11
4.4278750000000002
21
-4.500375
0
LINE
8
BLACK
6
CONTINUOUS
10
4.4278750000000002
20
-4.500375
11
4.4247499999999995
21
-4.500375
0
LINE
8
BLACK
6
CONTINUOUS
10
4.4247499999999995
20
-4.500375
11
4.4247500393700783
21
-4.4972499212598427
0
LINE
8
BLACK
6
CONTINUOUS
10
4.4247500393700783
20
-4.4972499212598427
11
4.39975
21
-4.4972499212598427
0
LINE
8
BLACK
6
CONTINUOUS
10
4.39975
20
-4.4972499212598427
11
4.39975
21
-4.5003748818897638
0
LINE
8
BLACK
6
CONTINUOUS
10
4.6966249606299213
20
-4.4972499606299214
11
4.6997499606299211
21
-4.4972499212598427
0
LINE
8
BLACK
6
CONTINUOUS
10
4.6997499606299211
20
-4.4972499212598427
11
4.6997499606299211
21
-4.5034999212598423
0
LINE
8
BLACK
6
CONTINUOUS
10
4.6997499606299211
20
-4.5034999212598423
11
4.7028749606299209
21
-4.5034999999999998
0
LINE
8
BLACK
6
CONTINUOUS
10
4.7028749606299209
20
-4.5034999999999998
11
4.7028749212598422
21
-4.5097499606299207
0
LINE
8
BLACK
6
CONTINUOUS
10
4.7028749212598422
20
-4.5097499606299207
11
4.7059999999999995
21
-4.5097499606299207
0
LINE
8
BLACK
6
CONTINUOUS
10
4.7059999999999995
20
-4.5097499606299207
11
4.7059999999999995
21
-4.516
0
LINE
8
BLACK
6
CONTINUOUS
10
4.7059999999999995
20
-4.516
11
4.7091250000000002
21
-4.516
0
LINE
8
BLACK
6
CONTINUOUS
10
4.7091250000000002
20
-4.516
11
4.7091250000000002
21
-4.5222499606299209
0
LINE
8
BLACK
6
CONTINUOUS
10
4.7091250000000002
20
-4.5222499606299209
11
4.7122499606299213
21
-4.5222499606299209
0
LINE
8
BLACK
6
CONTINUOUS
10
4.7122499606299213
20
-4.5222499606299209
11
4.7122499606299213
21
-4.5285000000000002
0
LINE
8
BLACK
6
CONTINUOUS
10
4.7122499606299213
20
-4.5285000000000002
11
4.7059999999999995
21
-4.5285000000000002
0
LINE
8
BLACK
6
CONTINUOUS
10
4.7059999999999995
20
-4.5285000000000002
11
4.7059999999999995
21
-4.5253749606299207
0
LINE
8
BLACK
6
CONTINUOUS
10
4.7059999999999995
20
-4.5253749606299207
11
4.7028749212598422
21
-4.5253749606299207
0
LINE
8
BLACK
6
CONTINUOUS
10
4.7028749212598422
20
-4.5253749606299207
11
4.7028749606299209
21
-4.5191249999999998
0
LINE
8
BLACK
6
CONTINUOUS
10
4.7028749606299209
20
-4.5191249999999998
11
4.6997499606299211
21
-4.5191249212598423
0
LINE
8
BLACK
6
CONTINUOUS
10
4.6997499606299211
20
-4.5191249212598423
11
4.6997499606299211
21
-4.5128750000000002
0
LINE
8
BLACK
6
CONTINUOUS
10
4.6997499606299211
20
-4.5128750000000002
11
4.6966249606299213
21
-4.5128750000000002
0
LINE
8
BLACK
6
CONTINUOUS
10
4.6966249606299213
20
-4.5128750000000002
11
4.6966249606299213
21
-4.509749921259842
0
LINE
8
BLACK
6
CONTINUOUS
10
4.6966249606299213
20
-4.509749921259842
11
4.6684999606299211
21
-4.5097499606299207
0
LINE
8
BLACK
6
CONTINUOUS
10
4.6684999606299211
20
-4.5097499606299207
11
4.6684999606299211
21
-4.5066249606299209
0
LINE
8
BLACK
6
CONTINUOUS
10
4.6684999606299211
20
-4.5066249606299209
11
4.6653749606299213
21
-4.5066249606299209
0
LINE
8
BLACK
6
CONTINUOUS
10
4.6653749606299213
20
-4.5066249606299209
11
4.6653749606299213
21
-4.5034999999999998
0
LINE
8
BLACK
6
CONTINUOUS
10
4.6653749606299213
20
-4.5034999999999998
11
4.6935000000000002
21
-4.5034999606299211
0
LINE
8
BLACK
6
CONTINUOUS
10
4.6935000000000002
20
-4.5034999606299211
11
4.6935000000000002
21
-4.500375
0
LINE
8
BLACK
6
CONTINUOUS
10
4.6935000000000002
20
-4.500375
11
4.6903749999999995
21
-4.500375
0
LINE
8
BLACK
6
CONTINUOUS
10
4.6903749999999995
20
-4.500375
11
4.6903749999999995
21
-4.4972499212598427
0
LINE
8
BLACK
6
CONTINUOUS
10
4.6903749999999995
20
-4.4972499212598427
11
4.6528749606299211
21
-4.4972499212598427
0
LINE
8
BLACK
6
CONTINUOUS
10
4.6528749606299211
20
-4.4972499212598427
11
4.6528749606299211
21
-4.4941249606299207
0
LINE
8
BLACK
6
CONTINUOUS
10
4.6528749606299211
20
-4.4941249606299207
11
4.6497499606299213
21
-4.494124921259842
0
LINE
8
BLACK
6
CONTINUOUS
10
4.6497499606299213
20
-4.494124921259842
11
4.6497499606299213
21
-4.4909999606299209
0
LINE
8
BLACK
6
CONTINUOUS
10
4.6497499606299213
20
-4.4909999606299209
11
4.6966249606299213
21
-4.4909999606299209
0
LINE
8
BLACK
6
CONTINUOUS
10
4.6966249606299213
20
-4.4909999606299209
11
4.6966249606299213
21
-4.4972499606299214
0
LINE
8
BLACK
6
CONTINUOUS
10
4.4809999606299211
20
-4.4909999999999997
11
4.4809999606299211
21
-4.4972499212598427
0
LINE
8
BLACK
6
CONTINUOUS
10
4.4809999606299211
20
-4.4972499212598427
11
4.4841249606299209
21
-4.4972498425196852
0
LINE
8
BLACK
6
CONTINUOUS
10
4.4841249606299209
20
-4.4972498425196852
11
4.4841249606299209
21
-4.5034999999999998
0
LINE
8
BLACK
6
CONTINUOUS
10
4.4841249606299209
20
-4.5034999999999998
11
4.4872500393700783
21
-4.5034999606299211
0
LINE
8
BLACK
6
CONTINUOUS
10
4.4872500393700783
20
-4.5034999606299211
11
4.4872500393700783
21
-4.509749921259842
0
LINE
8
BLACK
6
CONTINUOUS
10
4.4872500393700783
20
-4.509749921259842
11
4.4903750000000002
21
-4.509749921259842
0
LINE
8
BLACK
6
CONTINUOUS
10
4.4903750000000002
20
-4.509749921259842
11
4.4903750000000002
21
-4.516
0
LINE
8
BLACK
6
CONTINUOUS
10
4.4903750000000002
20
-4.516
11
4.4935
21
-4.5159998818897638
0
LINE
8
BLACK
6
CONTINUOUS
10
4.4935
20
-4.5159998818897638
11
4.4935
21
-4.5222499606299209
0
LINE
8
BLACK
6
CONTINUOUS
10
4.4935
20
-4.5222499606299209
11
4.4528750393700784
21
-4.5222499999999997
0
LINE
8
BLACK
6
CONTINUOUS
10
4.4528750393700784
20
-4.5222499999999997
11
4.4528750393700784
21
-4.5191249212598423
0
LINE
8
BLACK
6
CONTINUOUS
10
4.4528750393700784
20
-4.5191249212598423
11
4.4497499606299211
21
-4.5191249212598423
0
LINE
8
BLACK
6
CONTINUOUS
10
4.4497499606299211
20
-4.5191249212598423
11
4.4497499606299211
21
-4.516
0
LINE
8
BLACK
6
CONTINUOUS
10
4.4497499606299211
20
-4.516
11
4.4841249606299209
21
-4.5159999212598425
0
LINE
8
BLACK
6
CONTINUOUS
10
4.4841249606299209
20
-4.5159999212598425
11
4.4841249606299209
21
-4.5128749606299214
0
LINE
8
BLACK
6
CONTINUOUS
10
4.4841249606299209
20
-4.5128749606299214
11
4.4809999606299211
21
-4.5128749212598427
0
LINE
8
BLACK
6
CONTINUOUS
10
4.4809999606299211
20
-4.5128749212598427
11
4.4809999606299211
21
-4.5097499606299207
0
LINE
8
BLACK
6
CONTINUOUS
10
4.4809999606299211
20
-4.5097499606299207
11
4.4528750393700784
21
-4.5097499606299207
0
LINE
8
BLACK
6
CONTINUOUS
10
4.4528750393700784
20
-4.5097499606299207
11
4.4528750393700784
21
-4.5066249999999997
0
LINE
8
BLACK
6
CONTINUOUS
10
4.4528750393700784
20
-4.5066249999999997
11
4.4497499606299211
21
-4.5066249999999997
0
LINE
8
BLACK
6
CONTINUOUS
10
4.4497499606299211
20
-4.5066249999999997
11
4.4497499606299211
21
-4.5034999212598423
0
LINE
8
BLACK
6
CONTINUOUS
10
4.4497499606299211
20
-4.5034999212598423
11
4.477875
21
-4.5034999212598423
0
LINE
8
BLACK
6
CONTINUOUS
10
4.477875
20
-4.5034999212598423
11
4.4778750393700788
21
-4.500375
0
LINE
8
BLACK
6
CONTINUOUS
10
4.4778750393700788
20
-4.500375
11
4.4747500000000002
21
-4.500375
0
LINE
8
BLACK
6
CONTINUOUS
10
4.4747500000000002
20
-4.500375
11
4.4747500000000002
21
-4.4972499606299214
0
LINE
8
BLACK
6
CONTINUOUS
10
4.4747500000000002
20
-4.4972499606299214
11
4.4403750393700783
21
-4.4972499212598427
0
LINE
8
BLACK
6
CONTINUOUS
10
4.4403750393700783
20
-4.4972499212598427
11
4.4403750393700783
21
-4.494124921259842
0
LINE
8
BLACK
6
CONTINUOUS
10
4.4403750393700783
20
-4.494124921259842
11
4.4372499212598422
21
-4.494124921259842
0
LINE
8
BLACK
6
CONTINUOUS
10
4.4372499212598422
20
-4.494124921259842
11
4.4372500393700784
21
-4.4909999606299209
0
LINE
8
BLACK
6
CONTINUOUS
10
4.4372500393700784
20
-4.4909999606299209
11
4.4809999606299211
21
-4.4909999999999997
0
LINE
8
BLACK
6
CONTINUOUS
10
4.5341249999999995
20
-4.5034999606299211
11
4.5372500000000002
21
-4.5034999606299211
0
LINE
8
BLACK
6
CONTINUOUS
10
4.5372500000000002
20
-4.5034999606299211
11
4.5372500000000002
21
-4.509749921259842
0
LINE
8
BLACK
6
CONTINUOUS
10
4.5372500000000002
20
-4.509749921259842
11
4.5403749606299213
21
-4.509749921259842
0
LINE
8
BLACK
6
CONTINUOUS
10
4.5403749606299213
20
-4.509749921259842
11
4.5403749606299213
21
-4.5159998818897638
0
LINE
8
BLACK
6
CONTINUOUS
10
4.5403749606299213
20
-4.5159998818897638
11
4.5434999606299211
21
-4.516
0
LINE
8
BLACK
6
CONTINUOUS
10
4.5434999606299211
20
-4.516
11
4.5434999606299211
21
-4.5222499999999997
0
LINE
8
BLACK
6
CONTINUOUS
10
4.5434999606299211
20
-4.5222499999999997
11
4.5372500000000002
21
-4.5222499606299209
0
LINE
8
BLACK
6
CONTINUOUS
10
4.5372500000000002
20
-4.5222499606299209
11
4.5372500000000002
21
-4.5191248818897636
0
LINE
8
BLACK
6
CONTINUOUS
10
4.5372500000000002
20
-4.5191248818897636
11
4.5341249999999995
21
-4.5191249606299211
0
LINE
8
BLACK
6
CONTINUOUS
10
4.5341249999999995
20
-4.5191249606299211
11
4.5341249999999995
21
-4.5128750000000002
0
LINE
8
BLACK
6
CONTINUOUS
10
4.5341249999999995
20
-4.5128750000000002
11
4.5309999606299209
21
-4.5128749606299214
0
LINE
8
BLACK
6
CONTINUOUS
10
4.5309999606299209
20
-4.5128749606299214
11
4.5309999606299209
21
-4.509749921259842
0
LINE
8
BLACK
6
CONTINUOUS
10
4.5309999606299209
20
-4.509749921259842
11
4.4997500393700784
21
-4.5097499606299207
0
LINE
8
BLACK
6
CONTINUOUS
10
4.4997500393700784
20
-4.5097499606299207
11
4.4997500393700784
21
-4.5066249999999997
0
LINE
8
BLACK
6
CONTINUOUS
10
4.4997500393700784
20
-4.5066249999999997
11
4.4966249606299211
21
-4.5066249999999997
0
LINE
8
BLACK
6
CONTINUOUS
10
4.4966249606299211
20
-4.5066249999999997
11
4.4966249606299211
21
-4.5034999212598423
0
LINE
8
BLACK
6
CONTINUOUS
10
4.4966249606299211
20
-4.5034999212598423
11
4.4935
21
-4.5034999606299211
0
LINE
8
BLACK
6
CONTINUOUS
10
4.4935
20
-4.5034999606299211
11
4.4935
21
-4.5003748818897638
0
LINE
8
BLACK
6
CONTINUOUS
10
4.4935
20
-4.5003748818897638
11
4.4903750000000002
21
-4.500375
0
LINE
8
BLACK
6
CONTINUOUS
10
4.4903750000000002
20
-4.500375
11
4.4903750000000002
21
-4.4972499606299214
0
LINE
8
BLACK
6
CONTINUOUS
10
4.4903750000000002
20
-4.4972499606299214
11
4.4872500393700783
21
-4.4972499212598427
0
LINE
8
BLACK
6
CONTINUOUS
10
4.4872500393700783
20
-4.4972499212598427
11
4.4872499606299208
21
-4.4909998818897634
0
LINE
8
BLACK
6
CONTINUOUS
10
4.4872499606299208
20
-4.4909998818897634
11
4.5310000393700784
21
-4.4909999606299209
0
LINE
8
BLACK
6
CONTINUOUS
10
4.5310000393700784
20
-4.4909999606299209
11
4.5309999606299209
21
-4.4972498425196852
0
LINE
8
BLACK
6
CONTINUOUS
10
4.5309999606299209
20
-4.4972498425196852
11
4.5341249999999995
21
-4.4972499212598427
0
LINE
8
BLACK
6
CONTINUOUS
10
4.5341249999999995
20
-4.4972499212598427
11
4.5341249999999995
21
-4.500375
0
LINE
8
BLACK
6
CONTINUOUS
10
4.5341249999999995
20
-4.500375
11
4.5341249999999995
21
-4.5034999606299211
0
LINE
8
BLACK
6
CONTINUOUS
10
4.52475
20
-4.5003748818897638
11
4.52475
21
-4.4972499212598427
0
LINE
8
BLACK
6
CONTINUOUS
10
4.52475
20
-4.4972499212598427
11
4.4997500393700784
21
-4.4972499212598427
0
LINE
8
BLACK
6
CONTINUOUS
10
4.4997500393700784
20
-4.4972499212598427
11
4.4997500393700784
21
-4.500375
0
LINE
8
BLACK
6
CONTINUOUS
10
4.4997500393700784
20
-4.500375
11
4.5028749999999995
21
-4.500375
0
LINE
8
BLACK
6
CONTINUOUS
10
4.5028749999999995
20
-4.500375
11
4.5028750393700783
21
-4.5034999606299211
0
LINE
8
BLACK
6
CONTINUOUS
10
4.5028750393700783
20
-4.5034999606299211
11
4.5278749606299211
21
-4.5034999212598423
0
LINE
8
BLACK
6
CONTINUOUS
10
4.5278749606299211
20
-4.5034999212598423
11
4.5278749606299211
21
-4.500375
0
LINE
8
BLACK
6
CONTINUOUS
10
4.5278749606299211
20
-4.500375
11
4.52475
21
-4.5003748818897638
0
LINE
8
BLACK
6
CONTINUOUS
10
4.5809999999999995
20
-4.4972499212598427
11
4.5841250000000002
21
-4.4972499606299214
0
LINE
8
BLACK
6
CONTINUOUS
10
4.5841250000000002
20
-4.4972499606299214
11
4.5841250000000002
21
-4.500375
0
LINE
8
BLACK
6
CONTINUOUS
10
4.5841250000000002
20
-4.500375
11
4.5841250000000002
21
-4.5034999606299211
0
LINE
8
BLACK
6
CONTINUOUS
10
4.5841250000000002
20
-4.5034999606299211
11
4.5872499606299213
21
-4.5034999606299211
0
LINE
8
BLACK
6
CONTINUOUS
10
4.5872499606299213
20
-4.5034999606299211
11
4.5872499606299213
21
-4.509749921259842
0
LINE
8
BLACK
6
CONTINUOUS
10
4.5872499606299213
20
-4.509749921259842
11
4.5903749606299211
21
-4.5097499606299207
0
LINE
8
BLACK
6
CONTINUOUS
10
4.5903749606299211
20
-4.5097499606299207
11
4.5903749606299211
21
-4.516
0
LINE
8
BLACK
6
CONTINUOUS
10
4.5903749606299211
20
-4.516
11
4.5934999606299209
21
-4.5159999212598425
0
LINE
8
BLACK
6
CONTINUOUS
10
4.5934999606299209
20
-4.5159999212598425
11
4.5935000393700784
21
-4.5222499606299209
0
LINE
8
BLACK
6
CONTINUOUS
10
4.5935000393700784
20
-4.5222499606299209
11
4.5872499606299213
21
-4.5222499606299209
0
LINE
8
BLACK
6
CONTINUOUS
10
4.5872499606299213
20
-4.5222499606299209
11
4.5872499606299213
21
-4.5191248818897636
0
LINE
8
BLACK
6
CONTINUOUS
10
4.5872499606299213
20
-4.5191248818897636
11
4.5841250000000002
21
-4.5191248818897636
0
LINE
8
BLACK
6
CONTINUOUS
10
4.5841250000000002
20
-4.5191248818897636
11
4.5841250000000002
21
-4.5128749606299214
0
LINE
8
BLACK
6
CONTINUOUS
10
4.5841250000000002
20
-4.5128749606299214
11
4.5809999999999995
21
-4.5128750000000002
0
LINE
8
BLACK
6
CONTINUOUS
10
4.5809999999999995
20
-4.5128750000000002
11
4.5809999999999995
21
-4.509749921259842
0
LINE
8
BLACK
6
CONTINUOUS
10
4.5809999999999995
20
-4.509749921259842
11
4.5497499999999995
21
-4.509749921259842
0
LINE
8
BLACK
6
CONTINUOUS
10
4.5497499999999995
20
-4.509749921259842
11
4.5497499606299208
21
-4.5066248818897634
0
LINE
8
BLACK
6
CONTINUOUS
10
4.5497499606299208
20
-4.5066248818897634
11
4.5466250393700784
21
-4.5066249606299209
0
LINE
8
BLACK
6
CONTINUOUS
10
4.5466250393700784
20
-4.5066249606299209
11
4.5466249606299209
21
-4.5034999999999998
0
LINE
8
BLACK
6
CONTINUOUS
10
4.5466249606299209
20
-4.5034999999999998
11
4.5434999606299211
21
-4.5034999212598423
0
LINE
8
BLACK
6
CONTINUOUS
10
4.5434999606299211
20
-4.5034999212598423
11
4.5434999606299211
21
-4.500375
0
LINE
8
BLACK
6
CONTINUOUS
10
4.5434999606299211
20
-4.500375
11
4.5403749606299213
21
-4.5003748818897638
0
LINE
8
BLACK
6
CONTINUOUS
10
4.5403749606299213
20
-4.5003748818897638
11
4.5403749606299213
21
-4.4972499606299214
0
LINE
8
BLACK
6
CONTINUOUS
10
4.5403749606299213
20
-4.4972499606299214
11
4.5372500000000002
21
-4.4972499606299214
0
LINE
8
BLACK
6
CONTINUOUS
10
4.5372500000000002
20
-4.4972499606299214
11
4.5372500000000002
21
-4.4909999606299209
0
LINE
8
BLACK
6
CONTINUOUS
10
4.5372500000000002
20
-4.4909999606299209
11
4.5809999606299208
21
-4.4909998818897634
0
LINE
8
BLACK
6
CONTINUOUS
10
4.5809999606299208
20
-4.4909998818897634
11
4.5809999999999995
21
-4.4972499212598427
0
LINE
8
BLACK
6
CONTINUOUS
10
4.5497499999999995
20
-4.500375
11
4.5528750000000002
21
-4.500375
0
LINE
8
BLACK
6
CONTINUOUS
10
4.5528750000000002
20
-4.500375
11
4.5528750000000002
21
-4.5034999606299211
0
LINE
8
BLACK
6
CONTINUOUS
10
4.5528750000000002
20
-4.5034999606299211
11
4.5778749606299209
21
-4.5034999999999998
0
LINE
8
BLACK
6
CONTINUOUS
10
4.5778749606299209
20
-4.5034999999999998
11
4.5778749606299209
21
-4.5003749212598425
0
LINE
8
BLACK
6
CONTINUOUS
10
4.5778749606299209
20
-4.5003749212598425
11
4.5747499606299211
21
-4.500375
0
LINE
8
BLACK
6
CONTINUOUS
10
4.5747499606299211
20
-4.500375
11
4.5747499606299211
21
-4.4972499212598427
0
LINE
8
BLACK
6
CONTINUOUS
10
4.5747499606299211
20
-4.4972499212598427
11
4.5497499999999995
21
-4.4972499212598427
0
LINE
8
BLACK
6
CONTINUOUS
10
4.5497499999999995
20
-4.4972499212598427
11
4.5497499999999995
21
-4.500375
0
LINE
8
BLACK
6
CONTINUOUS
10
4.5966249999999995
20
-4.4972499212598427
11
4.5997500000000002
21
-4.4972499606299214
0
LINE
8
BLACK
6
CONTINUOUS
10
4.5997500000000002
20
-4.4972499606299214
11
4.5997500000000002
21
-4.5034999606299211
0
LINE
8
BLACK
6
CONTINUOUS
10
4.5997500000000002
20
-4.5034999606299211
11
4.6028749606299213
21
-4.5034999606299211
0
LINE
8
BLACK
6
CONTINUOUS
10
4.6028749606299213
20
-4.5034999606299211
11
4.6028749606299213
21
-4.509749921259842
0
LINE
8
BLACK
6
CONTINUOUS
10
4.6028749606299213
20
-4.509749921259842
11
4.6059999606299211
21
-4.5097499606299207
0
LINE
8
BLACK
6
CONTINUOUS
10
4.6059999606299211
20
-4.5097499606299207
11
4.6059999606299211
21
-4.516
0
LINE
8
BLACK
6
CONTINUOUS
10
4.6059999606299211
20
-4.516
11
4.6091249606299209
21
-4.5159999212598425
0
LINE
8
BLACK
6
CONTINUOUS
10
4.6091249606299209
20
-4.5159999212598425
11
4.6091250393700784
21
-4.5222499606299209
0
LINE
8
BLACK
6
CONTINUOUS
10
4.6091250393700784
20
-4.5222499606299209
11
4.6028749606299213
21
-4.5222499606299209
0
LINE
8
BLACK
6
CONTINUOUS
10
4.6028749606299213
20
-4.5222499606299209
11
4.6028749606299213
21
-4.5191248818897636
0
LINE
8
BLACK
6
CONTINUOUS
10
4.6028749606299213
20
-4.5191248818897636
11
4.5997500000000002
21
-4.5191248818897636
0
LINE
8
BLACK
6
CONTINUOUS
10
4.5997500000000002
20
-4.5191248818897636
11
4.5997500000000002
21
-4.5128749606299214
0
LINE
8
BLACK
6
CONTINUOUS
10
4.5997500000000002
20
-4.5128749606299214
11
4.5966249999999995
21
-4.5128750000000002
0
LINE
8
BLACK
6
CONTINUOUS
10
4.5966249999999995
20
-4.5128750000000002
11
4.5966249606299208
21
-4.5066248818897634
0
LINE
8
BLACK
6
CONTINUOUS
10
4.5966249606299208
20
-4.5066248818897634
11
4.5935000393700784
21
-4.5066249606299209
0
LINE
8
BLACK
6
CONTINUOUS
10
4.5935000393700784
20
-4.5066249606299209
11
4.5934999606299209
21
-4.5003749212598425
0
LINE
8
BLACK
6
CONTINUOUS
10
4.5934999606299209
20
-4.5003749212598425
11
4.5903749606299211
21
-4.500375
0
LINE
8
BLACK
6
CONTINUOUS
10
4.5903749606299211
20
-4.500375
11
4.5903749606299211
21
-4.4909999999999997
0
LINE
8
BLACK
6
CONTINUOUS
10
4.5903749606299211
20
-4.4909999999999997
11
4.5966249606299208
21
-4.4909998818897634
0
LINE
8
BLACK
6
CONTINUOUS
10
4.5966249606299208
20
-4.4909998818897634
11
4.5966249999999995
21
-4.4972499212598427
0
LINE
8
BLACK
6
CONTINUOUS
10
4.6434999999999995
20
-4.4972499212598427
11
4.6466250000000002
21
-4.4972499212598427
0
LINE
8
BLACK
6
CONTINUOUS
10
4.6466250000000002
20
-4.4972499212598427
11
4.6466250000000002
21
-4.5034999606299211
0
LINE
8
BLACK
6
CONTINUOUS
10
4.6466250000000002
20
-4.5034999606299211
11
4.6497499606299213
21
-4.5034999999999998
0
LINE
8
BLACK
6
CONTINUOUS
10
4.6497499606299213
20
-4.5034999999999998
11
4.6497499606299213
21
-4.509749921259842
0
LINE
8
BLACK
6
CONTINUOUS
10
4.6497499606299213
20
-4.509749921259842
11
4.6528749606299211
21
-4.5097499606299207
0
LINE
8
BLACK
6
CONTINUOUS
10
4.6528749606299211
20
-4.5097499606299207
11
4.6528749606299211
21
-4.516
0
LINE
8
BLACK
6
CONTINUOUS
10
4.6528749606299211
20
-4.516
11
4.6559999606299209
21
-4.5159999212598425
0
LINE
8
BLACK
6
CONTINUOUS
10
4.6559999606299209
20
-4.5159999212598425
11
4.6560000393700784
21
-4.5222499606299209
0
LINE
8
BLACK
6
CONTINUOUS
10
4.6560000393700784
20
-4.5222499606299209
11
4.6184999606299213
21
-4.5222499606299209
0
LINE
8
BLACK
6
CONTINUOUS
10
4.6184999606299213
20
-4.5222499606299209
11
4.6184999606299213
21
-4.5191248818897636
0
LINE
8
BLACK
6
CONTINUOUS
10
4.6184999606299213
20
-4.5191248818897636
11
4.6153750000000002
21
-4.5191248818897636
0
LINE
8
BLACK
6
CONTINUOUS
10
4.6153750000000002
20
-4.5191248818897636
11
4.6153750000000002
21
-4.516
0
LINE
8
BLACK
6
CONTINUOUS
10
4.6153750000000002
20
-4.516
11
4.6466250000000002
21
-4.516
0
LINE
8
BLACK
6
CONTINUOUS
10
4.6466250000000002
20
-4.516
11
4.6466250000000002
21
-4.5128749606299214
0
LINE
8
BLACK
6
CONTINUOUS
10
4.6466250000000002
20
-4.5128749606299214
11
4.6434999999999995
21
-4.5128750000000002
0
LINE
8
BLACK
6
CONTINUOUS
10
4.6434999999999995
20
-4.5128750000000002
11
4.6434999606299208
21
-4.5066248818897634
0
LINE
8
BLACK
6
CONTINUOUS
10
4.6434999606299208
20
-4.5066248818897634
11
4.6403750393700784
21
-4.5066249606299209
0
LINE
8
BLACK
6
CONTINUOUS
10
4.6403750393700784
20
-4.5066249606299209
11
4.6403749606299209
21
-4.5003749212598425
0
LINE
8
BLACK
6
CONTINUOUS
10
4.6403749606299209
20
-4.5003749212598425
11
4.6372499606299211
21
-4.500375
0
LINE
8
BLACK
6
CONTINUOUS
10
4.6372499606299211
20
-4.500375
11
4.6372499606299211
21
-4.4909999999999997
0
LINE
8
BLACK
6
CONTINUOUS
10
4.6372499606299211
20
-4.4909999999999997
11
4.6434999606299208
21
-4.4909998818897634
0
LINE
8
BLACK
6
CONTINUOUS
10
4.6434999606299208
20
-4.4909998818897634
11
4.6434999999999995
21
-4.4972499212598427
0
LINE
8
BLACK
6
CONTINUOUS
10
4.6028749606299213
20
-4.3003749999999998
11
4.6153750000000002
21
-4.3003749999999998
0
LINE
8
BLACK
6
CONTINUOUS
10
4.6153750000000002
20
-4.3003749999999998
11
4.6153750000000002
21
-4.3034999606299209
0
LINE
8
BLACK
6
CONTINUOUS
10
4.6153750000000002
20
-4.3034999606299209
11
4.6247500393700784
21
-4.3034999606299209
0
LINE
8
BLACK
6
CONTINUOUS
10
4.6247500393700784
20
-4.3034999606299209
11
4.6247499212598422
21
-4.3066249606299207
0
LINE
8
BLACK
6
CONTINUOUS
10
4.6247499212598422
20
-4.3066249606299207
11
4.6278749999999995
21
-4.3066249606299207
0
LINE
8
BLACK
6
CONTINUOUS
10
4.6278749999999995
20
-4.3066249606299207
11
4.6278749999999995
21
-4.3097500393700789
0
LINE
8
BLACK
6
CONTINUOUS
10
4.6278749999999995
20
-4.3097500393700789
11
4.6341249606299213
21
-4.3097500000000002
0
LINE
8
BLACK
6
CONTINUOUS
10
4.6341249606299213
20
-4.3097500000000002
11
4.6341249606299213
21
-4.3128749212598425
0
LINE
8
BLACK
6
CONTINUOUS
10
4.6341249606299213
20
-4.3128749212598425
11
4.6403749606299209
21
-4.3128749212598425
0
LINE
8
BLACK
6
CONTINUOUS
10
4.6403749606299209
20
-4.3128749212598425
11
4.6403749606299209
21
-4.3159999999999998
0
LINE
8
BLACK
6
CONTINUOUS
10
4.6403749606299209
20
-4.3159999999999998
11
4.6434999999999995
21
-4.3159999999999998
0
LINE
8
BLACK
6
CONTINUOUS
10
4.6434999999999995
20
-4.3159999999999998
11
4.6434999606299208
21
-4.3191248818897634
0
LINE
8
BLACK
6
CONTINUOUS
10
4.6434999606299208
20
-4.3191248818897634
11
4.6466250000000002
21
-4.3191249606299209
0
LINE
8
BLACK
6
CONTINUOUS
10
4.6466250000000002
20
-4.3191249606299209
11
4.6466249606299215
21
-4.3222499999999995
0
LINE
8
BLACK
6
CONTINUOUS
10
4.6466249606299215
20
-4.3222499999999995
11
4.6497499606299213
21
-4.3222499999999995
0
LINE
8
BLACK
6
CONTINUOUS
10
4.6497499606299213
20
-4.3222499999999995
11
4.6497499606299213
21
-4.3253750000000002
0
LINE
8
BLACK
6
CONTINUOUS
10
4.6497499606299213
20
-4.3253750000000002
11
4.6528749606299211
21
-4.3253749212598427
0
LINE
8
BLACK
6
CONTINUOUS
10
4.6528749606299211
20
-4.3253749212598427
11
4.6528749606299211
21
-4.3285
0
LINE
8
BLACK
6
CONTINUOUS
10
4.6528749606299211
20
-4.3285
11
4.6559999606299209
21
-4.3284999212598425
0
LINE
8
BLACK
6
CONTINUOUS
10
4.6559999606299209
20
-4.3284999212598425
11
4.6560000393700784
21
-4.3347499606299209
0
LINE
8
BLACK
6
CONTINUOUS
10
4.6560000393700784
20
-4.3347499606299209
11
4.6591249606299208
21
-4.3347498818897634
0
LINE
8
BLACK
6
CONTINUOUS
10
4.6591249606299208
20
-4.3347498818897634
11
4.6591249999999995
21
-4.344125
0
LINE
8
BLACK
6
CONTINUOUS
10
4.6591249999999995
20
-4.344125
11
4.6559999606299209
21
-4.3441249212598425
0
LINE
8
BLACK
6
CONTINUOUS
10
4.6559999606299209
20
-4.3441249212598425
11
4.6559999212598422
21
-4.3378749606299207
0
LINE
8
BLACK
6
CONTINUOUS
10
4.6559999212598422
20
-4.3378749606299207
11
4.6528749606299211
21
-4.3378749606299207
0
LINE
8
BLACK
6
CONTINUOUS
10
4.6528749606299211
20
-4.3378749606299207
11
4.6528749606299211
21
-4.3316249212598423
0
LINE
8
BLACK
6
CONTINUOUS
10
4.6528749606299211
20
-4.3316249212598423
11
4.6497499606299213
21
-4.3316249999999998
0
LINE
8
BLACK
6
CONTINUOUS
10
4.6497499606299213
20
-4.3316249999999998
11
4.6497499606299213
21
-4.3284999212598425
0
LINE
8
BLACK
6
CONTINUOUS
10
4.6497499606299213
20
-4.3284999212598425
11
4.6466250000000002
21
-4.3285
0
LINE
8
BLACK
6
CONTINUOUS
10
4.6466250000000002
20
-4.3285
11
4.6466250000000002
21
-4.3253749606299214
0
LINE
8
BLACK
6
CONTINUOUS
10
4.6466250000000002
20
-4.3253749606299214
11
4.6434999999999995
21
-4.3253750393700789
0
LINE
8
BLACK
6
CONTINUOUS
10
4.6434999999999995
20
-4.3253750393700789
11
4.6434999999999995
21
-4.3222499606299207
0
LINE
8
BLACK
6
CONTINUOUS
10
4.6434999999999995
20
-4.3222499606299207
11
4.6403749212598422
21
-4.3222499606299207
0
LINE
8
BLACK
6
CONTINUOUS
10
4.6403749212598422
20
-4.3222499606299207
11
4.6403750393700784
21
-4.3191249606299209
0
LINE
8
BLACK
6
CONTINUOUS
10
4.6403750393700784
20
-4.3191249606299209
11
4.6372499606299211
21
-4.3191249999999997
0
LINE
8
BLACK
6
CONTINUOUS
10
4.6372499606299211
20
-4.3191249999999997
11
4.6372499606299211
21
-4.3159999212598423
0
LINE
8
BLACK
6
CONTINUOUS
10
4.6372499606299211
20
-4.3159999212598423
11
4.6310000000000002
21
-4.3159999999999998
0
LINE
8
BLACK
6
CONTINUOUS
10
4.6310000000000002
20
-4.3159999999999998
11
4.6310000000000002
21
-4.312875
0
LINE
8
BLACK
6
CONTINUOUS
10
4.6310000000000002
20
-4.312875
11
4.6247499606299209
21
-4.3128749212598425
0
LINE
8
BLACK
6
CONTINUOUS
10
4.6247499606299209
20
-4.3128749212598425
11
4.6247499606299209
21
-4.3097499606299214
0
LINE
8
BLACK
6
CONTINUOUS
10
4.6247499606299209
20
-4.3097499606299214
11
4.5872499606299213
21
-4.3097500000000002
0
LINE
8
BLACK
6
CONTINUOUS
10
4.5872499606299213
20
-4.3097500000000002
11
4.5872499606299213
21
-4.3066249999999995
0
LINE
8
BLACK
6
CONTINUOUS
10
4.5872499606299213
20
-4.3066249999999995
11
4.6122499999999995
21
-4.3066249606299207
0
LINE
8
BLACK
6
CONTINUOUS
10
4.6122499999999995
20
-4.3066249606299207
11
4.6122499606299208
21
-4.3034998818897634
0
LINE
8
BLACK
6
CONTINUOUS
10
4.6122499606299208
20
-4.3034998818897634
11
4.5997500000000002
21
-4.3034999606299209
0
LINE
8
BLACK
6
CONTINUOUS
10
4.5997500000000002
20
-4.3034999606299209
11
4.5997500000000002
21
-4.3003749999999998
0
LINE
8
BLACK
6
CONTINUOUS
10
4.5997500000000002
20
-4.3003749999999998
11
4.5591249606299211
21
-4.3003749212598423
0
LINE
8
BLACK
6
CONTINUOUS
10
4.5591249606299211
20
-4.3003749212598423
11
4.5591249606299211
21
-4.3034999999999997
0
LINE
8
BLACK
6
CONTINUOUS
10
4.5591249606299211
20
-4.3034999999999997
11
4.5559999606299213
21
-4.3034999606299209
0
LINE
8
BLACK
6
CONTINUOUS
10
4.5559999606299213
20
-4.3034999606299209
11
4.5559999606299213
21
-4.3066249999999995
0
LINE
8
BLACK
6
CONTINUOUS
10
4.5559999606299213
20
-4.3066249999999995
11
4.5528750000000002
21
-4.3066249999999995
0
LINE
8
BLACK
6
CONTINUOUS
10
4.5528750000000002
20
-4.3066249999999995
11
4.5528750000000002
21
-4.3034999606299209
0
LINE
8
BLACK
6
CONTINUOUS
10
4.5528750000000002
20
-4.3034999606299209
11
4.5497499606299208
21
-4.3034998818897634
0
LINE
8
BLACK
6
CONTINUOUS
10
4.5497499606299208
20
-4.3034998818897634
11
4.5497499999999995
21
-4.3066249606299207
0
LINE
8
BLACK
6
CONTINUOUS
10
4.5497499999999995
20
-4.3066249606299207
11
4.5341249999999995
21
-4.3066249606299207
0
LINE
8
BLACK
6
CONTINUOUS
10
4.5341249999999995
20
-4.3066249606299207
11
4.5341249999999995
21
-4.312875
0
LINE
8
BLACK
6
CONTINUOUS
10
4.5341249999999995
20
-4.312875
11
4.5216250000000002
21
-4.312875
0
LINE
8
BLACK
6
CONTINUOUS
10
4.5216250000000002
20
-4.312875
11
4.5216250000000002
21
-4.3159999999999998
0
LINE
8
BLACK
6
CONTINUOUS
10
4.5216250000000002
20
-4.3159999999999998
11
4.5184999999999995
21
-4.3159999999999998
0
LINE
8
BLACK
6
CONTINUOUS
10
4.5184999999999995
20
-4.3159999999999998
11
4.5184999606299208
21
-4.3191248818897634
0
LINE
8
BLACK
6
CONTINUOUS
10
4.5184999606299208
20
-4.3191248818897634
11
4.5153750393700784
21
-4.3191249606299209
0
LINE
8
BLACK
6
CONTINUOUS
10
4.5153750393700784
20
-4.3191249606299209
11
4.5153749606299209
21
-4.3222499606299207
0
LINE
8
BLACK
6
CONTINUOUS
10
4.5153749606299209
20
-4.3222499606299207
11
4.5122499606299211
21
-4.3222499606299207
0
LINE
8
BLACK
6
CONTINUOUS
10
4.5122499606299211
20
-4.3222499606299207
11
4.5122499606299211
21
-4.3253749212598427
0
LINE
8
BLACK
6
CONTINUOUS
10
4.5122499606299211
20
-4.3253749212598427
11
4.509125
21
-4.3253750000000002
0
LINE
8
BLACK
6
CONTINUOUS
10
4.509125
20
-4.3253750000000002
11
4.509125
21
-4.3347499606299209
0
LINE
8
BLACK
6
CONTINUOUS
10
4.509125
20
-4.3347499606299209
11
4.5122499606299211
21
-4.3347499999999997
0
LINE
8
BLACK
6
CONTINUOUS
10
4.5122499606299211
20
-4.3347499999999997
11
4.5122499606299211
21
-4.3378749606299207
0
LINE
8
BLACK
6
CONTINUOUS
10
4.5122499606299211
20
-4.3378749606299207
11
4.5028750393700783
21
-4.3378749606299207
0
LINE
8
BLACK
6
CONTINUOUS
10
4.5028750393700783
20
-4.3378749606299207
11
4.5028749999999995
21
-4.344125
0
LINE
8
BLACK
6
CONTINUOUS
10
4.5028749999999995
20
-4.344125
11
4.4966249606299211
21
-4.344125
0
LINE
8
BLACK
6
CONTINUOUS
10
4.4966249606299211
20
-4.344125
11
4.4966249606299211
21
-4.3409999212598427
0
LINE
8
BLACK
6
CONTINUOUS
10
4.4966249606299211
20
-4.3409999212598427
11
4.4903750000000002
21
-4.3409999606299214
0
LINE
8
BLACK
6
CONTINUOUS
10
4.4903750000000002
20
-4.3409999606299214
11
4.4903750000000002
21
-4.3378749999999995
0
LINE
8
BLACK
6
CONTINUOUS
10
4.4903750000000002
20
-4.3378749999999995
11
4.4841249606299209
21
-4.3378749606299207
0
LINE
8
BLACK
6
CONTINUOUS
10
4.4841249606299209
20
-4.3378749606299207
11
4.4841250393700784
21
-4.3347499606299209
0
LINE
8
BLACK
6
CONTINUOUS
10
4.4841250393700784
20
-4.3347499606299209
11
4.477875
21
-4.3347498818897634
0
LINE
8
BLACK
6
CONTINUOUS
10
4.477875
20
-4.3347498818897634
11
4.477875
21
-4.3316249212598423
0
LINE
8
BLACK
6
CONTINUOUS
10
4.477875
20
-4.3316249212598423
11
4.4560000393700783
21
-4.3316249999999998
0
LINE
8
BLACK
6
CONTINUOUS
10
4.4560000393700783
20
-4.3316249999999998
11
4.4560000393700783
21
-4.3347499606299209
0
LINE
8
BLACK
6
CONTINUOUS
10
4.4560000393700783
20
-4.3347499606299209
11
4.446625
21
-4.3347499606299209
0
LINE
8
BLACK
6
CONTINUOUS
10
4.446625
20
-4.3347499606299209
11
4.446625
21
-4.3378749606299207
0
LINE
8
BLACK
6
CONTINUOUS
10
4.446625
20
-4.3378749606299207
11
4.4435000000000002
21
-4.3378749999999995
0
LINE
8
BLACK
6
CONTINUOUS
10
4.4435000000000002
20
-4.3378749999999995
11
4.4435000000000002
21
-4.3409999606299214
0
LINE
8
BLACK
6
CONTINUOUS
10
4.4435000000000002
20
-4.3409999606299214
11
4.4560000393700783
21
-4.3409999606299214
0
LINE
8
BLACK
6
CONTINUOUS
10
4.4560000393700783
20
-4.3409999606299214
11
4.4560000393700783
21
-4.344125
0
LINE
8
BLACK
6
CONTINUOUS
10
4.4560000393700783
20
-4.344125
11
4.4653749606299211
21
-4.344125
0
LINE
8
BLACK
6
CONTINUOUS
10
4.4653749606299211
20
-4.344125
11
4.4653749606299211
21
-4.3472499212598423
0
LINE
8
BLACK
6
CONTINUOUS
10
4.4653749606299211
20
-4.3472499212598423
11
4.4716250393700783
21
-4.3472499999999998
0
LINE
8
BLACK
6
CONTINUOUS
10
4.4716250393700783
20
-4.3472499999999998
11
4.4716249606299208
21
-4.3503748818897634
0
LINE
8
BLACK
6
CONTINUOUS
10
4.4716249606299208
20
-4.3503748818897634
11
4.477875
21
-4.3503748818897634
0
LINE
8
BLACK
6
CONTINUOUS
10
4.477875
20
-4.3503748818897634
11
4.477875
21
-4.3534999606299207
0
LINE
8
BLACK
6
CONTINUOUS
10
4.477875
20
-4.3534999606299207
11
4.4809999606299211
21
-4.3534999606299207
0
LINE
8
BLACK
6
CONTINUOUS
10
4.4809999606299211
20
-4.3534999606299207
11
4.4809999606299211
21
-4.3566249212598427
0
LINE
8
BLACK
6
CONTINUOUS
10
4.4809999606299211
20
-4.3566249212598427
11
4.4841249606299209
21
-4.3566249606299214
0
LINE
8
BLACK
6
CONTINUOUS
10
4.4841249606299209
20
-4.3566249606299214
11
4.4841249606299209
21
-4.3597499212598425
0
LINE
8
BLACK
6
CONTINUOUS
10
4.4841249606299209
20
-4.3597499212598425
11
4.4872499999999995
21
-4.35975
0
LINE
8
BLACK
6
CONTINUOUS
10
4.4872499999999995
20
-4.35975
11
4.4872500393700783
21
-4.3628749999999998
0
LINE
8
BLACK
6
CONTINUOUS
10
4.4872500393700783
20
-4.3628749999999998
11
4.4903750000000002
21
-4.3628749999999998
0
LINE
8
BLACK
6
CONTINUOUS
10
4.4903750000000002
20
-4.3628749999999998
11
4.4903750000000002
21
-4.3659999606299209
0
LINE
8
BLACK
6
CONTINUOUS
10
4.4903750000000002
20
-4.3659999606299209
11
4.4935
21
-4.3659999606299209
0
LINE
8
BLACK
6
CONTINUOUS
10
4.4935
20
-4.3659999606299209
11
4.4935
21
-4.3691249606299207
0
LINE
8
BLACK
6
CONTINUOUS
10
4.4935
20
-4.3691249606299207
11
4.4966249606299211
21
-4.3691249606299207
0
LINE
8
BLACK
6
CONTINUOUS
10
4.4966249606299211
20
-4.3691249606299207
11
4.4966249606299211
21
-4.3722499212598427
0
LINE
8
BLACK
6
CONTINUOUS
10
4.4966249606299211
20
-4.3722499212598427
11
4.4997500393700784
21
-4.3722499212598427
0
LINE
8
BLACK
6
CONTINUOUS
10
4.4997500393700784
20
-4.3722499212598427
11
4.4997500393700784
21
-4.375375
0
LINE
8
BLACK
6
CONTINUOUS
10
4.4997500393700784
20
-4.375375
11
4.5028749999999995
21
-4.375375
0
LINE
8
BLACK
6
CONTINUOUS
10
4.5028749999999995
20
-4.375375
11
4.5028750393700783
21
-4.3784999999999998
0
LINE
8
BLACK
6
CONTINUOUS
10
4.5028750393700783
20
-4.3784999999999998
11
4.5060000000000002
21
-4.3784999999999998
0
LINE
8
BLACK
6
CONTINUOUS
10
4.5060000000000002
20
-4.3784999999999998
11
4.5060000000000002
21
-4.3816249606299209
0
LINE
8
BLACK
6
CONTINUOUS
10
4.5060000000000002
20
-4.3816249606299209
11
4.509125
21
-4.3816249606299209
0
LINE
8
BLACK
6
CONTINUOUS
10
4.509125
20
-4.3816249606299209
11
4.509125
21
-4.3847499606299207
0
LINE
8
BLACK
6
CONTINUOUS
10
4.509125
20
-4.3847499606299207
11
4.5122499606299211
21
-4.3847499606299207
0
LINE
8
BLACK
6
CONTINUOUS
10
4.5122499606299211
20
-4.3847499606299207
11
4.5122499606299211
21
-4.3878749212598427
0
LINE
8
BLACK
6
CONTINUOUS
10
4.5122499606299211
20
-4.3878749212598427
11
4.5153749606299209
21
-4.3878749606299214
0
LINE
8
BLACK
6
CONTINUOUS
10
4.5153749606299209
20
-4.3878749606299214
11
4.5153749606299209
21
-4.3909999212598425
0
LINE
8
BLACK
6
CONTINUOUS
10
4.5153749606299209
20
-4.3909999212598425
11
4.5184999999999995
21
-4.391
0
LINE
8
BLACK
6
CONTINUOUS
10
4.5184999999999995
20
-4.391
11
4.5184999999999995
21
-4.3941249999999998
0
LINE
8
BLACK
6
CONTINUOUS
10
4.5184999999999995
20
-4.3941249999999998
11
4.5216250000000002
21
-4.3941249999999998
0
LINE
8
BLACK
6
CONTINUOUS
10
4.5216250000000002
20
-4.3941249999999998
11
4.5216250000000002
21
-4.3972499606299209
0
LINE
8
BLACK
6
CONTINUOUS
10
4.5216250000000002
20
-4.3972499606299209
11
4.52475
21
-4.3972499606299209
0
LINE
8
BLACK
6
CONTINUOUS
10
4.52475
20
-4.3972499606299209
11
4.52475
21
-4.4003749606299207
0
LINE
8
BLACK
6
CONTINUOUS
10
4.52475
20
-4.4003749606299207
11
4.5278749606299211
21
-4.4003749606299207
0
LINE
8
BLACK
6
CONTINUOUS
10
4.5278749606299211
20
-4.4003749606299207
11
4.5278749606299211
21
-4.4034999212598427
0
LINE
8
BLACK
6
CONTINUOUS
10
4.5278749606299211
20
-4.4034999212598427
11
4.5309999606299209
21
-4.4034999606299214
0
LINE
8
BLACK
6
CONTINUOUS
10
4.5309999606299209
20
-4.4034999606299214
11
4.5309999606299209
21
-4.4066249212598425
0
LINE
8
BLACK
6
CONTINUOUS
10
4.5309999606299209
20
-4.4066249212598425
11
4.5372500000000002
21
-4.406625
0
LINE
8
BLACK
6
CONTINUOUS
10
4.5372500000000002
20
-4.406625
11
4.5372500000000002
21
-4.4097499999999998
0
LINE
8
BLACK
6
CONTINUOUS
10
4.5372500000000002
20
-4.4097499999999998
11
4.5434999606299211
21
-4.4097499212598423
0
LINE
8
BLACK
6
CONTINUOUS
10
4.5434999606299211
20
-4.4097499212598423
11
4.5434999606299211
21
-4.4128749999999997
0
LINE
8
BLACK
6
CONTINUOUS
10
4.5434999606299211
20
-4.4128749999999997
11
4.5528750000000002
21
-4.4128749606299209
0
LINE
8
BLACK
6
CONTINUOUS
10
4.5528750000000002
20
-4.4128749606299209
11
4.5528750000000002
21
-4.4159999999999995
0
LINE
8
BLACK
6
CONTINUOUS
10
4.5528750000000002
20
-4.4159999999999995
11
4.5685000000000002
21
-4.4159999999999995
0
LINE
8
BLACK
6
CONTINUOUS
10
4.5685000000000002
20
-4.4159999999999995
11
4.5685000000000002
21
-4.4191249606299214
0
LINE
8
BLACK
6
CONTINUOUS
10
4.5685000000000002
20
-4.4191249606299214
11
4.4872499999999995
21
-4.4191250000000002
0
LINE
8
BLACK
6
CONTINUOUS
10
4.4872499999999995
20
-4.4191250000000002
11
4.4872500393700783
21
-4.4159999606299207
0
LINE
8
BLACK
6
CONTINUOUS
10
4.4872500393700783
20
-4.4159999606299207
11
4.52475
21
-4.4159999606299207
0
LINE
8
BLACK
6
CONTINUOUS
10
4.52475
20
-4.4159999606299207
11
4.52475
21
-4.4097499999999998
0
LINE
8
BLACK
6
CONTINUOUS
10
4.52475
20
-4.4097499999999998
11
4.5216250000000002
21
-4.4097499999999998
0
LINE
8
BLACK
6
CONTINUOUS
10
4.5216250000000002
20
-4.4097499999999998
11
4.5216250000000002
21
-4.406625
0
LINE
8
BLACK
6
CONTINUOUS
10
4.5216250000000002
20
-4.406625
11
4.5184999999999995
21
-4.406625
0
LINE
8
BLACK
6
CONTINUOUS
10
4.5184999999999995
20
-4.406625
11
4.5184999999999995
21
-4.4035000000000002
0
LINE
8
BLACK
6
CONTINUOUS
10
4.5184999999999995
20
-4.4035000000000002
11
4.5153749606299209
21
-4.4034999606299214
0
LINE
8
BLACK
6
CONTINUOUS
10
4.5153749606299209
20
-4.4034999606299214
11
4.5153749606299209
21
-4.4003749606299207
0
LINE
8
BLACK
6
CONTINUOUS
10
4.5153749606299209
20
-4.4003749606299207
11
4.4935
21
-4.4003749606299207
0
LINE
8
BLACK
6
CONTINUOUS
10
4.4935
20
-4.4003749606299207
11
4.4935
21
-4.4035000000000002
0
LINE
8
BLACK
6
CONTINUOUS
10
4.4935
20
-4.4035000000000002
11
4.4809999606299211
21
-4.4034999212598427
0
LINE
8
BLACK
6
CONTINUOUS
10
4.4809999606299211
20
-4.4034999212598427
11
4.4809999606299211
21
-4.4003749606299207
0
LINE
8
BLACK
6
CONTINUOUS
10
4.4809999606299211
20
-4.4003749606299207
11
4.4435000000000002
21
-4.4003749999999995
0
LINE
8
BLACK
6
CONTINUOUS
10
4.4435000000000002
20
-4.4003749999999995
11
4.4435000000000002
21
-4.4034999606299214
0
LINE
8
BLACK
6
CONTINUOUS
10
4.4435000000000002
20
-4.4034999606299214
11
4.4372499606299209
21
-4.4034999606299214
0
LINE
8
BLACK
6
CONTINUOUS
10
4.4372499606299209
20
-4.4034999606299214
11
4.4372500393700784
21
-4.4128749606299209
0
LINE
8
BLACK
6
CONTINUOUS
10
4.4372500393700784
20
-4.4128749606299209
11
4.4403749606299208
21
-4.4128748818897634
0
LINE
8
BLACK
6
CONTINUOUS
10
4.4403749606299208
20
-4.4128748818897634
11
4.4403750393700783
21
-4.4159999606299207
0
LINE
8
BLACK
6
CONTINUOUS
10
4.4403750393700783
20
-4.4159999606299207
11
4.4435000000000002
21
-4.4159999999999995
0
LINE
8
BLACK
6
CONTINUOUS
10
4.4435000000000002
20
-4.4159999999999995
11
4.4435000000000002
21
-4.4191249606299214
0
LINE
8
BLACK
6
CONTINUOUS
10
4.4435000000000002
20
-4.4191249606299214
11
4.446625
21
-4.4191250000000002
0
LINE
8
BLACK
6
CONTINUOUS
10
4.446625
20
-4.4191250000000002
11
4.446625
21
-4.4222499606299213
0
LINE
8
BLACK
6
CONTINUOUS
10
4.446625
20
-4.4222499606299213
11
4.4497499606299211
21
-4.42225
0
LINE
8
BLACK
6
CONTINUOUS
10
4.4497499606299211
20
-4.42225
11
4.4497499606299211
21
-4.4253749212598423
0
LINE
8
BLACK
6
CONTINUOUS
10
4.4497499606299211
20
-4.4253749212598423
11
4.4560000393700783
21
-4.4253749606299211
0
LINE
8
BLACK
6
CONTINUOUS
10
4.4560000393700783
20
-4.4253749606299211
11
4.4560000393700783
21
-4.4284999606299209
0
LINE
8
BLACK
6
CONTINUOUS
10
4.4560000393700783
20
-4.4284999606299209
11
4.4653749606299211
21
-4.4284999999999997
0
LINE
8
BLACK
6
CONTINUOUS
10
4.4653749606299211
20
-4.4284999999999997
11
4.4653749606299211
21
-4.4316249606299207
0
LINE
8
BLACK
6
CONTINUOUS
10
4.4653749606299211
20
-4.4316249606299207
11
4.4747500000000002
21
-4.4316249999999995
0
LINE
8
BLACK
6
CONTINUOUS
10
4.4747500000000002
20
-4.4316249999999995
11
4.4747500000000002
21
-4.4347499606299214
0
LINE
8
BLACK
6
CONTINUOUS
10
4.4747500000000002
20
-4.4347499606299214
11
4.4841249606299209
21
-4.4347499606299214
0
LINE
8
BLACK
6
CONTINUOUS
10
4.4841249606299209
20
-4.4347499606299214
11
4.4841249606299209
21
-4.4378749212598425
0
LINE
8
BLACK
6
CONTINUOUS
10
4.4841249606299209
20
-4.4378749212598425
11
4.4966249606299211
21
-4.437875
0
LINE
8
BLACK
6
CONTINUOUS
10
4.4966249606299211
20
-4.437875
11
4.4966249606299211
21
-4.4409999212598423
0
LINE
8
BLACK
6
CONTINUOUS
10
4.4966249606299211
20
-4.4409999212598423
11
4.509125
21
-4.4409999606299211
0
LINE
8
BLACK
6
CONTINUOUS
10
4.509125
20
-4.4409999606299211
11
4.509125
21
-4.4441249606299209
0
LINE
8
BLACK
6
CONTINUOUS
10
4.509125
20
-4.4441249606299209
11
4.5184999606299208
21
-4.4441248818897634
0
LINE
8
BLACK
6
CONTINUOUS
10
4.5184999606299208
20
-4.4441248818897634
11
4.5184999999999995
21
-4.447249921259842
0
LINE
8
BLACK
6
CONTINUOUS
10
4.5184999999999995
20
-4.447249921259842
11
4.52475
21
-4.4472499606299207
0
LINE
8
BLACK
6
CONTINUOUS
10
4.52475
20
-4.4472499606299207
11
4.52475
21
-4.4503750000000002
0
LINE
8
BLACK
6
CONTINUOUS
10
4.52475
20
-4.4503750000000002
11
4.5309999606299209
21
-4.4503749606299214
0
LINE
8
BLACK
6
CONTINUOUS
10
4.5309999606299209
20
-4.4503749606299214
11
4.5309999606299209
21
-4.4566249999999998
0
LINE
8
BLACK
6
CONTINUOUS
10
4.5309999606299209
20
-4.4566249999999998
11
4.5278749606299211
21
-4.4566249212598423
0
LINE
8
BLACK
6
CONTINUOUS
10
4.5278749606299211
20
-4.4566249212598423
11
4.5278749606299211
21
-4.4535
0
LINE
8
BLACK
6
CONTINUOUS
10
4.5278749606299211
20
-4.4535
11
4.52475
21
-4.4534999606299213
0
LINE
8
BLACK
6
CONTINUOUS
10
4.52475
20
-4.4534999606299213
11
4.52475
21
-4.4566249606299211
0
LINE
8
BLACK
6
CONTINUOUS
10
4.52475
20
-4.4566249606299211
11
4.5216250000000002
21
-4.4566249606299211
0
LINE
8
BLACK
6
CONTINUOUS
10
4.5216250000000002
20
-4.4566249606299211
11
4.5216250000000002
21
-4.4597499606299209
0
LINE
8
BLACK
6
CONTINUOUS
10
4.5216250000000002
20
-4.4597499606299209
11
4.5184999606299208
21
-4.4597498818897634
0
LINE
8
BLACK
6
CONTINUOUS
10
4.5184999606299208
20
-4.4597498818897634
11
4.5184999999999995
21
-4.4566249606299211
0
LINE
8
BLACK
6
CONTINUOUS
10
4.5184999999999995
20
-4.4566249606299211
11
4.5153749606299209
21
-4.4566249999999998
0
LINE
8
BLACK
6
CONTINUOUS
10
4.5153749606299209
20
-4.4566249999999998
11
4.5153750393700784
21
-4.4597499606299209
0
LINE
8
BLACK
6
CONTINUOUS
10
4.5153750393700784
20
-4.4597499606299209
11
4.5122499606299211
21
-4.4597499999999997
0
LINE
8
BLACK
6
CONTINUOUS
10
4.5122499606299211
20
-4.4597499999999997
11
4.5122499606299211
21
-4.4628749606299207
0
LINE
8
BLACK
6
CONTINUOUS
10
4.5122499606299211
20
-4.4628749606299207
11
4.509125
21
-4.4628749606299207
0
LINE
8
BLACK
6
CONTINUOUS
10
4.509125
20
-4.4628749606299207
11
4.509125
21
-4.4597499606299209
0
LINE
8
BLACK
6
CONTINUOUS
10
4.509125
20
-4.4597499606299209
11
4.5060000000000002
21
-4.4597499606299209
0
LINE
8
BLACK
6
CONTINUOUS
10
4.5060000000000002
20
-4.4597499606299209
11
4.5060000000000002
21
-4.462874921259842
0
LINE
8
BLACK
6
CONTINUOUS
10
4.5060000000000002
20
-4.462874921259842
11
4.5028750393700783
21
-4.462874921259842
0
LINE
8
BLACK
6
CONTINUOUS
10
4.5028750393700783
20
-4.462874921259842
11
4.5028749999999995
21
-4.4660000000000002
0
LINE
8
BLACK
6
CONTINUOUS
10
4.5028749999999995
20
-4.4660000000000002
11
4.4997500393700784
21
-4.4659999212598427
0
LINE
8
BLACK
6
CONTINUOUS
10
4.4997500393700784
20
-4.4659999212598427
11
4.4997500393700784
21
-4.469125
0
LINE
8
BLACK
6
CONTINUOUS
10
4.4997500393700784
20
-4.469125
11
4.4935
21
-4.4691248818897638
0
LINE
8
BLACK
6
CONTINUOUS
10
4.4935
20
-4.4691248818897638
11
4.4935
21
-4.4597499606299209
0
LINE
8
BLACK
6
CONTINUOUS
10
4.4935
20
-4.4597499606299209
11
4.4966249606299211
21
-4.4597499999999997
0
LINE
8
BLACK
6
CONTINUOUS
10
4.4966249606299211
20
-4.4597499999999997
11
4.4966249606299211
21
-4.4472499606299207
0
LINE
8
BLACK
6
CONTINUOUS
10
4.4966249606299211
20
-4.4472499606299207
11
4.4935
21
-4.4472499606299207
0
LINE
8
BLACK
6
CONTINUOUS
10
4.4935
20
-4.4472499606299207
11
4.4935
21
-4.4409999606299211
0
LINE
8
BLACK
6
CONTINUOUS
10
4.4935
20
-4.4409999606299211
11
4.4809999606299211
21
-4.4409999212598423
0
LINE
8
BLACK
6
CONTINUOUS
10
4.4809999606299211
20
-4.4409999212598423
11
4.4809999606299211
21
-4.437875
0
LINE
8
BLACK
6
CONTINUOUS
10
4.4809999606299211
20
-4.437875
11
4.4716249999999995
21
-4.437875
0
LINE
8
BLACK
6
CONTINUOUS
10
4.4716249999999995
20
-4.437875
11
4.4716249999999995
21
-4.4347500000000002
0
LINE
8
BLACK
6
CONTINUOUS
10
4.4716249999999995
20
-4.4347500000000002
11
4.46225
21
-4.4347500000000002
0
LINE
8
BLACK
6
CONTINUOUS
10
4.46225
20
-4.4347500000000002
11
4.46225
21
-4.4316249606299207
0
LINE
8
BLACK
6
CONTINUOUS
10
4.46225
20
-4.4316249606299207
11
4.4528750393700784
21
-4.4316249606299207
0
LINE
8
BLACK
6
CONTINUOUS
10
4.4528750393700784
20
-4.4316249606299207
11
4.4528750393700784
21
-4.4284999606299209
0
LINE
8
BLACK
6
CONTINUOUS
10
4.4528750393700784
20
-4.4284999606299209
11
4.446625
21
-4.4284999606299209
0
LINE
8
BLACK
6
CONTINUOUS
10
4.446625
20
-4.4284999606299209
11
4.446625
21
-4.4253749606299211
0
LINE
8
BLACK
6
CONTINUOUS
10
4.446625
20
-4.4253749606299211
11
4.4435000000000002
21
-4.4253749606299211
0
LINE
8
BLACK
6
CONTINUOUS
10
4.4435000000000002
20
-4.4253749606299211
11
4.4435000000000002
21
-4.42225
0
LINE
8
BLACK
6
CONTINUOUS
10
4.4435000000000002
20
-4.42225
11
4.4403749999999995
21
-4.42225
0
LINE
8
BLACK
6
CONTINUOUS
10
4.4403749999999995
20
-4.42225
11
4.4403749999999995
21
-4.4191250000000002
0
LINE
8
BLACK
6
CONTINUOUS
10
4.4403749999999995
20
-4.4191250000000002
11
4.4372499606299209
21
-4.4191249606299214
0
LINE
8
BLACK
6
CONTINUOUS
10
4.4372499606299209
20
-4.4191249606299214
11
4.4372499606299209
21
-4.4159999606299207
0
LINE
8
BLACK
6
CONTINUOUS
10
4.4372499606299209
20
-4.4159999606299207
11
4.4341250787401574
21
-4.4159999606299207
0
LINE
8
BLACK
6
CONTINUOUS
10
4.4341250787401574
20
-4.4159999606299207
11
4.4341250787401574
21
-4.4003749606299207
0
LINE
8
BLACK
6
CONTINUOUS
10
4.4341250787401574
20
-4.4003749606299207
11
4.4372499606299209
21
-4.4003749606299207
0
LINE
8
BLACK
6
CONTINUOUS
10
4.4372499606299209
20
-4.4003749606299207
11
4.4372500393700784
21
-4.3972499606299209
0
LINE
8
BLACK
6
CONTINUOUS
10
4.4372500393700784
20
-4.3972499606299209
11
4.4903750000000002
21
-4.3972499606299209
0
LINE
8
BLACK
6
CONTINUOUS
10
4.4903750000000002
20
-4.3972499606299209
11
4.4903750000000002
21
-4.3941249999999998
0
LINE
8
BLACK
6
CONTINUOUS
10
4.4903750000000002
20
-4.3941249999999998
11
4.4872500393700783
21
-4.3941249999999998
0
LINE
8
BLACK
6
CONTINUOUS
10
4.4872500393700783
20
-4.3941249999999998
11
4.4872499999999995
21
-4.391
0
LINE
8
BLACK
6
CONTINUOUS
10
4.4872499999999995
20
-4.391
11
4.4841249606299209
21
-4.3909999212598425
0
LINE
8
BLACK
6
CONTINUOUS
10
4.4841249606299209
20
-4.3909999212598425
11
4.4841249606299209
21
-4.3878749606299214
0
LINE
8
BLACK
6
CONTINUOUS
10
4.4841249606299209
20
-4.3878749606299214
11
4.4809999606299211
21
-4.3878749212598427
0
LINE
8
BLACK
6
CONTINUOUS
10
4.4809999606299211
20
-4.3878749212598427
11
4.4809999606299211
21
-4.3847499606299207
0
LINE
8
BLACK
6
CONTINUOUS
10
4.4809999606299211
20
-4.3847499606299207
11
4.477875
21
-4.3847499606299207
0
LINE
8
BLACK
6
CONTINUOUS
10
4.477875
20
-4.3847499606299207
11
4.477875
21
-4.3816248818897634
0
LINE
8
BLACK
6
CONTINUOUS
10
4.477875
20
-4.3816248818897634
11
4.4747500000000002
21
-4.3816249606299209
0
LINE
8
BLACK
6
CONTINUOUS
10
4.4747500000000002
20
-4.3816249606299209
11
4.4747500000000002
21
-4.3784999999999998
0
LINE
8
BLACK
6
CONTINUOUS
10
4.4747500000000002
20
-4.3784999999999998
11
4.4716250393700783
21
-4.3784999999999998
0
LINE
8
BLACK
6
CONTINUOUS
10
4.4716250393700783
20
-4.3784999999999998
11
4.4716249999999995
21
-4.375375
0
LINE
8
BLACK
6
CONTINUOUS
10
4.4716249999999995
20
-4.375375
11
4.4684999606299209
21
-4.3753749212598425
0
LINE
8
BLACK
6
CONTINUOUS
10
4.4684999606299209
20
-4.3753749212598425
11
4.4684999606299209
21
-4.3722499606299214
0
LINE
8
BLACK
6
CONTINUOUS
10
4.4684999606299209
20
-4.3722499606299214
11
4.4653749606299211
21
-4.3722499212598427
0
LINE
8
BLACK
6
CONTINUOUS
10
4.4653749606299211
20
-4.3722499212598427
11
4.4653749606299211
21
-4.3691249606299207
0
LINE
8
BLACK
6
CONTINUOUS
10
4.4653749606299211
20
-4.3691249606299207
11
4.46225
21
-4.3691249606299207
0
LINE
8
BLACK
6
CONTINUOUS
10
4.46225
20
-4.3691249606299207
11
4.46225
21
-4.3659999606299209
0
LINE
8
BLACK
6
CONTINUOUS
10
4.46225
20
-4.3659999606299209
11
4.4591250000000002
21
-4.3659999606299209
0
LINE
8
BLACK
6
CONTINUOUS
10
4.4591250000000002
20
-4.3659999606299209
11
4.4591250000000002
21
-4.3628749999999998
0
LINE
8
BLACK
6
CONTINUOUS
10
4.4591250000000002
20
-4.3628749999999998
11
4.4560000393700783
21
-4.3628749999999998
0
LINE
8
BLACK
6
CONTINUOUS
10
4.4560000393700783
20
-4.3628749999999998
11
4.4560000393700783
21
-4.35975
0
LINE
8
BLACK
6
CONTINUOUS
10
4.4560000393700783
20
-4.35975
11
4.4528750393700784
21
-4.35975
0
LINE
8
BLACK
6
CONTINUOUS
10
4.4528750393700784
20
-4.35975
11
4.4528750393700784
21
-4.3566249212598427
0
LINE
8
BLACK
6
CONTINUOUS
10
4.4528750393700784
20
-4.3566249212598427
11
4.4497499606299211
21
-4.3566249212598427
0
LINE
8
BLACK
6
CONTINUOUS
10
4.4497499606299211
20
-4.3566249212598427
11
4.4497499606299211
21
-4.3534999606299207
0
LINE
8
BLACK
6
CONTINUOUS
10
4.4497499606299211
20
-4.3534999606299207
11
4.446625
21
-4.3534999606299207
0
LINE
8
BLACK
6
CONTINUOUS
10
4.446625
20
-4.3534999606299207
11
4.446625
21
-4.3503749606299209
0
LINE
8
BLACK
6
CONTINUOUS
10
4.446625
20
-4.3503749606299209
11
4.4435000000000002
21
-4.3503749606299209
0
LINE
8
BLACK
6
CONTINUOUS
10
4.4435000000000002
20
-4.3503749606299209
11
4.4435000000000002
21
-4.3472499999999998
0
LINE
8
BLACK
6
CONTINUOUS
10
4.4435000000000002
20
-4.3472499999999998
11
4.4403750393700783
21
-4.3472499999999998
0
LINE
8
BLACK
6
CONTINUOUS
10
4.4403750393700783
20
-4.3472499999999998
11
4.4403749606299208
21
-4.3347498818897634
0
LINE
8
BLACK
6
CONTINUOUS
10
4.4403749606299208
20
-4.3347498818897634
11
4.4435000000000002
21
-4.3347499606299209
0
LINE
8
BLACK
6
CONTINUOUS
10
4.4435000000000002
20
-4.3347499606299209
11
4.4435000000000002
21
-4.3316249999999998
0
LINE
8
BLACK
6
CONTINUOUS
10
4.4435000000000002
20
-4.3316249999999998
11
4.4528750393700784
21
-4.3316249999999998
0
LINE
8
BLACK
6
CONTINUOUS
10
4.4528750393700784
20
-4.3316249999999998
11
4.4528750393700784
21
-4.3285
0
LINE
8
BLACK
6
CONTINUOUS
10
4.4528750393700784
20
-4.3285
11
4.4809999606299211
21
-4.3285
0
LINE
8
BLACK
6
CONTINUOUS
10
4.4809999606299211
20
-4.3285
11
4.4809999606299211
21
-4.3316249212598423
0
LINE
8
BLACK
6
CONTINUOUS
10
4.4809999606299211
20
-4.3316249212598423
11
4.4872500393700783
21
-4.3316249999999998
0
LINE
8
BLACK
6
CONTINUOUS
10
4.4872500393700783
20
-4.3316249999999998
11
4.4872499606299208
21
-4.3347498818897634
0
LINE
8
BLACK
6
CONTINUOUS
10
4.4872499606299208
20
-4.3347498818897634
11
4.4935
21
-4.3347499606299209
0
LINE
8
BLACK
6
CONTINUOUS
10
4.4935
20
-4.3347499606299209
11
4.4935
21
-4.3378749606299207
0
LINE
8
BLACK
6
CONTINUOUS
10
4.4935
20
-4.3378749606299207
11
4.4997500393700784
21
-4.3378749606299207
0
LINE
8
BLACK
6
CONTINUOUS
10
4.4997500393700784
20
-4.3378749606299207
11
4.4997500393700784
21
-4.3347499606299209
0
LINE
8
BLACK
6
CONTINUOUS
10
4.4997500393700784
20
-4.3347499606299209
11
4.5028749606299208
21
-4.3347498818897634
0
LINE
8
BLACK
6
CONTINUOUS
10
4.5028749606299208
20
-4.3347498818897634
11
4.5028749999999995
21
-4.3285
0
LINE
8
BLACK
6
CONTINUOUS
10
4.5028749999999995
20
-4.3285
11
4.5060000000000002
21
-4.3285
0
LINE
8
BLACK
6
CONTINUOUS
10
4.5060000000000002
20
-4.3285
11
4.5060000000000002
21
-4.3222499999999995
0
LINE
8
BLACK
6
CONTINUOUS
10
4.5060000000000002
20
-4.3222499999999995
11
4.509125
21
-4.3222499606299207
0
LINE
8
BLACK
6
CONTINUOUS
10
4.509125
20
-4.3222499606299207
11
4.509125
21
-4.3191249606299209
0
LINE
8
BLACK
6
CONTINUOUS
10
4.509125
20
-4.3191249606299209
11
4.5122499606299211
21
-4.3191249999999997
0
LINE
8
BLACK
6
CONTINUOUS
10
4.5122499606299211
20
-4.3191249999999997
11
4.5122499606299211
21
-4.3159999212598423
0
LINE
8
BLACK
6
CONTINUOUS
10
4.5122499606299211
20
-4.3159999212598423
11
4.5153749606299209
21
-4.3159999999999998
0
LINE
8
BLACK
6
CONTINUOUS
10
4.5153749606299209
20
-4.3159999999999998
11
4.5153749606299209
21
-4.3128749212598425
0
LINE
8
BLACK
6
CONTINUOUS
10
4.5153749606299209
20
-4.3128749212598425
11
4.5184999999999995
21
-4.312875
0
LINE
8
BLACK
6
CONTINUOUS
10
4.5184999999999995
20
-4.312875
11
4.5184999999999995
21
-4.3097500393700789
0
LINE
8
BLACK
6
CONTINUOUS
10
4.5184999999999995
20
-4.3097500393700789
11
4.52475
21
-4.3097500000000002
0
LINE
8
BLACK
6
CONTINUOUS
10
4.52475
20
-4.3097500000000002
11
4.52475
21
-4.3066249606299207
0
LINE
8
BLACK
6
CONTINUOUS
10
4.52475
20
-4.3066249606299207
11
4.5309999606299209
21
-4.3066249606299207
0
LINE
8
BLACK
6
CONTINUOUS
10
4.5309999606299209
20
-4.3066249606299207
11
4.5310000393700784
21
-4.3034999606299209
0
LINE
8
BLACK
6
CONTINUOUS
10
4.5310000393700784
20
-4.3034999606299209
11
4.5403749606299213
21
-4.3034999606299209
0
LINE
8
BLACK
6
CONTINUOUS
10
4.5403749606299213
20
-4.3034999606299209
11
4.5403749606299213
21
-4.3003749999999998
0
LINE
8
BLACK
6
CONTINUOUS
10
4.5403749606299213
20
-4.3003749999999998
11
4.5559999606299213
21
-4.3003749999999998
0
LINE
8
BLACK
6
CONTINUOUS
10
4.5559999606299213
20
-4.3003749999999998
11
4.5559999606299213
21
-4.2972499212598425
0
LINE
8
BLACK
6
CONTINUOUS
10
4.5559999606299213
20
-4.2972499212598425
11
4.6028749606299213
21
-4.2972499212598425
0
LINE
8
BLACK
6
CONTINUOUS
10
4.6028749606299213
20
-4.2972499212598425
11
4.6028749606299213
21
-4.3003749999999998
0
LINE
8
BLACK
6
CONTINUOUS
10
4.5060000000000002
20
-4.469125
11
4.5028749999999995
21
-4.469125
0
LINE
8
BLACK
6
CONTINUOUS
10
4.5028749999999995
20
-4.469125
11
4.5028749999999995
21
-4.4660000000000002
0
LINE
8
BLACK
6
CONTINUOUS
10
4.5028749999999995
20
-4.4660000000000002
11
4.5060000000000002
21
-4.4659999606299214
0
LINE
8
BLACK
6
CONTINUOUS
10
4.5060000000000002
20
-4.4659999606299214
11
4.5060000000000002
21
-4.469125
0
LINE
8
BLACK
6
CONTINUOUS
10
4.5122499606299211
20
-4.469125
11
4.509125
21
-4.4691248818897638
0
LINE
8
BLACK
6
CONTINUOUS
10
4.509125
20
-4.4691248818897638
11
4.509125
21
-4.4660000000000002
0
LINE
8
BLACK
6
CONTINUOUS
10
4.509125
20
-4.4660000000000002
11
4.5122499606299211
21
-4.4659999212598427
0
LINE
8
BLACK
6
CONTINUOUS
10
4.5122499606299211
20
-4.4659999212598427
11
4.5122499606299211
21
-4.469125
0
LINE
8
BLACK
6
CONTINUOUS
10
4.509125
20
-4.4628749606299207
11
4.509125
21
-4.4660000000000002
0
LINE
8
BLACK
6
CONTINUOUS
10
4.509125
20
-4.4660000000000002
11
4.5060000000000002
21
-4.4659999606299214
0
LINE
8
BLACK
6
CONTINUOUS
10
4.5060000000000002
20
-4.4659999606299214
11
4.5060000000000002
21
-4.462874921259842
0
LINE
8
BLACK
6
CONTINUOUS
10
4.5060000000000002
20
-4.462874921259842
11
4.509125
21
-4.4628749606299207
0
LINE
8
BLACK
6
CONTINUOUS
10
4.5216250000000002
20
-4.4659999606299214
11
4.5184999999999995
21
-4.4660000000000002
0
LINE
8
BLACK
6
CONTINUOUS
10
4.5184999999999995
20
-4.4660000000000002
11
4.5184999999999995
21
-4.462874921259842
0
LINE
8
BLACK
6
CONTINUOUS
10
4.5184999999999995
20
-4.462874921259842
11
4.5216250000000002
21
-4.462874921259842
0
LINE
8
BLACK
6
CONTINUOUS
10
4.5216250000000002
20
-4.462874921259842
11
4.5216250000000002
21
-4.4659999606299214
0
LINE
8
BLACK
6
CONTINUOUS
10
4.5153749606299209
20
-4.4659999606299214
11
4.5122499606299211
21
-4.4659999212598427
0
LINE
8
BLACK
6
CONTINUOUS
10
4.5122499606299211
20
-4.4659999212598427
11
4.5122499606299211
21
-4.4628749606299207
0
LINE
8
BLACK
6
CONTINUOUS
10
4.5122499606299211
20
-4.4628749606299207
11
4.5153749606299209
21
-4.462874921259842
0
LINE
8
BLACK
6
CONTINUOUS
10
4.5153749606299209
20
-4.462874921259842
11
4.5153749606299209
21
-4.4659999606299214
0
LINE
8
BLACK
6
CONTINUOUS
10
4.52475
20
-4.4628749606299207
11
4.5216250000000002
21
-4.462874921259842
0
LINE
8
BLACK
6
CONTINUOUS
10
4.5216250000000002
20
-4.462874921259842
11
4.5216250000000002
21
-4.4597499606299209
0
LINE
8
BLACK
6
CONTINUOUS
10
4.5216250000000002
20
-4.4597499606299209
11
4.52475
21
-4.4597499606299209
0
LINE
8
BLACK
6
CONTINUOUS
10
4.52475
20
-4.4597499606299209
11
4.52475
21
-4.4628749606299207
0
LINE
8
BLACK
6
CONTINUOUS
10
4.5184999999999995
20
-4.462874921259842
11
4.5153749606299209
21
-4.462874921259842
0
LINE
8
BLACK
6
CONTINUOUS
10
4.5153749606299209
20
-4.462874921259842
11
4.5153750393700784
21
-4.4597499606299209
0
LINE
8
BLACK
6
CONTINUOUS
10
4.5153750393700784
20
-4.4597499606299209
11
4.5184999606299208
21
-4.4597498818897634
0
LINE
8
BLACK
6
CONTINUOUS
10
4.5184999606299208
20
-4.4597498818897634
11
4.5184999999999995
21
-4.462874921259842
0
LINE
8
BLACK
6
CONTINUOUS
10
4.5278749606299211
20
-4.4597499999999997
11
4.52475
21
-4.4597499606299209
0
LINE
8
BLACK
6
CONTINUOUS
10
4.52475
20
-4.4597499606299209
11
4.52475
21
-4.4566249606299211
0
LINE
8
BLACK
6
CONTINUOUS
10
4.52475
20
-4.4566249606299211
11
4.5278749606299211
21
-4.4566249212598423
0
LINE
8
BLACK
6
CONTINUOUS
10
4.5278749606299211
20
-4.4566249212598423
11
4.5278749606299211
21
-4.4597499999999997
0
LINE
8
BLACK
6
CONTINUOUS
10
4.5747499606299211
20
-4.4128749999999997
11
4.5747499606299211
21
-4.4159999606299207
0
LINE
8
BLACK
6
CONTINUOUS
10
4.5747499606299211
20
-4.4159999606299207
11
4.5685000000000002
21
-4.4159999999999995
0
LINE
8
BLACK
6
CONTINUOUS
10
4.5685000000000002
20
-4.4159999999999995
11
4.5685000000000002
21
-4.4128749606299209
0
LINE
8
BLACK
6
CONTINUOUS
10
4.5685000000000002
20
-4.4128749606299209
11
4.5747499606299211
21
-4.4128749999999997
0
LINE
8
BLACK
6
CONTINUOUS
10
4.6341249606299213
20
-4.4159999999999995
11
4.6310000000000002
21
-4.4159999999999995
0
LINE
8
BLACK
6
CONTINUOUS
10
4.6310000000000002
20
-4.4159999999999995
11
4.6310000000000002
21
-4.4128749606299209
0
LINE
8
BLACK
6
CONTINUOUS
10
4.6310000000000002
20
-4.4128749606299209
11
4.6341249606299213
21
-4.4128749606299209
0
LINE
8
BLACK
6
CONTINUOUS
10
4.6341249606299213
20
-4.4128749606299209
11
4.6341249606299213
21
-4.4159999999999995
0
LINE
8
BLACK
6
CONTINUOUS
10
4.6466250000000002
20
-4.4128749606299209
11
4.6466249606299215
21
-4.4159999999999995
0
LINE
8
BLACK
6
CONTINUOUS
10
4.6466249606299215
20
-4.4159999999999995
11
4.6434999999999995
21
-4.4159999606299207
0
LINE
8
BLACK
6
CONTINUOUS
10
4.6434999999999995
20
-4.4159999606299207
11
4.6434999606299208
21
-4.4128748818897634
0
LINE
8
BLACK
6
CONTINUOUS
10
4.6434999606299208
20
-4.4128748818897634
11
4.6466250000000002
21
-4.4128749606299209
0
LINE
8
BLACK
6
CONTINUOUS
10
4.4872500393700783
20
-4.4159999606299207
11
4.4716250393700783
21
-4.4159999606299207
0
LINE
8
BLACK
6
CONTINUOUS
10
4.4716250393700783
20
-4.4159999606299207
11
4.4716249606299208
21
-4.4128748818897634
0
LINE
8
BLACK
6
CONTINUOUS
10
4.4716249606299208
20
-4.4128748818897634
11
4.4872499606299208
21
-4.4128748818897634
0
LINE
8
BLACK
6
CONTINUOUS
10
4.4872499606299208
20
-4.4128748818897634
11
4.4872500393700783
21
-4.4159999606299207
0
LINE
8
BLACK
6
CONTINUOUS
10
4.6403749212598422
20
-4.4159999606299207
11
4.6372499606299211
21
-4.4159999606299207
0
LINE
8
BLACK
6
CONTINUOUS
10
4.6372499606299211
20
-4.4159999606299207
11
4.6372499606299211
21
-4.4128749999999997
0
LINE
8
BLACK
6
CONTINUOUS
10
4.6372499606299211
20
-4.4128749999999997
11
4.6403750393700784
21
-4.4128749606299209
0
LINE
8
BLACK
6
CONTINUOUS
10
4.6403750393700784
20
-4.4128749606299209
11
4.6403749212598422
21
-4.4159999606299207
0
LINE
8
BLACK
6
CONTINUOUS
10
4.5778749606299209
20
-4.4097499999999998
11
4.5778750393700784
21
-4.4128749606299209
0
LINE
8
BLACK
6
CONTINUOUS
10
4.5778750393700784
20
-4.4128749606299209
11
4.5747499606299211
21
-4.4128749999999997
0
LINE
8
BLACK
6
CONTINUOUS
10
4.5747499606299211
20
-4.4128749999999997
11
4.5747499606299211
21
-4.4097499212598423
0
LINE
8
BLACK
6
CONTINUOUS
10
4.5747499606299211
20
-4.4097499212598423
11
4.5778749606299209
21
-4.4097499999999998
0
LINE
8
BLACK
6
CONTINUOUS
10
4.6372499606299211
20
-4.4128749999999997
11
4.6341249606299213
21
-4.4128749606299209
0
LINE
8
BLACK
6
CONTINUOUS
10
4.6341249606299213
20
-4.4128749606299209
11
4.6341249606299213
21
-4.4097499999999998
0
LINE
8
BLACK
6
CONTINUOUS
10
4.6341249606299213
20
-4.4097499999999998
11
4.6372499606299211
21
-4.4097499212598423
0
LINE
8
BLACK
6
CONTINUOUS
10
4.6372499606299211
20
-4.4097499212598423
11
4.6372499606299211
21
-4.4128749999999997
0
LINE
8
BLACK
6
CONTINUOUS
10
4.4747500000000002
20
-4.406625
11
4.4747500000000002
21
-4.4097499999999998
0
LINE
8
BLACK
6
CONTINUOUS
10
4.4747500000000002
20
-4.4097499999999998
11
4.4716250393700783
21
-4.4097499999999998
0
LINE
8
BLACK
6
CONTINUOUS
10
4.4716250393700783
20
-4.4097499999999998
11
4.4716249606299208
21
-4.4128748818897634
0
LINE
8
BLACK
6
CONTINUOUS
10
4.4716249606299208
20
-4.4128748818897634
11
4.4591250000000002
21
-4.4128749606299209
0
LINE
8
BLACK
6
CONTINUOUS
10
4.4591250000000002
20
-4.4128749606299209
11
4.4591250000000002
21
-4.4097499999999998
0
LINE
8
BLACK
6
CONTINUOUS
10
4.4591250000000002
20
-4.4097499999999998
11
4.4684999606299209
21
-4.4097499999999998
0
LINE
8
BLACK
6
CONTINUOUS
10
4.4684999606299209
20
-4.4097499999999998
11
4.4684999606299209
21
-4.4066249212598425
0
LINE
8
BLACK
6
CONTINUOUS
10
4.4684999606299209
20
-4.4066249212598425
11
4.4747500000000002
21
-4.406625
0
LINE
8
BLACK
6
CONTINUOUS
10
4.6310000000000002
20
-4.4128749606299209
11
4.6278749606299208
21
-4.4128748818897634
0
LINE
8
BLACK
6
CONTINUOUS
10
4.6278749606299208
20
-4.4128748818897634
11
4.6278749999999995
21
-4.4097499999999998
0
LINE
8
BLACK
6
CONTINUOUS
10
4.6278749999999995
20
-4.4097499999999998
11
4.6310000000000002
21
-4.4097499999999998
0
LINE
8
BLACK
6
CONTINUOUS
10
4.6310000000000002
20
-4.4097499999999998
11
4.6310000000000002
21
-4.4128749606299209
0
LINE
8
BLACK
6
CONTINUOUS
10
4.6434999606299208
20
-4.4128748818897634
11
4.6403750393700784
21
-4.4128749606299209
0
LINE
8
BLACK
6
CONTINUOUS
10
4.6403750393700784
20
-4.4128749606299209
11
4.6403749606299209
21
-4.4097499999999998
0
LINE
8
BLACK
6
CONTINUOUS
10
4.6403749606299209
20
-4.4097499999999998
11
4.6434999999999995
21
-4.4097499999999998
0
LINE
8
BLACK
6
CONTINUOUS
10
4.6434999999999995
20
-4.4097499999999998
11
4.6434999606299208
21
-4.4128748818897634
0
LINE
8
BLACK
6
CONTINUOUS
10
4.6497499606299213
20
-4.4128749606299209
11
4.6466250000000002
21
-4.4128749606299209
0
LINE
8
BLACK
6
CONTINUOUS
10
4.6466250000000002
20
-4.4128749606299209
11
4.6466250000000002
21
-4.4097499999999998
0
LINE
8
BLACK
6
CONTINUOUS
10
4.6466250000000002
20
-4.4097499999999998
11
4.6497499606299213
21
-4.4097499999999998
0
LINE
8
BLACK
6
CONTINUOUS
10
4.6497499606299213
20
-4.4097499999999998
11
4.6497499606299213
21
-4.4128749606299209
0
LINE
8
BLACK
6
CONTINUOUS
10
4.4591250000000002
20
-4.4097499999999998
11
4.4497499606299211
21
-4.4097499212598423
0
LINE
8
BLACK
6
CONTINUOUS
10
4.4497499606299211
20
-4.4097499212598423
11
4.4497499606299211
21
-4.406625
0
LINE
8
BLACK
6
CONTINUOUS
10
4.4497499606299211
20
-4.406625
11
4.4591250000000002
21
-4.406625
0
LINE
8
BLACK
6
CONTINUOUS
10
4.4591250000000002
20
-4.406625
11
4.4591250000000002
21
-4.4097499999999998
0
LINE
8
BLACK
6
CONTINUOUS
10
4.6341249606299213
20
-4.3878750000000002
11
4.6341249606299213
21
-4.3909999212598425
0
LINE
8
BLACK
6
CONTINUOUS
10
4.6341249606299213
20
-4.3909999212598425
11
4.6372499606299211
21
-4.391
0
LINE
8
BLACK
6
CONTINUOUS
10
4.6372499606299211
20
-4.391
11
4.6372499606299211
21
-4.3941249212598423
0
LINE
8
BLACK
6
CONTINUOUS
10
4.6372499606299211
20
-4.3941249212598423
11
4.6341249606299213
21
-4.3941249999999998
0
LINE
8
BLACK
6
CONTINUOUS
10
4.6341249606299213
20
-4.3941249999999998
11
4.6341249606299213
21
-4.3972499606299209
0
LINE
8
BLACK
6
CONTINUOUS
10
4.6341249606299213
20
-4.3972499606299209
11
4.6310000000000002
21
-4.3972499606299209
0
LINE
8
BLACK
6
CONTINUOUS
10
4.6310000000000002
20
-4.3972499606299209
11
4.6310000000000002
21
-4.4003749999999995
0
LINE
8
BLACK
6
CONTINUOUS
10
4.6310000000000002
20
-4.4003749999999995
11
4.6278749999999995
21
-4.4003749606299207
0
LINE
8
BLACK
6
CONTINUOUS
10
4.6278749999999995
20
-4.4003749606299207
11
4.6278749999999995
21
-4.4035000000000002
0
LINE
8
BLACK
6
CONTINUOUS
10
4.6278749999999995
20
-4.4035000000000002
11
4.6247499606299209
21
-4.4034999606299214
0
LINE
8
BLACK
6
CONTINUOUS
10
4.6247499606299209
20
-4.4034999606299214
11
4.6247499606299209
21
-4.4066249212598425
0
LINE
8
BLACK
6
CONTINUOUS
10
4.6247499606299209
20
-4.4066249212598425
11
4.6216249606299211
21
-4.406625
0
LINE
8
BLACK
6
CONTINUOUS
10
4.6216249606299211
20
-4.406625
11
4.6216249606299211
21
-4.4097499212598423
0
LINE
8
BLACK
6
CONTINUOUS
10
4.6216249606299211
20
-4.4097499212598423
11
4.6184999606299213
21
-4.4097499999999998
0
LINE
8
BLACK
6
CONTINUOUS
10
4.6184999606299213
20
-4.4097499999999998
11
4.6184999606299213
21
-4.4003749999999995
0
LINE
8
BLACK
6
CONTINUOUS
10
4.6184999606299213
20
-4.4003749999999995
11
4.6153750000000002
21
-4.4003749999999995
0
LINE
8
BLACK
6
CONTINUOUS
10
4.6153750000000002
20
-4.4003749999999995
11
4.6153750000000002
21
-4.3941249999999998
0
LINE
8
BLACK
6
CONTINUOUS
10
4.6153750000000002
20
-4.3941249999999998
11
4.6216249606299211
21
-4.3941249212598423
0
LINE
8
BLACK
6
CONTINUOUS
10
4.6216249606299211
20
-4.3941249212598423
11
4.6216249606299211
21
-4.4003749606299207
0
LINE
8
BLACK
6
CONTINUOUS
10
4.6216249606299211
20
-4.4003749606299207
11
4.6247499212598422
21
-4.4003749606299207
0
LINE
8
BLACK
6
CONTINUOUS
10
4.6247499212598422
20
-4.4003749606299207
11
4.6247500393700784
21
-4.3972499606299209
0
LINE
8
BLACK
6
CONTINUOUS
10
4.6247500393700784
20
-4.3972499606299209
11
4.6278749606299208
21
-4.3972498818897634
0
LINE
8
BLACK
6
CONTINUOUS
10
4.6278749606299208
20
-4.3972498818897634
11
4.6278749999999995
21
-4.3941249999999998
0
LINE
8
BLACK
6
CONTINUOUS
10
4.6278749999999995
20
-4.3941249999999998
11
4.6310000000000002
21
-4.3941249999999998
0
LINE
8
BLACK
6
CONTINUOUS
10
4.6310000000000002
20
-4.3941249999999998
11
4.6310000000000002
21
-4.3878749606299214
0
LINE
8
BLACK
6
CONTINUOUS
10
4.6310000000000002
20
-4.3878749606299214
11
4.6341249606299213
21
-4.3878750000000002
0
LINE
8
BLACK
6
CONTINUOUS
10
4.6278749999999995
20
-4.406625
11
4.6278749999999995
21
-4.4097499999999998
0
LINE
8
BLACK
6
CONTINUOUS
10
4.6278749999999995
20
-4.4097499999999998
11
4.6247499606299209
21
-4.4097499999999998
0
LINE
8
BLACK
6
CONTINUOUS
10
4.6247499606299209
20
-4.4097499999999998
11
4.6247499606299209
21
-4.4066249212598425
0
LINE
8
BLACK
6
CONTINUOUS
10
4.6247499606299209
20
-4.4066249212598425
11
4.6278749999999995
21
-4.406625
0
LINE
8
BLACK
6
CONTINUOUS
10
4.6341249606299213
20
-4.4097499999999998
11
4.6310000000000002
21
-4.4097499999999998
0
LINE
8
BLACK
6
CONTINUOUS
10
4.6310000000000002
20
-4.4097499999999998
11
4.6310000000000002
21
-4.406625
0
LINE
8
BLACK
6
CONTINUOUS
10
4.6310000000000002
20
-4.406625
11
4.6341249606299213
21
-4.4066249212598425
0
LINE
8
BLACK
6
CONTINUOUS
10
4.6341249606299213
20
-4.4066249212598425
11
4.6341249606299213
21
-4.4097499999999998
0
LINE
8
BLACK
6
CONTINUOUS
10
4.6403749606299209
20
-4.4097499999999998
11
4.6372499606299211
21
-4.4097499212598423
0
LINE
8
BLACK
6
CONTINUOUS
10
4.6372499606299211
20
-4.4097499212598423
11
4.6372499606299211
21
-4.406625
0
LINE
8
BLACK
6
CONTINUOUS
10
4.6372499606299211
20
-4.406625
11
4.6403749606299209
21
-4.4066249212598425
0
LINE
8
BLACK
6
CONTINUOUS
10
4.6403749606299209
20
-4.4066249212598425
11
4.6403749606299209
21
-4.4097499999999998
0
LINE
8
BLACK
6
CONTINUOUS
10
4.6466250000000002
20
-4.4097499999999998
11
4.6434999999999995
21
-4.4097499999999998
0
LINE
8
BLACK
6
CONTINUOUS
10
4.6434999999999995
20
-4.4097499999999998
11
4.6434999999999995
21
-4.406625
0
LINE
8
BLACK
6
CONTINUOUS
10
4.6434999999999995
20
-4.406625
11
4.6466250000000002
21
-4.406625
0
LINE
8
BLACK
6
CONTINUOUS
10
4.6466250000000002
20
-4.406625
11
4.6466250000000002
21
-4.4097499999999998
0
LINE
8
BLACK
6
CONTINUOUS
10
4.6528749606299211
20
-4.406625
11
4.6528749606299211
21
-4.4097499212598423
0
LINE
8
BLACK
6
CONTINUOUS
10
4.6528749606299211
20
-4.4097499212598423
11
4.6497499606299213
21
-4.4097499999999998
0
LINE
8
BLACK
6
CONTINUOUS
10
4.6497499606299213
20
-4.4097499999999998
11
4.6497499606299213
21
-4.4066249212598425
0
LINE
8
BLACK
6
CONTINUOUS
10
4.6497499606299213
20
-4.4066249212598425
11
4.6528749606299211
21
-4.406625
0
LINE
8
BLACK
6
CONTINUOUS
10
4.4497499606299211
20
-4.406625
11
4.4435000000000002
21
-4.406625
0
LINE
8
BLACK
6
CONTINUOUS
10
4.4435000000000002
20
-4.406625
11
4.4435000000000002
21
-4.4034999606299214
0
LINE
8
BLACK
6
CONTINUOUS
10
4.4435000000000002
20
-4.4034999606299214
11
4.4497499606299211
21
-4.4034999212598427
0
LINE
8
BLACK
6
CONTINUOUS
10
4.4497499606299211
20
-4.4034999212598427
11
4.4497499606299211
21
-4.406625
0
LINE
8
BLACK
6
CONTINUOUS
10
4.4809999606299211
20
-4.406625
11
4.4747500000000002
21
-4.406625
0
LINE
8
BLACK
6
CONTINUOUS
10
4.4747500000000002
20
-4.406625
11
4.4747500000000002
21
-4.4034999606299214
0
LINE
8
BLACK
6
CONTINUOUS
10
4.4747500000000002
20
-4.4034999606299214
11
4.4809999606299211
21
-4.4034999212598427
0
LINE
8
BLACK
6
CONTINUOUS
10
4.4809999606299211
20
-4.4034999212598427
11
4.4809999606299211
21
-4.406625
0
LINE
8
BLACK
6
CONTINUOUS
10
4.6310000000000002
20
-4.406625
11
4.6278749999999995
21
-4.406625
0
LINE
8
BLACK
6
CONTINUOUS
10
4.6278749999999995
20
-4.406625
11
4.6278749999999995
21
-4.4035000000000002
0
LINE
8
BLACK
6
CONTINUOUS
10
4.6278749999999995
20
-4.4035000000000002
11
4.6310000000000002
21
-4.4034999606299214
0
LINE
8
BLACK
6
CONTINUOUS
10
4.6310000000000002
20
-4.4034999606299214
11
4.6310000000000002
21
-4.406625
0
LINE
8
BLACK
6
CONTINUOUS
10
4.6372499606299211
20
-4.406625
11
4.6341249606299213
21
-4.4066249212598425
0
LINE
8
BLACK
6
CONTINUOUS
10
4.6341249606299213
20
-4.4066249212598425
11
4.6341249606299213
21
-4.4035000000000002
0
LINE
8
BLACK
6
CONTINUOUS
10
4.6341249606299213
20
-4.4035000000000002
11
4.6372499606299211
21
-4.4034999212598427
0
LINE
8
BLACK
6
CONTINUOUS
10
4.6372499606299211
20
-4.4034999212598427
11
4.6372499606299211
21
-4.406625
0
LINE
8
BLACK
6
CONTINUOUS
10
4.6434999999999995
20
-4.4035000000000002
11
4.6434999999999995
21
-4.406625
0
LINE
8
BLACK
6
CONTINUOUS
10
4.6434999999999995
20
-4.406625
11
4.6403749606299209
21
-4.4066249212598425
0
LINE
8
BLACK
6
CONTINUOUS
10
4.6403749606299209
20
-4.4066249212598425
11
4.6403749606299209
21
-4.4034999606299214
0
LINE
8
BLACK
6
CONTINUOUS
10
4.6403749606299209
20
-4.4034999606299214
11
4.6434999999999995
21
-4.4035000000000002
0
LINE
8
BLACK
6
CONTINUOUS
10
4.6497499606299213
20
-4.4035000000000002
11
4.6497499606299213
21
-4.4066249212598425
0
LINE
8
BLACK
6
CONTINUOUS
10
4.6497499606299213
20
-4.4066249212598425
11
4.6466250000000002
21
-4.406625
0
LINE
8
BLACK
6
CONTINUOUS
10
4.6466250000000002
20
-4.406625
11
4.6466250000000002
21
-4.4034999606299214
0
LINE
8
BLACK
6
CONTINUOUS
10
4.6466250000000002
20
-4.4034999606299214
11
4.6497499606299213
21
-4.4035000000000002
0
LINE
8
BLACK
6
CONTINUOUS
10
4.6559999606299209
20
-4.4034999606299214
11
4.6559999606299209
21
-4.4066249212598425
0
LINE
8
BLACK
6
CONTINUOUS
10
4.6559999606299209
20
-4.4066249212598425
11
4.6528749606299211
21
-4.406625
0
LINE
8
BLACK
6
CONTINUOUS
10
4.6528749606299211
20
-4.406625
11
4.6528749606299211
21
-4.4034999212598427
0
LINE
8
BLACK
6
CONTINUOUS
10
4.6528749606299211
20
-4.4034999212598427
11
4.6559999606299209
21
-4.4034999606299214
0
LINE
8
BLACK
6
CONTINUOUS
10
4.6341249606299213
20
-4.4035000000000002
11
4.6310000000000002
21
-4.4034999606299214
0
LINE
8
BLACK
6
CONTINUOUS
10
4.6310000000000002
20
-4.4034999606299214
11
4.6310000000000002
21
-4.4003749999999995
0
LINE
8
BLACK
6
CONTINUOUS
10
4.6310000000000002
20
-4.4003749999999995
11
4.6341249606299213
21
-4.4003749999999995
0
LINE
8
BLACK
6
CONTINUOUS
10
4.6341249606299213
20
-4.4003749999999995
11
4.6341249606299213
21
-4.4035000000000002
0
LINE
8
BLACK
6
CONTINUOUS
10
4.6466249606299215
20
-4.4003749999999995
11
4.6466250000000002
21
-4.4034999606299214
0
LINE
8
BLACK
6
CONTINUOUS
10
4.6466250000000002
20
-4.4034999606299214
11
4.6434999999999995
21
-4.4035000000000002
0
LINE
8
BLACK
6
CONTINUOUS
10
4.6434999999999995
20
-4.4035000000000002
11
4.6434999999999995
21
-4.4003749606299207
0
LINE
8
BLACK
6
CONTINUOUS
10
4.6434999999999995
20
-4.4003749606299207
11
4.6466249606299215
21
-4.4003749999999995
0
LINE
8
BLACK
6
CONTINUOUS
10
4.6528749606299211
20
-4.4034999212598427
11
4.6497499606299213
21
-4.4035000000000002
0
LINE
8
BLACK
6
CONTINUOUS
10
4.6497499606299213
20
-4.4035000000000002
11
4.6497499606299213
21
-4.4003749999999995
0
LINE
8
BLACK
6
CONTINUOUS
10
4.6497499606299213
20
-4.4003749999999995
11
4.6528749606299211
21
-4.4003749606299207
0
LINE
8
BLACK
6
CONTINUOUS
10
4.6528749606299211
20
-4.4003749606299207
11
4.6528749606299211
21
-4.4034999212598427
0
LINE
8
BLACK
6
CONTINUOUS
10
4.6403749606299209
20
-4.4034999606299214
11
4.6372499606299211
21
-4.4034999212598427
0
LINE
8
BLACK
6
CONTINUOUS
10
4.6372499606299211
20
-4.4034999212598427
11
4.6372499606299211
21
-4.4003749606299207
0
LINE
8
BLACK
6
CONTINUOUS
10
4.6372499606299211
20
-4.4003749606299207
11
4.6403749212598422
21
-4.4003749606299207
0
LINE
8
BLACK
6
CONTINUOUS
10
4.6403749212598422
20
-4.4003749606299207
11
4.6403749606299209
21
-4.4034999606299214
0
LINE
8
BLACK
6
CONTINUOUS
10
4.6372499606299211
20
-4.3972499999999997
11
4.6372499606299211
21
-4.4003749606299207
0
LINE
8
BLACK
6
CONTINUOUS
10
4.6372499606299211
20
-4.4003749606299207
11
4.6341249606299213
21
-4.4003749999999995
0
LINE
8
BLACK
6
CONTINUOUS
10
4.6341249606299213
20
-4.4003749999999995
11
4.6341249606299213
21
-4.3972499606299209
0
LINE
8
BLACK
6
CONTINUOUS
10
4.6341249606299213
20
-4.3972499606299209
11
4.6372499606299211
21
-4.3972499999999997
0
LINE
8
BLACK
6
CONTINUOUS
10
4.6497499606299213
20
-4.4003749999999995
11
4.6466249606299215
21
-4.4003749999999995
0
LINE
8
BLACK
6
CONTINUOUS
10
4.6466249606299215
20
-4.4003749999999995
11
4.6466250000000002
21
-4.3972499606299209
0
LINE
8
BLACK
6
CONTINUOUS
10
4.6466250000000002
20
-4.3972499606299209
11
4.6497499606299213
21
-4.3972499606299209
0
LINE
8
BLACK
6
CONTINUOUS
10
4.6497499606299213
20
-4.3972499606299209
11
4.6497499606299213
21
-4.4003749999999995
0
LINE
8
BLACK
6
CONTINUOUS
10
4.6434999999999995
20
-4.4003749606299207
11
4.6403749212598422
21
-4.4003749606299207
0
LINE
8
BLACK
6
CONTINUOUS
10
4.6403749212598422
20
-4.4003749606299207
11
4.6403750393700784
21
-4.3972499606299209
0
LINE
8
BLACK
6
CONTINUOUS
10
4.6403750393700784
20
-4.3972499606299209
11
4.6434999606299208
21
-4.3972498818897634
0
LINE
8
BLACK
6
CONTINUOUS
10
4.6434999606299208
20
-4.3972498818897634
11
4.6434999999999995
21
-4.4003749606299207
0
LINE
8
BLACK
6
CONTINUOUS
10
4.6559999212598422
20
-4.4003749606299207
11
4.6528749606299211
21
-4.4003749606299207
0
LINE
8
BLACK
6
CONTINUOUS
10
4.6528749606299211
20
-4.4003749606299207
11
4.6528749606299211
21
-4.3972499999999997
0
LINE
8
BLACK
6
CONTINUOUS
10
4.6528749606299211
20
-4.3972499999999997
11
4.6560000393700784
21
-4.3972499606299209
0
LINE
8
BLACK
6
CONTINUOUS
10
4.6560000393700784
20
-4.3972499606299209
11
4.6559999212598422
21
-4.4003749606299207
0
LINE
8
BLACK
6
CONTINUOUS
10
4.6403749606299209
20
-4.3941249999999998
11
4.6403750393700784
21
-4.3972499606299209
0
LINE
8
BLACK
6
CONTINUOUS
10
4.6403750393700784
20
-4.3972499606299209
11
4.6372499606299211
21
-4.3972499999999997
0
LINE
8
BLACK
6
CONTINUOUS
10
4.6372499606299211
20
-4.3972499999999997
11
4.6372499606299211
21
-4.3941249212598423
0
LINE
8
BLACK
6
CONTINUOUS
10
4.6372499606299211
20
-4.3941249212598423
11
4.6403749606299209
21
-4.3941249999999998
0
LINE
8
BLACK
6
CONTINUOUS
10
4.6528749606299211
20
-4.3972499999999997
11
4.6497499606299213
21
-4.3972499606299209
0
LINE
8
BLACK
6
CONTINUOUS
10
4.6497499606299213
20
-4.3972499606299209
11
4.6497499606299213
21
-4.3941249999999998
0
LINE
8
BLACK
6
CONTINUOUS
10
4.6497499606299213
20
-4.3941249999999998
11
4.6528749606299211
21
-4.3941249212598423
0
LINE
8
BLACK
6
CONTINUOUS
10
4.6528749606299211
20
-4.3941249212598423
11
4.6528749606299211
21
-4.3972499999999997
0
LINE
8
BLACK
6
CONTINUOUS
10
4.6466250000000002
20
-4.3972499606299209
11
4.6434999606299208
21
-4.3972498818897634
0
LINE
8
BLACK
6
CONTINUOUS
10
4.6434999606299208
20
-4.3972498818897634
11
4.6434999999999995
21
-4.3941249999999998
0
LINE
8
BLACK
6
CONTINUOUS
10
4.6434999999999995
20
-4.3941249999999998
11
4.6466250000000002
21
-4.3941249999999998
0
LINE
8
BLACK
6
CONTINUOUS
10
4.6466250000000002
20
-4.3941249999999998
11
4.6466250000000002
21
-4.3972499606299209
0
LINE
8
BLACK
6
CONTINUOUS
10
4.6091249606299209
20
-4.3566249606299214
11
4.6153750000000002
21
-4.3566249606299214
0
LINE
8
BLACK
6
CONTINUOUS
10
4.6153750000000002
20
-4.3566249606299214
11
4.6153750000000002
21
-4.35975
0
LINE
8
BLACK
6
CONTINUOUS
10
4.6153750000000002
20
-4.35975
11
4.6184999606299213
21
-4.3597499212598425
0
LINE
8
BLACK
6
CONTINUOUS
10
4.6184999606299213
20
-4.3597499212598425
11
4.6184999606299213
21
-4.3659999606299209
0
LINE
8
BLACK
6
CONTINUOUS
10
4.6184999606299213
20
-4.3659999606299209
11
4.6216249606299211
21
-4.3659999999999997
0
LINE
8
BLACK
6
CONTINUOUS
10
4.6216249606299211
20
-4.3659999999999997
11
4.6216249606299211
21
-4.3722499212598427
0
LINE
8
BLACK
6
CONTINUOUS
10
4.6216249606299211
20
-4.3722499212598427
11
4.6216249606299211
21
-4.3816249999999997
0
LINE
8
BLACK
6
CONTINUOUS
10
4.6216249606299211
20
-4.3816249999999997
11
4.6184999606299213
21
-4.3816249606299209
0
LINE
8
BLACK
6
CONTINUOUS
10
4.6184999606299213
20
-4.3816249606299209
11
4.6184999606299213
21
-4.3878750000000002
0
LINE
8
BLACK
6
CONTINUOUS
10
4.6184999606299213
20
-4.3878750000000002
11
4.6153750000000002
21
-4.3878749606299214
0
LINE
8
BLACK
6
CONTINUOUS
10
4.6153750000000002
20
-4.3878749606299214
11
4.6153750000000002
21
-4.3941249999999998
0
LINE
8
BLACK
6
CONTINUOUS
10
4.6153750000000002
20
-4.3941249999999998
11
4.6122499999999995
21
-4.3941249999999998
0
LINE
8
BLACK
6
CONTINUOUS
10
4.6122499999999995
20
-4.3941249999999998
11
4.6122499999999995
21
-4.391
0
LINE
8
BLACK
6
CONTINUOUS
10
4.6122499999999995
20
-4.391
11
4.6059999606299211
21
-4.391
0
LINE
8
BLACK
6
CONTINUOUS
10
4.6059999606299211
20
-4.391
11
4.6059999606299211
21
-4.3878749212598427
0
LINE
8
BLACK
6
CONTINUOUS
10
4.6059999606299211
20
-4.3878749212598427
11
4.5966249999999995
21
-4.3878750000000002
0
LINE
8
BLACK
6
CONTINUOUS
10
4.5966249999999995
20
-4.3878750000000002
11
4.5966249999999995
21
-4.3847499606299207
0
LINE
8
BLACK
6
CONTINUOUS
10
4.5966249999999995
20
-4.3847499606299207
11
4.5778749212598422
21
-4.3847499606299207
0
LINE
8
BLACK
6
CONTINUOUS
10
4.5778749212598422
20
-4.3847499606299207
11
4.5778749606299209
21
-4.3878749606299214
0
LINE
8
BLACK
6
CONTINUOUS
10
4.5778749606299209
20
-4.3878749606299214
11
4.5716249606299213
21
-4.3878750000000002
0
LINE
8
BLACK
6
CONTINUOUS
10
4.5716249606299213
20
-4.3878750000000002
11
4.5716249606299213
21
-4.3628749999999998
0
LINE
8
BLACK
6
CONTINUOUS
10
4.5716249606299213
20
-4.3628749999999998
11
4.5747499606299211
21
-4.3628749212598423
0
LINE
8
BLACK
6
CONTINUOUS
10
4.5747499606299211
20
-4.3628749212598423
11
4.5747499606299211
21
-4.3847499606299207
0
LINE
8
BLACK
6
CONTINUOUS
10
4.5747499606299211
20
-4.3847499606299207
11
4.5778749212598422
21
-4.3847499606299207
0
LINE
8
BLACK
6
CONTINUOUS
10
4.5778749212598422
20
-4.3847499606299207
11
4.5778750393700784
21
-4.3816249606299209
0
LINE
8
BLACK
6
CONTINUOUS
10
4.5778750393700784
20
-4.3816249606299209
11
4.5809999606299208
21
-4.3816248818897634
0
LINE
8
BLACK
6
CONTINUOUS
10
4.5809999606299208
20
-4.3816248818897634
11
4.5809999606299208
21
-4.3659998818897634
0
LINE
8
BLACK
6
CONTINUOUS
10
4.5809999606299208
20
-4.3659998818897634
11
4.5841250000000002
21
-4.3659999606299209
0
LINE
8
BLACK
6
CONTINUOUS
10
4.5841250000000002
20
-4.3659999606299209
11
4.5841250000000002
21
-4.35975
0
LINE
8
BLACK
6
CONTINUOUS
10
4.5841250000000002
20
-4.35975
11
4.5872499606299213
21
-4.3597499212598425
0
LINE
8
BLACK
6
CONTINUOUS
10
4.5872499606299213
20
-4.3597499212598425
11
4.5872499606299213
21
-4.3566250000000002
0
LINE
8
BLACK
6
CONTINUOUS
10
4.5872499606299213
20
-4.3566250000000002
11
4.5934999606299209
21
-4.3566249606299214
0
LINE
8
BLACK
6
CONTINUOUS
10
4.5934999606299209
20
-4.3566249606299214
11
4.5934999212598422
21
-4.3534999606299207
0
LINE
8
BLACK
6
CONTINUOUS
10
4.5934999212598422
20
-4.3534999606299207
11
4.6091249212598422
21
-4.3534999606299207
0
LINE
8
BLACK
6
CONTINUOUS
10
4.6091249212598422
20
-4.3534999606299207
11
4.6091249606299209
21
-4.3566249606299214
0
LINE
8
BLACK
6
CONTINUOUS
10
4.6028749606299213
20
-4.3722500000000002
11
4.6091249606299209
21
-4.3722499606299214
0
LINE
8
BLACK
6
CONTINUOUS
10
4.6091249606299209
20
-4.3722499606299214
11
4.6091250393700784
21
-4.3659999606299209
0
LINE
8
BLACK
6
CONTINUOUS
10
4.6091250393700784
20
-4.3659999606299209
11
4.6028749606299213
21
-4.3659999606299209
0
LINE
8
BLACK
6
CONTINUOUS
10
4.6028749606299213
20
-4.3659999606299209
11
4.6028749606299213
21
-4.3722500000000002
0
LINE
8
BLACK
6
CONTINUOUS
10
4.6247499606299209
20
-4.3941249999999998
11
4.6216249606299211
21
-4.3941249212598423
0
LINE
8
BLACK
6
CONTINUOUS
10
4.6216249606299211
20
-4.3941249212598423
11
4.6216249606299211
21
-4.391
0
LINE
8
BLACK
6
CONTINUOUS
10
4.6216249606299211
20
-4.391
11
4.6247499606299209
21
-4.3909999212598425
0
LINE
8
BLACK
6
CONTINUOUS
10
4.6247499606299209
20
-4.3909999212598425
11
4.6247499606299209
21
-4.3941249999999998
0
LINE
8
BLACK
6
CONTINUOUS
10
4.6434999999999995
20
-4.391
11
4.6434999999999995
21
-4.3941249999999998
0
LINE
8
BLACK
6
CONTINUOUS
10
4.6434999999999995
20
-4.3941249999999998
11
4.6403749606299209
21
-4.3941249999999998
0
LINE
8
BLACK
6
CONTINUOUS
10
4.6403749606299209
20
-4.3941249999999998
11
4.6403749606299209
21
-4.3909999212598425
0
LINE
8
BLACK
6
CONTINUOUS
10
4.6403749606299209
20
-4.3909999212598425
11
4.6434999999999995
21
-4.391
0
LINE
8
BLACK
6
CONTINUOUS
10
4.6497499606299213
20
-4.3941249999999998
11
4.6466250000000002
21
-4.3941249999999998
0
LINE
8
BLACK
6
CONTINUOUS
10
4.6466250000000002
20
-4.3941249999999998
11
4.6466250000000002
21
-4.391
0
LINE
8
BLACK
6
CONTINUOUS
10
4.6466250000000002
20
-4.391
11
4.6497499606299213
21
-4.3909999212598425
0
LINE
8
BLACK
6
CONTINUOUS
10
4.6497499606299213
20
-4.3909999212598425
11
4.6497499606299213
21
-4.3941249999999998
0
LINE
8
BLACK
6
CONTINUOUS
10
4.6559999606299209
20
-4.3941249999999998
11
4.6528749606299211
21
-4.3941249212598423
0
LINE
8
BLACK
6
CONTINUOUS
10
4.6528749606299211
20
-4.3941249212598423
11
4.6528749606299211
21
-4.391
0
LINE
8
BLACK
6
CONTINUOUS
10
4.6528749606299211
20
-4.391
11
4.6559999606299209
21
-4.3909999212598425
0
LINE
8
BLACK
6
CONTINUOUS
10
4.6559999606299209
20
-4.3909999212598425
11
4.6559999606299209
21
-4.3941249999999998
0
LINE
8
BLACK
6
CONTINUOUS
10
4.6278749999999995
20
-4.391
11
4.6247499606299209
21
-4.3909999212598425
0
LINE
8
BLACK
6
CONTINUOUS
10
4.6247499606299209
20
-4.3909999212598425
11
4.6247499212598422
21
-4.3847499606299207
0
LINE
8
BLACK
6
CONTINUOUS
10
4.6247499212598422
20
-4.3847499606299207
11
4.6278749999999995
21
-4.3847499606299207
0
LINE
8
BLACK
6
CONTINUOUS
10
4.6278749999999995
20
-4.3847499606299207
11
4.6278749999999995
21
-4.391
0
LINE
8
BLACK
6
CONTINUOUS
10
4.6403749606299209
20
-4.3878749606299214
11
4.6403749606299209
21
-4.3909999212598425
0
LINE
8
BLACK
6
CONTINUOUS
10
4.6403749606299209
20
-4.3909999212598425
11
4.6372499606299211
21
-4.391
0
LINE
8
BLACK
6
CONTINUOUS
10
4.6372499606299211
20
-4.391
11
4.6372499606299211
21
-4.3878749212598427
0
LINE
8
BLACK
6
CONTINUOUS
10
4.6372499606299211
20
-4.3878749212598427
11
4.6403749606299209
21
-4.3878749606299214
0
LINE
8
BLACK
6
CONTINUOUS
10
4.6466250000000002
20
-4.391
11
4.6434999999999995
21
-4.391
0
LINE
8
BLACK
6
CONTINUOUS
10
4.6434999999999995
20
-4.391
11
4.6434999999999995
21
-4.3878750000000002
0
LINE
8
BLACK
6
CONTINUOUS
10
4.6434999999999995
20
-4.3878750000000002
11
4.6466250000000002
21
-4.3878749606299214
0
LINE
8
BLACK
6
CONTINUOUS
10
4.6466250000000002
20
-4.3878749606299214
11
4.6466250000000002
21
-4.391
0
LINE
8
BLACK
6
CONTINUOUS
10
4.6528749606299211
20
-4.391
11
4.6497499606299213
21
-4.3909999212598425
0
LINE
8
BLACK
6
CONTINUOUS
10
4.6497499606299213
20
-4.3909999212598425
11
4.6497499606299213
21
-4.3878750000000002
0
LINE
8
BLACK
6
CONTINUOUS
10
4.6497499606299213
20
-4.3878750000000002
11
4.6528749606299211
21
-4.3878749212598427
0
LINE
8
BLACK
6
CONTINUOUS
10
4.6528749606299211
20
-4.3878749212598427
11
4.6528749606299211
21
-4.391
0
LINE
8
BLACK
6
CONTINUOUS
10
4.6372499606299211
20
-4.35975
11
4.6372499606299211
21
-4.3816249999999997
0
LINE
8
BLACK
6
CONTINUOUS
10
4.6372499606299211
20
-4.3816249999999997
11
4.6403750393700784
21
-4.3816249606299209
0
LINE
8
BLACK
6
CONTINUOUS
10
4.6403750393700784
20
-4.3816249606299209
11
4.6403749212598422
21
-4.3847499606299207
0
LINE
8
BLACK
6
CONTINUOUS
10
4.6403749212598422
20
-4.3847499606299207
11
4.6372499606299211
21
-4.3847499606299207
0
LINE
8
BLACK
6
CONTINUOUS
10
4.6372499606299211
20
-4.3847499606299207
11
4.6372499606299211
21
-4.3878749212598427
0
LINE
8
BLACK
6
CONTINUOUS
10
4.6372499606299211
20
-4.3878749212598427
11
4.6341249606299213
21
-4.3878750000000002
0
LINE
8
BLACK
6
CONTINUOUS
10
4.6341249606299213
20
-4.3878750000000002
11
4.6341249606299213
21
-4.3597499212598425
0
LINE
8
BLACK
6
CONTINUOUS
10
4.6341249606299213
20
-4.3597499212598425
11
4.6372499606299211
21
-4.35975
0
LINE
8
BLACK
6
CONTINUOUS
10
4.6434999999999995
20
-4.3878750000000002
11
4.6403749606299209
21
-4.3878749606299214
0
LINE
8
BLACK
6
CONTINUOUS
10
4.6403749606299209
20
-4.3878749606299214
11
4.6403749212598422
21
-4.3847499606299207
0
LINE
8
BLACK
6
CONTINUOUS
10
4.6403749212598422
20
-4.3847499606299207
11
4.6434999999999995
21
-4.3847499606299207
0
LINE
8
BLACK
6
CONTINUOUS
10
4.6434999999999995
20
-4.3847499606299207
11
4.6434999999999995
21
-4.3878750000000002
0
LINE
8
BLACK
6
CONTINUOUS
10
4.6497499606299213
20
-4.3878750000000002
11
4.6466250000000002
21
-4.3878749606299214
0
LINE
8
BLACK
6
CONTINUOUS
10
4.6466250000000002
20
-4.3878749606299214
11
4.6466249606299215
21
-4.3847499999999995
0
LINE
8
BLACK
6
CONTINUOUS
10
4.6466249606299215
20
-4.3847499999999995
11
4.6497499606299213
21
-4.3847499999999995
0
LINE
8
BLACK
6
CONTINUOUS
10
4.6497499606299213
20
-4.3847499999999995
11
4.6497499606299213
21
-4.3878750000000002
0
LINE
8
BLACK
6
CONTINUOUS
10
4.6310000000000002
20
-4.3847499999999995
11
4.6278749999999995
21
-4.3847499606299207
0
LINE
8
BLACK
6
CONTINUOUS
10
4.6278749999999995
20
-4.3847499606299207
11
4.6278749999999995
21
-4.3628749999999998
0
LINE
8
BLACK
6
CONTINUOUS
10
4.6278749999999995
20
-4.3628749999999998
11
4.6310000000000002
21
-4.3628749999999998
0
LINE
8
BLACK
6
CONTINUOUS
10
4.6310000000000002
20
-4.3628749999999998
11
4.6310000000000002
21
-4.3847499999999995
0
LINE
8
BLACK
6
CONTINUOUS
10
4.6466250000000002
20
-4.3816249606299209
11
4.6466249606299215
21
-4.3847499999999995
0
LINE
8
BLACK
6
CONTINUOUS
10
4.6466249606299215
20
-4.3847499999999995
11
4.6434999999999995
21
-4.3847499606299207
0
LINE
8
BLACK
6
CONTINUOUS
10
4.6434999999999995
20
-4.3847499606299207
11
4.6434999606299208
21
-4.3816248818897634
0
LINE
8
BLACK
6
CONTINUOUS
10
4.6434999606299208
20
-4.3816248818897634
11
4.6466250000000002
21
-4.3816249606299209
0
LINE
8
BLACK
6
CONTINUOUS
10
4.5685000000000002
20
-4.3816249606299209
11
4.5591249606299211
21
-4.3816249999999997
0
LINE
8
BLACK
6
CONTINUOUS
10
4.5591249606299211
20
-4.3816249999999997
11
4.5591249606299211
21
-4.3784999212598423
0
LINE
8
BLACK
6
CONTINUOUS
10
4.5591249606299211
20
-4.3784999212598423
11
4.5653749999999995
21
-4.3784999999999998
0
LINE
8
BLACK
6
CONTINUOUS
10
4.5653749999999995
20
-4.3784999999999998
11
4.5653749999999995
21
-4.35975
0
LINE
8
BLACK
6
CONTINUOUS
10
4.5653749999999995
20
-4.35975
11
4.5685000000000002
21
-4.35975
0
LINE
8
BLACK
6
CONTINUOUS
10
4.5685000000000002
20
-4.35975
11
4.5685000000000002
21
-4.3816249606299209
0
LINE
8
BLACK
6
CONTINUOUS
10
4.5591249606299211
20
-4.3784999212598423
11
4.5528750000000002
21
-4.3784999999999998
0
LINE
8
BLACK
6
CONTINUOUS
10
4.5528750000000002
20
-4.3784999999999998
11
4.5528750000000002
21
-4.375375
0
LINE
8
BLACK
6
CONTINUOUS
10
4.5528750000000002
20
-4.375375
11
4.5591249606299211
21
-4.375375
0
LINE
8
BLACK
6
CONTINUOUS
10
4.5591249606299211
20
-4.375375
11
4.5591249606299211
21
-4.3784999212598423
0
LINE
8
BLACK
6
CONTINUOUS
10
4.5528750000000002
20
-4.375375
11
4.5466249606299209
21
-4.3753749212598425
0
LINE
8
BLACK
6
CONTINUOUS
10
4.5466249606299209
20
-4.3753749212598425
11
4.5466249606299209
21
-4.3722499606299214
0
LINE
8
BLACK
6
CONTINUOUS
10
4.5466249606299209
20
-4.3722499606299214
11
4.5528750000000002
21
-4.3722499606299214
0
LINE
8
BLACK
6
CONTINUOUS
10
4.5528750000000002
20
-4.3722499606299214
11
4.5528750000000002
21
-4.375375
0
LINE
8
BLACK
6
CONTINUOUS
10
4.5466249606299209
20
-4.3722499606299214
11
4.5403749606299213
21
-4.3722500000000002
0
LINE
8
BLACK
6
CONTINUOUS
10
4.5403749606299213
20
-4.3722500000000002
11
4.5403749606299213
21
-4.3691249999999995
0
LINE
8
BLACK
6
CONTINUOUS
10
4.5403749606299213
20
-4.3691249999999995
11
4.5466249606299209
21
-4.3691249606299207
0
LINE
8
BLACK
6
CONTINUOUS
10
4.5466249606299209
20
-4.3691249606299207
11
4.5466249606299209
21
-4.3722499606299214
0
LINE
8
BLACK
6
CONTINUOUS
10
4.5403749606299213
20
-4.3659999606299209
11
4.5403749606299213
21
-4.3691249999999995
0
LINE
8
BLACK
6
CONTINUOUS
10
4.5403749606299213
20
-4.3691249999999995
11
4.5341249999999995
21
-4.3691249606299207
0
LINE
8
BLACK
6
CONTINUOUS
10
4.5341249999999995
20
-4.3691249606299207
11
4.5341249606299208
21
-4.3659998818897634
0
LINE
8
BLACK
6
CONTINUOUS
10
4.5341249606299208
20
-4.3659998818897634
11
4.5403749606299213
21
-4.3659999606299209
0
LINE
8
BLACK
6
CONTINUOUS
10
4.5341249606299208
20
-4.3659998818897634
11
4.5310000393700784
21
-4.3659999606299209
0
LINE
8
BLACK
6
CONTINUOUS
10
4.5310000393700784
20
-4.3659999606299209
11
4.5309999606299209
21
-4.3628749999999998
0
LINE
8
BLACK
6
CONTINUOUS
10
4.5309999606299209
20
-4.3628749999999998
11
4.5341249999999995
21
-4.3628749999999998
0
LINE
8
BLACK
6
CONTINUOUS
10
4.5341249999999995
20
-4.3628749999999998
11
4.5341249606299208
21
-4.3659998818897634
0
LINE
8
BLACK
6
CONTINUOUS
10
4.5309999606299209
20
-4.3628749999999998
11
4.52475
21
-4.3628749999999998
0
LINE
8
BLACK
6
CONTINUOUS
10
4.52475
20
-4.3628749999999998
11
4.52475
21
-4.3597499606299213
0
LINE
8
BLACK
6
CONTINUOUS
10
4.52475
20
-4.3597499606299213
11
4.5309999606299209
21
-4.3597499212598425
0
LINE
8
BLACK
6
CONTINUOUS
10
4.5309999606299209
20
-4.3597499212598425
11
4.5309999606299209
21
-4.3628749999999998
0
LINE
8
BLACK
6
CONTINUOUS
10
4.5778749606299209
20
-4.3566249606299214
11
4.5778749606299209
21
-4.3628749999999998
0
LINE
8
BLACK
6
CONTINUOUS
10
4.5778749606299209
20
-4.3628749999999998
11
4.5747499606299211
21
-4.3628749212598423
0
LINE
8
BLACK
6
CONTINUOUS
10
4.5747499606299211
20
-4.3628749212598423
11
4.5747499606299211
21
-4.3566249212598427
0
LINE
8
BLACK
6
CONTINUOUS
10
4.5747499606299211
20
-4.3566249212598427
11
4.5778749606299209
21
-4.3566249606299214
0
LINE
8
BLACK
6
CONTINUOUS
10
4.6278749999999995
20
-4.3566250393700789
11
4.6278749999999995
21
-4.3628749999999998
0
LINE
8
BLACK
6
CONTINUOUS
10
4.6278749999999995
20
-4.3628749999999998
11
4.6247499606299209
21
-4.3628749999999998
0
LINE
8
BLACK
6
CONTINUOUS
10
4.6247499606299209
20
-4.3628749999999998
11
4.6247499606299209
21
-4.3566249606299214
0
LINE
8
BLACK
6
CONTINUOUS
10
4.6247499606299209
20
-4.3566249606299214
11
4.6278749999999995
21
-4.3566250393700789
0
LINE
8
BLACK
6
CONTINUOUS
10
4.52475
20
-4.3566250000000002
11
4.52475
21
-4.3597499606299213
0
LINE
8
BLACK
6
CONTINUOUS
10
4.52475
20
-4.3597499606299213
11
4.5216250000000002
21
-4.35975
0
LINE
8
BLACK
6
CONTINUOUS
10
4.5216250000000002
20
-4.35975
11
4.5216250000000002
21
-4.3566249606299214
0
LINE
8
BLACK
6
CONTINUOUS
10
4.5216250000000002
20
-4.3566249606299214
11
4.52475
21
-4.3566250000000002
0
LINE
8
BLACK
6
CONTINUOUS
10
4.5716249606299213
20
-4.3597499212598425
11
4.5685000000000002
21
-4.35975
0
LINE
8
BLACK
6
CONTINUOUS
10
4.5685000000000002
20
-4.35975
11
4.5685000000000002
21
-4.3534999999999995
0
LINE
8
BLACK
6
CONTINUOUS
10
4.5685000000000002
20
-4.3534999999999995
11
4.5716249606299213
21
-4.3534999999999995
0
LINE
8
BLACK
6
CONTINUOUS
10
4.5716249606299213
20
-4.3534999999999995
11
4.5716249606299213
21
-4.3597499212598425
0
LINE
8
BLACK
6
CONTINUOUS
10
4.6341249606299213
20
-4.3597499212598425
11
4.6310000000000002
21
-4.35975
0
LINE
8
BLACK
6
CONTINUOUS
10
4.6310000000000002
20
-4.35975
11
4.6310000000000002
21
-4.3534999999999995
0
LINE
8
BLACK
6
CONTINUOUS
10
4.6310000000000002
20
-4.3534999999999995
11
4.6341249606299213
21
-4.3534999999999995
0
LINE
8
BLACK
6
CONTINUOUS
10
4.6341249606299213
20
-4.3534999999999995
11
4.6341249606299213
21
-4.3597499212598425
0
LINE
8
BLACK
6
CONTINUOUS
10
4.5497499999999995
20
-4.3566250393700789
11
4.5372500000000002
21
-4.3566249606299214
0
LINE
8
BLACK
6
CONTINUOUS
10
4.5372500000000002
20
-4.3566249606299214
11
4.5372500000000002
21
-4.3534999999999995
0
LINE
8
BLACK
6
CONTINUOUS
10
4.5372500000000002
20
-4.3534999999999995
11
4.5497499999999995
21
-4.3534999606299207
0
LINE
8
BLACK
6
CONTINUOUS
10
4.5497499999999995
20
-4.3534999606299207
11
4.5497499999999995
21
-4.3566250393700789
0
LINE
8
BLACK
6
CONTINUOUS
10
4.5809999999999995
20
-4.3566250393700789
11
4.5778749606299209
21
-4.3566249606299214
0
LINE
8
BLACK
6
CONTINUOUS
10
4.5778749606299209
20
-4.3566249606299214
11
4.5778749212598422
21
-4.3534999606299207
0
LINE
8
BLACK
6
CONTINUOUS
10
4.5778749212598422
20
-4.3534999606299207
11
4.5809999999999995
21
-4.3534999606299207
0
LINE
8
BLACK
6
CONTINUOUS
10
4.5809999999999995
20
-4.3534999606299207
11
4.5809999999999995
21
-4.3566250393700789
0
LINE
8
BLACK
6
CONTINUOUS
10
4.5216250000000002
20
-4.3534999999999995
11
4.5216250000000002
21
-4.3566249606299214
0
LINE
8
BLACK
6
CONTINUOUS
10
4.5216250000000002
20
-4.3566249606299214
11
4.5153749606299209
21
-4.3566249606299214
0
LINE
8
BLACK
6
CONTINUOUS
10
4.5153749606299209
20
-4.3566249606299214
11
4.5153749606299209
21
-4.3534999606299207
0
LINE
8
BLACK
6
CONTINUOUS
10
4.5153749606299209
20
-4.3534999606299207
11
4.5216250000000002
21
-4.3534999999999995
0
LINE
8
BLACK
6
CONTINUOUS
10
4.6247499606299209
20
-4.3566249606299214
11
4.6216249606299211
21
-4.3566249212598427
0
LINE
8
BLACK
6
CONTINUOUS
10
4.6216249606299211
20
-4.3566249212598427
11
4.6216249606299211
21
-4.3534999606299207
0
LINE
8
BLACK
6
CONTINUOUS
10
4.6216249606299211
20
-4.3534999606299207
11
4.6247499212598422
21
-4.3534999606299207
0
LINE
8
BLACK
6
CONTINUOUS
10
4.6247499212598422
20
-4.3534999606299207
11
4.6247499606299209
21
-4.3566249606299214
0
LINE
8
BLACK
6
CONTINUOUS
10
4.5372500000000002
20
-4.3534999999999995
11
4.5309999606299209
21
-4.3534999606299207
0
LINE
8
BLACK
6
CONTINUOUS
10
4.5309999606299209
20
-4.3534999606299207
11
4.5310000393700784
21
-4.3503749606299209
0
LINE
8
BLACK
6
CONTINUOUS
10
4.5310000393700784
20
-4.3503749606299209
11
4.5372500000000002
21
-4.3503749606299209
0
LINE
8
BLACK
6
CONTINUOUS
10
4.5372500000000002
20
-4.3503749606299209
11
4.5372500000000002
21
-4.3534999999999995
0
LINE
8
BLACK
6
CONTINUOUS
10
4.5528750000000002
20
-4.3503749606299209
11
4.5528750000000002
21
-4.3534999999999995
0
LINE
8
BLACK
6
CONTINUOUS
10
4.5528750000000002
20
-4.3534999999999995
11
4.5497499999999995
21
-4.3534999606299207
0
LINE
8
BLACK
6
CONTINUOUS
10
4.5497499999999995
20
-4.3534999606299207
11
4.5497499606299208
21
-4.3503748818897634
0
LINE
8
BLACK
6
CONTINUOUS
10
4.5497499606299208
20
-4.3503748818897634
11
4.5528750000000002
21
-4.3503749606299209
0
LINE
8
BLACK
6
CONTINUOUS
10
4.5747499606299211
20
-4.3503749999999997
11
4.5747499606299211
21
-4.3534999606299207
0
LINE
8
BLACK
6
CONTINUOUS
10
4.5747499606299211
20
-4.3534999606299207
11
4.5716249606299213
21
-4.3534999999999995
0
LINE
8
BLACK
6
CONTINUOUS
10
4.5716249606299213
20
-4.3534999999999995
11
4.5716249606299213
21
-4.3503749606299209
0
LINE
8
BLACK
6
CONTINUOUS
10
4.5716249606299213
20
-4.3503749606299209
11
4.5747499606299211
21
-4.3503749999999997
0
LINE
8
BLACK
6
CONTINUOUS
10
4.5841250000000002
20
-4.3503749606299209
11
4.5841250000000002
21
-4.3534999999999995
0
LINE
8
BLACK
6
CONTINUOUS
10
4.5841250000000002
20
-4.3534999999999995
11
4.5809999999999995
21
-4.3534999606299207
0
LINE
8
BLACK
6
CONTINUOUS
10
4.5809999999999995
20
-4.3534999606299207
11
4.5809999606299208
21
-4.3503748818897634
0
LINE
8
BLACK
6
CONTINUOUS
10
4.5809999606299208
20
-4.3503748818897634
11
4.5841250000000002
21
-4.3503749606299209
0
LINE
8
BLACK
6
CONTINUOUS
10
4.6216249606299211
20
-4.3503749999999997
11
4.6216249606299211
21
-4.3534999606299207
0
LINE
8
BLACK
6
CONTINUOUS
10
4.6216249606299211
20
-4.3534999606299207
11
4.6184999606299213
21
-4.3534999999999995
0
LINE
8
BLACK
6
CONTINUOUS
10
4.6184999606299213
20
-4.3534999999999995
11
4.6184999606299213
21
-4.3503749606299209
0
LINE
8
BLACK
6
CONTINUOUS
10
4.6184999606299213
20
-4.3503749606299209
11
4.6216249606299211
21
-4.3503749999999997
0
LINE
8
BLACK
6
CONTINUOUS
10
4.6310000000000002
20
-4.3503749606299209
11
4.6310000000000002
21
-4.3534999999999995
0
LINE
8
BLACK
6
CONTINUOUS
10
4.6310000000000002
20
-4.3534999999999995
11
4.6278749999999995
21
-4.3534999606299207
0
LINE
8
BLACK
6
CONTINUOUS
10
4.6278749999999995
20
-4.3534999606299207
11
4.6278749606299208
21
-4.3503748818897634
0
LINE
8
BLACK
6
CONTINUOUS
10
4.6278749606299208
20
-4.3503748818897634
11
4.6310000000000002
21
-4.3503749606299209
0
LINE
8
BLACK
6
CONTINUOUS
10
4.5153749606299209
20
-4.3534999606299207
11
4.5122499606299211
21
-4.3534999606299207
0
LINE
8
BLACK
6
CONTINUOUS
10
4.5122499606299211
20
-4.3534999606299207
11
4.5122499606299211
21
-4.3503749999999997
0
LINE
8
BLACK
6
CONTINUOUS
10
4.5122499606299211
20
-4.3503749999999997
11
4.5153750393700784
21
-4.3503749606299209
0
LINE
8
BLACK
6
CONTINUOUS
10
4.5153750393700784
20
-4.3503749606299209
11
4.5153749606299209
21
-4.3534999606299207
0
LINE
8
BLACK
6
CONTINUOUS
10
4.5122499606299211
20
-4.3503749999999997
11
4.5060000000000002
21
-4.3503749606299209
0
LINE
8
BLACK
6
CONTINUOUS
10
4.5060000000000002
20
-4.3503749606299209
11
4.5060000000000002
21
-4.3472499999999998
0
LINE
8
BLACK
6
CONTINUOUS
10
4.5060000000000002
20
-4.3472499999999998
11
4.5122499606299211
21
-4.3472499212598423
0
LINE
8
BLACK
6
CONTINUOUS
10
4.5122499606299211
20
-4.3472499212598423
11
4.5122499606299211
21
-4.3503749999999997
0
LINE
8
BLACK
6
CONTINUOUS
10
4.5778749606299209
20
-4.3472499999999998
11
4.5778750393700784
21
-4.3503749606299209
0
LINE
8
BLACK
6
CONTINUOUS
10
4.5778750393700784
20
-4.3503749606299209
11
4.5747499606299211
21
-4.3503749999999997
0
LINE
8
BLACK
6
CONTINUOUS
10
4.5747499606299211
20
-4.3503749999999997
11
4.5747499606299211
21
-4.3472499212598423
0
LINE
8
BLACK
6
CONTINUOUS
10
4.5747499606299211
20
-4.3472499212598423
11
4.5778749606299209
21
-4.3472499999999998
0
LINE
8
BLACK
6
CONTINUOUS
10
4.5903749606299211
20
-4.3503749999999997
11
4.5841250000000002
21
-4.3503749606299209
0
LINE
8
BLACK
6
CONTINUOUS
10
4.5841250000000002
20
-4.3503749606299209
11
4.5841250000000002
21
-4.3472499999999998
0
LINE
8
BLACK
6
CONTINUOUS
10
4.5841250000000002
20
-4.3472499999999998
11
4.5903749606299211
21
-4.3472499212598423
0
LINE
8
BLACK
6
CONTINUOUS
10
4.5903749606299211
20
-4.3472499212598423
11
4.5903749606299211
21
-4.3503749999999997
0
LINE
8
BLACK
6
CONTINUOUS
10
4.5310000393700784
20
-4.3503749606299209
11
4.52475
21
-4.3503749606299209
0
LINE
8
BLACK
6
CONTINUOUS
10
4.52475
20
-4.3503749606299209
11
4.52475
21
-4.3472499999999998
0
LINE
8
BLACK
6
CONTINUOUS
10
4.52475
20
-4.3472499999999998
11
4.5309999606299209
21
-4.3472499999999998
0
LINE
8
BLACK
6
CONTINUOUS
10
4.5309999606299209
20
-4.3472499999999998
11
4.5310000393700784
21
-4.3503749606299209
0
LINE
8
BLACK
6
CONTINUOUS
10
4.5559999606299213
20
-4.3503749606299209
11
4.5528750000000002
21
-4.3503749606299209
0
LINE
8
BLACK
6
CONTINUOUS
10
4.5528750000000002
20
-4.3503749606299209
11
4.5528750000000002
21
-4.3472499999999998
0
LINE
8
BLACK
6
CONTINUOUS
10
4.5528750000000002
20
-4.3472499999999998
11
4.5559999606299213
21
-4.3472499999999998
0
LINE
8
BLACK
6
CONTINUOUS
10
4.5559999606299213
20
-4.3472499999999998
11
4.5559999606299213
21
-4.3503749606299209
0
LINE
8
BLACK
6
CONTINUOUS
10
4.6184999606299213
20
-4.3503749606299209
11
4.6122499606299208
21
-4.3503748818897634
0
LINE
8
BLACK
6
CONTINUOUS
10
4.6122499606299208
20
-4.3503748818897634
11
4.6122499999999995
21
-4.3472499999999998
0
LINE
8
BLACK
6
CONTINUOUS
10
4.6122499999999995
20
-4.3472499999999998
11
4.6184999606299213
21
-4.3472499999999998
0
LINE
8
BLACK
6
CONTINUOUS
10
4.6184999606299213
20
-4.3472499999999998
11
4.6184999606299213
21
-4.3503749606299209
0
LINE
8
BLACK
6
CONTINUOUS
10
4.6278749606299208
20
-4.3503748818897634
11
4.6247500393700784
21
-4.3503749606299209
0
LINE
8
BLACK
6
CONTINUOUS
10
4.6247500393700784
20
-4.3503749606299209
11
4.6247499606299209
21
-4.3472499999999998
0
LINE
8
BLACK
6
CONTINUOUS
10
4.6247499606299209
20
-4.3472499999999998
11
4.6278749999999995
21
-4.3472499999999998
0
LINE
8
BLACK
6
CONTINUOUS
10
4.6278749999999995
20
-4.3472499999999998
11
4.6278749606299208
21
-4.3503748818897634
0
LINE
8
BLACK
6
CONTINUOUS
10
4.5060000000000002
20
-4.3472499999999998
11
4.5028750393700783
21
-4.3472499999999998
0
LINE
8
BLACK
6
CONTINUOUS
10
4.5028750393700783
20
-4.3472499999999998
11
4.5028749999999995
21
-4.344125
0
LINE
8
BLACK
6
CONTINUOUS
10
4.5028749999999995
20
-4.344125
11
4.5060000000000002
21
-4.344125
0
LINE
8
BLACK
6
CONTINUOUS
10
4.5060000000000002
20
-4.344125
11
4.5060000000000002
21
-4.3472499999999998
0
LINE
8
BLACK
6
CONTINUOUS
10
4.52475
20
-4.3472499999999998
11
4.5216250000000002
21
-4.3472499999999998
0
LINE
8
BLACK
6
CONTINUOUS
10
4.5216250000000002
20
-4.3472499999999998
11
4.5216250000000002
21
-4.344125
0
LINE
8
BLACK
6
CONTINUOUS
10
4.5216250000000002
20
-4.344125
11
4.52475
21
-4.3441249606299213
0
LINE
8
BLACK
6
CONTINUOUS
10
4.52475
20
-4.3441249606299213
11
4.52475
21
-4.3472499999999998
0
LINE
8
BLACK
6
CONTINUOUS
10
4.5591249606299211
20
-4.3472499212598423
11
4.5559999606299213
21
-4.3472499999999998
0
LINE
8
BLACK
6
CONTINUOUS
10
4.5559999606299213
20
-4.3472499999999998
11
4.5559999606299213
21
-4.3378749999999995
0
LINE
8
BLACK
6
CONTINUOUS
10
4.5559999606299213
20
-4.3378749999999995
11
4.5591249606299211
21
-4.3378749606299207
0
LINE
8
BLACK
6
CONTINUOUS
10
4.5591249606299211
20
-4.3378749606299207
11
4.5591249606299211
21
-4.3472499212598423
0
LINE
8
BLACK
6
CONTINUOUS
10
4.5872499606299213
20
-4.3378749999999995
11
4.6153750000000002
21
-4.3378749999999995
0
LINE
8
BLACK
6
CONTINUOUS
10
4.6153750000000002
20
-4.3378749999999995
11
4.6153750000000002
21
-4.3409999606299214
0
LINE
8
BLACK
6
CONTINUOUS
10
4.6153750000000002
20
-4.3409999606299214
11
4.5872499606299213
21
-4.3410000000000002
0
LINE
8
BLACK
6
CONTINUOUS
10
4.5872499606299213
20
-4.3410000000000002
11
4.5872499606299213
21
-4.3441249212598425
0
LINE
8
BLACK
6
CONTINUOUS
10
4.5872499606299213
20
-4.3441249212598425
11
4.5809999999999995
21
-4.344125
0
LINE
8
BLACK
6
CONTINUOUS
10
4.5809999999999995
20
-4.344125
11
4.5809999999999995
21
-4.3472499999999998
0
LINE
8
BLACK
6
CONTINUOUS
10
4.5809999999999995
20
-4.3472499999999998
11
4.5778749606299209
21
-4.3472499999999998
0
LINE
8
BLACK
6
CONTINUOUS
10
4.5778749606299209
20
-4.3472499999999998
11
4.5778749606299209
21
-4.3441249212598425
0
LINE
8
BLACK
6
CONTINUOUS
10
4.5778749606299209
20
-4.3441249212598425
11
4.5747499606299211
21
-4.344125
0
LINE
8
BLACK
6
CONTINUOUS
10
4.5747499606299211
20
-4.344125
11
4.5747499606299211
21
-4.3378749606299207
0
LINE
8
BLACK
6
CONTINUOUS
10
4.5747499606299211
20
-4.3378749606299207
11
4.5778749212598422
21
-4.3378749606299207
0
LINE
8
BLACK
6
CONTINUOUS
10
4.5778749212598422
20
-4.3378749606299207
11
4.5778749606299209
21
-4.3409999606299214
0
LINE
8
BLACK
6
CONTINUOUS
10
4.5778749606299209
20
-4.3409999606299214
11
4.5809999999999995
21
-4.3410000393700789
0
LINE
8
BLACK
6
CONTINUOUS
10
4.5809999999999995
20
-4.3410000393700789
11
4.5809999999999995
21
-4.3378749606299207
0
LINE
8
BLACK
6
CONTINUOUS
10
4.5809999999999995
20
-4.3378749606299207
11
4.5841250000000002
21
-4.3378749999999995
0
LINE
8
BLACK
6
CONTINUOUS
10
4.5841250000000002
20
-4.3378749999999995
11
4.5841250000000002
21
-4.3347499606299209
0
LINE
8
BLACK
6
CONTINUOUS
10
4.5841250000000002
20
-4.3347499606299209
11
4.5872499606299213
21
-4.3347499606299209
0
LINE
8
BLACK
6
CONTINUOUS
10
4.5872499606299213
20
-4.3347499606299209
11
4.5872499606299213
21
-4.3378749999999995
0
LINE
8
BLACK
6
CONTINUOUS
10
4.6122499999999995
20
-4.3472499999999998
11
4.5903749606299211
21
-4.3472499212598423
0
LINE
8
BLACK
6
CONTINUOUS
10
4.5903749606299211
20
-4.3472499212598423
11
4.5903749606299211
21
-4.344125
0
LINE
8
BLACK
6
CONTINUOUS
10
4.5903749606299211
20
-4.344125
11
4.6122499999999995
21
-4.344125
0
LINE
8
BLACK
6
CONTINUOUS
10
4.6122499999999995
20
-4.344125
11
4.6122499999999995
21
-4.3472499999999998
0
LINE
8
BLACK
6
CONTINUOUS
10
4.6247499606299209
20
-4.3472499999999998
11
4.6216249606299211
21
-4.3472499212598423
0
LINE
8
BLACK
6
CONTINUOUS
10
4.6216249606299211
20
-4.3472499212598423
11
4.6216249606299211
21
-4.344125
0
LINE
8
BLACK
6
CONTINUOUS
10
4.6216249606299211
20
-4.344125
11
4.6247499606299209
21
-4.3441249212598425
0
LINE
8
BLACK
6
CONTINUOUS
10
4.6247499606299209
20
-4.3441249212598425
11
4.6247499606299209
21
-4.3472499999999998
0
LINE
8
BLACK
6
CONTINUOUS
10
4.5216250000000002
20
-4.344125
11
4.5153749606299209
21
-4.3441249212598425
0
LINE
8
BLACK
6
CONTINUOUS
10
4.5153749606299209
20
-4.3441249212598425
11
4.5153749606299209
21
-4.3409999606299214
0
LINE
8
BLACK
6
CONTINUOUS
10
4.5153749606299209
20
-4.3409999606299214
11
4.5216250000000002
21
-4.3409999606299214
0
LINE
8
BLACK
6
CONTINUOUS
10
4.5216250000000002
20
-4.3409999606299214
11
4.5216250000000002
21
-4.344125
0
LINE
8
BLACK
6
CONTINUOUS
10
4.5372500000000002
20
-4.344125
11
4.5341249999999995
21
-4.344125
0
LINE
8
BLACK
6
CONTINUOUS
10
4.5341249999999995
20
-4.344125
11
4.5341249999999995
21
-4.3410000393700789
0
LINE
8
BLACK
6
CONTINUOUS
10
4.5341249999999995
20
-4.3410000393700789
11
4.5372500000000002
21
-4.3409999606299214
0
LINE
8
BLACK
6
CONTINUOUS
10
4.5372500000000002
20
-4.3409999606299214
11
4.5372500000000002
21
-4.344125
0
LINE
8
BLACK
6
CONTINUOUS
10
4.6216249606299211
20
-4.344125
11
4.6153750000000002
21
-4.344125
0
LINE
8
BLACK
6
CONTINUOUS
10
4.6153750000000002
20
-4.344125
11
4.6153750000000002
21
-4.3409999606299214
0
LINE
8
BLACK
6
CONTINUOUS
10
4.6153750000000002
20
-4.3409999606299214
11
4.6216249606299211
21
-4.3409999212598427
0
LINE
8
BLACK
6
CONTINUOUS
10
4.6216249606299211
20
-4.3409999212598427
11
4.6216249606299211
21
-4.344125
0
LINE
8
BLACK
6
CONTINUOUS
10
4.5403749606299213
20
-4.3410000000000002
11
4.5372500000000002
21
-4.3409999606299214
0
LINE
8
BLACK
6
CONTINUOUS
10
4.5372500000000002
20
-4.3409999606299214
11
4.5372500000000002
21
-4.3378749999999995
0
LINE
8
BLACK
6
CONTINUOUS
10
4.5372500000000002
20
-4.3378749999999995
11
4.5403749606299213
21
-4.3378749999999995
0
LINE
8
BLACK
6
CONTINUOUS
10
4.5403749606299213
20
-4.3378749999999995
11
4.5403749606299213
21
-4.3410000000000002
0
LINE
8
BLACK
6
CONTINUOUS
10
4.5153749606299209
20
-4.3409999606299214
11
4.5122499606299211
21
-4.3409999212598427
0
LINE
8
BLACK
6
CONTINUOUS
10
4.5122499606299211
20
-4.3409999212598427
11
4.5122499606299211
21
-4.3378749606299207
0
LINE
8
BLACK
6
CONTINUOUS
10
4.5122499606299211
20
-4.3378749606299207
11
4.5153749606299209
21
-4.3378749606299207
0
LINE
8
BLACK
6
CONTINUOUS
10
4.5153749606299209
20
-4.3378749606299207
11
4.5153749606299209
21
-4.3409999606299214
0
LINE
8
BLACK
6
CONTINUOUS
10
4.5434999606299211
20
-4.3347499999999997
11
4.5434999606299211
21
-4.3378749606299207
0
LINE
8
BLACK
6
CONTINUOUS
10
4.5434999606299211
20
-4.3378749606299207
11
4.5403749606299213
21
-4.3378749999999995
0
LINE
8
BLACK
6
CONTINUOUS
10
4.5403749606299213
20
-4.3378749999999995
11
4.5403749606299213
21
-4.3347499606299209
0
LINE
8
BLACK
6
CONTINUOUS
10
4.5403749606299213
20
-4.3347499606299209
11
4.5434999606299211
21
-4.3347499999999997
0
LINE
8
BLACK
6
CONTINUOUS
10
4.5559999606299213
20
-4.3378749999999995
11
4.5528750000000002
21
-4.3378749999999995
0
LINE
8
BLACK
6
CONTINUOUS
10
4.5528750000000002
20
-4.3378749999999995
11
4.5528750000000002
21
-4.3316249999999998
0
LINE
8
BLACK
6
CONTINUOUS
10
4.5528750000000002
20
-4.3316249999999998
11
4.5559999606299213
21
-4.3316249999999998
0
LINE
8
BLACK
6
CONTINUOUS
10
4.5559999606299213
20
-4.3316249999999998
11
4.5559999606299213
21
-4.3378749999999995
0
LINE
8
BLACK
6
CONTINUOUS
10
4.5716249606299213
20
-4.3253750000000002
11
4.5716249606299213
21
-4.3284999212598425
0
LINE
8
BLACK
6
CONTINUOUS
10
4.5716249606299213
20
-4.3284999212598425
11
4.5747499606299211
21
-4.3285
0
LINE
8
BLACK
6
CONTINUOUS
10
4.5747499606299211
20
-4.3285
11
4.5747499606299211
21
-4.3316249212598423
0
LINE
8
BLACK
6
CONTINUOUS
10
4.5747499606299211
20
-4.3316249212598423
11
4.5778749606299209
21
-4.3316249999999998
0
LINE
8
BLACK
6
CONTINUOUS
10
4.5778749606299209
20
-4.3316249999999998
11
4.5778750393700784
21
-4.3347499606299209
0
LINE
8
BLACK
6
CONTINUOUS
10
4.5778750393700784
20
-4.3347499606299209
11
4.5747499606299211
21
-4.3347499999999997
0
LINE
8
BLACK
6
CONTINUOUS
10
4.5747499606299211
20
-4.3347499999999997
11
4.5747499606299211
21
-4.3378749606299207
0
LINE
8
BLACK
6
CONTINUOUS
10
4.5747499606299211
20
-4.3378749606299207
11
4.5716249606299213
21
-4.3378749999999995
0
LINE
8
BLACK
6
CONTINUOUS
10
4.5716249606299213
20
-4.3378749999999995
11
4.5716249606299213
21
-4.3316249999999998
0
LINE
8
BLACK
6
CONTINUOUS
10
4.5716249606299213
20
-4.3316249999999998
11
4.5685000000000002
21
-4.3316249999999998
0
LINE
8
BLACK
6
CONTINUOUS
10
4.5685000000000002
20
-4.3316249999999998
11
4.5685000000000002
21
-4.3253749606299214
0
LINE
8
BLACK
6
CONTINUOUS
10
4.5685000000000002
20
-4.3253749606299214
11
4.5716249606299213
21
-4.3253750000000002
0
LINE
8
BLACK
6
CONTINUOUS
10
4.5278749606299211
20
-4.3347499999999997
11
4.5278749606299211
21
-4.3378749606299207
0
LINE
8
BLACK
6
CONTINUOUS
10
4.5278749606299211
20
-4.3378749606299207
11
4.52475
21
-4.3378749606299207
0
LINE
8
BLACK
6
CONTINUOUS
10
4.52475
20
-4.3378749606299207
11
4.52475
21
-4.3347499606299209
0
LINE
8
BLACK
6
CONTINUOUS
10
4.52475
20
-4.3347499606299209
11
4.5278749606299211
21
-4.3347499999999997
0
LINE
8
BLACK
6
CONTINUOUS
10
4.5809999999999995
20
-4.3378749606299207
11
4.5778749212598422
21
-4.3378749606299207
0
LINE
8
BLACK
6
CONTINUOUS
10
4.5778749212598422
20
-4.3378749606299207
11
4.5778750393700784
21
-4.3347499606299209
0
LINE
8
BLACK
6
CONTINUOUS
10
4.5778750393700784
20
-4.3347499606299209
11
4.5809999606299208
21
-4.3347498818897634
0
LINE
8
BLACK
6
CONTINUOUS
10
4.5809999606299208
20
-4.3347498818897634
11
4.5809999999999995
21
-4.3378749606299207
0
LINE
8
BLACK
6
CONTINUOUS
10
4.5309999606299209
20
-4.3316249999999998
11
4.5310000393700784
21
-4.3347499606299209
0
LINE
8
BLACK
6
CONTINUOUS
10
4.5310000393700784
20
-4.3347499606299209
11
4.5278749606299211
21
-4.3347499999999997
0
LINE
8
BLACK
6
CONTINUOUS
10
4.5278749606299211
20
-4.3347499999999997
11
4.5278749606299211
21
-4.3316249212598423
0
LINE
8
BLACK
6
CONTINUOUS
10
4.5278749606299211
20
-4.3316249212598423
11
4.5309999606299209
21
-4.3316249999999998
0
LINE
8
BLACK
6
CONTINUOUS
10
4.5841250000000002
20
-4.3347499606299209
11
4.5809999606299208
21
-4.3347498818897634
0
LINE
8
BLACK
6
CONTINUOUS
10
4.5809999606299208
20
-4.3347498818897634
11
4.5809999999999995
21
-4.3316249999999998
0
LINE
8
BLACK
6
CONTINUOUS
10
4.5809999999999995
20
-4.3316249999999998
11
4.5841250000000002
21
-4.3316249999999998
0
LINE
8
BLACK
6
CONTINUOUS
10
4.5841250000000002
20
-4.3316249999999998
11
4.5841250000000002
21
-4.3347499606299209
0
LINE
8
BLACK
6
CONTINUOUS
10
4.4372499606299209
20
-4.2847499999999998
11
4.4372499606299209
21
-4.2909999606299207
0
LINE
8
BLACK
6
CONTINUOUS
10
4.4372499606299209
20
-4.2909999606299207
11
4.4278750000000002
21
-4.2909999999999995
0
LINE
8
BLACK
6
CONTINUOUS
10
4.4278750000000002
20
-4.2909999999999995
11
4.4278750000000002
21
-4.2941249606299214
0
LINE
8
BLACK
6
CONTINUOUS
10
4.4278750000000002
20
-4.2941249606299214
11
4.4216249606299209
21
-4.2941249606299214
0
LINE
8
BLACK
6
CONTINUOUS
10
4.4216249606299209
20
-4.2941249606299214
11
4.4216249606299209
21
-4.2972499212598425
0
LINE
8
BLACK
6
CONTINUOUS
10
4.4216249606299209
20
-4.2972499212598425
11
4.415375
21
-4.2972499606299213
0
LINE
8
BLACK
6
CONTINUOUS
10
4.415375
20
-4.2972499606299213
11
4.415375
21
-4.3003749999999998
0
LINE
8
BLACK
6
CONTINUOUS
10
4.415375
20
-4.3003749999999998
11
4.4122500000000002
21
-4.3003749999999998
0
LINE
8
BLACK
6
CONTINUOUS
10
4.4122500000000002
20
-4.3003749999999998
11
4.4122500000000002
21
-4.3034999606299209
0
LINE
8
BLACK
6
CONTINUOUS
10
4.4122500000000002
20
-4.3034999606299209
11
4.4091250393700783
21
-4.3034999606299209
0
LINE
8
BLACK
6
CONTINUOUS
10
4.4091250393700783
20
-4.3034999606299209
11
4.4091250393700783
21
-4.3066249606299207
0
LINE
8
BLACK
6
CONTINUOUS
10
4.4091250393700783
20
-4.3066249606299207
11
4.4060000393700784
21
-4.3066249606299207
0
LINE
8
BLACK
6
CONTINUOUS
10
4.4060000393700784
20
-4.3066249606299207
11
4.4060000393700784
21
-4.3097499212598427
0
LINE
8
BLACK
6
CONTINUOUS
10
4.4060000393700784
20
-4.3097499212598427
11
4.4028749606299211
21
-4.3097499212598427
0
LINE
8
BLACK
6
CONTINUOUS
10
4.4028749606299211
20
-4.3097499212598427
11
4.4028749606299211
21
-4.3159999212598423
0
LINE
8
BLACK
6
CONTINUOUS
10
4.4028749606299211
20
-4.3159999212598423
11
4.39975
21
-4.3159999999999998
0
LINE
8
BLACK
6
CONTINUOUS
10
4.39975
20
-4.3159999999999998
11
4.39975
21
-4.3222499606299207
0
LINE
8
BLACK
6
CONTINUOUS
10
4.39975
20
-4.3222499606299207
11
4.3966250000000002
21
-4.3222499999999995
0
LINE
8
BLACK
6
CONTINUOUS
10
4.3966250000000002
20
-4.3222499999999995
11
4.3966250000000002
21
-4.3316249999999998
0
LINE
8
BLACK
6
CONTINUOUS
10
4.3966250000000002
20
-4.3316249999999998
11
4.3903749606299209
21
-4.3316249999999998
0
LINE
8
BLACK
6
CONTINUOUS
10
4.3903749606299209
20
-4.3316249999999998
11
4.3903749606299209
21
-4.3191249212598422
0
LINE
8
BLACK
6
CONTINUOUS
10
4.3903749606299209
20
-4.3191249212598422
11
4.3934999606299208
21
-4.3191248818897634
0
LINE
8
BLACK
6
CONTINUOUS
10
4.3934999606299208
20
-4.3191248818897634
11
4.3934999999999995
21
-4.312875
0
LINE
8
BLACK
6
CONTINUOUS
10
4.3934999999999995
20
-4.312875
11
4.3966249606299215
21
-4.3128749212598425
0
LINE
8
BLACK
6
CONTINUOUS
10
4.3966249606299215
20
-4.3128749212598425
11
4.3966250000000002
21
-4.3066249999999995
0
LINE
8
BLACK
6
CONTINUOUS
10
4.3966250000000002
20
-4.3066249999999995
11
4.39975
21
-4.3066249606299207
0
LINE
8
BLACK
6
CONTINUOUS
10
4.39975
20
-4.3066249606299207
11
4.39975
21
-4.3034999606299209
0
LINE
8
BLACK
6
CONTINUOUS
10
4.39975
20
-4.3034999606299209
11
4.4028749606299211
21
-4.3034999999999997
0
LINE
8
BLACK
6
CONTINUOUS
10
4.4028749606299211
20
-4.3034999999999997
11
4.4028749606299211
21
-4.3003749212598423
0
LINE
8
BLACK
6
CONTINUOUS
10
4.4028749606299211
20
-4.3003749212598423
11
4.4060000393700784
21
-4.3003749999999998
0
LINE
8
BLACK
6
CONTINUOUS
10
4.4060000393700784
20
-4.3003749999999998
11
4.4060000393700784
21
-4.29725
0
LINE
8
BLACK
6
CONTINUOUS
10
4.4060000393700784
20
-4.29725
11
4.4091250393700783
21
-4.29725
0
LINE
8
BLACK
6
CONTINUOUS
10
4.4091250393700783
20
-4.29725
11
4.4091250393700783
21
-4.2941249606299214
0
LINE
8
BLACK
6
CONTINUOUS
10
4.4091250393700783
20
-4.2941249606299214
11
4.4122500000000002
21
-4.2941249606299214
0
LINE
8
BLACK
6
CONTINUOUS
10
4.4122500000000002
20
-4.2941249606299214
11
4.4122500000000002
21
-4.2909999999999995
0
LINE
8
BLACK
6
CONTINUOUS
10
4.4122500000000002
20
-4.2909999999999995
11
4.4184999606299211
21
-4.2909999606299207
0
LINE
8
BLACK
6
CONTINUOUS
10
4.4184999606299211
20
-4.2909999606299207
11
4.4184999606299211
21
-4.2878749999999997
0
LINE
8
BLACK
6
CONTINUOUS
10
4.4184999606299211
20
-4.2878749999999997
11
4.4247499606299208
21
-4.2878749999999997
0
LINE
8
BLACK
6
CONTINUOUS
10
4.4247499606299208
20
-4.2878749999999997
11
4.4247499606299208
21
-4.2847499212598423
0
LINE
8
BLACK
6
CONTINUOUS
10
4.4247499606299208
20
-4.2847499212598423
11
4.4372499606299209
21
-4.2847499999999998
0
LINE
8
BLACK
6
CONTINUOUS
10
4.4372499606299209
20
-4.3066249606299207
11
4.431
21
-4.3066249606299207
0
LINE
8
BLACK
6
CONTINUOUS
10
4.431
20
-4.3066249606299207
11
4.4309999606299213
21
-4.3097499212598427
0
LINE
8
BLACK
6
CONTINUOUS
10
4.4309999606299213
20
-4.3097499212598427
11
4.4247499999999995
21
-4.3097500393700789
0
LINE
8
BLACK
6
CONTINUOUS
10
4.4247499999999995
20
-4.3097500393700789
11
4.4247499999999995
21
-4.312875
0
LINE
8
BLACK
6
CONTINUOUS
10
4.4247499999999995
20
-4.312875
11
4.4216249606299209
21
-4.3128749212598425
0
LINE
8
BLACK
6
CONTINUOUS
10
4.4216249606299209
20
-4.3128749212598425
11
4.4216249606299209
21
-4.3159999999999998
0
LINE
8
BLACK
6
CONTINUOUS
10
4.4216249606299209
20
-4.3159999999999998
11
4.4184999606299211
21
-4.3159999212598423
0
LINE
8
BLACK
6
CONTINUOUS
10
4.4184999606299211
20
-4.3159999212598423
11
4.4184999606299211
21
-4.3191249999999997
0
LINE
8
BLACK
6
CONTINUOUS
10
4.4184999606299211
20
-4.3191249999999997
11
4.415375
21
-4.3191249606299209
0
LINE
8
BLACK
6
CONTINUOUS
10
4.415375
20
-4.3191249606299209
11
4.4153749606299213
21
-4.3253749212598427
0
LINE
8
BLACK
6
CONTINUOUS
10
4.4153749606299213
20
-4.3253749212598427
11
4.4122500000000002
21
-4.3253749606299214
0
LINE
8
BLACK
6
CONTINUOUS
10
4.4122500000000002
20
-4.3253749606299214
11
4.4122500000000002
21
-4.3316249999999998
0
LINE
8
BLACK
6
CONTINUOUS
10
4.4122500000000002
20
-4.3316249999999998
11
4.4060000393700784
21
-4.3316249999999998
0
LINE
8
BLACK
6
CONTINUOUS
10
4.4060000393700784
20
-4.3316249999999998
11
4.4060000393700784
21
-4.3222499606299207
0
LINE
8
BLACK
6
CONTINUOUS
10
4.4060000393700784
20
-4.3222499606299207
11
4.4091250393700783
21
-4.3222499606299207
0
LINE
8
BLACK
6
CONTINUOUS
10
4.4091250393700783
20
-4.3222499606299207
11
4.4091250393700783
21
-4.3159999999999998
0
LINE
8
BLACK
6
CONTINUOUS
10
4.4091250393700783
20
-4.3159999999999998
11
4.4122500000000002
21
-4.3159999999999998
0
LINE
8
BLACK
6
CONTINUOUS
10
4.4122500000000002
20
-4.3159999999999998
11
4.4122500000000002
21
-4.3128749212598425
0
LINE
8
BLACK
6
CONTINUOUS
10
4.4122500000000002
20
-4.3128749212598425
11
4.415375
21
-4.3128749606299213
0
LINE
8
BLACK
6
CONTINUOUS
10
4.415375
20
-4.3128749606299213
11
4.4153749606299213
21
-4.3097499212598427
0
LINE
8
BLACK
6
CONTINUOUS
10
4.4153749606299213
20
-4.3097499212598427
11
4.4184999606299211
21
-4.3097499212598427
0
LINE
8
BLACK
6
CONTINUOUS
10
4.4184999606299211
20
-4.3097499212598427
11
4.4184999606299211
21
-4.3066249606299207
0
LINE
8
BLACK
6
CONTINUOUS
10
4.4184999606299211
20
-4.3066249606299207
11
4.4216249606299209
21
-4.3066249606299207
0
LINE
8
BLACK
6
CONTINUOUS
10
4.4216249606299209
20
-4.3066249606299207
11
4.4216249606299209
21
-4.3034999212598422
0
LINE
8
BLACK
6
CONTINUOUS
10
4.4216249606299209
20
-4.3034999212598422
11
4.4278750000000002
21
-4.3034999606299209
0
LINE
8
BLACK
6
CONTINUOUS
10
4.4278750000000002
20
-4.3034999606299209
11
4.4278750000000002
21
-4.3003749999999998
0
LINE
8
BLACK
6
CONTINUOUS
10
4.4278750000000002
20
-4.3003749999999998
11
4.4372499606299209
21
-4.3003749999999998
0
LINE
8
BLACK
6
CONTINUOUS
10
4.4372499606299209
20
-4.3003749999999998
11
4.4372499606299209
21
-4.3066249606299207
0
LINE
8
BLACK
6
CONTINUOUS
10
4.4372499606299209
20
-4.3222499606299207
11
4.431
21
-4.3222499606299207
0
LINE
8
BLACK
6
CONTINUOUS
10
4.431
20
-4.3222499606299207
11
4.4309999606299213
21
-4.3253749212598427
0
LINE
8
BLACK
6
CONTINUOUS
10
4.4309999606299213
20
-4.3253749212598427
11
4.4278750000000002
21
-4.3253749606299214
0
LINE
8
BLACK
6
CONTINUOUS
10
4.4278750000000002
20
-4.3253749606299214
11
4.4278750000000002
21
-4.3316249999999998
0
LINE
8
BLACK
6
CONTINUOUS
10
4.4278750000000002
20
-4.3316249999999998
11
4.4216249606299209
21
-4.3316249999999998
0
LINE
8
BLACK
6
CONTINUOUS
10
4.4216249606299209
20
-4.3316249999999998
11
4.4216249606299209
21
-4.3222499606299207
0
LINE
8
BLACK
6
CONTINUOUS
10
4.4216249606299209
20
-4.3222499606299207
11
4.4247500393700783
21
-4.3222499606299207
0
LINE
8
BLACK
6
CONTINUOUS
10
4.4247500393700783
20
-4.3222499606299207
11
4.4247499606299208
21
-4.3191248818897634
0
LINE
8
BLACK
6
CONTINUOUS
10
4.4247499606299208
20
-4.3191248818897634
11
4.4278750000000002
21
-4.3191249606299209
0
LINE
8
BLACK
6
CONTINUOUS
10
4.4278750000000002
20
-4.3191249606299209
11
4.4278750000000002
21
-4.3159999999999998
0
LINE
8
BLACK
6
CONTINUOUS
10
4.4278750000000002
20
-4.3159999999999998
11
4.4372499606299209
21
-4.3159999999999998
0
LINE
8
BLACK
6
CONTINUOUS
10
4.4372499606299209
20
-4.3159999999999998
11
4.4372499606299209
21
-4.3222499606299207
0
LINE
8
BLACK
6
CONTINUOUS
10
4.5184999999999995
20
-4.3285
11
4.5184999999999995
21
-4.3316249999999998
0
LINE
8
BLACK
6
CONTINUOUS
10
4.5184999999999995
20
-4.3316249999999998
11
4.5153749606299209
21
-4.3316249999999998
0
LINE
8
BLACK
6
CONTINUOUS
10
4.5153749606299209
20
-4.3316249999999998
11
4.5153749606299209
21
-4.3284999212598425
0
LINE
8
BLACK
6
CONTINUOUS
10
4.5153749606299209
20
-4.3284999212598425
11
4.5184999999999995
21
-4.3285
0
LINE
8
BLACK
6
CONTINUOUS
10
4.5341249999999995
20
-4.3285
11
4.5341249999999995
21
-4.3316249999999998
0
LINE
8
BLACK
6
CONTINUOUS
10
4.5341249999999995
20
-4.3316249999999998
11
4.5309999606299209
21
-4.3316249999999998
0
LINE
8
BLACK
6
CONTINUOUS
10
4.5309999606299209
20
-4.3316249999999998
11
4.5309999606299209
21
-4.3284999212598425
0
LINE
8
BLACK
6
CONTINUOUS
10
4.5309999606299209
20
-4.3284999212598425
11
4.5341249999999995
21
-4.3285
0
LINE
8
BLACK
6
CONTINUOUS
10
4.5528750000000002
20
-4.3316249999999998
11
4.5497499999999995
21
-4.3316249999999998
0
LINE
8
BLACK
6
CONTINUOUS
10
4.5497499999999995
20
-4.3316249999999998
11
4.5497499999999995
21
-4.3285
0
LINE
8
BLACK
6
CONTINUOUS
10
4.5497499999999995
20
-4.3285
11
4.5528750000000002
21
-4.3285
0
LINE
8
BLACK
6
CONTINUOUS
10
4.5528750000000002
20
-4.3285
11
4.5528750000000002
21
-4.3316249999999998
0
LINE
8
BLACK
6
CONTINUOUS
10
4.5809999999999995
20
-4.3285
11
4.5809999999999995
21
-4.3316249999999998
0
LINE
8
BLACK
6
CONTINUOUS
10
4.5809999999999995
20
-4.3316249999999998
11
4.5778749606299209
21
-4.3316249999999998
0
LINE
8
BLACK
6
CONTINUOUS
10
4.5778749606299209
20
-4.3316249999999998
11
4.5778749606299209
21
-4.3284999212598425
0
LINE
8
BLACK
6
CONTINUOUS
10
4.5778749606299209
20
-4.3284999212598425
11
4.5809999999999995
21
-4.3285
0
LINE
8
BLACK
6
CONTINUOUS
10
4.5216250000000002
20
-4.3285
11
4.5184999999999995
21
-4.3285
0
LINE
8
BLACK
6
CONTINUOUS
10
4.5184999999999995
20
-4.3285
11
4.5184999999999995
21
-4.3253750393700789
0
LINE
8
BLACK
6
CONTINUOUS
10
4.5184999999999995
20
-4.3253750393700789
11
4.5216250000000002
21
-4.3253749606299214
0
LINE
8
BLACK
6
CONTINUOUS
10
4.5216250000000002
20
-4.3253749606299214
11
4.5216250000000002
21
-4.3285
0
LINE
8
BLACK
6
CONTINUOUS
10
4.5372500000000002
20
-4.3285
11
4.5341249999999995
21
-4.3285
0
LINE
8
BLACK
6
CONTINUOUS
10
4.5341249999999995
20
-4.3285
11
4.5341249999999995
21
-4.3253750393700789
0
LINE
8
BLACK
6
CONTINUOUS
10
4.5341249999999995
20
-4.3253750393700789
11
4.5372500000000002
21
-4.3253749606299214
0
LINE
8
BLACK
6
CONTINUOUS
10
4.5372500000000002
20
-4.3253749606299214
11
4.5372500000000002
21
-4.3285
0
LINE
8
BLACK
6
CONTINUOUS
10
4.5497499999999995
20
-4.3253750393700789
11
4.5497499999999995
21
-4.3285
0
LINE
8
BLACK
6
CONTINUOUS
10
4.5497499999999995
20
-4.3285
11
4.5466249606299209
21
-4.3284999212598425
0
LINE
8
BLACK
6
CONTINUOUS
10
4.5466249606299209
20
-4.3284999212598425
11
4.5466249606299209
21
-4.3253749606299214
0
LINE
8
BLACK
6
CONTINUOUS
10
4.5466249606299209
20
-4.3253749606299214
11
4.5497499999999995
21
-4.3253750393700789
0
LINE
8
BLACK
6
CONTINUOUS
10
4.5778749606299209
20
-4.3253749606299214
11
4.5778749606299209
21
-4.3284999212598425
0
LINE
8
BLACK
6
CONTINUOUS
10
4.5778749606299209
20
-4.3284999212598425
11
4.5747499606299211
21
-4.3285
0
LINE
8
BLACK
6
CONTINUOUS
10
4.5747499606299211
20
-4.3285
11
4.5747499606299211
21
-4.3253749212598427
0
LINE
8
BLACK
6
CONTINUOUS
10
4.5747499606299211
20
-4.3253749212598427
11
4.5778749606299209
21
-4.3253749606299214
0
LINE
8
BLACK
6
CONTINUOUS
10
4.5841250000000002
20
-4.3285
11
4.5809999999999995
21
-4.3285
0
LINE
8
BLACK
6
CONTINUOUS
10
4.5809999999999995
20
-4.3285
11
4.5809999999999995
21
-4.3253750393700789
0
LINE
8
BLACK
6
CONTINUOUS
10
4.5809999999999995
20
-4.3253750393700789
11
4.5841250000000002
21
-4.3253749606299214
0
LINE
8
BLACK
6
CONTINUOUS
10
4.5841250000000002
20
-4.3253749606299214
11
4.5841250000000002
21
-4.3285
0
LINE
8
BLACK
6
CONTINUOUS
10
4.5685000000000002
20
-4.3222499999999995
11
4.5685000000000002
21
-4.3253749606299214
0
LINE
8
BLACK
6
CONTINUOUS
10
4.5685000000000002
20
-4.3253749606299214
11
4.5653749999999995
21
-4.3253750393700789
0
LINE
8
BLACK
6
CONTINUOUS
10
4.5653749999999995
20
-4.3253750393700789
11
4.5653749999999995
21
-4.3222499606299207
0
LINE
8
BLACK
6
CONTINUOUS
10
4.5653749999999995
20
-4.3222499606299207
11
4.5685000000000002
21
-4.3222499999999995
0
LINE
8
BLACK
6
CONTINUOUS
10
4.5809999999999995
20
-4.3253750393700789
11
4.5778749606299209
21
-4.3253749606299214
0
LINE
8
BLACK
6
CONTINUOUS
10
4.5778749606299209
20
-4.3253749606299214
11
4.5778749212598422
21
-4.3222499606299207
0
LINE
8
BLACK
6
CONTINUOUS
10
4.5778749212598422
20
-4.3222499606299207
11
4.5809999999999995
21
-4.3222499606299207
0
LINE
8
BLACK
6
CONTINUOUS
10
4.5809999999999995
20
-4.3222499606299207
11
4.5809999999999995
21
-4.3253750393700789
0
LINE
8
BLACK
6
CONTINUOUS
10
4.52475
20
-4.3253750000000002
11
4.5216250000000002
21
-4.3253749606299214
0
LINE
8
BLACK
6
CONTINUOUS
10
4.5216250000000002
20
-4.3253749606299214
11
4.5216250000000002
21
-4.3222499999999995
0
LINE
8
BLACK
6
CONTINUOUS
10
4.5216250000000002
20
-4.3222499999999995
11
4.52475
21
-4.3222499606299207
0
LINE
8
BLACK
6
CONTINUOUS
10
4.52475
20
-4.3222499606299207
11
4.52475
21
-4.3253750000000002
0
LINE
8
BLACK
6
CONTINUOUS
10
4.5747499606299211
20
-4.3253749212598427
11
4.5716249606299213
21
-4.3253750000000002
0
LINE
8
BLACK
6
CONTINUOUS
10
4.5716249606299213
20
-4.3253750000000002
11
4.5716249606299213
21
-4.3222499999999995
0
LINE
8
BLACK
6
CONTINUOUS
10
4.5716249606299213
20
-4.3222499999999995
11
4.5747499606299211
21
-4.3222499606299207
0
LINE
8
BLACK
6
CONTINUOUS
10
4.5747499606299211
20
-4.3222499606299207
11
4.5747499606299211
21
-4.3253749212598427
0
LINE
8
BLACK
6
CONTINUOUS
10
4.5466249606299209
20
-4.3253749606299214
11
4.5434999606299211
21
-4.3253749212598427
0
LINE
8
BLACK
6
CONTINUOUS
10
4.5434999606299211
20
-4.3253749212598427
11
4.5434999606299211
21
-4.3222499606299207
0
LINE
8
BLACK
6
CONTINUOUS
10
4.5434999606299211
20
-4.3222499606299207
11
4.5466249606299209
21
-4.3222499606299207
0
LINE
8
BLACK
6
CONTINUOUS
10
4.5466249606299209
20
-4.3222499606299207
11
4.5466249606299209
21
-4.3253749606299214
0
LINE
8
BLACK
6
CONTINUOUS
10
4.5434999606299211
20
-4.3191249999999997
11
4.5434999606299211
21
-4.3222499606299207
0
LINE
8
BLACK
6
CONTINUOUS
10
4.5434999606299211
20
-4.3222499606299207
11
4.5403749606299213
21
-4.3222499999999995
0
LINE
8
BLACK
6
CONTINUOUS
10
4.5403749606299213
20
-4.3222499999999995
11
4.5403749606299213
21
-4.3191249606299209
0
LINE
8
BLACK
6
CONTINUOUS
10
4.5403749606299213
20
-4.3191249606299209
11
4.5434999606299211
21
-4.3191249999999997
0
LINE
8
BLACK
6
CONTINUOUS
10
4.5716249606299213
20
-4.3222499999999995
11
4.5685000000000002
21
-4.3222499999999995
0
LINE
8
BLACK
6
CONTINUOUS
10
4.5685000000000002
20
-4.3222499999999995
11
4.5685000000000002
21
-4.3191249606299209
0
LINE
8
BLACK
6
CONTINUOUS
10
4.5685000000000002
20
-4.3191249606299209
11
4.5716249606299213
21
-4.3191249606299209
0
LINE
8
BLACK
6
CONTINUOUS
10
4.5716249606299213
20
-4.3191249606299209
11
4.5716249606299213
21
-4.3222499999999995
0
LINE
8
BLACK
6
CONTINUOUS
10
4.5278749606299211
20
-4.3191249999999997
11
4.5278749606299211
21
-4.3222499606299207
0
LINE
8
BLACK
6
CONTINUOUS
10
4.5278749606299211
20
-4.3222499606299207
11
4.52475
21
-4.3222499606299207
0
LINE
8
BLACK
6
CONTINUOUS
10
4.52475
20
-4.3222499606299207
11
4.52475
21
-4.3191249606299209
0
LINE
8
BLACK
6
CONTINUOUS
10
4.52475
20
-4.3191249606299209
11
4.5278749606299211
21
-4.3191249999999997
0
LINE
8
BLACK
6
CONTINUOUS
10
4.5778749606299209
20
-4.3159999999999998
11
4.5747499606299211
21
-4.3159999212598423
0
LINE
8
BLACK
6
CONTINUOUS
10
4.5747499606299211
20
-4.3159999212598423
11
4.5747499606299211
21
-4.3191249999999997
0
LINE
8
BLACK
6
CONTINUOUS
10
4.5747499606299211
20
-4.3191249999999997
11
4.5716249606299213
21
-4.3191249606299209
0
LINE
8
BLACK
6
CONTINUOUS
10
4.5716249606299213
20
-4.3191249606299209
11
4.5716249606299213
21
-4.3159999999999998
0
LINE
8
BLACK
6
CONTINUOUS
10
4.5716249606299213
20
-4.3159999999999998
11
4.5685000000000002
21
-4.3159999999999998
0
LINE
8
BLACK
6
CONTINUOUS
10
4.5685000000000002
20
-4.3159999999999998
11
4.5685000000000002
21
-4.3191249606299209
0
LINE
8
BLACK
6
CONTINUOUS
10
4.5685000000000002
20
-4.3191249606299209
11
4.5653749606299208
21
-4.3191248818897634
0
LINE
8
BLACK
6
CONTINUOUS
10
4.5653749606299208
20
-4.3191248818897634
11
4.5653749999999995
21
-4.3222499606299207
0
LINE
8
BLACK
6
CONTINUOUS
10
4.5653749999999995
20
-4.3222499606299207
11
4.5622499212598422
21
-4.3222499606299207
0
LINE
8
BLACK
6
CONTINUOUS
10
4.5622499212598422
20
-4.3222499606299207
11
4.5622500393700784
21
-4.3191249606299209
0
LINE
8
BLACK
6
CONTINUOUS
10
4.5622500393700784
20
-4.3191249606299209
11
4.5591249606299211
21
-4.3191249999999997
0
LINE
8
BLACK
6
CONTINUOUS
10
4.5591249606299211
20
-4.3191249999999997
11
4.5591249606299211
21
-4.3159999212598423
0
LINE
8
BLACK
6
CONTINUOUS
10
4.5591249606299211
20
-4.3159999212598423
11
4.5622499606299209
21
-4.3159999999999998
0
LINE
8
BLACK
6
CONTINUOUS
10
4.5622499606299209
20
-4.3159999999999998
11
4.5622499606299209
21
-4.3128749212598425
0
LINE
8
BLACK
6
CONTINUOUS
10
4.5622499606299209
20
-4.3128749212598425
11
4.5653749999999995
21
-4.312875
0
LINE
8
BLACK
6
CONTINUOUS
10
4.5653749999999995
20
-4.312875
11
4.5653749999999995
21
-4.3159999999999998
0
LINE
8
BLACK
6
CONTINUOUS
10
4.5653749999999995
20
-4.3159999999999998
11
4.5685000000000002
21
-4.3159999999999998
0
LINE
8
BLACK
6
CONTINUOUS
10
4.5685000000000002
20
-4.3159999999999998
11
4.5685000000000002
21
-4.312875
0
LINE
8
BLACK
6
CONTINUOUS
10
4.5685000000000002
20
-4.312875
11
4.5778749606299209
21
-4.3128749212598425
0
LINE
8
BLACK
6
CONTINUOUS
10
4.5778749606299209
20
-4.3128749212598425
11
4.5778749606299209
21
-4.3159999999999998
0
LINE
8
BLACK
6
CONTINUOUS
10
4.5778749212598422
20
-4.3222499606299207
11
4.5747499606299211
21
-4.3222499606299207
0
LINE
8
BLACK
6
CONTINUOUS
10
4.5747499606299211
20
-4.3222499606299207
11
4.5747499606299211
21
-4.3191249999999997
0
LINE
8
BLACK
6
CONTINUOUS
10
4.5747499606299211
20
-4.3191249999999997
11
4.5778750393700784
21
-4.3191249606299209
0
LINE
8
BLACK
6
CONTINUOUS
10
4.5778750393700784
20
-4.3191249606299209
11
4.5778749212598422
21
-4.3222499606299207
0
LINE
8
BLACK
6
CONTINUOUS
10
4.5403749606299213
20
-4.3191249606299209
11
4.5372500000000002
21
-4.3191249606299209
0
LINE
8
BLACK
6
CONTINUOUS
10
4.5372500000000002
20
-4.3191249606299209
11
4.5372500000000002
21
-4.3159999999999998
0
LINE
8
BLACK
6
CONTINUOUS
10
4.5372500000000002
20
-4.3159999999999998
11
4.5403749606299213
21
-4.3159999999999998
0
LINE
8
BLACK
6
CONTINUOUS
10
4.5403749606299213
20
-4.3159999999999998
11
4.5403749606299213
21
-4.3191249606299209
0
LINE
8
BLACK
6
CONTINUOUS
10
4.5372500000000002
20
-4.3159999999999998
11
4.5341249999999995
21
-4.3159999999999998
0
LINE
8
BLACK
6
CONTINUOUS
10
4.5341249999999995
20
-4.3159999999999998
11
4.5341249999999995
21
-4.312875
0
LINE
8
BLACK
6
CONTINUOUS
10
4.5341249999999995
20
-4.312875
11
4.5372500000000002
21
-4.312875
0
LINE
8
BLACK
6
CONTINUOUS
10
4.5372500000000002
20
-4.312875
11
4.5372500000000002
21
-4.3159999999999998
0
LINE
8
BLACK
6
CONTINUOUS
10
4.5591249606299211
20
-4.312875
11
4.5591249606299211
21
-4.3159999212598423
0
LINE
8
BLACK
6
CONTINUOUS
10
4.5591249606299211
20
-4.3159999212598423
11
4.5559999606299213
21
-4.3159999999999998
0
LINE
8
BLACK
6
CONTINUOUS
10
4.5559999606299213
20
-4.3159999999999998
11
4.5559999606299213
21
-4.3128749212598425
0
LINE
8
BLACK
6
CONTINUOUS
10
4.5559999606299213
20
-4.3128749212598425
11
4.5591249606299211
21
-4.312875
0
LINE
8
BLACK
6
CONTINUOUS
10
4.5559999606299213
20
-4.3097500000000002
11
4.5559999606299213
21
-4.3128749212598425
0
LINE
8
BLACK
6
CONTINUOUS
10
4.5559999606299213
20
-4.3128749212598425
11
4.5528750000000002
21
-4.312875
0
LINE
8
BLACK
6
CONTINUOUS
10
4.5528750000000002
20
-4.312875
11
4.5528750000000002
21
-4.3097499606299214
0
LINE
8
BLACK
6
CONTINUOUS
10
4.5528750000000002
20
-4.3097499606299214
11
4.5559999606299213
21
-4.3097500000000002
0
LINE
8
BLACK
6
CONTINUOUS
10
4.5622499606299209
20
-4.3097499606299214
11
4.5622499606299209
21
-4.3128749212598425
0
LINE
8
BLACK
6
CONTINUOUS
10
4.5622499606299209
20
-4.3128749212598425
11
4.5591249606299211
21
-4.312875
0
LINE
8
BLACK
6
CONTINUOUS
10
4.5591249606299211
20
-4.312875
11
4.5591249606299211
21
-4.3097499212598427
0
LINE
8
BLACK
6
CONTINUOUS
10
4.5591249606299211
20
-4.3097499212598427
11
4.5622499606299209
21
-4.3097499606299214
0
LINE
8
BLACK
6
CONTINUOUS
10
4.5872499606299213
20
-4.3097500000000002
11
4.5872499606299213
21
-4.3128749212598425
0
LINE
8
BLACK
6
CONTINUOUS
10
4.5872499606299213
20
-4.3128749212598425
11
4.5778749606299209
21
-4.3128749212598425
0
LINE
8
BLACK
6
CONTINUOUS
10
4.5778749606299209
20
-4.3128749212598425
11
4.5778749606299209
21
-4.3097499606299214
0
LINE
8
BLACK
6
CONTINUOUS
10
4.5778749606299209
20
-4.3097499606299214
11
4.5872499606299213
21
-4.3097500000000002
0
LINE
8
BLACK
6
CONTINUOUS
10
4.5528750000000002
20
-4.3066249999999995
11
4.5528750000000002
21
-4.3097499606299214
0
LINE
8
BLACK
6
CONTINUOUS
10
4.5528750000000002
20
-4.3097499606299214
11
4.5497499999999995
21
-4.3097500393700789
0
LINE
8
BLACK
6
CONTINUOUS
10
4.5497499999999995
20
-4.3097500393700789
11
4.5497499999999995
21
-4.3066249606299207
0
LINE
8
BLACK
6
CONTINUOUS
10
4.5497499999999995
20
-4.3066249606299207
11
4.5528750000000002
21
-4.3066249999999995
0
LINE
8
BLACK
6
CONTINUOUS
10
4.5591249606299211
20
-4.3097499212598427
11
4.5559999606299213
21
-4.3097500000000002
0
LINE
8
BLACK
6
CONTINUOUS
10
4.5559999606299213
20
-4.3097500000000002
11
4.5559999606299213
21
-4.3066249999999995
0
LINE
8
BLACK
6
CONTINUOUS
10
4.5559999606299213
20
-4.3066249999999995
11
4.5591249606299211
21
-4.3066249606299207
0
LINE
8
BLACK
6
CONTINUOUS
10
4.5591249606299211
20
-4.3066249606299207
11
4.5591249606299211
21
-4.3097499212598427
0
CIRCLE
8
BLACK
10
4.4424665354330708
20
-4.6279311023622043
40
0.0068897637795276
0
CIRCLE
8
BLACK
10
4.5424665354330704
20
-4.6279311023622043
40
0.0068897637795276
0
CIRCLE
8
BLACK
10
4.6424664960629922
20
-4.6279311023622043
40
0.0068897637795276
0
CIRCLE
8
BLACK
10
4.7424665354330706
20
-4.6279311023622043
40
0.0068897637795276
0
CIRCLE
8
BLACK
10
4.8424665354330712
20
-4.6279311023622043
40
0.0068897637795276
0
CIRCLE
8
BLACK
10
4.9424665354330708
20
-4.6279311023622043
40
0.0068897637795276
0
CIRCLE
8
BLACK
10
5.0424665354330704
20
-4.6279311023622043
40
0.0068897637795276
0
CIRCLE
8
BLACK
10
5.1424665748031497
20
-4.6279311023622043
40
0.0068897637795276
0
CIRCLE
8
BLACK
10
5.8424665354330712
20
-4.6279311023622043
40
0.0068897637795276
0
CIRCLE
8
BLACK
10
5.942466496062992
20
-4.6279311023622043
40
0.0068897637795276
0
CIRCLE
8
BLACK
10
6.0424665748031492
20
-4.6279311023622043
40
0.0068897637795276
0
CIRCLE
8
BLACK
10
6.142466535433071
20
-4.6279311023622043
40
0.0068897637795276
0
CIRCLE
8
BLACK
10
6.2424665354330706
20
-4.6279311023622043
40
0.0068897637795276
0
CIRCLE
8
BLACK
10
6.3424665354330712
20
-4.6279311023622043
40
0.0068897637795276
0
CIRCLE
8
BLACK
10
6.442466496062992
20
-4.6279311023622043
40
0.0068897637795276
0
CIRCLE
8
BLACK
10
6.5424665354330704
20
-4.6279311023622043
40
0.0068897637795276
0
CIRCLE
8
BLACK
10
6.642466535433071
20
-4.6279311023622043
40
0.0068897637795276
0
CIRCLE
8
BLACK
10
6.7424665354330706
20
-4.6279311023622043
40
0.0068897637795276
0
CIRCLE
8
BLACK
10
4.4424665354330708
20
-4.6279311023622043
40
0.0068897637795276
0
CIRCLE
8
BLACK
10
4.5424665354330704
20
-4.6279311023622043
40
0.0068897637795276
0
CIRCLE
8
BLACK
10
4.6424664960629922
20
-4.6279311023622043
40
0.0068897637795276
0
CIRCLE
8
BLACK
10
4.7424665354330706
20
-4.6279311023622043
40
0.0068897637795276
0
CIRCLE
8
BLACK
10
4.8424665354330712
20
-4.6279311023622043
40
0.0068897637795276
0
CIRCLE
8
BLACK
10
4.9424665354330708
20
-4.6279311023622043
40
0.0068897637795276
0
CIRCLE
8
BLACK
10
5.0424665354330704
20
-4.6279311023622043
40
0.0068897637795276
0
CIRCLE
8
BLACK
10
5.1424665748031497
20
-4.6279311023622043
40
0.0068897637795276
0
CIRCLE
8
BLACK
10
5.8424665354330712
20
-4.6279311023622043
40
0.0068897637795276
0
CIRCLE
8
BLACK
10
5.942466496062992
20
-4.6279311023622043
40
0.0068897637795276
0
CIRCLE
8
BLACK
10
6.0424665748031492
20
-4.6279311023622043
40
0.0068897637795276
0
CIRCLE
8
BLACK
10
6.142466535433071
20
-4.6279311023622043
40
0.0068897637795276
0
CIRCLE
8
BLACK
10
6.2424665354330706
20
-4.6279311023622043
40
0.0068897637795276
0
CIRCLE
8
BLACK
10
6.3424665354330712
20
-4.6279311023622043
40
0.0068897637795276
0
CIRCLE
8
BLACK
10
6.442466496062992
20
-4.6279311023622043
40
0.0068897637795276
0
CIRCLE
8
BLACK
10
6.5424665354330704
20
-4.6279311023622043
40
0.0068897637795276
0
CIRCLE
8
BLACK
10
6.642466535433071
20
-4.6279311023622043
40
0.0068897637795276
0
CIRCLE
8
BLACK
10
6.7424665354330706
20
-4.6279311023622043
40
0.0068897637795276
  0
ENDSEC
  0
EOF
