  0
SECTION
  2
HEADER
  9
$ANGBASE
  50
0.0
  9
$ANGDIR
  70
1
  9
$MEASUREMENT
  70
0
  0
ENDSEC
  0
SECTION
  2
TABLES
  0
TABLE
  2
LTYPE
  70
4
  0
LTYPE
  5
40F
  2
CONTINUOUS
  70
0
  3
Solid line
  72
65
  73
0
  40
0.0
  0
LTYPE
  5
410
  2
DASHDOT
 70
0
  3
Dash Dot ____ _ ____ _
 72
65
 73
4
 40
2.0
 49
1.25
 49
-0.25
 49
0.25
 49
-0.25
  0
LTYPE
  5
411
  2
DASHED
 70
0
  3
Dashed __ __ __ __ __
 72
65
 73
2
 40
0.75
 49
0.5
 49
-0.25
  0
LTYPE
  5
43B
  2
DOTTED
 70
0
  3
Dotted .  .  .  .
 72
65
 73
2
 40
0.2
 49
0.0
 49
-0.2
  0
ENDTAB
  0
TABLE
  2
STYLE
  70
4
  0
STYLE
  2
KICAD
  70
0
  40
0
  41
1
  42
1
  50
0
  71
0
  3
isocp.shx
  0
STYLE
  2
KICADB
  70
0
  40
0
  41
1
  42
1
  50
0
  71
0
  3
isocp.shx
  0
STYLE
  2
KICADI
  70
0
  40
0
  41
1
  42
1
  50
15
  71
0
  3
isocp.shx
  0
STYLE
  2
KICADBI
  70
0
  40
0
  41
1
  42
1
  50
15
  71
0
  3
isocp.shx
  0
ENDTAB
  0
TABLE
  2
LAYER
  70
1
  0
LAYER
  2
BLACK
  70
0
  62
7
  6
CONTINUOUS
  0
ENDTAB
  0
ENDSEC
  0
SECTION
  2
ENTITIES
0
LINE
8
BLACK
6
CONTINUOUS
10
6.8078740157480313
20
-4.2214566929133861
11
6.8164185039370073
21
-4.2220677952755903
0
LINE
8
BLACK
6
CONTINUOUS
10
6.8164185039370073
20
-4.2220677952755903
11
6.8247890551181101
21
-4.2238887007874011
0
LINE
8
BLACK
6
CONTINUOUS
10
6.8247890551181101
20
-4.2238887007874011
11
6.8328152755905514
21
-4.2268823228346459
0
LINE
8
BLACK
6
CONTINUOUS
10
6.8328152755905514
20
-4.2268823228346459
11
6.8403337401574804
21
-4.2309877165354326
0
LINE
8
BLACK
6
CONTINUOUS
10
6.8403337401574804
20
-4.2309877165354326
11
6.8471914566929133
21
-4.2361213385826773
0
LINE
8
BLACK
6
CONTINUOUS
10
6.8471914566929133
20
-4.2361213385826773
11
6.85324874015748
21
-4.2421786220472439
0
LINE
8
BLACK
6
CONTINUOUS
10
6.85324874015748
20
-4.2421786220472439
11
6.8583823622047246
21
-4.2490363385826768
0
LINE
8
BLACK
6
CONTINUOUS
10
6.8583823622047246
20
-4.2490363385826768
11
6.8624877559055113
21
-4.2565548031496059
0
LINE
8
BLACK
6
CONTINUOUS
10
6.8624877559055113
20
-4.2565548031496059
11
6.8654813779527561
21
-4.2645810236220472
0
LINE
8
BLACK
6
CONTINUOUS
10
6.8654813779527561
20
-4.2645810236220472
11
6.8673022834645669
21
-4.2729515748031499
0
LINE
8
BLACK
6
CONTINUOUS
10
6.8673022834645669
20
-4.2729515748031499
11
6.8679133858267711
21
-4.2814960629921259
0
LINE
8
BLACK
6
CONTINUOUS
10
6.8679133858267711
20
-4.2814960629921259
11
6.8679133858267711
21
-4.7814960629921259
0
LINE
8
BLACK
6
CONTINUOUS
10
6.8679133858267711
20
-4.7814960629921259
11
6.8673022834645669
21
-4.7900405511811019
0
LINE
8
BLACK
6
CONTINUOUS
10
6.8673022834645669
20
-4.7900405511811019
11
6.8654813779527561
21
-4.7984111023622047
0
LINE
8
BLACK
6
CONTINUOUS
10
6.8654813779527561
20
-4.7984111023622047
11
6.8624877559055113
21
-4.806437322834646
0
LINE
8
BLACK
6
CONTINUOUS
10
6.8624877559055113
20
-4.806437322834646
11
6.8583823622047246
21
-4.813955787401575
0
LINE
8
BLACK
6
CONTINUOUS
10
6.8583823622047246
20
-4.813955787401575
11
6.85324874015748
21
-4.8208135039370079
0
LINE
8
BLACK
6
CONTINUOUS
10
6.85324874015748
20
-4.8208135039370079
11
6.8471914566929133
21
-4.8268707874015746
0
LINE
8
BLACK
6
CONTINUOUS
10
6.8471914566929133
20
-4.8268707874015746
11
6.8403337401574804
21
-4.8320044094488184
0
LINE
8
BLACK
6
CONTINUOUS
10
6.8403337401574804
20
-4.8320044094488184
11
6.8328152755905514
21
-4.8361098031496059
0
LINE
8
BLACK
6
CONTINUOUS
10
6.8328152755905514
20
-4.8361098031496059
11
6.8247890551181101
21
-4.8391034251968499
0
LINE
8
BLACK
6
CONTINUOUS
10
6.8247890551181101
20
-4.8391034251968499
11
6.8164185039370073
21
-4.8409243307086616
0
LINE
8
BLACK
6
CONTINUOUS
10
6.8164185039370073
20
-4.8409243307086616
11
6.8078740157480313
21
-4.8415354330708658
0
LINE
8
BLACK
6
CONTINUOUS
10
6.8078740157480313
20
-4.8415354330708658
11
4.3535433070866141
21
-4.8415354330708658
0
LINE
8
BLACK
6
CONTINUOUS
10
4.3535433070866141
20
-4.8415354330708658
11
4.3449988188976381
21
-4.8409243307086616
0
LINE
8
BLACK
6
CONTINUOUS
10
4.3449988188976381
20
-4.8409243307086616
11
4.3366282677165353
21
-4.8391034251968499
0
LINE
8
BLACK
6
CONTINUOUS
10
4.3366282677165353
20
-4.8391034251968499
11
4.328602047244094
21
-4.8361098031496059
0
LINE
8
BLACK
6
CONTINUOUS
10
4.328602047244094
20
-4.8361098031496059
11
4.321083582677165
21
-4.8320044094488184
0
LINE
8
BLACK
6
CONTINUOUS
10
4.321083582677165
20
-4.8320044094488184
11
4.3142258661417321
21
-4.8268707874015746
0
LINE
8
BLACK
6
CONTINUOUS
10
4.3142258661417321
20
-4.8268707874015746
11
4.3081685826771654
21
-4.8208135039370079
0
LINE
8
BLACK
6
CONTINUOUS
10
4.3081685826771654
20
-4.8208135039370079
11
4.3030349606299207
21
-4.813955787401575
0
LINE
8
BLACK
6
CONTINUOUS
10
4.3030349606299207
20
-4.813955787401575
11
4.2989295669291341
21
-4.806437322834646
0
LINE
8
BLACK
6
CONTINUOUS
10
4.2989295669291341
20
-4.806437322834646
11
4.2959359448818892
21
-4.7984111023622047
0
LINE
8
BLACK
6
CONTINUOUS
10
4.2959359448818892
20
-4.7984111023622047
11
4.2941150393700784
21
-4.7900405511811019
0
LINE
8
BLACK
6
CONTINUOUS
10
4.2941150393700784
20
-4.7900405511811019
11
4.2935039370078742
21
-4.7814960629921259
0
LINE
8
BLACK
6
CONTINUOUS
10
4.2935039370078742
20
-4.7814960629921259
11
4.2935039370078742
21
-4.2814960629921259
0
LINE
8
BLACK
6
CONTINUOUS
10
4.2935039370078742
20
-4.2814960629921259
11
4.2941150393700784
21
-4.2729515748031499
0
LINE
8
BLACK
6
CONTINUOUS
10
4.2941150393700784
20
-4.2729515748031499
11
4.2959359448818892
21
-4.2645810236220472
0
LINE
8
BLACK
6
CONTINUOUS
10
4.2959359448818892
20
-4.2645810236220472
11
4.2989295669291341
21
-4.2565548031496059
0
LINE
8
BLACK
6
CONTINUOUS
10
4.2989295669291341
20
-4.2565548031496059
11
4.3030349606299207
21
-4.2490363385826768
0
LINE
8
BLACK
6
CONTINUOUS
10
4.3030349606299207
20
-4.2490363385826768
11
4.3081685826771654
21
-4.2421786220472439
0
LINE
8
BLACK
6
CONTINUOUS
10
4.3081685826771654
20
-4.2421786220472439
11
4.3142258661417321
21
-4.2361213385826773
0
LINE
8
BLACK
6
CONTINUOUS
10
4.3142258661417321
20
-4.2361213385826773
11
4.321083582677165
21
-4.2309877165354326
0
LINE
8
BLACK
6
CONTINUOUS
10
4.321083582677165
20
-4.2309877165354326
11
4.328602047244094
21
-4.2268823228346459
0
LINE
8
BLACK
6
CONTINUOUS
10
4.328602047244094
20
-4.2268823228346459
11
4.3366282677165353
21
-4.2238887007874011
0
LINE
8
BLACK
6
CONTINUOUS
10
4.3366282677165353
20
-4.2238887007874011
11
4.3449988188976381
21
-4.2220677952755903
0
LINE
8
BLACK
6
CONTINUOUS
10
4.3449988188976381
20
-4.2220677952755903
11
4.3535433070866141
21
-4.2214566929133861
0
LINE
8
BLACK
6
CONTINUOUS
10
4.3535433070866141
20
-4.2214566929133861
11
6.8078740157480313
21
-4.2214566929133861
0
LINE
8
BLACK
6
CONTINUOUS
10
4.3535433070866141
20
-4.2234251968503935
11
4.3493899999999996
21
-4.2234251968503935
0
LINE
8
BLACK
6
CONTINUOUS
10
4.3493899999999996
20
-4.2234251968503935
11
4.341167913385827
21
-4.2246073228346459
0
LINE
8
BLACK
6
CONTINUOUS
10
4.341167913385827
20
-4.2246073228346459
11
4.3331977952755905
21
-4.2269475984251965
0
LINE
8
BLACK
6
CONTINUOUS
10
4.3331977952755905
20
-4.2269475984251965
11
4.3256418110236217
21
-4.2303982677165353
0
LINE
8
BLACK
6
CONTINUOUS
10
4.3256418110236217
20
-4.2303982677165353
11
4.318653818897638
21
-4.2348891732283462
0
LINE
8
BLACK
6
CONTINUOUS
10
4.318653818897638
20
-4.2348891732283462
11
4.3123761023622045
21
-4.2403288582677163
0
LINE
8
BLACK
6
CONTINUOUS
10
4.3123761023622045
20
-4.2403288582677163
11
4.3069364173228344
21
-4.2466065748031498
0
LINE
8
BLACK
6
CONTINUOUS
10
4.3069364173228344
20
-4.2466065748031498
11
4.3024455118110234
21
-4.2535945669291335
0
LINE
8
BLACK
6
CONTINUOUS
10
4.3024455118110234
20
-4.2535945669291335
11
4.2989948425196847
21
-4.2611505511811023
0
LINE
8
BLACK
6
CONTINUOUS
10
4.2989948425196847
20
-4.2611505511811023
11
4.2966545669291341
21
-4.2691206692913388
0
LINE
8
BLACK
6
CONTINUOUS
10
4.2966545669291341
20
-4.2691206692913388
11
4.2954724409448817
21
-4.2773427559055115
0
LINE
8
BLACK
6
CONTINUOUS
10
4.2954724409448817
20
-4.2773427559055115
11
4.2954724409448817
21
-4.2814960629921259
0
LINE
8
BLACK
6
CONTINUOUS
10
4.2954724409448817
20
-4.2814960629921259
11
4.2954724409448817
21
-4.7814960629921259
0
LINE
8
BLACK
6
CONTINUOUS
10
4.2954724409448817
20
-4.7814960629921259
11
4.2954724409448817
21
-4.7856493700787404
0
LINE
8
BLACK
6
CONTINUOUS
10
4.2954724409448817
20
-4.7856493700787404
11
4.2966545669291341
21
-4.793871456692913
0
LINE
8
BLACK
6
CONTINUOUS
10
4.2966545669291341
20
-4.793871456692913
11
4.2989948425196847
21
-4.8018415748031495
0
LINE
8
BLACK
6
CONTINUOUS
10
4.2989948425196847
20
-4.8018415748031495
11
4.3024455118110234
21
-4.8093975590551183
0
LINE
8
BLACK
6
CONTINUOUS
10
4.3024455118110234
20
-4.8093975590551183
11
4.3069364173228344
21
-4.816385551181102
0
LINE
8
BLACK
6
CONTINUOUS
10
4.3069364173228344
20
-4.816385551181102
11
4.3123761023622045
21
-4.8226632677165355
0
LINE
8
BLACK
6
CONTINUOUS
10
4.3123761023622045
20
-4.8226632677165355
11
4.318653818897638
21
-4.8281029527559056
0
LINE
8
BLACK
6
CONTINUOUS
10
4.318653818897638
20
-4.8281029527559056
11
4.3256418110236217
21
-4.8325938582677166
0
LINE
8
BLACK
6
CONTINUOUS
10
4.3256418110236217
20
-4.8325938582677166
11
4.3331977952755905
21
-4.8360445275590553
0
LINE
8
BLACK
6
CONTINUOUS
10
4.3331977952755905
20
-4.8360445275590553
11
4.341167913385827
21
-4.838384803149606
0
LINE
8
BLACK
6
CONTINUOUS
10
4.341167913385827
20
-4.838384803149606
11
4.3493899999999996
21
-4.8395669291338583
0
LINE
8
BLACK
6
CONTINUOUS
10
4.3493899999999996
20
-4.8395669291338583
11
4.3535433070866141
21
-4.8395669291338583
0
LINE
8
BLACK
6
CONTINUOUS
10
4.3535433070866141
20
-4.8395669291338583
11
6.8078740157480313
21
-4.8395669291338583
0
LINE
8
BLACK
6
CONTINUOUS
10
6.8078740157480313
20
-4.8395669291338583
11
6.8120273228346457
21
-4.8395669291338583
0
LINE
8
BLACK
6
CONTINUOUS
10
6.8120273228346457
20
-4.8395669291338583
11
6.8202494094488184
21
-4.838384803149606
0
LINE
8
BLACK
6
CONTINUOUS
10
6.8202494094488184
20
-4.838384803149606
11
6.8282195275590549
21
-4.8360445275590553
0
LINE
8
BLACK
6
CONTINUOUS
10
6.8282195275590549
20
-4.8360445275590553
11
6.8357755118110237
21
-4.8325938582677166
0
LINE
8
BLACK
6
CONTINUOUS
10
6.8357755118110237
20
-4.8325938582677166
11
6.8427635039370074
21
-4.8281029527559056
0
LINE
8
BLACK
6
CONTINUOUS
10
6.8427635039370074
20
-4.8281029527559056
11
6.8490412204724409
21
-4.8226632677165355
0
LINE
8
BLACK
6
CONTINUOUS
10
6.8490412204724409
20
-4.8226632677165355
11
6.854480905511811
21
-4.816385551181102
0
LINE
8
BLACK
6
CONTINUOUS
10
6.854480905511811
20
-4.816385551181102
11
6.858971811023622
21
-4.8093975590551183
0
LINE
8
BLACK
6
CONTINUOUS
10
6.858971811023622
20
-4.8093975590551183
11
6.8624224803149607
21
-4.8018415748031495
0
LINE
8
BLACK
6
CONTINUOUS
10
6.8624224803149607
20
-4.8018415748031495
11
6.8647627559055113
21
-4.793871456692913
0
LINE
8
BLACK
6
CONTINUOUS
10
6.8647627559055113
20
-4.793871456692913
11
6.8659448818897637
21
-4.7856493700787404
0
LINE
8
BLACK
6
CONTINUOUS
10
6.8659448818897637
20
-4.7856493700787404
11
6.8659448818897637
21
-4.7814960629921259
0
LINE
8
BLACK
6
CONTINUOUS
10
6.8659448818897637
20
-4.7814960629921259
11
6.8659448818897637
21
-4.2814960629921259
0
LINE
8
BLACK
6
CONTINUOUS
10
6.8659448818897637
20
-4.2814960629921259
11
6.8659448818897637
21
-4.2773427559055115
0
LINE
8
BLACK
6
CONTINUOUS
10
6.8659448818897637
20
-4.2773427559055115
11
6.8647627559055113
21
-4.2691206692913388
0
LINE
8
BLACK
6
CONTINUOUS
10
6.8647627559055113
20
-4.2691206692913388
11
6.8624224803149607
21
-4.2611505511811023
0
LINE
8
BLACK
6
CONTINUOUS
10
6.8624224803149607
20
-4.2611505511811023
11
6.858971811023622
21
-4.2535945669291335
0
LINE
8
BLACK
6
CONTINUOUS
10
6.858971811023622
20
-4.2535945669291335
11
6.854480905511811
21
-4.2466065748031498
0
LINE
8
BLACK
6
CONTINUOUS
10
6.854480905511811
20
-4.2466065748031498
11
6.8490412204724409
21
-4.2403288582677163
0
LINE
8
BLACK
6
CONTINUOUS
10
6.8490412204724409
20
-4.2403288582677163
11
6.8427635039370074
21
-4.2348891732283462
0
LINE
8
BLACK
6
CONTINUOUS
10
6.8427635039370074
20
-4.2348891732283462
11
6.8357755118110237
21
-4.2303982677165353
0
LINE
8
BLACK
6
CONTINUOUS
10
6.8357755118110237
20
-4.2303982677165353
11
6.8282195275590549
21
-4.2269475984251965
0
LINE
8
BLACK
6
CONTINUOUS
10
6.8282195275590549
20
-4.2269475984251965
11
6.8202494094488184
21
-4.2246073228346459
0
LINE
8
BLACK
6
CONTINUOUS
10
6.8202494094488184
20
-4.2246073228346459
11
6.8120273228346457
21
-4.2234251968503935
0
LINE
8
BLACK
6
CONTINUOUS
10
6.8120273228346457
20
-4.2234251968503935
11
6.8078740157480313
21
-4.2234251968503935
0
LINE
8
BLACK
6
CONTINUOUS
10
6.8078740157480313
20
-4.2234251968503935
11
4.3535433070866141
21
-4.2234251968503935
0
CIRCLE
8
BLACK
10
4.4322834645669289
20
-4.4488188976377954
40
0.0068897637795276
0
CIRCLE
8
BLACK
10
4.5322834645669294
20
-4.4488188976377954
40
0.0068897637795276
0
CIRCLE
8
BLACK
10
4.6322834645669291
20
-4.4488188976377954
40
0.0068897637795276
0
CIRCLE
8
BLACK
10
4.7322834645669287
20
-4.4488188976377954
40
0.0068897637795276
0
CIRCLE
8
BLACK
10
4.8322834645669293
20
-4.4488188976377954
40
0.0068897637795276
0
CIRCLE
8
BLACK
10
4.9322834645669289
20
-4.4488188976377954
40
0.0068897637795276
0
CIRCLE
8
BLACK
10
5.0322834645669294
20
-4.4488188976377954
40
0.0068897637795276
0
CIRCLE
8
BLACK
10
5.1322834645669291
20
-4.4488188976377954
40
0.0068897637795276
0
CIRCLE
8
BLACK
10
5.8322834645669293
20
-4.4488188976377954
40
0.0068897637795276
0
CIRCLE
8
BLACK
10
5.9322834645669289
20
-4.4488188976377954
40
0.0068897637795276
0
CIRCLE
8
BLACK
10
6.0322834645669294
20
-4.4488188976377954
40
0.0068897637795276
0
CIRCLE
8
BLACK
10
6.1322834645669291
20
-4.4488188976377954
40
0.0068897637795276
0
CIRCLE
8
BLACK
10
6.2322834645669287
20
-4.4488188976377954
40
0.0068897637795276
0
CIRCLE
8
BLACK
10
6.3322834645669293
20
-4.4488188976377954
40
0.0068897637795276
0
CIRCLE
8
BLACK
10
6.4322834645669289
20
-4.4488188976377954
40
0.0068897637795276
0
CIRCLE
8
BLACK
10
6.5322834645669285
20
-4.4488188976377954
40
0.0068897637795276
0
CIRCLE
8
BLACK
10
6.6322834645669291
20
-4.4488188976377954
40
0.0068897637795276
0
CIRCLE
8
BLACK
10
6.7322834645669287
20
-4.4488188976377954
40
0.0068897637795276
0
CIRCLE
8
BLACK
10
4.4322834645669289
20
-4.4488188976377954
40
0.0068897637795276
0
CIRCLE
8
BLACK
10
4.5322834645669294
20
-4.4488188976377954
40
0.0068897637795276
0
CIRCLE
8
BLACK
10
4.6322834645669291
20
-4.4488188976377954
40
0.0068897637795276
0
CIRCLE
8
BLACK
10
4.7322834645669287
20
-4.4488188976377954
40
0.0068897637795276
0
CIRCLE
8
BLACK
10
4.8322834645669293
20
-4.4488188976377954
40
0.0068897637795276
0
CIRCLE
8
BLACK
10
4.9322834645669289
20
-4.4488188976377954
40
0.0068897637795276
0
CIRCLE
8
BLACK
10
5.0322834645669294
20
-4.4488188976377954
40
0.0068897637795276
0
CIRCLE
8
BLACK
10
5.1322834645669291
20
-4.4488188976377954
40
0.0068897637795276
0
CIRCLE
8
BLACK
10
5.8322834645669293
20
-4.4488188976377954
40
0.0068897637795276
0
CIRCLE
8
BLACK
10
5.9322834645669289
20
-4.4488188976377954
40
0.0068897637795276
0
CIRCLE
8
BLACK
10
6.0322834645669294
20
-4.4488188976377954
40
0.0068897637795276
0
CIRCLE
8
BLACK
10
6.1322834645669291
20
-4.4488188976377954
40
0.0068897637795276
0
CIRCLE
8
BLACK
10
6.2322834645669287
20
-4.4488188976377954
40
0.0068897637795276
0
CIRCLE
8
BLACK
10
6.3322834645669293
20
-4.4488188976377954
40
0.0068897637795276
0
CIRCLE
8
BLACK
10
6.4322834645669289
20
-4.4488188976377954
40
0.0068897637795276
0
CIRCLE
8
BLACK
10
6.5322834645669285
20
-4.4488188976377954
40
0.0068897637795276
0
CIRCLE
8
BLACK
10
6.6322834645669291
20
-4.4488188976377954
40
0.0068897637795276
0
CIRCLE
8
BLACK
10
6.7322834645669287
20
-4.4488188976377954
40
0.0068897637795276
  0
ENDSEC
  0
EOF
