  0
SECTION
  2
HEADER
  9
$ANGBASE
  50
0.0
  9
$ANGDIR
  70
1
  9
$MEASUREMENT
  70
0
  0
ENDSEC
  0
SECTION
  2
TABLES
  0
TABLE
  2
LTYPE
  70
4
  0
LTYPE
  5
40F
  2
CONTINUOUS
  70
0
  3
Solid line
  72
65
  73
0
  40
0.0
  0
LTYPE
  5
410
  2
DASHDOT
 70
0
  3
Dash Dot ____ _ ____ _
 72
65
 73
4
 40
2.0
 49
1.25
 49
-0.25
 49
0.25
 49
-0.25
  0
LTYPE
  5
411
  2
DASHED
 70
0
  3
Dashed __ __ __ __ __
 72
65
 73
2
 40
0.75
 49
0.5
 49
-0.25
  0
LTYPE
  5
43B
  2
DOTTED
 70
0
  3
Dotted .  .  .  .
 72
65
 73
2
 40
0.2
 49
0.0
 49
-0.2
  0
ENDTAB
  0
TABLE
  2
STYLE
  70
4
  0
STYLE
  2
KICAD
  70
0
  40
0
  41
1
  42
1
  50
0
  71
0
  3
isocp.shx
  0
STYLE
  2
KICADB
  70
0
  40
0
  41
1
  42
1
  50
0
  71
0
  3
isocp.shx
  0
STYLE
  2
KICADI
  70
0
  40
0
  41
1
  42
1
  50
15
  71
0
  3
isocp.shx
  0
STYLE
  2
KICADBI
  70
0
  40
0
  41
1
  42
1
  50
15
  71
0
  3
isocp.shx
  0
ENDTAB
  0
TABLE
  2
LAYER
  70
1
  0
LAYER
  2
BLACK
  70
0
  62
7
  6
CONTINUOUS
  0
ENDTAB
  0
ENDSEC
  0
SECTION
  2
ENTITIES
0
LINE
8
BLACK
6
CONTINUOUS
10
6.129612322834646
20
-4.3998196062992125
11
6.131528188976378
21
-4.4010997637795271
0
LINE
8
BLACK
6
CONTINUOUS
10
6.131528188976378
20
-4.4010997637795271
11
6.1328083464566925
21
-4.4030156299212599
0
LINE
8
BLACK
6
CONTINUOUS
10
6.1328083464566925
20
-4.4030156299212599
11
6.1332578740157482
21
-4.4052755905511809
0
LINE
8
BLACK
6
CONTINUOUS
10
6.1332578740157482
20
-4.4052755905511809
11
6.1332578740157482
21
-4.4603937007874013
0
LINE
8
BLACK
6
CONTINUOUS
10
6.1332578740157482
20
-4.4603937007874013
11
6.1328083464566925
21
-4.4626536614173231
0
LINE
8
BLACK
6
CONTINUOUS
10
6.1328083464566925
20
-4.4626536614173231
11
6.131528188976378
21
-4.4645695275590551
0
LINE
8
BLACK
6
CONTINUOUS
10
6.131528188976378
20
-4.4645695275590551
11
6.129612322834646
21
-4.4658496850393696
0
LINE
8
BLACK
6
CONTINUOUS
10
6.129612322834646
20
-4.4658496850393696
11
6.1273523622047241
21
-4.4662992125984253
0
LINE
8
BLACK
6
CONTINUOUS
10
6.1273523622047241
20
-4.4662992125984253
11
6.1155413385826769
21
-4.4662992125984253
0
LINE
8
BLACK
6
CONTINUOUS
10
6.1155413385826769
20
-4.4662992125984253
11
6.1132813779527559
21
-4.4658496850393696
0
LINE
8
BLACK
6
CONTINUOUS
10
6.1132813779527559
20
-4.4658496850393696
11
6.1113655118110231
21
-4.4645695275590551
0
LINE
8
BLACK
6
CONTINUOUS
10
6.1113655118110231
20
-4.4645695275590551
11
6.1100853543307085
21
-4.4626536614173231
0
LINE
8
BLACK
6
CONTINUOUS
10
6.1100853543307085
20
-4.4626536614173231
11
6.1096358267716537
21
-4.4603937007874013
0
LINE
8
BLACK
6
CONTINUOUS
10
6.1096358267716537
20
-4.4603937007874013
11
6.1096358267716537
21
-4.4052755905511809
0
LINE
8
BLACK
6
CONTINUOUS
10
6.1096358267716537
20
-4.4052755905511809
11
6.1100853543307085
21
-4.4030156299212599
0
LINE
8
BLACK
6
CONTINUOUS
10
6.1100853543307085
20
-4.4030156299212599
11
6.1113655118110231
21
-4.4010997637795271
0
LINE
8
BLACK
6
CONTINUOUS
10
6.1113655118110231
20
-4.4010997637795271
11
6.1132813779527559
21
-4.3998196062992125
0
LINE
8
BLACK
6
CONTINUOUS
10
6.1132813779527559
20
-4.3998196062992125
11
6.1155413385826769
21
-4.3993700787401577
0
LINE
8
BLACK
6
CONTINUOUS
10
6.1155413385826769
20
-4.3993700787401577
11
6.1273523622047241
21
-4.3993700787401577
0
LINE
8
BLACK
6
CONTINUOUS
10
6.1273523622047241
20
-4.3993700787401577
11
6.129612322834646
21
-4.3998196062992125
0
LINE
8
BLACK
6
CONTINUOUS
10
6.1788249212598423
20
-4.3998196062992125
11
6.1807407874015743
21
-4.4010997637795271
0
LINE
8
BLACK
6
CONTINUOUS
10
6.1807407874015743
20
-4.4010997637795271
11
6.1820209448818897
21
-4.4030156299212599
0
LINE
8
BLACK
6
CONTINUOUS
10
6.1820209448818897
20
-4.4030156299212599
11
6.1824704724409445
21
-4.4052755905511809
0
LINE
8
BLACK
6
CONTINUOUS
10
6.1824704724409445
20
-4.4052755905511809
11
6.1824704724409445
21
-4.4603937007874013
0
LINE
8
BLACK
6
CONTINUOUS
10
6.1824704724409445
20
-4.4603937007874013
11
6.1820209448818897
21
-4.4626536614173231
0
LINE
8
BLACK
6
CONTINUOUS
10
6.1820209448818897
20
-4.4626536614173231
11
6.1807407874015743
21
-4.4645695275590551
0
LINE
8
BLACK
6
CONTINUOUS
10
6.1807407874015743
20
-4.4645695275590551
11
6.1788249212598423
21
-4.4658496850393696
0
LINE
8
BLACK
6
CONTINUOUS
10
6.1788249212598423
20
-4.4658496850393696
11
6.1765649606299213
21
-4.4662992125984253
0
LINE
8
BLACK
6
CONTINUOUS
10
6.1765649606299213
20
-4.4662992125984253
11
6.1647539370078741
21
-4.4662992125984253
0
LINE
8
BLACK
6
CONTINUOUS
10
6.1647539370078741
20
-4.4662992125984253
11
6.1624939763779523
21
-4.4658496850393696
0
LINE
8
BLACK
6
CONTINUOUS
10
6.1624939763779523
20
-4.4658496850393696
11
6.1605781102362203
21
-4.4645695275590551
0
LINE
8
BLACK
6
CONTINUOUS
10
6.1605781102362203
20
-4.4645695275590551
11
6.1592979527559057
21
-4.4626536614173231
0
LINE
8
BLACK
6
CONTINUOUS
10
6.1592979527559057
20
-4.4626536614173231
11
6.1588484251968501
21
-4.4603937007874013
0
LINE
8
BLACK
6
CONTINUOUS
10
6.1588484251968501
20
-4.4603937007874013
11
6.1588484251968501
21
-4.4052755905511809
0
LINE
8
BLACK
6
CONTINUOUS
10
6.1588484251968501
20
-4.4052755905511809
11
6.1592979527559057
21
-4.4030156299212599
0
LINE
8
BLACK
6
CONTINUOUS
10
6.1592979527559057
20
-4.4030156299212599
11
6.1605781102362203
21
-4.4010997637795271
0
LINE
8
BLACK
6
CONTINUOUS
10
6.1605781102362203
20
-4.4010997637795271
11
6.1624939763779523
21
-4.3998196062992125
0
LINE
8
BLACK
6
CONTINUOUS
10
6.1624939763779523
20
-4.3998196062992125
11
6.1647539370078741
21
-4.3993700787401577
0
LINE
8
BLACK
6
CONTINUOUS
10
6.1647539370078741
20
-4.3993700787401577
11
6.1765649606299213
21
-4.3993700787401577
0
LINE
8
BLACK
6
CONTINUOUS
10
6.1765649606299213
20
-4.3993700787401577
11
6.1788249212598423
21
-4.3998196062992125
0
LINE
8
BLACK
6
CONTINUOUS
10
6.2280375196850395
20
-4.3998196062992125
11
6.2299533858267715
21
-4.4010997637795271
0
LINE
8
BLACK
6
CONTINUOUS
10
6.2299533858267715
20
-4.4010997637795271
11
6.2312335433070869
21
-4.4030156299212599
0
LINE
8
BLACK
6
CONTINUOUS
10
6.2312335433070869
20
-4.4030156299212599
11
6.2316830708661417
21
-4.4052755905511809
0
LINE
8
BLACK
6
CONTINUOUS
10
6.2316830708661417
20
-4.4052755905511809
11
6.2316830708661417
21
-4.4603937007874013
0
LINE
8
BLACK
6
CONTINUOUS
10
6.2316830708661417
20
-4.4603937007874013
11
6.2312335433070869
21
-4.4626536614173231
0
LINE
8
BLACK
6
CONTINUOUS
10
6.2312335433070869
20
-4.4626536614173231
11
6.2299533858267715
21
-4.4645695275590551
0
LINE
8
BLACK
6
CONTINUOUS
10
6.2299533858267715
20
-4.4645695275590551
11
6.2280375196850395
21
-4.4658496850393696
0
LINE
8
BLACK
6
CONTINUOUS
10
6.2280375196850395
20
-4.4658496850393696
11
6.2257775590551176
21
-4.4662992125984253
0
LINE
8
BLACK
6
CONTINUOUS
10
6.2257775590551176
20
-4.4662992125984253
11
6.2139665354330704
21
-4.4662992125984253
0
LINE
8
BLACK
6
CONTINUOUS
10
6.2139665354330704
20
-4.4662992125984253
11
6.2117065748031495
21
-4.4658496850393696
0
LINE
8
BLACK
6
CONTINUOUS
10
6.2117065748031495
20
-4.4658496850393696
11
6.2097907086614175
21
-4.4645695275590551
0
LINE
8
BLACK
6
CONTINUOUS
10
6.2097907086614175
20
-4.4645695275590551
11
6.2085105511811021
21
-4.4626536614173231
0
LINE
8
BLACK
6
CONTINUOUS
10
6.2085105511811021
20
-4.4626536614173231
11
6.2080610236220473
21
-4.4603937007874013
0
LINE
8
BLACK
6
CONTINUOUS
10
6.2080610236220473
20
-4.4603937007874013
11
6.2080610236220473
21
-4.4052755905511809
0
LINE
8
BLACK
6
CONTINUOUS
10
6.2080610236220473
20
-4.4052755905511809
11
6.2085105511811021
21
-4.4030156299212599
0
LINE
8
BLACK
6
CONTINUOUS
10
6.2085105511811021
20
-4.4030156299212599
11
6.2097907086614175
21
-4.4010997637795271
0
LINE
8
BLACK
6
CONTINUOUS
10
6.2097907086614175
20
-4.4010997637795271
11
6.2117065748031495
21
-4.3998196062992125
0
LINE
8
BLACK
6
CONTINUOUS
10
6.2117065748031495
20
-4.3998196062992125
11
6.2139665354330704
21
-4.3993700787401577
0
LINE
8
BLACK
6
CONTINUOUS
10
6.2139665354330704
20
-4.3993700787401577
11
6.2257775590551176
21
-4.3993700787401577
0
LINE
8
BLACK
6
CONTINUOUS
10
6.2257775590551176
20
-4.3993700787401577
11
6.2280375196850395
21
-4.3998196062992125
0
LINE
8
BLACK
6
CONTINUOUS
10
6.2772501181102358
20
-4.3998196062992125
11
6.2791659842519687
21
-4.4010997637795271
0
LINE
8
BLACK
6
CONTINUOUS
10
6.2791659842519687
20
-4.4010997637795271
11
6.2804461417322832
21
-4.4030156299212599
0
LINE
8
BLACK
6
CONTINUOUS
10
6.2804461417322832
20
-4.4030156299212599
11
6.280895669291338
21
-4.4052755905511809
0
LINE
8
BLACK
6
CONTINUOUS
10
6.280895669291338
20
-4.4052755905511809
11
6.280895669291338
21
-4.4603937007874013
0
LINE
8
BLACK
6
CONTINUOUS
10
6.280895669291338
20
-4.4603937007874013
11
6.2804461417322832
21
-4.4626536614173231
0
LINE
8
BLACK
6
CONTINUOUS
10
6.2804461417322832
20
-4.4626536614173231
11
6.2791659842519687
21
-4.4645695275590551
0
LINE
8
BLACK
6
CONTINUOUS
10
6.2791659842519687
20
-4.4645695275590551
11
6.2772501181102358
21
-4.4658496850393696
0
LINE
8
BLACK
6
CONTINUOUS
10
6.2772501181102358
20
-4.4658496850393696
11
6.2749901574803149
21
-4.4662992125984253
0
LINE
8
BLACK
6
CONTINUOUS
10
6.2749901574803149
20
-4.4662992125984253
11
6.2631791338582676
21
-4.4662992125984253
0
LINE
8
BLACK
6
CONTINUOUS
10
6.2631791338582676
20
-4.4662992125984253
11
6.2609191732283467
21
-4.4658496850393696
0
LINE
8
BLACK
6
CONTINUOUS
10
6.2609191732283467
20
-4.4658496850393696
11
6.2590033070866138
21
-4.4645695275590551
0
LINE
8
BLACK
6
CONTINUOUS
10
6.2590033070866138
20
-4.4645695275590551
11
6.2577231496062993
21
-4.4626536614173231
0
LINE
8
BLACK
6
CONTINUOUS
10
6.2577231496062993
20
-4.4626536614173231
11
6.2572736220472436
21
-4.4603937007874013
0
LINE
8
BLACK
6
CONTINUOUS
10
6.2572736220472436
20
-4.4603937007874013
11
6.2572736220472436
21
-4.4052755905511809
0
LINE
8
BLACK
6
CONTINUOUS
10
6.2572736220472436
20
-4.4052755905511809
11
6.2577231496062993
21
-4.4030156299212599
0
LINE
8
BLACK
6
CONTINUOUS
10
6.2577231496062993
20
-4.4030156299212599
11
6.2590033070866138
21
-4.4010997637795271
0
LINE
8
BLACK
6
CONTINUOUS
10
6.2590033070866138
20
-4.4010997637795271
11
6.2609191732283467
21
-4.3998196062992125
0
LINE
8
BLACK
6
CONTINUOUS
10
6.2609191732283467
20
-4.3998196062992125
11
6.2631791338582676
21
-4.3993700787401577
0
LINE
8
BLACK
6
CONTINUOUS
10
6.2631791338582676
20
-4.3993700787401577
11
6.2749901574803149
21
-4.3993700787401577
0
LINE
8
BLACK
6
CONTINUOUS
10
6.2749901574803149
20
-4.3993700787401577
11
6.2772501181102358
21
-4.3998196062992125
0
LINE
8
BLACK
6
CONTINUOUS
10
6.326462716535433
20
-4.3998196062992125
11
6.328378582677165
21
-4.4010997637795271
0
LINE
8
BLACK
6
CONTINUOUS
10
6.328378582677165
20
-4.4010997637795271
11
6.3296587401574804
21
-4.4030156299212599
0
LINE
8
BLACK
6
CONTINUOUS
10
6.3296587401574804
20
-4.4030156299212599
11
6.3301082677165352
21
-4.4052755905511809
0
LINE
8
BLACK
6
CONTINUOUS
10
6.3301082677165352
20
-4.4052755905511809
11
6.3301082677165352
21
-4.4603937007874013
0
LINE
8
BLACK
6
CONTINUOUS
10
6.3301082677165352
20
-4.4603937007874013
11
6.3296587401574804
21
-4.4626536614173231
0
LINE
8
BLACK
6
CONTINUOUS
10
6.3296587401574804
20
-4.4626536614173231
11
6.328378582677165
21
-4.4645695275590551
0
LINE
8
BLACK
6
CONTINUOUS
10
6.328378582677165
20
-4.4645695275590551
11
6.326462716535433
21
-4.4658496850393696
0
LINE
8
BLACK
6
CONTINUOUS
10
6.326462716535433
20
-4.4658496850393696
11
6.3242027559055121
21
-4.4662992125984253
0
LINE
8
BLACK
6
CONTINUOUS
10
6.3242027559055121
20
-4.4662992125984253
11
6.3123917322834648
21
-4.4662992125984253
0
LINE
8
BLACK
6
CONTINUOUS
10
6.3123917322834648
20
-4.4662992125984253
11
6.310131771653543
21
-4.4658496850393696
0
LINE
8
BLACK
6
CONTINUOUS
10
6.310131771653543
20
-4.4658496850393696
11
6.308215905511811
21
-4.4645695275590551
0
LINE
8
BLACK
6
CONTINUOUS
10
6.308215905511811
20
-4.4645695275590551
11
6.3069357480314956
21
-4.4626536614173231
0
LINE
8
BLACK
6
CONTINUOUS
10
6.3069357480314956
20
-4.4626536614173231
11
6.3064862204724408
21
-4.4603937007874013
0
LINE
8
BLACK
6
CONTINUOUS
10
6.3064862204724408
20
-4.4603937007874013
11
6.3064862204724408
21
-4.4052755905511809
0
LINE
8
BLACK
6
CONTINUOUS
10
6.3064862204724408
20
-4.4052755905511809
11
6.3069357480314956
21
-4.4030156299212599
0
LINE
8
BLACK
6
CONTINUOUS
10
6.3069357480314956
20
-4.4030156299212599
11
6.308215905511811
21
-4.4010997637795271
0
LINE
8
BLACK
6
CONTINUOUS
10
6.308215905511811
20
-4.4010997637795271
11
6.310131771653543
21
-4.3998196062992125
0
LINE
8
BLACK
6
CONTINUOUS
10
6.310131771653543
20
-4.3998196062992125
11
6.3123917322834648
21
-4.3993700787401577
0
LINE
8
BLACK
6
CONTINUOUS
10
6.3123917322834648
20
-4.3993700787401577
11
6.3242027559055121
21
-4.3993700787401577
0
LINE
8
BLACK
6
CONTINUOUS
10
6.3242027559055121
20
-4.3993700787401577
11
6.326462716535433
21
-4.3998196062992125
0
LINE
8
BLACK
6
CONTINUOUS
10
6.3756753149606293
20
-4.3998196062992125
11
6.3775911811023622
21
-4.4010997637795271
0
LINE
8
BLACK
6
CONTINUOUS
10
6.3775911811023622
20
-4.4010997637795271
11
6.3788713385826767
21
-4.4030156299212599
0
LINE
8
BLACK
6
CONTINUOUS
10
6.3788713385826767
20
-4.4030156299212599
11
6.3793208661417324
21
-4.4052755905511809
0
LINE
8
BLACK
6
CONTINUOUS
10
6.3793208661417324
20
-4.4052755905511809
11
6.3793208661417324
21
-4.4603937007874013
0
LINE
8
BLACK
6
CONTINUOUS
10
6.3793208661417324
20
-4.4603937007874013
11
6.3788713385826767
21
-4.4626536614173231
0
LINE
8
BLACK
6
CONTINUOUS
10
6.3788713385826767
20
-4.4626536614173231
11
6.3775911811023622
21
-4.4645695275590551
0
LINE
8
BLACK
6
CONTINUOUS
10
6.3775911811023622
20
-4.4645695275590551
11
6.3756753149606293
21
-4.4658496850393696
0
LINE
8
BLACK
6
CONTINUOUS
10
6.3756753149606293
20
-4.4658496850393696
11
6.3734153543307084
21
-4.4662992125984253
0
LINE
8
BLACK
6
CONTINUOUS
10
6.3734153543307084
20
-4.4662992125984253
11
6.3616043307086612
21
-4.4662992125984253
0
LINE
8
BLACK
6
CONTINUOUS
10
6.3616043307086612
20
-4.4662992125984253
11
6.3593443700787402
21
-4.4658496850393696
0
LINE
8
BLACK
6
CONTINUOUS
10
6.3593443700787402
20
-4.4658496850393696
11
6.3574285039370073
21
-4.4645695275590551
0
LINE
8
BLACK
6
CONTINUOUS
10
6.3574285039370073
20
-4.4645695275590551
11
6.3561483464566928
21
-4.4626536614173231
0
LINE
8
BLACK
6
CONTINUOUS
10
6.3561483464566928
20
-4.4626536614173231
11
6.355698818897638
21
-4.4603937007874013
0
LINE
8
BLACK
6
CONTINUOUS
10
6.355698818897638
20
-4.4603937007874013
11
6.355698818897638
21
-4.4052755905511809
0
LINE
8
BLACK
6
CONTINUOUS
10
6.355698818897638
20
-4.4052755905511809
11
6.3561483464566928
21
-4.4030156299212599
0
LINE
8
BLACK
6
CONTINUOUS
10
6.3561483464566928
20
-4.4030156299212599
11
6.3574285039370073
21
-4.4010997637795271
0
LINE
8
BLACK
6
CONTINUOUS
10
6.3574285039370073
20
-4.4010997637795271
11
6.3593443700787402
21
-4.3998196062992125
0
LINE
8
BLACK
6
CONTINUOUS
10
6.3593443700787402
20
-4.3998196062992125
11
6.3616043307086612
21
-4.3993700787401577
0
LINE
8
BLACK
6
CONTINUOUS
10
6.3616043307086612
20
-4.3993700787401577
11
6.3734153543307084
21
-4.3993700787401577
0
LINE
8
BLACK
6
CONTINUOUS
10
6.3734153543307084
20
-4.3993700787401577
11
6.3756753149606293
21
-4.3998196062992125
0
LINE
8
BLACK
6
CONTINUOUS
10
5.7435001181102363
20
-4.3969849999999999
11
5.7454159842519683
21
-4.3982651574803144
0
LINE
8
BLACK
6
CONTINUOUS
10
5.7454159842519683
20
-4.3982651574803144
11
5.7466961417322837
21
-4.4001810236220473
0
LINE
8
BLACK
6
CONTINUOUS
10
5.7466961417322837
20
-4.4001810236220473
11
5.7471456692913385
21
-4.4024409842519683
0
LINE
8
BLACK
6
CONTINUOUS
10
5.7471456692913385
20
-4.4024409842519683
11
5.7471456692913385
21
-4.4575590944881887
0
LINE
8
BLACK
6
CONTINUOUS
10
5.7471456692913385
20
-4.4575590944881887
11
5.7466961417322837
21
-4.4598190551181105
0
LINE
8
BLACK
6
CONTINUOUS
10
5.7466961417322837
20
-4.4598190551181105
11
5.7454159842519683
21
-4.4617349212598425
0
LINE
8
BLACK
6
CONTINUOUS
10
5.7454159842519683
20
-4.4617349212598425
11
5.7435001181102363
21
-4.463015078740157
0
LINE
8
BLACK
6
CONTINUOUS
10
5.7435001181102363
20
-4.463015078740157
11
5.7412401574803145
21
-4.4634646062992127
0
LINE
8
BLACK
6
CONTINUOUS
10
5.7412401574803145
20
-4.4634646062992127
11
5.7294291338582672
21
-4.4634646062992127
0
LINE
8
BLACK
6
CONTINUOUS
10
5.7294291338582672
20
-4.4634646062992127
11
5.7271691732283463
21
-4.463015078740157
0
LINE
8
BLACK
6
CONTINUOUS
10
5.7271691732283463
20
-4.463015078740157
11
5.7252533070866143
21
-4.4617349212598425
0
LINE
8
BLACK
6
CONTINUOUS
10
5.7252533070866143
20
-4.4617349212598425
11
5.7239731496062989
21
-4.4598190551181105
0
LINE
8
BLACK
6
CONTINUOUS
10
5.7239731496062989
20
-4.4598190551181105
11
5.7235236220472441
21
-4.4575590944881887
0
LINE
8
BLACK
6
CONTINUOUS
10
5.7235236220472441
20
-4.4575590944881887
11
5.7235236220472441
21
-4.4024409842519683
0
LINE
8
BLACK
6
CONTINUOUS
10
5.7235236220472441
20
-4.4024409842519683
11
5.7239731496062989
21
-4.4001810236220473
0
LINE
8
BLACK
6
CONTINUOUS
10
5.7239731496062989
20
-4.4001810236220473
11
5.7252533070866143
21
-4.3982651574803144
0
LINE
8
BLACK
6
CONTINUOUS
10
5.7252533070866143
20
-4.3982651574803144
11
5.7271691732283463
21
-4.3969849999999999
0
LINE
8
BLACK
6
CONTINUOUS
10
5.7271691732283463
20
-4.3969849999999999
11
5.7294291338582672
21
-4.3965354724409451
0
LINE
8
BLACK
6
CONTINUOUS
10
5.7294291338582672
20
-4.3965354724409451
11
5.7412401574803145
21
-4.3965354724409451
0
LINE
8
BLACK
6
CONTINUOUS
10
5.7412401574803145
20
-4.3965354724409451
11
5.7435001181102363
21
-4.3969849999999999
0
LINE
8
BLACK
6
CONTINUOUS
10
5.1113249212598424
20
-4.3969849606299212
11
5.1132407874015744
21
-4.3982651181102357
0
LINE
8
BLACK
6
CONTINUOUS
10
5.1132407874015744
20
-4.3982651181102357
11
5.1145209448818898
21
-4.4001809842519686
0
LINE
8
BLACK
6
CONTINUOUS
10
5.1145209448818898
20
-4.4001809842519686
11
5.1149704724409446
21
-4.4024409448818895
0
LINE
8
BLACK
6
CONTINUOUS
10
5.1149704724409446
20
-4.4024409448818895
11
5.1149704724409446
21
-4.4575590551181099
0
LINE
8
BLACK
6
CONTINUOUS
10
5.1149704724409446
20
-4.4575590551181099
11
5.1145209448818898
21
-4.4598190157480317
0
LINE
8
BLACK
6
CONTINUOUS
10
5.1145209448818898
20
-4.4598190157480317
11
5.1132407874015744
21
-4.4617348818897637
0
LINE
8
BLACK
6
CONTINUOUS
10
5.1132407874015744
20
-4.4617348818897637
11
5.1113249212598424
21
-4.4630150393700783
0
LINE
8
BLACK
6
CONTINUOUS
10
5.1113249212598424
20
-4.4630150393700783
11
5.1090649606299214
21
-4.463464566929134
0
LINE
8
BLACK
6
CONTINUOUS
10
5.1090649606299214
20
-4.463464566929134
11
5.0972539370078742
21
-4.463464566929134
0
LINE
8
BLACK
6
CONTINUOUS
10
5.0972539370078742
20
-4.463464566929134
11
5.0949939763779524
21
-4.4630150393700783
0
LINE
8
BLACK
6
CONTINUOUS
10
5.0949939763779524
20
-4.4630150393700783
11
5.0930781102362204
21
-4.4617348818897637
0
LINE
8
BLACK
6
CONTINUOUS
10
5.0930781102362204
20
-4.4617348818897637
11
5.091797952755905
21
-4.4598190157480317
0
LINE
8
BLACK
6
CONTINUOUS
10
5.091797952755905
20
-4.4598190157480317
11
5.0913484251968502
21
-4.4575590551181099
0
LINE
8
BLACK
6
CONTINUOUS
10
5.0913484251968502
20
-4.4575590551181099
11
5.0913484251968502
21
-4.4024409448818895
0
LINE
8
BLACK
6
CONTINUOUS
10
5.0913484251968502
20
-4.4024409448818895
11
5.091797952755905
21
-4.4001809842519686
0
LINE
8
BLACK
6
CONTINUOUS
10
5.091797952755905
20
-4.4001809842519686
11
5.0930781102362204
21
-4.3982651181102357
0
LINE
8
BLACK
6
CONTINUOUS
10
5.0930781102362204
20
-4.3982651181102357
11
5.0949939763779524
21
-4.3969849606299212
0
LINE
8
BLACK
6
CONTINUOUS
10
5.0949939763779524
20
-4.3969849606299212
11
5.0972539370078742
21
-4.3965354330708664
0
LINE
8
BLACK
6
CONTINUOUS
10
5.0972539370078742
20
-4.3965354330708664
11
5.1090649606299214
21
-4.3965354330708664
0
LINE
8
BLACK
6
CONTINUOUS
10
5.1090649606299214
20
-4.3965354330708664
11
5.1113249212598424
21
-4.3969849606299212
0
LINE
8
BLACK
6
CONTINUOUS
10
5.1605375196850396
20
-4.3969849606299212
11
5.1624533858267716
21
-4.3982651181102357
0
LINE
8
BLACK
6
CONTINUOUS
10
5.1624533858267716
20
-4.3982651181102357
11
5.1637335433070861
21
-4.4001809842519686
0
LINE
8
BLACK
6
CONTINUOUS
10
5.1637335433070861
20
-4.4001809842519686
11
5.1641830708661418
21
-4.4024409448818895
0
LINE
8
BLACK
6
CONTINUOUS
10
5.1641830708661418
20
-4.4024409448818895
11
5.1641830708661418
21
-4.4575590551181099
0
LINE
8
BLACK
6
CONTINUOUS
10
5.1641830708661418
20
-4.4575590551181099
11
5.1637335433070861
21
-4.4598190157480317
0
LINE
8
BLACK
6
CONTINUOUS
10
5.1637335433070861
20
-4.4598190157480317
11
5.1624533858267716
21
-4.4617348818897637
0
LINE
8
BLACK
6
CONTINUOUS
10
5.1624533858267716
20
-4.4617348818897637
11
5.1605375196850396
21
-4.4630150393700783
0
LINE
8
BLACK
6
CONTINUOUS
10
5.1605375196850396
20
-4.4630150393700783
11
5.1582775590551178
21
-4.463464566929134
0
LINE
8
BLACK
6
CONTINUOUS
10
5.1582775590551178
20
-4.463464566929134
11
5.1464665354330705
21
-4.463464566929134
0
LINE
8
BLACK
6
CONTINUOUS
10
5.1464665354330705
20
-4.463464566929134
11
5.1442065748031496
21
-4.4630150393700783
0
LINE
8
BLACK
6
CONTINUOUS
10
5.1442065748031496
20
-4.4630150393700783
11
5.1422907086614176
21
-4.4617348818897637
0
LINE
8
BLACK
6
CONTINUOUS
10
5.1422907086614176
20
-4.4617348818897637
11
5.1410105511811022
21
-4.4598190157480317
0
LINE
8
BLACK
6
CONTINUOUS
10
5.1410105511811022
20
-4.4598190157480317
11
5.1405610236220474
21
-4.4575590551181099
0
LINE
8
BLACK
6
CONTINUOUS
10
5.1405610236220474
20
-4.4575590551181099
11
5.1405610236220474
21
-4.4024409448818895
0
LINE
8
BLACK
6
CONTINUOUS
10
5.1405610236220474
20
-4.4024409448818895
11
5.1410105511811022
21
-4.4001809842519686
0
LINE
8
BLACK
6
CONTINUOUS
10
5.1410105511811022
20
-4.4001809842519686
11
5.1422907086614176
21
-4.3982651181102357
0
LINE
8
BLACK
6
CONTINUOUS
10
5.1422907086614176
20
-4.3982651181102357
11
5.1442065748031496
21
-4.3969849606299212
0
LINE
8
BLACK
6
CONTINUOUS
10
5.1442065748031496
20
-4.3969849606299212
11
5.1464665354330705
21
-4.3965354330708664
0
LINE
8
BLACK
6
CONTINUOUS
10
5.1464665354330705
20
-4.3965354330708664
11
5.1582775590551178
21
-4.3965354330708664
0
LINE
8
BLACK
6
CONTINUOUS
10
5.1582775590551178
20
-4.3965354330708664
11
5.1605375196850396
21
-4.3969849606299212
0
LINE
8
BLACK
6
CONTINUOUS
10
5.2097501181102359
20
-4.3969849606299212
11
5.2116659842519688
21
-4.3982651181102357
0
LINE
8
BLACK
6
CONTINUOUS
10
5.2116659842519688
20
-4.3982651181102357
11
5.2129461417322833
21
-4.4001809842519686
0
LINE
8
BLACK
6
CONTINUOUS
10
5.2129461417322833
20
-4.4001809842519686
11
5.2133956692913381
21
-4.4024409448818895
0
LINE
8
BLACK
6
CONTINUOUS
10
5.2133956692913381
20
-4.4024409448818895
11
5.2133956692913381
21
-4.4575590551181099
0
LINE
8
BLACK
6
CONTINUOUS
10
5.2133956692913381
20
-4.4575590551181099
11
5.2129461417322833
21
-4.4598190157480317
0
LINE
8
BLACK
6
CONTINUOUS
10
5.2129461417322833
20
-4.4598190157480317
11
5.2116659842519688
21
-4.4617348818897637
0
LINE
8
BLACK
6
CONTINUOUS
10
5.2116659842519688
20
-4.4617348818897637
11
5.2097501181102359
21
-4.4630150393700783
0
LINE
8
BLACK
6
CONTINUOUS
10
5.2097501181102359
20
-4.4630150393700783
11
5.207490157480315
21
-4.463464566929134
0
LINE
8
BLACK
6
CONTINUOUS
10
5.207490157480315
20
-4.463464566929134
11
5.1956791338582677
21
-4.463464566929134
0
LINE
8
BLACK
6
CONTINUOUS
10
5.1956791338582677
20
-4.463464566929134
11
5.1934191732283459
21
-4.4630150393700783
0
LINE
8
BLACK
6
CONTINUOUS
10
5.1934191732283459
20
-4.4630150393700783
11
5.1915033070866139
21
-4.4617348818897637
0
LINE
8
BLACK
6
CONTINUOUS
10
5.1915033070866139
20
-4.4617348818897637
11
5.1902231496062994
21
-4.4598190157480317
0
LINE
8
BLACK
6
CONTINUOUS
10
5.1902231496062994
20
-4.4598190157480317
11
5.1897736220472437
21
-4.4575590551181099
0
LINE
8
BLACK
6
CONTINUOUS
10
5.1897736220472437
20
-4.4575590551181099
11
5.1897736220472437
21
-4.4024409448818895
0
LINE
8
BLACK
6
CONTINUOUS
10
5.1897736220472437
20
-4.4024409448818895
11
5.1902231496062994
21
-4.4001809842519686
0
LINE
8
BLACK
6
CONTINUOUS
10
5.1902231496062994
20
-4.4001809842519686
11
5.1915033070866139
21
-4.3982651181102357
0
LINE
8
BLACK
6
CONTINUOUS
10
5.1915033070866139
20
-4.3982651181102357
11
5.1934191732283459
21
-4.3969849606299212
0
LINE
8
BLACK
6
CONTINUOUS
10
5.1934191732283459
20
-4.3969849606299212
11
5.1956791338582677
21
-4.3965354330708664
0
LINE
8
BLACK
6
CONTINUOUS
10
5.1956791338582677
20
-4.3965354330708664
11
5.207490157480315
21
-4.3965354330708664
0
LINE
8
BLACK
6
CONTINUOUS
10
5.207490157480315
20
-4.3965354330708664
11
5.2097501181102359
21
-4.3969849606299212
0
LINE
8
BLACK
6
CONTINUOUS
10
5.2589627165354331
20
-4.3969849606299212
11
5.2608785826771651
21
-4.3982651181102357
0
LINE
8
BLACK
6
CONTINUOUS
10
5.2608785826771651
20
-4.3982651181102357
11
5.2621587401574805
21
-4.4001809842519686
0
LINE
8
BLACK
6
CONTINUOUS
10
5.2621587401574805
20
-4.4001809842519686
11
5.2626082677165353
21
-4.4024409448818895
0
LINE
8
BLACK
6
CONTINUOUS
10
5.2626082677165353
20
-4.4024409448818895
11
5.2626082677165353
21
-4.4575590551181099
0
LINE
8
BLACK
6
CONTINUOUS
10
5.2626082677165353
20
-4.4575590551181099
11
5.2621587401574805
21
-4.4598190157480317
0
LINE
8
BLACK
6
CONTINUOUS
10
5.2621587401574805
20
-4.4598190157480317
11
5.2608785826771651
21
-4.4617348818897637
0
LINE
8
BLACK
6
CONTINUOUS
10
5.2608785826771651
20
-4.4617348818897637
11
5.2589627165354331
21
-4.4630150393700783
0
LINE
8
BLACK
6
CONTINUOUS
10
5.2589627165354331
20
-4.4630150393700783
11
5.2567027559055113
21
-4.463464566929134
0
LINE
8
BLACK
6
CONTINUOUS
10
5.2567027559055113
20
-4.463464566929134
11
5.2448917322834641
21
-4.463464566929134
0
LINE
8
BLACK
6
CONTINUOUS
10
5.2448917322834641
20
-4.463464566929134
11
5.2426317716535431
21
-4.4630150393700783
0
LINE
8
BLACK
6
CONTINUOUS
10
5.2426317716535431
20
-4.4630150393700783
11
5.2407159055118111
21
-4.4617348818897637
0
LINE
8
BLACK
6
CONTINUOUS
10
5.2407159055118111
20
-4.4617348818897637
11
5.2394357480314957
21
-4.4598190157480317
0
LINE
8
BLACK
6
CONTINUOUS
10
5.2394357480314957
20
-4.4598190157480317
11
5.2389862204724409
21
-4.4575590551181099
0
LINE
8
BLACK
6
CONTINUOUS
10
5.2389862204724409
20
-4.4575590551181099
11
5.2389862204724409
21
-4.4024409448818895
0
LINE
8
BLACK
6
CONTINUOUS
10
5.2389862204724409
20
-4.4024409448818895
11
5.2394357480314957
21
-4.4001809842519686
0
LINE
8
BLACK
6
CONTINUOUS
10
5.2394357480314957
20
-4.4001809842519686
11
5.2407159055118111
21
-4.3982651181102357
0
LINE
8
BLACK
6
CONTINUOUS
10
5.2407159055118111
20
-4.3982651181102357
11
5.2426317716535431
21
-4.3969849606299212
0
LINE
8
BLACK
6
CONTINUOUS
10
5.2426317716535431
20
-4.3969849606299212
11
5.2448917322834641
21
-4.3965354330708664
0
LINE
8
BLACK
6
CONTINUOUS
10
5.2448917322834641
20
-4.3965354330708664
11
5.2567027559055113
21
-4.3965354330708664
0
LINE
8
BLACK
6
CONTINUOUS
10
5.2567027559055113
20
-4.3965354330708664
11
5.2589627165354331
21
-4.3969849606299212
0
LINE
8
BLACK
6
CONTINUOUS
10
5.3081753149606294
20
-4.3969849606299212
11
5.3100911811023623
21
-4.3982651181102357
0
LINE
8
BLACK
6
CONTINUOUS
10
5.3100911811023623
20
-4.3982651181102357
11
5.3113713385826768
21
-4.4001809842519686
0
LINE
8
BLACK
6
CONTINUOUS
10
5.3113713385826768
20
-4.4001809842519686
11
5.3118208661417325
21
-4.4024409448818895
0
LINE
8
BLACK
6
CONTINUOUS
10
5.3118208661417325
20
-4.4024409448818895
11
5.3118208661417325
21
-4.4575590551181099
0
LINE
8
BLACK
6
CONTINUOUS
10
5.3118208661417325
20
-4.4575590551181099
11
5.3113713385826768
21
-4.4598190157480317
0
LINE
8
BLACK
6
CONTINUOUS
10
5.3113713385826768
20
-4.4598190157480317
11
5.3100911811023623
21
-4.4617348818897637
0
LINE
8
BLACK
6
CONTINUOUS
10
5.3100911811023623
20
-4.4617348818897637
11
5.3081753149606294
21
-4.4630150393700783
0
LINE
8
BLACK
6
CONTINUOUS
10
5.3081753149606294
20
-4.4630150393700783
11
5.3059153543307085
21
-4.463464566929134
0
LINE
8
BLACK
6
CONTINUOUS
10
5.3059153543307085
20
-4.463464566929134
11
5.2941043307086613
21
-4.463464566929134
0
LINE
8
BLACK
6
CONTINUOUS
10
5.2941043307086613
20
-4.463464566929134
11
5.2918443700787403
21
-4.4630150393700783
0
LINE
8
BLACK
6
CONTINUOUS
10
5.2918443700787403
20
-4.4630150393700783
11
5.2899285039370074
21
-4.4617348818897637
0
LINE
8
BLACK
6
CONTINUOUS
10
5.2899285039370074
20
-4.4617348818897637
11
5.2886483464566929
21
-4.4598190157480317
0
LINE
8
BLACK
6
CONTINUOUS
10
5.2886483464566929
20
-4.4598190157480317
11
5.2881988188976381
21
-4.4575590551181099
0
LINE
8
BLACK
6
CONTINUOUS
10
5.2881988188976381
20
-4.4575590551181099
11
5.2881988188976381
21
-4.4024409448818895
0
LINE
8
BLACK
6
CONTINUOUS
10
5.2881988188976381
20
-4.4024409448818895
11
5.2886483464566929
21
-4.4001809842519686
0
LINE
8
BLACK
6
CONTINUOUS
10
5.2886483464566929
20
-4.4001809842519686
11
5.2899285039370074
21
-4.3982651181102357
0
LINE
8
BLACK
6
CONTINUOUS
10
5.2899285039370074
20
-4.3982651181102357
11
5.2918443700787403
21
-4.3969849606299212
0
LINE
8
BLACK
6
CONTINUOUS
10
5.2918443700787403
20
-4.3969849606299212
11
5.2941043307086613
21
-4.3965354330708664
0
LINE
8
BLACK
6
CONTINUOUS
10
5.2941043307086613
20
-4.3965354330708664
11
5.3059153543307085
21
-4.3965354330708664
0
LINE
8
BLACK
6
CONTINUOUS
10
5.3059153543307085
20
-4.3965354330708664
11
5.3081753149606294
21
-4.3969849606299212
0
LINE
8
BLACK
6
CONTINUOUS
10
5.3573879133858266
20
-4.3969849606299212
11
5.3593037795275587
21
-4.3982651181102357
0
LINE
8
BLACK
6
CONTINUOUS
10
5.3593037795275587
20
-4.3982651181102357
11
5.3605839370078741
21
-4.4001809842519686
0
LINE
8
BLACK
6
CONTINUOUS
10
5.3605839370078741
20
-4.4001809842519686
11
5.3610334645669289
21
-4.4024409448818895
0
LINE
8
BLACK
6
CONTINUOUS
10
5.3610334645669289
20
-4.4024409448818895
11
5.3610334645669289
21
-4.4575590551181099
0
LINE
8
BLACK
6
CONTINUOUS
10
5.3610334645669289
20
-4.4575590551181099
11
5.3605839370078741
21
-4.4598190157480317
0
LINE
8
BLACK
6
CONTINUOUS
10
5.3605839370078741
20
-4.4598190157480317
11
5.3593037795275587
21
-4.4617348818897637
0
LINE
8
BLACK
6
CONTINUOUS
10
5.3593037795275587
20
-4.4617348818897637
11
5.3573879133858266
21
-4.4630150393700783
0
LINE
8
BLACK
6
CONTINUOUS
10
5.3573879133858266
20
-4.4630150393700783
11
5.3551279527559057
21
-4.463464566929134
0
LINE
8
BLACK
6
CONTINUOUS
10
5.3551279527559057
20
-4.463464566929134
11
5.3433169291338585
21
-4.463464566929134
0
LINE
8
BLACK
6
CONTINUOUS
10
5.3433169291338585
20
-4.463464566929134
11
5.3410569685039366
21
-4.4630150393700783
0
LINE
8
BLACK
6
CONTINUOUS
10
5.3410569685039366
20
-4.4630150393700783
11
5.3391411023622046
21
-4.4617348818897637
0
LINE
8
BLACK
6
CONTINUOUS
10
5.3391411023622046
20
-4.4617348818897637
11
5.3378609448818892
21
-4.4598190157480317
0
LINE
8
BLACK
6
CONTINUOUS
10
5.3378609448818892
20
-4.4598190157480317
11
5.3374114173228344
21
-4.4575590551181099
0
LINE
8
BLACK
6
CONTINUOUS
10
5.3374114173228344
20
-4.4575590551181099
11
5.3374114173228344
21
-4.4024409448818895
0
LINE
8
BLACK
6
CONTINUOUS
10
5.3374114173228344
20
-4.4024409448818895
11
5.3378609448818892
21
-4.4001809842519686
0
LINE
8
BLACK
6
CONTINUOUS
10
5.3378609448818892
20
-4.4001809842519686
11
5.3391411023622046
21
-4.3982651181102357
0
LINE
8
BLACK
6
CONTINUOUS
10
5.3391411023622046
20
-4.3982651181102357
11
5.3410569685039366
21
-4.3969849606299212
0
LINE
8
BLACK
6
CONTINUOUS
10
5.3410569685039366
20
-4.3969849606299212
11
5.3433169291338585
21
-4.3965354330708664
0
LINE
8
BLACK
6
CONTINUOUS
10
5.3433169291338585
20
-4.3965354330708664
11
5.3551279527559057
21
-4.3965354330708664
0
LINE
8
BLACK
6
CONTINUOUS
10
5.3551279527559057
20
-4.3965354330708664
11
5.3573879133858266
21
-4.3969849606299212
0
LINE
8
BLACK
6
CONTINUOUS
10
5.5958623228346456
20
-4.3969849606299212
11
5.5977781889763776
21
-4.3982651181102357
0
LINE
8
BLACK
6
CONTINUOUS
10
5.5977781889763776
20
-4.3982651181102357
11
5.599058346456693
21
-4.4001809842519686
0
LINE
8
BLACK
6
CONTINUOUS
10
5.599058346456693
20
-4.4001809842519686
11
5.5995078740157478
21
-4.4024409448818895
0
LINE
8
BLACK
6
CONTINUOUS
10
5.5995078740157478
20
-4.4024409448818895
11
5.5995078740157478
21
-4.4575590551181099
0
LINE
8
BLACK
6
CONTINUOUS
10
5.5995078740157478
20
-4.4575590551181099
11
5.599058346456693
21
-4.4598190157480317
0
LINE
8
BLACK
6
CONTINUOUS
10
5.599058346456693
20
-4.4598190157480317
11
5.5977781889763776
21
-4.4617348818897637
0
LINE
8
BLACK
6
CONTINUOUS
10
5.5977781889763776
20
-4.4617348818897637
11
5.5958623228346456
21
-4.4630150393700783
0
LINE
8
BLACK
6
CONTINUOUS
10
5.5958623228346456
20
-4.4630150393700783
11
5.5936023622047246
21
-4.463464566929134
0
LINE
8
BLACK
6
CONTINUOUS
10
5.5936023622047246
20
-4.463464566929134
11
5.5817913385826774
21
-4.463464566929134
0
LINE
8
BLACK
6
CONTINUOUS
10
5.5817913385826774
20
-4.463464566929134
11
5.5795313779527556
21
-4.4630150393700783
0
LINE
8
BLACK
6
CONTINUOUS
10
5.5795313779527556
20
-4.4630150393700783
11
5.5776155118110236
21
-4.4617348818897637
0
LINE
8
BLACK
6
CONTINUOUS
10
5.5776155118110236
20
-4.4617348818897637
11
5.5763353543307081
21
-4.4598190157480317
0
LINE
8
BLACK
6
CONTINUOUS
10
5.5763353543307081
20
-4.4598190157480317
11
5.5758858267716533
21
-4.4575590551181099
0
LINE
8
BLACK
6
CONTINUOUS
10
5.5758858267716533
20
-4.4575590551181099
11
5.5758858267716533
21
-4.4024409448818895
0
LINE
8
BLACK
6
CONTINUOUS
10
5.5758858267716533
20
-4.4024409448818895
11
5.5763353543307081
21
-4.4001809842519686
0
LINE
8
BLACK
6
CONTINUOUS
10
5.5763353543307081
20
-4.4001809842519686
11
5.5776155118110236
21
-4.3982651181102357
0
LINE
8
BLACK
6
CONTINUOUS
10
5.5776155118110236
20
-4.3982651181102357
11
5.5795313779527556
21
-4.3969849606299212
0
LINE
8
BLACK
6
CONTINUOUS
10
5.5795313779527556
20
-4.3969849606299212
11
5.5817913385826774
21
-4.3965354330708664
0
LINE
8
BLACK
6
CONTINUOUS
10
5.5817913385826774
20
-4.3965354330708664
11
5.5936023622047246
21
-4.3965354330708664
0
LINE
8
BLACK
6
CONTINUOUS
10
5.5936023622047246
20
-4.3965354330708664
11
5.5958623228346456
21
-4.3969849606299212
0
LINE
8
BLACK
6
CONTINUOUS
10
5.6450749606299215
20
-4.3969849606299212
11
5.6469908267716535
21
-4.3982651181102357
0
LINE
8
BLACK
6
CONTINUOUS
10
5.6469908267716535
20
-4.3982651181102357
11
5.6482709842519681
21
-4.4001809842519686
0
LINE
8
BLACK
6
CONTINUOUS
10
5.6482709842519681
20
-4.4001809842519686
11
5.6487205118110237
21
-4.4024409448818895
0
LINE
8
BLACK
6
CONTINUOUS
10
5.6487205118110237
20
-4.4024409448818895
11
5.6487205118110237
21
-4.4575590551181099
0
LINE
8
BLACK
6
CONTINUOUS
10
5.6487205118110237
20
-4.4575590551181099
11
5.6482709842519681
21
-4.4598190157480317
0
LINE
8
BLACK
6
CONTINUOUS
10
5.6482709842519681
20
-4.4598190157480317
11
5.6469908267716535
21
-4.4617348818897637
0
LINE
8
BLACK
6
CONTINUOUS
10
5.6469908267716535
20
-4.4617348818897637
11
5.6450749606299215
21
-4.4630150393700783
0
LINE
8
BLACK
6
CONTINUOUS
10
5.6450749606299215
20
-4.4630150393700783
11
5.6428149999999997
21
-4.463464566929134
0
LINE
8
BLACK
6
CONTINUOUS
10
5.6428149999999997
20
-4.463464566929134
11
5.6310039763779525
21
-4.463464566929134
0
LINE
8
BLACK
6
CONTINUOUS
10
5.6310039763779525
20
-4.463464566929134
11
5.6287440157480315
21
-4.4630150393700783
0
LINE
8
BLACK
6
CONTINUOUS
10
5.6287440157480315
20
-4.4630150393700783
11
5.6268281496062995
21
-4.4617348818897637
0
LINE
8
BLACK
6
CONTINUOUS
10
5.6268281496062995
20
-4.4617348818897637
11
5.6255479921259841
21
-4.4598190157480317
0
LINE
8
BLACK
6
CONTINUOUS
10
5.6255479921259841
20
-4.4598190157480317
11
5.6250984645669293
21
-4.4575590551181099
0
LINE
8
BLACK
6
CONTINUOUS
10
5.6250984645669293
20
-4.4575590551181099
11
5.6250984645669293
21
-4.4024409448818895
0
LINE
8
BLACK
6
CONTINUOUS
10
5.6250984645669293
20
-4.4024409448818895
11
5.6255479921259841
21
-4.4001809842519686
0
LINE
8
BLACK
6
CONTINUOUS
10
5.6255479921259841
20
-4.4001809842519686
11
5.6268281496062995
21
-4.3982651181102357
0
LINE
8
BLACK
6
CONTINUOUS
10
5.6268281496062995
20
-4.3982651181102357
11
5.6287440157480315
21
-4.3969849606299212
0
LINE
8
BLACK
6
CONTINUOUS
10
5.6287440157480315
20
-4.3969849606299212
11
5.6310039763779525
21
-4.3965354330708664
0
LINE
8
BLACK
6
CONTINUOUS
10
5.6310039763779525
20
-4.3965354330708664
11
5.6428149999999997
21
-4.3965354330708664
0
LINE
8
BLACK
6
CONTINUOUS
10
5.6428149999999997
20
-4.3965354330708664
11
5.6450749606299215
21
-4.3969849606299212
0
LINE
8
BLACK
6
CONTINUOUS
10
5.6942875196850391
20
-4.3969849606299212
11
5.6962033858267711
21
-4.3982651181102357
0
LINE
8
BLACK
6
CONTINUOUS
10
5.6962033858267711
20
-4.3982651181102357
11
5.6974835433070865
21
-4.4001809842519686
0
LINE
8
BLACK
6
CONTINUOUS
10
5.6974835433070865
20
-4.4001809842519686
11
5.6979330708661413
21
-4.4024409448818895
0
LINE
8
BLACK
6
CONTINUOUS
10
5.6979330708661413
20
-4.4024409448818895
11
5.6979330708661413
21
-4.4575590551181099
0
LINE
8
BLACK
6
CONTINUOUS
10
5.6979330708661413
20
-4.4575590551181099
11
5.6974835433070865
21
-4.4598190157480317
0
LINE
8
BLACK
6
CONTINUOUS
10
5.6974835433070865
20
-4.4598190157480317
11
5.6962033858267711
21
-4.4617348818897637
0
LINE
8
BLACK
6
CONTINUOUS
10
5.6962033858267711
20
-4.4617348818897637
11
5.6942875196850391
21
-4.4630150393700783
0
LINE
8
BLACK
6
CONTINUOUS
10
5.6942875196850391
20
-4.4630150393700783
11
5.6920275590551181
21
-4.463464566929134
0
LINE
8
BLACK
6
CONTINUOUS
10
5.6920275590551181
20
-4.463464566929134
11
5.6802165354330709
21
-4.463464566929134
0
LINE
8
BLACK
6
CONTINUOUS
10
5.6802165354330709
20
-4.463464566929134
11
5.6779565748031491
21
-4.4630150393700783
0
LINE
8
BLACK
6
CONTINUOUS
10
5.6779565748031491
20
-4.4630150393700783
11
5.6760407086614171
21
-4.4617348818897637
0
LINE
8
BLACK
6
CONTINUOUS
10
5.6760407086614171
20
-4.4617348818897637
11
5.6747605511811026
21
-4.4598190157480317
0
LINE
8
BLACK
6
CONTINUOUS
10
5.6747605511811026
20
-4.4598190157480317
11
5.6743110236220469
21
-4.4575590551181099
0
LINE
8
BLACK
6
CONTINUOUS
10
5.6743110236220469
20
-4.4575590551181099
11
5.6743110236220469
21
-4.4024409448818895
0
LINE
8
BLACK
6
CONTINUOUS
10
5.6743110236220469
20
-4.4024409448818895
11
5.6747605511811026
21
-4.4001809842519686
0
LINE
8
BLACK
6
CONTINUOUS
10
5.6747605511811026
20
-4.4001809842519686
11
5.6760407086614171
21
-4.3982651181102357
0
LINE
8
BLACK
6
CONTINUOUS
10
5.6760407086614171
20
-4.3982651181102357
11
5.6779565748031491
21
-4.3969849606299212
0
LINE
8
BLACK
6
CONTINUOUS
10
5.6779565748031491
20
-4.3969849606299212
11
5.6802165354330709
21
-4.3965354330708664
0
LINE
8
BLACK
6
CONTINUOUS
10
5.6802165354330709
20
-4.3965354330708664
11
5.6920275590551181
21
-4.3965354330708664
0
LINE
8
BLACK
6
CONTINUOUS
10
5.6920275590551181
20
-4.3965354330708664
11
5.6942875196850391
21
-4.3969849606299212
0
LINE
8
BLACK
6
CONTINUOUS
10
5.7927127165354326
20
-4.3969849606299212
11
5.7946285826771655
21
-4.3982651181102357
0
LINE
8
BLACK
6
CONTINUOUS
10
5.7946285826771655
20
-4.3982651181102357
11
5.79590874015748
21
-4.4001809842519686
0
LINE
8
BLACK
6
CONTINUOUS
10
5.79590874015748
20
-4.4001809842519686
11
5.7963582677165357
21
-4.4024409448818895
0
LINE
8
BLACK
6
CONTINUOUS
10
5.7963582677165357
20
-4.4024409448818895
11
5.7963582677165357
21
-4.4575590551181099
0
LINE
8
BLACK
6
CONTINUOUS
10
5.7963582677165357
20
-4.4575590551181099
11
5.79590874015748
21
-4.4598190157480317
0
LINE
8
BLACK
6
CONTINUOUS
10
5.79590874015748
20
-4.4598190157480317
11
5.7946285826771655
21
-4.4617348818897637
0
LINE
8
BLACK
6
CONTINUOUS
10
5.7946285826771655
20
-4.4617348818897637
11
5.7927127165354326
21
-4.4630150393700783
0
LINE
8
BLACK
6
CONTINUOUS
10
5.7927127165354326
20
-4.4630150393700783
11
5.7904527559055117
21
-4.463464566929134
0
LINE
8
BLACK
6
CONTINUOUS
10
5.7904527559055117
20
-4.463464566929134
11
5.7786417322834644
21
-4.463464566929134
0
LINE
8
BLACK
6
CONTINUOUS
10
5.7786417322834644
20
-4.463464566929134
11
5.7763817716535435
21
-4.4630150393700783
0
LINE
8
BLACK
6
CONTINUOUS
10
5.7763817716535435
20
-4.4630150393700783
11
5.7744659055118106
21
-4.4617348818897637
0
LINE
8
BLACK
6
CONTINUOUS
10
5.7744659055118106
20
-4.4617348818897637
11
5.7731857480314961
21
-4.4598190157480317
0
LINE
8
BLACK
6
CONTINUOUS
10
5.7731857480314961
20
-4.4598190157480317
11
5.7727362204724404
21
-4.4575590551181099
0
LINE
8
BLACK
6
CONTINUOUS
10
5.7727362204724404
20
-4.4575590551181099
11
5.7727362204724404
21
-4.4024409448818895
0
LINE
8
BLACK
6
CONTINUOUS
10
5.7727362204724404
20
-4.4024409448818895
11
5.7731857480314961
21
-4.4001809842519686
0
LINE
8
BLACK
6
CONTINUOUS
10
5.7731857480314961
20
-4.4001809842519686
11
5.7744659055118106
21
-4.3982651181102357
0
LINE
8
BLACK
6
CONTINUOUS
10
5.7744659055118106
20
-4.3982651181102357
11
5.7763817716535435
21
-4.3969849606299212
0
LINE
8
BLACK
6
CONTINUOUS
10
5.7763817716535435
20
-4.3969849606299212
11
5.7786417322834644
21
-4.3965354330708664
0
LINE
8
BLACK
6
CONTINUOUS
10
5.7786417322834644
20
-4.3965354330708664
11
5.7904527559055117
21
-4.3965354330708664
0
LINE
8
BLACK
6
CONTINUOUS
10
5.7904527559055117
20
-4.3965354330708664
11
5.7927127165354326
21
-4.3969849606299212
0
LINE
8
BLACK
6
CONTINUOUS
10
5.8419252755905511
20
-4.3969849606299212
11
5.8438411417322831
21
-4.3982651181102357
0
LINE
8
BLACK
6
CONTINUOUS
10
5.8438411417322831
20
-4.3982651181102357
11
5.8451212992125985
21
-4.4001809842519686
0
LINE
8
BLACK
6
CONTINUOUS
10
5.8451212992125985
20
-4.4001809842519686
11
5.8455708267716533
21
-4.4024409448818895
0
LINE
8
BLACK
6
CONTINUOUS
10
5.8455708267716533
20
-4.4024409448818895
11
5.8455708267716533
21
-4.4575590551181099
0
LINE
8
BLACK
6
CONTINUOUS
10
5.8455708267716533
20
-4.4575590551181099
11
5.8451212992125985
21
-4.4598190157480317
0
LINE
8
BLACK
6
CONTINUOUS
10
5.8451212992125985
20
-4.4598190157480317
11
5.8438411417322831
21
-4.4617348818897637
0
LINE
8
BLACK
6
CONTINUOUS
10
5.8438411417322831
20
-4.4617348818897637
11
5.8419252755905511
21
-4.4630150393700783
0
LINE
8
BLACK
6
CONTINUOUS
10
5.8419252755905511
20
-4.4630150393700783
11
5.8396653149606301
21
-4.463464566929134
0
LINE
8
BLACK
6
CONTINUOUS
10
5.8396653149606301
20
-4.463464566929134
11
5.8278542913385829
21
-4.463464566929134
0
LINE
8
BLACK
6
CONTINUOUS
10
5.8278542913385829
20
-4.463464566929134
11
5.8255943307086611
21
-4.4630150393700783
0
LINE
8
BLACK
6
CONTINUOUS
10
5.8255943307086611
20
-4.4630150393700783
11
5.8236784645669291
21
-4.4617348818897637
0
LINE
8
BLACK
6
CONTINUOUS
10
5.8236784645669291
20
-4.4617348818897637
11
5.8223983070866137
21
-4.4598190157480317
0
LINE
8
BLACK
6
CONTINUOUS
10
5.8223983070866137
20
-4.4598190157480317
11
5.8219487795275588
21
-4.4575590551181099
0
LINE
8
BLACK
6
CONTINUOUS
10
5.8219487795275588
20
-4.4575590551181099
11
5.8219487795275588
21
-4.4024409448818895
0
LINE
8
BLACK
6
CONTINUOUS
10
5.8219487795275588
20
-4.4024409448818895
11
5.8223983070866137
21
-4.4001809842519686
0
LINE
8
BLACK
6
CONTINUOUS
10
5.8223983070866137
20
-4.4001809842519686
11
5.8236784645669291
21
-4.3982651181102357
0
LINE
8
BLACK
6
CONTINUOUS
10
5.8236784645669291
20
-4.3982651181102357
11
5.8255943307086611
21
-4.3969849606299212
0
LINE
8
BLACK
6
CONTINUOUS
10
5.8255943307086611
20
-4.3969849606299212
11
5.8278542913385829
21
-4.3965354330708664
0
LINE
8
BLACK
6
CONTINUOUS
10
5.8278542913385829
20
-4.3965354330708664
11
5.8396653149606301
21
-4.3965354330708664
0
LINE
8
BLACK
6
CONTINUOUS
10
5.8396653149606301
20
-4.3965354330708664
11
5.8419252755905511
21
-4.3969849606299212
0
LINE
8
BLACK
6
CONTINUOUS
10
5.891137913385827
20
-4.3969849606299212
11
5.893053779527559
21
-4.3982651181102357
0
LINE
8
BLACK
6
CONTINUOUS
10
5.893053779527559
20
-4.3982651181102357
11
5.8943339370078736
21
-4.4001809842519686
0
LINE
8
BLACK
6
CONTINUOUS
10
5.8943339370078736
20
-4.4001809842519686
11
5.8947834645669293
21
-4.4024409448818895
0
LINE
8
BLACK
6
CONTINUOUS
10
5.8947834645669293
20
-4.4024409448818895
11
5.8947834645669293
21
-4.4575590551181099
0
LINE
8
BLACK
6
CONTINUOUS
10
5.8947834645669293
20
-4.4575590551181099
11
5.8943339370078736
21
-4.4598190157480317
0
LINE
8
BLACK
6
CONTINUOUS
10
5.8943339370078736
20
-4.4598190157480317
11
5.893053779527559
21
-4.4617348818897637
0
LINE
8
BLACK
6
CONTINUOUS
10
5.893053779527559
20
-4.4617348818897637
11
5.891137913385827
21
-4.4630150393700783
0
LINE
8
BLACK
6
CONTINUOUS
10
5.891137913385827
20
-4.4630150393700783
11
5.8888779527559052
21
-4.463464566929134
0
LINE
8
BLACK
6
CONTINUOUS
10
5.8888779527559052
20
-4.463464566929134
11
5.877066929133858
21
-4.463464566929134
0
LINE
8
BLACK
6
CONTINUOUS
10
5.877066929133858
20
-4.463464566929134
11
5.874806968503937
21
-4.4630150393700783
0
LINE
8
BLACK
6
CONTINUOUS
10
5.874806968503937
20
-4.4630150393700783
11
5.872891102362205
21
-4.4617348818897637
0
LINE
8
BLACK
6
CONTINUOUS
10
5.872891102362205
20
-4.4617348818897637
11
5.8716109448818896
21
-4.4598190157480317
0
LINE
8
BLACK
6
CONTINUOUS
10
5.8716109448818896
20
-4.4598190157480317
11
5.8711614173228348
21
-4.4575590551181099
0
LINE
8
BLACK
6
CONTINUOUS
10
5.8711614173228348
20
-4.4575590551181099
11
5.8711614173228348
21
-4.4024409448818895
0
LINE
8
BLACK
6
CONTINUOUS
10
5.8711614173228348
20
-4.4024409448818895
11
5.8716109448818896
21
-4.4001809842519686
0
LINE
8
BLACK
6
CONTINUOUS
10
5.8716109448818896
20
-4.4001809842519686
11
5.872891102362205
21
-4.3982651181102357
0
LINE
8
BLACK
6
CONTINUOUS
10
5.872891102362205
20
-4.3982651181102357
11
5.874806968503937
21
-4.3969849606299212
0
LINE
8
BLACK
6
CONTINUOUS
10
5.874806968503937
20
-4.3969849606299212
11
5.877066929133858
21
-4.3965354330708664
0
LINE
8
BLACK
6
CONTINUOUS
10
5.877066929133858
20
-4.3965354330708664
11
5.8888779527559052
21
-4.3965354330708664
0
LINE
8
BLACK
6
CONTINUOUS
10
5.8888779527559052
20
-4.3965354330708664
11
5.891137913385827
21
-4.3969849606299212
0
LINE
8
BLACK
6
CONTINUOUS
10
6.6143465748031494
20
-4.3898196062992128
11
6.6162624409448814
21
-4.3910997637795273
0
LINE
8
BLACK
6
CONTINUOUS
10
6.6162624409448814
20
-4.3910997637795273
11
6.6175425984251968
21
-4.3930156299212602
0
LINE
8
BLACK
6
CONTINUOUS
10
6.6175425984251968
20
-4.3930156299212602
11
6.6179921259842516
21
-4.3952755905511811
0
LINE
8
BLACK
6
CONTINUOUS
10
6.6179921259842516
20
-4.3952755905511811
11
6.6179921259842516
21
-4.4503937007874015
0
LINE
8
BLACK
6
CONTINUOUS
10
6.6179921259842516
20
-4.4503937007874015
11
6.6175425984251968
21
-4.4526536614173224
0
LINE
8
BLACK
6
CONTINUOUS
10
6.6175425984251968
20
-4.4526536614173224
11
6.6162624409448814
21
-4.4545695275590553
0
LINE
8
BLACK
6
CONTINUOUS
10
6.6162624409448814
20
-4.4545695275590553
11
6.6143465748031494
21
-4.4558496850393698
0
LINE
8
BLACK
6
CONTINUOUS
10
6.6143465748031494
20
-4.4558496850393698
11
6.6120866141732284
21
-4.4562992125984247
0
LINE
8
BLACK
6
CONTINUOUS
10
6.6120866141732284
20
-4.4562992125984247
11
6.6002755905511812
21
-4.4562992125984247
0
LINE
8
BLACK
6
CONTINUOUS
10
6.6002755905511812
20
-4.4562992125984247
11
6.5980156299212593
21
-4.4558496850393698
0
LINE
8
BLACK
6
CONTINUOUS
10
6.5980156299212593
20
-4.4558496850393698
11
6.5960997637795273
21
-4.4545695275590553
0
LINE
8
BLACK
6
CONTINUOUS
10
6.5960997637795273
20
-4.4545695275590553
11
6.5948196062992128
21
-4.4526536614173224
0
LINE
8
BLACK
6
CONTINUOUS
10
6.5948196062992128
20
-4.4526536614173224
11
6.5943700787401571
21
-4.4503937007874015
0
LINE
8
BLACK
6
CONTINUOUS
10
6.5943700787401571
20
-4.4503937007874015
11
6.5943700787401571
21
-4.3952755905511811
0
LINE
8
BLACK
6
CONTINUOUS
10
6.5943700787401571
20
-4.3952755905511811
11
6.5948196062992128
21
-4.3930156299212602
0
LINE
8
BLACK
6
CONTINUOUS
10
6.5948196062992128
20
-4.3930156299212602
11
6.5960997637795273
21
-4.3910997637795273
0
LINE
8
BLACK
6
CONTINUOUS
10
6.5960997637795273
20
-4.3910997637795273
11
6.5980156299212593
21
-4.3898196062992128
0
LINE
8
BLACK
6
CONTINUOUS
10
6.5980156299212593
20
-4.3898196062992128
11
6.6002755905511812
21
-4.3893700787401571
0
LINE
8
BLACK
6
CONTINUOUS
10
6.6002755905511812
20
-4.3893700787401571
11
6.6120866141732284
21
-4.3893700787401571
0
LINE
8
BLACK
6
CONTINUOUS
10
6.6120866141732284
20
-4.3893700787401571
11
6.6143465748031494
21
-4.3898196062992128
0
LINE
8
BLACK
6
CONTINUOUS
10
6.6635591732283466
20
-4.3898196062992128
11
6.6654750393700786
21
-4.3910997637795273
0
LINE
8
BLACK
6
CONTINUOUS
10
6.6654750393700786
20
-4.3910997637795273
11
6.666755196850394
21
-4.3930156299212602
0
LINE
8
BLACK
6
CONTINUOUS
10
6.666755196850394
20
-4.3930156299212602
11
6.6672047244094488
21
-4.3952755905511811
0
LINE
8
BLACK
6
CONTINUOUS
10
6.6672047244094488
20
-4.3952755905511811
11
6.6672047244094488
21
-4.4503937007874015
0
LINE
8
BLACK
6
CONTINUOUS
10
6.6672047244094488
20
-4.4503937007874015
11
6.666755196850394
21
-4.4526536614173224
0
LINE
8
BLACK
6
CONTINUOUS
10
6.666755196850394
20
-4.4526536614173224
11
6.6654750393700786
21
-4.4545695275590553
0
LINE
8
BLACK
6
CONTINUOUS
10
6.6654750393700786
20
-4.4545695275590553
11
6.6635591732283466
21
-4.4558496850393698
0
LINE
8
BLACK
6
CONTINUOUS
10
6.6635591732283466
20
-4.4558496850393698
11
6.6612992125984247
21
-4.4562992125984247
0
LINE
8
BLACK
6
CONTINUOUS
10
6.6612992125984247
20
-4.4562992125984247
11
6.6494881889763775
21
-4.4562992125984247
0
LINE
8
BLACK
6
CONTINUOUS
10
6.6494881889763775
20
-4.4562992125984247
11
6.6472282283464565
21
-4.4558496850393698
0
LINE
8
BLACK
6
CONTINUOUS
10
6.6472282283464565
20
-4.4558496850393698
11
6.6453123622047245
21
-4.4545695275590553
0
LINE
8
BLACK
6
CONTINUOUS
10
6.6453123622047245
20
-4.4545695275590553
11
6.6440322047244091
21
-4.4526536614173224
0
LINE
8
BLACK
6
CONTINUOUS
10
6.6440322047244091
20
-4.4526536614173224
11
6.6435826771653543
21
-4.4503937007874015
0
LINE
8
BLACK
6
CONTINUOUS
10
6.6435826771653543
20
-4.4503937007874015
11
6.6435826771653543
21
-4.3952755905511811
0
LINE
8
BLACK
6
CONTINUOUS
10
6.6435826771653543
20
-4.3952755905511811
11
6.6440322047244091
21
-4.3930156299212602
0
LINE
8
BLACK
6
CONTINUOUS
10
6.6440322047244091
20
-4.3930156299212602
11
6.6453123622047245
21
-4.3910997637795273
0
LINE
8
BLACK
6
CONTINUOUS
10
6.6453123622047245
20
-4.3910997637795273
11
6.6472282283464565
21
-4.3898196062992128
0
LINE
8
BLACK
6
CONTINUOUS
10
6.6472282283464565
20
-4.3898196062992128
11
6.6494881889763775
21
-4.3893700787401571
0
LINE
8
BLACK
6
CONTINUOUS
10
6.6494881889763775
20
-4.3893700787401571
11
6.6612992125984247
21
-4.3893700787401571
0
LINE
8
BLACK
6
CONTINUOUS
10
6.6612992125984247
20
-4.3893700787401571
11
6.6635591732283466
21
-4.3898196062992128
0
LINE
8
BLACK
6
CONTINUOUS
10
6.7127717716535429
20
-4.3898196062992128
11
6.7146876377952758
21
-4.3910997637795273
0
LINE
8
BLACK
6
CONTINUOUS
10
6.7146876377952758
20
-4.3910997637795273
11
6.7159677952755903
21
-4.3930156299212602
0
LINE
8
BLACK
6
CONTINUOUS
10
6.7159677952755903
20
-4.3930156299212602
11
6.7164173228346451
21
-4.3952755905511811
0
LINE
8
BLACK
6
CONTINUOUS
10
6.7164173228346451
20
-4.3952755905511811
11
6.7164173228346451
21
-4.4503937007874015
0
LINE
8
BLACK
6
CONTINUOUS
10
6.7164173228346451
20
-4.4503937007874015
11
6.7159677952755903
21
-4.4526536614173224
0
LINE
8
BLACK
6
CONTINUOUS
10
6.7159677952755903
20
-4.4526536614173224
11
6.7146876377952758
21
-4.4545695275590553
0
LINE
8
BLACK
6
CONTINUOUS
10
6.7146876377952758
20
-4.4545695275590553
11
6.7127717716535429
21
-4.4558496850393698
0
LINE
8
BLACK
6
CONTINUOUS
10
6.7127717716535429
20
-4.4558496850393698
11
6.7105118110236219
21
-4.4562992125984247
0
LINE
8
BLACK
6
CONTINUOUS
10
6.7105118110236219
20
-4.4562992125984247
11
6.6987007874015747
21
-4.4562992125984247
0
LINE
8
BLACK
6
CONTINUOUS
10
6.6987007874015747
20
-4.4562992125984247
11
6.6964408267716538
21
-4.4558496850393698
0
LINE
8
BLACK
6
CONTINUOUS
10
6.6964408267716538
20
-4.4558496850393698
11
6.6945249606299209
21
-4.4545695275590553
0
LINE
8
BLACK
6
CONTINUOUS
10
6.6945249606299209
20
-4.4545695275590553
11
6.6932448031496063
21
-4.4526536614173224
0
LINE
8
BLACK
6
CONTINUOUS
10
6.6932448031496063
20
-4.4526536614173224
11
6.6927952755905507
21
-4.4503937007874015
0
LINE
8
BLACK
6
CONTINUOUS
10
6.6927952755905507
20
-4.4503937007874015
11
6.6927952755905507
21
-4.3952755905511811
0
LINE
8
BLACK
6
CONTINUOUS
10
6.6927952755905507
20
-4.3952755905511811
11
6.6932448031496063
21
-4.3930156299212602
0
LINE
8
BLACK
6
CONTINUOUS
10
6.6932448031496063
20
-4.3930156299212602
11
6.6945249606299209
21
-4.3910997637795273
0
LINE
8
BLACK
6
CONTINUOUS
10
6.6945249606299209
20
-4.3910997637795273
11
6.6964408267716538
21
-4.3898196062992128
0
LINE
8
BLACK
6
CONTINUOUS
10
6.6964408267716538
20
-4.3898196062992128
11
6.6987007874015747
21
-4.3893700787401571
0
LINE
8
BLACK
6
CONTINUOUS
10
6.6987007874015747
20
-4.3893700787401571
11
6.7105118110236219
21
-4.3893700787401571
0
LINE
8
BLACK
6
CONTINUOUS
10
6.7105118110236219
20
-4.3893700787401571
11
6.7127717716535429
21
-4.3898196062992128
0
LINE
8
BLACK
6
CONTINUOUS
10
6.7619843700787401
20
-4.3898196062992128
11
6.7639002362204721
21
-4.3910997637795273
0
LINE
8
BLACK
6
CONTINUOUS
10
6.7639002362204721
20
-4.3910997637795273
11
6.7651803937007875
21
-4.3930156299212602
0
LINE
8
BLACK
6
CONTINUOUS
10
6.7651803937007875
20
-4.3930156299212602
11
6.7656299212598423
21
-4.3952755905511811
0
LINE
8
BLACK
6
CONTINUOUS
10
6.7656299212598423
20
-4.3952755905511811
11
6.7656299212598423
21
-4.4503937007874015
0
LINE
8
BLACK
6
CONTINUOUS
10
6.7656299212598423
20
-4.4503937007874015
11
6.7651803937007875
21
-4.4526536614173224
0
LINE
8
BLACK
6
CONTINUOUS
10
6.7651803937007875
20
-4.4526536614173224
11
6.7639002362204721
21
-4.4545695275590553
0
LINE
8
BLACK
6
CONTINUOUS
10
6.7639002362204721
20
-4.4545695275590553
11
6.7619843700787401
21
-4.4558496850393698
0
LINE
8
BLACK
6
CONTINUOUS
10
6.7619843700787401
20
-4.4558496850393698
11
6.7597244094488191
21
-4.4562992125984247
0
LINE
8
BLACK
6
CONTINUOUS
10
6.7597244094488191
20
-4.4562992125984247
11
6.7479133858267719
21
-4.4562992125984247
0
LINE
8
BLACK
6
CONTINUOUS
10
6.7479133858267719
20
-4.4562992125984247
11
6.7456534251968501
21
-4.4558496850393698
0
LINE
8
BLACK
6
CONTINUOUS
10
6.7456534251968501
20
-4.4558496850393698
11
6.7437375590551181
21
-4.4545695275590553
0
LINE
8
BLACK
6
CONTINUOUS
10
6.7437375590551181
20
-4.4545695275590553
11
6.7424574015748027
21
-4.4526536614173224
0
LINE
8
BLACK
6
CONTINUOUS
10
6.7424574015748027
20
-4.4526536614173224
11
6.7420078740157479
21
-4.4503937007874015
0
LINE
8
BLACK
6
CONTINUOUS
10
6.7420078740157479
20
-4.4503937007874015
11
6.7420078740157479
21
-4.3952755905511811
0
LINE
8
BLACK
6
CONTINUOUS
10
6.7420078740157479
20
-4.3952755905511811
11
6.7424574015748027
21
-4.3930156299212602
0
LINE
8
BLACK
6
CONTINUOUS
10
6.7424574015748027
20
-4.3930156299212602
11
6.7437375590551181
21
-4.3910997637795273
0
LINE
8
BLACK
6
CONTINUOUS
10
6.7437375590551181
20
-4.3910997637795273
11
6.7456534251968501
21
-4.3898196062992128
0
LINE
8
BLACK
6
CONTINUOUS
10
6.7456534251968501
20
-4.3898196062992128
11
6.7479133858267719
21
-4.3893700787401571
0
LINE
8
BLACK
6
CONTINUOUS
10
6.7479133858267719
20
-4.3893700787401571
11
6.7597244094488191
21
-4.3893700787401571
0
LINE
8
BLACK
6
CONTINUOUS
10
6.7597244094488191
20
-4.3893700787401571
11
6.7619843700787401
21
-4.3898196062992128
0
LINE
8
BLACK
6
CONTINUOUS
10
4.4297402755905511
20
-4.3869849606299214
11
4.4316561417322831
21
-4.3882651181102359
0
LINE
8
BLACK
6
CONTINUOUS
10
4.4316561417322831
20
-4.3882651181102359
11
4.4329362992125985
21
-4.3901809842519688
0
LINE
8
BLACK
6
CONTINUOUS
10
4.4329362992125985
20
-4.3901809842519688
11
4.4333858267716533
21
-4.3924409448818897
0
LINE
8
BLACK
6
CONTINUOUS
10
4.4333858267716533
20
-4.3924409448818897
11
4.4333858267716533
21
-4.4475590551181101
0
LINE
8
BLACK
6
CONTINUOUS
10
4.4333858267716533
20
-4.4475590551181101
11
4.4329362992125985
21
-4.4498190157480311
0
LINE
8
BLACK
6
CONTINUOUS
10
4.4329362992125985
20
-4.4498190157480311
11
4.4316561417322831
21
-4.451734881889764
0
LINE
8
BLACK
6
CONTINUOUS
10
4.4316561417322831
20
-4.451734881889764
11
4.4297402755905511
21
-4.4530150393700785
0
LINE
8
BLACK
6
CONTINUOUS
10
4.4297402755905511
20
-4.4530150393700785
11
4.4274803149606301
21
-4.4534645669291342
0
LINE
8
BLACK
6
CONTINUOUS
10
4.4274803149606301
20
-4.4534645669291342
11
4.4156692913385829
21
-4.4534645669291342
0
LINE
8
BLACK
6
CONTINUOUS
10
4.4156692913385829
20
-4.4534645669291342
11
4.413409330708661
21
-4.4530150393700785
0
LINE
8
BLACK
6
CONTINUOUS
10
4.413409330708661
20
-4.4530150393700785
11
4.411493464566929
21
-4.451734881889764
0
LINE
8
BLACK
6
CONTINUOUS
10
4.411493464566929
20
-4.451734881889764
11
4.4102133070866136
21
-4.4498190157480311
0
LINE
8
BLACK
6
CONTINUOUS
10
4.4102133070866136
20
-4.4498190157480311
11
4.4097637795275588
21
-4.4475590551181101
0
LINE
8
BLACK
6
CONTINUOUS
10
4.4097637795275588
20
-4.4475590551181101
11
4.4097637795275588
21
-4.3924409448818897
0
LINE
8
BLACK
6
CONTINUOUS
10
4.4097637795275588
20
-4.3924409448818897
11
4.4102133070866136
21
-4.3901809842519688
0
LINE
8
BLACK
6
CONTINUOUS
10
4.4102133070866136
20
-4.3901809842519688
11
4.411493464566929
21
-4.3882651181102359
0
LINE
8
BLACK
6
CONTINUOUS
10
4.411493464566929
20
-4.3882651181102359
11
4.413409330708661
21
-4.3869849606299214
0
LINE
8
BLACK
6
CONTINUOUS
10
4.413409330708661
20
-4.3869849606299214
11
4.4156692913385829
21
-4.3865354330708657
0
LINE
8
BLACK
6
CONTINUOUS
10
4.4156692913385829
20
-4.3865354330708657
11
4.4274803149606301
21
-4.3865354330708657
0
LINE
8
BLACK
6
CONTINUOUS
10
4.4274803149606301
20
-4.3865354330708657
11
4.4297402755905511
21
-4.3869849606299214
0
LINE
8
BLACK
6
CONTINUOUS
10
4.4789528740157483
20
-4.3869849606299214
11
4.4808687401574803
21
-4.3882651181102359
0
LINE
8
BLACK
6
CONTINUOUS
10
4.4808687401574803
20
-4.3882651181102359
11
4.4821488976377948
21
-4.3901809842519688
0
LINE
8
BLACK
6
CONTINUOUS
10
4.4821488976377948
20
-4.3901809842519688
11
4.4825984251968505
21
-4.3924409448818897
0
LINE
8
BLACK
6
CONTINUOUS
10
4.4825984251968505
20
-4.3924409448818897
11
4.4825984251968505
21
-4.4475590551181101
0
LINE
8
BLACK
6
CONTINUOUS
10
4.4825984251968505
20
-4.4475590551181101
11
4.4821488976377948
21
-4.4498190157480311
0
LINE
8
BLACK
6
CONTINUOUS
10
4.4821488976377948
20
-4.4498190157480311
11
4.4808687401574803
21
-4.451734881889764
0
LINE
8
BLACK
6
CONTINUOUS
10
4.4808687401574803
20
-4.451734881889764
11
4.4789528740157483
21
-4.4530150393700785
0
LINE
8
BLACK
6
CONTINUOUS
10
4.4789528740157483
20
-4.4530150393700785
11
4.4766929133858264
21
-4.4534645669291342
0
LINE
8
BLACK
6
CONTINUOUS
10
4.4766929133858264
20
-4.4534645669291342
11
4.4648818897637792
21
-4.4534645669291342
0
LINE
8
BLACK
6
CONTINUOUS
10
4.4648818897637792
20
-4.4534645669291342
11
4.4626219291338582
21
-4.4530150393700785
0
LINE
8
BLACK
6
CONTINUOUS
10
4.4626219291338582
20
-4.4530150393700785
11
4.4607060629921262
21
-4.451734881889764
0
LINE
8
BLACK
6
CONTINUOUS
10
4.4607060629921262
20
-4.451734881889764
11
4.4594259055118108
21
-4.4498190157480311
0
LINE
8
BLACK
6
CONTINUOUS
10
4.4594259055118108
20
-4.4498190157480311
11
4.458976377952756
21
-4.4475590551181101
0
LINE
8
BLACK
6
CONTINUOUS
10
4.458976377952756
20
-4.4475590551181101
11
4.458976377952756
21
-4.3924409448818897
0
LINE
8
BLACK
6
CONTINUOUS
10
4.458976377952756
20
-4.3924409448818897
11
4.4594259055118108
21
-4.3901809842519688
0
LINE
8
BLACK
6
CONTINUOUS
10
4.4594259055118108
20
-4.3901809842519688
11
4.4607060629921262
21
-4.3882651181102359
0
LINE
8
BLACK
6
CONTINUOUS
10
4.4607060629921262
20
-4.3882651181102359
11
4.4626219291338582
21
-4.3869849606299214
0
LINE
8
BLACK
6
CONTINUOUS
10
4.4626219291338582
20
-4.3869849606299214
11
4.4648818897637792
21
-4.3865354330708657
0
LINE
8
BLACK
6
CONTINUOUS
10
4.4648818897637792
20
-4.3865354330708657
11
4.4766929133858264
21
-4.3865354330708657
0
LINE
8
BLACK
6
CONTINUOUS
10
4.4766929133858264
20
-4.3865354330708657
11
4.4789528740157483
21
-4.3869849606299214
0
LINE
8
BLACK
6
CONTINUOUS
10
4.5281654724409446
20
-4.3869849606299214
11
4.5300813385826775
21
-4.3882651181102359
0
LINE
8
BLACK
6
CONTINUOUS
10
4.5300813385826775
20
-4.3882651181102359
11
4.531361496062992
21
-4.3901809842519688
0
LINE
8
BLACK
6
CONTINUOUS
10
4.531361496062992
20
-4.3901809842519688
11
4.5318110236220468
21
-4.3924409448818897
0
LINE
8
BLACK
6
CONTINUOUS
10
4.5318110236220468
20
-4.3924409448818897
11
4.5318110236220468
21
-4.4475590551181101
0
LINE
8
BLACK
6
CONTINUOUS
10
4.5318110236220468
20
-4.4475590551181101
11
4.531361496062992
21
-4.4498190157480311
0
LINE
8
BLACK
6
CONTINUOUS
10
4.531361496062992
20
-4.4498190157480311
11
4.5300813385826775
21
-4.451734881889764
0
LINE
8
BLACK
6
CONTINUOUS
10
4.5300813385826775
20
-4.451734881889764
11
4.5281654724409446
21
-4.4530150393700785
0
LINE
8
BLACK
6
CONTINUOUS
10
4.5281654724409446
20
-4.4530150393700785
11
4.5259055118110236
21
-4.4534645669291342
0
LINE
8
BLACK
6
CONTINUOUS
10
4.5259055118110236
20
-4.4534645669291342
11
4.5140944881889764
21
-4.4534645669291342
0
LINE
8
BLACK
6
CONTINUOUS
10
4.5140944881889764
20
-4.4534645669291342
11
4.5118345275590555
21
-4.4530150393700785
0
LINE
8
BLACK
6
CONTINUOUS
10
4.5118345275590555
20
-4.4530150393700785
11
4.5099186614173226
21
-4.451734881889764
0
LINE
8
BLACK
6
CONTINUOUS
10
4.5099186614173226
20
-4.451734881889764
11
4.508638503937008
21
-4.4498190157480311
0
LINE
8
BLACK
6
CONTINUOUS
10
4.508638503937008
20
-4.4498190157480311
11
4.5081889763779524
21
-4.4475590551181101
0
LINE
8
BLACK
6
CONTINUOUS
10
4.5081889763779524
20
-4.4475590551181101
11
4.5081889763779524
21
-4.3924409448818897
0
LINE
8
BLACK
6
CONTINUOUS
10
4.5081889763779524
20
-4.3924409448818897
11
4.508638503937008
21
-4.3901809842519688
0
LINE
8
BLACK
6
CONTINUOUS
10
4.508638503937008
20
-4.3901809842519688
11
4.5099186614173226
21
-4.3882651181102359
0
LINE
8
BLACK
6
CONTINUOUS
10
4.5099186614173226
20
-4.3882651181102359
11
4.5118345275590555
21
-4.3869849606299214
0
LINE
8
BLACK
6
CONTINUOUS
10
4.5118345275590555
20
-4.3869849606299214
11
4.5140944881889764
21
-4.3865354330708657
0
LINE
8
BLACK
6
CONTINUOUS
10
4.5140944881889764
20
-4.3865354330708657
11
4.5259055118110236
21
-4.3865354330708657
0
LINE
8
BLACK
6
CONTINUOUS
10
4.5259055118110236
20
-4.3865354330708657
11
4.5281654724409446
21
-4.3869849606299214
0
LINE
8
BLACK
6
CONTINUOUS
10
4.5773780708661418
20
-4.3869849606299214
11
4.5792939370078738
21
-4.3882651181102359
0
LINE
8
BLACK
6
CONTINUOUS
10
4.5792939370078738
20
-4.3882651181102359
11
4.5805740944881892
21
-4.3901809842519688
0
LINE
8
BLACK
6
CONTINUOUS
10
4.5805740944881892
20
-4.3901809842519688
11
4.581023622047244
21
-4.3924409448818897
0
LINE
8
BLACK
6
CONTINUOUS
10
4.581023622047244
20
-4.3924409448818897
11
4.581023622047244
21
-4.4475590551181101
0
LINE
8
BLACK
6
CONTINUOUS
10
4.581023622047244
20
-4.4475590551181101
11
4.5805740944881892
21
-4.4498190157480311
0
LINE
8
BLACK
6
CONTINUOUS
10
4.5805740944881892
20
-4.4498190157480311
11
4.5792939370078738
21
-4.451734881889764
0
LINE
8
BLACK
6
CONTINUOUS
10
4.5792939370078738
20
-4.451734881889764
11
4.5773780708661418
21
-4.4530150393700785
0
LINE
8
BLACK
6
CONTINUOUS
10
4.5773780708661418
20
-4.4530150393700785
11
4.5751181102362199
21
-4.4534645669291342
0
LINE
8
BLACK
6
CONTINUOUS
10
4.5751181102362199
20
-4.4534645669291342
11
4.5633070866141727
21
-4.4534645669291342
0
LINE
8
BLACK
6
CONTINUOUS
10
4.5633070866141727
20
-4.4534645669291342
11
4.5610471259842518
21
-4.4530150393700785
0
LINE
8
BLACK
6
CONTINUOUS
10
4.5610471259842518
20
-4.4530150393700785
11
4.5591312598425198
21
-4.451734881889764
0
LINE
8
BLACK
6
CONTINUOUS
10
4.5591312598425198
20
-4.451734881889764
11
4.5578511023622044
21
-4.4498190157480311
0
LINE
8
BLACK
6
CONTINUOUS
10
4.5578511023622044
20
-4.4498190157480311
11
4.5574015748031496
21
-4.4475590551181101
0
LINE
8
BLACK
6
CONTINUOUS
10
4.5574015748031496
20
-4.4475590551181101
11
4.5574015748031496
21
-4.3924409448818897
0
LINE
8
BLACK
6
CONTINUOUS
10
4.5574015748031496
20
-4.3924409448818897
11
4.5578511023622044
21
-4.3901809842519688
0
LINE
8
BLACK
6
CONTINUOUS
10
4.5578511023622044
20
-4.3901809842519688
11
4.5591312598425198
21
-4.3882651181102359
0
LINE
8
BLACK
6
CONTINUOUS
10
4.5591312598425198
20
-4.3882651181102359
11
4.5610471259842518
21
-4.3869849606299214
0
LINE
8
BLACK
6
CONTINUOUS
10
4.5610471259842518
20
-4.3869849606299214
11
4.5633070866141727
21
-4.3865354330708657
0
LINE
8
BLACK
6
CONTINUOUS
10
4.5633070866141727
20
-4.3865354330708657
11
4.5751181102362199
21
-4.3865354330708657
0
LINE
8
BLACK
6
CONTINUOUS
10
4.5751181102362199
20
-4.3865354330708657
11
4.5773780708661418
21
-4.3869849606299214
0
LINE
8
BLACK
6
CONTINUOUS
10
4.6265906692913381
20
-4.3869849606299214
11
4.628506535433071
21
-4.3882651181102359
0
LINE
8
BLACK
6
CONTINUOUS
10
4.628506535433071
20
-4.3882651181102359
11
4.6297866929133855
21
-4.3901809842519688
0
LINE
8
BLACK
6
CONTINUOUS
10
4.6297866929133855
20
-4.3901809842519688
11
4.6302362204724412
21
-4.3924409448818897
0
LINE
8
BLACK
6
CONTINUOUS
10
4.6302362204724412
20
-4.3924409448818897
11
4.6302362204724412
21
-4.4475590551181101
0
LINE
8
BLACK
6
CONTINUOUS
10
4.6302362204724412
20
-4.4475590551181101
11
4.6297866929133855
21
-4.4498190157480311
0
LINE
8
BLACK
6
CONTINUOUS
10
4.6297866929133855
20
-4.4498190157480311
11
4.628506535433071
21
-4.451734881889764
0
LINE
8
BLACK
6
CONTINUOUS
10
4.628506535433071
20
-4.451734881889764
11
4.6265906692913381
21
-4.4530150393700785
0
LINE
8
BLACK
6
CONTINUOUS
10
4.6265906692913381
20
-4.4530150393700785
11
4.6243307086614172
21
-4.4534645669291342
0
LINE
8
BLACK
6
CONTINUOUS
10
4.6243307086614172
20
-4.4534645669291342
11
4.6125196850393699
21
-4.4534645669291342
0
LINE
8
BLACK
6
CONTINUOUS
10
4.6125196850393699
20
-4.4534645669291342
11
4.610259724409449
21
-4.4530150393700785
0
LINE
8
BLACK
6
CONTINUOUS
10
4.610259724409449
20
-4.4530150393700785
11
4.6083438582677161
21
-4.451734881889764
0
LINE
8
BLACK
6
CONTINUOUS
10
4.6083438582677161
20
-4.451734881889764
11
4.6070637007874016
21
-4.4498190157480311
0
LINE
8
BLACK
6
CONTINUOUS
10
4.6070637007874016
20
-4.4498190157480311
11
4.6066141732283468
21
-4.4475590551181101
0
LINE
8
BLACK
6
CONTINUOUS
10
4.6066141732283468
20
-4.4475590551181101
11
4.6066141732283468
21
-4.3924409448818897
0
LINE
8
BLACK
6
CONTINUOUS
10
4.6066141732283468
20
-4.3924409448818897
11
4.6070637007874016
21
-4.3901809842519688
0
LINE
8
BLACK
6
CONTINUOUS
10
4.6070637007874016
20
-4.3901809842519688
11
4.6083438582677161
21
-4.3882651181102359
0
LINE
8
BLACK
6
CONTINUOUS
10
4.6083438582677161
20
-4.3882651181102359
11
4.610259724409449
21
-4.3869849606299214
0
LINE
8
BLACK
6
CONTINUOUS
10
4.610259724409449
20
-4.3869849606299214
11
4.6125196850393699
21
-4.3865354330708657
0
LINE
8
BLACK
6
CONTINUOUS
10
4.6125196850393699
20
-4.3865354330708657
11
4.6243307086614172
21
-4.3865354330708657
0
LINE
8
BLACK
6
CONTINUOUS
10
4.6243307086614172
20
-4.3865354330708657
11
4.6265906692913381
21
-4.3869849606299214
0
LINE
8
BLACK
6
CONTINUOUS
10
4.6758032677165353
20
-4.3869849606299214
11
4.6777191338582673
21
-4.3882651181102359
0
LINE
8
BLACK
6
CONTINUOUS
10
4.6777191338582673
20
-4.3882651181102359
11
4.6789992913385827
21
-4.3901809842519688
0
LINE
8
BLACK
6
CONTINUOUS
10
4.6789992913385827
20
-4.3901809842519688
11
4.6794488188976375
21
-4.3924409448818897
0
LINE
8
BLACK
6
CONTINUOUS
10
4.6794488188976375
20
-4.3924409448818897
11
4.6794488188976375
21
-4.4475590551181101
0
LINE
8
BLACK
6
CONTINUOUS
10
4.6794488188976375
20
-4.4475590551181101
11
4.6789992913385827
21
-4.4498190157480311
0
LINE
8
BLACK
6
CONTINUOUS
10
4.6789992913385827
20
-4.4498190157480311
11
4.6777191338582673
21
-4.451734881889764
0
LINE
8
BLACK
6
CONTINUOUS
10
4.6777191338582673
20
-4.451734881889764
11
4.6758032677165353
21
-4.4530150393700785
0
LINE
8
BLACK
6
CONTINUOUS
10
4.6758032677165353
20
-4.4530150393700785
11
4.6735433070866144
21
-4.4534645669291342
0
LINE
8
BLACK
6
CONTINUOUS
10
4.6735433070866144
20
-4.4534645669291342
11
4.6617322834645671
21
-4.4534645669291342
0
LINE
8
BLACK
6
CONTINUOUS
10
4.6617322834645671
20
-4.4534645669291342
11
4.6594723228346453
21
-4.4530150393700785
0
LINE
8
BLACK
6
CONTINUOUS
10
4.6594723228346453
20
-4.4530150393700785
11
4.6575564566929133
21
-4.451734881889764
0
LINE
8
BLACK
6
CONTINUOUS
10
4.6575564566929133
20
-4.451734881889764
11
4.6562762992125979
21
-4.4498190157480311
0
LINE
8
BLACK
6
CONTINUOUS
10
4.6562762992125979
20
-4.4498190157480311
11
4.6558267716535431
21
-4.4475590551181101
0
LINE
8
BLACK
6
CONTINUOUS
10
4.6558267716535431
20
-4.4475590551181101
11
4.6558267716535431
21
-4.3924409448818897
0
LINE
8
BLACK
6
CONTINUOUS
10
4.6558267716535431
20
-4.3924409448818897
11
4.6562762992125979
21
-4.3901809842519688
0
LINE
8
BLACK
6
CONTINUOUS
10
4.6562762992125979
20
-4.3901809842519688
11
4.6575564566929133
21
-4.3882651181102359
0
LINE
8
BLACK
6
CONTINUOUS
10
4.6575564566929133
20
-4.3882651181102359
11
4.6594723228346453
21
-4.3869849606299214
0
LINE
8
BLACK
6
CONTINUOUS
10
4.6594723228346453
20
-4.3869849606299214
11
4.6617322834645671
21
-4.3865354330708657
0
LINE
8
BLACK
6
CONTINUOUS
10
4.6617322834645671
20
-4.3865354330708657
11
4.6735433070866144
21
-4.3865354330708657
0
LINE
8
BLACK
6
CONTINUOUS
10
4.6735433070866144
20
-4.3865354330708657
11
4.6758032677165353
21
-4.3869849606299214
0
LINE
8
BLACK
6
CONTINUOUS
10
4.7250158661417325
20
-4.3869849606299214
11
4.7269317322834645
21
-4.3882651181102359
0
LINE
8
BLACK
6
CONTINUOUS
10
4.7269317322834645
20
-4.3882651181102359
11
4.728211889763779
21
-4.3901809842519688
0
LINE
8
BLACK
6
CONTINUOUS
10
4.728211889763779
20
-4.3901809842519688
11
4.7286614173228347
21
-4.3924409448818897
0
LINE
8
BLACK
6
CONTINUOUS
10
4.7286614173228347
20
-4.3924409448818897
11
4.7286614173228347
21
-4.4475590551181101
0
LINE
8
BLACK
6
CONTINUOUS
10
4.7286614173228347
20
-4.4475590551181101
11
4.728211889763779
21
-4.4498190157480311
0
LINE
8
BLACK
6
CONTINUOUS
10
4.728211889763779
20
-4.4498190157480311
11
4.7269317322834645
21
-4.451734881889764
0
LINE
8
BLACK
6
CONTINUOUS
10
4.7269317322834645
20
-4.451734881889764
11
4.7250158661417325
21
-4.4530150393700785
0
LINE
8
BLACK
6
CONTINUOUS
10
4.7250158661417325
20
-4.4530150393700785
11
4.7227559055118107
21
-4.4534645669291342
0
LINE
8
BLACK
6
CONTINUOUS
10
4.7227559055118107
20
-4.4534645669291342
11
4.7109448818897635
21
-4.4534645669291342
0
LINE
8
BLACK
6
CONTINUOUS
10
4.7109448818897635
20
-4.4534645669291342
11
4.7086849212598425
21
-4.4530150393700785
0
LINE
8
BLACK
6
CONTINUOUS
10
4.7086849212598425
20
-4.4530150393700785
11
4.7067690551181105
21
-4.451734881889764
0
LINE
8
BLACK
6
CONTINUOUS
10
4.7067690551181105
20
-4.451734881889764
11
4.7054888976377951
21
-4.4498190157480311
0
LINE
8
BLACK
6
CONTINUOUS
10
4.7054888976377951
20
-4.4498190157480311
11
4.7050393700787403
21
-4.4475590551181101
0
LINE
8
BLACK
6
CONTINUOUS
10
4.7050393700787403
20
-4.4475590551181101
11
4.7050393700787403
21
-4.3924409448818897
0
LINE
8
BLACK
6
CONTINUOUS
10
4.7050393700787403
20
-4.3924409448818897
11
4.7054888976377951
21
-4.3901809842519688
0
LINE
8
BLACK
6
CONTINUOUS
10
4.7054888976377951
20
-4.3901809842519688
11
4.7067690551181105
21
-4.3882651181102359
0
LINE
8
BLACK
6
CONTINUOUS
10
4.7067690551181105
20
-4.3882651181102359
11
4.7086849212598425
21
-4.3869849606299214
0
LINE
8
BLACK
6
CONTINUOUS
10
4.7086849212598425
20
-4.3869849606299214
11
4.7109448818897635
21
-4.3865354330708657
0
LINE
8
BLACK
6
CONTINUOUS
10
4.7109448818897635
20
-4.3865354330708657
11
4.7227559055118107
21
-4.3865354330708657
0
LINE
8
BLACK
6
CONTINUOUS
10
4.7227559055118107
20
-4.3865354330708657
11
4.7250158661417325
21
-4.3869849606299214
0
LINE
8
BLACK
6
CONTINUOUS
10
4.7742284645669288
20
-4.3869849606299214
11
4.7761443307086617
21
-4.3882651181102359
0
LINE
8
BLACK
6
CONTINUOUS
10
4.7761443307086617
20
-4.3882651181102359
11
4.7774244881889762
21
-4.3901809842519688
0
LINE
8
BLACK
6
CONTINUOUS
10
4.7774244881889762
20
-4.3901809842519688
11
4.7778740157480311
21
-4.3924409448818897
0
LINE
8
BLACK
6
CONTINUOUS
10
4.7778740157480311
20
-4.3924409448818897
11
4.7778740157480311
21
-4.4475590551181101
0
LINE
8
BLACK
6
CONTINUOUS
10
4.7778740157480311
20
-4.4475590551181101
11
4.7774244881889762
21
-4.4498190157480311
0
LINE
8
BLACK
6
CONTINUOUS
10
4.7774244881889762
20
-4.4498190157480311
11
4.7761443307086617
21
-4.451734881889764
0
LINE
8
BLACK
6
CONTINUOUS
10
4.7761443307086617
20
-4.451734881889764
11
4.7742284645669288
21
-4.4530150393700785
0
LINE
8
BLACK
6
CONTINUOUS
10
4.7742284645669288
20
-4.4530150393700785
11
4.7719685039370079
21
-4.4534645669291342
0
LINE
8
BLACK
6
CONTINUOUS
10
4.7719685039370079
20
-4.4534645669291342
11
4.7601574803149607
21
-4.4534645669291342
0
LINE
8
BLACK
6
CONTINUOUS
10
4.7601574803149607
20
-4.4534645669291342
11
4.7578975196850388
21
-4.4530150393700785
0
LINE
8
BLACK
6
CONTINUOUS
10
4.7578975196850388
20
-4.4530150393700785
11
4.7559816535433068
21
-4.451734881889764
0
LINE
8
BLACK
6
CONTINUOUS
10
4.7559816535433068
20
-4.451734881889764
11
4.7547014960629923
21
-4.4498190157480311
0
LINE
8
BLACK
6
CONTINUOUS
10
4.7547014960629923
20
-4.4498190157480311
11
4.7542519685039366
21
-4.4475590551181101
0
LINE
8
BLACK
6
CONTINUOUS
10
4.7542519685039366
20
-4.4475590551181101
11
4.7542519685039366
21
-4.3924409448818897
0
LINE
8
BLACK
6
CONTINUOUS
10
4.7542519685039366
20
-4.3924409448818897
11
4.7547014960629923
21
-4.3901809842519688
0
LINE
8
BLACK
6
CONTINUOUS
10
4.7547014960629923
20
-4.3901809842519688
11
4.7559816535433068
21
-4.3882651181102359
0
LINE
8
BLACK
6
CONTINUOUS
10
4.7559816535433068
20
-4.3882651181102359
11
4.7578975196850388
21
-4.3869849606299214
0
LINE
8
BLACK
6
CONTINUOUS
10
4.7578975196850388
20
-4.3869849606299214
11
4.7601574803149607
21
-4.3865354330708657
0
LINE
8
BLACK
6
CONTINUOUS
10
4.7601574803149607
20
-4.3865354330708657
11
4.7719685039370079
21
-4.3865354330708657
0
LINE
8
BLACK
6
CONTINUOUS
10
4.7719685039370079
20
-4.3865354330708657
11
4.7742284645669288
21
-4.3869849606299214
0
LINE
8
BLACK
6
CONTINUOUS
10
4.823441062992126
20
-4.3869849606299214
11
4.8253569291338581
21
-4.3882651181102359
0
LINE
8
BLACK
6
CONTINUOUS
10
4.8253569291338581
20
-4.3882651181102359
11
4.8266370866141735
21
-4.3901809842519688
0
LINE
8
BLACK
6
CONTINUOUS
10
4.8266370866141735
20
-4.3901809842519688
11
4.8270866141732283
21
-4.3924409448818897
0
LINE
8
BLACK
6
CONTINUOUS
10
4.8270866141732283
20
-4.3924409448818897
11
4.8270866141732283
21
-4.4475590551181101
0
LINE
8
BLACK
6
CONTINUOUS
10
4.8270866141732283
20
-4.4475590551181101
11
4.8266370866141735
21
-4.4498190157480311
0
LINE
8
BLACK
6
CONTINUOUS
10
4.8266370866141735
20
-4.4498190157480311
11
4.8253569291338581
21
-4.451734881889764
0
LINE
8
BLACK
6
CONTINUOUS
10
4.8253569291338581
20
-4.451734881889764
11
4.823441062992126
21
-4.4530150393700785
0
LINE
8
BLACK
6
CONTINUOUS
10
4.823441062992126
20
-4.4530150393700785
11
4.8211811023622042
21
-4.4534645669291342
0
LINE
8
BLACK
6
CONTINUOUS
10
4.8211811023622042
20
-4.4534645669291342
11
4.809370078740157
21
-4.4534645669291342
0
LINE
8
BLACK
6
CONTINUOUS
10
4.809370078740157
20
-4.4534645669291342
11
4.807110118110236
21
-4.4530150393700785
0
LINE
8
BLACK
6
CONTINUOUS
10
4.807110118110236
20
-4.4530150393700785
11
4.805194251968504
21
-4.451734881889764
0
LINE
8
BLACK
6
CONTINUOUS
10
4.805194251968504
20
-4.451734881889764
11
4.8039140944881886
21
-4.4498190157480311
0
LINE
8
BLACK
6
CONTINUOUS
10
4.8039140944881886
20
-4.4498190157480311
11
4.8034645669291338
21
-4.4475590551181101
0
LINE
8
BLACK
6
CONTINUOUS
10
4.8034645669291338
20
-4.4475590551181101
11
4.8034645669291338
21
-4.3924409448818897
0
LINE
8
BLACK
6
CONTINUOUS
10
4.8034645669291338
20
-4.3924409448818897
11
4.8039140944881886
21
-4.3901809842519688
0
LINE
8
BLACK
6
CONTINUOUS
10
4.8039140944881886
20
-4.3901809842519688
11
4.805194251968504
21
-4.3882651181102359
0
LINE
8
BLACK
6
CONTINUOUS
10
4.805194251968504
20
-4.3882651181102359
11
4.807110118110236
21
-4.3869849606299214
0
LINE
8
BLACK
6
CONTINUOUS
10
4.807110118110236
20
-4.3869849606299214
11
4.809370078740157
21
-4.3865354330708657
0
LINE
8
BLACK
6
CONTINUOUS
10
4.809370078740157
20
-4.3865354330708657
11
4.8211811023622042
21
-4.3865354330708657
0
LINE
8
BLACK
6
CONTINUOUS
10
4.8211811023622042
20
-4.3865354330708657
11
4.823441062992126
21
-4.3869849606299214
0
LINE
8
BLACK
6
CONTINUOUS
10
4.8726536614173224
20
-4.3869849606299214
11
4.8745695275590553
21
-4.3882651181102359
0
LINE
8
BLACK
6
CONTINUOUS
10
4.8745695275590553
20
-4.3882651181102359
11
4.8758496850393698
21
-4.3901809842519688
0
LINE
8
BLACK
6
CONTINUOUS
10
4.8758496850393698
20
-4.3901809842519688
11
4.8762992125984255
21
-4.3924409448818897
0
LINE
8
BLACK
6
CONTINUOUS
10
4.8762992125984255
20
-4.3924409448818897
11
4.8762992125984255
21
-4.4475590551181101
0
LINE
8
BLACK
6
CONTINUOUS
10
4.8762992125984255
20
-4.4475590551181101
11
4.8758496850393698
21
-4.4498190157480311
0
LINE
8
BLACK
6
CONTINUOUS
10
4.8758496850393698
20
-4.4498190157480311
11
4.8745695275590553
21
-4.451734881889764
0
LINE
8
BLACK
6
CONTINUOUS
10
4.8745695275590553
20
-4.451734881889764
11
4.8726536614173224
21
-4.4530150393700785
0
LINE
8
BLACK
6
CONTINUOUS
10
4.8726536614173224
20
-4.4530150393700785
11
4.8703937007874014
21
-4.4534645669291342
0
LINE
8
BLACK
6
CONTINUOUS
10
4.8703937007874014
20
-4.4534645669291342
11
4.8585826771653542
21
-4.4534645669291342
0
LINE
8
BLACK
6
CONTINUOUS
10
4.8585826771653542
20
-4.4534645669291342
11
4.8563227165354332
21
-4.4530150393700785
0
LINE
8
BLACK
6
CONTINUOUS
10
4.8563227165354332
20
-4.4530150393700785
11
4.8544068503937003
21
-4.451734881889764
0
LINE
8
BLACK
6
CONTINUOUS
10
4.8544068503937003
20
-4.451734881889764
11
4.8531266929133858
21
-4.4498190157480311
0
LINE
8
BLACK
6
CONTINUOUS
10
4.8531266929133858
20
-4.4498190157480311
11
4.852677165354331
21
-4.4475590551181101
0
LINE
8
BLACK
6
CONTINUOUS
10
4.852677165354331
20
-4.4475590551181101
11
4.852677165354331
21
-4.3924409448818897
0
LINE
8
BLACK
6
CONTINUOUS
10
4.852677165354331
20
-4.3924409448818897
11
4.8531266929133858
21
-4.3901809842519688
0
LINE
8
BLACK
6
CONTINUOUS
10
4.8531266929133858
20
-4.3901809842519688
11
4.8544068503937003
21
-4.3882651181102359
0
LINE
8
BLACK
6
CONTINUOUS
10
4.8544068503937003
20
-4.3882651181102359
11
4.8563227165354332
21
-4.3869849606299214
0
LINE
8
BLACK
6
CONTINUOUS
10
4.8563227165354332
20
-4.3869849606299214
11
4.8585826771653542
21
-4.3865354330708657
0
LINE
8
BLACK
6
CONTINUOUS
10
4.8585826771653542
20
-4.3865354330708657
11
4.8703937007874014
21
-4.3865354330708657
0
LINE
8
BLACK
6
CONTINUOUS
10
4.8703937007874014
20
-4.3865354330708657
11
4.8726536614173224
21
-4.3869849606299214
0
LINE
8
BLACK
6
CONTINUOUS
10
6.0622212992125979
20
-4.2544500000000003
11
6.0654144488188972
21
-4.2565835826771652
0
LINE
8
BLACK
6
CONTINUOUS
10
6.0654144488188972
20
-4.2565835826771652
11
6.067548031496063
21
-4.2597767322834645
0
LINE
8
BLACK
6
CONTINUOUS
10
6.067548031496063
20
-4.2597767322834645
11
6.068297244094488
21
-4.2635433070866142
0
LINE
8
BLACK
6
CONTINUOUS
10
6.068297244094488
20
-4.2635433070866142
11
6.068297244094488
21
-4.3501574803149605
0
LINE
8
BLACK
6
CONTINUOUS
10
6.068297244094488
20
-4.3501574803149605
11
6.067548031496063
21
-4.3539240551181102
0
LINE
8
BLACK
6
CONTINUOUS
10
6.067548031496063
20
-4.3539240551181102
11
6.0654144488188972
21
-4.3571172047244096
0
LINE
8
BLACK
6
CONTINUOUS
10
6.0654144488188972
20
-4.3571172047244096
11
6.0622212992125979
21
-4.3592507874015745
0
LINE
8
BLACK
6
CONTINUOUS
10
6.0622212992125979
20
-4.3592507874015745
11
6.0584547244094491
21
-4.3600000000000003
0
LINE
8
BLACK
6
CONTINUOUS
10
6.0584547244094491
20
-4.3600000000000003
11
6.0387696850393695
21
-4.3600000000000003
0
LINE
8
BLACK
6
CONTINUOUS
10
6.0387696850393695
20
-4.3600000000000003
11
6.0350031102362207
21
-4.3592507874015745
0
LINE
8
BLACK
6
CONTINUOUS
10
6.0350031102362207
20
-4.3592507874015745
11
6.0318099606299214
21
-4.3571172047244096
0
LINE
8
BLACK
6
CONTINUOUS
10
6.0318099606299214
20
-4.3571172047244096
11
6.0296763779527556
21
-4.3539240551181102
0
LINE
8
BLACK
6
CONTINUOUS
10
6.0296763779527556
20
-4.3539240551181102
11
6.0289271653543306
21
-4.3501574803149605
0
LINE
8
BLACK
6
CONTINUOUS
10
6.0289271653543306
20
-4.3501574803149605
11
6.0289271653543306
21
-4.2635433070866142
0
LINE
8
BLACK
6
CONTINUOUS
10
6.0289271653543306
20
-4.2635433070866142
11
6.0296763779527556
21
-4.2597767322834645
0
LINE
8
BLACK
6
CONTINUOUS
10
6.0296763779527556
20
-4.2597767322834645
11
6.0318099606299214
21
-4.2565835826771652
0
LINE
8
BLACK
6
CONTINUOUS
10
6.0318099606299214
20
-4.2565835826771652
11
6.0350031102362207
21
-4.2544500000000003
0
LINE
8
BLACK
6
CONTINUOUS
10
6.0350031102362207
20
-4.2544500000000003
11
6.0387696850393695
21
-4.2537007874015744
0
LINE
8
BLACK
6
CONTINUOUS
10
6.0387696850393695
20
-4.2537007874015744
11
6.0584547244094491
21
-4.2537007874015744
0
LINE
8
BLACK
6
CONTINUOUS
10
6.0584547244094491
20
-4.2537007874015744
11
6.0622212992125979
21
-4.2544500000000003
0
LINE
8
BLACK
6
CONTINUOUS
10
6.4539535826771655
20
-4.2544500000000003
11
6.4571467322834648
21
-4.2565835826771652
0
LINE
8
BLACK
6
CONTINUOUS
10
6.4571467322834648
20
-4.2565835826771652
11
6.4592803149606297
21
-4.2597767322834645
0
LINE
8
BLACK
6
CONTINUOUS
10
6.4592803149606297
20
-4.2597767322834645
11
6.4600295275590547
21
-4.2635433070866142
0
LINE
8
BLACK
6
CONTINUOUS
10
6.4600295275590547
20
-4.2635433070866142
11
6.4600295275590547
21
-4.3501574803149605
0
LINE
8
BLACK
6
CONTINUOUS
10
6.4600295275590547
20
-4.3501574803149605
11
6.4592803149606297
21
-4.3539240551181102
0
LINE
8
BLACK
6
CONTINUOUS
10
6.4592803149606297
20
-4.3539240551181102
11
6.4571467322834648
21
-4.3571172047244096
0
LINE
8
BLACK
6
CONTINUOUS
10
6.4571467322834648
20
-4.3571172047244096
11
6.4539535826771655
21
-4.3592507874015745
0
LINE
8
BLACK
6
CONTINUOUS
10
6.4539535826771655
20
-4.3592507874015745
11
6.4501870078740158
21
-4.3600000000000003
0
LINE
8
BLACK
6
CONTINUOUS
10
6.4501870078740158
20
-4.3600000000000003
11
6.4305019685039371
21
-4.3600000000000003
0
LINE
8
BLACK
6
CONTINUOUS
10
6.4305019685039371
20
-4.3600000000000003
11
6.4267353937007874
21
-4.3592507874015745
0
LINE
8
BLACK
6
CONTINUOUS
10
6.4267353937007874
20
-4.3592507874015745
11
6.423542244094488
21
-4.3571172047244096
0
LINE
8
BLACK
6
CONTINUOUS
10
6.423542244094488
20
-4.3571172047244096
11
6.4214086614173223
21
-4.3539240551181102
0
LINE
8
BLACK
6
CONTINUOUS
10
6.4214086614173223
20
-4.3539240551181102
11
6.4206594488188973
21
-4.3501574803149605
0
LINE
8
BLACK
6
CONTINUOUS
10
6.4206594488188973
20
-4.3501574803149605
11
6.4206594488188973
21
-4.2635433070866142
0
LINE
8
BLACK
6
CONTINUOUS
10
6.4206594488188973
20
-4.2635433070866142
11
6.4214086614173223
21
-4.2597767322834645
0
LINE
8
BLACK
6
CONTINUOUS
10
6.4214086614173223
20
-4.2597767322834645
11
6.423542244094488
21
-4.2565835826771652
0
LINE
8
BLACK
6
CONTINUOUS
10
6.423542244094488
20
-4.2565835826771652
11
6.4267353937007874
21
-4.2544500000000003
0
LINE
8
BLACK
6
CONTINUOUS
10
6.4267353937007874
20
-4.2544500000000003
11
6.4305019685039371
21
-4.2537007874015744
0
LINE
8
BLACK
6
CONTINUOUS
10
6.4305019685039371
20
-4.2537007874015744
11
6.4501870078740158
21
-4.2537007874015744
0
LINE
8
BLACK
6
CONTINUOUS
10
6.4501870078740158
20
-4.2537007874015744
11
6.4539535826771655
21
-4.2544500000000003
0
LINE
8
BLACK
6
CONTINUOUS
10
5.0439338976377952
20
-4.2516153543307089
11
5.0471270472440946
21
-4.2537489370078738
0
LINE
8
BLACK
6
CONTINUOUS
10
5.0471270472440946
20
-4.2537489370078738
11
5.0492606299212595
21
-4.2569420866141732
0
LINE
8
BLACK
6
CONTINUOUS
10
5.0492606299212595
20
-4.2569420866141732
11
5.0500098425196853
21
-4.2607086614173229
0
LINE
8
BLACK
6
CONTINUOUS
10
5.0500098425196853
20
-4.2607086614173229
11
5.0500098425196853
21
-4.3473228346456692
0
LINE
8
BLACK
6
CONTINUOUS
10
5.0500098425196853
20
-4.3473228346456692
11
5.0492606299212595
21
-4.3510894094488188
0
LINE
8
BLACK
6
CONTINUOUS
10
5.0492606299212595
20
-4.3510894094488188
11
5.0471270472440946
21
-4.3542825590551182
0
LINE
8
BLACK
6
CONTINUOUS
10
5.0471270472440946
20
-4.3542825590551182
11
5.0439338976377952
21
-4.3564161417322831
0
LINE
8
BLACK
6
CONTINUOUS
10
5.0439338976377952
20
-4.3564161417322831
11
5.0401673228346455
21
-4.357165354330709
0
LINE
8
BLACK
6
CONTINUOUS
10
5.0401673228346455
20
-4.357165354330709
11
5.0204822834645668
21
-4.357165354330709
0
LINE
8
BLACK
6
CONTINUOUS
10
5.0204822834645668
20
-4.357165354330709
11
5.0167157086614171
21
-4.3564161417322831
0
LINE
8
BLACK
6
CONTINUOUS
10
5.0167157086614171
20
-4.3564161417322831
11
5.0135225590551178
21
-4.3542825590551182
0
LINE
8
BLACK
6
CONTINUOUS
10
5.0135225590551178
20
-4.3542825590551182
11
5.0113889763779529
21
-4.3510894094488188
0
LINE
8
BLACK
6
CONTINUOUS
10
5.0113889763779529
20
-4.3510894094488188
11
5.010639763779527
21
-4.3473228346456692
0
LINE
8
BLACK
6
CONTINUOUS
10
5.010639763779527
20
-4.3473228346456692
11
5.010639763779527
21
-4.2607086614173229
0
LINE
8
BLACK
6
CONTINUOUS
10
5.010639763779527
20
-4.2607086614173229
11
5.0113889763779529
21
-4.2569420866141732
0
LINE
8
BLACK
6
CONTINUOUS
10
5.0113889763779529
20
-4.2569420866141732
11
5.0135225590551178
21
-4.2537489370078738
0
LINE
8
BLACK
6
CONTINUOUS
10
5.0135225590551178
20
-4.2537489370078738
11
5.0167157086614171
21
-4.2516153543307089
0
LINE
8
BLACK
6
CONTINUOUS
10
5.0167157086614171
20
-4.2516153543307089
11
5.0204822834645668
21
-4.2508661417322831
0
LINE
8
BLACK
6
CONTINUOUS
10
5.0204822834645668
20
-4.2508661417322831
11
5.0401673228346455
21
-4.2508661417322831
0
LINE
8
BLACK
6
CONTINUOUS
10
5.0401673228346455
20
-4.2508661417322831
11
5.0439338976377952
21
-4.2516153543307089
0
LINE
8
BLACK
6
CONTINUOUS
10
5.4356661811023619
20
-4.2516153543307089
11
5.4388593307086612
21
-4.2537489370078738
0
LINE
8
BLACK
6
CONTINUOUS
10
5.4388593307086612
20
-4.2537489370078738
11
5.440992913385827
21
-4.2569420866141732
0
LINE
8
BLACK
6
CONTINUOUS
10
5.440992913385827
20
-4.2569420866141732
11
5.441742125984252
21
-4.2607086614173229
0
LINE
8
BLACK
6
CONTINUOUS
10
5.441742125984252
20
-4.2607086614173229
11
5.441742125984252
21
-4.3473228346456692
0
LINE
8
BLACK
6
CONTINUOUS
10
5.441742125984252
20
-4.3473228346456692
11
5.440992913385827
21
-4.3510894094488188
0
LINE
8
BLACK
6
CONTINUOUS
10
5.440992913385827
20
-4.3510894094488188
11
5.4388593307086612
21
-4.3542825590551182
0
LINE
8
BLACK
6
CONTINUOUS
10
5.4388593307086612
20
-4.3542825590551182
11
5.4356661811023619
21
-4.3564161417322831
0
LINE
8
BLACK
6
CONTINUOUS
10
5.4356661811023619
20
-4.3564161417322831
11
5.4318996062992122
21
-4.357165354330709
0
LINE
8
BLACK
6
CONTINUOUS
10
5.4318996062992122
20
-4.357165354330709
11
5.4122145669291335
21
-4.357165354330709
0
LINE
8
BLACK
6
CONTINUOUS
10
5.4122145669291335
20
-4.357165354330709
11
5.4084479921259838
21
-4.3564161417322831
0
LINE
8
BLACK
6
CONTINUOUS
10
5.4084479921259838
20
-4.3564161417322831
11
5.4052548425196854
21
-4.3542825590551182
0
LINE
8
BLACK
6
CONTINUOUS
10
5.4052548425196854
20
-4.3542825590551182
11
5.4031212598425196
21
-4.3510894094488188
0
LINE
8
BLACK
6
CONTINUOUS
10
5.4031212598425196
20
-4.3510894094488188
11
5.4023720472440946
21
-4.3473228346456692
0
LINE
8
BLACK
6
CONTINUOUS
10
5.4023720472440946
20
-4.3473228346456692
11
5.4023720472440946
21
-4.2607086614173229
0
LINE
8
BLACK
6
CONTINUOUS
10
5.4023720472440946
20
-4.2607086614173229
11
5.4031212598425196
21
-4.2569420866141732
0
LINE
8
BLACK
6
CONTINUOUS
10
5.4031212598425196
20
-4.2569420866141732
11
5.4052548425196854
21
-4.2537489370078738
0
LINE
8
BLACK
6
CONTINUOUS
10
5.4052548425196854
20
-4.2537489370078738
11
5.4084479921259838
21
-4.2516153543307089
0
LINE
8
BLACK
6
CONTINUOUS
10
5.4084479921259838
20
-4.2516153543307089
11
5.4122145669291335
21
-4.2508661417322831
0
LINE
8
BLACK
6
CONTINUOUS
10
5.4122145669291335
20
-4.2508661417322831
11
5.4318996062992122
21
-4.2508661417322831
0
LINE
8
BLACK
6
CONTINUOUS
10
5.4318996062992122
20
-4.2508661417322831
11
5.4356661811023619
21
-4.2516153543307089
0
LINE
8
BLACK
6
CONTINUOUS
10
5.5284712992125984
20
-4.2516153543307089
11
5.5316644488188977
21
-4.2537489370078738
0
LINE
8
BLACK
6
CONTINUOUS
10
5.5316644488188977
20
-4.2537489370078738
11
5.5337980314960626
21
-4.2569420866141732
0
LINE
8
BLACK
6
CONTINUOUS
10
5.5337980314960626
20
-4.2569420866141732
11
5.5345472440944885
21
-4.2607086614173229
0
LINE
8
BLACK
6
CONTINUOUS
10
5.5345472440944885
20
-4.2607086614173229
11
5.5345472440944885
21
-4.3473228346456692
0
LINE
8
BLACK
6
CONTINUOUS
10
5.5345472440944885
20
-4.3473228346456692
11
5.5337980314960626
21
-4.3510894094488188
0
LINE
8
BLACK
6
CONTINUOUS
10
5.5337980314960626
20
-4.3510894094488188
11
5.5316644488188977
21
-4.3542825590551182
0
LINE
8
BLACK
6
CONTINUOUS
10
5.5316644488188977
20
-4.3542825590551182
11
5.5284712992125984
21
-4.3564161417322831
0
LINE
8
BLACK
6
CONTINUOUS
10
5.5284712992125984
20
-4.3564161417322831
11
5.5247047244094487
21
-4.357165354330709
0
LINE
8
BLACK
6
CONTINUOUS
10
5.5247047244094487
20
-4.357165354330709
11
5.50501968503937
21
-4.357165354330709
0
LINE
8
BLACK
6
CONTINUOUS
10
5.50501968503937
20
-4.357165354330709
11
5.5012531102362203
21
-4.3564161417322831
0
LINE
8
BLACK
6
CONTINUOUS
10
5.5012531102362203
20
-4.3564161417322831
11
5.498059960629921
21
-4.3542825590551182
0
LINE
8
BLACK
6
CONTINUOUS
10
5.498059960629921
20
-4.3542825590551182
11
5.4959263779527561
21
-4.3510894094488188
0
LINE
8
BLACK
6
CONTINUOUS
10
5.4959263779527561
20
-4.3510894094488188
11
5.4951771653543302
21
-4.3473228346456692
0
LINE
8
BLACK
6
CONTINUOUS
10
5.4951771653543302
20
-4.3473228346456692
11
5.4951771653543302
21
-4.2607086614173229
0
LINE
8
BLACK
6
CONTINUOUS
10
5.4951771653543302
20
-4.2607086614173229
11
5.4959263779527561
21
-4.2569420866141732
0
LINE
8
BLACK
6
CONTINUOUS
10
5.4959263779527561
20
-4.2569420866141732
11
5.498059960629921
21
-4.2537489370078738
0
LINE
8
BLACK
6
CONTINUOUS
10
5.498059960629921
20
-4.2537489370078738
11
5.5012531102362203
21
-4.2516153543307089
0
LINE
8
BLACK
6
CONTINUOUS
10
5.5012531102362203
20
-4.2516153543307089
11
5.50501968503937
21
-4.2508661417322831
0
LINE
8
BLACK
6
CONTINUOUS
10
5.50501968503937
20
-4.2508661417322831
11
5.5247047244094487
21
-4.2508661417322831
0
LINE
8
BLACK
6
CONTINUOUS
10
5.5247047244094487
20
-4.2508661417322831
11
5.5284712992125984
21
-4.2516153543307089
0
LINE
8
BLACK
6
CONTINUOUS
10
5.9694161811023623
20
-4.2516153543307089
11
5.9726093307086616
21
-4.2537489370078738
0
LINE
8
BLACK
6
CONTINUOUS
10
5.9726093307086616
20
-4.2537489370078738
11
5.9747429133858265
21
-4.2569420866141732
0
LINE
8
BLACK
6
CONTINUOUS
10
5.9747429133858265
20
-4.2569420866141732
11
5.9754921259842515
21
-4.2607086614173229
0
LINE
8
BLACK
6
CONTINUOUS
10
5.9754921259842515
20
-4.2607086614173229
11
5.9754921259842515
21
-4.3473228346456692
0
LINE
8
BLACK
6
CONTINUOUS
10
5.9754921259842515
20
-4.3473228346456692
11
5.9747429133858265
21
-4.3510894094488188
0
LINE
8
BLACK
6
CONTINUOUS
10
5.9747429133858265
20
-4.3510894094488188
11
5.9726093307086616
21
-4.3542825590551182
0
LINE
8
BLACK
6
CONTINUOUS
10
5.9726093307086616
20
-4.3542825590551182
11
5.9694161811023623
21
-4.3564161417322831
0
LINE
8
BLACK
6
CONTINUOUS
10
5.9694161811023623
20
-4.3564161417322831
11
5.9656496062992126
21
-4.357165354330709
0
LINE
8
BLACK
6
CONTINUOUS
10
5.9656496062992126
20
-4.357165354330709
11
5.9459645669291339
21
-4.357165354330709
0
LINE
8
BLACK
6
CONTINUOUS
10
5.9459645669291339
20
-4.357165354330709
11
5.9421979921259842
21
-4.3564161417322831
0
LINE
8
BLACK
6
CONTINUOUS
10
5.9421979921259842
20
-4.3564161417322831
11
5.9390048425196849
21
-4.3542825590551182
0
LINE
8
BLACK
6
CONTINUOUS
10
5.9390048425196849
20
-4.3542825590551182
11
5.93687125984252
21
-4.3510894094488188
0
LINE
8
BLACK
6
CONTINUOUS
10
5.93687125984252
20
-4.3510894094488188
11
5.9361220472440941
21
-4.3473228346456692
0
LINE
8
BLACK
6
CONTINUOUS
10
5.9361220472440941
20
-4.3473228346456692
11
5.9361220472440941
21
-4.2607086614173229
0
LINE
8
BLACK
6
CONTINUOUS
10
5.9361220472440941
20
-4.2607086614173229
11
5.93687125984252
21
-4.2569420866141732
0
LINE
8
BLACK
6
CONTINUOUS
10
5.93687125984252
20
-4.2569420866141732
11
5.9390048425196849
21
-4.2537489370078738
0
LINE
8
BLACK
6
CONTINUOUS
10
5.9390048425196849
20
-4.2537489370078738
11
5.9421979921259842
21
-4.2516153543307089
0
LINE
8
BLACK
6
CONTINUOUS
10
5.9421979921259842
20
-4.2516153543307089
11
5.9459645669291339
21
-4.2508661417322831
0
LINE
8
BLACK
6
CONTINUOUS
10
5.9459645669291339
20
-4.2508661417322831
11
5.9656496062992126
21
-4.2508661417322831
0
LINE
8
BLACK
6
CONTINUOUS
10
5.9656496062992126
20
-4.2508661417322831
11
5.9694161811023623
21
-4.2516153543307089
0
LINE
8
BLACK
6
CONTINUOUS
10
6.5469555511811022
20
-4.2444499999999996
11
6.5501487007874015
21
-4.2465835826771654
0
LINE
8
BLACK
6
CONTINUOUS
10
6.5501487007874015
20
-4.2465835826771654
11
6.5522822834645664
21
-4.2497767322834648
0
LINE
8
BLACK
6
CONTINUOUS
10
6.5522822834645664
20
-4.2497767322834648
11
6.5530314960629923
21
-4.2535433070866144
0
LINE
8
BLACK
6
CONTINUOUS
10
6.5530314960629923
20
-4.2535433070866144
11
6.5530314960629923
21
-4.3401574803149607
0
LINE
8
BLACK
6
CONTINUOUS
10
6.5530314960629923
20
-4.3401574803149607
11
6.5522822834645664
21
-4.3439240551181104
0
LINE
8
BLACK
6
CONTINUOUS
10
6.5522822834645664
20
-4.3439240551181104
11
6.5501487007874015
21
-4.3471172047244098
0
LINE
8
BLACK
6
CONTINUOUS
10
6.5501487007874015
20
-4.3471172047244098
11
6.5469555511811022
21
-4.3492507874015747
0
LINE
8
BLACK
6
CONTINUOUS
10
6.5469555511811022
20
-4.3492507874015747
11
6.5431889763779525
21
-4.3499999999999996
0
LINE
8
BLACK
6
CONTINUOUS
10
6.5431889763779525
20
-4.3499999999999996
11
6.5235039370078738
21
-4.3499999999999996
0
LINE
8
BLACK
6
CONTINUOUS
10
6.5235039370078738
20
-4.3499999999999996
11
6.5197373622047241
21
-4.3492507874015747
0
LINE
8
BLACK
6
CONTINUOUS
10
6.5197373622047241
20
-4.3492507874015747
11
6.5165442125984248
21
-4.3471172047244098
0
LINE
8
BLACK
6
CONTINUOUS
10
6.5165442125984248
20
-4.3471172047244098
11
6.5144106299212599
21
-4.3439240551181104
0
LINE
8
BLACK
6
CONTINUOUS
10
6.5144106299212599
20
-4.3439240551181104
11
6.5136614173228349
21
-4.3401574803149607
0
LINE
8
BLACK
6
CONTINUOUS
10
6.5136614173228349
20
-4.3401574803149607
11
6.5136614173228349
21
-4.2535433070866144
0
LINE
8
BLACK
6
CONTINUOUS
10
6.5136614173228349
20
-4.2535433070866144
11
6.5144106299212599
21
-4.2497767322834648
0
LINE
8
BLACK
6
CONTINUOUS
10
6.5144106299212599
20
-4.2497767322834648
11
6.5165442125984248
21
-4.2465835826771654
0
LINE
8
BLACK
6
CONTINUOUS
10
6.5165442125984248
20
-4.2465835826771654
11
6.5197373622047241
21
-4.2444499999999996
0
LINE
8
BLACK
6
CONTINUOUS
10
6.5197373622047241
20
-4.2444499999999996
11
6.5235039370078738
21
-4.2437007874015746
0
LINE
8
BLACK
6
CONTINUOUS
10
6.5235039370078738
20
-4.2437007874015746
11
6.5431889763779525
21
-4.2437007874015746
0
LINE
8
BLACK
6
CONTINUOUS
10
6.5431889763779525
20
-4.2437007874015746
11
6.5469555511811022
21
-4.2444499999999996
0
LINE
8
BLACK
6
CONTINUOUS
10
6.8402626377952753
20
-4.2444499999999996
11
6.8434557874015747
21
-4.2465835826771654
0
LINE
8
BLACK
6
CONTINUOUS
10
6.8434557874015747
20
-4.2465835826771654
11
6.8455893700787396
21
-4.2497767322834648
0
LINE
8
BLACK
6
CONTINUOUS
10
6.8455893700787396
20
-4.2497767322834648
11
6.8463385826771654
21
-4.2535433070866144
0
LINE
8
BLACK
6
CONTINUOUS
10
6.8463385826771654
20
-4.2535433070866144
11
6.8463385826771654
21
-4.3401574803149607
0
LINE
8
BLACK
6
CONTINUOUS
10
6.8463385826771654
20
-4.3401574803149607
11
6.8455893700787396
21
-4.3439240551181104
0
LINE
8
BLACK
6
CONTINUOUS
10
6.8455893700787396
20
-4.3439240551181104
11
6.8434557874015747
21
-4.3471172047244098
0
LINE
8
BLACK
6
CONTINUOUS
10
6.8434557874015747
20
-4.3471172047244098
11
6.8402626377952753
21
-4.3492507874015747
0
LINE
8
BLACK
6
CONTINUOUS
10
6.8402626377952753
20
-4.3492507874015747
11
6.8364960629921256
21
-4.3499999999999996
0
LINE
8
BLACK
6
CONTINUOUS
10
6.8364960629921256
20
-4.3499999999999996
11
6.8168110236220469
21
-4.3499999999999996
0
LINE
8
BLACK
6
CONTINUOUS
10
6.8168110236220469
20
-4.3499999999999996
11
6.8130444488188973
21
-4.3492507874015747
0
LINE
8
BLACK
6
CONTINUOUS
10
6.8130444488188973
20
-4.3492507874015747
11
6.8098512992125979
21
-4.3471172047244098
0
LINE
8
BLACK
6
CONTINUOUS
10
6.8098512992125979
20
-4.3471172047244098
11
6.807717716535433
21
-4.3439240551181104
0
LINE
8
BLACK
6
CONTINUOUS
10
6.807717716535433
20
-4.3439240551181104
11
6.806968503937008
21
-4.3401574803149607
0
LINE
8
BLACK
6
CONTINUOUS
10
6.806968503937008
20
-4.3401574803149607
11
6.806968503937008
21
-4.2535433070866144
0
LINE
8
BLACK
6
CONTINUOUS
10
6.806968503937008
20
-4.2535433070866144
11
6.807717716535433
21
-4.2497767322834648
0
LINE
8
BLACK
6
CONTINUOUS
10
6.807717716535433
20
-4.2497767322834648
11
6.8098512992125979
21
-4.2465835826771654
0
LINE
8
BLACK
6
CONTINUOUS
10
6.8098512992125979
20
-4.2465835826771654
11
6.8130444488188973
21
-4.2444499999999996
0
LINE
8
BLACK
6
CONTINUOUS
10
6.8130444488188973
20
-4.2444499999999996
11
6.8168110236220469
21
-4.2437007874015746
0
LINE
8
BLACK
6
CONTINUOUS
10
6.8168110236220469
20
-4.2437007874015746
11
6.8364960629921256
21
-4.2437007874015746
0
LINE
8
BLACK
6
CONTINUOUS
10
6.8364960629921256
20
-4.2437007874015746
11
6.8402626377952753
21
-4.2444499999999996
0
LINE
8
BLACK
6
CONTINUOUS
10
4.3623492519685039
20
-4.2416153543307082
11
4.3655424015748032
21
-4.243748937007874
0
LINE
8
BLACK
6
CONTINUOUS
10
4.3655424015748032
20
-4.243748937007874
11
4.3676759842519681
21
-4.2469420866141734
0
LINE
8
BLACK
6
CONTINUOUS
10
4.3676759842519681
20
-4.2469420866141734
11
4.368425196850394
21
-4.2507086614173231
0
LINE
8
BLACK
6
CONTINUOUS
10
4.368425196850394
20
-4.2507086614173231
11
4.368425196850394
21
-4.3373228346456694
0
LINE
8
BLACK
6
CONTINUOUS
10
4.368425196850394
20
-4.3373228346456694
11
4.3676759842519681
21
-4.341089409448819
0
LINE
8
BLACK
6
CONTINUOUS
10
4.3676759842519681
20
-4.341089409448819
11
4.3655424015748032
21
-4.3442825590551184
0
LINE
8
BLACK
6
CONTINUOUS
10
4.3655424015748032
20
-4.3442825590551184
11
4.3623492519685039
21
-4.3464161417322833
0
LINE
8
BLACK
6
CONTINUOUS
10
4.3623492519685039
20
-4.3464161417322833
11
4.3585826771653542
21
-4.3471653543307083
0
LINE
8
BLACK
6
CONTINUOUS
10
4.3585826771653542
20
-4.3471653543307083
11
4.3388976377952755
21
-4.3471653543307083
0
LINE
8
BLACK
6
CONTINUOUS
10
4.3388976377952755
20
-4.3471653543307083
11
4.3351310629921258
21
-4.3464161417322833
0
LINE
8
BLACK
6
CONTINUOUS
10
4.3351310629921258
20
-4.3464161417322833
11
4.3319379133858265
21
-4.3442825590551184
0
LINE
8
BLACK
6
CONTINUOUS
10
4.3319379133858265
20
-4.3442825590551184
11
4.3298043307086616
21
-4.341089409448819
0
LINE
8
BLACK
6
CONTINUOUS
10
4.3298043307086616
20
-4.341089409448819
11
4.3290551181102357
21
-4.3373228346456694
0
LINE
8
BLACK
6
CONTINUOUS
10
4.3290551181102357
20
-4.3373228346456694
11
4.3290551181102357
21
-4.2507086614173231
0
LINE
8
BLACK
6
CONTINUOUS
10
4.3290551181102357
20
-4.2507086614173231
11
4.3298043307086616
21
-4.2469420866141734
0
LINE
8
BLACK
6
CONTINUOUS
10
4.3298043307086616
20
-4.2469420866141734
11
4.3319379133858265
21
-4.243748937007874
0
LINE
8
BLACK
6
CONTINUOUS
10
4.3319379133858265
20
-4.243748937007874
11
4.3351310629921258
21
-4.2416153543307082
0
LINE
8
BLACK
6
CONTINUOUS
10
4.3351310629921258
20
-4.2416153543307082
11
4.3388976377952755
21
-4.2408661417322833
0
LINE
8
BLACK
6
CONTINUOUS
10
4.3388976377952755
20
-4.2408661417322833
11
4.3585826771653542
21
-4.2408661417322833
0
LINE
8
BLACK
6
CONTINUOUS
10
4.3585826771653542
20
-4.2408661417322833
11
4.3623492519685039
21
-4.2416153543307082
0
LINE
8
BLACK
6
CONTINUOUS
10
4.9509319291338585
20
-4.2416153543307082
11
4.954125078740157
21
-4.243748937007874
0
LINE
8
BLACK
6
CONTINUOUS
10
4.954125078740157
20
-4.243748937007874
11
4.9562586614173227
21
-4.2469420866141734
0
LINE
8
BLACK
6
CONTINUOUS
10
4.9562586614173227
20
-4.2469420866141734
11
4.9570078740157477
21
-4.2507086614173231
0
LINE
8
BLACK
6
CONTINUOUS
10
4.9570078740157477
20
-4.2507086614173231
11
4.9570078740157477
21
-4.3373228346456694
0
LINE
8
BLACK
6
CONTINUOUS
10
4.9570078740157477
20
-4.3373228346456694
11
4.9562586614173227
21
-4.341089409448819
0
LINE
8
BLACK
6
CONTINUOUS
10
4.9562586614173227
20
-4.341089409448819
11
4.954125078740157
21
-4.3442825590551184
0
LINE
8
BLACK
6
CONTINUOUS
10
4.954125078740157
20
-4.3442825590551184
11
4.9509319291338585
21
-4.3464161417322833
0
LINE
8
BLACK
6
CONTINUOUS
10
4.9509319291338585
20
-4.3464161417322833
11
4.9471653543307088
21
-4.3471653543307083
0
LINE
8
BLACK
6
CONTINUOUS
10
4.9471653543307088
20
-4.3471653543307083
11
4.9274803149606301
21
-4.3471653543307083
0
LINE
8
BLACK
6
CONTINUOUS
10
4.9274803149606301
20
-4.3471653543307083
11
4.9237137401574804
21
-4.3464161417322833
0
LINE
8
BLACK
6
CONTINUOUS
10
4.9237137401574804
20
-4.3464161417322833
11
4.9205205905511811
21
-4.3442825590551184
0
LINE
8
BLACK
6
CONTINUOUS
10
4.9205205905511811
20
-4.3442825590551184
11
4.9183870078740153
21
-4.341089409448819
0
LINE
8
BLACK
6
CONTINUOUS
10
4.9183870078740153
20
-4.341089409448819
11
4.9176377952755903
21
-4.3373228346456694
0
LINE
8
BLACK
6
CONTINUOUS
10
4.9176377952755903
20
-4.3373228346456694
11
4.9176377952755903
21
-4.2507086614173231
0
LINE
8
BLACK
6
CONTINUOUS
10
4.9176377952755903
20
-4.2507086614173231
11
4.9183870078740153
21
-4.2469420866141734
0
LINE
8
BLACK
6
CONTINUOUS
10
4.9183870078740153
20
-4.2469420866141734
11
4.9205205905511811
21
-4.243748937007874
0
LINE
8
BLACK
6
CONTINUOUS
10
4.9205205905511811
20
-4.243748937007874
11
4.9237137401574804
21
-4.2416153543307082
0
LINE
8
BLACK
6
CONTINUOUS
10
4.9237137401574804
20
-4.2416153543307082
11
4.9274803149606301
21
-4.2408661417322833
0
LINE
8
BLACK
6
CONTINUOUS
10
4.9274803149606301
20
-4.2408661417322833
11
4.9471653543307088
21
-4.2408661417322833
0
LINE
8
BLACK
6
CONTINUOUS
10
4.9471653543307088
20
-4.2408661417322833
11
4.9509319291338585
21
-4.2416153543307082
0
CIRCLE
8
BLACK
10
4.4424665354330708
20
-4.6279311023622043
40
0.0068897637795276
0
CIRCLE
8
BLACK
10
4.5424665354330704
20
-4.6279311023622043
40
0.0068897637795276
0
CIRCLE
8
BLACK
10
4.6424664960629922
20
-4.6279311023622043
40
0.0068897637795276
0
CIRCLE
8
BLACK
10
4.7424665354330706
20
-4.6279311023622043
40
0.0068897637795276
0
CIRCLE
8
BLACK
10
4.8424665354330712
20
-4.6279311023622043
40
0.0068897637795276
0
CIRCLE
8
BLACK
10
4.9424665354330708
20
-4.6279311023622043
40
0.0068897637795276
0
CIRCLE
8
BLACK
10
5.0424665354330704
20
-4.6279311023622043
40
0.0068897637795276
0
CIRCLE
8
BLACK
10
5.1424665748031497
20
-4.6279311023622043
40
0.0068897637795276
0
CIRCLE
8
BLACK
10
5.8424665354330712
20
-4.6279311023622043
40
0.0068897637795276
0
CIRCLE
8
BLACK
10
5.942466496062992
20
-4.6279311023622043
40
0.0068897637795276
0
CIRCLE
8
BLACK
10
6.0424665748031492
20
-4.6279311023622043
40
0.0068897637795276
0
CIRCLE
8
BLACK
10
6.142466535433071
20
-4.6279311023622043
40
0.0068897637795276
0
CIRCLE
8
BLACK
10
6.2424665354330706
20
-4.6279311023622043
40
0.0068897637795276
0
CIRCLE
8
BLACK
10
6.3424665354330712
20
-4.6279311023622043
40
0.0068897637795276
0
CIRCLE
8
BLACK
10
6.442466496062992
20
-4.6279311023622043
40
0.0068897637795276
0
CIRCLE
8
BLACK
10
6.5424665354330704
20
-4.6279311023622043
40
0.0068897637795276
0
CIRCLE
8
BLACK
10
6.642466535433071
20
-4.6279311023622043
40
0.0068897637795276
0
CIRCLE
8
BLACK
10
6.7424665354330706
20
-4.6279311023622043
40
0.0068897637795276
0
CIRCLE
8
BLACK
10
5.5800000000000001
20
-4.6626377952755904
40
0.0068897637795276
0
CIRCLE
8
BLACK
10
5.4799999999999995
20
-4.6626377952755904
40
0.0068897637795276
0
CIRCLE
8
BLACK
10
5.3800000393700786
20
-4.6626377952755904
40
0.0068897637795276
  0
ENDSEC
  0
EOF
