  0
SECTION
  2
HEADER
  9
$ANGBASE
  50
0.0
  9
$ANGDIR
  70
1
  9
$MEASUREMENT
  70
0
  0
ENDSEC
  0
SECTION
  2
TABLES
  0
TABLE
  2
LTYPE
  70
4
  0
LTYPE
  5
40F
  2
CONTINUOUS
  70
0
  3
Solid line
  72
65
  73
0
  40
0.0
  0
LTYPE
  5
410
  2
DASHDOT
 70
0
  3
Dash Dot ____ _ ____ _
 72
65
 73
4
 40
2.0
 49
1.25
 49
-0.25
 49
0.25
 49
-0.25
  0
LTYPE
  5
411
  2
DASHED
 70
0
  3
Dashed __ __ __ __ __
 72
65
 73
2
 40
0.75
 49
0.5
 49
-0.25
  0
LTYPE
  5
43B
  2
DOTTED
 70
0
  3
Dotted .  .  .  .
 72
65
 73
2
 40
0.2
 49
0.0
 49
-0.2
  0
ENDTAB
  0
TABLE
  2
STYLE
  70
4
  0
STYLE
  2
KICAD
  70
0
  40
0
  41
1
  42
1
  50
0
  71
0
  3
isocp.shx
  0
STYLE
  2
KICADB
  70
0
  40
0
  41
1
  42
1
  50
0
  71
0
  3
isocp.shx
  0
STYLE
  2
KICADI
  70
0
  40
0
  41
1
  42
1
  50
15
  71
0
  3
isocp.shx
  0
STYLE
  2
KICADBI
  70
0
  40
0
  41
1
  42
1
  50
15
  71
0
  3
isocp.shx
  0
ENDTAB
  0
TABLE
  2
LAYER
  70
1
  0
LAYER
  2
BLACK
  70
0
  62
7
  6
CONTINUOUS
  0
ENDTAB
  0
ENDSEC
  0
SECTION
  2
ENTITIES
0
LINE
8
BLACK
6
CONTINUOUS
10
4.4441890944881886
20
-4.3898196062992128
11
4.4461049606299214
21
-4.3910997637795273
0
LINE
8
BLACK
6
CONTINUOUS
10
4.4461049606299214
20
-4.3910997637795273
11
4.447385118110236
21
-4.3930156299212602
0
LINE
8
BLACK
6
CONTINUOUS
10
4.447385118110236
20
-4.3930156299212602
11
4.4478346456692917
21
-4.3952755905511811
0
LINE
8
BLACK
6
CONTINUOUS
10
4.4478346456692917
20
-4.3952755905511811
11
4.4478346456692917
21
-4.4503937007874015
0
LINE
8
BLACK
6
CONTINUOUS
10
4.4478346456692917
20
-4.4503937007874015
11
4.447385118110236
21
-4.4526536614173224
0
LINE
8
BLACK
6
CONTINUOUS
10
4.447385118110236
20
-4.4526536614173224
11
4.4461049606299214
21
-4.4545695275590553
0
LINE
8
BLACK
6
CONTINUOUS
10
4.4461049606299214
20
-4.4545695275590553
11
4.4441890944881886
21
-4.4558496850393698
0
LINE
8
BLACK
6
CONTINUOUS
10
4.4441890944881886
20
-4.4558496850393698
11
4.4419291338582676
21
-4.4562992125984247
0
LINE
8
BLACK
6
CONTINUOUS
10
4.4419291338582676
20
-4.4562992125984247
11
4.4301181102362204
21
-4.4562992125984247
0
LINE
8
BLACK
6
CONTINUOUS
10
4.4301181102362204
20
-4.4562992125984247
11
4.4278581496062994
21
-4.4558496850393698
0
LINE
8
BLACK
6
CONTINUOUS
10
4.4278581496062994
20
-4.4558496850393698
11
4.4259422834645665
21
-4.4545695275590553
0
LINE
8
BLACK
6
CONTINUOUS
10
4.4259422834645665
20
-4.4545695275590553
11
4.424662125984252
21
-4.4526536614173224
0
LINE
8
BLACK
6
CONTINUOUS
10
4.424662125984252
20
-4.4526536614173224
11
4.4242125984251963
21
-4.4503937007874015
0
LINE
8
BLACK
6
CONTINUOUS
10
4.4242125984251963
20
-4.4503937007874015
11
4.4242125984251963
21
-4.3952755905511811
0
LINE
8
BLACK
6
CONTINUOUS
10
4.4242125984251963
20
-4.3952755905511811
11
4.424662125984252
21
-4.3930156299212602
0
LINE
8
BLACK
6
CONTINUOUS
10
4.424662125984252
20
-4.3930156299212602
11
4.4259422834645665
21
-4.3910997637795273
0
LINE
8
BLACK
6
CONTINUOUS
10
4.4259422834645665
20
-4.3910997637795273
11
4.4278581496062994
21
-4.3898196062992128
0
LINE
8
BLACK
6
CONTINUOUS
10
4.4278581496062994
20
-4.3898196062992128
11
4.4301181102362204
21
-4.3893700787401571
0
LINE
8
BLACK
6
CONTINUOUS
10
4.4301181102362204
20
-4.3893700787401571
11
4.4419291338582676
21
-4.3893700787401571
0
LINE
8
BLACK
6
CONTINUOUS
10
4.4419291338582676
20
-4.3893700787401571
11
4.4441890944881886
21
-4.3898196062992128
0
LINE
8
BLACK
6
CONTINUOUS
10
4.4934016929133858
20
-4.3898196062992128
11
4.4953175590551178
21
-4.3910997637795273
0
LINE
8
BLACK
6
CONTINUOUS
10
4.4953175590551178
20
-4.3910997637795273
11
4.4965977165354332
21
-4.3930156299212602
0
LINE
8
BLACK
6
CONTINUOUS
10
4.4965977165354332
20
-4.3930156299212602
11
4.497047244094488
21
-4.3952755905511811
0
LINE
8
BLACK
6
CONTINUOUS
10
4.497047244094488
20
-4.3952755905511811
11
4.497047244094488
21
-4.4503937007874015
0
LINE
8
BLACK
6
CONTINUOUS
10
4.497047244094488
20
-4.4503937007874015
11
4.4965977165354332
21
-4.4526536614173224
0
LINE
8
BLACK
6
CONTINUOUS
10
4.4965977165354332
20
-4.4526536614173224
11
4.4953175590551178
21
-4.4545695275590553
0
LINE
8
BLACK
6
CONTINUOUS
10
4.4953175590551178
20
-4.4545695275590553
11
4.4934016929133858
21
-4.4558496850393698
0
LINE
8
BLACK
6
CONTINUOUS
10
4.4934016929133858
20
-4.4558496850393698
11
4.4911417322834648
21
-4.4562992125984247
0
LINE
8
BLACK
6
CONTINUOUS
10
4.4911417322834648
20
-4.4562992125984247
11
4.4793307086614176
21
-4.4562992125984247
0
LINE
8
BLACK
6
CONTINUOUS
10
4.4793307086614176
20
-4.4562992125984247
11
4.4770707480314957
21
-4.4558496850393698
0
LINE
8
BLACK
6
CONTINUOUS
10
4.4770707480314957
20
-4.4558496850393698
11
4.4751548818897637
21
-4.4545695275590553
0
LINE
8
BLACK
6
CONTINUOUS
10
4.4751548818897637
20
-4.4545695275590553
11
4.4738747244094483
21
-4.4526536614173224
0
LINE
8
BLACK
6
CONTINUOUS
10
4.4738747244094483
20
-4.4526536614173224
11
4.4734251968503935
21
-4.4503937007874015
0
LINE
8
BLACK
6
CONTINUOUS
10
4.4734251968503935
20
-4.4503937007874015
11
4.4734251968503935
21
-4.3952755905511811
0
LINE
8
BLACK
6
CONTINUOUS
10
4.4734251968503935
20
-4.3952755905511811
11
4.4738747244094483
21
-4.3930156299212602
0
LINE
8
BLACK
6
CONTINUOUS
10
4.4738747244094483
20
-4.3930156299212602
11
4.4751548818897637
21
-4.3910997637795273
0
LINE
8
BLACK
6
CONTINUOUS
10
4.4751548818897637
20
-4.3910997637795273
11
4.4770707480314957
21
-4.3898196062992128
0
LINE
8
BLACK
6
CONTINUOUS
10
4.4770707480314957
20
-4.3898196062992128
11
4.4793307086614176
21
-4.3893700787401571
0
LINE
8
BLACK
6
CONTINUOUS
10
4.4793307086614176
20
-4.3893700787401571
11
4.4911417322834648
21
-4.3893700787401571
0
LINE
8
BLACK
6
CONTINUOUS
10
4.4911417322834648
20
-4.3893700787401571
11
4.4934016929133858
21
-4.3898196062992128
0
LINE
8
BLACK
6
CONTINUOUS
10
4.542614291338583
20
-4.3898196062992128
11
4.544530157480315
21
-4.3910997637795273
0
LINE
8
BLACK
6
CONTINUOUS
10
4.544530157480315
20
-4.3910997637795273
11
4.5458103149606295
21
-4.3930156299212602
0
LINE
8
BLACK
6
CONTINUOUS
10
4.5458103149606295
20
-4.3930156299212602
11
4.5462598425196852
21
-4.3952755905511811
0
LINE
8
BLACK
6
CONTINUOUS
10
4.5462598425196852
20
-4.3952755905511811
11
4.5462598425196852
21
-4.4503937007874015
0
LINE
8
BLACK
6
CONTINUOUS
10
4.5462598425196852
20
-4.4503937007874015
11
4.5458103149606295
21
-4.4526536614173224
0
LINE
8
BLACK
6
CONTINUOUS
10
4.5458103149606295
20
-4.4526536614173224
11
4.544530157480315
21
-4.4545695275590553
0
LINE
8
BLACK
6
CONTINUOUS
10
4.544530157480315
20
-4.4545695275590553
11
4.542614291338583
21
-4.4558496850393698
0
LINE
8
BLACK
6
CONTINUOUS
10
4.542614291338583
20
-4.4558496850393698
11
4.5403543307086611
21
-4.4562992125984247
0
LINE
8
BLACK
6
CONTINUOUS
10
4.5403543307086611
20
-4.4562992125984247
11
4.5285433070866139
21
-4.4562992125984247
0
LINE
8
BLACK
6
CONTINUOUS
10
4.5285433070866139
20
-4.4562992125984247
11
4.5262833464566929
21
-4.4558496850393698
0
LINE
8
BLACK
6
CONTINUOUS
10
4.5262833464566929
20
-4.4558496850393698
11
4.5243674803149609
21
-4.4545695275590553
0
LINE
8
BLACK
6
CONTINUOUS
10
4.5243674803149609
20
-4.4545695275590553
11
4.5230873228346455
21
-4.4526536614173224
0
LINE
8
BLACK
6
CONTINUOUS
10
4.5230873228346455
20
-4.4526536614173224
11
4.5226377952755907
21
-4.4503937007874015
0
LINE
8
BLACK
6
CONTINUOUS
10
4.5226377952755907
20
-4.4503937007874015
11
4.5226377952755907
21
-4.3952755905511811
0
LINE
8
BLACK
6
CONTINUOUS
10
4.5226377952755907
20
-4.3952755905511811
11
4.5230873228346455
21
-4.3930156299212602
0
LINE
8
BLACK
6
CONTINUOUS
10
4.5230873228346455
20
-4.3930156299212602
11
4.5243674803149609
21
-4.3910997637795273
0
LINE
8
BLACK
6
CONTINUOUS
10
4.5243674803149609
20
-4.3910997637795273
11
4.5262833464566929
21
-4.3898196062992128
0
LINE
8
BLACK
6
CONTINUOUS
10
4.5262833464566929
20
-4.3898196062992128
11
4.5285433070866139
21
-4.3893700787401571
0
LINE
8
BLACK
6
CONTINUOUS
10
4.5285433070866139
20
-4.3893700787401571
11
4.5403543307086611
21
-4.3893700787401571
0
LINE
8
BLACK
6
CONTINUOUS
10
4.5403543307086611
20
-4.3893700787401571
11
4.542614291338583
21
-4.3898196062992128
0
LINE
8
BLACK
6
CONTINUOUS
10
4.5918268897637793
20
-4.3898196062992128
11
4.5937427559055113
21
-4.3910997637795273
0
LINE
8
BLACK
6
CONTINUOUS
10
4.5937427559055113
20
-4.3910997637795273
11
4.5950229133858267
21
-4.3930156299212602
0
LINE
8
BLACK
6
CONTINUOUS
10
4.5950229133858267
20
-4.3930156299212602
11
4.5954724409448815
21
-4.3952755905511811
0
LINE
8
BLACK
6
CONTINUOUS
10
4.5954724409448815
20
-4.3952755905511811
11
4.5954724409448815
21
-4.4503937007874015
0
LINE
8
BLACK
6
CONTINUOUS
10
4.5954724409448815
20
-4.4503937007874015
11
4.5950229133858267
21
-4.4526536614173224
0
LINE
8
BLACK
6
CONTINUOUS
10
4.5950229133858267
20
-4.4526536614173224
11
4.5937427559055113
21
-4.4545695275590553
0
LINE
8
BLACK
6
CONTINUOUS
10
4.5937427559055113
20
-4.4545695275590553
11
4.5918268897637793
21
-4.4558496850393698
0
LINE
8
BLACK
6
CONTINUOUS
10
4.5918268897637793
20
-4.4558496850393698
11
4.5895669291338583
21
-4.4562992125984247
0
LINE
8
BLACK
6
CONTINUOUS
10
4.5895669291338583
20
-4.4562992125984247
11
4.5777559055118111
21
-4.4562992125984247
0
LINE
8
BLACK
6
CONTINUOUS
10
4.5777559055118111
20
-4.4562992125984247
11
4.5754959448818893
21
-4.4558496850393698
0
LINE
8
BLACK
6
CONTINUOUS
10
4.5754959448818893
20
-4.4558496850393698
11
4.5735800787401573
21
-4.4545695275590553
0
LINE
8
BLACK
6
CONTINUOUS
10
4.5735800787401573
20
-4.4545695275590553
11
4.5722999212598427
21
-4.4526536614173224
0
LINE
8
BLACK
6
CONTINUOUS
10
4.5722999212598427
20
-4.4526536614173224
11
4.5718503937007871
21
-4.4503937007874015
0
LINE
8
BLACK
6
CONTINUOUS
10
4.5718503937007871
20
-4.4503937007874015
11
4.5718503937007871
21
-4.3952755905511811
0
LINE
8
BLACK
6
CONTINUOUS
10
4.5718503937007871
20
-4.3952755905511811
11
4.5722999212598427
21
-4.3930156299212602
0
LINE
8
BLACK
6
CONTINUOUS
10
4.5722999212598427
20
-4.3930156299212602
11
4.5735800787401573
21
-4.3910997637795273
0
LINE
8
BLACK
6
CONTINUOUS
10
4.5735800787401573
20
-4.3910997637795273
11
4.5754959448818893
21
-4.3898196062992128
0
LINE
8
BLACK
6
CONTINUOUS
10
4.5754959448818893
20
-4.3898196062992128
11
4.5777559055118111
21
-4.3893700787401571
0
LINE
8
BLACK
6
CONTINUOUS
10
4.5777559055118111
20
-4.3893700787401571
11
4.5895669291338583
21
-4.3893700787401571
0
LINE
8
BLACK
6
CONTINUOUS
10
4.5895669291338583
20
-4.3893700787401571
11
4.5918268897637793
21
-4.3898196062992128
0
LINE
8
BLACK
6
CONTINUOUS
10
4.6410394881889765
20
-4.3898196062992128
11
4.6429553543307085
21
-4.3910997637795273
0
LINE
8
BLACK
6
CONTINUOUS
10
4.6429553543307085
20
-4.3910997637795273
11
4.6442355118110239
21
-4.3930156299212602
0
LINE
8
BLACK
6
CONTINUOUS
10
4.6442355118110239
20
-4.3930156299212602
11
4.6446850393700787
21
-4.3952755905511811
0
LINE
8
BLACK
6
CONTINUOUS
10
4.6446850393700787
20
-4.3952755905511811
11
4.6446850393700787
21
-4.4503937007874015
0
LINE
8
BLACK
6
CONTINUOUS
10
4.6446850393700787
20
-4.4503937007874015
11
4.6442355118110239
21
-4.4526536614173224
0
LINE
8
BLACK
6
CONTINUOUS
10
4.6442355118110239
20
-4.4526536614173224
11
4.6429553543307085
21
-4.4545695275590553
0
LINE
8
BLACK
6
CONTINUOUS
10
4.6429553543307085
20
-4.4545695275590553
11
4.6410394881889765
21
-4.4558496850393698
0
LINE
8
BLACK
6
CONTINUOUS
10
4.6410394881889765
20
-4.4558496850393698
11
4.6387795275590546
21
-4.4562992125984247
0
LINE
8
BLACK
6
CONTINUOUS
10
4.6387795275590546
20
-4.4562992125984247
11
4.6269685039370074
21
-4.4562992125984247
0
LINE
8
BLACK
6
CONTINUOUS
10
4.6269685039370074
20
-4.4562992125984247
11
4.6247085433070865
21
-4.4558496850393698
0
LINE
8
BLACK
6
CONTINUOUS
10
4.6247085433070865
20
-4.4558496850393698
11
4.6227926771653545
21
-4.4545695275590553
0
LINE
8
BLACK
6
CONTINUOUS
10
4.6227926771653545
20
-4.4545695275590553
11
4.6215125196850391
21
-4.4526536614173224
0
LINE
8
BLACK
6
CONTINUOUS
10
4.6215125196850391
20
-4.4526536614173224
11
4.6210629921259843
21
-4.4503937007874015
0
LINE
8
BLACK
6
CONTINUOUS
10
4.6210629921259843
20
-4.4503937007874015
11
4.6210629921259843
21
-4.3952755905511811
0
LINE
8
BLACK
6
CONTINUOUS
10
4.6210629921259843
20
-4.3952755905511811
11
4.6215125196850391
21
-4.3930156299212602
0
LINE
8
BLACK
6
CONTINUOUS
10
4.6215125196850391
20
-4.3930156299212602
11
4.6227926771653545
21
-4.3910997637795273
0
LINE
8
BLACK
6
CONTINUOUS
10
4.6227926771653545
20
-4.3910997637795273
11
4.6247085433070865
21
-4.3898196062992128
0
LINE
8
BLACK
6
CONTINUOUS
10
4.6247085433070865
20
-4.3898196062992128
11
4.6269685039370074
21
-4.3893700787401571
0
LINE
8
BLACK
6
CONTINUOUS
10
4.6269685039370074
20
-4.3893700787401571
11
4.6387795275590546
21
-4.3893700787401571
0
LINE
8
BLACK
6
CONTINUOUS
10
4.6387795275590546
20
-4.3893700787401571
11
4.6410394881889765
21
-4.3898196062992128
0
LINE
8
BLACK
6
CONTINUOUS
10
4.6902520866141728
20
-4.3898196062992128
11
4.6921679527559057
21
-4.3910997637795273
0
LINE
8
BLACK
6
CONTINUOUS
10
4.6921679527559057
20
-4.3910997637795273
11
4.6934481102362202
21
-4.3930156299212602
0
LINE
8
BLACK
6
CONTINUOUS
10
4.6934481102362202
20
-4.3930156299212602
11
4.6938976377952759
21
-4.3952755905511811
0
LINE
8
BLACK
6
CONTINUOUS
10
4.6938976377952759
20
-4.3952755905511811
11
4.6938976377952759
21
-4.4503937007874015
0
LINE
8
BLACK
6
CONTINUOUS
10
4.6938976377952759
20
-4.4503937007874015
11
4.6934481102362202
21
-4.4526536614173224
0
LINE
8
BLACK
6
CONTINUOUS
10
4.6934481102362202
20
-4.4526536614173224
11
4.6921679527559057
21
-4.4545695275590553
0
LINE
8
BLACK
6
CONTINUOUS
10
4.6921679527559057
20
-4.4545695275590553
11
4.6902520866141728
21
-4.4558496850393698
0
LINE
8
BLACK
6
CONTINUOUS
10
4.6902520866141728
20
-4.4558496850393698
11
4.6879921259842519
21
-4.4562992125984247
0
LINE
8
BLACK
6
CONTINUOUS
10
4.6879921259842519
20
-4.4562992125984247
11
4.6761811023622046
21
-4.4562992125984247
0
LINE
8
BLACK
6
CONTINUOUS
10
4.6761811023622046
20
-4.4562992125984247
11
4.6739211417322837
21
-4.4558496850393698
0
LINE
8
BLACK
6
CONTINUOUS
10
4.6739211417322837
20
-4.4558496850393698
11
4.6720052755905508
21
-4.4545695275590553
0
LINE
8
BLACK
6
CONTINUOUS
10
4.6720052755905508
20
-4.4545695275590553
11
4.6707251181102363
21
-4.4526536614173224
0
LINE
8
BLACK
6
CONTINUOUS
10
4.6707251181102363
20
-4.4526536614173224
11
4.6702755905511806
21
-4.4503937007874015
0
LINE
8
BLACK
6
CONTINUOUS
10
4.6702755905511806
20
-4.4503937007874015
11
4.6702755905511806
21
-4.3952755905511811
0
LINE
8
BLACK
6
CONTINUOUS
10
4.6702755905511806
20
-4.3952755905511811
11
4.6707251181102363
21
-4.3930156299212602
0
LINE
8
BLACK
6
CONTINUOUS
10
4.6707251181102363
20
-4.3930156299212602
11
4.6720052755905508
21
-4.3910997637795273
0
LINE
8
BLACK
6
CONTINUOUS
10
4.6720052755905508
20
-4.3910997637795273
11
4.6739211417322837
21
-4.3898196062992128
0
LINE
8
BLACK
6
CONTINUOUS
10
4.6739211417322837
20
-4.3898196062992128
11
4.6761811023622046
21
-4.3893700787401571
0
LINE
8
BLACK
6
CONTINUOUS
10
4.6761811023622046
20
-4.3893700787401571
11
4.6879921259842519
21
-4.3893700787401571
0
LINE
8
BLACK
6
CONTINUOUS
10
4.6879921259842519
20
-4.3893700787401571
11
4.6902520866141728
21
-4.3898196062992128
0
LINE
8
BLACK
6
CONTINUOUS
10
4.73946468503937
20
-4.3898196062992128
11
4.741380551181102
21
-4.3910997637795273
0
LINE
8
BLACK
6
CONTINUOUS
10
4.741380551181102
20
-4.3910997637795273
11
4.7426607086614174
21
-4.3930156299212602
0
LINE
8
BLACK
6
CONTINUOUS
10
4.7426607086614174
20
-4.3930156299212602
11
4.7431102362204722
21
-4.3952755905511811
0
LINE
8
BLACK
6
CONTINUOUS
10
4.7431102362204722
20
-4.3952755905511811
11
4.7431102362204722
21
-4.4503937007874015
0
LINE
8
BLACK
6
CONTINUOUS
10
4.7431102362204722
20
-4.4503937007874015
11
4.7426607086614174
21
-4.4526536614173224
0
LINE
8
BLACK
6
CONTINUOUS
10
4.7426607086614174
20
-4.4526536614173224
11
4.741380551181102
21
-4.4545695275590553
0
LINE
8
BLACK
6
CONTINUOUS
10
4.741380551181102
20
-4.4545695275590553
11
4.73946468503937
21
-4.4558496850393698
0
LINE
8
BLACK
6
CONTINUOUS
10
4.73946468503937
20
-4.4558496850393698
11
4.7372047244094491
21
-4.4562992125984247
0
LINE
8
BLACK
6
CONTINUOUS
10
4.7372047244094491
20
-4.4562992125984247
11
4.7253937007874018
21
-4.4562992125984247
0
LINE
8
BLACK
6
CONTINUOUS
10
4.7253937007874018
20
-4.4562992125984247
11
4.72313374015748
21
-4.4558496850393698
0
LINE
8
BLACK
6
CONTINUOUS
10
4.72313374015748
20
-4.4558496850393698
11
4.721217874015748
21
-4.4545695275590553
0
LINE
8
BLACK
6
CONTINUOUS
10
4.721217874015748
20
-4.4545695275590553
11
4.7199377165354326
21
-4.4526536614173224
0
LINE
8
BLACK
6
CONTINUOUS
10
4.7199377165354326
20
-4.4526536614173224
11
4.7194881889763778
21
-4.4503937007874015
0
LINE
8
BLACK
6
CONTINUOUS
10
4.7194881889763778
20
-4.4503937007874015
11
4.7194881889763778
21
-4.3952755905511811
0
LINE
8
BLACK
6
CONTINUOUS
10
4.7194881889763778
20
-4.3952755905511811
11
4.7199377165354326
21
-4.3930156299212602
0
LINE
8
BLACK
6
CONTINUOUS
10
4.7199377165354326
20
-4.3930156299212602
11
4.721217874015748
21
-4.3910997637795273
0
LINE
8
BLACK
6
CONTINUOUS
10
4.721217874015748
20
-4.3910997637795273
11
4.72313374015748
21
-4.3898196062992128
0
LINE
8
BLACK
6
CONTINUOUS
10
4.72313374015748
20
-4.3898196062992128
11
4.7253937007874018
21
-4.3893700787401571
0
LINE
8
BLACK
6
CONTINUOUS
10
4.7253937007874018
20
-4.3893700787401571
11
4.7372047244094491
21
-4.3893700787401571
0
LINE
8
BLACK
6
CONTINUOUS
10
4.7372047244094491
20
-4.3893700787401571
11
4.73946468503937
21
-4.3898196062992128
0
LINE
8
BLACK
6
CONTINUOUS
10
4.7886772834645672
20
-4.3898196062992128
11
4.7905931496062992
21
-4.3910997637795273
0
LINE
8
BLACK
6
CONTINUOUS
10
4.7905931496062992
20
-4.3910997637795273
11
4.7918733070866137
21
-4.3930156299212602
0
LINE
8
BLACK
6
CONTINUOUS
10
4.7918733070866137
20
-4.3930156299212602
11
4.7923228346456694
21
-4.3952755905511811
0
LINE
8
BLACK
6
CONTINUOUS
10
4.7923228346456694
20
-4.3952755905511811
11
4.7923228346456694
21
-4.4503937007874015
0
LINE
8
BLACK
6
CONTINUOUS
10
4.7923228346456694
20
-4.4503937007874015
11
4.7918733070866137
21
-4.4526536614173224
0
LINE
8
BLACK
6
CONTINUOUS
10
4.7918733070866137
20
-4.4526536614173224
11
4.7905931496062992
21
-4.4545695275590553
0
LINE
8
BLACK
6
CONTINUOUS
10
4.7905931496062992
20
-4.4545695275590553
11
4.7886772834645672
21
-4.4558496850393698
0
LINE
8
BLACK
6
CONTINUOUS
10
4.7886772834645672
20
-4.4558496850393698
11
4.7864173228346454
21
-4.4562992125984247
0
LINE
8
BLACK
6
CONTINUOUS
10
4.7864173228346454
20
-4.4562992125984247
11
4.7746062992125982
21
-4.4562992125984247
0
LINE
8
BLACK
6
CONTINUOUS
10
4.7746062992125982
20
-4.4562992125984247
11
4.7723463385826772
21
-4.4558496850393698
0
LINE
8
BLACK
6
CONTINUOUS
10
4.7723463385826772
20
-4.4558496850393698
11
4.7704304724409452
21
-4.4545695275590553
0
LINE
8
BLACK
6
CONTINUOUS
10
4.7704304724409452
20
-4.4545695275590553
11
4.7691503149606298
21
-4.4526536614173224
0
LINE
8
BLACK
6
CONTINUOUS
10
4.7691503149606298
20
-4.4526536614173224
11
4.768700787401575
21
-4.4503937007874015
0
LINE
8
BLACK
6
CONTINUOUS
10
4.768700787401575
20
-4.4503937007874015
11
4.768700787401575
21
-4.3952755905511811
0
LINE
8
BLACK
6
CONTINUOUS
10
4.768700787401575
20
-4.3952755905511811
11
4.7691503149606298
21
-4.3930156299212602
0
LINE
8
BLACK
6
CONTINUOUS
10
4.7691503149606298
20
-4.3930156299212602
11
4.7704304724409452
21
-4.3910997637795273
0
LINE
8
BLACK
6
CONTINUOUS
10
4.7704304724409452
20
-4.3910997637795273
11
4.7723463385826772
21
-4.3898196062992128
0
LINE
8
BLACK
6
CONTINUOUS
10
4.7723463385826772
20
-4.3898196062992128
11
4.7746062992125982
21
-4.3893700787401571
0
LINE
8
BLACK
6
CONTINUOUS
10
4.7746062992125982
20
-4.3893700787401571
11
4.7864173228346454
21
-4.3893700787401571
0
LINE
8
BLACK
6
CONTINUOUS
10
4.7864173228346454
20
-4.3893700787401571
11
4.7886772834645672
21
-4.3898196062992128
0
LINE
8
BLACK
6
CONTINUOUS
10
4.8378898818897635
20
-4.3898196062992128
11
4.8398057480314955
21
-4.3910997637795273
0
LINE
8
BLACK
6
CONTINUOUS
10
4.8398057480314955
20
-4.3910997637795273
11
4.8410859055118109
21
-4.3930156299212602
0
LINE
8
BLACK
6
CONTINUOUS
10
4.8410859055118109
20
-4.3930156299212602
11
4.8415354330708658
21
-4.3952755905511811
0
LINE
8
BLACK
6
CONTINUOUS
10
4.8415354330708658
20
-4.3952755905511811
11
4.8415354330708658
21
-4.4503937007874015
0
LINE
8
BLACK
6
CONTINUOUS
10
4.8415354330708658
20
-4.4503937007874015
11
4.8410859055118109
21
-4.4526536614173224
0
LINE
8
BLACK
6
CONTINUOUS
10
4.8410859055118109
20
-4.4526536614173224
11
4.8398057480314955
21
-4.4545695275590553
0
LINE
8
BLACK
6
CONTINUOUS
10
4.8398057480314955
20
-4.4545695275590553
11
4.8378898818897635
21
-4.4558496850393698
0
LINE
8
BLACK
6
CONTINUOUS
10
4.8378898818897635
20
-4.4558496850393698
11
4.8356299212598426
21
-4.4562992125984247
0
LINE
8
BLACK
6
CONTINUOUS
10
4.8356299212598426
20
-4.4562992125984247
11
4.8238188976377954
21
-4.4562992125984247
0
LINE
8
BLACK
6
CONTINUOUS
10
4.8238188976377954
20
-4.4562992125984247
11
4.8215589370078735
21
-4.4558496850393698
0
LINE
8
BLACK
6
CONTINUOUS
10
4.8215589370078735
20
-4.4558496850393698
11
4.8196430708661415
21
-4.4545695275590553
0
LINE
8
BLACK
6
CONTINUOUS
10
4.8196430708661415
20
-4.4545695275590553
11
4.818362913385827
21
-4.4526536614173224
0
LINE
8
BLACK
6
CONTINUOUS
10
4.818362913385827
20
-4.4526536614173224
11
4.8179133858267713
21
-4.4503937007874015
0
LINE
8
BLACK
6
CONTINUOUS
10
4.8179133858267713
20
-4.4503937007874015
11
4.8179133858267713
21
-4.3952755905511811
0
LINE
8
BLACK
6
CONTINUOUS
10
4.8179133858267713
20
-4.3952755905511811
11
4.818362913385827
21
-4.3930156299212602
0
LINE
8
BLACK
6
CONTINUOUS
10
4.818362913385827
20
-4.3930156299212602
11
4.8196430708661415
21
-4.3910997637795273
0
LINE
8
BLACK
6
CONTINUOUS
10
4.8196430708661415
20
-4.3910997637795273
11
4.8215589370078735
21
-4.3898196062992128
0
LINE
8
BLACK
6
CONTINUOUS
10
4.8215589370078735
20
-4.3898196062992128
11
4.8238188976377954
21
-4.3893700787401571
0
LINE
8
BLACK
6
CONTINUOUS
10
4.8238188976377954
20
-4.3893700787401571
11
4.8356299212598426
21
-4.3893700787401571
0
LINE
8
BLACK
6
CONTINUOUS
10
4.8356299212598426
20
-4.3893700787401571
11
4.8378898818897635
21
-4.3898196062992128
0
LINE
8
BLACK
6
CONTINUOUS
10
4.8871024803149608
20
-4.3898196062992128
11
4.8890183464566928
21
-4.3910997637795273
0
LINE
8
BLACK
6
CONTINUOUS
10
4.8890183464566928
20
-4.3910997637795273
11
4.8902985039370082
21
-4.3930156299212602
0
LINE
8
BLACK
6
CONTINUOUS
10
4.8902985039370082
20
-4.3930156299212602
11
4.890748031496063
21
-4.3952755905511811
0
LINE
8
BLACK
6
CONTINUOUS
10
4.890748031496063
20
-4.3952755905511811
11
4.890748031496063
21
-4.4503937007874015
0
LINE
8
BLACK
6
CONTINUOUS
10
4.890748031496063
20
-4.4503937007874015
11
4.8902985039370082
21
-4.4526536614173224
0
LINE
8
BLACK
6
CONTINUOUS
10
4.8902985039370082
20
-4.4526536614173224
11
4.8890183464566928
21
-4.4545695275590553
0
LINE
8
BLACK
6
CONTINUOUS
10
4.8890183464566928
20
-4.4545695275590553
11
4.8871024803149608
21
-4.4558496850393698
0
LINE
8
BLACK
6
CONTINUOUS
10
4.8871024803149608
20
-4.4558496850393698
11
4.8848425196850389
21
-4.4562992125984247
0
LINE
8
BLACK
6
CONTINUOUS
10
4.8848425196850389
20
-4.4562992125984247
11
4.8730314960629917
21
-4.4562992125984247
0
LINE
8
BLACK
6
CONTINUOUS
10
4.8730314960629917
20
-4.4562992125984247
11
4.8707715354330707
21
-4.4558496850393698
0
LINE
8
BLACK
6
CONTINUOUS
10
4.8707715354330707
20
-4.4558496850393698
11
4.8688556692913387
21
-4.4545695275590553
0
LINE
8
BLACK
6
CONTINUOUS
10
4.8688556692913387
20
-4.4545695275590553
11
4.8675755118110233
21
-4.4526536614173224
0
LINE
8
BLACK
6
CONTINUOUS
10
4.8675755118110233
20
-4.4526536614173224
11
4.8671259842519685
21
-4.4503937007874015
0
LINE
8
BLACK
6
CONTINUOUS
10
4.8671259842519685
20
-4.4503937007874015
11
4.8671259842519685
21
-4.3952755905511811
0
LINE
8
BLACK
6
CONTINUOUS
10
4.8671259842519685
20
-4.3952755905511811
11
4.8675755118110233
21
-4.3930156299212602
0
LINE
8
BLACK
6
CONTINUOUS
10
4.8675755118110233
20
-4.3930156299212602
11
4.8688556692913387
21
-4.3910997637795273
0
LINE
8
BLACK
6
CONTINUOUS
10
4.8688556692913387
20
-4.3910997637795273
11
4.8707715354330707
21
-4.3898196062992128
0
LINE
8
BLACK
6
CONTINUOUS
10
4.8707715354330707
20
-4.3898196062992128
11
4.8730314960629917
21
-4.3893700787401571
0
LINE
8
BLACK
6
CONTINUOUS
10
4.8730314960629917
20
-4.3893700787401571
11
4.8848425196850389
21
-4.3893700787401571
0
LINE
8
BLACK
6
CONTINUOUS
10
4.8848425196850389
20
-4.3893700787401571
11
4.8871024803149608
21
-4.3898196062992128
0
LINE
8
BLACK
6
CONTINUOUS
10
5.1221615354330705
20
-4.3898196062992128
11
5.1240774015748034
21
-4.3910997637795273
0
LINE
8
BLACK
6
CONTINUOUS
10
5.1240774015748034
20
-4.3910997637795273
11
5.1253575590551179
21
-4.3930156299212602
0
LINE
8
BLACK
6
CONTINUOUS
10
5.1253575590551179
20
-4.3930156299212602
11
5.1258070866141727
21
-4.3952755905511811
0
LINE
8
BLACK
6
CONTINUOUS
10
5.1258070866141727
20
-4.3952755905511811
11
5.1258070866141727
21
-4.4503937007874015
0
LINE
8
BLACK
6
CONTINUOUS
10
5.1258070866141727
20
-4.4503937007874015
11
5.1253575590551179
21
-4.4526536614173224
0
LINE
8
BLACK
6
CONTINUOUS
10
5.1253575590551179
20
-4.4526536614173224
11
5.1240774015748034
21
-4.4545695275590553
0
LINE
8
BLACK
6
CONTINUOUS
10
5.1240774015748034
20
-4.4545695275590553
11
5.1221615354330705
21
-4.4558496850393698
0
LINE
8
BLACK
6
CONTINUOUS
10
5.1221615354330705
20
-4.4558496850393698
11
5.1199015748031496
21
-4.4562992125984247
0
LINE
8
BLACK
6
CONTINUOUS
10
5.1199015748031496
20
-4.4562992125984247
11
5.1080905511811023
21
-4.4562992125984247
0
LINE
8
BLACK
6
CONTINUOUS
10
5.1080905511811023
20
-4.4562992125984247
11
5.1058305905511814
21
-4.4558496850393698
0
LINE
8
BLACK
6
CONTINUOUS
10
5.1058305905511814
20
-4.4558496850393698
11
5.1039147244094485
21
-4.4545695275590553
0
LINE
8
BLACK
6
CONTINUOUS
10
5.1039147244094485
20
-4.4545695275590553
11
5.102634566929134
21
-4.4526536614173224
0
LINE
8
BLACK
6
CONTINUOUS
10
5.102634566929134
20
-4.4526536614173224
11
5.1021850393700783
21
-4.4503937007874015
0
LINE
8
BLACK
6
CONTINUOUS
10
5.1021850393700783
20
-4.4503937007874015
11
5.1021850393700783
21
-4.3952755905511811
0
LINE
8
BLACK
6
CONTINUOUS
10
5.1021850393700783
20
-4.3952755905511811
11
5.102634566929134
21
-4.3930156299212602
0
LINE
8
BLACK
6
CONTINUOUS
10
5.102634566929134
20
-4.3930156299212602
11
5.1039147244094485
21
-4.3910997637795273
0
LINE
8
BLACK
6
CONTINUOUS
10
5.1039147244094485
20
-4.3910997637795273
11
5.1058305905511814
21
-4.3898196062992128
0
LINE
8
BLACK
6
CONTINUOUS
10
5.1058305905511814
20
-4.3898196062992128
11
5.1080905511811023
21
-4.3893700787401571
0
LINE
8
BLACK
6
CONTINUOUS
10
5.1080905511811023
20
-4.3893700787401571
11
5.1199015748031496
21
-4.3893700787401571
0
LINE
8
BLACK
6
CONTINUOUS
10
5.1199015748031496
20
-4.3893700787401571
11
5.1221615354330705
21
-4.3898196062992128
0
LINE
8
BLACK
6
CONTINUOUS
10
5.1713741338582677
20
-4.3898196062992128
11
5.1732899999999997
21
-4.3910997637795273
0
LINE
8
BLACK
6
CONTINUOUS
10
5.1732899999999997
20
-4.3910997637795273
11
5.1745701574803151
21
-4.3930156299212602
0
LINE
8
BLACK
6
CONTINUOUS
10
5.1745701574803151
20
-4.3930156299212602
11
5.1750196850393699
21
-4.3952755905511811
0
LINE
8
BLACK
6
CONTINUOUS
10
5.1750196850393699
20
-4.3952755905511811
11
5.1750196850393699
21
-4.4503937007874015
0
LINE
8
BLACK
6
CONTINUOUS
10
5.1750196850393699
20
-4.4503937007874015
11
5.1745701574803151
21
-4.4526536614173224
0
LINE
8
BLACK
6
CONTINUOUS
10
5.1745701574803151
20
-4.4526536614173224
11
5.1732899999999997
21
-4.4545695275590553
0
LINE
8
BLACK
6
CONTINUOUS
10
5.1732899999999997
20
-4.4545695275590553
11
5.1713741338582677
21
-4.4558496850393698
0
LINE
8
BLACK
6
CONTINUOUS
10
5.1713741338582677
20
-4.4558496850393698
11
5.1691141732283468
21
-4.4562992125984247
0
LINE
8
BLACK
6
CONTINUOUS
10
5.1691141732283468
20
-4.4562992125984247
11
5.1573031496062987
21
-4.4562992125984247
0
LINE
8
BLACK
6
CONTINUOUS
10
5.1573031496062987
20
-4.4562992125984247
11
5.1550431889763777
21
-4.4558496850393698
0
LINE
8
BLACK
6
CONTINUOUS
10
5.1550431889763777
20
-4.4558496850393698
11
5.1531273228346457
21
-4.4545695275590553
0
LINE
8
BLACK
6
CONTINUOUS
10
5.1531273228346457
20
-4.4545695275590553
11
5.1518471653543303
21
-4.4526536614173224
0
LINE
8
BLACK
6
CONTINUOUS
10
5.1518471653543303
20
-4.4526536614173224
11
5.1513976377952755
21
-4.4503937007874015
0
LINE
8
BLACK
6
CONTINUOUS
10
5.1513976377952755
20
-4.4503937007874015
11
5.1513976377952755
21
-4.3952755905511811
0
LINE
8
BLACK
6
CONTINUOUS
10
5.1513976377952755
20
-4.3952755905511811
11
5.1518471653543303
21
-4.3930156299212602
0
LINE
8
BLACK
6
CONTINUOUS
10
5.1518471653543303
20
-4.3930156299212602
11
5.1531273228346457
21
-4.3910997637795273
0
LINE
8
BLACK
6
CONTINUOUS
10
5.1531273228346457
20
-4.3910997637795273
11
5.1550431889763777
21
-4.3898196062992128
0
LINE
8
BLACK
6
CONTINUOUS
10
5.1550431889763777
20
-4.3898196062992128
11
5.1573031496062987
21
-4.3893700787401571
0
LINE
8
BLACK
6
CONTINUOUS
10
5.1573031496062987
20
-4.3893700787401571
11
5.1691141732283468
21
-4.3893700787401571
0
LINE
8
BLACK
6
CONTINUOUS
10
5.1691141732283468
20
-4.3893700787401571
11
5.1713741338582677
21
-4.3898196062992128
0
LINE
8
BLACK
6
CONTINUOUS
10
5.220586732283464
20
-4.3898196062992128
11
5.2225025984251969
21
-4.3910997637795273
0
LINE
8
BLACK
6
CONTINUOUS
10
5.2225025984251969
20
-4.3910997637795273
11
5.2237827559055114
21
-4.3930156299212602
0
LINE
8
BLACK
6
CONTINUOUS
10
5.2237827559055114
20
-4.3930156299212602
11
5.2242322834645671
21
-4.3952755905511811
0
LINE
8
BLACK
6
CONTINUOUS
10
5.2242322834645671
20
-4.3952755905511811
11
5.2242322834645671
21
-4.4503937007874015
0
LINE
8
BLACK
6
CONTINUOUS
10
5.2242322834645671
20
-4.4503937007874015
11
5.2237827559055114
21
-4.4526536614173224
0
LINE
8
BLACK
6
CONTINUOUS
10
5.2237827559055114
20
-4.4526536614173224
11
5.2225025984251969
21
-4.4545695275590553
0
LINE
8
BLACK
6
CONTINUOUS
10
5.2225025984251969
20
-4.4545695275590553
11
5.220586732283464
21
-4.4558496850393698
0
LINE
8
BLACK
6
CONTINUOUS
10
5.220586732283464
20
-4.4558496850393698
11
5.2183267716535431
21
-4.4562992125984247
0
LINE
8
BLACK
6
CONTINUOUS
10
5.2183267716535431
20
-4.4562992125984247
11
5.2065157480314959
21
-4.4562992125984247
0
LINE
8
BLACK
6
CONTINUOUS
10
5.2065157480314959
20
-4.4562992125984247
11
5.2042557874015749
21
-4.4558496850393698
0
LINE
8
BLACK
6
CONTINUOUS
10
5.2042557874015749
20
-4.4558496850393698
11
5.202339921259842
21
-4.4545695275590553
0
LINE
8
BLACK
6
CONTINUOUS
10
5.202339921259842
20
-4.4545695275590553
11
5.2010597637795275
21
-4.4526536614173224
0
LINE
8
BLACK
6
CONTINUOUS
10
5.2010597637795275
20
-4.4526536614173224
11
5.2006102362204727
21
-4.4503937007874015
0
LINE
8
BLACK
6
CONTINUOUS
10
5.2006102362204727
20
-4.4503937007874015
11
5.2006102362204727
21
-4.3952755905511811
0
LINE
8
BLACK
6
CONTINUOUS
10
5.2006102362204727
20
-4.3952755905511811
11
5.2010597637795275
21
-4.3930156299212602
0
LINE
8
BLACK
6
CONTINUOUS
10
5.2010597637795275
20
-4.3930156299212602
11
5.202339921259842
21
-4.3910997637795273
0
LINE
8
BLACK
6
CONTINUOUS
10
5.202339921259842
20
-4.3910997637795273
11
5.2042557874015749
21
-4.3898196062992128
0
LINE
8
BLACK
6
CONTINUOUS
10
5.2042557874015749
20
-4.3898196062992128
11
5.2065157480314959
21
-4.3893700787401571
0
LINE
8
BLACK
6
CONTINUOUS
10
5.2065157480314959
20
-4.3893700787401571
11
5.2183267716535431
21
-4.3893700787401571
0
LINE
8
BLACK
6
CONTINUOUS
10
5.2183267716535431
20
-4.3893700787401571
11
5.220586732283464
21
-4.3898196062992128
0
LINE
8
BLACK
6
CONTINUOUS
10
5.2697993307086612
20
-4.3898196062992128
11
5.2717151968503932
21
-4.3910997637795273
0
LINE
8
BLACK
6
CONTINUOUS
10
5.2717151968503932
20
-4.3910997637795273
11
5.2729953543307087
21
-4.3930156299212602
0
LINE
8
BLACK
6
CONTINUOUS
10
5.2729953543307087
20
-4.3930156299212602
11
5.2734448818897635
21
-4.3952755905511811
0
LINE
8
BLACK
6
CONTINUOUS
10
5.2734448818897635
20
-4.3952755905511811
11
5.2734448818897635
21
-4.4503937007874015
0
LINE
8
BLACK
6
CONTINUOUS
10
5.2734448818897635
20
-4.4503937007874015
11
5.2729953543307087
21
-4.4526536614173224
0
LINE
8
BLACK
6
CONTINUOUS
10
5.2729953543307087
20
-4.4526536614173224
11
5.2717151968503932
21
-4.4545695275590553
0
LINE
8
BLACK
6
CONTINUOUS
10
5.2717151968503932
20
-4.4545695275590553
11
5.2697993307086612
21
-4.4558496850393698
0
LINE
8
BLACK
6
CONTINUOUS
10
5.2697993307086612
20
-4.4558496850393698
11
5.2675393700787403
21
-4.4562992125984247
0
LINE
8
BLACK
6
CONTINUOUS
10
5.2675393700787403
20
-4.4562992125984247
11
5.2557283464566931
21
-4.4562992125984247
0
LINE
8
BLACK
6
CONTINUOUS
10
5.2557283464566931
20
-4.4562992125984247
11
5.2534683858267712
21
-4.4558496850393698
0
LINE
8
BLACK
6
CONTINUOUS
10
5.2534683858267712
20
-4.4558496850393698
11
5.2515525196850392
21
-4.4545695275590553
0
LINE
8
BLACK
6
CONTINUOUS
10
5.2515525196850392
20
-4.4545695275590553
11
5.2502723622047247
21
-4.4526536614173224
0
LINE
8
BLACK
6
CONTINUOUS
10
5.2502723622047247
20
-4.4526536614173224
11
5.249822834645669
21
-4.4503937007874015
0
LINE
8
BLACK
6
CONTINUOUS
10
5.249822834645669
20
-4.4503937007874015
11
5.249822834645669
21
-4.3952755905511811
0
LINE
8
BLACK
6
CONTINUOUS
10
5.249822834645669
20
-4.3952755905511811
11
5.2502723622047247
21
-4.3930156299212602
0
LINE
8
BLACK
6
CONTINUOUS
10
5.2502723622047247
20
-4.3930156299212602
11
5.2515525196850392
21
-4.3910997637795273
0
LINE
8
BLACK
6
CONTINUOUS
10
5.2515525196850392
20
-4.3910997637795273
11
5.2534683858267712
21
-4.3898196062992128
0
LINE
8
BLACK
6
CONTINUOUS
10
5.2534683858267712
20
-4.3898196062992128
11
5.2557283464566931
21
-4.3893700787401571
0
LINE
8
BLACK
6
CONTINUOUS
10
5.2557283464566931
20
-4.3893700787401571
11
5.2675393700787403
21
-4.3893700787401571
0
LINE
8
BLACK
6
CONTINUOUS
10
5.2675393700787403
20
-4.3893700787401571
11
5.2697993307086612
21
-4.3898196062992128
0
LINE
8
BLACK
6
CONTINUOUS
10
5.3190119291338585
20
-4.3898196062992128
11
5.3209277952755905
21
-4.3910997637795273
0
LINE
8
BLACK
6
CONTINUOUS
10
5.3209277952755905
20
-4.3910997637795273
11
5.322207952755905
21
-4.3930156299212602
0
LINE
8
BLACK
6
CONTINUOUS
10
5.322207952755905
20
-4.3930156299212602
11
5.3226574803149607
21
-4.3952755905511811
0
LINE
8
BLACK
6
CONTINUOUS
10
5.3226574803149607
20
-4.3952755905511811
11
5.3226574803149607
21
-4.4503937007874015
0
LINE
8
BLACK
6
CONTINUOUS
10
5.3226574803149607
20
-4.4503937007874015
11
5.322207952755905
21
-4.4526536614173224
0
LINE
8
BLACK
6
CONTINUOUS
10
5.322207952755905
20
-4.4526536614173224
11
5.3209277952755905
21
-4.4545695275590553
0
LINE
8
BLACK
6
CONTINUOUS
10
5.3209277952755905
20
-4.4545695275590553
11
5.3190119291338585
21
-4.4558496850393698
0
LINE
8
BLACK
6
CONTINUOUS
10
5.3190119291338585
20
-4.4558496850393698
11
5.3167519685039366
21
-4.4562992125984247
0
LINE
8
BLACK
6
CONTINUOUS
10
5.3167519685039366
20
-4.4562992125984247
11
5.3049409448818894
21
-4.4562992125984247
0
LINE
8
BLACK
6
CONTINUOUS
10
5.3049409448818894
20
-4.4562992125984247
11
5.3026809842519684
21
-4.4558496850393698
0
LINE
8
BLACK
6
CONTINUOUS
10
5.3026809842519684
20
-4.4558496850393698
11
5.3007651181102364
21
-4.4545695275590553
0
LINE
8
BLACK
6
CONTINUOUS
10
5.3007651181102364
20
-4.4545695275590553
11
5.299484960629921
21
-4.4526536614173224
0
LINE
8
BLACK
6
CONTINUOUS
10
5.299484960629921
20
-4.4526536614173224
11
5.2990354330708662
21
-4.4503937007874015
0
LINE
8
BLACK
6
CONTINUOUS
10
5.2990354330708662
20
-4.4503937007874015
11
5.2990354330708662
21
-4.3952755905511811
0
LINE
8
BLACK
6
CONTINUOUS
10
5.2990354330708662
20
-4.3952755905511811
11
5.299484960629921
21
-4.3930156299212602
0
LINE
8
BLACK
6
CONTINUOUS
10
5.299484960629921
20
-4.3930156299212602
11
5.3007651181102364
21
-4.3910997637795273
0
LINE
8
BLACK
6
CONTINUOUS
10
5.3007651181102364
20
-4.3910997637795273
11
5.3026809842519684
21
-4.3898196062992128
0
LINE
8
BLACK
6
CONTINUOUS
10
5.3026809842519684
20
-4.3898196062992128
11
5.3049409448818894
21
-4.3893700787401571
0
LINE
8
BLACK
6
CONTINUOUS
10
5.3049409448818894
20
-4.3893700787401571
11
5.3167519685039366
21
-4.3893700787401571
0
LINE
8
BLACK
6
CONTINUOUS
10
5.3167519685039366
20
-4.3893700787401571
11
5.3190119291338585
21
-4.3898196062992128
0
LINE
8
BLACK
6
CONTINUOUS
10
5.3682245275590548
20
-4.3898196062992128
11
5.3701403937007877
21
-4.3910997637795273
0
LINE
8
BLACK
6
CONTINUOUS
10
5.3701403937007877
20
-4.3910997637795273
11
5.3714205511811022
21
-4.3930156299212602
0
LINE
8
BLACK
6
CONTINUOUS
10
5.3714205511811022
20
-4.3930156299212602
11
5.371870078740157
21
-4.3952755905511811
0
LINE
8
BLACK
6
CONTINUOUS
10
5.371870078740157
20
-4.3952755905511811
11
5.371870078740157
21
-4.4503937007874015
0
LINE
8
BLACK
6
CONTINUOUS
10
5.371870078740157
20
-4.4503937007874015
11
5.3714205511811022
21
-4.4526536614173224
0
LINE
8
BLACK
6
CONTINUOUS
10
5.3714205511811022
20
-4.4526536614173224
11
5.3701403937007877
21
-4.4545695275590553
0
LINE
8
BLACK
6
CONTINUOUS
10
5.3701403937007877
20
-4.4545695275590553
11
5.3682245275590548
21
-4.4558496850393698
0
LINE
8
BLACK
6
CONTINUOUS
10
5.3682245275590548
20
-4.4558496850393698
11
5.3659645669291338
21
-4.4562992125984247
0
LINE
8
BLACK
6
CONTINUOUS
10
5.3659645669291338
20
-4.4562992125984247
11
5.3541535433070866
21
-4.4562992125984247
0
LINE
8
BLACK
6
CONTINUOUS
10
5.3541535433070866
20
-4.4562992125984247
11
5.3518935826771656
21
-4.4558496850393698
0
LINE
8
BLACK
6
CONTINUOUS
10
5.3518935826771656
20
-4.4558496850393698
11
5.3499777165354327
21
-4.4545695275590553
0
LINE
8
BLACK
6
CONTINUOUS
10
5.3499777165354327
20
-4.4545695275590553
11
5.3486975590551182
21
-4.4526536614173224
0
LINE
8
BLACK
6
CONTINUOUS
10
5.3486975590551182
20
-4.4526536614173224
11
5.3482480314960625
21
-4.4503937007874015
0
LINE
8
BLACK
6
CONTINUOUS
10
5.3482480314960625
20
-4.4503937007874015
11
5.3482480314960625
21
-4.3952755905511811
0
LINE
8
BLACK
6
CONTINUOUS
10
5.3482480314960625
20
-4.3952755905511811
11
5.3486975590551182
21
-4.3930156299212602
0
LINE
8
BLACK
6
CONTINUOUS
10
5.3486975590551182
20
-4.3930156299212602
11
5.3499777165354327
21
-4.3910997637795273
0
LINE
8
BLACK
6
CONTINUOUS
10
5.3499777165354327
20
-4.3910997637795273
11
5.3518935826771656
21
-4.3898196062992128
0
LINE
8
BLACK
6
CONTINUOUS
10
5.3518935826771656
20
-4.3898196062992128
11
5.3541535433070866
21
-4.3893700787401571
0
LINE
8
BLACK
6
CONTINUOUS
10
5.3541535433070866
20
-4.3893700787401571
11
5.3659645669291338
21
-4.3893700787401571
0
LINE
8
BLACK
6
CONTINUOUS
10
5.3659645669291338
20
-4.3893700787401571
11
5.3682245275590548
21
-4.3898196062992128
0
LINE
8
BLACK
6
CONTINUOUS
10
5.6030867322834643
20
-4.3898196062992128
11
5.6050025984251963
21
-4.3910997637795273
0
LINE
8
BLACK
6
CONTINUOUS
10
5.6050025984251963
20
-4.3910997637795273
11
5.6062827559055117
21
-4.3930156299212602
0
LINE
8
BLACK
6
CONTINUOUS
10
5.6062827559055117
20
-4.3930156299212602
11
5.6067322834645665
21
-4.3952755905511811
0
LINE
8
BLACK
6
CONTINUOUS
10
5.6067322834645665
20
-4.3952755905511811
11
5.6067322834645665
21
-4.4503937007874015
0
LINE
8
BLACK
6
CONTINUOUS
10
5.6067322834645665
20
-4.4503937007874015
11
5.6062827559055117
21
-4.4526536614173224
0
LINE
8
BLACK
6
CONTINUOUS
10
5.6062827559055117
20
-4.4526536614173224
11
5.6050025984251963
21
-4.4545695275590553
0
LINE
8
BLACK
6
CONTINUOUS
10
5.6050025984251963
20
-4.4545695275590553
11
5.6030867322834643
21
-4.4558496850393698
0
LINE
8
BLACK
6
CONTINUOUS
10
5.6030867322834643
20
-4.4558496850393698
11
5.6008267716535434
21
-4.4562992125984247
0
LINE
8
BLACK
6
CONTINUOUS
10
5.6008267716535434
20
-4.4562992125984247
11
5.5890157480314961
21
-4.4562992125984247
0
LINE
8
BLACK
6
CONTINUOUS
10
5.5890157480314961
20
-4.4562992125984247
11
5.5867557874015743
21
-4.4558496850393698
0
LINE
8
BLACK
6
CONTINUOUS
10
5.5867557874015743
20
-4.4558496850393698
11
5.5848399212598423
21
-4.4545695275590553
0
LINE
8
BLACK
6
CONTINUOUS
10
5.5848399212598423
20
-4.4545695275590553
11
5.5835597637795278
21
-4.4526536614173224
0
LINE
8
BLACK
6
CONTINUOUS
10
5.5835597637795278
20
-4.4526536614173224
11
5.5831102362204721
21
-4.4503937007874015
0
LINE
8
BLACK
6
CONTINUOUS
10
5.5831102362204721
20
-4.4503937007874015
11
5.5831102362204721
21
-4.3952755905511811
0
LINE
8
BLACK
6
CONTINUOUS
10
5.5831102362204721
20
-4.3952755905511811
11
5.5835597637795278
21
-4.3930156299212602
0
LINE
8
BLACK
6
CONTINUOUS
10
5.5835597637795278
20
-4.3930156299212602
11
5.5848399212598423
21
-4.3910997637795273
0
LINE
8
BLACK
6
CONTINUOUS
10
5.5848399212598423
20
-4.3910997637795273
11
5.5867557874015743
21
-4.3898196062992128
0
LINE
8
BLACK
6
CONTINUOUS
10
5.5867557874015743
20
-4.3898196062992128
11
5.5890157480314961
21
-4.3893700787401571
0
LINE
8
BLACK
6
CONTINUOUS
10
5.5890157480314961
20
-4.3893700787401571
11
5.6008267716535434
21
-4.3893700787401571
0
LINE
8
BLACK
6
CONTINUOUS
10
5.6008267716535434
20
-4.3893700787401571
11
5.6030867322834643
21
-4.3898196062992128
0
LINE
8
BLACK
6
CONTINUOUS
10
5.6522993307086615
20
-4.3898196062992128
11
5.6542151968503935
21
-4.3910997637795273
0
LINE
8
BLACK
6
CONTINUOUS
10
5.6542151968503935
20
-4.3910997637795273
11
5.6554953543307089
21
-4.3930156299212602
0
LINE
8
BLACK
6
CONTINUOUS
10
5.6554953543307089
20
-4.3930156299212602
11
5.6559448818897637
21
-4.3952755905511811
0
LINE
8
BLACK
6
CONTINUOUS
10
5.6559448818897637
20
-4.3952755905511811
11
5.6559448818897637
21
-4.4503937007874015
0
LINE
8
BLACK
6
CONTINUOUS
10
5.6559448818897637
20
-4.4503937007874015
11
5.6554953543307089
21
-4.4526536614173224
0
LINE
8
BLACK
6
CONTINUOUS
10
5.6554953543307089
20
-4.4526536614173224
11
5.6542151968503935
21
-4.4545695275590553
0
LINE
8
BLACK
6
CONTINUOUS
10
5.6542151968503935
20
-4.4545695275590553
11
5.6522993307086615
21
-4.4558496850393698
0
LINE
8
BLACK
6
CONTINUOUS
10
5.6522993307086615
20
-4.4558496850393698
11
5.6500393700787397
21
-4.4562992125984247
0
LINE
8
BLACK
6
CONTINUOUS
10
5.6500393700787397
20
-4.4562992125984247
11
5.6382283464566925
21
-4.4562992125984247
0
LINE
8
BLACK
6
CONTINUOUS
10
5.6382283464566925
20
-4.4562992125984247
11
5.6359683858267715
21
-4.4558496850393698
0
LINE
8
BLACK
6
CONTINUOUS
10
5.6359683858267715
20
-4.4558496850393698
11
5.6340525196850395
21
-4.4545695275590553
0
LINE
8
BLACK
6
CONTINUOUS
10
5.6340525196850395
20
-4.4545695275590553
11
5.6327723622047241
21
-4.4526536614173224
0
LINE
8
BLACK
6
CONTINUOUS
10
5.6327723622047241
20
-4.4526536614173224
11
5.6323228346456693
21
-4.4503937007874015
0
LINE
8
BLACK
6
CONTINUOUS
10
5.6323228346456693
20
-4.4503937007874015
11
5.6323228346456693
21
-4.3952755905511811
0
LINE
8
BLACK
6
CONTINUOUS
10
5.6323228346456693
20
-4.3952755905511811
11
5.6327723622047241
21
-4.3930156299212602
0
LINE
8
BLACK
6
CONTINUOUS
10
5.6327723622047241
20
-4.3930156299212602
11
5.6340525196850395
21
-4.3910997637795273
0
LINE
8
BLACK
6
CONTINUOUS
10
5.6340525196850395
20
-4.3910997637795273
11
5.6359683858267715
21
-4.3898196062992128
0
LINE
8
BLACK
6
CONTINUOUS
10
5.6359683858267715
20
-4.3898196062992128
11
5.6382283464566925
21
-4.3893700787401571
0
LINE
8
BLACK
6
CONTINUOUS
10
5.6382283464566925
20
-4.3893700787401571
11
5.6500393700787397
21
-4.3893700787401571
0
LINE
8
BLACK
6
CONTINUOUS
10
5.6500393700787397
20
-4.3893700787401571
11
5.6522993307086615
21
-4.3898196062992128
0
LINE
8
BLACK
6
CONTINUOUS
10
5.7015119291338578
20
-4.3898196062992128
11
5.7034277952755907
21
-4.3910997637795273
0
LINE
8
BLACK
6
CONTINUOUS
10
5.7034277952755907
20
-4.3910997637795273
11
5.7047079527559053
21
-4.3930156299212602
0
LINE
8
BLACK
6
CONTINUOUS
10
5.7047079527559053
20
-4.3930156299212602
11
5.7051574803149601
21
-4.3952755905511811
0
LINE
8
BLACK
6
CONTINUOUS
10
5.7051574803149601
20
-4.3952755905511811
11
5.7051574803149601
21
-4.4503937007874015
0
LINE
8
BLACK
6
CONTINUOUS
10
5.7051574803149601
20
-4.4503937007874015
11
5.7047079527559053
21
-4.4526536614173224
0
LINE
8
BLACK
6
CONTINUOUS
10
5.7047079527559053
20
-4.4526536614173224
11
5.7034277952755907
21
-4.4545695275590553
0
LINE
8
BLACK
6
CONTINUOUS
10
5.7034277952755907
20
-4.4545695275590553
11
5.7015119291338578
21
-4.4558496850393698
0
LINE
8
BLACK
6
CONTINUOUS
10
5.7015119291338578
20
-4.4558496850393698
11
5.6992519685039369
21
-4.4562992125984247
0
LINE
8
BLACK
6
CONTINUOUS
10
5.6992519685039369
20
-4.4562992125984247
11
5.6874409448818897
21
-4.4562992125984247
0
LINE
8
BLACK
6
CONTINUOUS
10
5.6874409448818897
20
-4.4562992125984247
11
5.6851809842519687
21
-4.4558496850393698
0
LINE
8
BLACK
6
CONTINUOUS
10
5.6851809842519687
20
-4.4558496850393698
11
5.6832651181102358
21
-4.4545695275590553
0
LINE
8
BLACK
6
CONTINUOUS
10
5.6832651181102358
20
-4.4545695275590553
11
5.6819849606299213
21
-4.4526536614173224
0
LINE
8
BLACK
6
CONTINUOUS
10
5.6819849606299213
20
-4.4526536614173224
11
5.6815354330708656
21
-4.4503937007874015
0
LINE
8
BLACK
6
CONTINUOUS
10
5.6815354330708656
20
-4.4503937007874015
11
5.6815354330708656
21
-4.3952755905511811
0
LINE
8
BLACK
6
CONTINUOUS
10
5.6815354330708656
20
-4.3952755905511811
11
5.6819849606299213
21
-4.3930156299212602
0
LINE
8
BLACK
6
CONTINUOUS
10
5.6819849606299213
20
-4.3930156299212602
11
5.6832651181102358
21
-4.3910997637795273
0
LINE
8
BLACK
6
CONTINUOUS
10
5.6832651181102358
20
-4.3910997637795273
11
5.6851809842519687
21
-4.3898196062992128
0
LINE
8
BLACK
6
CONTINUOUS
10
5.6851809842519687
20
-4.3898196062992128
11
5.6874409448818897
21
-4.3893700787401571
0
LINE
8
BLACK
6
CONTINUOUS
10
5.6874409448818897
20
-4.3893700787401571
11
5.6992519685039369
21
-4.3893700787401571
0
LINE
8
BLACK
6
CONTINUOUS
10
5.6992519685039369
20
-4.3893700787401571
11
5.7015119291338578
21
-4.3898196062992128
0
LINE
8
BLACK
6
CONTINUOUS
10
5.7507245275590551
20
-4.3898196062992128
11
5.7526403937007871
21
-4.3910997637795273
0
LINE
8
BLACK
6
CONTINUOUS
10
5.7526403937007871
20
-4.3910997637795273
11
5.7539205511811025
21
-4.3930156299212602
0
LINE
8
BLACK
6
CONTINUOUS
10
5.7539205511811025
20
-4.3930156299212602
11
5.7543700787401573
21
-4.3952755905511811
0
LINE
8
BLACK
6
CONTINUOUS
10
5.7543700787401573
20
-4.3952755905511811
11
5.7543700787401573
21
-4.4503937007874015
0
LINE
8
BLACK
6
CONTINUOUS
10
5.7543700787401573
20
-4.4503937007874015
11
5.7539205511811025
21
-4.4526536614173224
0
LINE
8
BLACK
6
CONTINUOUS
10
5.7539205511811025
20
-4.4526536614173224
11
5.7526403937007871
21
-4.4545695275590553
0
LINE
8
BLACK
6
CONTINUOUS
10
5.7526403937007871
20
-4.4545695275590553
11
5.7507245275590551
21
-4.4558496850393698
0
LINE
8
BLACK
6
CONTINUOUS
10
5.7507245275590551
20
-4.4558496850393698
11
5.7484645669291341
21
-4.4562992125984247
0
LINE
8
BLACK
6
CONTINUOUS
10
5.7484645669291341
20
-4.4562992125984247
11
5.7366535433070869
21
-4.4562992125984247
0
LINE
8
BLACK
6
CONTINUOUS
10
5.7366535433070869
20
-4.4562992125984247
11
5.734393582677165
21
-4.4558496850393698
0
LINE
8
BLACK
6
CONTINUOUS
10
5.734393582677165
20
-4.4558496850393698
11
5.732477716535433
21
-4.4545695275590553
0
LINE
8
BLACK
6
CONTINUOUS
10
5.732477716535433
20
-4.4545695275590553
11
5.7311975590551176
21
-4.4526536614173224
0
LINE
8
BLACK
6
CONTINUOUS
10
5.7311975590551176
20
-4.4526536614173224
11
5.7307480314960628
21
-4.4503937007874015
0
LINE
8
BLACK
6
CONTINUOUS
10
5.7307480314960628
20
-4.4503937007874015
11
5.7307480314960628
21
-4.3952755905511811
0
LINE
8
BLACK
6
CONTINUOUS
10
5.7307480314960628
20
-4.3952755905511811
11
5.7311975590551176
21
-4.3930156299212602
0
LINE
8
BLACK
6
CONTINUOUS
10
5.7311975590551176
20
-4.3930156299212602
11
5.732477716535433
21
-4.3910997637795273
0
LINE
8
BLACK
6
CONTINUOUS
10
5.732477716535433
20
-4.3910997637795273
11
5.734393582677165
21
-4.3898196062992128
0
LINE
8
BLACK
6
CONTINUOUS
10
5.734393582677165
20
-4.3898196062992128
11
5.7366535433070869
21
-4.3893700787401571
0
LINE
8
BLACK
6
CONTINUOUS
10
5.7366535433070869
20
-4.3893700787401571
11
5.7484645669291341
21
-4.3893700787401571
0
LINE
8
BLACK
6
CONTINUOUS
10
5.7484645669291341
20
-4.3893700787401571
11
5.7507245275590551
21
-4.3898196062992128
0
LINE
8
BLACK
6
CONTINUOUS
10
5.7999371259842523
20
-4.3898196062992128
11
5.8018529921259843
21
-4.3910997637795273
0
LINE
8
BLACK
6
CONTINUOUS
10
5.8018529921259843
20
-4.3910997637795273
11
5.8031331496062988
21
-4.3930156299212602
0
LINE
8
BLACK
6
CONTINUOUS
10
5.8031331496062988
20
-4.3930156299212602
11
5.8035826771653545
21
-4.3952755905511811
0
LINE
8
BLACK
6
CONTINUOUS
10
5.8035826771653545
20
-4.3952755905511811
11
5.8035826771653545
21
-4.4503937007874015
0
LINE
8
BLACK
6
CONTINUOUS
10
5.8035826771653545
20
-4.4503937007874015
11
5.8031331496062988
21
-4.4526536614173224
0
LINE
8
BLACK
6
CONTINUOUS
10
5.8031331496062988
20
-4.4526536614173224
11
5.8018529921259843
21
-4.4545695275590553
0
LINE
8
BLACK
6
CONTINUOUS
10
5.8018529921259843
20
-4.4545695275590553
11
5.7999371259842523
21
-4.4558496850393698
0
LINE
8
BLACK
6
CONTINUOUS
10
5.7999371259842523
20
-4.4558496850393698
11
5.7976771653543304
21
-4.4562992125984247
0
LINE
8
BLACK
6
CONTINUOUS
10
5.7976771653543304
20
-4.4562992125984247
11
5.7858661417322832
21
-4.4562992125984247
0
LINE
8
BLACK
6
CONTINUOUS
10
5.7858661417322832
20
-4.4562992125984247
11
5.7836061811023622
21
-4.4558496850393698
0
LINE
8
BLACK
6
CONTINUOUS
10
5.7836061811023622
20
-4.4558496850393698
11
5.7816903149606294
21
-4.4545695275590553
0
LINE
8
BLACK
6
CONTINUOUS
10
5.7816903149606294
20
-4.4545695275590553
11
5.7804101574803148
21
-4.4526536614173224
0
LINE
8
BLACK
6
CONTINUOUS
10
5.7804101574803148
20
-4.4526536614173224
11
5.77996062992126
21
-4.4503937007874015
0
LINE
8
BLACK
6
CONTINUOUS
10
5.77996062992126
20
-4.4503937007874015
11
5.77996062992126
21
-4.3952755905511811
0
LINE
8
BLACK
6
CONTINUOUS
10
5.77996062992126
20
-4.3952755905511811
11
5.7804101574803148
21
-4.3930156299212602
0
LINE
8
BLACK
6
CONTINUOUS
10
5.7804101574803148
20
-4.3930156299212602
11
5.7816903149606294
21
-4.3910997637795273
0
LINE
8
BLACK
6
CONTINUOUS
10
5.7816903149606294
20
-4.3910997637795273
11
5.7836061811023622
21
-4.3898196062992128
0
LINE
8
BLACK
6
CONTINUOUS
10
5.7836061811023622
20
-4.3898196062992128
11
5.7858661417322832
21
-4.3893700787401571
0
LINE
8
BLACK
6
CONTINUOUS
10
5.7858661417322832
20
-4.3893700787401571
11
5.7976771653543304
21
-4.3893700787401571
0
LINE
8
BLACK
6
CONTINUOUS
10
5.7976771653543304
20
-4.3893700787401571
11
5.7999371259842523
21
-4.3898196062992128
0
LINE
8
BLACK
6
CONTINUOUS
10
5.8491497244094486
20
-4.3898196062992128
11
5.8510655905511806
21
-4.3910997637795273
0
LINE
8
BLACK
6
CONTINUOUS
10
5.8510655905511806
20
-4.3910997637795273
11
5.852345748031496
21
-4.3930156299212602
0
LINE
8
BLACK
6
CONTINUOUS
10
5.852345748031496
20
-4.3930156299212602
11
5.8527952755905508
21
-4.3952755905511811
0
LINE
8
BLACK
6
CONTINUOUS
10
5.8527952755905508
20
-4.3952755905511811
11
5.8527952755905508
21
-4.4503937007874015
0
LINE
8
BLACK
6
CONTINUOUS
10
5.8527952755905508
20
-4.4503937007874015
11
5.852345748031496
21
-4.4526536614173224
0
LINE
8
BLACK
6
CONTINUOUS
10
5.852345748031496
20
-4.4526536614173224
11
5.8510655905511806
21
-4.4545695275590553
0
LINE
8
BLACK
6
CONTINUOUS
10
5.8510655905511806
20
-4.4545695275590553
11
5.8491497244094486
21
-4.4558496850393698
0
LINE
8
BLACK
6
CONTINUOUS
10
5.8491497244094486
20
-4.4558496850393698
11
5.8468897637795276
21
-4.4562992125984247
0
LINE
8
BLACK
6
CONTINUOUS
10
5.8468897637795276
20
-4.4562992125984247
11
5.8350787401574804
21
-4.4562992125984247
0
LINE
8
BLACK
6
CONTINUOUS
10
5.8350787401574804
20
-4.4562992125984247
11
5.8328187795275586
21
-4.4558496850393698
0
LINE
8
BLACK
6
CONTINUOUS
10
5.8328187795275586
20
-4.4558496850393698
11
5.8309029133858266
21
-4.4545695275590553
0
LINE
8
BLACK
6
CONTINUOUS
10
5.8309029133858266
20
-4.4545695275590553
11
5.829622755905512
21
-4.4526536614173224
0
LINE
8
BLACK
6
CONTINUOUS
10
5.829622755905512
20
-4.4526536614173224
11
5.8291732283464563
21
-4.4503937007874015
0
LINE
8
BLACK
6
CONTINUOUS
10
5.8291732283464563
20
-4.4503937007874015
11
5.8291732283464563
21
-4.3952755905511811
0
LINE
8
BLACK
6
CONTINUOUS
10
5.8291732283464563
20
-4.3952755905511811
11
5.829622755905512
21
-4.3930156299212602
0
LINE
8
BLACK
6
CONTINUOUS
10
5.829622755905512
20
-4.3930156299212602
11
5.8309029133858266
21
-4.3910997637795273
0
LINE
8
BLACK
6
CONTINUOUS
10
5.8309029133858266
20
-4.3910997637795273
11
5.8328187795275586
21
-4.3898196062992128
0
LINE
8
BLACK
6
CONTINUOUS
10
5.8328187795275586
20
-4.3898196062992128
11
5.8350787401574804
21
-4.3893700787401571
0
LINE
8
BLACK
6
CONTINUOUS
10
5.8350787401574804
20
-4.3893700787401571
11
5.8468897637795276
21
-4.3893700787401571
0
LINE
8
BLACK
6
CONTINUOUS
10
5.8468897637795276
20
-4.3893700787401571
11
5.8491497244094486
21
-4.3898196062992128
0
LINE
8
BLACK
6
CONTINUOUS
10
5.8983623228346458
20
-4.3898196062992128
11
5.9002781889763778
21
-4.3910997637795273
0
LINE
8
BLACK
6
CONTINUOUS
10
5.9002781889763778
20
-4.3910997637795273
11
5.9015583464566932
21
-4.3930156299212602
0
LINE
8
BLACK
6
CONTINUOUS
10
5.9015583464566932
20
-4.3930156299212602
11
5.902007874015748
21
-4.3952755905511811
0
LINE
8
BLACK
6
CONTINUOUS
10
5.902007874015748
20
-4.3952755905511811
11
5.902007874015748
21
-4.4503937007874015
0
LINE
8
BLACK
6
CONTINUOUS
10
5.902007874015748
20
-4.4503937007874015
11
5.9015583464566932
21
-4.4526536614173224
0
LINE
8
BLACK
6
CONTINUOUS
10
5.9015583464566932
20
-4.4526536614173224
11
5.9002781889763778
21
-4.4545695275590553
0
LINE
8
BLACK
6
CONTINUOUS
10
5.9002781889763778
20
-4.4545695275590553
11
5.8983623228346458
21
-4.4558496850393698
0
LINE
8
BLACK
6
CONTINUOUS
10
5.8983623228346458
20
-4.4558496850393698
11
5.8961023622047239
21
-4.4562992125984247
0
LINE
8
BLACK
6
CONTINUOUS
10
5.8961023622047239
20
-4.4562992125984247
11
5.8842913385826767
21
-4.4562992125984247
0
LINE
8
BLACK
6
CONTINUOUS
10
5.8842913385826767
20
-4.4562992125984247
11
5.8820313779527558
21
-4.4558496850393698
0
LINE
8
BLACK
6
CONTINUOUS
10
5.8820313779527558
20
-4.4558496850393698
11
5.8801155118110238
21
-4.4545695275590553
0
LINE
8
BLACK
6
CONTINUOUS
10
5.8801155118110238
20
-4.4545695275590553
11
5.8788353543307084
21
-4.4526536614173224
0
LINE
8
BLACK
6
CONTINUOUS
10
5.8788353543307084
20
-4.4526536614173224
11
5.8783858267716536
21
-4.4503937007874015
0
LINE
8
BLACK
6
CONTINUOUS
10
5.8783858267716536
20
-4.4503937007874015
11
5.8783858267716536
21
-4.3952755905511811
0
LINE
8
BLACK
6
CONTINUOUS
10
5.8783858267716536
20
-4.3952755905511811
11
5.8788353543307084
21
-4.3930156299212602
0
LINE
8
BLACK
6
CONTINUOUS
10
5.8788353543307084
20
-4.3930156299212602
11
5.8801155118110238
21
-4.3910997637795273
0
LINE
8
BLACK
6
CONTINUOUS
10
5.8801155118110238
20
-4.3910997637795273
11
5.8820313779527558
21
-4.3898196062992128
0
LINE
8
BLACK
6
CONTINUOUS
10
5.8820313779527558
20
-4.3898196062992128
11
5.8842913385826767
21
-4.3893700787401571
0
LINE
8
BLACK
6
CONTINUOUS
10
5.8842913385826767
20
-4.3893700787401571
11
5.8961023622047239
21
-4.3893700787401571
0
LINE
8
BLACK
6
CONTINUOUS
10
5.8961023622047239
20
-4.3893700787401571
11
5.8983623228346458
21
-4.3898196062992128
0
LINE
8
BLACK
6
CONTINUOUS
10
6.1332245275590553
20
-4.3898196062992128
11
6.1351403937007873
21
-4.3910997637795273
0
LINE
8
BLACK
6
CONTINUOUS
10
6.1351403937007873
20
-4.3910997637795273
11
6.1364205511811019
21
-4.3930156299212602
0
LINE
8
BLACK
6
CONTINUOUS
10
6.1364205511811019
20
-4.3930156299212602
11
6.1368700787401576
21
-4.3952755905511811
0
LINE
8
BLACK
6
CONTINUOUS
10
6.1368700787401576
20
-4.3952755905511811
11
6.1368700787401576
21
-4.4503937007874015
0
LINE
8
BLACK
6
CONTINUOUS
10
6.1368700787401576
20
-4.4503937007874015
11
6.1364205511811019
21
-4.4526536614173224
0
LINE
8
BLACK
6
CONTINUOUS
10
6.1364205511811019
20
-4.4526536614173224
11
6.1351403937007873
21
-4.4545695275590553
0
LINE
8
BLACK
6
CONTINUOUS
10
6.1351403937007873
20
-4.4545695275590553
11
6.1332245275590553
21
-4.4558496850393698
0
LINE
8
BLACK
6
CONTINUOUS
10
6.1332245275590553
20
-4.4558496850393698
11
6.1309645669291335
21
-4.4562992125984247
0
LINE
8
BLACK
6
CONTINUOUS
10
6.1309645669291335
20
-4.4562992125984247
11
6.1191535433070863
21
-4.4562992125984247
0
LINE
8
BLACK
6
CONTINUOUS
10
6.1191535433070863
20
-4.4562992125984247
11
6.1168935826771653
21
-4.4558496850393698
0
LINE
8
BLACK
6
CONTINUOUS
10
6.1168935826771653
20
-4.4558496850393698
11
6.1149777165354333
21
-4.4545695275590553
0
LINE
8
BLACK
6
CONTINUOUS
10
6.1149777165354333
20
-4.4545695275590553
11
6.1136975590551179
21
-4.4526536614173224
0
LINE
8
BLACK
6
CONTINUOUS
10
6.1136975590551179
20
-4.4526536614173224
11
6.1132480314960631
21
-4.4503937007874015
0
LINE
8
BLACK
6
CONTINUOUS
10
6.1132480314960631
20
-4.4503937007874015
11
6.1132480314960631
21
-4.3952755905511811
0
LINE
8
BLACK
6
CONTINUOUS
10
6.1132480314960631
20
-4.3952755905511811
11
6.1136975590551179
21
-4.3930156299212602
0
LINE
8
BLACK
6
CONTINUOUS
10
6.1136975590551179
20
-4.3930156299212602
11
6.1149777165354333
21
-4.3910997637795273
0
LINE
8
BLACK
6
CONTINUOUS
10
6.1149777165354333
20
-4.3910997637795273
11
6.1168935826771653
21
-4.3898196062992128
0
LINE
8
BLACK
6
CONTINUOUS
10
6.1168935826771653
20
-4.3898196062992128
11
6.1191535433070863
21
-4.3893700787401571
0
LINE
8
BLACK
6
CONTINUOUS
10
6.1191535433070863
20
-4.3893700787401571
11
6.1309645669291335
21
-4.3893700787401571
0
LINE
8
BLACK
6
CONTINUOUS
10
6.1309645669291335
20
-4.3893700787401571
11
6.1332245275590553
21
-4.3898196062992128
0
LINE
8
BLACK
6
CONTINUOUS
10
6.1824371259842517
20
-4.3898196062992128
11
6.1843529921259845
21
-4.3910997637795273
0
LINE
8
BLACK
6
CONTINUOUS
10
6.1843529921259845
20
-4.3910997637795273
11
6.1856331496062991
21
-4.3930156299212602
0
LINE
8
BLACK
6
CONTINUOUS
10
6.1856331496062991
20
-4.3930156299212602
11
6.1860826771653539
21
-4.3952755905511811
0
LINE
8
BLACK
6
CONTINUOUS
10
6.1860826771653539
20
-4.3952755905511811
11
6.1860826771653539
21
-4.4503937007874015
0
LINE
8
BLACK
6
CONTINUOUS
10
6.1860826771653539
20
-4.4503937007874015
11
6.1856331496062991
21
-4.4526536614173224
0
LINE
8
BLACK
6
CONTINUOUS
10
6.1856331496062991
20
-4.4526536614173224
11
6.1843529921259845
21
-4.4545695275590553
0
LINE
8
BLACK
6
CONTINUOUS
10
6.1843529921259845
20
-4.4545695275590553
11
6.1824371259842517
21
-4.4558496850393698
0
LINE
8
BLACK
6
CONTINUOUS
10
6.1824371259842517
20
-4.4558496850393698
11
6.1801771653543307
21
-4.4562992125984247
0
LINE
8
BLACK
6
CONTINUOUS
10
6.1801771653543307
20
-4.4562992125984247
11
6.1683661417322835
21
-4.4562992125984247
0
LINE
8
BLACK
6
CONTINUOUS
10
6.1683661417322835
20
-4.4562992125984247
11
6.1661061811023616
21
-4.4558496850393698
0
LINE
8
BLACK
6
CONTINUOUS
10
6.1661061811023616
20
-4.4558496850393698
11
6.1641903149606296
21
-4.4545695275590553
0
LINE
8
BLACK
6
CONTINUOUS
10
6.1641903149606296
20
-4.4545695275590553
11
6.1629101574803151
21
-4.4526536614173224
0
LINE
8
BLACK
6
CONTINUOUS
10
6.1629101574803151
20
-4.4526536614173224
11
6.1624606299212594
21
-4.4503937007874015
0
LINE
8
BLACK
6
CONTINUOUS
10
6.1624606299212594
20
-4.4503937007874015
11
6.1624606299212594
21
-4.3952755905511811
0
LINE
8
BLACK
6
CONTINUOUS
10
6.1624606299212594
20
-4.3952755905511811
11
6.1629101574803151
21
-4.3930156299212602
0
LINE
8
BLACK
6
CONTINUOUS
10
6.1629101574803151
20
-4.3930156299212602
11
6.1641903149606296
21
-4.3910997637795273
0
LINE
8
BLACK
6
CONTINUOUS
10
6.1641903149606296
20
-4.3910997637795273
11
6.1661061811023616
21
-4.3898196062992128
0
LINE
8
BLACK
6
CONTINUOUS
10
6.1661061811023616
20
-4.3898196062992128
11
6.1683661417322835
21
-4.3893700787401571
0
LINE
8
BLACK
6
CONTINUOUS
10
6.1683661417322835
20
-4.3893700787401571
11
6.1801771653543307
21
-4.3893700787401571
0
LINE
8
BLACK
6
CONTINUOUS
10
6.1801771653543307
20
-4.3893700787401571
11
6.1824371259842517
21
-4.3898196062992128
0
LINE
8
BLACK
6
CONTINUOUS
10
6.2316497244094489
20
-4.3898196062992128
11
6.2335655905511809
21
-4.3910997637795273
0
LINE
8
BLACK
6
CONTINUOUS
10
6.2335655905511809
20
-4.3910997637795273
11
6.2348457480314963
21
-4.3930156299212602
0
LINE
8
BLACK
6
CONTINUOUS
10
6.2348457480314963
20
-4.3930156299212602
11
6.2352952755905511
21
-4.3952755905511811
0
LINE
8
BLACK
6
CONTINUOUS
10
6.2352952755905511
20
-4.3952755905511811
11
6.2352952755905511
21
-4.4503937007874015
0
LINE
8
BLACK
6
CONTINUOUS
10
6.2352952755905511
20
-4.4503937007874015
11
6.2348457480314963
21
-4.4526536614173224
0
LINE
8
BLACK
6
CONTINUOUS
10
6.2348457480314963
20
-4.4526536614173224
11
6.2335655905511809
21
-4.4545695275590553
0
LINE
8
BLACK
6
CONTINUOUS
10
6.2335655905511809
20
-4.4545695275590553
11
6.2316497244094489
21
-4.4558496850393698
0
LINE
8
BLACK
6
CONTINUOUS
10
6.2316497244094489
20
-4.4558496850393698
11
6.229389763779527
21
-4.4562992125984247
0
LINE
8
BLACK
6
CONTINUOUS
10
6.229389763779527
20
-4.4562992125984247
11
6.2175787401574798
21
-4.4562992125984247
0
LINE
8
BLACK
6
CONTINUOUS
10
6.2175787401574798
20
-4.4562992125984247
11
6.2153187795275588
21
-4.4558496850393698
0
LINE
8
BLACK
6
CONTINUOUS
10
6.2153187795275588
20
-4.4558496850393698
11
6.2134029133858268
21
-4.4545695275590553
0
LINE
8
BLACK
6
CONTINUOUS
10
6.2134029133858268
20
-4.4545695275590553
11
6.2121227559055114
21
-4.4526536614173224
0
LINE
8
BLACK
6
CONTINUOUS
10
6.2121227559055114
20
-4.4526536614173224
11
6.2116732283464566
21
-4.4503937007874015
0
LINE
8
BLACK
6
CONTINUOUS
10
6.2116732283464566
20
-4.4503937007874015
11
6.2116732283464566
21
-4.3952755905511811
0
LINE
8
BLACK
6
CONTINUOUS
10
6.2116732283464566
20
-4.3952755905511811
11
6.2121227559055114
21
-4.3930156299212602
0
LINE
8
BLACK
6
CONTINUOUS
10
6.2121227559055114
20
-4.3930156299212602
11
6.2134029133858268
21
-4.3910997637795273
0
LINE
8
BLACK
6
CONTINUOUS
10
6.2134029133858268
20
-4.3910997637795273
11
6.2153187795275588
21
-4.3898196062992128
0
LINE
8
BLACK
6
CONTINUOUS
10
6.2153187795275588
20
-4.3898196062992128
11
6.2175787401574798
21
-4.3893700787401571
0
LINE
8
BLACK
6
CONTINUOUS
10
6.2175787401574798
20
-4.3893700787401571
11
6.229389763779527
21
-4.3893700787401571
0
LINE
8
BLACK
6
CONTINUOUS
10
6.229389763779527
20
-4.3893700787401571
11
6.2316497244094489
21
-4.3898196062992128
0
LINE
8
BLACK
6
CONTINUOUS
10
6.2808623228346452
20
-4.3898196062992128
11
6.2827781889763781
21
-4.3910997637795273
0
LINE
8
BLACK
6
CONTINUOUS
10
6.2827781889763781
20
-4.3910997637795273
11
6.2840583464566926
21
-4.3930156299212602
0
LINE
8
BLACK
6
CONTINUOUS
10
6.2840583464566926
20
-4.3930156299212602
11
6.2845078740157483
21
-4.3952755905511811
0
LINE
8
BLACK
6
CONTINUOUS
10
6.2845078740157483
20
-4.3952755905511811
11
6.2845078740157483
21
-4.4503937007874015
0
LINE
8
BLACK
6
CONTINUOUS
10
6.2845078740157483
20
-4.4503937007874015
11
6.2840583464566926
21
-4.4526536614173224
0
LINE
8
BLACK
6
CONTINUOUS
10
6.2840583464566926
20
-4.4526536614173224
11
6.2827781889763781
21
-4.4545695275590553
0
LINE
8
BLACK
6
CONTINUOUS
10
6.2827781889763781
20
-4.4545695275590553
11
6.2808623228346452
21
-4.4558496850393698
0
LINE
8
BLACK
6
CONTINUOUS
10
6.2808623228346452
20
-4.4558496850393698
11
6.2786023622047242
21
-4.4562992125984247
0
LINE
8
BLACK
6
CONTINUOUS
10
6.2786023622047242
20
-4.4562992125984247
11
6.266791338582677
21
-4.4562992125984247
0
LINE
8
BLACK
6
CONTINUOUS
10
6.266791338582677
20
-4.4562992125984247
11
6.2645313779527561
21
-4.4558496850393698
0
LINE
8
BLACK
6
CONTINUOUS
10
6.2645313779527561
20
-4.4558496850393698
11
6.2626155118110232
21
-4.4545695275590553
0
LINE
8
BLACK
6
CONTINUOUS
10
6.2626155118110232
20
-4.4545695275590553
11
6.2613353543307086
21
-4.4526536614173224
0
LINE
8
BLACK
6
CONTINUOUS
10
6.2613353543307086
20
-4.4526536614173224
11
6.2608858267716538
21
-4.4503937007874015
0
LINE
8
BLACK
6
CONTINUOUS
10
6.2608858267716538
20
-4.4503937007874015
11
6.2608858267716538
21
-4.3952755905511811
0
LINE
8
BLACK
6
CONTINUOUS
10
6.2608858267716538
20
-4.3952755905511811
11
6.2613353543307086
21
-4.3930156299212602
0
LINE
8
BLACK
6
CONTINUOUS
10
6.2613353543307086
20
-4.3930156299212602
11
6.2626155118110232
21
-4.3910997637795273
0
LINE
8
BLACK
6
CONTINUOUS
10
6.2626155118110232
20
-4.3910997637795273
11
6.2645313779527561
21
-4.3898196062992128
0
LINE
8
BLACK
6
CONTINUOUS
10
6.2645313779527561
20
-4.3898196062992128
11
6.266791338582677
21
-4.3893700787401571
0
LINE
8
BLACK
6
CONTINUOUS
10
6.266791338582677
20
-4.3893700787401571
11
6.2786023622047242
21
-4.3893700787401571
0
LINE
8
BLACK
6
CONTINUOUS
10
6.2786023622047242
20
-4.3893700787401571
11
6.2808623228346452
21
-4.3898196062992128
0
LINE
8
BLACK
6
CONTINUOUS
10
6.3300749212598424
20
-4.3898196062992128
11
6.3319907874015744
21
-4.3910997637795273
0
LINE
8
BLACK
6
CONTINUOUS
10
6.3319907874015744
20
-4.3910997637795273
11
6.3332709448818898
21
-4.3930156299212602
0
LINE
8
BLACK
6
CONTINUOUS
10
6.3332709448818898
20
-4.3930156299212602
11
6.3337204724409446
21
-4.3952755905511811
0
LINE
8
BLACK
6
CONTINUOUS
10
6.3337204724409446
20
-4.3952755905511811
11
6.3337204724409446
21
-4.4503937007874015
0
LINE
8
BLACK
6
CONTINUOUS
10
6.3337204724409446
20
-4.4503937007874015
11
6.3332709448818898
21
-4.4526536614173224
0
LINE
8
BLACK
6
CONTINUOUS
10
6.3332709448818898
20
-4.4526536614173224
11
6.3319907874015744
21
-4.4545695275590553
0
LINE
8
BLACK
6
CONTINUOUS
10
6.3319907874015744
20
-4.4545695275590553
11
6.3300749212598424
21
-4.4558496850393698
0
LINE
8
BLACK
6
CONTINUOUS
10
6.3300749212598424
20
-4.4558496850393698
11
6.3278149606299214
21
-4.4562992125984247
0
LINE
8
BLACK
6
CONTINUOUS
10
6.3278149606299214
20
-4.4562992125984247
11
6.3160039370078742
21
-4.4562992125984247
0
LINE
8
BLACK
6
CONTINUOUS
10
6.3160039370078742
20
-4.4562992125984247
11
6.3137439763779524
21
-4.4558496850393698
0
LINE
8
BLACK
6
CONTINUOUS
10
6.3137439763779524
20
-4.4558496850393698
11
6.3118281102362204
21
-4.4545695275590553
0
LINE
8
BLACK
6
CONTINUOUS
10
6.3118281102362204
20
-4.4545695275590553
11
6.310547952755905
21
-4.4526536614173224
0
LINE
8
BLACK
6
CONTINUOUS
10
6.310547952755905
20
-4.4526536614173224
11
6.3100984251968502
21
-4.4503937007874015
0
LINE
8
BLACK
6
CONTINUOUS
10
6.3100984251968502
20
-4.4503937007874015
11
6.3100984251968502
21
-4.3952755905511811
0
LINE
8
BLACK
6
CONTINUOUS
10
6.3100984251968502
20
-4.3952755905511811
11
6.310547952755905
21
-4.3930156299212602
0
LINE
8
BLACK
6
CONTINUOUS
10
6.310547952755905
20
-4.3930156299212602
11
6.3118281102362204
21
-4.3910997637795273
0
LINE
8
BLACK
6
CONTINUOUS
10
6.3118281102362204
20
-4.3910997637795273
11
6.3137439763779524
21
-4.3898196062992128
0
LINE
8
BLACK
6
CONTINUOUS
10
6.3137439763779524
20
-4.3898196062992128
11
6.3160039370078742
21
-4.3893700787401571
0
LINE
8
BLACK
6
CONTINUOUS
10
6.3160039370078742
20
-4.3893700787401571
11
6.3278149606299214
21
-4.3893700787401571
0
LINE
8
BLACK
6
CONTINUOUS
10
6.3278149606299214
20
-4.3893700787401571
11
6.3300749212598424
21
-4.3898196062992128
0
LINE
8
BLACK
6
CONTINUOUS
10
6.3792875196850396
20
-4.3898196062992128
11
6.3812033858267716
21
-4.3910997637795273
0
LINE
8
BLACK
6
CONTINUOUS
10
6.3812033858267716
20
-4.3910997637795273
11
6.3824835433070861
21
-4.3930156299212602
0
LINE
8
BLACK
6
CONTINUOUS
10
6.3824835433070861
20
-4.3930156299212602
11
6.3829330708661418
21
-4.3952755905511811
0
LINE
8
BLACK
6
CONTINUOUS
10
6.3829330708661418
20
-4.3952755905511811
11
6.3829330708661418
21
-4.4503937007874015
0
LINE
8
BLACK
6
CONTINUOUS
10
6.3829330708661418
20
-4.4503937007874015
11
6.3824835433070861
21
-4.4526536614173224
0
LINE
8
BLACK
6
CONTINUOUS
10
6.3824835433070861
20
-4.4526536614173224
11
6.3812033858267716
21
-4.4545695275590553
0
LINE
8
BLACK
6
CONTINUOUS
10
6.3812033858267716
20
-4.4545695275590553
11
6.3792875196850396
21
-4.4558496850393698
0
LINE
8
BLACK
6
CONTINUOUS
10
6.3792875196850396
20
-4.4558496850393698
11
6.3770275590551178
21
-4.4562992125984247
0
LINE
8
BLACK
6
CONTINUOUS
10
6.3770275590551178
20
-4.4562992125984247
11
6.3652165354330705
21
-4.4562992125984247
0
LINE
8
BLACK
6
CONTINUOUS
10
6.3652165354330705
20
-4.4562992125984247
11
6.3629565748031496
21
-4.4558496850393698
0
LINE
8
BLACK
6
CONTINUOUS
10
6.3629565748031496
20
-4.4558496850393698
11
6.3610407086614176
21
-4.4545695275590553
0
LINE
8
BLACK
6
CONTINUOUS
10
6.3610407086614176
20
-4.4545695275590553
11
6.3597605511811022
21
-4.4526536614173224
0
LINE
8
BLACK
6
CONTINUOUS
10
6.3597605511811022
20
-4.4526536614173224
11
6.3593110236220474
21
-4.4503937007874015
0
LINE
8
BLACK
6
CONTINUOUS
10
6.3593110236220474
20
-4.4503937007874015
11
6.3593110236220474
21
-4.3952755905511811
0
LINE
8
BLACK
6
CONTINUOUS
10
6.3593110236220474
20
-4.3952755905511811
11
6.3597605511811022
21
-4.3930156299212602
0
LINE
8
BLACK
6
CONTINUOUS
10
6.3597605511811022
20
-4.3930156299212602
11
6.3610407086614176
21
-4.3910997637795273
0
LINE
8
BLACK
6
CONTINUOUS
10
6.3610407086614176
20
-4.3910997637795273
11
6.3629565748031496
21
-4.3898196062992128
0
LINE
8
BLACK
6
CONTINUOUS
10
6.3629565748031496
20
-4.3898196062992128
11
6.3652165354330705
21
-4.3893700787401571
0
LINE
8
BLACK
6
CONTINUOUS
10
6.3652165354330705
20
-4.3893700787401571
11
6.3770275590551178
21
-4.3893700787401571
0
LINE
8
BLACK
6
CONTINUOUS
10
6.3770275590551178
20
-4.3893700787401571
11
6.3792875196850396
21
-4.3898196062992128
0
LINE
8
BLACK
6
CONTINUOUS
10
6.6143465748031494
20
-4.3898196062992128
11
6.6162624409448814
21
-4.3910997637795273
0
LINE
8
BLACK
6
CONTINUOUS
10
6.6162624409448814
20
-4.3910997637795273
11
6.6175425984251968
21
-4.3930156299212602
0
LINE
8
BLACK
6
CONTINUOUS
10
6.6175425984251968
20
-4.3930156299212602
11
6.6179921259842516
21
-4.3952755905511811
0
LINE
8
BLACK
6
CONTINUOUS
10
6.6179921259842516
20
-4.3952755905511811
11
6.6179921259842516
21
-4.4503937007874015
0
LINE
8
BLACK
6
CONTINUOUS
10
6.6179921259842516
20
-4.4503937007874015
11
6.6175425984251968
21
-4.4526536614173224
0
LINE
8
BLACK
6
CONTINUOUS
10
6.6175425984251968
20
-4.4526536614173224
11
6.6162624409448814
21
-4.4545695275590553
0
LINE
8
BLACK
6
CONTINUOUS
10
6.6162624409448814
20
-4.4545695275590553
11
6.6143465748031494
21
-4.4558496850393698
0
LINE
8
BLACK
6
CONTINUOUS
10
6.6143465748031494
20
-4.4558496850393698
11
6.6120866141732284
21
-4.4562992125984247
0
LINE
8
BLACK
6
CONTINUOUS
10
6.6120866141732284
20
-4.4562992125984247
11
6.6002755905511812
21
-4.4562992125984247
0
LINE
8
BLACK
6
CONTINUOUS
10
6.6002755905511812
20
-4.4562992125984247
11
6.5980156299212593
21
-4.4558496850393698
0
LINE
8
BLACK
6
CONTINUOUS
10
6.5980156299212593
20
-4.4558496850393698
11
6.5960997637795273
21
-4.4545695275590553
0
LINE
8
BLACK
6
CONTINUOUS
10
6.5960997637795273
20
-4.4545695275590553
11
6.5948196062992128
21
-4.4526536614173224
0
LINE
8
BLACK
6
CONTINUOUS
10
6.5948196062992128
20
-4.4526536614173224
11
6.5943700787401571
21
-4.4503937007874015
0
LINE
8
BLACK
6
CONTINUOUS
10
6.5943700787401571
20
-4.4503937007874015
11
6.5943700787401571
21
-4.3952755905511811
0
LINE
8
BLACK
6
CONTINUOUS
10
6.5943700787401571
20
-4.3952755905511811
11
6.5948196062992128
21
-4.3930156299212602
0
LINE
8
BLACK
6
CONTINUOUS
10
6.5948196062992128
20
-4.3930156299212602
11
6.5960997637795273
21
-4.3910997637795273
0
LINE
8
BLACK
6
CONTINUOUS
10
6.5960997637795273
20
-4.3910997637795273
11
6.5980156299212593
21
-4.3898196062992128
0
LINE
8
BLACK
6
CONTINUOUS
10
6.5980156299212593
20
-4.3898196062992128
11
6.6002755905511812
21
-4.3893700787401571
0
LINE
8
BLACK
6
CONTINUOUS
10
6.6002755905511812
20
-4.3893700787401571
11
6.6120866141732284
21
-4.3893700787401571
0
LINE
8
BLACK
6
CONTINUOUS
10
6.6120866141732284
20
-4.3893700787401571
11
6.6143465748031494
21
-4.3898196062992128
0
LINE
8
BLACK
6
CONTINUOUS
10
6.6635591732283466
20
-4.3898196062992128
11
6.6654750393700786
21
-4.3910997637795273
0
LINE
8
BLACK
6
CONTINUOUS
10
6.6654750393700786
20
-4.3910997637795273
11
6.666755196850394
21
-4.3930156299212602
0
LINE
8
BLACK
6
CONTINUOUS
10
6.666755196850394
20
-4.3930156299212602
11
6.6672047244094488
21
-4.3952755905511811
0
LINE
8
BLACK
6
CONTINUOUS
10
6.6672047244094488
20
-4.3952755905511811
11
6.6672047244094488
21
-4.4503937007874015
0
LINE
8
BLACK
6
CONTINUOUS
10
6.6672047244094488
20
-4.4503937007874015
11
6.666755196850394
21
-4.4526536614173224
0
LINE
8
BLACK
6
CONTINUOUS
10
6.666755196850394
20
-4.4526536614173224
11
6.6654750393700786
21
-4.4545695275590553
0
LINE
8
BLACK
6
CONTINUOUS
10
6.6654750393700786
20
-4.4545695275590553
11
6.6635591732283466
21
-4.4558496850393698
0
LINE
8
BLACK
6
CONTINUOUS
10
6.6635591732283466
20
-4.4558496850393698
11
6.6612992125984247
21
-4.4562992125984247
0
LINE
8
BLACK
6
CONTINUOUS
10
6.6612992125984247
20
-4.4562992125984247
11
6.6494881889763775
21
-4.4562992125984247
0
LINE
8
BLACK
6
CONTINUOUS
10
6.6494881889763775
20
-4.4562992125984247
11
6.6472282283464565
21
-4.4558496850393698
0
LINE
8
BLACK
6
CONTINUOUS
10
6.6472282283464565
20
-4.4558496850393698
11
6.6453123622047245
21
-4.4545695275590553
0
LINE
8
BLACK
6
CONTINUOUS
10
6.6453123622047245
20
-4.4545695275590553
11
6.6440322047244091
21
-4.4526536614173224
0
LINE
8
BLACK
6
CONTINUOUS
10
6.6440322047244091
20
-4.4526536614173224
11
6.6435826771653543
21
-4.4503937007874015
0
LINE
8
BLACK
6
CONTINUOUS
10
6.6435826771653543
20
-4.4503937007874015
11
6.6435826771653543
21
-4.3952755905511811
0
LINE
8
BLACK
6
CONTINUOUS
10
6.6435826771653543
20
-4.3952755905511811
11
6.6440322047244091
21
-4.3930156299212602
0
LINE
8
BLACK
6
CONTINUOUS
10
6.6440322047244091
20
-4.3930156299212602
11
6.6453123622047245
21
-4.3910997637795273
0
LINE
8
BLACK
6
CONTINUOUS
10
6.6453123622047245
20
-4.3910997637795273
11
6.6472282283464565
21
-4.3898196062992128
0
LINE
8
BLACK
6
CONTINUOUS
10
6.6472282283464565
20
-4.3898196062992128
11
6.6494881889763775
21
-4.3893700787401571
0
LINE
8
BLACK
6
CONTINUOUS
10
6.6494881889763775
20
-4.3893700787401571
11
6.6612992125984247
21
-4.3893700787401571
0
LINE
8
BLACK
6
CONTINUOUS
10
6.6612992125984247
20
-4.3893700787401571
11
6.6635591732283466
21
-4.3898196062992128
0
LINE
8
BLACK
6
CONTINUOUS
10
6.7127717716535429
20
-4.3898196062992128
11
6.7146876377952758
21
-4.3910997637795273
0
LINE
8
BLACK
6
CONTINUOUS
10
6.7146876377952758
20
-4.3910997637795273
11
6.7159677952755903
21
-4.3930156299212602
0
LINE
8
BLACK
6
CONTINUOUS
10
6.7159677952755903
20
-4.3930156299212602
11
6.7164173228346451
21
-4.3952755905511811
0
LINE
8
BLACK
6
CONTINUOUS
10
6.7164173228346451
20
-4.3952755905511811
11
6.7164173228346451
21
-4.4503937007874015
0
LINE
8
BLACK
6
CONTINUOUS
10
6.7164173228346451
20
-4.4503937007874015
11
6.7159677952755903
21
-4.4526536614173224
0
LINE
8
BLACK
6
CONTINUOUS
10
6.7159677952755903
20
-4.4526536614173224
11
6.7146876377952758
21
-4.4545695275590553
0
LINE
8
BLACK
6
CONTINUOUS
10
6.7146876377952758
20
-4.4545695275590553
11
6.7127717716535429
21
-4.4558496850393698
0
LINE
8
BLACK
6
CONTINUOUS
10
6.7127717716535429
20
-4.4558496850393698
11
6.7105118110236219
21
-4.4562992125984247
0
LINE
8
BLACK
6
CONTINUOUS
10
6.7105118110236219
20
-4.4562992125984247
11
6.6987007874015747
21
-4.4562992125984247
0
LINE
8
BLACK
6
CONTINUOUS
10
6.6987007874015747
20
-4.4562992125984247
11
6.6964408267716538
21
-4.4558496850393698
0
LINE
8
BLACK
6
CONTINUOUS
10
6.6964408267716538
20
-4.4558496850393698
11
6.6945249606299209
21
-4.4545695275590553
0
LINE
8
BLACK
6
CONTINUOUS
10
6.6945249606299209
20
-4.4545695275590553
11
6.6932448031496063
21
-4.4526536614173224
0
LINE
8
BLACK
6
CONTINUOUS
10
6.6932448031496063
20
-4.4526536614173224
11
6.6927952755905507
21
-4.4503937007874015
0
LINE
8
BLACK
6
CONTINUOUS
10
6.6927952755905507
20
-4.4503937007874015
11
6.6927952755905507
21
-4.3952755905511811
0
LINE
8
BLACK
6
CONTINUOUS
10
6.6927952755905507
20
-4.3952755905511811
11
6.6932448031496063
21
-4.3930156299212602
0
LINE
8
BLACK
6
CONTINUOUS
10
6.6932448031496063
20
-4.3930156299212602
11
6.6945249606299209
21
-4.3910997637795273
0
LINE
8
BLACK
6
CONTINUOUS
10
6.6945249606299209
20
-4.3910997637795273
11
6.6964408267716538
21
-4.3898196062992128
0
LINE
8
BLACK
6
CONTINUOUS
10
6.6964408267716538
20
-4.3898196062992128
11
6.6987007874015747
21
-4.3893700787401571
0
LINE
8
BLACK
6
CONTINUOUS
10
6.6987007874015747
20
-4.3893700787401571
11
6.7105118110236219
21
-4.3893700787401571
0
LINE
8
BLACK
6
CONTINUOUS
10
6.7105118110236219
20
-4.3893700787401571
11
6.7127717716535429
21
-4.3898196062992128
0
LINE
8
BLACK
6
CONTINUOUS
10
6.7619843700787401
20
-4.3898196062992128
11
6.7639002362204721
21
-4.3910997637795273
0
LINE
8
BLACK
6
CONTINUOUS
10
6.7639002362204721
20
-4.3910997637795273
11
6.7651803937007875
21
-4.3930156299212602
0
LINE
8
BLACK
6
CONTINUOUS
10
6.7651803937007875
20
-4.3930156299212602
11
6.7656299212598423
21
-4.3952755905511811
0
LINE
8
BLACK
6
CONTINUOUS
10
6.7656299212598423
20
-4.3952755905511811
11
6.7656299212598423
21
-4.4503937007874015
0
LINE
8
BLACK
6
CONTINUOUS
10
6.7656299212598423
20
-4.4503937007874015
11
6.7651803937007875
21
-4.4526536614173224
0
LINE
8
BLACK
6
CONTINUOUS
10
6.7651803937007875
20
-4.4526536614173224
11
6.7639002362204721
21
-4.4545695275590553
0
LINE
8
BLACK
6
CONTINUOUS
10
6.7639002362204721
20
-4.4545695275590553
11
6.7619843700787401
21
-4.4558496850393698
0
LINE
8
BLACK
6
CONTINUOUS
10
6.7619843700787401
20
-4.4558496850393698
11
6.7597244094488191
21
-4.4562992125984247
0
LINE
8
BLACK
6
CONTINUOUS
10
6.7597244094488191
20
-4.4562992125984247
11
6.7479133858267719
21
-4.4562992125984247
0
LINE
8
BLACK
6
CONTINUOUS
10
6.7479133858267719
20
-4.4562992125984247
11
6.7456534251968501
21
-4.4558496850393698
0
LINE
8
BLACK
6
CONTINUOUS
10
6.7456534251968501
20
-4.4558496850393698
11
6.7437375590551181
21
-4.4545695275590553
0
LINE
8
BLACK
6
CONTINUOUS
10
6.7437375590551181
20
-4.4545695275590553
11
6.7424574015748027
21
-4.4526536614173224
0
LINE
8
BLACK
6
CONTINUOUS
10
6.7424574015748027
20
-4.4526536614173224
11
6.7420078740157479
21
-4.4503937007874015
0
LINE
8
BLACK
6
CONTINUOUS
10
6.7420078740157479
20
-4.4503937007874015
11
6.7420078740157479
21
-4.3952755905511811
0
LINE
8
BLACK
6
CONTINUOUS
10
6.7420078740157479
20
-4.3952755905511811
11
6.7424574015748027
21
-4.3930156299212602
0
LINE
8
BLACK
6
CONTINUOUS
10
6.7424574015748027
20
-4.3930156299212602
11
6.7437375590551181
21
-4.3910997637795273
0
LINE
8
BLACK
6
CONTINUOUS
10
6.7437375590551181
20
-4.3910997637795273
11
6.7456534251968501
21
-4.3898196062992128
0
LINE
8
BLACK
6
CONTINUOUS
10
6.7456534251968501
20
-4.3898196062992128
11
6.7479133858267719
21
-4.3893700787401571
0
LINE
8
BLACK
6
CONTINUOUS
10
6.7479133858267719
20
-4.3893700787401571
11
6.7597244094488191
21
-4.3893700787401571
0
LINE
8
BLACK
6
CONTINUOUS
10
6.7597244094488191
20
-4.3893700787401571
11
6.7619843700787401
21
-4.3898196062992128
0
LINE
8
BLACK
6
CONTINUOUS
10
4.3767980708661414
20
-4.2444499999999996
11
4.3799912204724407
21
-4.2465835826771654
0
LINE
8
BLACK
6
CONTINUOUS
10
4.3799912204724407
20
-4.2465835826771654
11
4.3821248031496065
21
-4.2497767322834648
0
LINE
8
BLACK
6
CONTINUOUS
10
4.3821248031496065
20
-4.2497767322834648
11
4.3828740157480315
21
-4.2535433070866144
0
LINE
8
BLACK
6
CONTINUOUS
10
4.3828740157480315
20
-4.2535433070866144
11
4.3828740157480315
21
-4.3401574803149607
0
LINE
8
BLACK
6
CONTINUOUS
10
4.3828740157480315
20
-4.3401574803149607
11
4.3821248031496065
21
-4.3439240551181104
0
LINE
8
BLACK
6
CONTINUOUS
10
4.3821248031496065
20
-4.3439240551181104
11
4.3799912204724407
21
-4.3471172047244098
0
LINE
8
BLACK
6
CONTINUOUS
10
4.3799912204724407
20
-4.3471172047244098
11
4.3767980708661414
21
-4.3492507874015747
0
LINE
8
BLACK
6
CONTINUOUS
10
4.3767980708661414
20
-4.3492507874015747
11
4.3730314960629917
21
-4.3499999999999996
0
LINE
8
BLACK
6
CONTINUOUS
10
4.3730314960629917
20
-4.3499999999999996
11
4.353346456692913
21
-4.3499999999999996
0
LINE
8
BLACK
6
CONTINUOUS
10
4.353346456692913
20
-4.3499999999999996
11
4.3495798818897633
21
-4.3492507874015747
0
LINE
8
BLACK
6
CONTINUOUS
10
4.3495798818897633
20
-4.3492507874015747
11
4.3463867322834648
21
-4.3471172047244098
0
LINE
8
BLACK
6
CONTINUOUS
10
4.3463867322834648
20
-4.3471172047244098
11
4.344253149606299
21
-4.3439240551181104
0
LINE
8
BLACK
6
CONTINUOUS
10
4.344253149606299
20
-4.3439240551181104
11
4.3435039370078741
21
-4.3401574803149607
0
LINE
8
BLACK
6
CONTINUOUS
10
4.3435039370078741
20
-4.3401574803149607
11
4.3435039370078741
21
-4.2535433070866144
0
LINE
8
BLACK
6
CONTINUOUS
10
4.3435039370078741
20
-4.2535433070866144
11
4.344253149606299
21
-4.2497767322834648
0
LINE
8
BLACK
6
CONTINUOUS
10
4.344253149606299
20
-4.2497767322834648
11
4.3463867322834648
21
-4.2465835826771654
0
LINE
8
BLACK
6
CONTINUOUS
10
4.3463867322834648
20
-4.2465835826771654
11
4.3495798818897633
21
-4.2444499999999996
0
LINE
8
BLACK
6
CONTINUOUS
10
4.3495798818897633
20
-4.2444499999999996
11
4.353346456692913
21
-4.2437007874015746
0
LINE
8
BLACK
6
CONTINUOUS
10
4.353346456692913
20
-4.2437007874015746
11
4.3730314960629917
21
-4.2437007874015746
0
LINE
8
BLACK
6
CONTINUOUS
10
4.3730314960629917
20
-4.2437007874015746
11
4.3767980708661414
21
-4.2444499999999996
0
LINE
8
BLACK
6
CONTINUOUS
10
4.965380748031496
20
-4.2444499999999996
11
4.9685738976377953
21
-4.2465835826771654
0
LINE
8
BLACK
6
CONTINUOUS
10
4.9685738976377953
20
-4.2465835826771654
11
4.9707074803149602
21
-4.2497767322834648
0
LINE
8
BLACK
6
CONTINUOUS
10
4.9707074803149602
20
-4.2497767322834648
11
4.9714566929133861
21
-4.2535433070866144
0
LINE
8
BLACK
6
CONTINUOUS
10
4.9714566929133861
20
-4.2535433070866144
11
4.9714566929133861
21
-4.3401574803149607
0
LINE
8
BLACK
6
CONTINUOUS
10
4.9714566929133861
20
-4.3401574803149607
11
4.9707074803149602
21
-4.3439240551181104
0
LINE
8
BLACK
6
CONTINUOUS
10
4.9707074803149602
20
-4.3439240551181104
11
4.9685738976377953
21
-4.3471172047244098
0
LINE
8
BLACK
6
CONTINUOUS
10
4.9685738976377953
20
-4.3471172047244098
11
4.965380748031496
21
-4.3492507874015747
0
LINE
8
BLACK
6
CONTINUOUS
10
4.965380748031496
20
-4.3492507874015747
11
4.9616141732283463
21
-4.3499999999999996
0
LINE
8
BLACK
6
CONTINUOUS
10
4.9616141732283463
20
-4.3499999999999996
11
4.9419291338582676
21
-4.3499999999999996
0
LINE
8
BLACK
6
CONTINUOUS
10
4.9419291338582676
20
-4.3499999999999996
11
4.9381625590551179
21
-4.3492507874015747
0
LINE
8
BLACK
6
CONTINUOUS
10
4.9381625590551179
20
-4.3492507874015747
11
4.9349694094488186
21
-4.3471172047244098
0
LINE
8
BLACK
6
CONTINUOUS
10
4.9349694094488186
20
-4.3471172047244098
11
4.9328358267716537
21
-4.3439240551181104
0
LINE
8
BLACK
6
CONTINUOUS
10
4.9328358267716537
20
-4.3439240551181104
11
4.9320866141732278
21
-4.3401574803149607
0
LINE
8
BLACK
6
CONTINUOUS
10
4.9320866141732278
20
-4.3401574803149607
11
4.9320866141732278
21
-4.2535433070866144
0
LINE
8
BLACK
6
CONTINUOUS
10
4.9320866141732278
20
-4.2535433070866144
11
4.9328358267716537
21
-4.2497767322834648
0
LINE
8
BLACK
6
CONTINUOUS
10
4.9328358267716537
20
-4.2497767322834648
11
4.9349694094488186
21
-4.2465835826771654
0
LINE
8
BLACK
6
CONTINUOUS
10
4.9349694094488186
20
-4.2465835826771654
11
4.9381625590551179
21
-4.2444499999999996
0
LINE
8
BLACK
6
CONTINUOUS
10
4.9381625590551179
20
-4.2444499999999996
11
4.9419291338582676
21
-4.2437007874015746
0
LINE
8
BLACK
6
CONTINUOUS
10
4.9419291338582676
20
-4.2437007874015746
11
4.9616141732283463
21
-4.2437007874015746
0
LINE
8
BLACK
6
CONTINUOUS
10
4.9616141732283463
20
-4.2437007874015746
11
4.965380748031496
21
-4.2444499999999996
0
LINE
8
BLACK
6
CONTINUOUS
10
5.0547705118110233
20
-4.2444499999999996
11
5.0579636614173227
21
-4.2465835826771654
0
LINE
8
BLACK
6
CONTINUOUS
10
5.0579636614173227
20
-4.2465835826771654
11
5.0600972440944885
21
-4.2497767322834648
0
LINE
8
BLACK
6
CONTINUOUS
10
5.0600972440944885
20
-4.2497767322834648
11
5.0608464566929134
21
-4.2535433070866144
0
LINE
8
BLACK
6
CONTINUOUS
10
5.0608464566929134
20
-4.2535433070866144
11
5.0608464566929134
21
-4.3401574803149607
0
LINE
8
BLACK
6
CONTINUOUS
10
5.0608464566929134
20
-4.3401574803149607
11
5.0600972440944885
21
-4.3439240551181104
0
LINE
8
BLACK
6
CONTINUOUS
10
5.0600972440944885
20
-4.3439240551181104
11
5.0579636614173227
21
-4.3471172047244098
0
LINE
8
BLACK
6
CONTINUOUS
10
5.0579636614173227
20
-4.3471172047244098
11
5.0547705118110233
21
-4.3492507874015747
0
LINE
8
BLACK
6
CONTINUOUS
10
5.0547705118110233
20
-4.3492507874015747
11
5.0510039370078736
21
-4.3499999999999996
0
LINE
8
BLACK
6
CONTINUOUS
10
5.0510039370078736
20
-4.3499999999999996
11
5.0313188976377949
21
-4.3499999999999996
0
LINE
8
BLACK
6
CONTINUOUS
10
5.0313188976377949
20
-4.3499999999999996
11
5.0275523228346453
21
-4.3492507874015747
0
LINE
8
BLACK
6
CONTINUOUS
10
5.0275523228346453
20
-4.3492507874015747
11
5.0243591732283459
21
-4.3471172047244098
0
LINE
8
BLACK
6
CONTINUOUS
10
5.0243591732283459
20
-4.3471172047244098
11
5.022225590551181
21
-4.3439240551181104
0
LINE
8
BLACK
6
CONTINUOUS
10
5.022225590551181
20
-4.3439240551181104
11
5.021476377952756
21
-4.3401574803149607
0
LINE
8
BLACK
6
CONTINUOUS
10
5.021476377952756
20
-4.3401574803149607
11
5.021476377952756
21
-4.2535433070866144
0
LINE
8
BLACK
6
CONTINUOUS
10
5.021476377952756
20
-4.2535433070866144
11
5.022225590551181
21
-4.2497767322834648
0
LINE
8
BLACK
6
CONTINUOUS
10
5.022225590551181
20
-4.2497767322834648
11
5.0243591732283459
21
-4.2465835826771654
0
LINE
8
BLACK
6
CONTINUOUS
10
5.0243591732283459
20
-4.2465835826771654
11
5.0275523228346453
21
-4.2444499999999996
0
LINE
8
BLACK
6
CONTINUOUS
10
5.0275523228346453
20
-4.2444499999999996
11
5.0313188976377949
21
-4.2437007874015746
0
LINE
8
BLACK
6
CONTINUOUS
10
5.0313188976377949
20
-4.2437007874015746
11
5.0510039370078736
21
-4.2437007874015746
0
LINE
8
BLACK
6
CONTINUOUS
10
5.0510039370078736
20
-4.2437007874015746
11
5.0547705118110233
21
-4.2444499999999996
0
LINE
8
BLACK
6
CONTINUOUS
10
5.44650279527559
20
-4.2444499999999996
11
5.4496959448818894
21
-4.2465835826771654
0
LINE
8
BLACK
6
CONTINUOUS
10
5.4496959448818894
20
-4.2465835826771654
11
5.4518295275590551
21
-4.2497767322834648
0
LINE
8
BLACK
6
CONTINUOUS
10
5.4518295275590551
20
-4.2497767322834648
11
5.4525787401574801
21
-4.2535433070866144
0
LINE
8
BLACK
6
CONTINUOUS
10
5.4525787401574801
20
-4.2535433070866144
11
5.4525787401574801
21
-4.3401574803149607
0
LINE
8
BLACK
6
CONTINUOUS
10
5.4525787401574801
20
-4.3401574803149607
11
5.4518295275590551
21
-4.3439240551181104
0
LINE
8
BLACK
6
CONTINUOUS
10
5.4518295275590551
20
-4.3439240551181104
11
5.4496959448818894
21
-4.3471172047244098
0
LINE
8
BLACK
6
CONTINUOUS
10
5.4496959448818894
20
-4.3471172047244098
11
5.44650279527559
21
-4.3492507874015747
0
LINE
8
BLACK
6
CONTINUOUS
10
5.44650279527559
20
-4.3492507874015747
11
5.4427362204724412
21
-4.3499999999999996
0
LINE
8
BLACK
6
CONTINUOUS
10
5.4427362204724412
20
-4.3499999999999996
11
5.4230511811023625
21
-4.3499999999999996
0
LINE
8
BLACK
6
CONTINUOUS
10
5.4230511811023625
20
-4.3499999999999996
11
5.4192846062992128
21
-4.3492507874015747
0
LINE
8
BLACK
6
CONTINUOUS
10
5.4192846062992128
20
-4.3492507874015747
11
5.4160914566929135
21
-4.3471172047244098
0
LINE
8
BLACK
6
CONTINUOUS
10
5.4160914566929135
20
-4.3471172047244098
11
5.4139578740157477
21
-4.3439240551181104
0
LINE
8
BLACK
6
CONTINUOUS
10
5.4139578740157477
20
-4.3439240551181104
11
5.4132086614173227
21
-4.3401574803149607
0
LINE
8
BLACK
6
CONTINUOUS
10
5.4132086614173227
20
-4.3401574803149607
11
5.4132086614173227
21
-4.2535433070866144
0
LINE
8
BLACK
6
CONTINUOUS
10
5.4132086614173227
20
-4.2535433070866144
11
5.4139578740157477
21
-4.2497767322834648
0
LINE
8
BLACK
6
CONTINUOUS
10
5.4139578740157477
20
-4.2497767322834648
11
5.4160914566929135
21
-4.2465835826771654
0
LINE
8
BLACK
6
CONTINUOUS
10
5.4160914566929135
20
-4.2465835826771654
11
5.4192846062992128
21
-4.2444499999999996
0
LINE
8
BLACK
6
CONTINUOUS
10
5.4192846062992128
20
-4.2444499999999996
11
5.4230511811023625
21
-4.2437007874015746
0
LINE
8
BLACK
6
CONTINUOUS
10
5.4230511811023625
20
-4.2437007874015746
11
5.4427362204724412
21
-4.2437007874015746
0
LINE
8
BLACK
6
CONTINUOUS
10
5.4427362204724412
20
-4.2437007874015746
11
5.44650279527559
21
-4.2444499999999996
0
LINE
8
BLACK
6
CONTINUOUS
10
5.5356957086614171
20
-4.2444499999999996
11
5.5388888582677165
21
-4.2465835826771654
0
LINE
8
BLACK
6
CONTINUOUS
10
5.5388888582677165
20
-4.2465835826771654
11
5.5410224409448814
21
-4.2497767322834648
0
LINE
8
BLACK
6
CONTINUOUS
10
5.5410224409448814
20
-4.2497767322834648
11
5.5417716535433073
21
-4.2535433070866144
0
LINE
8
BLACK
6
CONTINUOUS
10
5.5417716535433073
20
-4.2535433070866144
11
5.5417716535433073
21
-4.3401574803149607
0
LINE
8
BLACK
6
CONTINUOUS
10
5.5417716535433073
20
-4.3401574803149607
11
5.5410224409448814
21
-4.3439240551181104
0
LINE
8
BLACK
6
CONTINUOUS
10
5.5410224409448814
20
-4.3439240551181104
11
5.5388888582677165
21
-4.3471172047244098
0
LINE
8
BLACK
6
CONTINUOUS
10
5.5388888582677165
20
-4.3471172047244098
11
5.5356957086614171
21
-4.3492507874015747
0
LINE
8
BLACK
6
CONTINUOUS
10
5.5356957086614171
20
-4.3492507874015747
11
5.5319291338582675
21
-4.3499999999999996
0
LINE
8
BLACK
6
CONTINUOUS
10
5.5319291338582675
20
-4.3499999999999996
11
5.5122440944881888
21
-4.3499999999999996
0
LINE
8
BLACK
6
CONTINUOUS
10
5.5122440944881888
20
-4.3499999999999996
11
5.5084775196850391
21
-4.3492507874015747
0
LINE
8
BLACK
6
CONTINUOUS
10
5.5084775196850391
20
-4.3492507874015747
11
5.5052843700787397
21
-4.3471172047244098
0
LINE
8
BLACK
6
CONTINUOUS
10
5.5052843700787397
20
-4.3471172047244098
11
5.5031507874015748
21
-4.3439240551181104
0
LINE
8
BLACK
6
CONTINUOUS
10
5.5031507874015748
20
-4.3439240551181104
11
5.5024015748031498
21
-4.3401574803149607
0
LINE
8
BLACK
6
CONTINUOUS
10
5.5024015748031498
20
-4.3401574803149607
11
5.5024015748031498
21
-4.2535433070866144
0
LINE
8
BLACK
6
CONTINUOUS
10
5.5024015748031498
20
-4.2535433070866144
11
5.5031507874015748
21
-4.2497767322834648
0
LINE
8
BLACK
6
CONTINUOUS
10
5.5031507874015748
20
-4.2497767322834648
11
5.5052843700787397
21
-4.2465835826771654
0
LINE
8
BLACK
6
CONTINUOUS
10
5.5052843700787397
20
-4.2465835826771654
11
5.5084775196850391
21
-4.2444499999999996
0
LINE
8
BLACK
6
CONTINUOUS
10
5.5084775196850391
20
-4.2444499999999996
11
5.5122440944881888
21
-4.2437007874015746
0
LINE
8
BLACK
6
CONTINUOUS
10
5.5122440944881888
20
-4.2437007874015746
11
5.5319291338582675
21
-4.2437007874015746
0
LINE
8
BLACK
6
CONTINUOUS
10
5.5319291338582675
20
-4.2437007874015746
11
5.5356957086614171
21
-4.2444499999999996
0
LINE
8
BLACK
6
CONTINUOUS
10
5.976640590551181
20
-4.2444499999999996
11
5.9798337401574804
21
-4.2465835826771654
0
LINE
8
BLACK
6
CONTINUOUS
10
5.9798337401574804
20
-4.2465835826771654
11
5.9819673228346453
21
-4.2497767322834648
0
LINE
8
BLACK
6
CONTINUOUS
10
5.9819673228346453
20
-4.2497767322834648
11
5.9827165354330711
21
-4.2535433070866144
0
LINE
8
BLACK
6
CONTINUOUS
10
5.9827165354330711
20
-4.2535433070866144
11
5.9827165354330711
21
-4.3401574803149607
0
LINE
8
BLACK
6
CONTINUOUS
10
5.9827165354330711
20
-4.3401574803149607
11
5.9819673228346453
21
-4.3439240551181104
0
LINE
8
BLACK
6
CONTINUOUS
10
5.9819673228346453
20
-4.3439240551181104
11
5.9798337401574804
21
-4.3471172047244098
0
LINE
8
BLACK
6
CONTINUOUS
10
5.9798337401574804
20
-4.3471172047244098
11
5.976640590551181
21
-4.3492507874015747
0
LINE
8
BLACK
6
CONTINUOUS
10
5.976640590551181
20
-4.3492507874015747
11
5.9728740157480313
21
-4.3499999999999996
0
LINE
8
BLACK
6
CONTINUOUS
10
5.9728740157480313
20
-4.3499999999999996
11
5.9531889763779526
21
-4.3499999999999996
0
LINE
8
BLACK
6
CONTINUOUS
10
5.9531889763779526
20
-4.3499999999999996
11
5.949422401574803
21
-4.3492507874015747
0
LINE
8
BLACK
6
CONTINUOUS
10
5.949422401574803
20
-4.3492507874015747
11
5.9462292519685036
21
-4.3471172047244098
0
LINE
8
BLACK
6
CONTINUOUS
10
5.9462292519685036
20
-4.3471172047244098
11
5.9440956692913387
21
-4.3439240551181104
0
LINE
8
BLACK
6
CONTINUOUS
10
5.9440956692913387
20
-4.3439240551181104
11
5.9433464566929128
21
-4.3401574803149607
0
LINE
8
BLACK
6
CONTINUOUS
10
5.9433464566929128
20
-4.3401574803149607
11
5.9433464566929128
21
-4.2535433070866144
0
LINE
8
BLACK
6
CONTINUOUS
10
5.9433464566929128
20
-4.2535433070866144
11
5.9440956692913387
21
-4.2497767322834648
0
LINE
8
BLACK
6
CONTINUOUS
10
5.9440956692913387
20
-4.2497767322834648
11
5.9462292519685036
21
-4.2465835826771654
0
LINE
8
BLACK
6
CONTINUOUS
10
5.9462292519685036
20
-4.2465835826771654
11
5.949422401574803
21
-4.2444499999999996
0
LINE
8
BLACK
6
CONTINUOUS
10
5.949422401574803
20
-4.2444499999999996
11
5.9531889763779526
21
-4.2437007874015746
0
LINE
8
BLACK
6
CONTINUOUS
10
5.9531889763779526
20
-4.2437007874015746
11
5.9728740157480313
21
-4.2437007874015746
0
LINE
8
BLACK
6
CONTINUOUS
10
5.9728740157480313
20
-4.2437007874015746
11
5.976640590551181
21
-4.2444499999999996
0
LINE
8
BLACK
6
CONTINUOUS
10
6.0658335039370082
20
-4.2444499999999996
11
6.0690266535433066
21
-4.2465835826771654
0
LINE
8
BLACK
6
CONTINUOUS
10
6.0690266535433066
20
-4.2465835826771654
11
6.0711602362204724
21
-4.2497767322834648
0
LINE
8
BLACK
6
CONTINUOUS
10
6.0711602362204724
20
-4.2497767322834648
11
6.0719094488188974
21
-4.2535433070866144
0
LINE
8
BLACK
6
CONTINUOUS
10
6.0719094488188974
20
-4.2535433070866144
11
6.0719094488188974
21
-4.3401574803149607
0
LINE
8
BLACK
6
CONTINUOUS
10
6.0719094488188974
20
-4.3401574803149607
11
6.0711602362204724
21
-4.3439240551181104
0
LINE
8
BLACK
6
CONTINUOUS
10
6.0711602362204724
20
-4.3439240551181104
11
6.0690266535433066
21
-4.3471172047244098
0
LINE
8
BLACK
6
CONTINUOUS
10
6.0690266535433066
20
-4.3471172047244098
11
6.0658335039370082
21
-4.3492507874015747
0
LINE
8
BLACK
6
CONTINUOUS
10
6.0658335039370082
20
-4.3492507874015747
11
6.0620669291338585
21
-4.3499999999999996
0
LINE
8
BLACK
6
CONTINUOUS
10
6.0620669291338585
20
-4.3499999999999996
11
6.0423818897637798
21
-4.3499999999999996
0
LINE
8
BLACK
6
CONTINUOUS
10
6.0423818897637798
20
-4.3499999999999996
11
6.0386153149606301
21
-4.3492507874015747
0
LINE
8
BLACK
6
CONTINUOUS
10
6.0386153149606301
20
-4.3492507874015747
11
6.0354221653543307
21
-4.3471172047244098
0
LINE
8
BLACK
6
CONTINUOUS
10
6.0354221653543307
20
-4.3471172047244098
11
6.0332885826771649
21
-4.3439240551181104
0
LINE
8
BLACK
6
CONTINUOUS
10
6.0332885826771649
20
-4.3439240551181104
11
6.03253937007874
21
-4.3401574803149607
0
LINE
8
BLACK
6
CONTINUOUS
10
6.03253937007874
20
-4.3401574803149607
11
6.03253937007874
21
-4.2535433070866144
0
LINE
8
BLACK
6
CONTINUOUS
10
6.03253937007874
20
-4.2535433070866144
11
6.0332885826771649
21
-4.2497767322834648
0
LINE
8
BLACK
6
CONTINUOUS
10
6.0332885826771649
20
-4.2497767322834648
11
6.0354221653543307
21
-4.2465835826771654
0
LINE
8
BLACK
6
CONTINUOUS
10
6.0354221653543307
20
-4.2465835826771654
11
6.0386153149606301
21
-4.2444499999999996
0
LINE
8
BLACK
6
CONTINUOUS
10
6.0386153149606301
20
-4.2444499999999996
11
6.0423818897637798
21
-4.2437007874015746
0
LINE
8
BLACK
6
CONTINUOUS
10
6.0423818897637798
20
-4.2437007874015746
11
6.0620669291338585
21
-4.2437007874015746
0
LINE
8
BLACK
6
CONTINUOUS
10
6.0620669291338585
20
-4.2437007874015746
11
6.0658335039370082
21
-4.2444499999999996
0
LINE
8
BLACK
6
CONTINUOUS
10
6.4575657874015748
20
-4.2444499999999996
11
6.4607589370078742
21
-4.2465835826771654
0
LINE
8
BLACK
6
CONTINUOUS
10
6.4607589370078742
20
-4.2465835826771654
11
6.4628925196850391
21
-4.2497767322834648
0
LINE
8
BLACK
6
CONTINUOUS
10
6.4628925196850391
20
-4.2497767322834648
11
6.4636417322834641
21
-4.2535433070866144
0
LINE
8
BLACK
6
CONTINUOUS
10
6.4636417322834641
20
-4.2535433070866144
11
6.4636417322834641
21
-4.3401574803149607
0
LINE
8
BLACK
6
CONTINUOUS
10
6.4636417322834641
20
-4.3401574803149607
11
6.4628925196850391
21
-4.3439240551181104
0
LINE
8
BLACK
6
CONTINUOUS
10
6.4628925196850391
20
-4.3439240551181104
11
6.4607589370078742
21
-4.3471172047244098
0
LINE
8
BLACK
6
CONTINUOUS
10
6.4607589370078742
20
-4.3471172047244098
11
6.4575657874015748
21
-4.3492507874015747
0
LINE
8
BLACK
6
CONTINUOUS
10
6.4575657874015748
20
-4.3492507874015747
11
6.4537992125984252
21
-4.3499999999999996
0
LINE
8
BLACK
6
CONTINUOUS
10
6.4537992125984252
20
-4.3499999999999996
11
6.4341141732283464
21
-4.3499999999999996
0
LINE
8
BLACK
6
CONTINUOUS
10
6.4341141732283464
20
-4.3499999999999996
11
6.4303475984251968
21
-4.3492507874015747
0
LINE
8
BLACK
6
CONTINUOUS
10
6.4303475984251968
20
-4.3492507874015747
11
6.4271544488188974
21
-4.3471172047244098
0
LINE
8
BLACK
6
CONTINUOUS
10
6.4271544488188974
20
-4.3471172047244098
11
6.4250208661417325
21
-4.3439240551181104
0
LINE
8
BLACK
6
CONTINUOUS
10
6.4250208661417325
20
-4.3439240551181104
11
6.4242716535433066
21
-4.3401574803149607
0
LINE
8
BLACK
6
CONTINUOUS
10
6.4242716535433066
20
-4.3401574803149607
11
6.4242716535433066
21
-4.2535433070866144
0
LINE
8
BLACK
6
CONTINUOUS
10
6.4242716535433066
20
-4.2535433070866144
11
6.4250208661417325
21
-4.2497767322834648
0
LINE
8
BLACK
6
CONTINUOUS
10
6.4250208661417325
20
-4.2497767322834648
11
6.4271544488188974
21
-4.2465835826771654
0
LINE
8
BLACK
6
CONTINUOUS
10
6.4271544488188974
20
-4.2465835826771654
11
6.4303475984251968
21
-4.2444499999999996
0
LINE
8
BLACK
6
CONTINUOUS
10
6.4303475984251968
20
-4.2444499999999996
11
6.4341141732283464
21
-4.2437007874015746
0
LINE
8
BLACK
6
CONTINUOUS
10
6.4341141732283464
20
-4.2437007874015746
11
6.4537992125984252
21
-4.2437007874015746
0
LINE
8
BLACK
6
CONTINUOUS
10
6.4537992125984252
20
-4.2437007874015746
11
6.4575657874015748
21
-4.2444499999999996
0
LINE
8
BLACK
6
CONTINUOUS
10
6.5469555511811022
20
-4.2444499999999996
11
6.5501487007874015
21
-4.2465835826771654
0
LINE
8
BLACK
6
CONTINUOUS
10
6.5501487007874015
20
-4.2465835826771654
11
6.5522822834645664
21
-4.2497767322834648
0
LINE
8
BLACK
6
CONTINUOUS
10
6.5522822834645664
20
-4.2497767322834648
11
6.5530314960629923
21
-4.2535433070866144
0
LINE
8
BLACK
6
CONTINUOUS
10
6.5530314960629923
20
-4.2535433070866144
11
6.5530314960629923
21
-4.3401574803149607
0
LINE
8
BLACK
6
CONTINUOUS
10
6.5530314960629923
20
-4.3401574803149607
11
6.5522822834645664
21
-4.3439240551181104
0
LINE
8
BLACK
6
CONTINUOUS
10
6.5522822834645664
20
-4.3439240551181104
11
6.5501487007874015
21
-4.3471172047244098
0
LINE
8
BLACK
6
CONTINUOUS
10
6.5501487007874015
20
-4.3471172047244098
11
6.5469555511811022
21
-4.3492507874015747
0
LINE
8
BLACK
6
CONTINUOUS
10
6.5469555511811022
20
-4.3492507874015747
11
6.5431889763779525
21
-4.3499999999999996
0
LINE
8
BLACK
6
CONTINUOUS
10
6.5431889763779525
20
-4.3499999999999996
11
6.5235039370078738
21
-4.3499999999999996
0
LINE
8
BLACK
6
CONTINUOUS
10
6.5235039370078738
20
-4.3499999999999996
11
6.5197373622047241
21
-4.3492507874015747
0
LINE
8
BLACK
6
CONTINUOUS
10
6.5197373622047241
20
-4.3492507874015747
11
6.5165442125984248
21
-4.3471172047244098
0
LINE
8
BLACK
6
CONTINUOUS
10
6.5165442125984248
20
-4.3471172047244098
11
6.5144106299212599
21
-4.3439240551181104
0
LINE
8
BLACK
6
CONTINUOUS
10
6.5144106299212599
20
-4.3439240551181104
11
6.5136614173228349
21
-4.3401574803149607
0
LINE
8
BLACK
6
CONTINUOUS
10
6.5136614173228349
20
-4.3401574803149607
11
6.5136614173228349
21
-4.2535433070866144
0
LINE
8
BLACK
6
CONTINUOUS
10
6.5136614173228349
20
-4.2535433070866144
11
6.5144106299212599
21
-4.2497767322834648
0
LINE
8
BLACK
6
CONTINUOUS
10
6.5144106299212599
20
-4.2497767322834648
11
6.5165442125984248
21
-4.2465835826771654
0
LINE
8
BLACK
6
CONTINUOUS
10
6.5165442125984248
20
-4.2465835826771654
11
6.5197373622047241
21
-4.2444499999999996
0
LINE
8
BLACK
6
CONTINUOUS
10
6.5197373622047241
20
-4.2444499999999996
11
6.5235039370078738
21
-4.2437007874015746
0
LINE
8
BLACK
6
CONTINUOUS
10
6.5235039370078738
20
-4.2437007874015746
11
6.5431889763779525
21
-4.2437007874015746
0
LINE
8
BLACK
6
CONTINUOUS
10
6.5431889763779525
20
-4.2437007874015746
11
6.5469555511811022
21
-4.2444499999999996
0
LINE
8
BLACK
6
CONTINUOUS
10
6.8402626377952753
20
-4.2444499999999996
11
6.8434557874015747
21
-4.2465835826771654
0
LINE
8
BLACK
6
CONTINUOUS
10
6.8434557874015747
20
-4.2465835826771654
11
6.8455893700787396
21
-4.2497767322834648
0
LINE
8
BLACK
6
CONTINUOUS
10
6.8455893700787396
20
-4.2497767322834648
11
6.8463385826771654
21
-4.2535433070866144
0
LINE
8
BLACK
6
CONTINUOUS
10
6.8463385826771654
20
-4.2535433070866144
11
6.8463385826771654
21
-4.3401574803149607
0
LINE
8
BLACK
6
CONTINUOUS
10
6.8463385826771654
20
-4.3401574803149607
11
6.8455893700787396
21
-4.3439240551181104
0
LINE
8
BLACK
6
CONTINUOUS
10
6.8455893700787396
20
-4.3439240551181104
11
6.8434557874015747
21
-4.3471172047244098
0
LINE
8
BLACK
6
CONTINUOUS
10
6.8434557874015747
20
-4.3471172047244098
11
6.8402626377952753
21
-4.3492507874015747
0
LINE
8
BLACK
6
CONTINUOUS
10
6.8402626377952753
20
-4.3492507874015747
11
6.8364960629921256
21
-4.3499999999999996
0
LINE
8
BLACK
6
CONTINUOUS
10
6.8364960629921256
20
-4.3499999999999996
11
6.8168110236220469
21
-4.3499999999999996
0
LINE
8
BLACK
6
CONTINUOUS
10
6.8168110236220469
20
-4.3499999999999996
11
6.8130444488188973
21
-4.3492507874015747
0
LINE
8
BLACK
6
CONTINUOUS
10
6.8130444488188973
20
-4.3492507874015747
11
6.8098512992125979
21
-4.3471172047244098
0
LINE
8
BLACK
6
CONTINUOUS
10
6.8098512992125979
20
-4.3471172047244098
11
6.807717716535433
21
-4.3439240551181104
0
LINE
8
BLACK
6
CONTINUOUS
10
6.807717716535433
20
-4.3439240551181104
11
6.806968503937008
21
-4.3401574803149607
0
LINE
8
BLACK
6
CONTINUOUS
10
6.806968503937008
20
-4.3401574803149607
11
6.806968503937008
21
-4.2535433070866144
0
LINE
8
BLACK
6
CONTINUOUS
10
6.806968503937008
20
-4.2535433070866144
11
6.807717716535433
21
-4.2497767322834648
0
LINE
8
BLACK
6
CONTINUOUS
10
6.807717716535433
20
-4.2497767322834648
11
6.8098512992125979
21
-4.2465835826771654
0
LINE
8
BLACK
6
CONTINUOUS
10
6.8098512992125979
20
-4.2465835826771654
11
6.8130444488188973
21
-4.2444499999999996
0
LINE
8
BLACK
6
CONTINUOUS
10
6.8130444488188973
20
-4.2444499999999996
11
6.8168110236220469
21
-4.2437007874015746
0
LINE
8
BLACK
6
CONTINUOUS
10
6.8168110236220469
20
-4.2437007874015746
11
6.8364960629921256
21
-4.2437007874015746
0
LINE
8
BLACK
6
CONTINUOUS
10
6.8364960629921256
20
-4.2437007874015746
11
6.8402626377952753
21
-4.2444499999999996
0
CIRCLE
8
BLACK
10
4.4424665354330708
20
-4.6279311023622043
40
0.0068897637795276
0
CIRCLE
8
BLACK
10
4.5424665354330704
20
-4.6279311023622043
40
0.0068897637795276
0
CIRCLE
8
BLACK
10
4.642466535433071
20
-4.6279311023622043
40
0.0068897637795276
0
CIRCLE
8
BLACK
10
4.7424665354330706
20
-4.6279311023622043
40
0.0068897637795276
0
CIRCLE
8
BLACK
10
4.8424665354330712
20
-4.6279311023622043
40
0.0068897637795276
0
CIRCLE
8
BLACK
10
4.9424665354330708
20
-4.6279311023622043
40
0.0068897637795276
0
CIRCLE
8
BLACK
10
5.0424665354330704
20
-4.6279311023622043
40
0.0068897637795276
0
CIRCLE
8
BLACK
10
5.142466535433071
20
-4.6279311023622043
40
0.0068897637795276
0
CIRCLE
8
BLACK
10
5.8424665354330712
20
-4.6279311023622043
40
0.0068897637795276
0
CIRCLE
8
BLACK
10
5.9424665354330708
20
-4.6279311023622043
40
0.0068897637795276
0
CIRCLE
8
BLACK
10
6.0424665354330704
20
-4.6279311023622043
40
0.0068897637795276
0
CIRCLE
8
BLACK
10
6.142466535433071
20
-4.6279311023622043
40
0.0068897637795276
0
CIRCLE
8
BLACK
10
6.2424665354330706
20
-4.6279311023622043
40
0.0068897637795276
0
CIRCLE
8
BLACK
10
6.3424665354330712
20
-4.6279311023622043
40
0.0068897637795276
0
CIRCLE
8
BLACK
10
6.4424665354330708
20
-4.6279311023622043
40
0.0068897637795276
0
CIRCLE
8
BLACK
10
6.5424665354330704
20
-4.6279311023622043
40
0.0068897637795276
0
CIRCLE
8
BLACK
10
6.642466535433071
20
-4.6279311023622043
40
0.0068897637795276
0
CIRCLE
8
BLACK
10
6.7424665354330706
20
-4.6279311023622043
40
0.0068897637795276
0
CIRCLE
8
BLACK
10
5.5800000000000001
20
-4.6626377952755904
40
0.0068897637795276
0
CIRCLE
8
BLACK
10
5.4799999999999995
20
-4.6626377952755904
40
0.0068897637795276
0
CIRCLE
8
BLACK
10
5.3799999999999999
20
-4.6626377952755904
40
0.0068897637795276
  0
ENDSEC
  0
EOF
