  0
SECTION
  2
HEADER
  9
$ANGBASE
  50
0.0
  9
$ANGDIR
  70
1
  9
$MEASUREMENT
  70
0
  0
ENDSEC
  0
SECTION
  2
TABLES
  0
TABLE
  2
LTYPE
  70
4
  0
LTYPE
  5
40F
  2
CONTINUOUS
  70
0
  3
Solid line
  72
65
  73
0
  40
0.0
  0
LTYPE
  5
410
  2
DASHDOT
 70
0
  3
Dash Dot ____ _ ____ _
 72
65
 73
4
 40
2.0
 49
1.25
 49
-0.25
 49
0.25
 49
-0.25
  0
LTYPE
  5
411
  2
DASHED
 70
0
  3
Dashed __ __ __ __ __
 72
65
 73
2
 40
0.75
 49
0.5
 49
-0.25
  0
LTYPE
  5
43B
  2
DOTTED
 70
0
  3
Dotted .  .  .  .
 72
65
 73
2
 40
0.2
 49
0.0
 49
-0.2
  0
ENDTAB
  0
TABLE
  2
STYLE
  70
4
  0
STYLE
  2
KICAD
  70
0
  40
0
  41
1
  42
1
  50
0
  71
0
  3
isocp.shx
  0
STYLE
  2
KICADB
  70
0
  40
0
  41
1
  42
1
  50
0
  71
0
  3
isocp.shx
  0
STYLE
  2
KICADI
  70
0
  40
0
  41
1
  42
1
  50
15
  71
0
  3
isocp.shx
  0
STYLE
  2
KICADBI
  70
0
  40
0
  41
1
  42
1
  50
15
  71
0
  3
isocp.shx
  0
ENDTAB
  0
TABLE
  2
LAYER
  70
1
  0
LAYER
  2
BLACK
  70
0
  62
7
  6
CONTINUOUS
  0
ENDTAB
  0
ENDSEC
  0
SECTION
  2
ENTITIES
0
LINE
8
BLACK
6
CONTINUOUS
10
5.6142178740157478
20
-4.6273545669291334
11
5.6148564960629921
21
-4.6277812992125984
0
LINE
8
BLACK
6
CONTINUOUS
10
5.6148564960629921
20
-4.6277812992125984
11
5.6152832283464562
21
-4.6284199212598427
0
LINE
8
BLACK
6
CONTINUOUS
10
5.6152832283464562
20
-4.6284199212598427
11
5.6154330708661417
21
-4.6291732283464562
0
LINE
8
BLACK
6
CONTINUOUS
10
5.6154330708661417
20
-4.6291732283464562
11
5.6154330708661417
21
-4.6961023622047247
0
LINE
8
BLACK
6
CONTINUOUS
10
5.6154330708661417
20
-4.6961023622047247
11
5.6152832283464562
21
-4.6968556692913381
0
LINE
8
BLACK
6
CONTINUOUS
10
5.6152832283464562
20
-4.6968556692913381
11
5.6148564960629921
21
-4.6974942913385824
0
LINE
8
BLACK
6
CONTINUOUS
10
5.6148564960629921
20
-4.6974942913385824
11
5.6142178740157478
21
-4.6979210236220474
0
LINE
8
BLACK
6
CONTINUOUS
10
5.6142178740157478
20
-4.6979210236220474
11
5.6134645669291334
21
-4.6980708661417321
0
LINE
8
BLACK
6
CONTINUOUS
10
5.6134645669291334
20
-4.6980708661417321
11
5.5465354330708658
21
-4.6980708661417321
0
LINE
8
BLACK
6
CONTINUOUS
10
5.5465354330708658
20
-4.6980708661417321
11
5.5457821259842515
21
-4.6979210236220474
0
LINE
8
BLACK
6
CONTINUOUS
10
5.5457821259842515
20
-4.6979210236220474
11
5.5451435039370081
21
-4.6974942913385824
0
LINE
8
BLACK
6
CONTINUOUS
10
5.5451435039370081
20
-4.6974942913385824
11
5.544716771653543
21
-4.6968556692913381
0
LINE
8
BLACK
6
CONTINUOUS
10
5.544716771653543
20
-4.6968556692913381
11
5.5445669291338584
21
-4.6961023622047247
0
LINE
8
BLACK
6
CONTINUOUS
10
5.5445669291338584
20
-4.6961023622047247
11
5.5445669291338584
21
-4.6291732283464562
0
LINE
8
BLACK
6
CONTINUOUS
10
5.5445669291338584
20
-4.6291732283464562
11
5.544716771653543
21
-4.6284199212598427
0
LINE
8
BLACK
6
CONTINUOUS
10
5.544716771653543
20
-4.6284199212598427
11
5.5451435039370081
21
-4.6277812992125984
0
LINE
8
BLACK
6
CONTINUOUS
10
5.5451435039370081
20
-4.6277812992125984
11
5.5457821259842515
21
-4.6273545669291334
0
LINE
8
BLACK
6
CONTINUOUS
10
5.5457821259842515
20
-4.6273545669291334
11
5.5465354330708658
21
-4.6272047244094487
0
LINE
8
BLACK
6
CONTINUOUS
10
5.5465354330708658
20
-4.6272047244094487
11
5.6134645669291334
21
-4.6272047244094487
0
LINE
8
BLACK
6
CONTINUOUS
10
5.6134645669291334
20
-4.6272047244094487
11
5.6142178740157478
21
-4.6273545669291334
0
LINE
8
BLACK
6
CONTINUOUS
10
5.3902856692913383
20
-4.628730472440945
11
5.3967030314960631
21
-4.6313886220472442
0
LINE
8
BLACK
6
CONTINUOUS
10
5.3967030314960631
20
-4.6313886220472442
11
5.402478503937008
21
-4.6352476771653546
0
LINE
8
BLACK
6
CONTINUOUS
10
5.402478503937008
20
-4.6352476771653546
11
5.4073901181102357
21
-4.6401592913385823
0
LINE
8
BLACK
6
CONTINUOUS
10
5.4073901181102357
20
-4.6401592913385823
11
5.4112491732283461
21
-4.6459347637795272
0
LINE
8
BLACK
6
CONTINUOUS
10
5.4112491732283461
20
-4.6459347637795272
11
5.4139073228346453
21
-4.652352125984252
0
LINE
8
BLACK
6
CONTINUOUS
10
5.4139073228346453
20
-4.652352125984252
11
5.4152624409448817
21
-4.6591647637795273
0
LINE
8
BLACK
6
CONTINUOUS
10
5.4152624409448817
20
-4.6591647637795273
11
5.4152624409448817
21
-4.6661108267716536
0
LINE
8
BLACK
6
CONTINUOUS
10
5.4152624409448817
20
-4.6661108267716536
11
5.4139073228346453
21
-4.6729234645669289
0
LINE
8
BLACK
6
CONTINUOUS
10
5.4139073228346453
20
-4.6729234645669289
11
5.4112491732283461
21
-4.6793408267716536
0
LINE
8
BLACK
6
CONTINUOUS
10
5.4112491732283461
20
-4.6793408267716536
11
5.4073901181102357
21
-4.6851162992125985
0
LINE
8
BLACK
6
CONTINUOUS
10
5.4073901181102357
20
-4.6851162992125985
11
5.402478503937008
21
-4.6900279133858263
0
LINE
8
BLACK
6
CONTINUOUS
10
5.402478503937008
20
-4.6900279133858263
11
5.3967030314960631
21
-4.6938869685039366
0
LINE
8
BLACK
6
CONTINUOUS
10
5.3967030314960631
20
-4.6938869685039366
11
5.3902856692913383
21
-4.6965451181102358
0
LINE
8
BLACK
6
CONTINUOUS
10
5.3902856692913383
20
-4.6965451181102358
11
5.383473031496063
21
-4.6979002362204723
0
LINE
8
BLACK
6
CONTINUOUS
10
5.383473031496063
20
-4.6979002362204723
11
5.3765269685039367
21
-4.6979002362204723
0
LINE
8
BLACK
6
CONTINUOUS
10
5.3765269685039367
20
-4.6979002362204723
11
5.3697143307086614
21
-4.6965451181102358
0
LINE
8
BLACK
6
CONTINUOUS
10
5.3697143307086614
20
-4.6965451181102358
11
5.3632969685039367
21
-4.6938869685039366
0
LINE
8
BLACK
6
CONTINUOUS
10
5.3632969685039367
20
-4.6938869685039366
11
5.3575214960629918
21
-4.6900279133858263
0
LINE
8
BLACK
6
CONTINUOUS
10
5.3575214960629918
20
-4.6900279133858263
11
5.3526098818897641
21
-4.6851162992125985
0
LINE
8
BLACK
6
CONTINUOUS
10
5.3526098818897641
20
-4.6851162992125985
11
5.3487508267716537
21
-4.6793408267716536
0
LINE
8
BLACK
6
CONTINUOUS
10
5.3487508267716537
20
-4.6793408267716536
11
5.3460926771653545
21
-4.6729234645669289
0
LINE
8
BLACK
6
CONTINUOUS
10
5.3460926771653545
20
-4.6729234645669289
11
5.344737559055118
21
-4.6661108267716536
0
LINE
8
BLACK
6
CONTINUOUS
10
5.344737559055118
20
-4.6661108267716536
11
5.344737559055118
21
-4.6591647637795273
0
LINE
8
BLACK
6
CONTINUOUS
10
5.344737559055118
20
-4.6591647637795273
11
5.3460926771653545
21
-4.652352125984252
0
LINE
8
BLACK
6
CONTINUOUS
10
5.3460926771653545
20
-4.652352125984252
11
5.3487508267716537
21
-4.6459347637795272
0
LINE
8
BLACK
6
CONTINUOUS
10
5.3487508267716537
20
-4.6459347637795272
11
5.3526098818897641
21
-4.6401592913385823
0
LINE
8
BLACK
6
CONTINUOUS
10
5.3526098818897641
20
-4.6401592913385823
11
5.3575214960629918
21
-4.6352476771653546
0
LINE
8
BLACK
6
CONTINUOUS
10
5.3575214960629918
20
-4.6352476771653546
11
5.3632969685039367
21
-4.6313886220472442
0
LINE
8
BLACK
6
CONTINUOUS
10
5.3632969685039367
20
-4.6313886220472442
11
5.3697143307086614
21
-4.628730472440945
0
LINE
8
BLACK
6
CONTINUOUS
10
5.3697143307086614
20
-4.628730472440945
11
5.3765269685039367
21
-4.6273753543307086
0
LINE
8
BLACK
6
CONTINUOUS
10
5.3765269685039367
20
-4.6273753543307086
11
5.383473031496063
21
-4.6273753543307086
0
LINE
8
BLACK
6
CONTINUOUS
10
5.383473031496063
20
-4.6273753543307086
11
5.3902856692913383
21
-4.628730472440945
0
LINE
8
BLACK
6
CONTINUOUS
10
5.4902856692913389
20
-4.628730472440945
11
5.4967030314960628
21
-4.6313886220472442
0
LINE
8
BLACK
6
CONTINUOUS
10
5.4967030314960628
20
-4.6313886220472442
11
5.5024785039370077
21
-4.6352476771653546
0
LINE
8
BLACK
6
CONTINUOUS
10
5.5024785039370077
20
-4.6352476771653546
11
5.5073901181102363
21
-4.6401592913385823
0
LINE
8
BLACK
6
CONTINUOUS
10
5.5073901181102363
20
-4.6401592913385823
11
5.5112491732283466
21
-4.6459347637795272
0
LINE
8
BLACK
6
CONTINUOUS
10
5.5112491732283466
20
-4.6459347637795272
11
5.5139073228346458
21
-4.652352125984252
0
LINE
8
BLACK
6
CONTINUOUS
10
5.5139073228346458
20
-4.652352125984252
11
5.5152624409448814
21
-4.6591647637795273
0
LINE
8
BLACK
6
CONTINUOUS
10
5.5152624409448814
20
-4.6591647637795273
11
5.5152624409448814
21
-4.6661108267716536
0
LINE
8
BLACK
6
CONTINUOUS
10
5.5152624409448814
20
-4.6661108267716536
11
5.5139073228346458
21
-4.6729234645669289
0
LINE
8
BLACK
6
CONTINUOUS
10
5.5139073228346458
20
-4.6729234645669289
11
5.5112491732283466
21
-4.6793408267716536
0
LINE
8
BLACK
6
CONTINUOUS
10
5.5112491732283466
20
-4.6793408267716536
11
5.5073901181102363
21
-4.6851162992125985
0
LINE
8
BLACK
6
CONTINUOUS
10
5.5073901181102363
20
-4.6851162992125985
11
5.5024785039370077
21
-4.6900279133858263
0
LINE
8
BLACK
6
CONTINUOUS
10
5.5024785039370077
20
-4.6900279133858263
11
5.4967030314960628
21
-4.6938869685039366
0
LINE
8
BLACK
6
CONTINUOUS
10
5.4967030314960628
20
-4.6938869685039366
11
5.4902856692913389
21
-4.6965451181102358
0
LINE
8
BLACK
6
CONTINUOUS
10
5.4902856692913389
20
-4.6965451181102358
11
5.4834730314960627
21
-4.6979002362204723
0
LINE
8
BLACK
6
CONTINUOUS
10
5.4834730314960627
20
-4.6979002362204723
11
5.4765269685039373
21
-4.6979002362204723
0
LINE
8
BLACK
6
CONTINUOUS
10
5.4765269685039373
20
-4.6979002362204723
11
5.4697143307086611
21
-4.6965451181102358
0
LINE
8
BLACK
6
CONTINUOUS
10
5.4697143307086611
20
-4.6965451181102358
11
5.4632969685039372
21
-4.6938869685039366
0
LINE
8
BLACK
6
CONTINUOUS
10
5.4632969685039372
20
-4.6938869685039366
11
5.4575214960629923
21
-4.6900279133858263
0
LINE
8
BLACK
6
CONTINUOUS
10
5.4575214960629923
20
-4.6900279133858263
11
5.4526098818897637
21
-4.6851162992125985
0
LINE
8
BLACK
6
CONTINUOUS
10
5.4526098818897637
20
-4.6851162992125985
11
5.4487508267716533
21
-4.6793408267716536
0
LINE
8
BLACK
6
CONTINUOUS
10
5.4487508267716533
20
-4.6793408267716536
11
5.4460926771653542
21
-4.6729234645669289
0
LINE
8
BLACK
6
CONTINUOUS
10
5.4460926771653542
20
-4.6729234645669289
11
5.4447375590551177
21
-4.6661108267716536
0
LINE
8
BLACK
6
CONTINUOUS
10
5.4447375590551177
20
-4.6661108267716536
11
5.4447375590551177
21
-4.6591647637795273
0
LINE
8
BLACK
6
CONTINUOUS
10
5.4447375590551177
20
-4.6591647637795273
11
5.4460926771653542
21
-4.652352125984252
0
LINE
8
BLACK
6
CONTINUOUS
10
5.4460926771653542
20
-4.652352125984252
11
5.4487508267716533
21
-4.6459347637795272
0
LINE
8
BLACK
6
CONTINUOUS
10
5.4487508267716533
20
-4.6459347637795272
11
5.4526098818897637
21
-4.6401592913385823
0
LINE
8
BLACK
6
CONTINUOUS
10
5.4526098818897637
20
-4.6401592913385823
11
5.4575214960629923
21
-4.6352476771653546
0
LINE
8
BLACK
6
CONTINUOUS
10
5.4575214960629923
20
-4.6352476771653546
11
5.4632969685039372
21
-4.6313886220472442
0
LINE
8
BLACK
6
CONTINUOUS
10
5.4632969685039372
20
-4.6313886220472442
11
5.4697143307086611
21
-4.628730472440945
0
LINE
8
BLACK
6
CONTINUOUS
10
5.4697143307086611
20
-4.628730472440945
11
5.4765269685039373
21
-4.6273753543307086
0
LINE
8
BLACK
6
CONTINUOUS
10
5.4765269685039373
20
-4.6273753543307086
11
5.4834730314960627
21
-4.6273753543307086
0
LINE
8
BLACK
6
CONTINUOUS
10
5.4834730314960627
20
-4.6273753543307086
11
5.4902856692913389
21
-4.628730472440945
0
LINE
8
BLACK
6
CONTINUOUS
10
4.4766844094488185
20
-4.5926478740157481
11
4.4773230314960628
21
-4.5930746062992123
0
LINE
8
BLACK
6
CONTINUOUS
10
4.4773230314960628
20
-4.5930746062992123
11
4.4777497637795278
21
-4.5937132283464566
0
LINE
8
BLACK
6
CONTINUOUS
10
4.4777497637795278
20
-4.5937132283464566
11
4.4778996062992125
21
-4.5944665354330709
0
LINE
8
BLACK
6
CONTINUOUS
10
4.4778996062992125
20
-4.5944665354330709
11
4.4778996062992125
21
-4.6613956692913385
0
LINE
8
BLACK
6
CONTINUOUS
10
4.4778996062992125
20
-4.6613956692913385
11
4.4777497637795278
21
-4.6621489763779529
0
LINE
8
BLACK
6
CONTINUOUS
10
4.4777497637795278
20
-4.6621489763779529
11
4.4773230314960628
21
-4.6627875984251963
0
LINE
8
BLACK
6
CONTINUOUS
10
4.4773230314960628
20
-4.6627875984251963
11
4.4766844094488185
21
-4.6632143307086613
0
LINE
8
BLACK
6
CONTINUOUS
10
4.4766844094488185
20
-4.6632143307086613
11
4.475931102362205
21
-4.663364173228346
0
LINE
8
BLACK
6
CONTINUOUS
10
4.475931102362205
20
-4.663364173228346
11
4.4090019685039366
21
-4.663364173228346
0
LINE
8
BLACK
6
CONTINUOUS
10
4.4090019685039366
20
-4.663364173228346
11
4.4082486614173231
21
-4.6632143307086613
0
LINE
8
BLACK
6
CONTINUOUS
10
4.4082486614173231
20
-4.6632143307086613
11
4.4076100393700788
21
-4.6627875984251963
0
LINE
8
BLACK
6
CONTINUOUS
10
4.4076100393700788
20
-4.6627875984251963
11
4.4071833070866138
21
-4.6621489763779529
0
LINE
8
BLACK
6
CONTINUOUS
10
4.4071833070866138
20
-4.6621489763779529
11
4.4070334645669291
21
-4.6613956692913385
0
LINE
8
BLACK
6
CONTINUOUS
10
4.4070334645669291
20
-4.6613956692913385
11
4.4070334645669291
21
-4.5944665354330709
0
LINE
8
BLACK
6
CONTINUOUS
10
4.4070334645669291
20
-4.5944665354330709
11
4.4071833070866138
21
-4.5937132283464566
0
LINE
8
BLACK
6
CONTINUOUS
10
4.4071833070866138
20
-4.5937132283464566
11
4.4076100393700788
21
-4.5930746062992123
0
LINE
8
BLACK
6
CONTINUOUS
10
4.4076100393700788
20
-4.5930746062992123
11
4.4082486614173231
21
-4.5926478740157481
0
LINE
8
BLACK
6
CONTINUOUS
10
4.4082486614173231
20
-4.5926478740157481
11
4.4090019685039366
21
-4.5924980314960626
0
LINE
8
BLACK
6
CONTINUOUS
10
4.4090019685039366
20
-4.5924980314960626
11
4.475931102362205
21
-4.5924980314960626
0
LINE
8
BLACK
6
CONTINUOUS
10
4.475931102362205
20
-4.5924980314960626
11
4.4766844094488185
21
-4.5926478740157481
0
LINE
8
BLACK
6
CONTINUOUS
10
4.5527522047244098
20
-4.5940237795275589
11
4.5591695669291337
21
-4.5966819291338581
0
LINE
8
BLACK
6
CONTINUOUS
10
4.5591695669291337
20
-4.5966819291338581
11
4.5649450393700786
21
-4.6005409842519684
0
LINE
8
BLACK
6
CONTINUOUS
10
4.5649450393700786
20
-4.6005409842519684
11
4.5698566535433072
21
-4.6054525984251971
0
LINE
8
BLACK
6
CONTINUOUS
10
4.5698566535433072
20
-4.6054525984251971
11
4.5737157086614175
21
-4.6112280708661419
0
LINE
8
BLACK
6
CONTINUOUS
10
4.5737157086614175
20
-4.6112280708661419
11
4.5763738582677167
21
-4.6176454330708658
0
LINE
8
BLACK
6
CONTINUOUS
10
4.5763738582677167
20
-4.6176454330708658
11
4.5777289763779523
21
-4.624458070866142
0
LINE
8
BLACK
6
CONTINUOUS
10
4.5777289763779523
20
-4.624458070866142
11
4.5777289763779523
21
-4.6314041338582674
0
LINE
8
BLACK
6
CONTINUOUS
10
4.5777289763779523
20
-4.6314041338582674
11
4.5763738582677167
21
-4.6382167716535436
0
LINE
8
BLACK
6
CONTINUOUS
10
4.5763738582677167
20
-4.6382167716535436
11
4.5737157086614175
21
-4.6446341338582675
0
LINE
8
BLACK
6
CONTINUOUS
10
4.5737157086614175
20
-4.6446341338582675
11
4.5698566535433072
21
-4.6504096062992124
0
LINE
8
BLACK
6
CONTINUOUS
10
4.5698566535433072
20
-4.6504096062992124
11
4.5649450393700786
21
-4.655321220472441
0
LINE
8
BLACK
6
CONTINUOUS
10
4.5649450393700786
20
-4.655321220472441
11
4.5591695669291337
21
-4.6591802755905514
0
LINE
8
BLACK
6
CONTINUOUS
10
4.5591695669291337
20
-4.6591802755905514
11
4.5527522047244098
21
-4.6618384251968505
0
LINE
8
BLACK
6
CONTINUOUS
10
4.5527522047244098
20
-4.6618384251968505
11
4.5459395669291336
21
-4.6631935433070861
0
LINE
8
BLACK
6
CONTINUOUS
10
4.5459395669291336
20
-4.6631935433070861
11
4.5389935039370082
21
-4.6631935433070861
0
LINE
8
BLACK
6
CONTINUOUS
10
4.5389935039370082
20
-4.6631935433070861
11
4.532180866141732
21
-4.6618384251968505
0
LINE
8
BLACK
6
CONTINUOUS
10
4.532180866141732
20
-4.6618384251968505
11
4.5257635039370081
21
-4.6591802755905514
0
LINE
8
BLACK
6
CONTINUOUS
10
4.5257635039370081
20
-4.6591802755905514
11
4.5199880314960632
21
-4.655321220472441
0
LINE
8
BLACK
6
CONTINUOUS
10
4.5199880314960632
20
-4.655321220472441
11
4.5150764173228346
21
-4.6504096062992124
0
LINE
8
BLACK
6
CONTINUOUS
10
4.5150764173228346
20
-4.6504096062992124
11
4.5112173622047242
21
-4.6446341338582675
0
LINE
8
BLACK
6
CONTINUOUS
10
4.5112173622047242
20
-4.6446341338582675
11
4.5085592125984251
21
-4.6382167716535436
0
LINE
8
BLACK
6
CONTINUOUS
10
4.5085592125984251
20
-4.6382167716535436
11
4.5072040944881886
21
-4.6314041338582674
0
LINE
8
BLACK
6
CONTINUOUS
10
4.5072040944881886
20
-4.6314041338582674
11
4.5072040944881886
21
-4.624458070866142
0
LINE
8
BLACK
6
CONTINUOUS
10
4.5072040944881886
20
-4.624458070866142
11
4.5085592125984251
21
-4.6176454330708658
0
LINE
8
BLACK
6
CONTINUOUS
10
4.5085592125984251
20
-4.6176454330708658
11
4.5112173622047242
21
-4.6112280708661419
0
LINE
8
BLACK
6
CONTINUOUS
10
4.5112173622047242
20
-4.6112280708661419
11
4.5150764173228346
21
-4.6054525984251971
0
LINE
8
BLACK
6
CONTINUOUS
10
4.5150764173228346
20
-4.6054525984251971
11
4.5199880314960632
21
-4.6005409842519684
0
LINE
8
BLACK
6
CONTINUOUS
10
4.5199880314960632
20
-4.6005409842519684
11
4.5257635039370081
21
-4.5966819291338581
0
LINE
8
BLACK
6
CONTINUOUS
10
4.5257635039370081
20
-4.5966819291338581
11
4.532180866141732
21
-4.5940237795275589
0
LINE
8
BLACK
6
CONTINUOUS
10
4.532180866141732
20
-4.5940237795275589
11
4.5389935039370082
21
-4.5926686614173224
0
LINE
8
BLACK
6
CONTINUOUS
10
4.5389935039370082
20
-4.5926686614173224
11
4.5459395669291336
21
-4.5926686614173224
0
LINE
8
BLACK
6
CONTINUOUS
10
4.5459395669291336
20
-4.5926686614173224
11
4.5527522047244098
21
-4.5940237795275589
0
LINE
8
BLACK
6
CONTINUOUS
10
4.6527522047244094
20
-4.5940237795275589
11
4.6591695669291333
21
-4.5966819291338581
0
LINE
8
BLACK
6
CONTINUOUS
10
4.6591695669291333
20
-4.5966819291338581
11
4.6649450393700782
21
-4.6005409842519684
0
LINE
8
BLACK
6
CONTINUOUS
10
4.6649450393700782
20
-4.6005409842519684
11
4.6698566535433068
21
-4.6054525984251971
0
LINE
8
BLACK
6
CONTINUOUS
10
4.6698566535433068
20
-4.6054525984251971
11
4.6737157086614172
21
-4.6112280708661419
0
LINE
8
BLACK
6
CONTINUOUS
10
4.6737157086614172
20
-4.6112280708661419
11
4.6763738582677163
21
-4.6176454330708658
0
LINE
8
BLACK
6
CONTINUOUS
10
4.6763738582677163
20
-4.6176454330708658
11
4.6777289763779528
21
-4.624458070866142
0
LINE
8
BLACK
6
CONTINUOUS
10
4.6777289763779528
20
-4.624458070866142
11
4.6777289763779528
21
-4.6314041338582674
0
LINE
8
BLACK
6
CONTINUOUS
10
4.6777289763779528
20
-4.6314041338582674
11
4.6763738582677163
21
-4.6382167716535436
0
LINE
8
BLACK
6
CONTINUOUS
10
4.6763738582677163
20
-4.6382167716535436
11
4.6737157086614172
21
-4.6446341338582675
0
LINE
8
BLACK
6
CONTINUOUS
10
4.6737157086614172
20
-4.6446341338582675
11
4.6698566535433068
21
-4.6504096062992124
0
LINE
8
BLACK
6
CONTINUOUS
10
4.6698566535433068
20
-4.6504096062992124
11
4.6649450393700782
21
-4.655321220472441
0
LINE
8
BLACK
6
CONTINUOUS
10
4.6649450393700782
20
-4.655321220472441
11
4.6591695669291333
21
-4.6591802755905514
0
LINE
8
BLACK
6
CONTINUOUS
10
4.6591695669291333
20
-4.6591802755905514
11
4.6527522047244094
21
-4.6618384251968505
0
LINE
8
BLACK
6
CONTINUOUS
10
4.6527522047244094
20
-4.6618384251968505
11
4.6459395669291341
21
-4.6631935433070861
0
LINE
8
BLACK
6
CONTINUOUS
10
4.6459395669291341
20
-4.6631935433070861
11
4.6389935039370078
21
-4.6631935433070861
0
LINE
8
BLACK
6
CONTINUOUS
10
4.6389935039370078
20
-4.6631935433070861
11
4.6321808661417325
21
-4.6618384251968505
0
LINE
8
BLACK
6
CONTINUOUS
10
4.6321808661417325
20
-4.6618384251968505
11
4.6257635039370077
21
-4.6591802755905514
0
LINE
8
BLACK
6
CONTINUOUS
10
4.6257635039370077
20
-4.6591802755905514
11
4.6199880314960629
21
-4.655321220472441
0
LINE
8
BLACK
6
CONTINUOUS
10
4.6199880314960629
20
-4.655321220472441
11
4.6150764173228342
21
-4.6504096062992124
0
LINE
8
BLACK
6
CONTINUOUS
10
4.6150764173228342
20
-4.6504096062992124
11
4.6112173622047239
21
-4.6446341338582675
0
LINE
8
BLACK
6
CONTINUOUS
10
4.6112173622047239
20
-4.6446341338582675
11
4.6085592125984247
21
-4.6382167716535436
0
LINE
8
BLACK
6
CONTINUOUS
10
4.6085592125984247
20
-4.6382167716535436
11
4.6072040944881891
21
-4.6314041338582674
0
LINE
8
BLACK
6
CONTINUOUS
10
4.6072040944881891
20
-4.6314041338582674
11
4.6072040944881891
21
-4.624458070866142
0
LINE
8
BLACK
6
CONTINUOUS
10
4.6072040944881891
20
-4.624458070866142
11
4.6085592125984247
21
-4.6176454330708658
0
LINE
8
BLACK
6
CONTINUOUS
10
4.6085592125984247
20
-4.6176454330708658
11
4.6112173622047239
21
-4.6112280708661419
0
LINE
8
BLACK
6
CONTINUOUS
10
4.6112173622047239
20
-4.6112280708661419
11
4.6150764173228342
21
-4.6054525984251971
0
LINE
8
BLACK
6
CONTINUOUS
10
4.6150764173228342
20
-4.6054525984251971
11
4.6199880314960629
21
-4.6005409842519684
0
LINE
8
BLACK
6
CONTINUOUS
10
4.6199880314960629
20
-4.6005409842519684
11
4.6257635039370077
21
-4.5966819291338581
0
LINE
8
BLACK
6
CONTINUOUS
10
4.6257635039370077
20
-4.5966819291338581
11
4.6321808661417325
21
-4.5940237795275589
0
LINE
8
BLACK
6
CONTINUOUS
10
4.6321808661417325
20
-4.5940237795275589
11
4.6389935039370078
21
-4.5926686614173224
0
LINE
8
BLACK
6
CONTINUOUS
10
4.6389935039370078
20
-4.5926686614173224
11
4.6459395669291341
21
-4.5926686614173224
0
LINE
8
BLACK
6
CONTINUOUS
10
4.6459395669291341
20
-4.5926686614173224
11
4.6527522047244094
21
-4.5940237795275589
0
LINE
8
BLACK
6
CONTINUOUS
10
4.7527522047244091
20
-4.5940237795275589
11
4.7591695669291338
21
-4.5966819291338581
0
LINE
8
BLACK
6
CONTINUOUS
10
4.7591695669291338
20
-4.5966819291338581
11
4.7649450393700787
21
-4.6005409842519684
0
LINE
8
BLACK
6
CONTINUOUS
10
4.7649450393700787
20
-4.6005409842519684
11
4.7698566535433073
21
-4.6054525984251971
0
LINE
8
BLACK
6
CONTINUOUS
10
4.7698566535433073
20
-4.6054525984251971
11
4.7737157086614168
21
-4.6112280708661419
0
LINE
8
BLACK
6
CONTINUOUS
10
4.7737157086614168
20
-4.6112280708661419
11
4.776373858267716
21
-4.6176454330708658
0
LINE
8
BLACK
6
CONTINUOUS
10
4.776373858267716
20
-4.6176454330708658
11
4.7777289763779525
21
-4.624458070866142
0
LINE
8
BLACK
6
CONTINUOUS
10
4.7777289763779525
20
-4.624458070866142
11
4.7777289763779525
21
-4.6314041338582674
0
LINE
8
BLACK
6
CONTINUOUS
10
4.7777289763779525
20
-4.6314041338582674
11
4.776373858267716
21
-4.6382167716535436
0
LINE
8
BLACK
6
CONTINUOUS
10
4.776373858267716
20
-4.6382167716535436
11
4.7737157086614168
21
-4.6446341338582675
0
LINE
8
BLACK
6
CONTINUOUS
10
4.7737157086614168
20
-4.6446341338582675
11
4.7698566535433073
21
-4.6504096062992124
0
LINE
8
BLACK
6
CONTINUOUS
10
4.7698566535433073
20
-4.6504096062992124
11
4.7649450393700787
21
-4.655321220472441
0
LINE
8
BLACK
6
CONTINUOUS
10
4.7649450393700787
20
-4.655321220472441
11
4.7591695669291338
21
-4.6591802755905514
0
LINE
8
BLACK
6
CONTINUOUS
10
4.7591695669291338
20
-4.6591802755905514
11
4.7527522047244091
21
-4.6618384251968505
0
LINE
8
BLACK
6
CONTINUOUS
10
4.7527522047244091
20
-4.6618384251968505
11
4.7459395669291338
21
-4.6631935433070861
0
LINE
8
BLACK
6
CONTINUOUS
10
4.7459395669291338
20
-4.6631935433070861
11
4.7389935039370075
21
-4.6631935433070861
0
LINE
8
BLACK
6
CONTINUOUS
10
4.7389935039370075
20
-4.6631935433070861
11
4.7321808661417322
21
-4.6618384251968505
0
LINE
8
BLACK
6
CONTINUOUS
10
4.7321808661417322
20
-4.6618384251968505
11
4.7257635039370074
21
-4.6591802755905514
0
LINE
8
BLACK
6
CONTINUOUS
10
4.7257635039370074
20
-4.6591802755905514
11
4.7199880314960625
21
-4.655321220472441
0
LINE
8
BLACK
6
CONTINUOUS
10
4.7199880314960625
20
-4.655321220472441
11
4.7150764173228348
21
-4.6504096062992124
0
LINE
8
BLACK
6
CONTINUOUS
10
4.7150764173228348
20
-4.6504096062992124
11
4.7112173622047244
21
-4.6446341338582675
0
LINE
8
BLACK
6
CONTINUOUS
10
4.7112173622047244
20
-4.6446341338582675
11
4.7085592125984252
21
-4.6382167716535436
0
LINE
8
BLACK
6
CONTINUOUS
10
4.7085592125984252
20
-4.6382167716535436
11
4.7072040944881888
21
-4.6314041338582674
0
LINE
8
BLACK
6
CONTINUOUS
10
4.7072040944881888
20
-4.6314041338582674
11
4.7072040944881888
21
-4.624458070866142
0
LINE
8
BLACK
6
CONTINUOUS
10
4.7072040944881888
20
-4.624458070866142
11
4.7085592125984252
21
-4.6176454330708658
0
LINE
8
BLACK
6
CONTINUOUS
10
4.7085592125984252
20
-4.6176454330708658
11
4.7112173622047244
21
-4.6112280708661419
0
LINE
8
BLACK
6
CONTINUOUS
10
4.7112173622047244
20
-4.6112280708661419
11
4.7150764173228348
21
-4.6054525984251971
0
LINE
8
BLACK
6
CONTINUOUS
10
4.7150764173228348
20
-4.6054525984251971
11
4.7199880314960625
21
-4.6005409842519684
0
LINE
8
BLACK
6
CONTINUOUS
10
4.7199880314960625
20
-4.6005409842519684
11
4.7257635039370074
21
-4.5966819291338581
0
LINE
8
BLACK
6
CONTINUOUS
10
4.7257635039370074
20
-4.5966819291338581
11
4.7321808661417322
21
-4.5940237795275589
0
LINE
8
BLACK
6
CONTINUOUS
10
4.7321808661417322
20
-4.5940237795275589
11
4.7389935039370075
21
-4.5926686614173224
0
LINE
8
BLACK
6
CONTINUOUS
10
4.7389935039370075
20
-4.5926686614173224
11
4.7459395669291338
21
-4.5926686614173224
0
LINE
8
BLACK
6
CONTINUOUS
10
4.7459395669291338
20
-4.5926686614173224
11
4.7527522047244091
21
-4.5940237795275589
0
LINE
8
BLACK
6
CONTINUOUS
10
4.8527522047244096
20
-4.5940237795275589
11
4.8591695669291335
21
-4.5966819291338581
0
LINE
8
BLACK
6
CONTINUOUS
10
4.8591695669291335
20
-4.5966819291338581
11
4.8649450393700784
21
-4.6005409842519684
0
LINE
8
BLACK
6
CONTINUOUS
10
4.8649450393700784
20
-4.6005409842519684
11
4.869856653543307
21
-4.6054525984251971
0
LINE
8
BLACK
6
CONTINUOUS
10
4.869856653543307
20
-4.6054525984251971
11
4.8737157086614173
21
-4.6112280708661419
0
LINE
8
BLACK
6
CONTINUOUS
10
4.8737157086614173
20
-4.6112280708661419
11
4.8763738582677165
21
-4.6176454330708658
0
LINE
8
BLACK
6
CONTINUOUS
10
4.8763738582677165
20
-4.6176454330708658
11
4.877728976377953
21
-4.624458070866142
0
LINE
8
BLACK
6
CONTINUOUS
10
4.877728976377953
20
-4.624458070866142
11
4.877728976377953
21
-4.6314041338582674
0
LINE
8
BLACK
6
CONTINUOUS
10
4.877728976377953
20
-4.6314041338582674
11
4.8763738582677165
21
-4.6382167716535436
0
LINE
8
BLACK
6
CONTINUOUS
10
4.8763738582677165
20
-4.6382167716535436
11
4.8737157086614173
21
-4.6446341338582675
0
LINE
8
BLACK
6
CONTINUOUS
10
4.8737157086614173
20
-4.6446341338582675
11
4.869856653543307
21
-4.6504096062992124
0
LINE
8
BLACK
6
CONTINUOUS
10
4.869856653543307
20
-4.6504096062992124
11
4.8649450393700784
21
-4.655321220472441
0
LINE
8
BLACK
6
CONTINUOUS
10
4.8649450393700784
20
-4.655321220472441
11
4.8591695669291335
21
-4.6591802755905514
0
LINE
8
BLACK
6
CONTINUOUS
10
4.8591695669291335
20
-4.6591802755905514
11
4.8527522047244096
21
-4.6618384251968505
0
LINE
8
BLACK
6
CONTINUOUS
10
4.8527522047244096
20
-4.6618384251968505
11
4.8459395669291334
21
-4.6631935433070861
0
LINE
8
BLACK
6
CONTINUOUS
10
4.8459395669291334
20
-4.6631935433070861
11
4.838993503937008
21
-4.6631935433070861
0
LINE
8
BLACK
6
CONTINUOUS
10
4.838993503937008
20
-4.6631935433070861
11
4.8321808661417318
21
-4.6618384251968505
0
LINE
8
BLACK
6
CONTINUOUS
10
4.8321808661417318
20
-4.6618384251968505
11
4.8257635039370079
21
-4.6591802755905514
0
LINE
8
BLACK
6
CONTINUOUS
10
4.8257635039370079
20
-4.6591802755905514
11
4.819988031496063
21
-4.655321220472441
0
LINE
8
BLACK
6
CONTINUOUS
10
4.819988031496063
20
-4.655321220472441
11
4.8150764173228344
21
-4.6504096062992124
0
LINE
8
BLACK
6
CONTINUOUS
10
4.8150764173228344
20
-4.6504096062992124
11
4.8112173622047241
21
-4.6446341338582675
0
LINE
8
BLACK
6
CONTINUOUS
10
4.8112173622047241
20
-4.6446341338582675
11
4.8085592125984249
21
-4.6382167716535436
0
LINE
8
BLACK
6
CONTINUOUS
10
4.8085592125984249
20
-4.6382167716535436
11
4.8072040944881893
21
-4.6314041338582674
0
LINE
8
BLACK
6
CONTINUOUS
10
4.8072040944881893
20
-4.6314041338582674
11
4.8072040944881893
21
-4.624458070866142
0
LINE
8
BLACK
6
CONTINUOUS
10
4.8072040944881893
20
-4.624458070866142
11
4.8085592125984249
21
-4.6176454330708658
0
LINE
8
BLACK
6
CONTINUOUS
10
4.8085592125984249
20
-4.6176454330708658
11
4.8112173622047241
21
-4.6112280708661419
0
LINE
8
BLACK
6
CONTINUOUS
10
4.8112173622047241
20
-4.6112280708661419
11
4.8150764173228344
21
-4.6054525984251971
0
LINE
8
BLACK
6
CONTINUOUS
10
4.8150764173228344
20
-4.6054525984251971
11
4.819988031496063
21
-4.6005409842519684
0
LINE
8
BLACK
6
CONTINUOUS
10
4.819988031496063
20
-4.6005409842519684
11
4.8257635039370079
21
-4.5966819291338581
0
LINE
8
BLACK
6
CONTINUOUS
10
4.8257635039370079
20
-4.5966819291338581
11
4.8321808661417318
21
-4.5940237795275589
0
LINE
8
BLACK
6
CONTINUOUS
10
4.8321808661417318
20
-4.5940237795275589
11
4.838993503937008
21
-4.5926686614173224
0
LINE
8
BLACK
6
CONTINUOUS
10
4.838993503937008
20
-4.5926686614173224
11
4.8459395669291334
21
-4.5926686614173224
0
LINE
8
BLACK
6
CONTINUOUS
10
4.8459395669291334
20
-4.5926686614173224
11
4.8527522047244096
21
-4.5940237795275589
0
LINE
8
BLACK
6
CONTINUOUS
10
4.9527522047244092
20
-4.5940237795275589
11
4.959169566929134
21
-4.5966819291338581
0
LINE
8
BLACK
6
CONTINUOUS
10
4.959169566929134
20
-4.5966819291338581
11
4.9649450393700789
21
-4.6005409842519684
0
LINE
8
BLACK
6
CONTINUOUS
10
4.9649450393700789
20
-4.6005409842519684
11
4.9698566535433066
21
-4.6054525984251971
0
LINE
8
BLACK
6
CONTINUOUS
10
4.9698566535433066
20
-4.6054525984251971
11
4.973715708661417
21
-4.6112280708661419
0
LINE
8
BLACK
6
CONTINUOUS
10
4.973715708661417
20
-4.6112280708661419
11
4.9763738582677162
21
-4.6176454330708658
0
LINE
8
BLACK
6
CONTINUOUS
10
4.9763738582677162
20
-4.6176454330708658
11
4.9777289763779526
21
-4.624458070866142
0
LINE
8
BLACK
6
CONTINUOUS
10
4.9777289763779526
20
-4.624458070866142
11
4.9777289763779526
21
-4.6314041338582674
0
LINE
8
BLACK
6
CONTINUOUS
10
4.9777289763779526
20
-4.6314041338582674
11
4.9763738582677162
21
-4.6382167716535436
0
LINE
8
BLACK
6
CONTINUOUS
10
4.9763738582677162
20
-4.6382167716535436
11
4.973715708661417
21
-4.6446341338582675
0
LINE
8
BLACK
6
CONTINUOUS
10
4.973715708661417
20
-4.6446341338582675
11
4.9698566535433066
21
-4.6504096062992124
0
LINE
8
BLACK
6
CONTINUOUS
10
4.9698566535433066
20
-4.6504096062992124
11
4.9649450393700789
21
-4.655321220472441
0
LINE
8
BLACK
6
CONTINUOUS
10
4.9649450393700789
20
-4.655321220472441
11
4.959169566929134
21
-4.6591802755905514
0
LINE
8
BLACK
6
CONTINUOUS
10
4.959169566929134
20
-4.6591802755905514
11
4.9527522047244092
21
-4.6618384251968505
0
LINE
8
BLACK
6
CONTINUOUS
10
4.9527522047244092
20
-4.6618384251968505
11
4.9459395669291339
21
-4.6631935433070861
0
LINE
8
BLACK
6
CONTINUOUS
10
4.9459395669291339
20
-4.6631935433070861
11
4.9389935039370076
21
-4.6631935433070861
0
LINE
8
BLACK
6
CONTINUOUS
10
4.9389935039370076
20
-4.6631935433070861
11
4.9321808661417323
21
-4.6618384251968505
0
LINE
8
BLACK
6
CONTINUOUS
10
4.9321808661417323
20
-4.6618384251968505
11
4.9257635039370076
21
-4.6591802755905514
0
LINE
8
BLACK
6
CONTINUOUS
10
4.9257635039370076
20
-4.6591802755905514
11
4.9199880314960627
21
-4.655321220472441
0
LINE
8
BLACK
6
CONTINUOUS
10
4.9199880314960627
20
-4.655321220472441
11
4.915076417322835
21
-4.6504096062992124
0
LINE
8
BLACK
6
CONTINUOUS
10
4.915076417322835
20
-4.6504096062992124
11
4.9112173622047246
21
-4.6446341338582675
0
LINE
8
BLACK
6
CONTINUOUS
10
4.9112173622047246
20
-4.6446341338582675
11
4.9085592125984254
21
-4.6382167716535436
0
LINE
8
BLACK
6
CONTINUOUS
10
4.9085592125984254
20
-4.6382167716535436
11
4.907204094488189
21
-4.6314041338582674
0
LINE
8
BLACK
6
CONTINUOUS
10
4.907204094488189
20
-4.6314041338582674
11
4.907204094488189
21
-4.624458070866142
0
LINE
8
BLACK
6
CONTINUOUS
10
4.907204094488189
20
-4.624458070866142
11
4.9085592125984254
21
-4.6176454330708658
0
LINE
8
BLACK
6
CONTINUOUS
10
4.9085592125984254
20
-4.6176454330708658
11
4.9112173622047246
21
-4.6112280708661419
0
LINE
8
BLACK
6
CONTINUOUS
10
4.9112173622047246
20
-4.6112280708661419
11
4.915076417322835
21
-4.6054525984251971
0
LINE
8
BLACK
6
CONTINUOUS
10
4.915076417322835
20
-4.6054525984251971
11
4.9199880314960627
21
-4.6005409842519684
0
LINE
8
BLACK
6
CONTINUOUS
10
4.9199880314960627
20
-4.6005409842519684
11
4.9257635039370076
21
-4.5966819291338581
0
LINE
8
BLACK
6
CONTINUOUS
10
4.9257635039370076
20
-4.5966819291338581
11
4.9321808661417323
21
-4.5940237795275589
0
LINE
8
BLACK
6
CONTINUOUS
10
4.9321808661417323
20
-4.5940237795275589
11
4.9389935039370076
21
-4.5926686614173224
0
LINE
8
BLACK
6
CONTINUOUS
10
4.9389935039370076
20
-4.5926686614173224
11
4.9459395669291339
21
-4.5926686614173224
0
LINE
8
BLACK
6
CONTINUOUS
10
4.9459395669291339
20
-4.5926686614173224
11
4.9527522047244092
21
-4.5940237795275589
0
LINE
8
BLACK
6
CONTINUOUS
10
5.0527522047244089
20
-4.5940237795275589
11
5.0591695669291337
21
-4.5966819291338581
0
LINE
8
BLACK
6
CONTINUOUS
10
5.0591695669291337
20
-4.5966819291338581
11
5.0649450393700786
21
-4.6005409842519684
0
LINE
8
BLACK
6
CONTINUOUS
10
5.0649450393700786
20
-4.6005409842519684
11
5.0698566535433072
21
-4.6054525984251971
0
LINE
8
BLACK
6
CONTINUOUS
10
5.0698566535433072
20
-4.6054525984251971
11
5.0737157086614175
21
-4.6112280708661419
0
LINE
8
BLACK
6
CONTINUOUS
10
5.0737157086614175
20
-4.6112280708661419
11
5.0763738582677167
21
-4.6176454330708658
0
LINE
8
BLACK
6
CONTINUOUS
10
5.0763738582677167
20
-4.6176454330708658
11
5.0777289763779523
21
-4.624458070866142
0
LINE
8
BLACK
6
CONTINUOUS
10
5.0777289763779523
20
-4.624458070866142
11
5.0777289763779523
21
-4.6314041338582674
0
LINE
8
BLACK
6
CONTINUOUS
10
5.0777289763779523
20
-4.6314041338582674
11
5.0763738582677167
21
-4.6382167716535436
0
LINE
8
BLACK
6
CONTINUOUS
10
5.0763738582677167
20
-4.6382167716535436
11
5.0737157086614175
21
-4.6446341338582675
0
LINE
8
BLACK
6
CONTINUOUS
10
5.0737157086614175
20
-4.6446341338582675
11
5.0698566535433072
21
-4.6504096062992124
0
LINE
8
BLACK
6
CONTINUOUS
10
5.0698566535433072
20
-4.6504096062992124
11
5.0649450393700786
21
-4.655321220472441
0
LINE
8
BLACK
6
CONTINUOUS
10
5.0649450393700786
20
-4.655321220472441
11
5.0591695669291337
21
-4.6591802755905514
0
LINE
8
BLACK
6
CONTINUOUS
10
5.0591695669291337
20
-4.6591802755905514
11
5.0527522047244089
21
-4.6618384251968505
0
LINE
8
BLACK
6
CONTINUOUS
10
5.0527522047244089
20
-4.6618384251968505
11
5.0459395669291336
21
-4.6631935433070861
0
LINE
8
BLACK
6
CONTINUOUS
10
5.0459395669291336
20
-4.6631935433070861
11
5.0389935039370082
21
-4.6631935433070861
0
LINE
8
BLACK
6
CONTINUOUS
10
5.0389935039370082
20
-4.6631935433070861
11
5.032180866141732
21
-4.6618384251968505
0
LINE
8
BLACK
6
CONTINUOUS
10
5.032180866141732
20
-4.6618384251968505
11
5.0257635039370081
21
-4.6591802755905514
0
LINE
8
BLACK
6
CONTINUOUS
10
5.0257635039370081
20
-4.6591802755905514
11
5.0199880314960632
21
-4.655321220472441
0
LINE
8
BLACK
6
CONTINUOUS
10
5.0199880314960632
20
-4.655321220472441
11
5.0150764173228346
21
-4.6504096062992124
0
LINE
8
BLACK
6
CONTINUOUS
10
5.0150764173228346
20
-4.6504096062992124
11
5.0112173622047242
21
-4.6446341338582675
0
LINE
8
BLACK
6
CONTINUOUS
10
5.0112173622047242
20
-4.6446341338582675
11
5.0085592125984251
21
-4.6382167716535436
0
LINE
8
BLACK
6
CONTINUOUS
10
5.0085592125984251
20
-4.6382167716535436
11
5.0072040944881886
21
-4.6314041338582674
0
LINE
8
BLACK
6
CONTINUOUS
10
5.0072040944881886
20
-4.6314041338582674
11
5.0072040944881886
21
-4.624458070866142
0
LINE
8
BLACK
6
CONTINUOUS
10
5.0072040944881886
20
-4.624458070866142
11
5.0085592125984251
21
-4.6176454330708658
0
LINE
8
BLACK
6
CONTINUOUS
10
5.0085592125984251
20
-4.6176454330708658
11
5.0112173622047242
21
-4.6112280708661419
0
LINE
8
BLACK
6
CONTINUOUS
10
5.0112173622047242
20
-4.6112280708661419
11
5.0150764173228346
21
-4.6054525984251971
0
LINE
8
BLACK
6
CONTINUOUS
10
5.0150764173228346
20
-4.6054525984251971
11
5.0199880314960632
21
-4.6005409842519684
0
LINE
8
BLACK
6
CONTINUOUS
10
5.0199880314960632
20
-4.6005409842519684
11
5.0257635039370081
21
-4.5966819291338581
0
LINE
8
BLACK
6
CONTINUOUS
10
5.0257635039370081
20
-4.5966819291338581
11
5.032180866141732
21
-4.5940237795275589
0
LINE
8
BLACK
6
CONTINUOUS
10
5.032180866141732
20
-4.5940237795275589
11
5.0389935039370082
21
-4.5926686614173224
0
LINE
8
BLACK
6
CONTINUOUS
10
5.0389935039370082
20
-4.5926686614173224
11
5.0459395669291336
21
-4.5926686614173224
0
LINE
8
BLACK
6
CONTINUOUS
10
5.0459395669291336
20
-4.5926686614173224
11
5.0527522047244089
21
-4.5940237795275589
0
LINE
8
BLACK
6
CONTINUOUS
10
5.1527522047244094
20
-4.5940237795275589
11
5.1591695669291333
21
-4.5966819291338581
0
LINE
8
BLACK
6
CONTINUOUS
10
5.1591695669291333
20
-4.5966819291338581
11
5.1649450393700782
21
-4.6005409842519684
0
LINE
8
BLACK
6
CONTINUOUS
10
5.1649450393700782
20
-4.6005409842519684
11
5.1698566535433068
21
-4.6054525984251971
0
LINE
8
BLACK
6
CONTINUOUS
10
5.1698566535433068
20
-4.6054525984251971
11
5.1737157086614172
21
-4.6112280708661419
0
LINE
8
BLACK
6
CONTINUOUS
10
5.1737157086614172
20
-4.6112280708661419
11
5.1763738582677163
21
-4.6176454330708658
0
LINE
8
BLACK
6
CONTINUOUS
10
5.1763738582677163
20
-4.6176454330708658
11
5.1777289763779528
21
-4.624458070866142
0
LINE
8
BLACK
6
CONTINUOUS
10
5.1777289763779528
20
-4.624458070866142
11
5.1777289763779528
21
-4.6314041338582674
0
LINE
8
BLACK
6
CONTINUOUS
10
5.1777289763779528
20
-4.6314041338582674
11
5.1763738582677163
21
-4.6382167716535436
0
LINE
8
BLACK
6
CONTINUOUS
10
5.1763738582677163
20
-4.6382167716535436
11
5.1737157086614172
21
-4.6446341338582675
0
LINE
8
BLACK
6
CONTINUOUS
10
5.1737157086614172
20
-4.6446341338582675
11
5.1698566535433068
21
-4.6504096062992124
0
LINE
8
BLACK
6
CONTINUOUS
10
5.1698566535433068
20
-4.6504096062992124
11
5.1649450393700782
21
-4.655321220472441
0
LINE
8
BLACK
6
CONTINUOUS
10
5.1649450393700782
20
-4.655321220472441
11
5.1591695669291333
21
-4.6591802755905514
0
LINE
8
BLACK
6
CONTINUOUS
10
5.1591695669291333
20
-4.6591802755905514
11
5.1527522047244094
21
-4.6618384251968505
0
LINE
8
BLACK
6
CONTINUOUS
10
5.1527522047244094
20
-4.6618384251968505
11
5.1459395669291341
21
-4.6631935433070861
0
LINE
8
BLACK
6
CONTINUOUS
10
5.1459395669291341
20
-4.6631935433070861
11
5.1389935039370078
21
-4.6631935433070861
0
LINE
8
BLACK
6
CONTINUOUS
10
5.1389935039370078
20
-4.6631935433070861
11
5.1321808661417325
21
-4.6618384251968505
0
LINE
8
BLACK
6
CONTINUOUS
10
5.1321808661417325
20
-4.6618384251968505
11
5.1257635039370077
21
-4.6591802755905514
0
LINE
8
BLACK
6
CONTINUOUS
10
5.1257635039370077
20
-4.6591802755905514
11
5.1199880314960629
21
-4.655321220472441
0
LINE
8
BLACK
6
CONTINUOUS
10
5.1199880314960629
20
-4.655321220472441
11
5.1150764173228342
21
-4.6504096062992124
0
LINE
8
BLACK
6
CONTINUOUS
10
5.1150764173228342
20
-4.6504096062992124
11
5.1112173622047239
21
-4.6446341338582675
0
LINE
8
BLACK
6
CONTINUOUS
10
5.1112173622047239
20
-4.6446341338582675
11
5.1085592125984247
21
-4.6382167716535436
0
LINE
8
BLACK
6
CONTINUOUS
10
5.1085592125984247
20
-4.6382167716535436
11
5.1072040944881891
21
-4.6314041338582674
0
LINE
8
BLACK
6
CONTINUOUS
10
5.1072040944881891
20
-4.6314041338582674
11
5.1072040944881891
21
-4.624458070866142
0
LINE
8
BLACK
6
CONTINUOUS
10
5.1072040944881891
20
-4.624458070866142
11
5.1085592125984247
21
-4.6176454330708658
0
LINE
8
BLACK
6
CONTINUOUS
10
5.1085592125984247
20
-4.6176454330708658
11
5.1112173622047239
21
-4.6112280708661419
0
LINE
8
BLACK
6
CONTINUOUS
10
5.1112173622047239
20
-4.6112280708661419
11
5.1150764173228342
21
-4.6054525984251971
0
LINE
8
BLACK
6
CONTINUOUS
10
5.1150764173228342
20
-4.6054525984251971
11
5.1199880314960629
21
-4.6005409842519684
0
LINE
8
BLACK
6
CONTINUOUS
10
5.1199880314960629
20
-4.6005409842519684
11
5.1257635039370077
21
-4.5966819291338581
0
LINE
8
BLACK
6
CONTINUOUS
10
5.1257635039370077
20
-4.5966819291338581
11
5.1321808661417325
21
-4.5940237795275589
0
LINE
8
BLACK
6
CONTINUOUS
10
5.1321808661417325
20
-4.5940237795275589
11
5.1389935039370078
21
-4.5926686614173224
0
LINE
8
BLACK
6
CONTINUOUS
10
5.1389935039370078
20
-4.5926686614173224
11
5.1459395669291341
21
-4.5926686614173224
0
LINE
8
BLACK
6
CONTINUOUS
10
5.1459395669291341
20
-4.5926686614173224
11
5.1527522047244094
21
-4.5940237795275589
0
LINE
8
BLACK
6
CONTINUOUS
10
5.8527522047244096
20
-4.5940237795275589
11
5.8591695669291335
21
-4.5966819291338581
0
LINE
8
BLACK
6
CONTINUOUS
10
5.8591695669291335
20
-4.5966819291338581
11
5.8649450393700784
21
-4.6005409842519684
0
LINE
8
BLACK
6
CONTINUOUS
10
5.8649450393700784
20
-4.6005409842519684
11
5.869856653543307
21
-4.6054525984251971
0
LINE
8
BLACK
6
CONTINUOUS
10
5.869856653543307
20
-4.6054525984251971
11
5.8737157086614173
21
-4.6112280708661419
0
LINE
8
BLACK
6
CONTINUOUS
10
5.8737157086614173
20
-4.6112280708661419
11
5.8763738582677165
21
-4.6176454330708658
0
LINE
8
BLACK
6
CONTINUOUS
10
5.8763738582677165
20
-4.6176454330708658
11
5.877728976377953
21
-4.624458070866142
0
LINE
8
BLACK
6
CONTINUOUS
10
5.877728976377953
20
-4.624458070866142
11
5.877728976377953
21
-4.6314041338582674
0
LINE
8
BLACK
6
CONTINUOUS
10
5.877728976377953
20
-4.6314041338582674
11
5.8763738582677165
21
-4.6382167716535436
0
LINE
8
BLACK
6
CONTINUOUS
10
5.8763738582677165
20
-4.6382167716535436
11
5.8737157086614173
21
-4.6446341338582675
0
LINE
8
BLACK
6
CONTINUOUS
10
5.8737157086614173
20
-4.6446341338582675
11
5.869856653543307
21
-4.6504096062992124
0
LINE
8
BLACK
6
CONTINUOUS
10
5.869856653543307
20
-4.6504096062992124
11
5.8649450393700784
21
-4.655321220472441
0
LINE
8
BLACK
6
CONTINUOUS
10
5.8649450393700784
20
-4.655321220472441
11
5.8591695669291335
21
-4.6591802755905514
0
LINE
8
BLACK
6
CONTINUOUS
10
5.8591695669291335
20
-4.6591802755905514
11
5.8527522047244096
21
-4.6618384251968505
0
LINE
8
BLACK
6
CONTINUOUS
10
5.8527522047244096
20
-4.6618384251968505
11
5.8459395669291334
21
-4.6631935433070861
0
LINE
8
BLACK
6
CONTINUOUS
10
5.8459395669291334
20
-4.6631935433070861
11
5.838993503937008
21
-4.6631935433070861
0
LINE
8
BLACK
6
CONTINUOUS
10
5.838993503937008
20
-4.6631935433070861
11
5.8321808661417318
21
-4.6618384251968505
0
LINE
8
BLACK
6
CONTINUOUS
10
5.8321808661417318
20
-4.6618384251968505
11
5.8257635039370079
21
-4.6591802755905514
0
LINE
8
BLACK
6
CONTINUOUS
10
5.8257635039370079
20
-4.6591802755905514
11
5.819988031496063
21
-4.655321220472441
0
LINE
8
BLACK
6
CONTINUOUS
10
5.819988031496063
20
-4.655321220472441
11
5.8150764173228344
21
-4.6504096062992124
0
LINE
8
BLACK
6
CONTINUOUS
10
5.8150764173228344
20
-4.6504096062992124
11
5.8112173622047241
21
-4.6446341338582675
0
LINE
8
BLACK
6
CONTINUOUS
10
5.8112173622047241
20
-4.6446341338582675
11
5.8085592125984249
21
-4.6382167716535436
0
LINE
8
BLACK
6
CONTINUOUS
10
5.8085592125984249
20
-4.6382167716535436
11
5.8072040944881884
21
-4.6314041338582674
0
LINE
8
BLACK
6
CONTINUOUS
10
5.8072040944881884
20
-4.6314041338582674
11
5.8072040944881884
21
-4.624458070866142
0
LINE
8
BLACK
6
CONTINUOUS
10
5.8072040944881884
20
-4.624458070866142
11
5.8085592125984249
21
-4.6176454330708658
0
LINE
8
BLACK
6
CONTINUOUS
10
5.8085592125984249
20
-4.6176454330708658
11
5.8112173622047241
21
-4.6112280708661419
0
LINE
8
BLACK
6
CONTINUOUS
10
5.8112173622047241
20
-4.6112280708661419
11
5.8150764173228344
21
-4.6054525984251971
0
LINE
8
BLACK
6
CONTINUOUS
10
5.8150764173228344
20
-4.6054525984251971
11
5.819988031496063
21
-4.6005409842519684
0
LINE
8
BLACK
6
CONTINUOUS
10
5.819988031496063
20
-4.6005409842519684
11
5.8257635039370079
21
-4.5966819291338581
0
LINE
8
BLACK
6
CONTINUOUS
10
5.8257635039370079
20
-4.5966819291338581
11
5.8321808661417318
21
-4.5940237795275589
0
LINE
8
BLACK
6
CONTINUOUS
10
5.8321808661417318
20
-4.5940237795275589
11
5.838993503937008
21
-4.5926686614173224
0
LINE
8
BLACK
6
CONTINUOUS
10
5.838993503937008
20
-4.5926686614173224
11
5.8459395669291334
21
-4.5926686614173224
0
LINE
8
BLACK
6
CONTINUOUS
10
5.8459395669291334
20
-4.5926686614173224
11
5.8527522047244096
21
-4.5940237795275589
0
LINE
8
BLACK
6
CONTINUOUS
10
5.9527522047244092
20
-4.5940237795275589
11
5.959169566929134
21
-4.5966819291338581
0
LINE
8
BLACK
6
CONTINUOUS
10
5.959169566929134
20
-4.5966819291338581
11
5.9649450393700789
21
-4.6005409842519684
0
LINE
8
BLACK
6
CONTINUOUS
10
5.9649450393700789
20
-4.6005409842519684
11
5.9698566535433066
21
-4.6054525984251971
0
LINE
8
BLACK
6
CONTINUOUS
10
5.9698566535433066
20
-4.6054525984251971
11
5.973715708661417
21
-4.6112280708661419
0
LINE
8
BLACK
6
CONTINUOUS
10
5.973715708661417
20
-4.6112280708661419
11
5.9763738582677162
21
-4.6176454330708658
0
LINE
8
BLACK
6
CONTINUOUS
10
5.9763738582677162
20
-4.6176454330708658
11
5.9777289763779526
21
-4.624458070866142
0
LINE
8
BLACK
6
CONTINUOUS
10
5.9777289763779526
20
-4.624458070866142
11
5.9777289763779526
21
-4.6314041338582674
0
LINE
8
BLACK
6
CONTINUOUS
10
5.9777289763779526
20
-4.6314041338582674
11
5.9763738582677162
21
-4.6382167716535436
0
LINE
8
BLACK
6
CONTINUOUS
10
5.9763738582677162
20
-4.6382167716535436
11
5.973715708661417
21
-4.6446341338582675
0
LINE
8
BLACK
6
CONTINUOUS
10
5.973715708661417
20
-4.6446341338582675
11
5.9698566535433066
21
-4.6504096062992124
0
LINE
8
BLACK
6
CONTINUOUS
10
5.9698566535433066
20
-4.6504096062992124
11
5.9649450393700789
21
-4.655321220472441
0
LINE
8
BLACK
6
CONTINUOUS
10
5.9649450393700789
20
-4.655321220472441
11
5.959169566929134
21
-4.6591802755905514
0
LINE
8
BLACK
6
CONTINUOUS
10
5.959169566929134
20
-4.6591802755905514
11
5.9527522047244092
21
-4.6618384251968505
0
LINE
8
BLACK
6
CONTINUOUS
10
5.9527522047244092
20
-4.6618384251968505
11
5.9459395669291339
21
-4.6631935433070861
0
LINE
8
BLACK
6
CONTINUOUS
10
5.9459395669291339
20
-4.6631935433070861
11
5.9389935039370076
21
-4.6631935433070861
0
LINE
8
BLACK
6
CONTINUOUS
10
5.9389935039370076
20
-4.6631935433070861
11
5.9321808661417323
21
-4.6618384251968505
0
LINE
8
BLACK
6
CONTINUOUS
10
5.9321808661417323
20
-4.6618384251968505
11
5.9257635039370076
21
-4.6591802755905514
0
LINE
8
BLACK
6
CONTINUOUS
10
5.9257635039370076
20
-4.6591802755905514
11
5.9199880314960627
21
-4.655321220472441
0
LINE
8
BLACK
6
CONTINUOUS
10
5.9199880314960627
20
-4.655321220472441
11
5.9150764173228341
21
-4.6504096062992124
0
LINE
8
BLACK
6
CONTINUOUS
10
5.9150764173228341
20
-4.6504096062992124
11
5.9112173622047246
21
-4.6446341338582675
0
LINE
8
BLACK
6
CONTINUOUS
10
5.9112173622047246
20
-4.6446341338582675
11
5.9085592125984254
21
-4.6382167716535436
0
LINE
8
BLACK
6
CONTINUOUS
10
5.9085592125984254
20
-4.6382167716535436
11
5.907204094488189
21
-4.6314041338582674
0
LINE
8
BLACK
6
CONTINUOUS
10
5.907204094488189
20
-4.6314041338582674
11
5.907204094488189
21
-4.624458070866142
0
LINE
8
BLACK
6
CONTINUOUS
10
5.907204094488189
20
-4.624458070866142
11
5.9085592125984254
21
-4.6176454330708658
0
LINE
8
BLACK
6
CONTINUOUS
10
5.9085592125984254
20
-4.6176454330708658
11
5.9112173622047246
21
-4.6112280708661419
0
LINE
8
BLACK
6
CONTINUOUS
10
5.9112173622047246
20
-4.6112280708661419
11
5.9150764173228341
21
-4.6054525984251971
0
LINE
8
BLACK
6
CONTINUOUS
10
5.9150764173228341
20
-4.6054525984251971
11
5.9199880314960627
21
-4.6005409842519684
0
LINE
8
BLACK
6
CONTINUOUS
10
5.9199880314960627
20
-4.6005409842519684
11
5.9257635039370076
21
-4.5966819291338581
0
LINE
8
BLACK
6
CONTINUOUS
10
5.9257635039370076
20
-4.5966819291338581
11
5.9321808661417323
21
-4.5940237795275589
0
LINE
8
BLACK
6
CONTINUOUS
10
5.9321808661417323
20
-4.5940237795275589
11
5.9389935039370076
21
-4.5926686614173224
0
LINE
8
BLACK
6
CONTINUOUS
10
5.9389935039370076
20
-4.5926686614173224
11
5.9459395669291339
21
-4.5926686614173224
0
LINE
8
BLACK
6
CONTINUOUS
10
5.9459395669291339
20
-4.5926686614173224
11
5.9527522047244092
21
-4.5940237795275589
0
LINE
8
BLACK
6
CONTINUOUS
10
6.0527522047244089
20
-4.5940237795275589
11
6.0591695669291337
21
-4.5966819291338581
0
LINE
8
BLACK
6
CONTINUOUS
10
6.0591695669291337
20
-4.5966819291338581
11
6.0649450393700786
21
-4.6005409842519684
0
LINE
8
BLACK
6
CONTINUOUS
10
6.0649450393700786
20
-4.6005409842519684
11
6.0698566535433072
21
-4.6054525984251971
0
LINE
8
BLACK
6
CONTINUOUS
10
6.0698566535433072
20
-4.6054525984251971
11
6.0737157086614175
21
-4.6112280708661419
0
LINE
8
BLACK
6
CONTINUOUS
10
6.0737157086614175
20
-4.6112280708661419
11
6.0763738582677167
21
-4.6176454330708658
0
LINE
8
BLACK
6
CONTINUOUS
10
6.0763738582677167
20
-4.6176454330708658
11
6.0777289763779523
21
-4.624458070866142
0
LINE
8
BLACK
6
CONTINUOUS
10
6.0777289763779523
20
-4.624458070866142
11
6.0777289763779523
21
-4.6314041338582674
0
LINE
8
BLACK
6
CONTINUOUS
10
6.0777289763779523
20
-4.6314041338582674
11
6.0763738582677167
21
-4.6382167716535436
0
LINE
8
BLACK
6
CONTINUOUS
10
6.0763738582677167
20
-4.6382167716535436
11
6.0737157086614175
21
-4.6446341338582675
0
LINE
8
BLACK
6
CONTINUOUS
10
6.0737157086614175
20
-4.6446341338582675
11
6.0698566535433072
21
-4.6504096062992124
0
LINE
8
BLACK
6
CONTINUOUS
10
6.0698566535433072
20
-4.6504096062992124
11
6.0649450393700786
21
-4.655321220472441
0
LINE
8
BLACK
6
CONTINUOUS
10
6.0649450393700786
20
-4.655321220472441
11
6.0591695669291337
21
-4.6591802755905514
0
LINE
8
BLACK
6
CONTINUOUS
10
6.0591695669291337
20
-4.6591802755905514
11
6.0527522047244089
21
-4.6618384251968505
0
LINE
8
BLACK
6
CONTINUOUS
10
6.0527522047244089
20
-4.6618384251968505
11
6.0459395669291336
21
-4.6631935433070861
0
LINE
8
BLACK
6
CONTINUOUS
10
6.0459395669291336
20
-4.6631935433070861
11
6.0389935039370082
21
-4.6631935433070861
0
LINE
8
BLACK
6
CONTINUOUS
10
6.0389935039370082
20
-4.6631935433070861
11
6.032180866141732
21
-4.6618384251968505
0
LINE
8
BLACK
6
CONTINUOUS
10
6.032180866141732
20
-4.6618384251968505
11
6.0257635039370081
21
-4.6591802755905514
0
LINE
8
BLACK
6
CONTINUOUS
10
6.0257635039370081
20
-4.6591802755905514
11
6.0199880314960632
21
-4.655321220472441
0
LINE
8
BLACK
6
CONTINUOUS
10
6.0199880314960632
20
-4.655321220472441
11
6.0150764173228346
21
-4.6504096062992124
0
LINE
8
BLACK
6
CONTINUOUS
10
6.0150764173228346
20
-4.6504096062992124
11
6.0112173622047242
21
-4.6446341338582675
0
LINE
8
BLACK
6
CONTINUOUS
10
6.0112173622047242
20
-4.6446341338582675
11
6.0085592125984251
21
-4.6382167716535436
0
LINE
8
BLACK
6
CONTINUOUS
10
6.0085592125984251
20
-4.6382167716535436
11
6.0072040944881886
21
-4.6314041338582674
0
LINE
8
BLACK
6
CONTINUOUS
10
6.0072040944881886
20
-4.6314041338582674
11
6.0072040944881886
21
-4.624458070866142
0
LINE
8
BLACK
6
CONTINUOUS
10
6.0072040944881886
20
-4.624458070866142
11
6.0085592125984251
21
-4.6176454330708658
0
LINE
8
BLACK
6
CONTINUOUS
10
6.0085592125984251
20
-4.6176454330708658
11
6.0112173622047242
21
-4.6112280708661419
0
LINE
8
BLACK
6
CONTINUOUS
10
6.0112173622047242
20
-4.6112280708661419
11
6.0150764173228346
21
-4.6054525984251971
0
LINE
8
BLACK
6
CONTINUOUS
10
6.0150764173228346
20
-4.6054525984251971
11
6.0199880314960632
21
-4.6005409842519684
0
LINE
8
BLACK
6
CONTINUOUS
10
6.0199880314960632
20
-4.6005409842519684
11
6.0257635039370081
21
-4.5966819291338581
0
LINE
8
BLACK
6
CONTINUOUS
10
6.0257635039370081
20
-4.5966819291338581
11
6.032180866141732
21
-4.5940237795275589
0
LINE
8
BLACK
6
CONTINUOUS
10
6.032180866141732
20
-4.5940237795275589
11
6.0389935039370082
21
-4.5926686614173224
0
LINE
8
BLACK
6
CONTINUOUS
10
6.0389935039370082
20
-4.5926686614173224
11
6.0459395669291336
21
-4.5926686614173224
0
LINE
8
BLACK
6
CONTINUOUS
10
6.0459395669291336
20
-4.5926686614173224
11
6.0527522047244089
21
-4.5940237795275589
0
LINE
8
BLACK
6
CONTINUOUS
10
6.1527522047244094
20
-4.5940237795275589
11
6.1591695669291333
21
-4.5966819291338581
0
LINE
8
BLACK
6
CONTINUOUS
10
6.1591695669291333
20
-4.5966819291338581
11
6.1649450393700782
21
-4.6005409842519684
0
LINE
8
BLACK
6
CONTINUOUS
10
6.1649450393700782
20
-4.6005409842519684
11
6.1698566535433068
21
-4.6054525984251971
0
LINE
8
BLACK
6
CONTINUOUS
10
6.1698566535433068
20
-4.6054525984251971
11
6.1737157086614172
21
-4.6112280708661419
0
LINE
8
BLACK
6
CONTINUOUS
10
6.1737157086614172
20
-4.6112280708661419
11
6.1763738582677163
21
-4.6176454330708658
0
LINE
8
BLACK
6
CONTINUOUS
10
6.1763738582677163
20
-4.6176454330708658
11
6.1777289763779528
21
-4.624458070866142
0
LINE
8
BLACK
6
CONTINUOUS
10
6.1777289763779528
20
-4.624458070866142
11
6.1777289763779528
21
-4.6314041338582674
0
LINE
8
BLACK
6
CONTINUOUS
10
6.1777289763779528
20
-4.6314041338582674
11
6.1763738582677163
21
-4.6382167716535436
0
LINE
8
BLACK
6
CONTINUOUS
10
6.1763738582677163
20
-4.6382167716535436
11
6.1737157086614172
21
-4.6446341338582675
0
LINE
8
BLACK
6
CONTINUOUS
10
6.1737157086614172
20
-4.6446341338582675
11
6.1698566535433068
21
-4.6504096062992124
0
LINE
8
BLACK
6
CONTINUOUS
10
6.1698566535433068
20
-4.6504096062992124
11
6.1649450393700782
21
-4.655321220472441
0
LINE
8
BLACK
6
CONTINUOUS
10
6.1649450393700782
20
-4.655321220472441
11
6.1591695669291333
21
-4.6591802755905514
0
LINE
8
BLACK
6
CONTINUOUS
10
6.1591695669291333
20
-4.6591802755905514
11
6.1527522047244094
21
-4.6618384251968505
0
LINE
8
BLACK
6
CONTINUOUS
10
6.1527522047244094
20
-4.6618384251968505
11
6.1459395669291341
21
-4.6631935433070861
0
LINE
8
BLACK
6
CONTINUOUS
10
6.1459395669291341
20
-4.6631935433070861
11
6.1389935039370078
21
-4.6631935433070861
0
LINE
8
BLACK
6
CONTINUOUS
10
6.1389935039370078
20
-4.6631935433070861
11
6.1321808661417325
21
-4.6618384251968505
0
LINE
8
BLACK
6
CONTINUOUS
10
6.1321808661417325
20
-4.6618384251968505
11
6.1257635039370077
21
-4.6591802755905514
0
LINE
8
BLACK
6
CONTINUOUS
10
6.1257635039370077
20
-4.6591802755905514
11
6.1199880314960629
21
-4.655321220472441
0
LINE
8
BLACK
6
CONTINUOUS
10
6.1199880314960629
20
-4.655321220472441
11
6.1150764173228342
21
-4.6504096062992124
0
LINE
8
BLACK
6
CONTINUOUS
10
6.1150764173228342
20
-4.6504096062992124
11
6.1112173622047239
21
-4.6446341338582675
0
LINE
8
BLACK
6
CONTINUOUS
10
6.1112173622047239
20
-4.6446341338582675
11
6.1085592125984247
21
-4.6382167716535436
0
LINE
8
BLACK
6
CONTINUOUS
10
6.1085592125984247
20
-4.6382167716535436
11
6.1072040944881891
21
-4.6314041338582674
0
LINE
8
BLACK
6
CONTINUOUS
10
6.1072040944881891
20
-4.6314041338582674
11
6.1072040944881891
21
-4.624458070866142
0
LINE
8
BLACK
6
CONTINUOUS
10
6.1072040944881891
20
-4.624458070866142
11
6.1085592125984247
21
-4.6176454330708658
0
LINE
8
BLACK
6
CONTINUOUS
10
6.1085592125984247
20
-4.6176454330708658
11
6.1112173622047239
21
-4.6112280708661419
0
LINE
8
BLACK
6
CONTINUOUS
10
6.1112173622047239
20
-4.6112280708661419
11
6.1150764173228342
21
-4.6054525984251971
0
LINE
8
BLACK
6
CONTINUOUS
10
6.1150764173228342
20
-4.6054525984251971
11
6.1199880314960629
21
-4.6005409842519684
0
LINE
8
BLACK
6
CONTINUOUS
10
6.1199880314960629
20
-4.6005409842519684
11
6.1257635039370077
21
-4.5966819291338581
0
LINE
8
BLACK
6
CONTINUOUS
10
6.1257635039370077
20
-4.5966819291338581
11
6.1321808661417325
21
-4.5940237795275589
0
LINE
8
BLACK
6
CONTINUOUS
10
6.1321808661417325
20
-4.5940237795275589
11
6.1389935039370078
21
-4.5926686614173224
0
LINE
8
BLACK
6
CONTINUOUS
10
6.1389935039370078
20
-4.5926686614173224
11
6.1459395669291341
21
-4.5926686614173224
0
LINE
8
BLACK
6
CONTINUOUS
10
6.1459395669291341
20
-4.5926686614173224
11
6.1527522047244094
21
-4.5940237795275589
0
LINE
8
BLACK
6
CONTINUOUS
10
6.2527522047244091
20
-4.5940237795275589
11
6.2591695669291338
21
-4.5966819291338581
0
LINE
8
BLACK
6
CONTINUOUS
10
6.2591695669291338
20
-4.5966819291338581
11
6.2649450393700787
21
-4.6005409842519684
0
LINE
8
BLACK
6
CONTINUOUS
10
6.2649450393700787
20
-4.6005409842519684
11
6.2698566535433073
21
-4.6054525984251971
0
LINE
8
BLACK
6
CONTINUOUS
10
6.2698566535433073
20
-4.6054525984251971
11
6.2737157086614168
21
-4.6112280708661419
0
LINE
8
BLACK
6
CONTINUOUS
10
6.2737157086614168
20
-4.6112280708661419
11
6.276373858267716
21
-4.6176454330708658
0
LINE
8
BLACK
6
CONTINUOUS
10
6.276373858267716
20
-4.6176454330708658
11
6.2777289763779525
21
-4.624458070866142
0
LINE
8
BLACK
6
CONTINUOUS
10
6.2777289763779525
20
-4.624458070866142
11
6.2777289763779525
21
-4.6314041338582674
0
LINE
8
BLACK
6
CONTINUOUS
10
6.2777289763779525
20
-4.6314041338582674
11
6.276373858267716
21
-4.6382167716535436
0
LINE
8
BLACK
6
CONTINUOUS
10
6.276373858267716
20
-4.6382167716535436
11
6.2737157086614168
21
-4.6446341338582675
0
LINE
8
BLACK
6
CONTINUOUS
10
6.2737157086614168
20
-4.6446341338582675
11
6.2698566535433073
21
-4.6504096062992124
0
LINE
8
BLACK
6
CONTINUOUS
10
6.2698566535433073
20
-4.6504096062992124
11
6.2649450393700787
21
-4.655321220472441
0
LINE
8
BLACK
6
CONTINUOUS
10
6.2649450393700787
20
-4.655321220472441
11
6.2591695669291338
21
-4.6591802755905514
0
LINE
8
BLACK
6
CONTINUOUS
10
6.2591695669291338
20
-4.6591802755905514
11
6.2527522047244091
21
-4.6618384251968505
0
LINE
8
BLACK
6
CONTINUOUS
10
6.2527522047244091
20
-4.6618384251968505
11
6.2459395669291338
21
-4.6631935433070861
0
LINE
8
BLACK
6
CONTINUOUS
10
6.2459395669291338
20
-4.6631935433070861
11
6.2389935039370075
21
-4.6631935433070861
0
LINE
8
BLACK
6
CONTINUOUS
10
6.2389935039370075
20
-4.6631935433070861
11
6.2321808661417322
21
-4.6618384251968505
0
LINE
8
BLACK
6
CONTINUOUS
10
6.2321808661417322
20
-4.6618384251968505
11
6.2257635039370074
21
-4.6591802755905514
0
LINE
8
BLACK
6
CONTINUOUS
10
6.2257635039370074
20
-4.6591802755905514
11
6.2199880314960625
21
-4.655321220472441
0
LINE
8
BLACK
6
CONTINUOUS
10
6.2199880314960625
20
-4.655321220472441
11
6.2150764173228348
21
-4.6504096062992124
0
LINE
8
BLACK
6
CONTINUOUS
10
6.2150764173228348
20
-4.6504096062992124
11
6.2112173622047244
21
-4.6446341338582675
0
LINE
8
BLACK
6
CONTINUOUS
10
6.2112173622047244
20
-4.6446341338582675
11
6.2085592125984252
21
-4.6382167716535436
0
LINE
8
BLACK
6
CONTINUOUS
10
6.2085592125984252
20
-4.6382167716535436
11
6.2072040944881888
21
-4.6314041338582674
0
LINE
8
BLACK
6
CONTINUOUS
10
6.2072040944881888
20
-4.6314041338582674
11
6.2072040944881888
21
-4.624458070866142
0
LINE
8
BLACK
6
CONTINUOUS
10
6.2072040944881888
20
-4.624458070866142
11
6.2085592125984252
21
-4.6176454330708658
0
LINE
8
BLACK
6
CONTINUOUS
10
6.2085592125984252
20
-4.6176454330708658
11
6.2112173622047244
21
-4.6112280708661419
0
LINE
8
BLACK
6
CONTINUOUS
10
6.2112173622047244
20
-4.6112280708661419
11
6.2150764173228348
21
-4.6054525984251971
0
LINE
8
BLACK
6
CONTINUOUS
10
6.2150764173228348
20
-4.6054525984251971
11
6.2199880314960625
21
-4.6005409842519684
0
LINE
8
BLACK
6
CONTINUOUS
10
6.2199880314960625
20
-4.6005409842519684
11
6.2257635039370074
21
-4.5966819291338581
0
LINE
8
BLACK
6
CONTINUOUS
10
6.2257635039370074
20
-4.5966819291338581
11
6.2321808661417322
21
-4.5940237795275589
0
LINE
8
BLACK
6
CONTINUOUS
10
6.2321808661417322
20
-4.5940237795275589
11
6.2389935039370075
21
-4.5926686614173224
0
LINE
8
BLACK
6
CONTINUOUS
10
6.2389935039370075
20
-4.5926686614173224
11
6.2459395669291338
21
-4.5926686614173224
0
LINE
8
BLACK
6
CONTINUOUS
10
6.2459395669291338
20
-4.5926686614173224
11
6.2527522047244091
21
-4.5940237795275589
0
LINE
8
BLACK
6
CONTINUOUS
10
6.3527522047244096
20
-4.5940237795275589
11
6.3591695669291335
21
-4.5966819291338581
0
LINE
8
BLACK
6
CONTINUOUS
10
6.3591695669291335
20
-4.5966819291338581
11
6.3649450393700784
21
-4.6005409842519684
0
LINE
8
BLACK
6
CONTINUOUS
10
6.3649450393700784
20
-4.6005409842519684
11
6.369856653543307
21
-4.6054525984251971
0
LINE
8
BLACK
6
CONTINUOUS
10
6.369856653543307
20
-4.6054525984251971
11
6.3737157086614173
21
-4.6112280708661419
0
LINE
8
BLACK
6
CONTINUOUS
10
6.3737157086614173
20
-4.6112280708661419
11
6.3763738582677165
21
-4.6176454330708658
0
LINE
8
BLACK
6
CONTINUOUS
10
6.3763738582677165
20
-4.6176454330708658
11
6.377728976377953
21
-4.624458070866142
0
LINE
8
BLACK
6
CONTINUOUS
10
6.377728976377953
20
-4.624458070866142
11
6.377728976377953
21
-4.6314041338582674
0
LINE
8
BLACK
6
CONTINUOUS
10
6.377728976377953
20
-4.6314041338582674
11
6.3763738582677165
21
-4.6382167716535436
0
LINE
8
BLACK
6
CONTINUOUS
10
6.3763738582677165
20
-4.6382167716535436
11
6.3737157086614173
21
-4.6446341338582675
0
LINE
8
BLACK
6
CONTINUOUS
10
6.3737157086614173
20
-4.6446341338582675
11
6.369856653543307
21
-4.6504096062992124
0
LINE
8
BLACK
6
CONTINUOUS
10
6.369856653543307
20
-4.6504096062992124
11
6.3649450393700784
21
-4.655321220472441
0
LINE
8
BLACK
6
CONTINUOUS
10
6.3649450393700784
20
-4.655321220472441
11
6.3591695669291335
21
-4.6591802755905514
0
LINE
8
BLACK
6
CONTINUOUS
10
6.3591695669291335
20
-4.6591802755905514
11
6.3527522047244096
21
-4.6618384251968505
0
LINE
8
BLACK
6
CONTINUOUS
10
6.3527522047244096
20
-4.6618384251968505
11
6.3459395669291334
21
-4.6631935433070861
0
LINE
8
BLACK
6
CONTINUOUS
10
6.3459395669291334
20
-4.6631935433070861
11
6.338993503937008
21
-4.6631935433070861
0
LINE
8
BLACK
6
CONTINUOUS
10
6.338993503937008
20
-4.6631935433070861
11
6.3321808661417318
21
-4.6618384251968505
0
LINE
8
BLACK
6
CONTINUOUS
10
6.3321808661417318
20
-4.6618384251968505
11
6.3257635039370079
21
-4.6591802755905514
0
LINE
8
BLACK
6
CONTINUOUS
10
6.3257635039370079
20
-4.6591802755905514
11
6.319988031496063
21
-4.655321220472441
0
LINE
8
BLACK
6
CONTINUOUS
10
6.319988031496063
20
-4.655321220472441
11
6.3150764173228344
21
-4.6504096062992124
0
LINE
8
BLACK
6
CONTINUOUS
10
6.3150764173228344
20
-4.6504096062992124
11
6.3112173622047241
21
-4.6446341338582675
0
LINE
8
BLACK
6
CONTINUOUS
10
6.3112173622047241
20
-4.6446341338582675
11
6.3085592125984249
21
-4.6382167716535436
0
LINE
8
BLACK
6
CONTINUOUS
10
6.3085592125984249
20
-4.6382167716535436
11
6.3072040944881884
21
-4.6314041338582674
0
LINE
8
BLACK
6
CONTINUOUS
10
6.3072040944881884
20
-4.6314041338582674
11
6.3072040944881884
21
-4.624458070866142
0
LINE
8
BLACK
6
CONTINUOUS
10
6.3072040944881884
20
-4.624458070866142
11
6.3085592125984249
21
-4.6176454330708658
0
LINE
8
BLACK
6
CONTINUOUS
10
6.3085592125984249
20
-4.6176454330708658
11
6.3112173622047241
21
-4.6112280708661419
0
LINE
8
BLACK
6
CONTINUOUS
10
6.3112173622047241
20
-4.6112280708661419
11
6.3150764173228344
21
-4.6054525984251971
0
LINE
8
BLACK
6
CONTINUOUS
10
6.3150764173228344
20
-4.6054525984251971
11
6.319988031496063
21
-4.6005409842519684
0
LINE
8
BLACK
6
CONTINUOUS
10
6.319988031496063
20
-4.6005409842519684
11
6.3257635039370079
21
-4.5966819291338581
0
LINE
8
BLACK
6
CONTINUOUS
10
6.3257635039370079
20
-4.5966819291338581
11
6.3321808661417318
21
-4.5940237795275589
0
LINE
8
BLACK
6
CONTINUOUS
10
6.3321808661417318
20
-4.5940237795275589
11
6.338993503937008
21
-4.5926686614173224
0
LINE
8
BLACK
6
CONTINUOUS
10
6.338993503937008
20
-4.5926686614173224
11
6.3459395669291334
21
-4.5926686614173224
0
LINE
8
BLACK
6
CONTINUOUS
10
6.3459395669291334
20
-4.5926686614173224
11
6.3527522047244096
21
-4.5940237795275589
0
LINE
8
BLACK
6
CONTINUOUS
10
6.4527522047244092
20
-4.5940237795275589
11
6.459169566929134
21
-4.5966819291338581
0
LINE
8
BLACK
6
CONTINUOUS
10
6.459169566929134
20
-4.5966819291338581
11
6.4649450393700789
21
-4.6005409842519684
0
LINE
8
BLACK
6
CONTINUOUS
10
6.4649450393700789
20
-4.6005409842519684
11
6.4698566535433066
21
-4.6054525984251971
0
LINE
8
BLACK
6
CONTINUOUS
10
6.4698566535433066
20
-4.6054525984251971
11
6.473715708661417
21
-4.6112280708661419
0
LINE
8
BLACK
6
CONTINUOUS
10
6.473715708661417
20
-4.6112280708661419
11
6.4763738582677162
21
-4.6176454330708658
0
LINE
8
BLACK
6
CONTINUOUS
10
6.4763738582677162
20
-4.6176454330708658
11
6.4777289763779526
21
-4.624458070866142
0
LINE
8
BLACK
6
CONTINUOUS
10
6.4777289763779526
20
-4.624458070866142
11
6.4777289763779526
21
-4.6314041338582674
0
LINE
8
BLACK
6
CONTINUOUS
10
6.4777289763779526
20
-4.6314041338582674
11
6.4763738582677162
21
-4.6382167716535436
0
LINE
8
BLACK
6
CONTINUOUS
10
6.4763738582677162
20
-4.6382167716535436
11
6.473715708661417
21
-4.6446341338582675
0
LINE
8
BLACK
6
CONTINUOUS
10
6.473715708661417
20
-4.6446341338582675
11
6.4698566535433066
21
-4.6504096062992124
0
LINE
8
BLACK
6
CONTINUOUS
10
6.4698566535433066
20
-4.6504096062992124
11
6.4649450393700789
21
-4.655321220472441
0
LINE
8
BLACK
6
CONTINUOUS
10
6.4649450393700789
20
-4.655321220472441
11
6.459169566929134
21
-4.6591802755905514
0
LINE
8
BLACK
6
CONTINUOUS
10
6.459169566929134
20
-4.6591802755905514
11
6.4527522047244092
21
-4.6618384251968505
0
LINE
8
BLACK
6
CONTINUOUS
10
6.4527522047244092
20
-4.6618384251968505
11
6.4459395669291339
21
-4.6631935433070861
0
LINE
8
BLACK
6
CONTINUOUS
10
6.4459395669291339
20
-4.6631935433070861
11
6.4389935039370076
21
-4.6631935433070861
0
LINE
8
BLACK
6
CONTINUOUS
10
6.4389935039370076
20
-4.6631935433070861
11
6.4321808661417323
21
-4.6618384251968505
0
LINE
8
BLACK
6
CONTINUOUS
10
6.4321808661417323
20
-4.6618384251968505
11
6.4257635039370076
21
-4.6591802755905514
0
LINE
8
BLACK
6
CONTINUOUS
10
6.4257635039370076
20
-4.6591802755905514
11
6.4199880314960627
21
-4.655321220472441
0
LINE
8
BLACK
6
CONTINUOUS
10
6.4199880314960627
20
-4.655321220472441
11
6.4150764173228341
21
-4.6504096062992124
0
LINE
8
BLACK
6
CONTINUOUS
10
6.4150764173228341
20
-4.6504096062992124
11
6.4112173622047246
21
-4.6446341338582675
0
LINE
8
BLACK
6
CONTINUOUS
10
6.4112173622047246
20
-4.6446341338582675
11
6.4085592125984254
21
-4.6382167716535436
0
LINE
8
BLACK
6
CONTINUOUS
10
6.4085592125984254
20
-4.6382167716535436
11
6.407204094488189
21
-4.6314041338582674
0
LINE
8
BLACK
6
CONTINUOUS
10
6.407204094488189
20
-4.6314041338582674
11
6.407204094488189
21
-4.624458070866142
0
LINE
8
BLACK
6
CONTINUOUS
10
6.407204094488189
20
-4.624458070866142
11
6.4085592125984254
21
-4.6176454330708658
0
LINE
8
BLACK
6
CONTINUOUS
10
6.4085592125984254
20
-4.6176454330708658
11
6.4112173622047246
21
-4.6112280708661419
0
LINE
8
BLACK
6
CONTINUOUS
10
6.4112173622047246
20
-4.6112280708661419
11
6.4150764173228341
21
-4.6054525984251971
0
LINE
8
BLACK
6
CONTINUOUS
10
6.4150764173228341
20
-4.6054525984251971
11
6.4199880314960627
21
-4.6005409842519684
0
LINE
8
BLACK
6
CONTINUOUS
10
6.4199880314960627
20
-4.6005409842519684
11
6.4257635039370076
21
-4.5966819291338581
0
LINE
8
BLACK
6
CONTINUOUS
10
6.4257635039370076
20
-4.5966819291338581
11
6.4321808661417323
21
-4.5940237795275589
0
LINE
8
BLACK
6
CONTINUOUS
10
6.4321808661417323
20
-4.5940237795275589
11
6.4389935039370076
21
-4.5926686614173224
0
LINE
8
BLACK
6
CONTINUOUS
10
6.4389935039370076
20
-4.5926686614173224
11
6.4459395669291339
21
-4.5926686614173224
0
LINE
8
BLACK
6
CONTINUOUS
10
6.4459395669291339
20
-4.5926686614173224
11
6.4527522047244092
21
-4.5940237795275589
0
LINE
8
BLACK
6
CONTINUOUS
10
6.5527522047244089
20
-4.5940237795275589
11
6.5591695669291337
21
-4.5966819291338581
0
LINE
8
BLACK
6
CONTINUOUS
10
6.5591695669291337
20
-4.5966819291338581
11
6.5649450393700786
21
-4.6005409842519684
0
LINE
8
BLACK
6
CONTINUOUS
10
6.5649450393700786
20
-4.6005409842519684
11
6.5698566535433072
21
-4.6054525984251971
0
LINE
8
BLACK
6
CONTINUOUS
10
6.5698566535433072
20
-4.6054525984251971
11
6.5737157086614175
21
-4.6112280708661419
0
LINE
8
BLACK
6
CONTINUOUS
10
6.5737157086614175
20
-4.6112280708661419
11
6.5763738582677167
21
-4.6176454330708658
0
LINE
8
BLACK
6
CONTINUOUS
10
6.5763738582677167
20
-4.6176454330708658
11
6.5777289763779523
21
-4.624458070866142
0
LINE
8
BLACK
6
CONTINUOUS
10
6.5777289763779523
20
-4.624458070866142
11
6.5777289763779523
21
-4.6314041338582674
0
LINE
8
BLACK
6
CONTINUOUS
10
6.5777289763779523
20
-4.6314041338582674
11
6.5763738582677167
21
-4.6382167716535436
0
LINE
8
BLACK
6
CONTINUOUS
10
6.5763738582677167
20
-4.6382167716535436
11
6.5737157086614175
21
-4.6446341338582675
0
LINE
8
BLACK
6
CONTINUOUS
10
6.5737157086614175
20
-4.6446341338582675
11
6.5698566535433072
21
-4.6504096062992124
0
LINE
8
BLACK
6
CONTINUOUS
10
6.5698566535433072
20
-4.6504096062992124
11
6.5649450393700786
21
-4.655321220472441
0
LINE
8
BLACK
6
CONTINUOUS
10
6.5649450393700786
20
-4.655321220472441
11
6.5591695669291337
21
-4.6591802755905514
0
LINE
8
BLACK
6
CONTINUOUS
10
6.5591695669291337
20
-4.6591802755905514
11
6.5527522047244089
21
-4.6618384251968505
0
LINE
8
BLACK
6
CONTINUOUS
10
6.5527522047244089
20
-4.6618384251968505
11
6.5459395669291336
21
-4.6631935433070861
0
LINE
8
BLACK
6
CONTINUOUS
10
6.5459395669291336
20
-4.6631935433070861
11
6.5389935039370073
21
-4.6631935433070861
0
LINE
8
BLACK
6
CONTINUOUS
10
6.5389935039370073
20
-4.6631935433070861
11
6.532180866141732
21
-4.6618384251968505
0
LINE
8
BLACK
6
CONTINUOUS
10
6.532180866141732
20
-4.6618384251968505
11
6.5257635039370081
21
-4.6591802755905514
0
LINE
8
BLACK
6
CONTINUOUS
10
6.5257635039370081
20
-4.6591802755905514
11
6.5199880314960632
21
-4.655321220472441
0
LINE
8
BLACK
6
CONTINUOUS
10
6.5199880314960632
20
-4.655321220472441
11
6.5150764173228346
21
-4.6504096062992124
0
LINE
8
BLACK
6
CONTINUOUS
10
6.5150764173228346
20
-4.6504096062992124
11
6.5112173622047242
21
-4.6446341338582675
0
LINE
8
BLACK
6
CONTINUOUS
10
6.5112173622047242
20
-4.6446341338582675
11
6.5085592125984251
21
-4.6382167716535436
0
LINE
8
BLACK
6
CONTINUOUS
10
6.5085592125984251
20
-4.6382167716535436
11
6.5072040944881886
21
-4.6314041338582674
0
LINE
8
BLACK
6
CONTINUOUS
10
6.5072040944881886
20
-4.6314041338582674
11
6.5072040944881886
21
-4.624458070866142
0
LINE
8
BLACK
6
CONTINUOUS
10
6.5072040944881886
20
-4.624458070866142
11
6.5085592125984251
21
-4.6176454330708658
0
LINE
8
BLACK
6
CONTINUOUS
10
6.5085592125984251
20
-4.6176454330708658
11
6.5112173622047242
21
-4.6112280708661419
0
LINE
8
BLACK
6
CONTINUOUS
10
6.5112173622047242
20
-4.6112280708661419
11
6.5150764173228346
21
-4.6054525984251971
0
LINE
8
BLACK
6
CONTINUOUS
10
6.5150764173228346
20
-4.6054525984251971
11
6.5199880314960632
21
-4.6005409842519684
0
LINE
8
BLACK
6
CONTINUOUS
10
6.5199880314960632
20
-4.6005409842519684
11
6.5257635039370081
21
-4.5966819291338581
0
LINE
8
BLACK
6
CONTINUOUS
10
6.5257635039370081
20
-4.5966819291338581
11
6.532180866141732
21
-4.5940237795275589
0
LINE
8
BLACK
6
CONTINUOUS
10
6.532180866141732
20
-4.5940237795275589
11
6.5389935039370073
21
-4.5926686614173224
0
LINE
8
BLACK
6
CONTINUOUS
10
6.5389935039370073
20
-4.5926686614173224
11
6.5459395669291336
21
-4.5926686614173224
0
LINE
8
BLACK
6
CONTINUOUS
10
6.5459395669291336
20
-4.5926686614173224
11
6.5527522047244089
21
-4.5940237795275589
0
LINE
8
BLACK
6
CONTINUOUS
10
6.6527522047244094
20
-4.5940237795275589
11
6.6591695669291333
21
-4.5966819291338581
0
LINE
8
BLACK
6
CONTINUOUS
10
6.6591695669291333
20
-4.5966819291338581
11
6.6649450393700782
21
-4.6005409842519684
0
LINE
8
BLACK
6
CONTINUOUS
10
6.6649450393700782
20
-4.6005409842519684
11
6.6698566535433068
21
-4.6054525984251971
0
LINE
8
BLACK
6
CONTINUOUS
10
6.6698566535433068
20
-4.6054525984251971
11
6.6737157086614172
21
-4.6112280708661419
0
LINE
8
BLACK
6
CONTINUOUS
10
6.6737157086614172
20
-4.6112280708661419
11
6.6763738582677163
21
-4.6176454330708658
0
LINE
8
BLACK
6
CONTINUOUS
10
6.6763738582677163
20
-4.6176454330708658
11
6.6777289763779528
21
-4.624458070866142
0
LINE
8
BLACK
6
CONTINUOUS
10
6.6777289763779528
20
-4.624458070866142
11
6.6777289763779528
21
-4.6314041338582674
0
LINE
8
BLACK
6
CONTINUOUS
10
6.6777289763779528
20
-4.6314041338582674
11
6.6763738582677163
21
-4.6382167716535436
0
LINE
8
BLACK
6
CONTINUOUS
10
6.6763738582677163
20
-4.6382167716535436
11
6.6737157086614172
21
-4.6446341338582675
0
LINE
8
BLACK
6
CONTINUOUS
10
6.6737157086614172
20
-4.6446341338582675
11
6.6698566535433068
21
-4.6504096062992124
0
LINE
8
BLACK
6
CONTINUOUS
10
6.6698566535433068
20
-4.6504096062992124
11
6.6649450393700782
21
-4.655321220472441
0
LINE
8
BLACK
6
CONTINUOUS
10
6.6649450393700782
20
-4.655321220472441
11
6.6591695669291333
21
-4.6591802755905514
0
LINE
8
BLACK
6
CONTINUOUS
10
6.6591695669291333
20
-4.6591802755905514
11
6.6527522047244094
21
-4.6618384251968505
0
LINE
8
BLACK
6
CONTINUOUS
10
6.6527522047244094
20
-4.6618384251968505
11
6.6459395669291341
21
-4.6631935433070861
0
LINE
8
BLACK
6
CONTINUOUS
10
6.6459395669291341
20
-4.6631935433070861
11
6.6389935039370078
21
-4.6631935433070861
0
LINE
8
BLACK
6
CONTINUOUS
10
6.6389935039370078
20
-4.6631935433070861
11
6.6321808661417325
21
-4.6618384251968505
0
LINE
8
BLACK
6
CONTINUOUS
10
6.6321808661417325
20
-4.6618384251968505
11
6.6257635039370077
21
-4.6591802755905514
0
LINE
8
BLACK
6
CONTINUOUS
10
6.6257635039370077
20
-4.6591802755905514
11
6.6199880314960629
21
-4.655321220472441
0
LINE
8
BLACK
6
CONTINUOUS
10
6.6199880314960629
20
-4.655321220472441
11
6.6150764173228342
21
-4.6504096062992124
0
LINE
8
BLACK
6
CONTINUOUS
10
6.6150764173228342
20
-4.6504096062992124
11
6.6112173622047239
21
-4.6446341338582675
0
LINE
8
BLACK
6
CONTINUOUS
10
6.6112173622047239
20
-4.6446341338582675
11
6.6085592125984247
21
-4.6382167716535436
0
LINE
8
BLACK
6
CONTINUOUS
10
6.6085592125984247
20
-4.6382167716535436
11
6.6072040944881891
21
-4.6314041338582674
0
LINE
8
BLACK
6
CONTINUOUS
10
6.6072040944881891
20
-4.6314041338582674
11
6.6072040944881891
21
-4.624458070866142
0
LINE
8
BLACK
6
CONTINUOUS
10
6.6072040944881891
20
-4.624458070866142
11
6.6085592125984247
21
-4.6176454330708658
0
LINE
8
BLACK
6
CONTINUOUS
10
6.6085592125984247
20
-4.6176454330708658
11
6.6112173622047239
21
-4.6112280708661419
0
LINE
8
BLACK
6
CONTINUOUS
10
6.6112173622047239
20
-4.6112280708661419
11
6.6150764173228342
21
-4.6054525984251971
0
LINE
8
BLACK
6
CONTINUOUS
10
6.6150764173228342
20
-4.6054525984251971
11
6.6199880314960629
21
-4.6005409842519684
0
LINE
8
BLACK
6
CONTINUOUS
10
6.6199880314960629
20
-4.6005409842519684
11
6.6257635039370077
21
-4.5966819291338581
0
LINE
8
BLACK
6
CONTINUOUS
10
6.6257635039370077
20
-4.5966819291338581
11
6.6321808661417325
21
-4.5940237795275589
0
LINE
8
BLACK
6
CONTINUOUS
10
6.6321808661417325
20
-4.5940237795275589
11
6.6389935039370078
21
-4.5926686614173224
0
LINE
8
BLACK
6
CONTINUOUS
10
6.6389935039370078
20
-4.5926686614173224
11
6.6459395669291341
21
-4.5926686614173224
0
LINE
8
BLACK
6
CONTINUOUS
10
6.6459395669291341
20
-4.5926686614173224
11
6.6527522047244094
21
-4.5940237795275589
0
LINE
8
BLACK
6
CONTINUOUS
10
6.7527522047244091
20
-4.5940237795275589
11
6.7591695669291338
21
-4.5966819291338581
0
LINE
8
BLACK
6
CONTINUOUS
10
6.7591695669291338
20
-4.5966819291338581
11
6.7649450393700787
21
-4.6005409842519684
0
LINE
8
BLACK
6
CONTINUOUS
10
6.7649450393700787
20
-4.6005409842519684
11
6.7698566535433073
21
-4.6054525984251971
0
LINE
8
BLACK
6
CONTINUOUS
10
6.7698566535433073
20
-4.6054525984251971
11
6.7737157086614168
21
-4.6112280708661419
0
LINE
8
BLACK
6
CONTINUOUS
10
6.7737157086614168
20
-4.6112280708661419
11
6.776373858267716
21
-4.6176454330708658
0
LINE
8
BLACK
6
CONTINUOUS
10
6.776373858267716
20
-4.6176454330708658
11
6.7777289763779525
21
-4.624458070866142
0
LINE
8
BLACK
6
CONTINUOUS
10
6.7777289763779525
20
-4.624458070866142
11
6.7777289763779525
21
-4.6314041338582674
0
LINE
8
BLACK
6
CONTINUOUS
10
6.7777289763779525
20
-4.6314041338582674
11
6.776373858267716
21
-4.6382167716535436
0
LINE
8
BLACK
6
CONTINUOUS
10
6.776373858267716
20
-4.6382167716535436
11
6.7737157086614168
21
-4.6446341338582675
0
LINE
8
BLACK
6
CONTINUOUS
10
6.7737157086614168
20
-4.6446341338582675
11
6.7698566535433073
21
-4.6504096062992124
0
LINE
8
BLACK
6
CONTINUOUS
10
6.7698566535433073
20
-4.6504096062992124
11
6.7649450393700787
21
-4.655321220472441
0
LINE
8
BLACK
6
CONTINUOUS
10
6.7649450393700787
20
-4.655321220472441
11
6.7591695669291338
21
-4.6591802755905514
0
LINE
8
BLACK
6
CONTINUOUS
10
6.7591695669291338
20
-4.6591802755905514
11
6.7527522047244091
21
-4.6618384251968505
0
LINE
8
BLACK
6
CONTINUOUS
10
6.7527522047244091
20
-4.6618384251968505
11
6.7459395669291338
21
-4.6631935433070861
0
LINE
8
BLACK
6
CONTINUOUS
10
6.7459395669291338
20
-4.6631935433070861
11
6.7389935039370075
21
-4.6631935433070861
0
LINE
8
BLACK
6
CONTINUOUS
10
6.7389935039370075
20
-4.6631935433070861
11
6.7321808661417322
21
-4.6618384251968505
0
LINE
8
BLACK
6
CONTINUOUS
10
6.7321808661417322
20
-4.6618384251968505
11
6.7257635039370074
21
-4.6591802755905514
0
LINE
8
BLACK
6
CONTINUOUS
10
6.7257635039370074
20
-4.6591802755905514
11
6.7199880314960625
21
-4.655321220472441
0
LINE
8
BLACK
6
CONTINUOUS
10
6.7199880314960625
20
-4.655321220472441
11
6.7150764173228348
21
-4.6504096062992124
0
LINE
8
BLACK
6
CONTINUOUS
10
6.7150764173228348
20
-4.6504096062992124
11
6.7112173622047244
21
-4.6446341338582675
0
LINE
8
BLACK
6
CONTINUOUS
10
6.7112173622047244
20
-4.6446341338582675
11
6.7085592125984252
21
-4.6382167716535436
0
LINE
8
BLACK
6
CONTINUOUS
10
6.7085592125984252
20
-4.6382167716535436
11
6.7072040944881888
21
-4.6314041338582674
0
LINE
8
BLACK
6
CONTINUOUS
10
6.7072040944881888
20
-4.6314041338582674
11
6.7072040944881888
21
-4.624458070866142
0
LINE
8
BLACK
6
CONTINUOUS
10
6.7072040944881888
20
-4.624458070866142
11
6.7085592125984252
21
-4.6176454330708658
0
LINE
8
BLACK
6
CONTINUOUS
10
6.7085592125984252
20
-4.6176454330708658
11
6.7112173622047244
21
-4.6112280708661419
0
LINE
8
BLACK
6
CONTINUOUS
10
6.7112173622047244
20
-4.6112280708661419
11
6.7150764173228348
21
-4.6054525984251971
0
LINE
8
BLACK
6
CONTINUOUS
10
6.7150764173228348
20
-4.6054525984251971
11
6.7199880314960625
21
-4.6005409842519684
0
LINE
8
BLACK
6
CONTINUOUS
10
6.7199880314960625
20
-4.6005409842519684
11
6.7257635039370074
21
-4.5966819291338581
0
LINE
8
BLACK
6
CONTINUOUS
10
6.7257635039370074
20
-4.5966819291338581
11
6.7321808661417322
21
-4.5940237795275589
0
LINE
8
BLACK
6
CONTINUOUS
10
6.7321808661417322
20
-4.5940237795275589
11
6.7389935039370075
21
-4.5926686614173224
0
LINE
8
BLACK
6
CONTINUOUS
10
6.7389935039370075
20
-4.5926686614173224
11
6.7459395669291338
21
-4.5926686614173224
0
LINE
8
BLACK
6
CONTINUOUS
10
6.7459395669291338
20
-4.5926686614173224
11
6.7527522047244091
21
-4.5940237795275589
0
LINE
8
BLACK
6
CONTINUOUS
10
4.8858872834645668
20
-4.38800094488189
11
4.8884417716535431
21
-4.3897078346456695
0
LINE
8
BLACK
6
CONTINUOUS
10
4.8884417716535431
20
-4.3897078346456695
11
4.8901486614173226
21
-4.3922623228346458
0
LINE
8
BLACK
6
CONTINUOUS
10
4.8901486614173226
20
-4.3922623228346458
11
4.890748031496063
21
-4.3952755905511811
0
LINE
8
BLACK
6
CONTINUOUS
10
4.890748031496063
20
-4.3952755905511811
11
4.890748031496063
21
-4.4503937007874015
0
LINE
8
BLACK
6
CONTINUOUS
10
4.890748031496063
20
-4.4503937007874015
11
4.8901486614173226
21
-4.4534069685039368
0
LINE
8
BLACK
6
CONTINUOUS
10
4.8901486614173226
20
-4.4534069685039368
11
4.8884417716535431
21
-4.4559614566929131
0
LINE
8
BLACK
6
CONTINUOUS
10
4.8884417716535431
20
-4.4559614566929131
11
4.8858872834645668
21
-4.4576683464566926
0
LINE
8
BLACK
6
CONTINUOUS
10
4.8858872834645668
20
-4.4576683464566926
11
4.8828740157480315
21
-4.458267716535433
0
LINE
8
BLACK
6
CONTINUOUS
10
4.8828740157480315
20
-4.458267716535433
11
4.8710629921259843
21
-4.458267716535433
0
LINE
8
BLACK
6
CONTINUOUS
10
4.8710629921259843
20
-4.458267716535433
11
4.8680497244094489
21
-4.4576683464566926
0
LINE
8
BLACK
6
CONTINUOUS
10
4.8680497244094489
20
-4.4576683464566926
11
4.8654952362204726
21
-4.4559614566929131
0
LINE
8
BLACK
6
CONTINUOUS
10
4.8654952362204726
20
-4.4559614566929131
11
4.8637883464566931
21
-4.4534069685039368
0
LINE
8
BLACK
6
CONTINUOUS
10
4.8637883464566931
20
-4.4534069685039368
11
4.8631889763779528
21
-4.4503937007874015
0
LINE
8
BLACK
6
CONTINUOUS
10
4.8631889763779528
20
-4.4503937007874015
11
4.8631889763779528
21
-4.3952755905511811
0
LINE
8
BLACK
6
CONTINUOUS
10
4.8631889763779528
20
-4.3952755905511811
11
4.8637883464566931
21
-4.3922623228346458
0
LINE
8
BLACK
6
CONTINUOUS
10
4.8637883464566931
20
-4.3922623228346458
11
4.8654952362204726
21
-4.3897078346456695
0
LINE
8
BLACK
6
CONTINUOUS
10
4.8654952362204726
20
-4.3897078346456695
11
4.8680497244094489
21
-4.38800094488189
0
LINE
8
BLACK
6
CONTINUOUS
10
4.8680497244094489
20
-4.38800094488189
11
4.8710629921259843
21
-4.3874015748031496
0
LINE
8
BLACK
6
CONTINUOUS
10
4.8710629921259843
20
-4.3874015748031496
11
4.8828740157480315
21
-4.3874015748031496
0
LINE
8
BLACK
6
CONTINUOUS
10
4.8828740157480315
20
-4.3874015748031496
11
4.8858872834645668
21
-4.38800094488189
0
LINE
8
BLACK
6
CONTINUOUS
10
4.935099881889764
20
-4.38800094488189
11
4.9376543700787403
21
-4.3897078346456695
0
LINE
8
BLACK
6
CONTINUOUS
10
4.9376543700787403
20
-4.3897078346456695
11
4.9393612598425198
21
-4.3922623228346458
0
LINE
8
BLACK
6
CONTINUOUS
10
4.9393612598425198
20
-4.3922623228346458
11
4.9399606299212602
21
-4.3952755905511811
0
LINE
8
BLACK
6
CONTINUOUS
10
4.9399606299212602
20
-4.3952755905511811
11
4.9399606299212602
21
-4.4503937007874015
0
LINE
8
BLACK
6
CONTINUOUS
10
4.9399606299212602
20
-4.4503937007874015
11
4.9393612598425198
21
-4.4534069685039368
0
LINE
8
BLACK
6
CONTINUOUS
10
4.9393612598425198
20
-4.4534069685039368
11
4.9376543700787403
21
-4.4559614566929131
0
LINE
8
BLACK
6
CONTINUOUS
10
4.9376543700787403
20
-4.4559614566929131
11
4.935099881889764
21
-4.4576683464566926
0
LINE
8
BLACK
6
CONTINUOUS
10
4.935099881889764
20
-4.4576683464566926
11
4.9320866141732278
21
-4.458267716535433
0
LINE
8
BLACK
6
CONTINUOUS
10
4.9320866141732278
20
-4.458267716535433
11
4.9202755905511806
21
-4.458267716535433
0
LINE
8
BLACK
6
CONTINUOUS
10
4.9202755905511806
20
-4.458267716535433
11
4.9172623228346453
21
-4.4576683464566926
0
LINE
8
BLACK
6
CONTINUOUS
10
4.9172623228346453
20
-4.4576683464566926
11
4.914707834645669
21
-4.4559614566929131
0
LINE
8
BLACK
6
CONTINUOUS
10
4.914707834645669
20
-4.4559614566929131
11
4.9130009448818894
21
-4.4534069685039368
0
LINE
8
BLACK
6
CONTINUOUS
10
4.9130009448818894
20
-4.4534069685039368
11
4.9124015748031491
21
-4.4503937007874015
0
LINE
8
BLACK
6
CONTINUOUS
10
4.9124015748031491
20
-4.4503937007874015
11
4.9124015748031491
21
-4.3952755905511811
0
LINE
8
BLACK
6
CONTINUOUS
10
4.9124015748031491
20
-4.3952755905511811
11
4.9130009448818894
21
-4.3922623228346458
0
LINE
8
BLACK
6
CONTINUOUS
10
4.9130009448818894
20
-4.3922623228346458
11
4.914707834645669
21
-4.3897078346456695
0
LINE
8
BLACK
6
CONTINUOUS
10
4.914707834645669
20
-4.3897078346456695
11
4.9172623228346453
21
-4.38800094488189
0
LINE
8
BLACK
6
CONTINUOUS
10
4.9172623228346453
20
-4.38800094488189
11
4.9202755905511806
21
-4.3874015748031496
0
LINE
8
BLACK
6
CONTINUOUS
10
4.9202755905511806
20
-4.3874015748031496
11
4.9320866141732278
21
-4.3874015748031496
0
LINE
8
BLACK
6
CONTINUOUS
10
4.9320866141732278
20
-4.3874015748031496
11
4.935099881889764
21
-4.38800094488189
0
LINE
8
BLACK
6
CONTINUOUS
10
4.9843124803149603
20
-4.38800094488189
11
4.9868669685039366
21
-4.3897078346456695
0
LINE
8
BLACK
6
CONTINUOUS
10
4.9868669685039366
20
-4.3897078346456695
11
4.9885738582677162
21
-4.3922623228346458
0
LINE
8
BLACK
6
CONTINUOUS
10
4.9885738582677162
20
-4.3922623228346458
11
4.9891732283464565
21
-4.3952755905511811
0
LINE
8
BLACK
6
CONTINUOUS
10
4.9891732283464565
20
-4.3952755905511811
11
4.9891732283464565
21
-4.4503937007874015
0
LINE
8
BLACK
6
CONTINUOUS
10
4.9891732283464565
20
-4.4503937007874015
11
4.9885738582677162
21
-4.4534069685039368
0
LINE
8
BLACK
6
CONTINUOUS
10
4.9885738582677162
20
-4.4534069685039368
11
4.9868669685039366
21
-4.4559614566929131
0
LINE
8
BLACK
6
CONTINUOUS
10
4.9868669685039366
20
-4.4559614566929131
11
4.9843124803149603
21
-4.4576683464566926
0
LINE
8
BLACK
6
CONTINUOUS
10
4.9843124803149603
20
-4.4576683464566926
11
4.981299212598425
21
-4.458267716535433
0
LINE
8
BLACK
6
CONTINUOUS
10
4.981299212598425
20
-4.458267716535433
11
4.9694881889763778
21
-4.458267716535433
0
LINE
8
BLACK
6
CONTINUOUS
10
4.9694881889763778
20
-4.458267716535433
11
4.9664749212598425
21
-4.4576683464566926
0
LINE
8
BLACK
6
CONTINUOUS
10
4.9664749212598425
20
-4.4576683464566926
11
4.9639204330708662
21
-4.4559614566929131
0
LINE
8
BLACK
6
CONTINUOUS
10
4.9639204330708662
20
-4.4559614566929131
11
4.9622135433070866
21
-4.4534069685039368
0
LINE
8
BLACK
6
CONTINUOUS
10
4.9622135433070866
20
-4.4534069685039368
11
4.9616141732283463
21
-4.4503937007874015
0
LINE
8
BLACK
6
CONTINUOUS
10
4.9616141732283463
20
-4.4503937007874015
11
4.9616141732283463
21
-4.3952755905511811
0
LINE
8
BLACK
6
CONTINUOUS
10
4.9616141732283463
20
-4.3952755905511811
11
4.9622135433070866
21
-4.3922623228346458
0
LINE
8
BLACK
6
CONTINUOUS
10
4.9622135433070866
20
-4.3922623228346458
11
4.9639204330708662
21
-4.3897078346456695
0
LINE
8
BLACK
6
CONTINUOUS
10
4.9639204330708662
20
-4.3897078346456695
11
4.9664749212598425
21
-4.38800094488189
0
LINE
8
BLACK
6
CONTINUOUS
10
4.9664749212598425
20
-4.38800094488189
11
4.9694881889763778
21
-4.3874015748031496
0
LINE
8
BLACK
6
CONTINUOUS
10
4.9694881889763778
20
-4.3874015748031496
11
4.981299212598425
21
-4.3874015748031496
0
LINE
8
BLACK
6
CONTINUOUS
10
4.981299212598425
20
-4.3874015748031496
11
4.9843124803149603
21
-4.38800094488189
0
LINE
8
BLACK
6
CONTINUOUS
10
5.0335250787401575
20
-4.38800094488189
11
5.0360795669291338
21
-4.3897078346456695
0
LINE
8
BLACK
6
CONTINUOUS
10
5.0360795669291338
20
-4.3897078346456695
11
5.0377864566929134
21
-4.3922623228346458
0
LINE
8
BLACK
6
CONTINUOUS
10
5.0377864566929134
20
-4.3922623228346458
11
5.0383858267716537
21
-4.3952755905511811
0
LINE
8
BLACK
6
CONTINUOUS
10
5.0383858267716537
20
-4.3952755905511811
11
5.0383858267716537
21
-4.4503937007874015
0
LINE
8
BLACK
6
CONTINUOUS
10
5.0383858267716537
20
-4.4503937007874015
11
5.0377864566929134
21
-4.4534069685039368
0
LINE
8
BLACK
6
CONTINUOUS
10
5.0377864566929134
20
-4.4534069685039368
11
5.0360795669291338
21
-4.4559614566929131
0
LINE
8
BLACK
6
CONTINUOUS
10
5.0360795669291338
20
-4.4559614566929131
11
5.0335250787401575
21
-4.4576683464566926
0
LINE
8
BLACK
6
CONTINUOUS
10
5.0335250787401575
20
-4.4576683464566926
11
5.0305118110236222
21
-4.458267716535433
0
LINE
8
BLACK
6
CONTINUOUS
10
5.0305118110236222
20
-4.458267716535433
11
5.018700787401575
21
-4.458267716535433
0
LINE
8
BLACK
6
CONTINUOUS
10
5.018700787401575
20
-4.458267716535433
11
5.0156875196850397
21
-4.4576683464566926
0
LINE
8
BLACK
6
CONTINUOUS
10
5.0156875196850397
20
-4.4576683464566926
11
5.0131330314960625
21
-4.4559614566929131
0
LINE
8
BLACK
6
CONTINUOUS
10
5.0131330314960625
20
-4.4559614566929131
11
5.011426141732283
21
-4.4534069685039368
0
LINE
8
BLACK
6
CONTINUOUS
10
5.011426141732283
20
-4.4534069685039368
11
5.0108267716535435
21
-4.4503937007874015
0
LINE
8
BLACK
6
CONTINUOUS
10
5.0108267716535435
20
-4.4503937007874015
11
5.0108267716535435
21
-4.3952755905511811
0
LINE
8
BLACK
6
CONTINUOUS
10
5.0108267716535435
20
-4.3952755905511811
11
5.011426141732283
21
-4.3922623228346458
0
LINE
8
BLACK
6
CONTINUOUS
10
5.011426141732283
20
-4.3922623228346458
11
5.0131330314960625
21
-4.3897078346456695
0
LINE
8
BLACK
6
CONTINUOUS
10
5.0131330314960625
20
-4.3897078346456695
11
5.0156875196850397
21
-4.38800094488189
0
LINE
8
BLACK
6
CONTINUOUS
10
5.0156875196850397
20
-4.38800094488189
11
5.018700787401575
21
-4.3874015748031496
0
LINE
8
BLACK
6
CONTINUOUS
10
5.018700787401575
20
-4.3874015748031496
11
5.0305118110236222
21
-4.3874015748031496
0
LINE
8
BLACK
6
CONTINUOUS
10
5.0305118110236222
20
-4.3874015748031496
11
5.0335250787401575
21
-4.38800094488189
0
LINE
8
BLACK
6
CONTINUOUS
10
5.0827376771653539
20
-4.38800094488189
11
5.0852921653543302
21
-4.3897078346456695
0
LINE
8
BLACK
6
CONTINUOUS
10
5.0852921653543302
20
-4.3897078346456695
11
5.0869990551181097
21
-4.3922623228346458
0
LINE
8
BLACK
6
CONTINUOUS
10
5.0869990551181097
20
-4.3922623228346458
11
5.08759842519685
21
-4.3952755905511811
0
LINE
8
BLACK
6
CONTINUOUS
10
5.08759842519685
20
-4.3952755905511811
11
5.08759842519685
21
-4.4503937007874015
0
LINE
8
BLACK
6
CONTINUOUS
10
5.08759842519685
20
-4.4503937007874015
11
5.0869990551181097
21
-4.4534069685039368
0
LINE
8
BLACK
6
CONTINUOUS
10
5.0869990551181097
20
-4.4534069685039368
11
5.0852921653543302
21
-4.4559614566929131
0
LINE
8
BLACK
6
CONTINUOUS
10
5.0852921653543302
20
-4.4559614566929131
11
5.0827376771653539
21
-4.4576683464566926
0
LINE
8
BLACK
6
CONTINUOUS
10
5.0827376771653539
20
-4.4576683464566926
11
5.0797244094488185
21
-4.458267716535433
0
LINE
8
BLACK
6
CONTINUOUS
10
5.0797244094488185
20
-4.458267716535433
11
5.0679133858267713
21
-4.458267716535433
0
LINE
8
BLACK
6
CONTINUOUS
10
5.0679133858267713
20
-4.458267716535433
11
5.064900118110236
21
-4.4576683464566926
0
LINE
8
BLACK
6
CONTINUOUS
10
5.064900118110236
20
-4.4576683464566926
11
5.0623456299212597
21
-4.4559614566929131
0
LINE
8
BLACK
6
CONTINUOUS
10
5.0623456299212597
20
-4.4559614566929131
11
5.0606387401574802
21
-4.4534069685039368
0
LINE
8
BLACK
6
CONTINUOUS
10
5.0606387401574802
20
-4.4534069685039368
11
5.0600393700787398
21
-4.4503937007874015
0
LINE
8
BLACK
6
CONTINUOUS
10
5.0600393700787398
20
-4.4503937007874015
11
5.0600393700787398
21
-4.3952755905511811
0
LINE
8
BLACK
6
CONTINUOUS
10
5.0600393700787398
20
-4.3952755905511811
11
5.0606387401574802
21
-4.3922623228346458
0
LINE
8
BLACK
6
CONTINUOUS
10
5.0606387401574802
20
-4.3922623228346458
11
5.0623456299212597
21
-4.3897078346456695
0
LINE
8
BLACK
6
CONTINUOUS
10
5.0623456299212597
20
-4.3897078346456695
11
5.064900118110236
21
-4.38800094488189
0
LINE
8
BLACK
6
CONTINUOUS
10
5.064900118110236
20
-4.38800094488189
11
5.0679133858267713
21
-4.3874015748031496
0
LINE
8
BLACK
6
CONTINUOUS
10
5.0679133858267713
20
-4.3874015748031496
11
5.0797244094488185
21
-4.3874015748031496
0
LINE
8
BLACK
6
CONTINUOUS
10
5.0797244094488185
20
-4.3874015748031496
11
5.0827376771653539
21
-4.38800094488189
0
LINE
8
BLACK
6
CONTINUOUS
10
5.1319502755905511
20
-4.38800094488189
11
5.1345047637795274
21
-4.3897078346456695
0
LINE
8
BLACK
6
CONTINUOUS
10
5.1345047637795274
20
-4.3897078346456695
11
5.1362116535433069
21
-4.3922623228346458
0
LINE
8
BLACK
6
CONTINUOUS
10
5.1362116535433069
20
-4.3922623228346458
11
5.1368110236220472
21
-4.3952755905511811
0
LINE
8
BLACK
6
CONTINUOUS
10
5.1368110236220472
20
-4.3952755905511811
11
5.1368110236220472
21
-4.4503937007874015
0
LINE
8
BLACK
6
CONTINUOUS
10
5.1368110236220472
20
-4.4503937007874015
11
5.1362116535433069
21
-4.4534069685039368
0
LINE
8
BLACK
6
CONTINUOUS
10
5.1362116535433069
20
-4.4534069685039368
11
5.1345047637795274
21
-4.4559614566929131
0
LINE
8
BLACK
6
CONTINUOUS
10
5.1345047637795274
20
-4.4559614566929131
11
5.1319502755905511
21
-4.4576683464566926
0
LINE
8
BLACK
6
CONTINUOUS
10
5.1319502755905511
20
-4.4576683464566926
11
5.1289370078740157
21
-4.458267716535433
0
LINE
8
BLACK
6
CONTINUOUS
10
5.1289370078740157
20
-4.458267716535433
11
5.1171259842519685
21
-4.458267716535433
0
LINE
8
BLACK
6
CONTINUOUS
10
5.1171259842519685
20
-4.458267716535433
11
5.1141127165354332
21
-4.4576683464566926
0
LINE
8
BLACK
6
CONTINUOUS
10
5.1141127165354332
20
-4.4576683464566926
11
5.1115582283464569
21
-4.4559614566929131
0
LINE
8
BLACK
6
CONTINUOUS
10
5.1115582283464569
20
-4.4559614566929131
11
5.1098513385826774
21
-4.4534069685039368
0
LINE
8
BLACK
6
CONTINUOUS
10
5.1098513385826774
20
-4.4534069685039368
11
5.109251968503937
21
-4.4503937007874015
0
LINE
8
BLACK
6
CONTINUOUS
10
5.109251968503937
20
-4.4503937007874015
11
5.109251968503937
21
-4.3952755905511811
0
LINE
8
BLACK
6
CONTINUOUS
10
5.109251968503937
20
-4.3952755905511811
11
5.1098513385826774
21
-4.3922623228346458
0
LINE
8
BLACK
6
CONTINUOUS
10
5.1098513385826774
20
-4.3922623228346458
11
5.1115582283464569
21
-4.3897078346456695
0
LINE
8
BLACK
6
CONTINUOUS
10
5.1115582283464569
20
-4.3897078346456695
11
5.1141127165354332
21
-4.38800094488189
0
LINE
8
BLACK
6
CONTINUOUS
10
5.1141127165354332
20
-4.38800094488189
11
5.1171259842519685
21
-4.3874015748031496
0
LINE
8
BLACK
6
CONTINUOUS
10
5.1171259842519685
20
-4.3874015748031496
11
5.1289370078740157
21
-4.3874015748031496
0
LINE
8
BLACK
6
CONTINUOUS
10
5.1289370078740157
20
-4.3874015748031496
11
5.1319502755905511
21
-4.38800094488189
0
LINE
8
BLACK
6
CONTINUOUS
10
5.9390368897637797
20
-4.38800094488189
11
5.941591377952756
21
-4.3897078346456695
0
LINE
8
BLACK
6
CONTINUOUS
10
5.941591377952756
20
-4.3897078346456695
11
5.9432982677165356
21
-4.3922623228346458
0
LINE
8
BLACK
6
CONTINUOUS
10
5.9432982677165356
20
-4.3922623228346458
11
5.943897637795275
21
-4.3952755905511811
0
LINE
8
BLACK
6
CONTINUOUS
10
5.943897637795275
20
-4.3952755905511811
11
5.943897637795275
21
-4.4503937007874015
0
LINE
8
BLACK
6
CONTINUOUS
10
5.943897637795275
20
-4.4503937007874015
11
5.9432982677165356
21
-4.4534069685039368
0
LINE
8
BLACK
6
CONTINUOUS
10
5.9432982677165356
20
-4.4534069685039368
11
5.941591377952756
21
-4.4559614566929131
0
LINE
8
BLACK
6
CONTINUOUS
10
5.941591377952756
20
-4.4559614566929131
11
5.9390368897637797
21
-4.4576683464566926
0
LINE
8
BLACK
6
CONTINUOUS
10
5.9390368897637797
20
-4.4576683464566926
11
5.9360236220472435
21
-4.458267716535433
0
LINE
8
BLACK
6
CONTINUOUS
10
5.9360236220472435
20
-4.458267716535433
11
5.9242125984251963
21
-4.458267716535433
0
LINE
8
BLACK
6
CONTINUOUS
10
5.9242125984251963
20
-4.458267716535433
11
5.921199330708661
21
-4.4576683464566926
0
LINE
8
BLACK
6
CONTINUOUS
10
5.921199330708661
20
-4.4576683464566926
11
5.9186448425196847
21
-4.4559614566929131
0
LINE
8
BLACK
6
CONTINUOUS
10
5.9186448425196847
20
-4.4559614566929131
11
5.9169379527559052
21
-4.4534069685039368
0
LINE
8
BLACK
6
CONTINUOUS
10
5.9169379527559052
20
-4.4534069685039368
11
5.9163385826771648
21
-4.4503937007874015
0
LINE
8
BLACK
6
CONTINUOUS
10
5.9163385826771648
20
-4.4503937007874015
11
5.9163385826771648
21
-4.3952755905511811
0
LINE
8
BLACK
6
CONTINUOUS
10
5.9163385826771648
20
-4.3952755905511811
11
5.9169379527559052
21
-4.3922623228346458
0
LINE
8
BLACK
6
CONTINUOUS
10
5.9169379527559052
20
-4.3922623228346458
11
5.9186448425196847
21
-4.3897078346456695
0
LINE
8
BLACK
6
CONTINUOUS
10
5.9186448425196847
20
-4.3897078346456695
11
5.921199330708661
21
-4.38800094488189
0
LINE
8
BLACK
6
CONTINUOUS
10
5.921199330708661
20
-4.38800094488189
11
5.9242125984251963
21
-4.3874015748031496
0
LINE
8
BLACK
6
CONTINUOUS
10
5.9242125984251963
20
-4.3874015748031496
11
5.9360236220472435
21
-4.3874015748031496
0
LINE
8
BLACK
6
CONTINUOUS
10
5.9360236220472435
20
-4.3874015748031496
11
5.9390368897637797
21
-4.38800094488189
0
LINE
8
BLACK
6
CONTINUOUS
10
5.9882494881889761
20
-4.38800094488189
11
5.9908039763779524
21
-4.3897078346456695
0
LINE
8
BLACK
6
CONTINUOUS
10
5.9908039763779524
20
-4.3897078346456695
11
5.9925108661417319
21
-4.3922623228346458
0
LINE
8
BLACK
6
CONTINUOUS
10
5.9925108661417319
20
-4.3922623228346458
11
5.9931102362204722
21
-4.3952755905511811
0
LINE
8
BLACK
6
CONTINUOUS
10
5.9931102362204722
20
-4.3952755905511811
11
5.9931102362204722
21
-4.4503937007874015
0
LINE
8
BLACK
6
CONTINUOUS
10
5.9931102362204722
20
-4.4503937007874015
11
5.9925108661417319
21
-4.4534069685039368
0
LINE
8
BLACK
6
CONTINUOUS
10
5.9925108661417319
20
-4.4534069685039368
11
5.9908039763779524
21
-4.4559614566929131
0
LINE
8
BLACK
6
CONTINUOUS
10
5.9908039763779524
20
-4.4559614566929131
11
5.9882494881889761
21
-4.4576683464566926
0
LINE
8
BLACK
6
CONTINUOUS
10
5.9882494881889761
20
-4.4576683464566926
11
5.9852362204724407
21
-4.458267716535433
0
LINE
8
BLACK
6
CONTINUOUS
10
5.9852362204724407
20
-4.458267716535433
11
5.9734251968503935
21
-4.458267716535433
0
LINE
8
BLACK
6
CONTINUOUS
10
5.9734251968503935
20
-4.458267716535433
11
5.9704119291338582
21
-4.4576683464566926
0
LINE
8
BLACK
6
CONTINUOUS
10
5.9704119291338582
20
-4.4576683464566926
11
5.9678574409448819
21
-4.4559614566929131
0
LINE
8
BLACK
6
CONTINUOUS
10
5.9678574409448819
20
-4.4559614566929131
11
5.9661505511811024
21
-4.4534069685039368
0
LINE
8
BLACK
6
CONTINUOUS
10
5.9661505511811024
20
-4.4534069685039368
11
5.965551181102362
21
-4.4503937007874015
0
LINE
8
BLACK
6
CONTINUOUS
10
5.965551181102362
20
-4.4503937007874015
11
5.965551181102362
21
-4.3952755905511811
0
LINE
8
BLACK
6
CONTINUOUS
10
5.965551181102362
20
-4.3952755905511811
11
5.9661505511811024
21
-4.3922623228346458
0
LINE
8
BLACK
6
CONTINUOUS
10
5.9661505511811024
20
-4.3922623228346458
11
5.9678574409448819
21
-4.3897078346456695
0
LINE
8
BLACK
6
CONTINUOUS
10
5.9678574409448819
20
-4.3897078346456695
11
5.9704119291338582
21
-4.38800094488189
0
LINE
8
BLACK
6
CONTINUOUS
10
5.9704119291338582
20
-4.38800094488189
11
5.9734251968503935
21
-4.3874015748031496
0
LINE
8
BLACK
6
CONTINUOUS
10
5.9734251968503935
20
-4.3874015748031496
11
5.9852362204724407
21
-4.3874015748031496
0
LINE
8
BLACK
6
CONTINUOUS
10
5.9852362204724407
20
-4.3874015748031496
11
5.9882494881889761
21
-4.38800094488189
0
LINE
8
BLACK
6
CONTINUOUS
10
6.0374620866141733
20
-4.38800094488189
11
6.0400165748031496
21
-4.3897078346456695
0
LINE
8
BLACK
6
CONTINUOUS
10
6.0400165748031496
20
-4.3897078346456695
11
6.0417234645669291
21
-4.3922623228346458
0
LINE
8
BLACK
6
CONTINUOUS
10
6.0417234645669291
20
-4.3922623228346458
11
6.0423228346456694
21
-4.3952755905511811
0
LINE
8
BLACK
6
CONTINUOUS
10
6.0423228346456694
20
-4.3952755905511811
11
6.0423228346456694
21
-4.4503937007874015
0
LINE
8
BLACK
6
CONTINUOUS
10
6.0423228346456694
20
-4.4503937007874015
11
6.0417234645669291
21
-4.4534069685039368
0
LINE
8
BLACK
6
CONTINUOUS
10
6.0417234645669291
20
-4.4534069685039368
11
6.0400165748031496
21
-4.4559614566929131
0
LINE
8
BLACK
6
CONTINUOUS
10
6.0400165748031496
20
-4.4559614566929131
11
6.0374620866141733
21
-4.4576683464566926
0
LINE
8
BLACK
6
CONTINUOUS
10
6.0374620866141733
20
-4.4576683464566926
11
6.034448818897638
21
-4.458267716535433
0
LINE
8
BLACK
6
CONTINUOUS
10
6.034448818897638
20
-4.458267716535433
11
6.0226377952755907
21
-4.458267716535433
0
LINE
8
BLACK
6
CONTINUOUS
10
6.0226377952755907
20
-4.458267716535433
11
6.0196245275590554
21
-4.4576683464566926
0
LINE
8
BLACK
6
CONTINUOUS
10
6.0196245275590554
20
-4.4576683464566926
11
6.0170700393700782
21
-4.4559614566929131
0
LINE
8
BLACK
6
CONTINUOUS
10
6.0170700393700782
20
-4.4559614566929131
11
6.0153631496062987
21
-4.4534069685039368
0
LINE
8
BLACK
6
CONTINUOUS
10
6.0153631496062987
20
-4.4534069685039368
11
6.0147637795275593
21
-4.4503937007874015
0
LINE
8
BLACK
6
CONTINUOUS
10
6.0147637795275593
20
-4.4503937007874015
11
6.0147637795275593
21
-4.3952755905511811
0
LINE
8
BLACK
6
CONTINUOUS
10
6.0147637795275593
20
-4.3952755905511811
11
6.0153631496062987
21
-4.3922623228346458
0
LINE
8
BLACK
6
CONTINUOUS
10
6.0153631496062987
20
-4.3922623228346458
11
6.0170700393700782
21
-4.3897078346456695
0
LINE
8
BLACK
6
CONTINUOUS
10
6.0170700393700782
20
-4.3897078346456695
11
6.0196245275590554
21
-4.38800094488189
0
LINE
8
BLACK
6
CONTINUOUS
10
6.0196245275590554
20
-4.38800094488189
11
6.0226377952755907
21
-4.3874015748031496
0
LINE
8
BLACK
6
CONTINUOUS
10
6.0226377952755907
20
-4.3874015748031496
11
6.034448818897638
21
-4.3874015748031496
0
LINE
8
BLACK
6
CONTINUOUS
10
6.034448818897638
20
-4.3874015748031496
11
6.0374620866141733
21
-4.38800094488189
0
LINE
8
BLACK
6
CONTINUOUS
10
6.0866746850393696
20
-4.38800094488189
11
6.0892291732283459
21
-4.3897078346456695
0
LINE
8
BLACK
6
CONTINUOUS
10
6.0892291732283459
20
-4.3897078346456695
11
6.0909360629921254
21
-4.3922623228346458
0
LINE
8
BLACK
6
CONTINUOUS
10
6.0909360629921254
20
-4.3922623228346458
11
6.0915354330708658
21
-4.3952755905511811
0
LINE
8
BLACK
6
CONTINUOUS
10
6.0915354330708658
20
-4.3952755905511811
11
6.0915354330708658
21
-4.4503937007874015
0
LINE
8
BLACK
6
CONTINUOUS
10
6.0915354330708658
20
-4.4503937007874015
11
6.0909360629921254
21
-4.4534069685039368
0
LINE
8
BLACK
6
CONTINUOUS
10
6.0909360629921254
20
-4.4534069685039368
11
6.0892291732283459
21
-4.4559614566929131
0
LINE
8
BLACK
6
CONTINUOUS
10
6.0892291732283459
20
-4.4559614566929131
11
6.0866746850393696
21
-4.4576683464566926
0
LINE
8
BLACK
6
CONTINUOUS
10
6.0866746850393696
20
-4.4576683464566926
11
6.0836614173228343
21
-4.458267716535433
0
LINE
8
BLACK
6
CONTINUOUS
10
6.0836614173228343
20
-4.458267716535433
11
6.0718503937007871
21
-4.458267716535433
0
LINE
8
BLACK
6
CONTINUOUS
10
6.0718503937007871
20
-4.458267716535433
11
6.0688371259842517
21
-4.4576683464566926
0
LINE
8
BLACK
6
CONTINUOUS
10
6.0688371259842517
20
-4.4576683464566926
11
6.0662826377952754
21
-4.4559614566929131
0
LINE
8
BLACK
6
CONTINUOUS
10
6.0662826377952754
20
-4.4559614566929131
11
6.0645757480314959
21
-4.4534069685039368
0
LINE
8
BLACK
6
CONTINUOUS
10
6.0645757480314959
20
-4.4534069685039368
11
6.0639763779527556
21
-4.4503937007874015
0
LINE
8
BLACK
6
CONTINUOUS
10
6.0639763779527556
20
-4.4503937007874015
11
6.0639763779527556
21
-4.3952755905511811
0
LINE
8
BLACK
6
CONTINUOUS
10
6.0639763779527556
20
-4.3952755905511811
11
6.0645757480314959
21
-4.3922623228346458
0
LINE
8
BLACK
6
CONTINUOUS
10
6.0645757480314959
20
-4.3922623228346458
11
6.0662826377952754
21
-4.3897078346456695
0
LINE
8
BLACK
6
CONTINUOUS
10
6.0662826377952754
20
-4.3897078346456695
11
6.0688371259842517
21
-4.38800094488189
0
LINE
8
BLACK
6
CONTINUOUS
10
6.0688371259842517
20
-4.38800094488189
11
6.0718503937007871
21
-4.3874015748031496
0
LINE
8
BLACK
6
CONTINUOUS
10
6.0718503937007871
20
-4.3874015748031496
11
6.0836614173228343
21
-4.3874015748031496
0
LINE
8
BLACK
6
CONTINUOUS
10
6.0836614173228343
20
-4.3874015748031496
11
6.0866746850393696
21
-4.38800094488189
0
LINE
8
BLACK
6
CONTINUOUS
10
6.1358872834645668
20
-4.38800094488189
11
6.1384417716535431
21
-4.3897078346456695
0
LINE
8
BLACK
6
CONTINUOUS
10
6.1384417716535431
20
-4.3897078346456695
11
6.1401486614173226
21
-4.3922623228346458
0
LINE
8
BLACK
6
CONTINUOUS
10
6.1401486614173226
20
-4.3922623228346458
11
6.140748031496063
21
-4.3952755905511811
0
LINE
8
BLACK
6
CONTINUOUS
10
6.140748031496063
20
-4.3952755905511811
11
6.140748031496063
21
-4.4503937007874015
0
LINE
8
BLACK
6
CONTINUOUS
10
6.140748031496063
20
-4.4503937007874015
11
6.1401486614173226
21
-4.4534069685039368
0
LINE
8
BLACK
6
CONTINUOUS
10
6.1401486614173226
20
-4.4534069685039368
11
6.1384417716535431
21
-4.4559614566929131
0
LINE
8
BLACK
6
CONTINUOUS
10
6.1384417716535431
20
-4.4559614566929131
11
6.1358872834645668
21
-4.4576683464566926
0
LINE
8
BLACK
6
CONTINUOUS
10
6.1358872834645668
20
-4.4576683464566926
11
6.1328740157480315
21
-4.458267716535433
0
LINE
8
BLACK
6
CONTINUOUS
10
6.1328740157480315
20
-4.458267716535433
11
6.1210629921259843
21
-4.458267716535433
0
LINE
8
BLACK
6
CONTINUOUS
10
6.1210629921259843
20
-4.458267716535433
11
6.1180497244094489
21
-4.4576683464566926
0
LINE
8
BLACK
6
CONTINUOUS
10
6.1180497244094489
20
-4.4576683464566926
11
6.1154952362204726
21
-4.4559614566929131
0
LINE
8
BLACK
6
CONTINUOUS
10
6.1154952362204726
20
-4.4559614566929131
11
6.1137883464566931
21
-4.4534069685039368
0
LINE
8
BLACK
6
CONTINUOUS
10
6.1137883464566931
20
-4.4534069685039368
11
6.1131889763779528
21
-4.4503937007874015
0
LINE
8
BLACK
6
CONTINUOUS
10
6.1131889763779528
20
-4.4503937007874015
11
6.1131889763779528
21
-4.3952755905511811
0
LINE
8
BLACK
6
CONTINUOUS
10
6.1131889763779528
20
-4.3952755905511811
11
6.1137883464566931
21
-4.3922623228346458
0
LINE
8
BLACK
6
CONTINUOUS
10
6.1137883464566931
20
-4.3922623228346458
11
6.1154952362204726
21
-4.3897078346456695
0
LINE
8
BLACK
6
CONTINUOUS
10
6.1154952362204726
20
-4.3897078346456695
11
6.1180497244094489
21
-4.38800094488189
0
LINE
8
BLACK
6
CONTINUOUS
10
6.1180497244094489
20
-4.38800094488189
11
6.1210629921259843
21
-4.3874015748031496
0
LINE
8
BLACK
6
CONTINUOUS
10
6.1210629921259843
20
-4.3874015748031496
11
6.1328740157480315
21
-4.3874015748031496
0
LINE
8
BLACK
6
CONTINUOUS
10
6.1328740157480315
20
-4.3874015748031496
11
6.1358872834645668
21
-4.38800094488189
0
LINE
8
BLACK
6
CONTINUOUS
10
6.185099881889764
20
-4.38800094488189
11
6.1876543700787403
21
-4.3897078346456695
0
LINE
8
BLACK
6
CONTINUOUS
10
6.1876543700787403
20
-4.3897078346456695
11
6.1893612598425198
21
-4.3922623228346458
0
LINE
8
BLACK
6
CONTINUOUS
10
6.1893612598425198
20
-4.3922623228346458
11
6.1899606299212593
21
-4.3952755905511811
0
LINE
8
BLACK
6
CONTINUOUS
10
6.1899606299212593
20
-4.3952755905511811
11
6.1899606299212593
21
-4.4503937007874015
0
LINE
8
BLACK
6
CONTINUOUS
10
6.1899606299212593
20
-4.4503937007874015
11
6.1893612598425198
21
-4.4534069685039368
0
LINE
8
BLACK
6
CONTINUOUS
10
6.1893612598425198
20
-4.4534069685039368
11
6.1876543700787403
21
-4.4559614566929131
0
LINE
8
BLACK
6
CONTINUOUS
10
6.1876543700787403
20
-4.4559614566929131
11
6.185099881889764
21
-4.4576683464566926
0
LINE
8
BLACK
6
CONTINUOUS
10
6.185099881889764
20
-4.4576683464566926
11
6.1820866141732278
21
-4.458267716535433
0
LINE
8
BLACK
6
CONTINUOUS
10
6.1820866141732278
20
-4.458267716535433
11
6.1702755905511806
21
-4.458267716535433
0
LINE
8
BLACK
6
CONTINUOUS
10
6.1702755905511806
20
-4.458267716535433
11
6.1672623228346453
21
-4.4576683464566926
0
LINE
8
BLACK
6
CONTINUOUS
10
6.1672623228346453
20
-4.4576683464566926
11
6.164707834645669
21
-4.4559614566929131
0
LINE
8
BLACK
6
CONTINUOUS
10
6.164707834645669
20
-4.4559614566929131
11
6.1630009448818894
21
-4.4534069685039368
0
LINE
8
BLACK
6
CONTINUOUS
10
6.1630009448818894
20
-4.4534069685039368
11
6.1624015748031491
21
-4.4503937007874015
0
LINE
8
BLACK
6
CONTINUOUS
10
6.1624015748031491
20
-4.4503937007874015
11
6.1624015748031491
21
-4.3952755905511811
0
LINE
8
BLACK
6
CONTINUOUS
10
6.1624015748031491
20
-4.3952755905511811
11
6.1630009448818894
21
-4.3922623228346458
0
LINE
8
BLACK
6
CONTINUOUS
10
6.1630009448818894
20
-4.3922623228346458
11
6.164707834645669
21
-4.3897078346456695
0
LINE
8
BLACK
6
CONTINUOUS
10
6.164707834645669
20
-4.3897078346456695
11
6.1672623228346453
21
-4.38800094488189
0
LINE
8
BLACK
6
CONTINUOUS
10
6.1672623228346453
20
-4.38800094488189
11
6.1702755905511806
21
-4.3874015748031496
0
LINE
8
BLACK
6
CONTINUOUS
10
6.1702755905511806
20
-4.3874015748031496
11
6.1820866141732278
21
-4.3874015748031496
0
LINE
8
BLACK
6
CONTINUOUS
10
6.1820866141732278
20
-4.3874015748031496
11
6.185099881889764
21
-4.38800094488189
0
LINE
8
BLACK
6
CONTINUOUS
10
6.2343124803149603
20
-4.38800094488189
11
6.2368669685039366
21
-4.3897078346456695
0
LINE
8
BLACK
6
CONTINUOUS
10
6.2368669685039366
20
-4.3897078346456695
11
6.2385738582677162
21
-4.3922623228346458
0
LINE
8
BLACK
6
CONTINUOUS
10
6.2385738582677162
20
-4.3922623228346458
11
6.2391732283464565
21
-4.3952755905511811
0
LINE
8
BLACK
6
CONTINUOUS
10
6.2391732283464565
20
-4.3952755905511811
11
6.2391732283464565
21
-4.4503937007874015
0
LINE
8
BLACK
6
CONTINUOUS
10
6.2391732283464565
20
-4.4503937007874015
11
6.2385738582677162
21
-4.4534069685039368
0
LINE
8
BLACK
6
CONTINUOUS
10
6.2385738582677162
20
-4.4534069685039368
11
6.2368669685039366
21
-4.4559614566929131
0
LINE
8
BLACK
6
CONTINUOUS
10
6.2368669685039366
20
-4.4559614566929131
11
6.2343124803149603
21
-4.4576683464566926
0
LINE
8
BLACK
6
CONTINUOUS
10
6.2343124803149603
20
-4.4576683464566926
11
6.231299212598425
21
-4.458267716535433
0
LINE
8
BLACK
6
CONTINUOUS
10
6.231299212598425
20
-4.458267716535433
11
6.2194881889763778
21
-4.458267716535433
0
LINE
8
BLACK
6
CONTINUOUS
10
6.2194881889763778
20
-4.458267716535433
11
6.2164749212598425
21
-4.4576683464566926
0
LINE
8
BLACK
6
CONTINUOUS
10
6.2164749212598425
20
-4.4576683464566926
11
6.2139204330708662
21
-4.4559614566929131
0
LINE
8
BLACK
6
CONTINUOUS
10
6.2139204330708662
20
-4.4559614566929131
11
6.2122135433070866
21
-4.4534069685039368
0
LINE
8
BLACK
6
CONTINUOUS
10
6.2122135433070866
20
-4.4534069685039368
11
6.2116141732283463
21
-4.4503937007874015
0
LINE
8
BLACK
6
CONTINUOUS
10
6.2116141732283463
20
-4.4503937007874015
11
6.2116141732283463
21
-4.3952755905511811
0
LINE
8
BLACK
6
CONTINUOUS
10
6.2116141732283463
20
-4.3952755905511811
11
6.2122135433070866
21
-4.3922623228346458
0
LINE
8
BLACK
6
CONTINUOUS
10
6.2122135433070866
20
-4.3922623228346458
11
6.2139204330708662
21
-4.3897078346456695
0
LINE
8
BLACK
6
CONTINUOUS
10
6.2139204330708662
20
-4.3897078346456695
11
6.2164749212598425
21
-4.38800094488189
0
LINE
8
BLACK
6
CONTINUOUS
10
6.2164749212598425
20
-4.38800094488189
11
6.2194881889763778
21
-4.3874015748031496
0
LINE
8
BLACK
6
CONTINUOUS
10
6.2194881889763778
20
-4.3874015748031496
11
6.231299212598425
21
-4.3874015748031496
0
LINE
8
BLACK
6
CONTINUOUS
10
6.231299212598425
20
-4.3874015748031496
11
6.2343124803149603
21
-4.38800094488189
0
LINE
8
BLACK
6
CONTINUOUS
10
6.2835250787401575
20
-4.38800094488189
11
6.2860795669291338
21
-4.3897078346456695
0
LINE
8
BLACK
6
CONTINUOUS
10
6.2860795669291338
20
-4.3897078346456695
11
6.2877864566929134
21
-4.3922623228346458
0
LINE
8
BLACK
6
CONTINUOUS
10
6.2877864566929134
20
-4.3922623228346458
11
6.2883858267716537
21
-4.3952755905511811
0
LINE
8
BLACK
6
CONTINUOUS
10
6.2883858267716537
20
-4.3952755905511811
11
6.2883858267716537
21
-4.4503937007874015
0
LINE
8
BLACK
6
CONTINUOUS
10
6.2883858267716537
20
-4.4503937007874015
11
6.2877864566929134
21
-4.4534069685039368
0
LINE
8
BLACK
6
CONTINUOUS
10
6.2877864566929134
20
-4.4534069685039368
11
6.2860795669291338
21
-4.4559614566929131
0
LINE
8
BLACK
6
CONTINUOUS
10
6.2860795669291338
20
-4.4559614566929131
11
6.2835250787401575
21
-4.4576683464566926
0
LINE
8
BLACK
6
CONTINUOUS
10
6.2835250787401575
20
-4.4576683464566926
11
6.2805118110236222
21
-4.458267716535433
0
LINE
8
BLACK
6
CONTINUOUS
10
6.2805118110236222
20
-4.458267716535433
11
6.268700787401575
21
-4.458267716535433
0
LINE
8
BLACK
6
CONTINUOUS
10
6.268700787401575
20
-4.458267716535433
11
6.2656875196850388
21
-4.4576683464566926
0
LINE
8
BLACK
6
CONTINUOUS
10
6.2656875196850388
20
-4.4576683464566926
11
6.2631330314960625
21
-4.4559614566929131
0
LINE
8
BLACK
6
CONTINUOUS
10
6.2631330314960625
20
-4.4559614566929131
11
6.261426141732283
21
-4.4534069685039368
0
LINE
8
BLACK
6
CONTINUOUS
10
6.261426141732283
20
-4.4534069685039368
11
6.2608267716535435
21
-4.4503937007874015
0
LINE
8
BLACK
6
CONTINUOUS
10
6.2608267716535435
20
-4.4503937007874015
11
6.2608267716535435
21
-4.3952755905511811
0
LINE
8
BLACK
6
CONTINUOUS
10
6.2608267716535435
20
-4.3952755905511811
11
6.261426141732283
21
-4.3922623228346458
0
LINE
8
BLACK
6
CONTINUOUS
10
6.261426141732283
20
-4.3922623228346458
11
6.2631330314960625
21
-4.3897078346456695
0
LINE
8
BLACK
6
CONTINUOUS
10
6.2631330314960625
20
-4.3897078346456695
11
6.2656875196850388
21
-4.38800094488189
0
LINE
8
BLACK
6
CONTINUOUS
10
6.2656875196850388
20
-4.38800094488189
11
6.268700787401575
21
-4.3874015748031496
0
LINE
8
BLACK
6
CONTINUOUS
10
6.268700787401575
20
-4.3874015748031496
11
6.2805118110236222
21
-4.3874015748031496
0
LINE
8
BLACK
6
CONTINUOUS
10
6.2805118110236222
20
-4.3874015748031496
11
6.2835250787401575
21
-4.38800094488189
0
LINE
8
BLACK
6
CONTINUOUS
10
4.8166805118110236
20
-4.2420460236220467
11
4.820651220472441
21
-4.2437992519685039
0
LINE
8
BLACK
6
CONTINUOUS
10
4.820651220472441
20
-4.2437992519685039
11
4.8237204330708661
21
-4.246868464566929
0
LINE
8
BLACK
6
CONTINUOUS
10
4.8237204330708661
20
-4.246868464566929
11
4.8254736614173224
21
-4.2508391732283464
0
LINE
8
BLACK
6
CONTINUOUS
10
4.8254736614173224
20
-4.2508391732283464
11
4.8257874015748028
21
-4.2535433070866144
0
LINE
8
BLACK
6
CONTINUOUS
10
4.8257874015748028
20
-4.2535433070866144
11
4.8257874015748028
21
-4.3401574803149607
0
LINE
8
BLACK
6
CONTINUOUS
10
4.8257874015748028
20
-4.3401574803149607
11
4.8254736614173224
21
-4.3428616141732279
0
LINE
8
BLACK
6
CONTINUOUS
10
4.8254736614173224
20
-4.3428616141732279
11
4.8237204330708661
21
-4.3468323228346453
0
LINE
8
BLACK
6
CONTINUOUS
10
4.8237204330708661
20
-4.3468323228346453
11
4.820651220472441
21
-4.3499015354330703
0
LINE
8
BLACK
6
CONTINUOUS
10
4.820651220472441
20
-4.3499015354330703
11
4.8166805118110236
21
-4.3516547637795275
0
LINE
8
BLACK
6
CONTINUOUS
10
4.8166805118110236
20
-4.3516547637795275
11
4.8139763779527556
21
-4.351968503937008
0
LINE
8
BLACK
6
CONTINUOUS
10
4.8139763779527556
20
-4.351968503937008
11
4.7942913385826769
21
-4.351968503937008
0
LINE
8
BLACK
6
CONTINUOUS
10
4.7942913385826769
20
-4.351968503937008
11
4.7915872047244097
21
-4.3516547637795275
0
LINE
8
BLACK
6
CONTINUOUS
10
4.7915872047244097
20
-4.3516547637795275
11
4.7876164960629923
21
-4.3499015354330703
0
LINE
8
BLACK
6
CONTINUOUS
10
4.7876164960629923
20
-4.3499015354330703
11
4.7845472834645673
21
-4.3468323228346453
0
LINE
8
BLACK
6
CONTINUOUS
10
4.7845472834645673
20
-4.3468323228346453
11
4.7827940551181101
21
-4.3428616141732279
0
LINE
8
BLACK
6
CONTINUOUS
10
4.7827940551181101
20
-4.3428616141732279
11
4.7824803149606296
21
-4.3401574803149607
0
LINE
8
BLACK
6
CONTINUOUS
10
4.7824803149606296
20
-4.3401574803149607
11
4.7824803149606296
21
-4.2535433070866144
0
LINE
8
BLACK
6
CONTINUOUS
10
4.7824803149606296
20
-4.2535433070866144
11
4.7827940551181101
21
-4.2508391732283464
0
LINE
8
BLACK
6
CONTINUOUS
10
4.7827940551181101
20
-4.2508391732283464
11
4.7845472834645673
21
-4.246868464566929
0
LINE
8
BLACK
6
CONTINUOUS
10
4.7845472834645673
20
-4.246868464566929
11
4.7876164960629923
21
-4.2437992519685039
0
LINE
8
BLACK
6
CONTINUOUS
10
4.7876164960629923
20
-4.2437992519685039
11
4.7915872047244097
21
-4.2420460236220467
0
LINE
8
BLACK
6
CONTINUOUS
10
4.7915872047244097
20
-4.2420460236220467
11
4.7942913385826769
21
-4.2417322834645672
0
LINE
8
BLACK
6
CONTINUOUS
10
4.7942913385826769
20
-4.2417322834645672
11
4.8139763779527556
21
-4.2417322834645672
0
LINE
8
BLACK
6
CONTINUOUS
10
4.8139763779527556
20
-4.2417322834645672
11
4.8166805118110236
21
-4.2420460236220467
0
LINE
8
BLACK
6
CONTINUOUS
10
5.2084127952755903
20
-4.2420460236220467
11
5.2123835039370077
21
-4.2437992519685039
0
LINE
8
BLACK
6
CONTINUOUS
10
5.2123835039370077
20
-4.2437992519685039
11
5.2154527165354327
21
-4.246868464566929
0
LINE
8
BLACK
6
CONTINUOUS
10
5.2154527165354327
20
-4.246868464566929
11
5.2172059448818899
21
-4.2508391732283464
0
LINE
8
BLACK
6
CONTINUOUS
10
5.2172059448818899
20
-4.2508391732283464
11
5.2175196850393704
21
-4.2535433070866144
0
LINE
8
BLACK
6
CONTINUOUS
10
5.2175196850393704
20
-4.2535433070866144
11
5.2175196850393704
21
-4.3401574803149607
0
LINE
8
BLACK
6
CONTINUOUS
10
5.2175196850393704
20
-4.3401574803149607
11
5.2172059448818899
21
-4.3428616141732279
0
LINE
8
BLACK
6
CONTINUOUS
10
5.2172059448818899
20
-4.3428616141732279
11
5.2154527165354327
21
-4.3468323228346453
0
LINE
8
BLACK
6
CONTINUOUS
10
5.2154527165354327
20
-4.3468323228346453
11
5.2123835039370077
21
-4.3499015354330703
0
LINE
8
BLACK
6
CONTINUOUS
10
5.2123835039370077
20
-4.3499015354330703
11
5.2084127952755903
21
-4.3516547637795275
0
LINE
8
BLACK
6
CONTINUOUS
10
5.2084127952755903
20
-4.3516547637795275
11
5.2057086614173231
21
-4.351968503937008
0
LINE
8
BLACK
6
CONTINUOUS
10
5.2057086614173231
20
-4.351968503937008
11
5.1860236220472435
21
-4.351968503937008
0
LINE
8
BLACK
6
CONTINUOUS
10
5.1860236220472435
20
-4.351968503937008
11
5.1833194881889764
21
-4.3516547637795275
0
LINE
8
BLACK
6
CONTINUOUS
10
5.1833194881889764
20
-4.3516547637795275
11
5.179348779527559
21
-4.3499015354330703
0
LINE
8
BLACK
6
CONTINUOUS
10
5.179348779527559
20
-4.3499015354330703
11
5.1762795669291339
21
-4.3468323228346453
0
LINE
8
BLACK
6
CONTINUOUS
10
5.1762795669291339
20
-4.3468323228346453
11
5.1745263385826767
21
-4.3428616141732279
0
LINE
8
BLACK
6
CONTINUOUS
10
5.1745263385826767
20
-4.3428616141732279
11
5.1742125984251963
21
-4.3401574803149607
0
LINE
8
BLACK
6
CONTINUOUS
10
5.1742125984251963
20
-4.3401574803149607
11
5.1742125984251963
21
-4.2535433070866144
0
LINE
8
BLACK
6
CONTINUOUS
10
5.1742125984251963
20
-4.2535433070866144
11
5.1745263385826767
21
-4.2508391732283464
0
LINE
8
BLACK
6
CONTINUOUS
10
5.1745263385826767
20
-4.2508391732283464
11
5.1762795669291339
21
-4.246868464566929
0
LINE
8
BLACK
6
CONTINUOUS
10
5.1762795669291339
20
-4.246868464566929
11
5.179348779527559
21
-4.2437992519685039
0
LINE
8
BLACK
6
CONTINUOUS
10
5.179348779527559
20
-4.2437992519685039
11
5.1833194881889764
21
-4.2420460236220467
0
LINE
8
BLACK
6
CONTINUOUS
10
5.1833194881889764
20
-4.2420460236220467
11
5.1860236220472435
21
-4.2417322834645672
0
LINE
8
BLACK
6
CONTINUOUS
10
5.1860236220472435
20
-4.2417322834645672
11
5.2057086614173231
21
-4.2417322834645672
0
LINE
8
BLACK
6
CONTINUOUS
10
5.2057086614173231
20
-4.2417322834645672
11
5.2084127952755903
21
-4.2420460236220467
0
LINE
8
BLACK
6
CONTINUOUS
10
5.8698301181102357
20
-4.2420460236220467
11
5.873800826771653
21
-4.2437992519685039
0
LINE
8
BLACK
6
CONTINUOUS
10
5.873800826771653
20
-4.2437992519685039
11
5.876870039370079
21
-4.246868464566929
0
LINE
8
BLACK
6
CONTINUOUS
10
5.876870039370079
20
-4.246868464566929
11
5.8786232677165353
21
-4.2508391732283464
0
LINE
8
BLACK
6
CONTINUOUS
10
5.8786232677165353
20
-4.2508391732283464
11
5.8789370078740157
21
-4.2535433070866144
0
LINE
8
BLACK
6
CONTINUOUS
10
5.8789370078740157
20
-4.2535433070866144
11
5.8789370078740157
21
-4.3401574803149607
0
LINE
8
BLACK
6
CONTINUOUS
10
5.8789370078740157
20
-4.3401574803149607
11
5.8786232677165353
21
-4.3428616141732279
0
LINE
8
BLACK
6
CONTINUOUS
10
5.8786232677165353
20
-4.3428616141732279
11
5.876870039370079
21
-4.3468323228346453
0
LINE
8
BLACK
6
CONTINUOUS
10
5.876870039370079
20
-4.3468323228346453
11
5.873800826771653
21
-4.3499015354330703
0
LINE
8
BLACK
6
CONTINUOUS
10
5.873800826771653
20
-4.3499015354330703
11
5.8698301181102357
21
-4.3516547637795275
0
LINE
8
BLACK
6
CONTINUOUS
10
5.8698301181102357
20
-4.3516547637795275
11
5.8671259842519685
21
-4.351968503937008
0
LINE
8
BLACK
6
CONTINUOUS
10
5.8671259842519685
20
-4.351968503937008
11
5.8474409448818898
21
-4.351968503937008
0
LINE
8
BLACK
6
CONTINUOUS
10
5.8474409448818898
20
-4.351968503937008
11
5.8447368110236217
21
-4.3516547637795275
0
LINE
8
BLACK
6
CONTINUOUS
10
5.8447368110236217
20
-4.3516547637795275
11
5.8407661023622044
21
-4.3499015354330703
0
LINE
8
BLACK
6
CONTINUOUS
10
5.8407661023622044
20
-4.3499015354330703
11
5.8376968897637793
21
-4.3468323228346453
0
LINE
8
BLACK
6
CONTINUOUS
10
5.8376968897637793
20
-4.3468323228346453
11
5.835943661417323
21
-4.3428616141732279
0
LINE
8
BLACK
6
CONTINUOUS
10
5.835943661417323
20
-4.3428616141732279
11
5.8356299212598426
21
-4.3401574803149607
0
LINE
8
BLACK
6
CONTINUOUS
10
5.8356299212598426
20
-4.3401574803149607
11
5.8356299212598426
21
-4.2535433070866144
0
LINE
8
BLACK
6
CONTINUOUS
10
5.8356299212598426
20
-4.2535433070866144
11
5.835943661417323
21
-4.2508391732283464
0
LINE
8
BLACK
6
CONTINUOUS
10
5.835943661417323
20
-4.2508391732283464
11
5.8376968897637793
21
-4.246868464566929
0
LINE
8
BLACK
6
CONTINUOUS
10
5.8376968897637793
20
-4.246868464566929
11
5.8407661023622044
21
-4.2437992519685039
0
LINE
8
BLACK
6
CONTINUOUS
10
5.8407661023622044
20
-4.2437992519685039
11
5.8447368110236217
21
-4.2420460236220467
0
LINE
8
BLACK
6
CONTINUOUS
10
5.8447368110236217
20
-4.2420460236220467
11
5.8474409448818898
21
-4.2417322834645672
0
LINE
8
BLACK
6
CONTINUOUS
10
5.8474409448818898
20
-4.2417322834645672
11
5.8671259842519685
21
-4.2417322834645672
0
LINE
8
BLACK
6
CONTINUOUS
10
5.8671259842519685
20
-4.2417322834645672
11
5.8698301181102357
21
-4.2420460236220467
0
LINE
8
BLACK
6
CONTINUOUS
10
6.3599875984251968
20
-4.2420460236220467
11
6.3639583070866141
21
-4.2437992519685039
0
LINE
8
BLACK
6
CONTINUOUS
10
6.3639583070866141
20
-4.2437992519685039
11
6.3670275196850392
21
-4.246868464566929
0
LINE
8
BLACK
6
CONTINUOUS
10
6.3670275196850392
20
-4.246868464566929
11
6.3687807480314955
21
-4.2508391732283464
0
LINE
8
BLACK
6
CONTINUOUS
10
6.3687807480314955
20
-4.2508391732283464
11
6.3690944881889759
21
-4.2535433070866144
0
LINE
8
BLACK
6
CONTINUOUS
10
6.3690944881889759
20
-4.2535433070866144
11
6.3690944881889759
21
-4.3401574803149607
0
LINE
8
BLACK
6
CONTINUOUS
10
6.3690944881889759
20
-4.3401574803149607
11
6.3687807480314955
21
-4.3428616141732279
0
LINE
8
BLACK
6
CONTINUOUS
10
6.3687807480314955
20
-4.3428616141732279
11
6.3670275196850392
21
-4.3468323228346453
0
LINE
8
BLACK
6
CONTINUOUS
10
6.3670275196850392
20
-4.3468323228346453
11
6.3639583070866141
21
-4.3499015354330703
0
LINE
8
BLACK
6
CONTINUOUS
10
6.3639583070866141
20
-4.3499015354330703
11
6.3599875984251968
21
-4.3516547637795275
0
LINE
8
BLACK
6
CONTINUOUS
10
6.3599875984251968
20
-4.3516547637795275
11
6.3572834645669287
21
-4.351968503937008
0
LINE
8
BLACK
6
CONTINUOUS
10
6.3572834645669287
20
-4.351968503937008
11
6.33759842519685
21
-4.351968503937008
0
LINE
8
BLACK
6
CONTINUOUS
10
6.33759842519685
20
-4.351968503937008
11
6.3348942913385828
21
-4.3516547637795275
0
LINE
8
BLACK
6
CONTINUOUS
10
6.3348942913385828
20
-4.3516547637795275
11
6.3309235826771655
21
-4.3499015354330703
0
LINE
8
BLACK
6
CONTINUOUS
10
6.3309235826771655
20
-4.3499015354330703
11
6.3278543700787404
21
-4.3468323228346453
0
LINE
8
BLACK
6
CONTINUOUS
10
6.3278543700787404
20
-4.3468323228346453
11
6.3261011417322832
21
-4.3428616141732279
0
LINE
8
BLACK
6
CONTINUOUS
10
6.3261011417322832
20
-4.3428616141732279
11
6.3257874015748028
21
-4.3401574803149607
0
LINE
8
BLACK
6
CONTINUOUS
10
6.3257874015748028
20
-4.3401574803149607
11
6.3257874015748028
21
-4.2535433070866144
0
LINE
8
BLACK
6
CONTINUOUS
10
6.3257874015748028
20
-4.2535433070866144
11
6.3261011417322832
21
-4.2508391732283464
0
LINE
8
BLACK
6
CONTINUOUS
10
6.3261011417322832
20
-4.2508391732283464
11
6.3278543700787404
21
-4.246868464566929
0
LINE
8
BLACK
6
CONTINUOUS
10
6.3278543700787404
20
-4.246868464566929
11
6.3309235826771655
21
-4.2437992519685039
0
LINE
8
BLACK
6
CONTINUOUS
10
6.3309235826771655
20
-4.2437992519685039
11
6.3348942913385828
21
-4.2420460236220467
0
LINE
8
BLACK
6
CONTINUOUS
10
6.3348942913385828
20
-4.2420460236220467
11
6.33759842519685
21
-4.2417322834645672
0
LINE
8
BLACK
6
CONTINUOUS
10
6.33759842519685
20
-4.2417322834645672
11
6.3572834645669287
21
-4.2417322834645672
0
LINE
8
BLACK
6
CONTINUOUS
10
6.3572834645669287
20
-4.2417322834645672
11
6.3599875984251968
21
-4.2420460236220467
0
CIRCLE
8
BLACK
10
4.4424665354330708
20
-4.6279311023622043
40
0.0068897637795276
0
CIRCLE
8
BLACK
10
4.5424665354330704
20
-4.6279311023622043
40
0.0068897637795276
0
CIRCLE
8
BLACK
10
4.642466535433071
20
-4.6279311023622043
40
0.0068897637795276
0
CIRCLE
8
BLACK
10
4.7424665354330706
20
-4.6279311023622043
40
0.0068897637795276
0
CIRCLE
8
BLACK
10
4.8424665354330712
20
-4.6279311023622043
40
0.0068897637795276
0
CIRCLE
8
BLACK
10
4.9424665354330708
20
-4.6279311023622043
40
0.0068897637795276
0
CIRCLE
8
BLACK
10
5.0424665354330704
20
-4.6279311023622043
40
0.0068897637795276
0
CIRCLE
8
BLACK
10
5.142466535433071
20
-4.6279311023622043
40
0.0068897637795276
0
CIRCLE
8
BLACK
10
5.8424665354330712
20
-4.6279311023622043
40
0.0068897637795276
0
CIRCLE
8
BLACK
10
5.9424665354330708
20
-4.6279311023622043
40
0.0068897637795276
0
CIRCLE
8
BLACK
10
6.0424665354330704
20
-4.6279311023622043
40
0.0068897637795276
0
CIRCLE
8
BLACK
10
6.142466535433071
20
-4.6279311023622043
40
0.0068897637795276
0
CIRCLE
8
BLACK
10
6.2424665354330706
20
-4.6279311023622043
40
0.0068897637795276
0
CIRCLE
8
BLACK
10
6.3424665354330712
20
-4.6279311023622043
40
0.0068897637795276
0
CIRCLE
8
BLACK
10
6.4424665354330708
20
-4.6279311023622043
40
0.0068897637795276
0
CIRCLE
8
BLACK
10
6.5424665354330704
20
-4.6279311023622043
40
0.0068897637795276
0
CIRCLE
8
BLACK
10
6.642466535433071
20
-4.6279311023622043
40
0.0068897637795276
0
CIRCLE
8
BLACK
10
6.7424665354330706
20
-4.6279311023622043
40
0.0068897637795276
0
CIRCLE
8
BLACK
10
5.5800000000000001
20
-4.6626377952755904
40
0.0068897637795276
0
CIRCLE
8
BLACK
10
5.4799999999999995
20
-4.6626377952755904
40
0.0068897637795276
0
CIRCLE
8
BLACK
10
5.3799999999999999
20
-4.6626377952755904
40
0.0068897637795276
0
CIRCLE
8
WHITE
10
4.4424665354330708
20
-4.6279311023622043
40
0.0068897637795276
0
CIRCLE
8
WHITE
10
4.5424665354330704
20
-4.6279311023622043
40
0.0068897637795276
0
CIRCLE
8
WHITE
10
4.642466535433071
20
-4.6279311023622043
40
0.0068897637795276
0
CIRCLE
8
WHITE
10
4.7424665354330706
20
-4.6279311023622043
40
0.0068897637795276
0
CIRCLE
8
WHITE
10
4.8424665354330712
20
-4.6279311023622043
40
0.0068897637795276
0
CIRCLE
8
WHITE
10
4.9424665354330708
20
-4.6279311023622043
40
0.0068897637795276
0
CIRCLE
8
WHITE
10
5.0424665354330704
20
-4.6279311023622043
40
0.0068897637795276
0
CIRCLE
8
WHITE
10
5.142466535433071
20
-4.6279311023622043
40
0.0068897637795276
0
CIRCLE
8
WHITE
10
5.8424665354330712
20
-4.6279311023622043
40
0.0068897637795276
0
CIRCLE
8
WHITE
10
5.9424665354330708
20
-4.6279311023622043
40
0.0068897637795276
0
CIRCLE
8
WHITE
10
6.0424665354330704
20
-4.6279311023622043
40
0.0068897637795276
0
CIRCLE
8
WHITE
10
6.142466535433071
20
-4.6279311023622043
40
0.0068897637795276
0
CIRCLE
8
WHITE
10
6.2424665354330706
20
-4.6279311023622043
40
0.0068897637795276
0
CIRCLE
8
WHITE
10
6.3424665354330712
20
-4.6279311023622043
40
0.0068897637795276
0
CIRCLE
8
WHITE
10
6.4424665354330708
20
-4.6279311023622043
40
0.0068897637795276
0
CIRCLE
8
WHITE
10
6.5424665354330704
20
-4.6279311023622043
40
0.0068897637795276
0
CIRCLE
8
WHITE
10
6.642466535433071
20
-4.6279311023622043
40
0.0068897637795276
0
CIRCLE
8
WHITE
10
6.7424665354330706
20
-4.6279311023622043
40
0.0068897637795276
0
CIRCLE
8
WHITE
10
5.5800000000000001
20
-4.6626377952755904
40
0.0068897637795276
0
CIRCLE
8
WHITE
10
5.4799999999999995
20
-4.6626377952755904
40
0.0068897637795276
0
CIRCLE
8
WHITE
10
5.3799999999999999
20
-4.6626377952755904
40
0.0068897637795276
  0
ENDSEC
  0
EOF
