  0
SECTION
  2
HEADER
  9
$ANGBASE
  50
0.0
  9
$ANGDIR
  70
1
  9
$MEASUREMENT
  70
0
  0
ENDSEC
  0
SECTION
  2
TABLES
  0
TABLE
  2
LTYPE
  70
4
  0
LTYPE
  5
40F
  2
CONTINUOUS
  70
0
  3
Solid line
  72
65
  73
0
  40
0.0
  0
LTYPE
  5
410
  2
DASHDOT
 70
0
  3
Dash Dot ____ _ ____ _
 72
65
 73
4
 40
2.0
 49
1.25
 49
-0.25
 49
0.25
 49
-0.25
  0
LTYPE
  5
411
  2
DASHED
 70
0
  3
Dashed __ __ __ __ __
 72
65
 73
2
 40
0.75
 49
0.5
 49
-0.25
  0
LTYPE
  5
43B
  2
DOTTED
 70
0
  3
Dotted .  .  .  .
 72
65
 73
2
 40
0.2
 49
0.0
 49
-0.2
  0
ENDTAB
  0
TABLE
  2
STYLE
  70
4
  0
STYLE
  2
KICAD
  70
0
  40
0
  41
1
  42
1
  50
0
  71
0
  3
isocp.shx
  0
STYLE
  2
KICADB
  70
0
  40
0
  41
1
  42
1
  50
0
  71
0
  3
isocp.shx
  0
STYLE
  2
KICADI
  70
0
  40
0
  41
1
  42
1
  50
15
  71
0
  3
isocp.shx
  0
STYLE
  2
KICADBI
  70
0
  40
0
  41
1
  42
1
  50
15
  71
0
  3
isocp.shx
  0
ENDTAB
  0
TABLE
  2
LAYER
  70
1
  0
LAYER
  2
BLACK
  70
0
  62
7
  6
CONTINUOUS
  0
ENDTAB
  0
ENDSEC
  0
SECTION
  2
ENTITIES
0
LINE
8
BLACK
6
CONTINUOUS
10
5.6531300393700787
20
-4.5493715748031498
11
5.6541020472440939
21
-4.5494405511811022
0
LINE
8
BLACK
6
CONTINUOUS
10
5.6541020472440939
20
-4.5494405511811022
11
5.6546124409448817
21
-4.5495662992125983
0
LINE
8
BLACK
6
CONTINUOUS
10
5.6546124409448817
20
-4.5495662992125983
11
5.6547488976377949
21
-4.5497416141732279
0
LINE
8
BLACK
6
CONTINUOUS
10
5.6547488976377949
20
-4.5497416141732279
11
5.6546856692913385
21
-4.5501622834645667
0
LINE
8
BLACK
6
CONTINUOUS
10
5.6546856692913385
20
-4.5501622834645667
11
5.6545061417322833
21
-4.5512402755905512
0
LINE
8
BLACK
6
CONTINUOUS
10
5.6545061417322833
20
-4.5512402755905512
11
5.6542198425196846
21
-4.5529208267716532
0
LINE
8
BLACK
6
CONTINUOUS
10
5.6542198425196846
20
-4.5529208267716532
11
5.6538362204724404
21
-4.555149251968504
0
LINE
8
BLACK
6
CONTINUOUS
10
5.6538362204724404
20
-4.555149251968504
11
5.6533648031496062
21
-4.5578707480314957
0
LINE
8
BLACK
6
CONTINUOUS
10
5.6533648031496062
20
-4.5578707480314957
11
5.6528151181102357
21
-4.5610306692913385
0
LINE
8
BLACK
6
CONTINUOUS
10
5.6528151181102357
20
-4.5610306692913385
11
5.6521966535433066
21
-4.5645742125984254
0
LINE
8
BLACK
6
CONTINUOUS
10
5.6521966535433066
20
-4.5645742125984254
11
5.6515189370078742
21
-4.5684466535433073
0
LINE
8
BLACK
6
CONTINUOUS
10
5.6515189370078742
20
-4.5684466535433073
11
5.6507914566929136
21
-4.572593346456693
0
LINE
8
BLACK
6
CONTINUOUS
10
5.6507914566929136
20
-4.572593346456693
11
5.6500237401574802
21
-4.5769594488188972
0
LINE
8
BLACK
6
CONTINUOUS
10
5.6500237401574802
20
-4.5769594488188972
11
5.6497695669291339
21
-4.578402755905512
0
LINE
8
BLACK
6
CONTINUOUS
10
5.6497695669291339
20
-4.578402755905512
11
5.6448020472440943
21
-4.6066023228346458
0
LINE
8
BLACK
6
CONTINUOUS
10
5.6448020472440943
20
-4.6066023228346458
11
5.6340864566929136
21
-4.6068027952755903
0
LINE
8
BLACK
6
CONTINUOUS
10
5.6340864566929136
20
-4.6068027952755903
11
5.6343206299212598
21
-4.6054372047244092
0
LINE
8
BLACK
6
CONTINUOUS
10
5.6343206299212598
20
-4.6054372047244092
11
5.6344197244094483
21
-4.604868070866142
0
LINE
8
BLACK
6
CONTINUOUS
10
5.6344197244094483
20
-4.604868070866142
11
5.6346337795275589
21
-4.6036449606299215
0
LINE
8
BLACK
6
CONTINUOUS
10
5.6346337795275589
20
-4.6036449606299215
11
5.6349525590551179
21
-4.6018259448818899
0
LINE
8
BLACK
6
CONTINUOUS
10
5.6349525590551179
20
-4.6018259448818899
11
5.6353659448818894
21
-4.5994692125984251
0
LINE
8
BLACK
6
CONTINUOUS
10
5.6353659448818894
20
-4.5994692125984251
11
5.6358636614173223
21
-4.5966328740157483
0
LINE
8
BLACK
6
CONTINUOUS
10
5.6358636614173223
20
-4.5966328740157483
11
5.6364355118110234
21
-4.5933750787401575
0
LINE
8
BLACK
6
CONTINUOUS
10
5.6364355118110234
20
-4.5933750787401575
11
5.6370712992125984
21
-4.5897539763779527
0
LINE
8
BLACK
6
CONTINUOUS
10
5.6370712992125984
20
-4.5897539763779527
11
5.6377608661417318
21
-4.5858277165354329
0
LINE
8
BLACK
6
CONTINUOUS
10
5.6377608661417318
20
-4.5858277165354329
11
5.6384939370078735
21
-4.5816544094488192
0
LINE
8
BLACK
6
CONTINUOUS
10
5.6384939370078735
20
-4.5816544094488192
11
5.6392603149606302
21
-4.577292165354331
0
LINE
8
BLACK
6
CONTINUOUS
10
5.6392603149606302
20
-4.577292165354331
11
5.6393510629921257
21
-4.5767758661417322
0
LINE
8
BLACK
6
CONTINUOUS
10
5.6393510629921257
20
-4.5767758661417322
11
5.6441472834645667
21
-4.5494801181102362
0
LINE
8
BLACK
6
CONTINUOUS
10
5.6441472834645667
20
-4.5494801181102362
11
5.649453976377953
21
-4.5493800787401577
0
LINE
8
BLACK
6
CONTINUOUS
10
5.649453976377953
20
-4.5493800787401577
11
5.6516096062992123
21
-4.5493533858267714
0
LINE
8
BLACK
6
CONTINUOUS
10
5.6516096062992123
20
-4.5493533858267714
11
5.6531300393700787
21
-4.5493715748031498
0
LINE
8
BLACK
6
CONTINUOUS
10
5.6060002362204724
20
-4.5493453543307085
11
5.6077655118110235
21
-4.5493659448818899
0
LINE
8
BLACK
6
CONTINUOUS
10
5.6077655118110235
20
-4.5493659448818899
11
5.6085551181102362
21
-4.5493798031496064
0
LINE
8
BLACK
6
CONTINUOUS
10
5.6085551181102362
20
-4.5493798031496064
11
5.6137877952755906
21
-4.5494801181102362
0
LINE
8
BLACK
6
CONTINUOUS
10
5.6137877952755906
20
-4.5494801181102362
11
5.6093433464566926
21
-4.5747874409448821
0
LINE
8
BLACK
6
CONTINUOUS
10
5.6093433464566926
20
-4.5747874409448821
11
5.6085910236220471
21
-4.579070275590551
0
LINE
8
BLACK
6
CONTINUOUS
10
5.6085910236220471
20
-4.579070275590551
11
5.6078617322834647
21
-4.5832200787401574
0
LINE
8
BLACK
6
CONTINUOUS
10
5.6078617322834647
20
-4.5832200787401574
11
5.6071672440944882
21
-4.5871698818897633
0
LINE
8
BLACK
6
CONTINUOUS
10
5.6071672440944882
20
-4.5871698818897633
11
5.6065193700787397
21
-4.5908527559055115
0
LINE
8
BLACK
6
CONTINUOUS
10
5.6065193700787397
20
-4.5908527559055115
11
5.6059298818897636
21
-4.5942017322834641
0
LINE
8
BLACK
6
CONTINUOUS
10
5.6059298818897636
20
-4.5942017322834641
11
5.6054105905511813
21
-4.5971498425196851
0
LINE
8
BLACK
6
CONTINUOUS
10
5.6054105905511813
20
-4.5971498425196851
11
5.6049732283464566
21
-4.5996301574803145
0
LINE
8
BLACK
6
CONTINUOUS
10
5.6049732283464566
20
-4.5996301574803145
11
5.6046296456692914
21
-4.6015757480314958
0
LINE
8
BLACK
6
CONTINUOUS
10
5.6046296456692914
20
-4.6015757480314958
11
5.6043916141732284
21
-4.6029196456692913
0
LINE
8
BLACK
6
CONTINUOUS
10
5.6043916141732284
20
-4.6029196456692913
11
5.6042990551181102
21
-4.6034388976377949
0
LINE
8
BLACK
6
CONTINUOUS
10
5.6042990551181102
20
-4.6034388976377949
11
5.6036991732283461
21
-4.6067831102362202
0
LINE
8
BLACK
6
CONTINUOUS
10
5.6036991732283461
20
-4.6067831102362202
11
5.5984996456692908
21
-4.6067831102362202
0
LINE
8
BLACK
6
CONTINUOUS
10
5.5984996456692908
20
-4.6067831102362202
11
5.5964673228346458
21
-4.6067789370078742
0
LINE
8
BLACK
6
CONTINUOUS
10
5.5964673228346458
20
-4.6067789370078742
11
5.5950481102362204
21
-4.6067556299212598
0
LINE
8
BLACK
6
CONTINUOUS
10
5.5950481102362204
20
-4.6067556299212598
11
5.5941320078740153
21
-4.6066968503937007
0
LINE
8
BLACK
6
CONTINUOUS
10
5.5941320078740153
20
-4.6066968503937007
11
5.5936090944881887
21
-4.6065861811023625
0
LINE
8
BLACK
6
CONTINUOUS
10
5.5936090944881887
20
-4.6065861811023625
11
5.5933693307086614
21
-4.6064073622047239
0
LINE
8
BLACK
6
CONTINUOUS
10
5.5933693307086614
20
-4.6064073622047239
11
5.5933028346456695
21
-4.606143976377953
0
LINE
8
BLACK
6
CONTINUOUS
10
5.5933028346456695
20
-4.606143976377953
11
5.5933001181102364
21
-4.6060105905511808
0
LINE
8
BLACK
6
CONTINUOUS
10
5.5933001181102364
20
-4.6060105905511808
11
5.593360748031496
21
-4.6055511811023617
0
LINE
8
BLACK
6
CONTINUOUS
10
5.593360748031496
20
-4.6055511811023617
11
5.5935350393700789
21
-4.6044534645669293
0
LINE
8
BLACK
6
CONTINUOUS
10
5.5935350393700789
20
-4.6044534645669293
11
5.5938114960629921
21
-4.6027829133858269
0
LINE
8
BLACK
6
CONTINUOUS
10
5.5938114960629921
20
-4.6027829133858269
11
5.594178661417323
21
-4.6006052362204723
0
LINE
8
BLACK
6
CONTINUOUS
10
5.594178661417323
20
-4.6006052362204723
11
5.5946249999999997
21
-4.5979859055118109
0
LINE
8
BLACK
6
CONTINUOUS
10
5.5946249999999997
20
-4.5979859055118109
11
5.5951390944881885
21
-4.5949905905511814
0
LINE
8
BLACK
6
CONTINUOUS
10
5.5951390944881885
20
-4.5949905905511814
11
5.5957094488188979
21
-4.5916848031496063
0
LINE
8
BLACK
6
CONTINUOUS
10
5.5957094488188979
20
-4.5916848031496063
11
5.5963245669291339
21
-4.5881341732283465
0
LINE
8
BLACK
6
CONTINUOUS
10
5.5963245669291339
20
-4.5881341732283465
11
5.5969729527559053
21
-4.584404251968504
0
LINE
8
BLACK
6
CONTINUOUS
10
5.5969729527559053
20
-4.584404251968504
11
5.5976431889763782
21
-4.5805606299212593
0
LINE
8
BLACK
6
CONTINUOUS
10
5.5976431889763782
20
-4.5805606299212593
11
5.5983237795275587
21
-4.5766688976377949
0
LINE
8
BLACK
6
CONTINUOUS
10
5.5983237795275587
20
-4.5766688976377949
11
5.5990031889763774
21
-4.5727946456692914
0
LINE
8
BLACK
6
CONTINUOUS
10
5.5990031889763774
20
-4.5727946456692914
11
5.5996700393700785
21
-4.5690034251968505
0
LINE
8
BLACK
6
CONTINUOUS
10
5.5996700393700785
20
-4.5690034251968505
11
5.6003127559055113
21
-4.5653607874015751
0
LINE
8
BLACK
6
CONTINUOUS
10
5.6003127559055113
20
-4.5653607874015751
11
5.6009198818897641
21
-4.5619324015748033
0
LINE
8
BLACK
6
CONTINUOUS
10
5.6009198818897641
20
-4.5619324015748033
11
5.6014799999999996
21
-4.558783779527559
0
LINE
8
BLACK
6
CONTINUOUS
10
5.6014799999999996
20
-4.558783779527559
11
5.6019815748031494
21
-4.5559805118110237
0
LINE
8
BLACK
6
CONTINUOUS
10
5.6019815748031494
20
-4.5559805118110237
11
5.6024131496062992
21
-4.5535882283464568
0
LINE
8
BLACK
6
CONTINUOUS
10
5.6024131496062992
20
-4.5535882283464568
11
5.6027632283464568
21
-4.5516724409448814
0
LINE
8
BLACK
6
CONTINUOUS
10
5.6027632283464568
20
-4.5516724409448814
11
5.6030203149606299
21
-4.5502987795275587
0
LINE
8
BLACK
6
CONTINUOUS
10
5.6030203149606299
20
-4.5502987795275587
11
5.6031729921259839
21
-4.5495327952755904
0
LINE
8
BLACK
6
CONTINUOUS
10
5.6031729921259839
20
-4.5495327952755904
11
5.6032096850393698
21
-4.5493922047244091
0
LINE
8
BLACK
6
CONTINUOUS
10
5.6032096850393698
20
-4.5493922047244091
11
5.6035914960629922
21
-4.5493587795275587
0
LINE
8
BLACK
6
CONTINUOUS
10
5.6035914960629922
20
-4.5493587795275587
11
5.6045652755905513
21
-4.5493430708661418
0
LINE
8
BLACK
6
CONTINUOUS
10
5.6045652755905513
20
-4.5493430708661418
11
5.6060002362204724
21
-4.5493453543307085
0
LINE
8
BLACK
6
CONTINUOUS
10
5.6961674015748027
20
-4.5501127952755906
11
5.6960769685039372
21
-4.5505927559055115
0
LINE
8
BLACK
6
CONTINUOUS
10
5.6960769685039372
20
-4.5505927559055115
11
5.6958723622047245
21
-4.5517279527559058
0
LINE
8
BLACK
6
CONTINUOUS
10
5.6958723622047245
20
-4.5517279527559058
11
5.6955637007874014
21
-4.553461338582677
0
LINE
8
BLACK
6
CONTINUOUS
10
5.6955637007874014
20
-4.553461338582677
11
5.6951610236220471
21
-4.555735866141732
0
LINE
8
BLACK
6
CONTINUOUS
10
5.6951610236220471
20
-4.555735866141732
11
5.6946743307086614
21
-4.558494488188976
0
LINE
8
BLACK
6
CONTINUOUS
10
5.6946743307086614
20
-4.558494488188976
11
5.69411374015748
21
-4.5616800787401575
0
LINE
8
BLACK
6
CONTINUOUS
10
5.69411374015748
20
-4.5616800787401575
11
5.6934892913385822
21
-4.5652356692913383
0
LINE
8
BLACK
6
CONTINUOUS
10
5.6934892913385822
20
-4.5652356692913383
11
5.6928110236220473
21
-4.5691041338582679
0
LINE
8
BLACK
6
CONTINUOUS
10
5.6928110236220473
20
-4.5691041338582679
11
5.6920889763779527
21
-4.5732284251968505
0
LINE
8
BLACK
6
CONTINUOUS
10
5.6920889763779527
20
-4.5732284251968505
11
5.6913331889763779
21
-4.5775514566929134
0
LINE
8
BLACK
6
CONTINUOUS
10
5.6913331889763779
20
-4.5775514566929134
11
5.6912792125984248
21
-4.5778604724409444
0
LINE
8
BLACK
6
CONTINUOUS
10
5.6912792125984248
20
-4.5778604724409444
11
5.6905205905511806
21
-4.5822008267716532
0
LINE
8
BLACK
6
CONTINUOUS
10
5.6905205905511806
20
-4.5822008267716532
11
5.6897944094488189
21
-4.586350551181102
0
LINE
8
BLACK
6
CONTINUOUS
10
5.6897944094488189
20
-4.586350551181102
11
5.6891107874015745
21
-4.5902520472440944
0
LINE
8
BLACK
6
CONTINUOUS
10
5.6891107874015745
20
-4.5902520472440944
11
5.6884798425196852
21
-4.5938477559055118
0
LINE
8
BLACK
6
CONTINUOUS
10
5.6884798425196852
20
-4.5938477559055118
11
5.6879117322834647
21
-4.5970801574803151
0
LINE
8
BLACK
6
CONTINUOUS
10
5.6879117322834647
20
-4.5970801574803151
11
5.687416535433071
21
-4.5998916141732282
0
LINE
8
BLACK
6
CONTINUOUS
10
5.687416535433071
20
-4.5998916141732282
11
5.6870044488188976
21
-4.602224645669291
0
LINE
8
BLACK
6
CONTINUOUS
10
5.6870044488188976
20
-4.602224645669291
11
5.6866855511811023
21
-4.6040216535433069
0
LINE
8
BLACK
6
CONTINUOUS
10
5.6866855511811023
20
-4.6040216535433069
11
5.6864699999999999
21
-4.6052250393700787
0
LINE
8
BLACK
6
CONTINUOUS
10
5.6864699999999999
20
-4.6052250393700787
11
5.6863678740157475
21
-4.6057772834645672
0
LINE
8
BLACK
6
CONTINUOUS
10
5.6863678740157475
20
-4.6057772834645672
11
5.6863655118110232
21
-4.605788858267716
0
LINE
8
BLACK
6
CONTINUOUS
10
5.6863655118110232
20
-4.605788858267716
11
5.6861566141732283
21
-4.6067831102362202
0
LINE
8
BLACK
6
CONTINUOUS
10
5.6861566141732283
20
-4.6067831102362202
11
5.6809431102362202
21
-4.6067831102362202
0
LINE
8
BLACK
6
CONTINUOUS
10
5.6809431102362202
20
-4.6067831102362202
11
5.6787725196850394
21
-4.6067665748031494
0
LINE
8
BLACK
6
CONTINUOUS
10
5.6787725196850394
20
-4.6067665748031494
11
5.6772452362204726
21
-4.6067124803149602
0
LINE
8
BLACK
6
CONTINUOUS
10
5.6772452362204726
20
-4.6067124803149602
11
5.6762822047244095
21
-4.6066139370078742
0
LINE
8
BLACK
6
CONTINUOUS
10
5.6762822047244095
20
-4.6066139370078742
11
5.6758043700787404
21
-4.6064641338582675
0
LINE
8
BLACK
6
CONTINUOUS
10
5.6758043700787404
20
-4.6064641338582675
11
5.6757162204724407
21
-4.6063311811023624
0
LINE
8
BLACK
6
CONTINUOUS
10
5.6757162204724407
20
-4.6063311811023624
11
5.6757751968503936
21
-4.6059120866141727
0
LINE
8
BLACK
6
CONTINUOUS
10
5.6757751968503936
20
-4.6059120866141727
11
5.6759501181102365
21
-4.6048355118110234
0
LINE
8
BLACK
6
CONTINUOUS
10
5.6759501181102365
20
-4.6048355118110234
11
5.6762315748031495
21
-4.6031560629921255
0
LINE
8
BLACK
6
CONTINUOUS
10
5.6762315748031495
20
-4.6031560629921255
11
5.6766101968503939
21
-4.6009283858267711
0
LINE
8
BLACK
6
CONTINUOUS
10
5.6766101968503939
20
-4.6009283858267711
11
5.6770765748031495
21
-4.5982070866141731
0
LINE
8
BLACK
6
CONTINUOUS
10
5.6770765748031495
20
-4.5982070866141731
11
5.6776212992125981
21
-4.5950467716535428
0
LINE
8
BLACK
6
CONTINUOUS
10
5.6776212992125981
20
-4.5950467716535428
11
5.6782349606299212
21
-4.5915020866141729
0
LINE
8
BLACK
6
CONTINUOUS
10
5.6782349606299212
20
-4.5915020866141729
11
5.6789081889763775
21
-4.5876276377952756
0
LINE
8
BLACK
6
CONTINUOUS
10
5.6789081889763775
20
-4.5876276377952756
11
5.6796315748031496
21
-4.5834781102362205
0
LINE
8
BLACK
6
CONTINUOUS
10
5.6796315748031496
20
-4.5834781102362205
11
5.6803957086614174
21
-4.5791080314960633
0
LINE
8
BLACK
6
CONTINUOUS
10
5.6803957086614174
20
-4.5791080314960633
11
5.6806618110236222
21
-4.5775892913385823
0
LINE
8
BLACK
6
CONTINUOUS
10
5.6806618110236222
20
-4.5775892913385823
11
5.6856207480314955
21
-4.5492993700787396
0
LINE
8
BLACK
6
CONTINUOUS
10
5.6856207480314955
20
-4.5492993700787396
11
5.6963507480314961
21
-4.5492993700787396
0
LINE
8
BLACK
6
CONTINUOUS
10
5.6963507480314961
20
-4.5492993700787396
11
5.6961674015748027
21
-4.5501127952755906
0
LINE
8
BLACK
6
CONTINUOUS
10
5.3496269291338585
20
-4.4950335826771655
11
5.3496357480314956
21
-4.4991123228346455
0
LINE
8
BLACK
6
CONTINUOUS
10
5.3496357480314956
20
-4.4991123228346455
11
5.3496612598425193
21
-4.5028735826771653
0
LINE
8
BLACK
6
CONTINUOUS
10
5.3496612598425193
20
-4.5028735826771653
11
5.3497022440944884
21
-4.5062522440944877
0
LINE
8
BLACK
6
CONTINUOUS
10
5.3497022440944884
20
-4.5062522440944877
11
5.3497574015748031
21
-4.5091830314960628
0
LINE
8
BLACK
6
CONTINUOUS
10
5.3497574015748031
20
-4.5091830314960628
11
5.3498254330708663
21
-4.5116007874015747
0
LINE
8
BLACK
6
CONTINUOUS
10
5.3498254330708663
20
-4.5116007874015747
11
5.3499050393700784
21
-4.5134403543307089
0
LINE
8
BLACK
6
CONTINUOUS
10
5.3499050393700784
20
-4.5134403543307089
11
5.3499949999999998
21
-4.5146364566929131
0
LINE
8
BLACK
6
CONTINUOUS
10
5.3499949999999998
20
-4.5146364566929131
11
5.350016102362205
21
-4.514807086614173
0
LINE
8
BLACK
6
CONTINUOUS
10
5.350016102362205
20
-4.514807086614173
11
5.3506909842519681
21
-4.5181374803149605
0
LINE
8
BLACK
6
CONTINUOUS
10
5.3506909842519681
20
-4.5181374803149605
11
5.3517246062992125
21
-4.5208556692913389
0
LINE
8
BLACK
6
CONTINUOUS
10
5.3517246062992125
20
-4.5208556692913389
11
5.3531523622047246
21
-4.52299625984252
0
LINE
8
BLACK
6
CONTINUOUS
10
5.3531523622047246
20
-4.52299625984252
11
5.355009842519685
21
-4.5245938582677168
0
LINE
8
BLACK
6
CONTINUOUS
10
5.355009842519685
20
-4.5245938582677168
11
5.3573325196850394
21
-4.5256829921259838
0
LINE
8
BLACK
6
CONTINUOUS
10
5.3573325196850394
20
-4.5256829921259838
11
5.3601559055118111
21
-4.5262983858267711
0
LINE
8
BLACK
6
CONTINUOUS
10
5.3601559055118111
20
-4.5262983858267711
11
5.3619598818897636
21
-4.5264485039370079
0
LINE
8
BLACK
6
CONTINUOUS
10
5.3619598818897636
20
-4.5264485039370079
11
5.3652571259842521
21
-4.5263769685039366
0
LINE
8
BLACK
6
CONTINUOUS
10
5.3652571259842521
20
-4.5263769685039366
11
5.3680333464566932
21
-4.5258240944881889
0
LINE
8
BLACK
6
CONTINUOUS
10
5.3680333464566932
20
-4.5258240944881889
11
5.3703335826771657
21
-4.524758503937008
0
LINE
8
BLACK
6
CONTINUOUS
10
5.3703335826771657
20
-4.524758503937008
11
5.3722027952755909
21
-4.5231488976377952
0
LINE
8
BLACK
6
CONTINUOUS
10
5.3722027952755909
20
-4.5231488976377952
11
5.3736859055118105
21
-4.5209639763779528
0
LINE
8
BLACK
6
CONTINUOUS
10
5.3736859055118105
20
-4.5209639763779528
11
5.3748279133858263
21
-4.5181723622047247
0
LINE
8
BLACK
6
CONTINUOUS
10
5.3748279133858263
20
-4.5181723622047247
11
5.375085236220472
21
-4.5173046456692916
0
LINE
8
BLACK
6
CONTINUOUS
10
5.375085236220472
20
-4.5173046456692916
11
5.3752443307086617
21
-4.5166831889763781
0
LINE
8
BLACK
6
CONTINUOUS
10
5.3752443307086617
20
-4.5166831889763781
11
5.3753787401574806
21
-4.5160196456692914
0
LINE
8
BLACK
6
CONTINUOUS
10
5.3753787401574806
20
-4.5160196456692914
11
5.375491141732283
21
-4.5152468110236219
0
LINE
8
BLACK
6
CONTINUOUS
10
5.375491141732283
20
-4.5152468110236219
11
5.3755843307086613
21
-4.5142976377952753
0
LINE
8
BLACK
6
CONTINUOUS
10
5.3755843307086613
20
-4.5142976377952753
11
5.3756609448818899
21
-4.5131050393700782
0
LINE
8
BLACK
6
CONTINUOUS
10
5.3756609448818899
20
-4.5131050393700782
11
5.3757237795275588
21
-4.511601850393701
0
LINE
8
BLACK
6
CONTINUOUS
10
5.3757237795275588
20
-4.511601850393701
11
5.3757755118110238
21
-4.5097209842519685
0
LINE
8
BLACK
6
CONTINUOUS
10
5.3757755118110238
20
-4.5097209842519685
11
5.375818897637795
21
-4.5073953543307086
0
LINE
8
BLACK
6
CONTINUOUS
10
5.375818897637795
20
-4.5073953543307086
11
5.3758565748031497
21
-4.5045577952755904
0
LINE
8
BLACK
6
CONTINUOUS
10
5.3758565748031497
20
-4.5045577952755904
11
5.3758913385826768
21
-4.5011412598425196
0
LINE
8
BLACK
6
CONTINUOUS
10
5.3758913385826768
20
-4.5011412598425196
11
5.3759259055118109
21
-4.4970785826771653
0
LINE
8
BLACK
6
CONTINUOUS
10
5.3759259055118109
20
-4.4970785826771653
11
5.3759311023622045
21
-4.4964251574803145
0
LINE
8
BLACK
6
CONTINUOUS
10
5.3759311023622045
20
-4.4964251574803145
11
5.3760763779527556
21
-4.4780773622047247
0
LINE
8
BLACK
6
CONTINUOUS
10
5.3760763779527556
20
-4.4780773622047247
11
5.3865425590551181
21
-4.4780773622047247
0
LINE
8
BLACK
6
CONTINUOUS
10
5.3865425590551181
20
-4.4780773622047247
11
5.3864154724409445
21
-4.4980520866141731
0
LINE
8
BLACK
6
CONTINUOUS
10
5.3864154724409445
20
-4.4980520866141731
11
5.3863873228346453
21
-4.5023638582677163
0
LINE
8
BLACK
6
CONTINUOUS
10
5.3863873228346453
20
-4.5023638582677163
11
5.3863604330708661
21
-4.5060166141732285
0
LINE
8
BLACK
6
CONTINUOUS
10
5.3863604330708661
20
-4.5060166141732285
11
5.3863321653543306
21
-4.5090742913385826
0
LINE
8
BLACK
6
CONTINUOUS
10
5.3863321653543306
20
-4.5090742913385826
11
5.3862998425196853
21
-4.5116009842519684
0
LINE
8
BLACK
6
CONTINUOUS
10
5.3862998425196853
20
-4.5116009842519684
11
5.3862607086614176
21
-4.5136606692913386
0
LINE
8
BLACK
6
CONTINUOUS
10
5.3862607086614176
20
-4.5136606692913386
11
5.3862122047244094
21
-4.5153173622047245
0
LINE
8
BLACK
6
CONTINUOUS
10
5.3862122047244094
20
-4.5153173622047245
11
5.3861515354330711
21
-4.5166350787401575
0
LINE
8
BLACK
6
CONTINUOUS
10
5.3861515354330711
20
-4.5166350787401575
11
5.3860761417322838
21
-4.517677834645669
0
LINE
8
BLACK
6
CONTINUOUS
10
5.3860761417322838
20
-4.517677834645669
11
5.3859832677165356
21
-4.5185096062992125
0
LINE
8
BLACK
6
CONTINUOUS
10
5.3859832677165356
20
-4.5185096062992125
11
5.3858702362204722
21
-4.5191944094488186
0
LINE
8
BLACK
6
CONTINUOUS
10
5.3858702362204722
20
-4.5191944094488186
11
5.3857344094488191
21
-4.5197963385826769
0
LINE
8
BLACK
6
CONTINUOUS
10
5.3857344094488191
20
-4.5197963385826769
11
5.3855731102362201
21
-4.5203792913385827
0
LINE
8
BLACK
6
CONTINUOUS
10
5.3855731102362201
20
-4.5203792913385827
11
5.3854673228346455
21
-4.5207323622047246
0
LINE
8
BLACK
6
CONTINUOUS
10
5.3854673228346455
20
-4.5207323622047246
11
5.383954881889764
21
-4.5246697637795279
0
LINE
8
BLACK
6
CONTINUOUS
10
5.383954881889764
20
-4.5246697637795279
11
5.3819735826771655
21
-4.528090748031496
0
LINE
8
BLACK
6
CONTINUOUS
10
5.3819735826771655
20
-4.528090748031496
11
5.3795448031496065
21
-4.530972559055118
0
LINE
8
BLACK
6
CONTINUOUS
10
5.3795448031496065
20
-4.530972559055118
11
5.3766898818897637
21
-4.5332925196850393
0
LINE
8
BLACK
6
CONTINUOUS
10
5.3766898818897637
20
-4.5332925196850393
11
5.3734301968503937
21
-4.5350277559055119
0
LINE
8
BLACK
6
CONTINUOUS
10
5.3734301968503937
20
-4.5350277559055119
11
5.3713659842519688
21
-4.5357563385826767
0
LINE
8
BLACK
6
CONTINUOUS
10
5.3713659842519688
20
-4.5357563385826767
11
5.3699850393700785
21
-4.5360815748031493
0
LINE
8
BLACK
6
CONTINUOUS
10
5.3699850393700785
20
-4.5360815748031493
11
5.3681760629921262
21
-4.5363990157480316
0
LINE
8
BLACK
6
CONTINUOUS
10
5.3681760629921262
20
-4.5363990157480316
11
5.366196653543307
21
-4.5366744094488185
0
LINE
8
BLACK
6
CONTINUOUS
10
5.366196653543307
20
-4.5366744094488185
11
5.3643043307086611
21
-4.5368737007874014
0
LINE
8
BLACK
6
CONTINUOUS
10
5.3643043307086611
20
-4.5368737007874014
11
5.3627566141732279
21
-4.5369627165354327
0
LINE
8
BLACK
6
CONTINUOUS
10
5.3627566141732279
20
-4.5369627165354327
11
5.3622900787401573
21
-4.5369597244094484
0
LINE
8
BLACK
6
CONTINUOUS
10
5.3622900787401573
20
-4.5369597244094484
11
5.3612592125984246
21
-4.5368923622047239
0
LINE
8
BLACK
6
CONTINUOUS
10
5.3612592125984246
20
-4.5368923622047239
11
5.3598387007874013
21
-4.5367639763779524
0
LINE
8
BLACK
6
CONTINUOUS
10
5.3598387007874013
20
-4.5367639763779524
11
5.3585060629921255
21
-4.5366214173228343
0
LINE
8
BLACK
6
CONTINUOUS
10
5.3585060629921255
20
-4.5366214173228343
11
5.3545566535433071
21
-4.535838622047244
0
LINE
8
BLACK
6
CONTINUOUS
10
5.3545566535433071
20
-4.535838622047244
11
5.3509717322834645
21
-4.5344638976377949
0
LINE
8
BLACK
6
CONTINUOUS
10
5.3509717322834645
20
-4.5344638976377949
11
5.3477937795275592
21
-4.532526062992126
0
LINE
8
BLACK
6
CONTINUOUS
10
5.3477937795275592
20
-4.532526062992126
11
5.3450652755905512
21
-4.5300539370078736
0
LINE
8
BLACK
6
CONTINUOUS
10
5.3450652755905512
20
-4.5300539370078736
11
5.3428287007874014
21
-4.5270763779527554
0
LINE
8
BLACK
6
CONTINUOUS
10
5.3428287007874014
20
-4.5270763779527554
11
5.3418710629921256
21
-4.5253314173228345
0
LINE
8
BLACK
6
CONTINUOUS
10
5.3418710629921256
20
-4.5253314173228345
11
5.3412289763779528
21
-4.523941850393701
0
LINE
8
BLACK
6
CONTINUOUS
10
5.3412289763779528
20
-4.523941850393701
11
5.3406793700787398
21
-4.5225577559055115
0
LINE
8
BLACK
6
CONTINUOUS
10
5.3406793700787398
20
-4.5225577559055115
11
5.3402158267716535
21
-4.5211131102362208
0
LINE
8
BLACK
6
CONTINUOUS
10
5.3402158267716535
20
-4.5211131102362208
11
5.3398319291338581
21
-4.5195419291338581
0
LINE
8
BLACK
6
CONTINUOUS
10
5.3398319291338581
20
-4.5195419291338581
11
5.3395212204724407
21
-4.5177780708661412
0
LINE
8
BLACK
6
CONTINUOUS
10
5.3395212204724407
20
-4.5177780708661412
11
5.3392773228346453
21
-4.5157555905511808
0
LINE
8
BLACK
6
CONTINUOUS
10
5.3392773228346453
20
-4.5157555905511808
11
5.3390937401574803
21
-4.5134083858267715
0
LINE
8
BLACK
6
CONTINUOUS
10
5.3390937401574803
20
-4.5134083858267715
11
5.3389641338582674
21
-4.5106703937007877
0
LINE
8
BLACK
6
CONTINUOUS
10
5.3389641338582674
20
-4.5106703937007877
11
5.3388820472440948
21
-4.5074756692913382
0
LINE
8
BLACK
6
CONTINUOUS
10
5.3388820472440948
20
-4.5074756692913382
11
5.3388410629921257
21
-4.5037580708661418
0
LINE
8
BLACK
6
CONTINUOUS
10
5.3388410629921257
20
-4.5037580708661418
11
5.3388347244094483
21
-4.4994516141732284
0
LINE
8
BLACK
6
CONTINUOUS
10
5.3388347244094483
20
-4.4994516141732284
11
5.3388566535433073
21
-4.4944902755905511
0
LINE
8
BLACK
6
CONTINUOUS
10
5.3388566535433073
20
-4.4944902755905511
11
5.3388575984251965
21
-4.4943463779527555
0
LINE
8
BLACK
6
CONTINUOUS
10
5.3388575984251965
20
-4.4943463779527555
11
5.3389617322834644
21
-4.4782581496062992
0
LINE
8
BLACK
6
CONTINUOUS
10
5.3389617322834644
20
-4.4782581496062992
11
5.344294330708661
21
-4.4781581102362207
0
LINE
8
BLACK
6
CONTINUOUS
10
5.344294330708661
20
-4.4781581102362207
11
5.3496269291338585
21
-4.4780580314960625
0
LINE
8
BLACK
6
CONTINUOUS
10
5.3496269291338585
20
-4.4780580314960625
11
5.3496269291338585
21
-4.4950335826771655
0
LINE
8
BLACK
6
CONTINUOUS
10
5.4672155118110233
20
-4.4781757874015744
11
5.4707136614173226
21
-4.4782277559055119
0
LINE
8
BLACK
6
CONTINUOUS
10
5.4707136614173226
20
-4.4782277559055119
11
5.4735762992125983
21
-4.4782797637795273
0
LINE
8
BLACK
6
CONTINUOUS
10
5.4735762992125983
20
-4.4782797637795273
11
5.4758909448818898
21
-4.4783370078740159
0
LINE
8
BLACK
6
CONTINUOUS
10
5.4758909448818898
20
-4.4783370078740159
11
5.4777451968503934
21
-4.4784046850393704
0
LINE
8
BLACK
6
CONTINUOUS
10
5.4777451968503934
20
-4.4784046850393704
11
5.4792265354330709
21
-4.4784879527559056
0
LINE
8
BLACK
6
CONTINUOUS
10
5.4792265354330709
20
-4.4784879527559056
11
5.4804224803149602
21
-4.4785920866141735
0
LINE
8
BLACK
6
CONTINUOUS
10
5.4804224803149602
20
-4.4785920866141735
11
5.48142062992126
21
-4.478722244094488
0
LINE
8
BLACK
6
CONTINUOUS
10
5.48142062992126
20
-4.478722244094488
11
5.4823085039370074
21
-4.4788835826771649
0
LINE
8
BLACK
6
CONTINUOUS
10
5.4823085039370074
20
-4.4788835826771649
11
5.483173582677165
21
-4.4790813779527561
0
LINE
8
BLACK
6
CONTINUOUS
10
5.483173582677165
20
-4.4790813779527561
11
5.4833940944881885
21
-4.479136496062992
0
LINE
8
BLACK
6
CONTINUOUS
10
5.4833940944881885
20
-4.479136496062992
11
5.4877056692913389
21
-4.4805663385826771
0
LINE
8
BLACK
6
CONTINUOUS
10
5.4877056692913389
20
-4.4805663385826771
11
5.4915607086614173
21
-4.4825468503937005
0
LINE
8
BLACK
6
CONTINUOUS
10
5.4915607086614173
20
-4.4825468503937005
11
5.494936102362205
21
-4.4850551968503938
0
LINE
8
BLACK
6
CONTINUOUS
10
5.494936102362205
20
-4.4850551968503938
11
5.4978086614173227
21
-4.4880687401574804
0
LINE
8
BLACK
6
CONTINUOUS
10
5.4978086614173227
20
-4.4880687401574804
11
5.5001553149606295
21
-4.4915646456692908
0
LINE
8
BLACK
6
CONTINUOUS
10
5.5001553149606295
20
-4.4915646456692908
11
5.5019529133858267
21
-4.4955202362204725
0
LINE
8
BLACK
6
CONTINUOUS
10
5.5019529133858267
20
-4.4955202362204725
11
5.5027808661417321
21
-4.4981911023622043
0
LINE
8
BLACK
6
CONTINUOUS
10
5.5027808661417321
20
-4.4981911023622043
11
5.503425157480315
21
-4.5015502755905512
0
LINE
8
BLACK
6
CONTINUOUS
10
5.503425157480315
20
-4.5015502755905512
11
5.5037474409448821
21
-4.5052669291338585
0
LINE
8
BLACK
6
CONTINUOUS
10
5.5037474409448821
20
-4.5052669291338585
11
5.5037448818897641
21
-4.5090738976377951
0
LINE
8
BLACK
6
CONTINUOUS
10
5.5037448818897641
20
-4.5090738976377951
11
5.5034146850393704
21
-4.5127038582677166
0
LINE
8
BLACK
6
CONTINUOUS
10
5.5034146850393704
20
-4.5127038582677166
11
5.5029575590551181
21
-4.5151198818897633
0
LINE
8
BLACK
6
CONTINUOUS
10
5.5029575590551181
20
-4.5151198818897633
11
5.5015892913385827
21
-4.5193609448818899
0
LINE
8
BLACK
6
CONTINUOUS
10
5.5015892913385827
20
-4.5193609448818899
11
5.4996558267716535
21
-4.5232037401574798
0
LINE
8
BLACK
6
CONTINUOUS
10
5.4996558267716535
20
-4.5232037401574798
11
5.4971916141732287
21
-4.5266041732283462
0
LINE
8
BLACK
6
CONTINUOUS
10
5.4971916141732287
20
-4.5266041732283462
11
5.4942312992125979
21
-4.5295182677165355
0
LINE
8
BLACK
6
CONTINUOUS
10
5.4942312992125979
20
-4.5295182677165355
11
5.4908093700787397
21
-4.5319019291338583
0
LINE
8
BLACK
6
CONTINUOUS
10
5.4908093700787397
20
-4.5319019291338583
11
5.4890707480314962
21
-4.532817283464567
0
LINE
8
BLACK
6
CONTINUOUS
10
5.4890707480314962
20
-4.532817283464567
11
5.487797755905512
21
-4.5334174409448815
0
LINE
8
BLACK
6
CONTINUOUS
10
5.487797755905512
20
-4.5334174409448815
11
5.4866687795275588
21
-4.5339133464566928
0
LINE
8
BLACK
6
CONTINUOUS
10
5.4866687795275588
20
-4.5339133464566928
11
5.4855988976377947
21
-4.5343157480314957
0
LINE
8
BLACK
6
CONTINUOUS
10
5.4855988976377947
20
-4.5343157480314957
11
5.484503149606299
21
-4.5346353937007873
0
LINE
8
BLACK
6
CONTINUOUS
10
5.484503149606299
20
-4.5346353937007873
11
5.4832966929133855
21
-4.5348830314960633
0
LINE
8
BLACK
6
CONTINUOUS
10
5.4832966929133855
20
-4.5348830314960633
11
5.4818945275590547
21
-4.5350693700787401
0
LINE
8
BLACK
6
CONTINUOUS
10
5.4818945275590547
20
-4.5350693700787401
11
5.480211850393701
21
-4.5352051574803145
0
LINE
8
BLACK
6
CONTINUOUS
10
5.480211850393701
20
-4.5352051574803145
11
5.4781636220472443
21
-4.5353011417322833
0
LINE
8
BLACK
6
CONTINUOUS
10
5.4781636220472443
20
-4.5353011417322833
11
5.475665039370079
21
-4.5353680708661415
0
LINE
8
BLACK
6
CONTINUOUS
10
5.475665039370079
20
-4.5353680708661415
11
5.4726311417322835
21
-4.5354166535433071
0
LINE
8
BLACK
6
CONTINUOUS
10
5.4726311417322835
20
-4.5354166535433071
11
5.4689770078740159
21
-4.5354575984251966
0
LINE
8
BLACK
6
CONTINUOUS
10
5.4689770078740159
20
-4.5354575984251966
11
5.4681193307086611
21
-4.5354662598425195
0
LINE
8
BLACK
6
CONTINUOUS
10
5.4681193307086611
20
-4.5354662598425195
11
5.4541099606299213
21
-4.5356070866141733
0
LINE
8
BLACK
6
CONTINUOUS
10
5.4541099606299213
20
-4.5356070866141733
11
5.4541099606299213
21
-4.5261612598425192
0
LINE
8
BLACK
6
CONTINUOUS
10
5.4541099606299213
20
-4.5261612598425192
11
5.4541099606299213
21
-4.4779927559055119
0
LINE
8
BLACK
6
CONTINUOUS
10
5.4541099606299213
20
-4.4779927559055119
11
5.4672155118110233
21
-4.4781757874015744
0
LINE
8
BLACK
6
CONTINUOUS
10
5.4712649606299211
20
-4.5261612598425192
11
5.4735425196850391
21
-4.5261389763779523
0
LINE
8
BLACK
6
CONTINUOUS
10
5.4735425196850391
20
-4.5261389763779523
11
5.4757101574803144
21
-4.526077165354331
0
LINE
8
BLACK
6
CONTINUOUS
10
5.4757101574803144
20
-4.526077165354331
11
5.4776077559055114
21
-4.5259834251968503
0
LINE
8
BLACK
6
CONTINUOUS
10
5.4776077559055114
20
-4.5259834251968503
11
5.4790752362204724
21
-4.5258653937007871
0
LINE
8
BLACK
6
CONTINUOUS
10
5.4790752362204724
20
-4.5258653937007871
11
5.4798513779527553
21
-4.5257544488188977
0
LINE
8
BLACK
6
CONTINUOUS
10
5.4798513779527553
20
-4.5257544488188977
11
5.4829285433070867
21
-4.5247529921259844
0
LINE
8
BLACK
6
CONTINUOUS
10
5.4829285433070867
20
-4.5247529921259844
11
5.4856183464566932
21
-4.523154527559055
0
LINE
8
BLACK
6
CONTINUOUS
10
5.4856183464566932
20
-4.523154527559055
11
5.4878909842519681
21
-4.5209904724409444
0
LINE
8
BLACK
6
CONTINUOUS
10
5.4878909842519681
20
-4.5209904724409444
11
5.4897166535433071
21
-4.5182923622047246
0
LINE
8
BLACK
6
CONTINUOUS
10
5.4897166535433071
20
-4.5182923622047246
11
5.4910655118110236
21
-4.5150915748031499
0
LINE
8
BLACK
6
CONTINUOUS
10
5.4910655118110236
20
-4.5150915748031499
11
5.4915212204724408
21
-4.5134438976377949
0
LINE
8
BLACK
6
CONTINUOUS
10
5.4915212204724408
20
-4.5134438976377949
11
5.4918775984251971
21
-4.5112362992125981
0
LINE
8
BLACK
6
CONTINUOUS
10
5.4918775984251971
20
-4.5112362992125981
11
5.4920519685039366
21
-4.5085917716535429
0
LINE
8
BLACK
6
CONTINUOUS
10
5.4920519685039366
20
-4.5085917716535429
11
5.4920472834645668
21
-4.5057723622047243
0
LINE
8
BLACK
6
CONTINUOUS
10
5.4920472834645668
20
-4.5057723622047243
11
5.4918665748031499
21
-4.5030401181102357
0
LINE
8
BLACK
6
CONTINUOUS
10
5.4918665748031499
20
-4.5030401181102357
11
5.4915127165354329
21
-4.5006570866141731
0
LINE
8
BLACK
6
CONTINUOUS
10
5.4915127165354329
20
-4.5006570866141731
11
5.4913701181102361
21
-4.5000372047244097
0
LINE
8
BLACK
6
CONTINUOUS
10
5.4913701181102361
20
-4.5000372047244097
11
5.4906158267716538
21
-4.497534527559055
0
LINE
8
BLACK
6
CONTINUOUS
10
5.4906158267716538
20
-4.497534527559055
11
5.4897139763779528
21
-4.4955153937007877
0
LINE
8
BLACK
6
CONTINUOUS
10
5.4897139763779528
20
-4.4955153937007877
11
5.4885390551181104
21
-4.4937406299212599
0
LINE
8
BLACK
6
CONTINUOUS
10
5.4885390551181104
20
-4.4937406299212599
11
5.4873465354330708
21
-4.4923658661417321
0
LINE
8
BLACK
6
CONTINUOUS
10
5.4873465354330708
20
-4.4923658661417321
11
5.4859488976377948
21
-4.491021889763779
0
LINE
8
BLACK
6
CONTINUOUS
10
5.4859488976377948
20
-4.491021889763779
11
5.4845150393700788
21
-4.4899616141732279
0
LINE
8
BLACK
6
CONTINUOUS
10
5.4845150393700788
20
-4.4899616141732279
11
5.4829386614173226
21
-4.4891546850393702
0
LINE
8
BLACK
6
CONTINUOUS
10
5.4829386614173226
20
-4.4891546850393702
11
5.4811137007874011
21
-4.4885706692913381
0
LINE
8
BLACK
6
CONTINUOUS
10
5.4811137007874011
20
-4.4885706692913381
11
5.4789338976377948
21
-4.488179173228346
0
LINE
8
BLACK
6
CONTINUOUS
10
5.4789338976377948
20
-4.488179173228346
11
5.476293149606299
21
-4.4879498031496059
0
LINE
8
BLACK
6
CONTINUOUS
10
5.476293149606299
20
-4.4879498031496059
11
5.4730852362204727
21
-4.4878521259842516
0
LINE
8
BLACK
6
CONTINUOUS
10
5.4730852362204727
20
-4.4878521259842516
11
5.4715538976377953
21
-4.4878430708661412
0
LINE
8
BLACK
6
CONTINUOUS
10
5.4715538976377953
20
-4.4878430708661412
11
5.4645944094488188
21
-4.4878387795275589
0
LINE
8
BLACK
6
CONTINUOUS
10
5.4645944094488188
20
-4.4878387795275589
11
5.4645944094488188
21
-4.5261612598425192
0
LINE
8
BLACK
6
CONTINUOUS
10
5.4645944094488188
20
-4.5261612598425192
11
5.4712649606299211
21
-4.5261612598425192
0
LINE
8
BLACK
6
CONTINUOUS
10
5.2751511417322829
20
-4.488561850393701
11
5.258882165354331
21
-4.488561850393701
0
LINE
8
BLACK
6
CONTINUOUS
10
5.258882165354331
20
-4.488561850393701
11
5.258882165354331
21
-4.5355611023622044
0
LINE
8
BLACK
6
CONTINUOUS
10
5.258882165354331
20
-4.5355611023622044
11
5.2483977165354325
21
-4.5355611023622044
0
LINE
8
BLACK
6
CONTINUOUS
10
5.2483977165354325
20
-4.5355611023622044
11
5.2483977165354325
21
-4.488561850393701
0
LINE
8
BLACK
6
CONTINUOUS
10
5.2483977165354325
20
-4.488561850393701
11
5.2321287401574805
21
-4.488561850393701
0
LINE
8
BLACK
6
CONTINUOUS
10
5.2321287401574805
20
-4.488561850393701
11
5.2321287401574805
21
-4.4780773622047247
0
LINE
8
BLACK
6
CONTINUOUS
10
5.2321287401574805
20
-4.4780773622047247
11
5.2751511417322829
21
-4.4780773622047247
0
LINE
8
BLACK
6
CONTINUOUS
10
5.2751511417322829
20
-4.4780773622047247
11
5.2751511417322829
21
-4.488561850393701
0
LINE
8
BLACK
6
CONTINUOUS
10
5.3282964960629924
20
-4.5355611023622044
11
5.3174505118110238
21
-4.5355611023622044
0
LINE
8
BLACK
6
CONTINUOUS
10
5.3174505118110238
20
-4.5355611023622044
11
5.3174505118110238
21
-4.5109768897637794
0
LINE
8
BLACK
6
CONTINUOUS
10
5.3174505118110238
20
-4.5109768897637794
11
5.2914201181102358
21
-4.5109768897637794
0
LINE
8
BLACK
6
CONTINUOUS
10
5.2914201181102358
20
-4.5109768897637794
11
5.2914201181102358
21
-4.5355611023622044
0
LINE
8
BLACK
6
CONTINUOUS
10
5.2914201181102358
20
-4.5355611023622044
11
5.2809356692913383
21
-4.5355611023622044
0
LINE
8
BLACK
6
CONTINUOUS
10
5.2809356692913383
20
-4.5355611023622044
11
5.2809356692913383
21
-4.4780773622047247
0
LINE
8
BLACK
6
CONTINUOUS
10
5.2809356692913383
20
-4.4780773622047247
11
5.2914201181102358
21
-4.4780773622047247
0
LINE
8
BLACK
6
CONTINUOUS
10
5.2914201181102358
20
-4.4780773622047247
11
5.2914201181102358
21
-4.5008539370078742
0
LINE
8
BLACK
6
CONTINUOUS
10
5.2914201181102358
20
-4.5008539370078742
11
5.3174401968503933
21
-4.5008539370078742
0
LINE
8
BLACK
6
CONTINUOUS
10
5.3174401968503933
20
-4.5008539370078742
11
5.3175357480314958
21
-4.4895560629921256
0
LINE
8
BLACK
6
CONTINUOUS
10
5.3175357480314958
20
-4.4895560629921256
11
5.3176312598425195
21
-4.4782581496062992
0
LINE
8
BLACK
6
CONTINUOUS
10
5.3176312598425195
20
-4.4782581496062992
11
5.3229638976377949
21
-4.4781581102362207
0
LINE
8
BLACK
6
CONTINUOUS
10
5.3229638976377949
20
-4.4781581102362207
11
5.3282964960629924
21
-4.4780580314960625
0
LINE
8
BLACK
6
CONTINUOUS
10
5.3282964960629924
20
-4.4780580314960625
11
5.3282964960629924
21
-4.5355611023622044
0
LINE
8
BLACK
6
CONTINUOUS
10
5.4427216535433072
20
-4.4782581496062992
11
5.4428142125984253
21
-4.5069096456692916
0
LINE
8
BLACK
6
CONTINUOUS
10
5.4428142125984253
20
-4.5069096456692916
11
5.4429067716535435
21
-4.5355611023622044
0
LINE
8
BLACK
6
CONTINUOUS
10
5.4429067716535435
20
-4.5355611023622044
11
5.4338648425196849
21
-4.5355611023622044
0
LINE
8
BLACK
6
CONTINUOUS
10
5.4338648425196849
20
-4.5355611023622044
11
5.4209396456692911
21
-4.5161722834645666
0
LINE
8
BLACK
6
CONTINUOUS
10
5.4209396456692911
20
-4.5161722834645666
11
5.408014488188976
21
-4.4967835039370074
0
LINE
8
BLACK
6
CONTINUOUS
10
5.408014488188976
20
-4.4967835039370074
11
5.4079209842519687
21
-4.5161722834645666
0
LINE
8
BLACK
6
CONTINUOUS
10
5.4079209842519687
20
-4.5161722834645666
11
5.4078274409448817
21
-4.5355611023622044
0
LINE
8
BLACK
6
CONTINUOUS
10
5.4078274409448817
20
-4.5355611023622044
11
5.3973492913385828
21
-4.5355611023622044
0
LINE
8
BLACK
6
CONTINUOUS
10
5.3973492913385828
20
-4.5355611023622044
11
5.3973492913385828
21
-4.4780773622047247
0
LINE
8
BLACK
6
CONTINUOUS
10
5.3973492913385828
20
-4.4780773622047247
11
5.4025011023622049
21
-4.4780775590551176
0
LINE
8
BLACK
6
CONTINUOUS
10
5.4025011023622049
20
-4.4780775590551176
11
5.407652952755905
21
-4.4780777559055114
0
LINE
8
BLACK
6
CONTINUOUS
10
5.407652952755905
20
-4.4780777559055114
11
5.4197643307086611
21
-4.4963883858267719
0
LINE
8
BLACK
6
CONTINUOUS
10
5.4197643307086611
20
-4.4963883858267719
11
5.4318756692913386
21
-4.5146990551181103
0
LINE
8
BLACK
6
CONTINUOUS
10
5.4318756692913386
20
-4.5146990551181103
11
5.4319693700787397
21
-4.4963785826771652
0
LINE
8
BLACK
6
CONTINUOUS
10
5.4319693700787397
20
-4.4963785826771652
11
5.4320630708661417
21
-4.4780580708661413
0
LINE
8
BLACK
6
CONTINUOUS
10
5.4320630708661417
20
-4.4780580708661413
11
5.4427216535433072
21
-4.4782581496062992
0
LINE
8
BLACK
6
CONTINUOUS
10
5.5488315748031498
20
-4.488561850393701
11
5.5228011811023618
21
-4.488561850393701
0
LINE
8
BLACK
6
CONTINUOUS
10
5.5228011811023618
20
-4.488561850393701
11
5.5228011811023618
21
-4.5004809842519684
0
LINE
8
BLACK
6
CONTINUOUS
10
5.5228011811023618
20
-4.5004809842519684
11
5.5328337401574803
21
-4.5005770866141734
0
LINE
8
BLACK
6
CONTINUOUS
10
5.5328337401574803
20
-4.5005770866141734
11
5.5428662598425191
21
-4.5006731889763776
0
LINE
8
BLACK
6
CONTINUOUS
10
5.5428662598425191
20
-4.5006731889763776
11
5.5430668897637796
21
-4.5109768897637794
0
LINE
8
BLACK
6
CONTINUOUS
10
5.5430668897637796
20
-4.5109768897637794
11
5.5228011811023618
21
-4.5109768897637794
0
LINE
8
BLACK
6
CONTINUOUS
10
5.5228011811023618
20
-4.5109768897637794
11
5.5228011811023618
21
-4.525438188976378
0
LINE
8
BLACK
6
CONTINUOUS
10
5.5228011811023618
20
-4.525438188976378
11
5.549554645669291
21
-4.525438188976378
0
LINE
8
BLACK
6
CONTINUOUS
10
5.549554645669291
20
-4.525438188976378
11
5.549554645669291
21
-4.5355611023622044
0
LINE
8
BLACK
6
CONTINUOUS
10
5.549554645669291
20
-4.5355611023622044
11
5.5119551968503933
21
-4.5355611023622044
0
LINE
8
BLACK
6
CONTINUOUS
10
5.5119551968503933
20
-4.5355611023622044
11
5.5119551968503933
21
-4.4780773622047247
0
LINE
8
BLACK
6
CONTINUOUS
10
5.5119551968503933
20
-4.4780773622047247
11
5.5488315748031498
21
-4.4780773622047247
0
LINE
8
BLACK
6
CONTINUOUS
10
5.5488315748031498
20
-4.4780773622047247
11
5.5488315748031498
21
-4.488561850393701
0
LINE
8
BLACK
6
CONTINUOUS
10
5.5703427559055116
20
-4.4782870866141735
11
5.5741306692913382
21
-4.4783028346456693
0
LINE
8
BLACK
6
CONTINUOUS
10
5.5741306692913382
20
-4.4783028346456693
11
5.5772813385826767
21
-4.4783378740157476
0
LINE
8
BLACK
6
CONTINUOUS
10
5.5772813385826767
20
-4.4783378740157476
11
5.5798805905511806
21
-4.4784021259842515
0
LINE
8
BLACK
6
CONTINUOUS
10
5.5798805905511806
20
-4.4784021259842515
11
5.5820141732283464
21
-4.4785055905511806
0
LINE
8
BLACK
6
CONTINUOUS
10
5.5820141732283464
20
-4.4785055905511806
11
5.5837679527559052
21
-4.4786581889763779
0
LINE
8
BLACK
6
CONTINUOUS
10
5.5837679527559052
20
-4.4786581889763779
11
5.5852276771653546
21
-4.4788699212598422
0
LINE
8
BLACK
6
CONTINUOUS
10
5.5852276771653546
20
-4.4788699212598422
11
5.5864790944881886
21
-4.4791507086614173
0
LINE
8
BLACK
6
CONTINUOUS
10
5.5864790944881886
20
-4.4791507086614173
11
5.5876080708661418
21
-4.479510551181102
0
LINE
8
BLACK
6
CONTINUOUS
10
5.5876080708661418
20
-4.479510551181102
11
5.5887003543307081
21
-4.4799594094488189
0
LINE
8
BLACK
6
CONTINUOUS
10
5.5887003543307081
20
-4.4799594094488189
11
5.5898417716535436
21
-4.480507244094488
0
LINE
8
BLACK
6
CONTINUOUS
10
5.5898417716535436
20
-4.480507244094488
11
5.5899559448818898
21
-4.4805648425196853
0
LINE
8
BLACK
6
CONTINUOUS
10
5.5899559448818898
20
-4.4805648425196853
11
5.5928181889763779
21
-4.4823762598425194
0
LINE
8
BLACK
6
CONTINUOUS
10
5.5928181889763779
20
-4.4823762598425194
11
5.5951020866141734
21
-4.4846205118110234
0
LINE
8
BLACK
6
CONTINUOUS
10
5.5951020866141734
20
-4.4846205118110234
11
5.5968049999999998
21
-4.4872944881889767
0
LINE
8
BLACK
6
CONTINUOUS
10
5.5968049999999998
20
-4.4872944881889767
11
5.597857244094488
21
-4.4901345669291342
0
LINE
8
BLACK
6
CONTINUOUS
10
5.597857244094488
20
-4.4901345669291342
11
5.5981940944881892
21
-4.4920185433070863
0
LINE
8
BLACK
6
CONTINUOUS
10
5.5981940944881892
20
-4.4920185433070863
11
5.5983566929133861
21
-4.4943090944881892
0
LINE
8
BLACK
6
CONTINUOUS
10
5.5983566929133861
20
-4.4943090944881892
11
5.5983500787401574
21
-4.4967601181102363
0
LINE
8
BLACK
6
CONTINUOUS
10
5.5983500787401574
20
-4.4967601181102363
11
5.5981792913385826
21
-4.4991254724409444
0
LINE
8
BLACK
6
CONTINUOUS
10
5.5981792913385826
20
-4.4991254724409444
11
5.5978493700787402
21
-4.5011590551181104
0
LINE
8
BLACK
6
CONTINUOUS
10
5.5978493700787402
20
-4.5011590551181104
11
5.5976143307086614
21
-4.5020103543307082
0
LINE
8
BLACK
6
CONTINUOUS
10
5.5976143307086614
20
-4.5020103543307082
11
5.5962212598425198
21
-4.5050455511811025
0
LINE
8
BLACK
6
CONTINUOUS
10
5.5962212598425198
20
-4.5050455511811025
11
5.5942279921259841
21
-4.5076839370078741
0
LINE
8
BLACK
6
CONTINUOUS
10
5.5942279921259841
20
-4.5076839370078741
11
5.5916529133858264
21
-4.5099030314960631
0
LINE
8
BLACK
6
CONTINUOUS
10
5.5916529133858264
20
-4.5099030314960631
11
5.5905886220472443
21
-4.5105939763779528
0
LINE
8
BLACK
6
CONTINUOUS
10
5.5905886220472443
20
-4.5105939763779528
11
5.5897056299212595
21
-4.5111289370078742
0
LINE
8
BLACK
6
CONTINUOUS
10
5.5897056299212595
20
-4.5111289370078742
11
5.5891224409448821
21
-4.5114893700787402
0
LINE
8
BLACK
6
CONTINUOUS
10
5.5891224409448821
20
-4.5114893700787402
11
5.5890121653543305
21
-4.5115616141732282
0
LINE
8
BLACK
6
CONTINUOUS
10
5.5890121653543305
20
-4.5115616141732282
11
5.5891476771653545
21
-4.5118905511811018
0
LINE
8
BLACK
6
CONTINUOUS
10
5.5891476771653545
20
-4.5118905511811018
11
5.5895905905511807
21
-4.5127840944881887
0
LINE
8
BLACK
6
CONTINUOUS
10
5.5895905905511807
20
-4.5127840944881887
11
5.5903037401574798
21
-4.5141711811023617
0
LINE
8
BLACK
6
CONTINUOUS
10
5.5903037401574798
20
-4.5141711811023617
11
5.5912499999999996
21
-4.5159807874015749
0
LINE
8
BLACK
6
CONTINUOUS
10
5.5912499999999996
20
-4.5159807874015749
11
5.5923921653543305
21
-4.5181418110236216
0
LINE
8
BLACK
6
CONTINUOUS
10
5.5923921653543305
20
-4.5181418110236216
11
5.5936930708661414
21
-4.5205832283464567
0
LINE
8
BLACK
6
CONTINUOUS
10
5.5936930708661414
20
-4.5205832283464567
11
5.5951155511811024
21
-4.5232339370078742
0
LINE
8
BLACK
6
CONTINUOUS
10
5.5951155511811024
20
-4.5232339370078742
11
5.5951582283464569
21
-4.5233131889763776
0
LINE
8
BLACK
6
CONTINUOUS
10
5.5951582283464569
20
-4.5233131889763776
11
5.5965937401574806
21
-4.5259805511811022
0
LINE
8
BLACK
6
CONTINUOUS
10
5.5965937401574806
20
-4.5259805511811022
11
5.5979202755905515
21
-4.5284492125984253
0
LINE
8
BLACK
6
CONTINUOUS
10
5.5979202755905515
20
-4.5284492125984253
11
5.5990988976377949
21
-4.5306462992125986
0
LINE
8
BLACK
6
CONTINUOUS
10
5.5990988976377949
20
-4.5306462992125986
11
5.6000906299212598
21
-4.5324990551181106
0
LINE
8
BLACK
6
CONTINUOUS
10
5.6000906299212598
20
-4.5324990551181106
11
5.6008564960629919
21
-4.5339346850393696
0
LINE
8
BLACK
6
CONTINUOUS
10
5.6008564960629919
20
-4.5339346850393696
11
5.6013575196850391
21
-4.5348803543307081
0
LINE
8
BLACK
6
CONTINUOUS
10
5.6013575196850391
20
-4.5348803543307081
11
5.6015547637795278
21
-4.5352632677165357
0
LINE
8
BLACK
6
CONTINUOUS
10
5.6015547637795278
20
-4.5352632677165357
11
5.6015551181102357
21
-4.5352641338582673
0
LINE
8
BLACK
6
CONTINUOUS
10
5.6015551181102357
20
-4.5352641338582673
11
5.6012549606299213
21
-4.5353627559055116
0
LINE
8
BLACK
6
CONTINUOUS
10
5.6012549606299213
20
-4.5353627559055116
11
5.6003477559055117
21
-4.5354475196850395
0
LINE
8
BLACK
6
CONTINUOUS
10
5.6003477559055117
20
-4.5354475196850395
11
5.5989494881889765
21
-4.5355125590551184
0
LINE
8
BLACK
6
CONTINUOUS
10
5.5989494881889765
20
-4.5355125590551184
11
5.5971760629921254
21
-4.5355519291338577
0
LINE
8
BLACK
6
CONTINUOUS
10
5.5971760629921254
20
-4.5355519291338577
11
5.5957112204724408
21
-4.5355611023622044
0
LINE
8
BLACK
6
CONTINUOUS
10
5.5957112204724408
20
-4.5355611023622044
11
5.5897467716535436
21
-4.5355611023622044
0
LINE
8
BLACK
6
CONTINUOUS
10
5.5897467716535436
20
-4.5355611023622044
11
5.5843588976377951
21
-4.5251670472440946
0
LINE
8
BLACK
6
CONTINUOUS
10
5.5843588976377951
20
-4.5251670472440946
11
5.5789710236220476
21
-4.5147729527559051
0
LINE
8
BLACK
6
CONTINUOUS
10
5.5789710236220476
20
-4.5147729527559051
11
5.5683543307086616
21
-4.514572874015748
0
LINE
8
BLACK
6
CONTINUOUS
10
5.5683543307086616
20
-4.514572874015748
11
5.5683543307086616
21
-4.5355611023622044
0
LINE
8
BLACK
6
CONTINUOUS
10
5.5683543307086616
20
-4.5355611023622044
11
5.5575040157480311
21
-4.5355611023622044
0
LINE
8
BLACK
6
CONTINUOUS
10
5.5575040157480311
20
-4.5355611023622044
11
5.5575965748031493
21
-4.5069096456692916
0
LINE
8
BLACK
6
CONTINUOUS
10
5.5575965748031493
20
-4.5069096456692916
11
5.5576006692913387
21
-4.5056387795275592
0
LINE
8
BLACK
6
CONTINUOUS
10
5.5576006692913387
20
-4.5056387795275592
11
5.5576891338582675
21
-4.4782581496062992
0
LINE
8
BLACK
6
CONTINUOUS
10
5.5576891338582675
20
-4.4782581496062992
11
5.5703427559055116
21
-4.4782870866141735
0
LINE
8
BLACK
6
CONTINUOUS
10
5.5742292519685037
20
-4.5054661023622042
11
5.5768908661417322
21
-4.5053607874015746
0
LINE
8
BLACK
6
CONTINUOUS
10
5.5768908661417322
20
-4.5053607874015746
11
5.5789271259842517
21
-4.5052149212598422
0
LINE
8
BLACK
6
CONTINUOUS
10
5.5789271259842517
20
-4.5052149212598422
11
5.5804350393700783
21
-4.5050184645669287
0
LINE
8
BLACK
6
CONTINUOUS
10
5.5804350393700783
20
-4.5050184645669287
11
5.5815116929133861
21
-4.5047613779527556
0
LINE
8
BLACK
6
CONTINUOUS
10
5.5815116929133861
20
-4.5047613779527556
11
5.5817062204724408
21
-4.5046935039370082
0
LINE
8
BLACK
6
CONTINUOUS
10
5.5817062204724408
20
-4.5046935039370082
11
5.5839561023622046
21
-4.5035557480314958
0
LINE
8
BLACK
6
CONTINUOUS
10
5.5839561023622046
20
-4.5035557480314958
11
5.5856087007874011
21
-4.5020333858267714
0
LINE
8
BLACK
6
CONTINUOUS
10
5.5856087007874011
20
-4.5020333858267714
11
5.5866877952755907
21
-4.5000910236220468
0
LINE
8
BLACK
6
CONTINUOUS
10
5.5866877952755907
20
-4.5000910236220468
11
5.5872172047244097
21
-4.4976931496062988
0
LINE
8
BLACK
6
CONTINUOUS
10
5.5872172047244097
20
-4.4976931496062988
11
5.5872830314960629
21
-4.4963703543307085
0
LINE
8
BLACK
6
CONTINUOUS
10
5.5872830314960629
20
-4.4963703543307085
11
5.5870146062992125
21
-4.493680078740157
0
LINE
8
BLACK
6
CONTINUOUS
10
5.5870146062992125
20
-4.493680078740157
11
5.5861909448818894
21
-4.491433897637795
0
LINE
8
BLACK
6
CONTINUOUS
10
5.5861909448818894
20
-4.491433897637795
11
5.5848232283464565
21
-4.4896498818897639
0
LINE
8
BLACK
6
CONTINUOUS
10
5.5848232283464565
20
-4.4896498818897639
11
5.5829226377952752
21
-4.4883461023622049
0
LINE
8
BLACK
6
CONTINUOUS
10
5.5829226377952752
20
-4.4883461023622049
11
5.5820874803149607
21
-4.4879893700787399
0
LINE
8
BLACK
6
CONTINUOUS
10
5.5820874803149607
20
-4.4879893700787399
11
5.5811042519685037
21
-4.4877212598425196
0
LINE
8
BLACK
6
CONTINUOUS
10
5.5811042519685037
20
-4.4877212598425196
11
5.579717913385827
21
-4.4875130314960625
0
LINE
8
BLACK
6
CONTINUOUS
10
5.579717913385827
20
-4.4875130314960625
11
5.5778323622047239
21
-4.4873548818897637
0
LINE
8
BLACK
6
CONTINUOUS
10
5.5778323622047239
20
-4.4873548818897637
11
5.575351338582677
21
-4.4872370078740156
0
LINE
8
BLACK
6
CONTINUOUS
10
5.575351338582677
20
-4.4872370078740156
11
5.5744100000000003
21
-4.487206023622047
0
LINE
8
BLACK
6
CONTINUOUS
10
5.5744100000000003
20
-4.487206023622047
11
5.5683543307086616
21
-4.4870232283464562
0
LINE
8
BLACK
6
CONTINUOUS
10
5.5683543307086616
20
-4.4870232283464562
11
5.5683543307086616
21
-4.5056387795275592
0
LINE
8
BLACK
6
CONTINUOUS
10
5.5683543307086616
20
-4.5056387795275592
11
5.5742292519685037
21
-4.5054661023622042
0
LINE
8
BLACK
6
CONTINUOUS
10
5.6403979921259841
20
-4.4780839370078738
11
5.6429877165354325
21
-4.4780984251968503
0
LINE
8
BLACK
6
CONTINUOUS
10
5.6429877165354325
20
-4.4780984251968503
11
5.6452556692913385
21
-4.4781208661417322
0
LINE
8
BLACK
6
CONTINUOUS
10
5.6452556692913385
20
-4.4781208661417322
11
5.6471148031496066
21
-4.4781514173228345
0
LINE
8
BLACK
6
CONTINUOUS
10
5.6471148031496066
20
-4.4781514173228345
11
5.6484780708661413
21
-4.4781903937007872
0
LINE
8
BLACK
6
CONTINUOUS
10
5.6484780708661413
20
-4.4781903937007872
11
5.6492583858267711
21
-4.4782380314960628
0
LINE
8
BLACK
6
CONTINUOUS
10
5.6492583858267711
20
-4.4782380314960628
11
5.6494094881889758
21
-4.4782696850393702
0
LINE
8
BLACK
6
CONTINUOUS
10
5.6494094881889758
20
-4.4782696850393702
11
5.6494201181102364
21
-4.4786768897637792
0
LINE
8
BLACK
6
CONTINUOUS
10
5.6494201181102364
20
-4.4786768897637792
11
5.6493144881889759
21
-4.4796578740157482
0
LINE
8
BLACK
6
CONTINUOUS
10
5.6493144881889759
20
-4.4796578740157482
11
5.649110866141732
21
-4.481075905511811
0
LINE
8
BLACK
6
CONTINUOUS
10
5.649110866141732
20
-4.481075905511811
11
5.6488273622047247
21
-4.482794251968504
0
LINE
8
BLACK
6
CONTINUOUS
10
5.6488273622047247
20
-4.482794251968504
11
5.6487486220472443
21
-4.4832407480314957
0
LINE
8
BLACK
6
CONTINUOUS
10
5.6487486220472443
20
-4.4832407480314957
11
5.64843405511811
21
-4.4850212204724409
0
LINE
8
BLACK
6
CONTINUOUS
10
5.64843405511811
20
-4.4850212204724409
11
5.6481714566929133
21
-4.4865424803149603
0
LINE
8
BLACK
6
CONTINUOUS
10
5.6481714566929133
20
-4.4865424803149603
11
5.647984566929134
21
-4.4876645669291335
0
LINE
8
BLACK
6
CONTINUOUS
10
5.647984566929134
20
-4.4876645669291335
11
5.6478970866141731
21
-4.4882474409448818
0
LINE
8
BLACK
6
CONTINUOUS
10
5.6478970866141731
20
-4.4882474409448818
11
5.6478935433070863
21
-4.4882906692913389
0
LINE
8
BLACK
6
CONTINUOUS
10
5.6478935433070863
20
-4.4882906692913389
11
5.6475456692913388
21
-4.4883561023622045
0
LINE
8
BLACK
6
CONTINUOUS
10
5.6475456692913388
20
-4.4883561023622045
11
5.6465598031496063
21
-4.4884158661417324
0
LINE
8
BLACK
6
CONTINUOUS
10
5.6465598031496063
20
-4.4884158661417324
11
5.6450208661417323
21
-4.4884679527559053
0
LINE
8
BLACK
6
CONTINUOUS
10
5.6450208661417323
20
-4.4884679527559053
11
5.6430139370078738
21
-4.4885104724409448
0
LINE
8
BLACK
6
CONTINUOUS
10
5.6430139370078738
20
-4.4885104724409448
11
5.6406240157480312
21
-4.4885413779527559
0
LINE
8
BLACK
6
CONTINUOUS
10
5.6406240157480312
20
-4.4885413779527559
11
5.637936062992126
21
-4.4885587401574805
0
LINE
8
BLACK
6
CONTINUOUS
10
5.637936062992126
20
-4.4885587401574805
11
5.6361674015748031
21
-4.488561850393701
0
LINE
8
BLACK
6
CONTINUOUS
10
5.6361674015748031
20
-4.488561850393701
11
5.624443188976378
21
-4.488561850393701
0
LINE
8
BLACK
6
CONTINUOUS
10
5.624443188976378
20
-4.488561850393701
11
5.6240669685039366
21
-4.4904598818897634
0
LINE
8
BLACK
6
CONTINUOUS
10
5.6240669685039366
20
-4.4904598818897634
11
5.6238262598425193
21
-4.4917212204724413
0
LINE
8
BLACK
6
CONTINUOUS
10
5.6238262598425193
20
-4.4917212204724413
11
5.6235206692913389
21
-4.4933874409448817
0
LINE
8
BLACK
6
CONTINUOUS
10
5.6235206692913389
20
-4.4933874409448817
11
5.6232064566929134
21
-4.495150590551181
0
LINE
8
BLACK
6
CONTINUOUS
10
5.6232064566929134
20
-4.495150590551181
11
5.6231259842519687
21
-4.4956117322834643
0
LINE
8
BLACK
6
CONTINUOUS
10
5.6231259842519687
20
-4.4956117322834643
11
5.6228535433070865
21
-4.4971598818897638
0
LINE
8
BLACK
6
CONTINUOUS
10
5.6228535433070865
20
-4.4971598818897638
11
5.6226085039370082
21
-4.4985139370078739
0
LINE
8
BLACK
6
CONTINUOUS
10
5.6226085039370082
20
-4.4985139370078739
11
5.6224300787401571
21
-4.4994589370078737
0
LINE
8
BLACK
6
CONTINUOUS
10
5.6224300787401571
20
-4.4994589370078737
11
5.622385078740157
21
-4.499678976377953
0
LINE
8
BLACK
6
CONTINUOUS
10
5.622385078740157
20
-4.499678976377953
11
5.6222089763779524
21
-4.5004924015748031
0
LINE
8
BLACK
6
CONTINUOUS
10
5.6222089763779524
20
-4.5004924015748031
11
5.6312541732283465
21
-4.5004924015748031
0
LINE
8
BLACK
6
CONTINUOUS
10
5.6312541732283465
20
-4.5004924015748031
11
5.6341792913385822
21
-4.5005004724409448
0
LINE
8
BLACK
6
CONTINUOUS
10
5.6341792913385822
20
-4.5005004724409448
11
5.6364475590551182
21
-4.5005267716535435
0
LINE
8
BLACK
6
CONTINUOUS
10
5.6364475590551182
20
-4.5005267716535435
11
5.6381249999999996
21
-4.5005746456692917
0
LINE
8
BLACK
6
CONTINUOUS
10
5.6381249999999996
20
-4.5005746456692917
11
5.6392777559055114
21
-4.5006473622047247
0
LINE
8
BLACK
6
CONTINUOUS
10
5.6392777559055114
20
-4.5006473622047247
11
5.6399718503937004
21
-4.5007483070866137
0
LINE
8
BLACK
6
CONTINUOUS
10
5.6399718503937004
20
-4.5007483070866137
11
5.6402733464566932
21
-4.5008806692913383
0
LINE
8
BLACK
6
CONTINUOUS
10
5.6402733464566932
20
-4.5008806692913383
11
5.6402988188976373
21
-4.500944330708661
0
LINE
8
BLACK
6
CONTINUOUS
10
5.6402988188976373
20
-4.500944330708661
11
5.6402364173228348
21
-4.5014421259842523
0
LINE
8
BLACK
6
CONTINUOUS
10
5.6402364173228348
20
-4.5014421259842523
11
5.6400698425196847
21
-4.5024793307086615
0
LINE
8
BLACK
6
CONTINUOUS
10
5.6400698425196847
20
-4.5024793307086615
11
5.6398296062992124
21
-4.5038849606299207
0
LINE
8
BLACK
6
CONTINUOUS
10
5.6398296062992124
20
-4.5038849606299207
11
5.6395461023622042
21
-4.5054880314960633
0
LINE
8
BLACK
6
CONTINUOUS
10
5.6395461023622042
20
-4.5054880314960633
11
5.6392498425196846
21
-4.5071174409448815
0
LINE
8
BLACK
6
CONTINUOUS
10
5.6392498425196846
20
-4.5071174409448815
11
5.6389712204724409
21
-4.5086022834645672
0
LINE
8
BLACK
6
CONTINUOUS
10
5.6389712204724409
20
-4.5086022834645672
11
5.6387406692913382
21
-4.5097714960629922
0
LINE
8
BLACK
6
CONTINUOUS
10
5.6387406692913382
20
-4.5097714960629922
11
5.638657559055118
21
-4.5101634251968505
0
LINE
8
BLACK
6
CONTINUOUS
10
5.638657559055118
20
-4.5101634251968505
11
5.6384779527559052
21
-4.5109768897637794
0
LINE
8
BLACK
6
CONTINUOUS
10
5.6384779527559052
20
-4.5109768897637794
11
5.620428858267716
21
-4.5109768897637794
0
LINE
8
BLACK
6
CONTINUOUS
10
5.620428858267716
20
-4.5109768897637794
11
5.6202442913385822
21
-4.5117903149606295
0
LINE
8
BLACK
6
CONTINUOUS
10
5.6202442913385822
20
-4.5117903149606295
11
5.6201355905511807
21
-4.5123545275590553
0
LINE
8
BLACK
6
CONTINUOUS
10
5.6201355905511807
20
-4.5123545275590553
11
5.6199236220472439
21
-4.5135288188976377
0
LINE
8
BLACK
6
CONTINUOUS
10
5.6199236220472439
20
-4.5135288188976377
11
5.6196263779527555
21
-4.515210433070866
0
LINE
8
BLACK
6
CONTINUOUS
10
5.6196263779527555
20
-4.515210433070866
11
5.6192619291338586
21
-4.5172966535433066
0
LINE
8
BLACK
6
CONTINUOUS
10
5.6192619291338586
20
-4.5172966535433066
11
5.6188483070866138
21
-4.5196847244094487
0
LINE
8
BLACK
6
CONTINUOUS
10
5.6188483070866138
20
-4.5196847244094487
11
5.6184185826771653
21
-4.5221844094488191
0
LINE
8
BLACK
6
CONTINUOUS
10
5.6184185826771653
20
-4.5221844094488191
11
5.6179618503937006
21
-4.5248396456692914
0
LINE
8
BLACK
6
CONTINUOUS
10
5.6179618503937006
20
-4.5248396456692914
11
5.6175249606299209
21
-4.5273589763779523
0
LINE
8
BLACK
6
CONTINUOUS
10
5.6175249606299209
20
-4.5273589763779523
11
5.6171286614173228
21
-4.5296243700787402
0
LINE
8
BLACK
6
CONTINUOUS
10
5.6171286614173228
20
-4.5296243700787402
11
5.6167936614173231
21
-4.5315178740157478
0
LINE
8
BLACK
6
CONTINUOUS
10
5.6167936614173231
20
-4.5315178740157478
11
5.6165407086614172
21
-4.5329214960629924
0
LINE
8
BLACK
6
CONTINUOUS
10
5.6165407086614172
20
-4.5329214960629924
11
5.6164014173228347
21
-4.5336630708661421
0
LINE
8
BLACK
6
CONTINUOUS
10
5.6164014173228347
20
-4.5336630708661421
11
5.6160254330708659
21
-4.5355611023622044
0
LINE
8
BLACK
6
CONTINUOUS
10
5.6160254330708659
20
-4.5355611023622044
11
5.6108088188976373
21
-4.5355611023622044
0
LINE
8
BLACK
6
CONTINUOUS
10
5.6108088188976373
20
-4.5355611023622044
11
5.6087477559055117
21
-4.5355521653543303
0
LINE
8
BLACK
6
CONTINUOUS
10
5.6087477559055117
20
-4.5355521653543303
11
5.6073042125984252
21
-4.535517598425197
0
LINE
8
BLACK
6
CONTINUOUS
10
5.6073042125984252
20
-4.535517598425197
11
5.6063729133858269
21
-4.5354456299212593
0
LINE
8
BLACK
6
CONTINUOUS
10
5.6063729133858269
20
-4.5354456299212593
11
5.6058484645669289
21
-4.5353246456692915
0
LINE
8
BLACK
6
CONTINUOUS
10
5.6058484645669289
20
-4.5353246456692915
11
5.6056254330708661
21
-4.5351428740157482
0
LINE
8
BLACK
6
CONTINUOUS
10
5.6056254330708661
20
-4.5351428740157482
11
5.6055922440944883
21
-4.5349820472440943
0
LINE
8
BLACK
6
CONTINUOUS
10
5.6055922440944883
20
-4.5349820472440943
11
5.6056535039370079
21
-4.5345205511811022
0
LINE
8
BLACK
6
CONTINUOUS
10
5.6056535039370079
20
-4.5345205511811022
11
5.6058296062992126
21
-4.5334191732283466
0
LINE
8
BLACK
6
CONTINUOUS
10
5.6058296062992126
20
-4.5334191732283466
11
5.6061088976377951
21
-4.5317437401574798
0
LINE
8
BLACK
6
CONTINUOUS
10
5.6061088976377951
20
-4.5317437401574798
11
5.6064797637795278
21
-4.529560157480315
0
LINE
8
BLACK
6
CONTINUOUS
10
5.6064797637795278
20
-4.529560157480315
11
5.6069305905511806
21
-4.5269342125984249
0
LINE
8
BLACK
6
CONTINUOUS
10
5.6069305905511806
20
-4.5269342125984249
11
5.6074498031496063
21
-4.5239318110236217
0
LINE
8
BLACK
6
CONTINUOUS
10
5.6074498031496063
20
-4.5239318110236217
11
5.6080257480314959
21
-4.5206187795275588
0
LINE
8
BLACK
6
CONTINUOUS
10
5.6080257480314959
20
-4.5206187795275588
11
5.6086468110236218
21
-4.5170609448818899
0
LINE
8
BLACK
6
CONTINUOUS
10
5.6086468110236218
20
-4.5170609448818899
11
5.6093014173228344
21
-4.513324212598425
0
LINE
8
BLACK
6
CONTINUOUS
10
5.6093014173228344
20
-4.513324212598425
11
5.6099779133858263
21
-4.5094744094488188
0
LINE
8
BLACK
6
CONTINUOUS
10
5.6099779133858263
20
-4.5094744094488188
11
5.61066468503937
21
-4.5055773622047246
0
LINE
8
BLACK
6
CONTINUOUS
10
5.61066468503937
20
-4.5055773622047246
11
5.6113501574803148
21
-4.5016989370078742
0
LINE
8
BLACK
6
CONTINUOUS
10
5.6113501574803148
20
-4.5016989370078742
11
5.6120226377952758
21
-4.4979050000000003
0
LINE
8
BLACK
6
CONTINUOUS
10
5.6120226377952758
20
-4.4979050000000003
11
5.6126706299212596
21
-4.494261377952756
0
LINE
8
BLACK
6
CONTINUOUS
10
5.6126706299212596
20
-4.494261377952756
11
5.6132824015748026
21
-4.4908339370078743
0
LINE
8
BLACK
6
CONTINUOUS
10
5.6132824015748026
20
-4.4908339370078743
11
5.6138464173228346
21
-4.4876885433070868
0
LINE
8
BLACK
6
CONTINUOUS
10
5.6138464173228346
20
-4.4876885433070868
11
5.6143510236220475
21
-4.4848910236220467
0
LINE
8
BLACK
6
CONTINUOUS
10
5.6143510236220475
20
-4.4848910236220467
11
5.6147846456692916
21
-4.4825072440944878
0
LINE
8
BLACK
6
CONTINUOUS
10
5.6147846456692916
20
-4.4825072440944878
11
5.6151356299212596
21
-4.4806030708661417
0
LINE
8
BLACK
6
CONTINUOUS
10
5.6151356299212596
20
-4.4806030708661417
11
5.6153923622047239
21
-4.4792442913385822
0
LINE
8
BLACK
6
CONTINUOUS
10
5.6153923622047239
20
-4.4792442913385822
11
5.6155432677165349
21
-4.4784968110236223
0
LINE
8
BLACK
6
CONTINUOUS
10
5.6155432677165349
20
-4.4784968110236223
11
5.6155764960629924
21
-4.4783707480314963
0
LINE
8
BLACK
6
CONTINUOUS
10
5.6155764960629924
20
-4.4783707480314963
11
5.615959094488189
21
-4.4783156299212594
0
LINE
8
BLACK
6
CONTINUOUS
10
5.615959094488189
20
-4.4783156299212594
11
5.6169776771653543
21
-4.4782655118110233
0
LINE
8
BLACK
6
CONTINUOUS
10
5.6169776771653543
20
-4.4782655118110233
11
5.6185451574803151
21
-4.478220708661417
0
LINE
8
BLACK
6
CONTINUOUS
10
5.6185451574803151
20
-4.478220708661417
11
5.6205744881889759
21
-4.478181456692913
0
LINE
8
BLACK
6
CONTINUOUS
10
5.6205744881889759
20
-4.478181456692913
11
5.6229786220472437
21
-4.4781479921259839
0
LINE
8
BLACK
6
CONTINUOUS
10
5.6229786220472437
20
-4.4781479921259839
11
5.6256704330708658
21
-4.4781206299212597
0
LINE
8
BLACK
6
CONTINUOUS
10
5.6256704330708658
20
-4.4781206299212597
11
5.628562913385827
21
-4.4780996062992129
0
LINE
8
BLACK
6
CONTINUOUS
10
5.628562913385827
20
-4.4780996062992129
11
5.6315689763779524
21
-4.4780851181102364
0
LINE
8
BLACK
6
CONTINUOUS
10
5.6315689763779524
20
-4.4780851181102364
11
5.634601574803149
21
-4.4780775196850389
0
LINE
8
BLACK
6
CONTINUOUS
10
5.634601574803149
20
-4.4780775196850389
11
5.6375735826771649
21
-4.4780770472440947
0
LINE
8
BLACK
6
CONTINUOUS
10
5.6375735826771649
20
-4.4780770472440947
11
5.6403979921259841
21
-4.4780839370078738
0
LINE
8
BLACK
6
CONTINUOUS
10
5.6651788976377953
20
-4.4781485039370077
11
5.6663480708661416
21
-4.4781874015748029
0
LINE
8
BLACK
6
CONTINUOUS
10
5.6663480708661416
20
-4.4781874015748029
11
5.6669784645669292
21
-4.4782513385826768
0
LINE
8
BLACK
6
CONTINUOUS
10
5.6669784645669292
20
-4.4782513385826768
11
5.667052834645669
21
-4.478288307086614
0
LINE
8
BLACK
6
CONTINUOUS
10
5.667052834645669
20
-4.478288307086614
11
5.6669917716535432
21
-4.4786994881889761
0
LINE
8
BLACK
6
CONTINUOUS
10
5.6669917716535432
20
-4.4786994881889761
11
5.6668172440944877
21
-4.4797496456692913
0
LINE
8
BLACK
6
CONTINUOUS
10
5.6668172440944877
20
-4.4797496456692913
11
5.6665419685039371
21
-4.4813658661417319
0
LINE
8
BLACK
6
CONTINUOUS
10
5.6665419685039371
20
-4.4813658661417319
11
5.6661788188976381
21
-4.4834751574803144
0
LINE
8
BLACK
6
CONTINUOUS
10
5.6661788188976381
20
-4.4834751574803144
11
5.6657406299212596
21
-4.4860046062992129
0
LINE
8
BLACK
6
CONTINUOUS
10
5.6657406299212596
20
-4.4860046062992129
11
5.6652401968503936
21
-4.4888812598425192
0
LINE
8
BLACK
6
CONTINUOUS
10
5.6652401968503936
20
-4.4888812598425192
11
5.6646903543307081
21
-4.4920321259842515
0
LINE
8
BLACK
6
CONTINUOUS
10
5.6646903543307081
20
-4.4920321259842515
11
5.6641038976377951
21
-4.4953843307086609
0
LINE
8
BLACK
6
CONTINUOUS
10
5.6641038976377951
20
-4.4953843307086609
11
5.6634937007874013
21
-4.4988648425196853
0
LINE
8
BLACK
6
CONTINUOUS
10
5.6634937007874013
20
-4.4988648425196853
11
5.6628725196850391
21
-4.502400748031496
0
LINE
8
BLACK
6
CONTINUOUS
10
5.6628725196850391
20
-4.502400748031496
11
5.6622532283464562
21
-4.5059190944881893
0
LINE
8
BLACK
6
CONTINUOUS
10
5.6622532283464562
20
-4.5059190944881893
11
5.6616486220472444
21
-4.5093469685039373
0
LINE
8
BLACK
6
CONTINUOUS
10
5.6616486220472444
20
-4.5093469685039373
11
5.6610714960629922
21
-4.5126113385826772
0
LINE
8
BLACK
6
CONTINUOUS
10
5.6610714960629922
20
-4.5126113385826772
11
5.6605347637795278
21
-4.5156393307086615
0
LINE
8
BLACK
6
CONTINUOUS
10
5.6605347637795278
20
-4.5156393307086615
11
5.660051141732283
21
-4.518357992125984
0
LINE
8
BLACK
6
CONTINUOUS
10
5.660051141732283
20
-4.518357992125984
11
5.659633503937008
21
-4.5206942913385824
0
LINE
8
BLACK
6
CONTINUOUS
10
5.659633503937008
20
-4.5206942913385824
11
5.6592946850393702
21
-4.5225753543307086
0
LINE
8
BLACK
6
CONTINUOUS
10
5.6592946850393702
20
-4.5225753543307086
11
5.6590474803149604
21
-4.523928228346457
0
LINE
8
BLACK
6
CONTINUOUS
10
5.6590474803149604
20
-4.523928228346457
11
5.6589047244094486
21
-4.5246799606299213
0
LINE
8
BLACK
6
CONTINUOUS
10
5.6589047244094486
20
-4.5246799606299213
11
5.6588771259842519
21
-4.5248055118110235
0
LINE
8
BLACK
6
CONTINUOUS
10
5.6588771259842519
20
-4.5248055118110235
11
5.6588613779527561
21
-4.5249924409448816
0
LINE
8
BLACK
6
CONTINUOUS
10
5.6588613779527561
20
-4.5249924409448816
11
5.6589900393700789
21
-4.5251385433070865
0
LINE
8
BLACK
6
CONTINUOUS
10
5.6589900393700789
20
-4.5251385433070865
11
5.6593403149606294
21
-4.5252488188976381
0
LINE
8
BLACK
6
CONTINUOUS
10
5.6593403149606294
20
-4.5252488188976381
11
5.6599893700787396
21
-4.5253282677165352
0
LINE
8
BLACK
6
CONTINUOUS
10
5.6599893700787396
20
-4.5253282677165352
11
5.6610144488188974
21
-4.5253818897637794
0
LINE
8
BLACK
6
CONTINUOUS
10
5.6610144488188974
20
-4.5253818897637794
11
5.6624927165354331
21
-4.5254146850393697
0
LINE
8
BLACK
6
CONTINUOUS
10
5.6624927165354331
20
-4.5254146850393697
11
5.6645013779527558
21
-4.525431614173228
0
LINE
8
BLACK
6
CONTINUOUS
10
5.6645013779527558
20
-4.525431614173228
11
5.6671176771653542
21
-4.5254376771653542
0
LINE
8
BLACK
6
CONTINUOUS
10
5.6671176771653542
20
-4.5254376771653542
11
5.668662244094488
21
-4.525438188976378
0
LINE
8
BLACK
6
CONTINUOUS
10
5.668662244094488
20
-4.525438188976378
11
5.6786356299212599
21
-4.525438188976378
0
LINE
8
BLACK
6
CONTINUOUS
10
5.6786356299212599
20
-4.525438188976378
11
5.6784595275590553
21
-4.5262516535433068
0
LINE
8
BLACK
6
CONTINUOUS
10
5.6784595275590553
20
-4.5262516535433068
11
5.6783200000000003
21
-4.5269655511811022
0
LINE
8
BLACK
6
CONTINUOUS
10
5.6783200000000003
20
-4.5269655511811022
11
5.6780979527559055
21
-4.5281772047244093
0
LINE
8
BLACK
6
CONTINUOUS
10
5.6780979527559055
20
-4.5281772047244093
11
5.6778324409448819
21
-4.5296714566929133
0
LINE
8
BLACK
6
CONTINUOUS
10
5.6778324409448819
20
-4.5296714566929133
11
5.6777195669291336
21
-4.5303188976377955
0
LINE
8
BLACK
6
CONTINUOUS
10
5.6777195669291336
20
-4.5303188976377955
11
5.6774432677165354
21
-4.5318964173228347
0
LINE
8
BLACK
6
CONTINUOUS
10
5.6774432677165354
20
-4.5318964173228347
11
5.6771907086614171
21
-4.5333086220472438
0
LINE
8
BLACK
6
CONTINUOUS
10
5.6771907086614171
20
-4.5333086220472438
11
5.6770029921259839
21
-4.5343264566929129
0
LINE
8
BLACK
6
CONTINUOUS
10
5.6770029921259839
20
-4.5343264566929129
11
5.6769562598425196
21
-4.5345668897637799
0
LINE
8
BLACK
6
CONTINUOUS
10
5.6769562598425196
20
-4.5345668897637799
11
5.676756771653543
21
-4.5355611023622044
0
LINE
8
BLACK
6
CONTINUOUS
10
5.676756771653543
20
-4.5355611023622044
11
5.6616011023622042
21
-4.5355611023622044
0
LINE
8
BLACK
6
CONTINUOUS
10
5.6616011023622042
20
-4.5355611023622044
11
5.6577379921259841
21
-4.5355567716535434
0
LINE
8
BLACK
6
CONTINUOUS
10
5.6577379921259841
20
-4.5355567716535434
11
5.6545448425196847
21
-4.5355426771653544
0
LINE
8
BLACK
6
CONTINUOUS
10
5.6545448425196847
20
-4.5355426771653544
11
5.6519686614173228
21
-4.5355172440944882
0
LINE
8
BLACK
6
CONTINUOUS
10
5.6519686614173228
20
-4.5355172440944882
11
5.6499564173228345
21
-4.5354789370078743
0
LINE
8
BLACK
6
CONTINUOUS
10
5.6499564173228345
20
-4.5354789370078743
11
5.6484550000000002
21
-4.5354261023622042
0
LINE
8
BLACK
6
CONTINUOUS
10
5.6484550000000002
20
-4.5354261023622042
11
5.6474114566929137
21
-4.5353572047244093
0
LINE
8
BLACK
6
CONTINUOUS
10
5.6474114566929137
20
-4.5353572047244093
11
5.6467727165354331
21
-4.5352706692913385
0
LINE
8
BLACK
6
CONTINUOUS
10
5.6467727165354331
20
-4.5352706692913385
11
5.6464857480314956
21
-4.5351648818897639
0
LINE
8
BLACK
6
CONTINUOUS
10
5.6464857480314956
20
-4.5351648818897639
11
5.6464572440944885
21
-4.5351092125984254
0
LINE
8
BLACK
6
CONTINUOUS
10
5.6464572440944885
20
-4.5351092125984254
11
5.6465204724409448
21
-4.5346900393700782
0
LINE
8
BLACK
6
CONTINUOUS
10
5.6465204724409448
20
-4.5346900393700782
11
5.6466999606299213
21
-4.5336135826771651
0
LINE
8
BLACK
6
CONTINUOUS
10
5.6466999606299213
20
-4.5336135826771651
11
5.6469862598425191
21
-4.531934488188976
0
LINE
8
BLACK
6
CONTINUOUS
10
5.6469862598425191
20
-4.531934488188976
11
5.6473698818897633
21
-4.5297074803149604
0
LINE
8
BLACK
6
CONTINUOUS
10
5.6473698818897633
20
-4.5297074803149604
11
5.6478412598425196
21
-4.5269872440944878
0
LINE
8
BLACK
6
CONTINUOUS
10
5.6478412598425196
20
-4.5269872440944878
11
5.6483909055118113
21
-4.5238285433070864
0
LINE
8
BLACK
6
CONTINUOUS
10
5.6483909055118113
20
-4.5238285433070864
11
5.6490093307086608
21
-4.5202859842519683
0
LINE
8
BLACK
6
CONTINUOUS
10
5.6490093307086608
20
-4.5202859842519683
11
5.6496870078740153
21
-4.5164143700787402
0
LINE
8
BLACK
6
CONTINUOUS
10
5.6496870078740153
20
-4.5164143700787402
11
5.6504144488188972
21
-4.5122683464566924
0
LINE
8
BLACK
6
CONTINUOUS
10
5.6504144488188972
20
-4.5122683464566924
11
5.6511821259842518
21
-4.5079026377952758
0
LINE
8
BLACK
6
CONTINUOUS
10
5.6511821259842518
20
-4.5079026377952758
11
5.6514365748031494
21
-4.5064577165354329
0
LINE
8
BLACK
6
CONTINUOUS
10
5.6514365748031494
20
-4.5064577165354329
11
5.656404094488189
21
-4.4782581496062992
0
LINE
8
BLACK
6
CONTINUOUS
10
5.656404094488189
20
-4.4782581496062992
11
5.661728464566929
21
-4.4781581102362207
0
LINE
8
BLACK
6
CONTINUOUS
10
5.661728464566929
20
-4.4781581102362207
11
5.6635970078740154
21
-4.478137716535433
0
LINE
8
BLACK
6
CONTINUOUS
10
5.6635970078740154
20
-4.478137716535433
11
5.6651788976377953
21
-4.4781485039370077
0
LINE
8
BLACK
6
CONTINUOUS
10
5.7216552755905514
20
-4.4781435433070866
11
5.7225140944881892
21
-4.4781576771653544
0
LINE
8
BLACK
6
CONTINUOUS
10
5.7225140944881892
20
-4.4781576771653544
11
5.7278712992125982
21
-4.4782581496062992
0
LINE
8
BLACK
6
CONTINUOUS
10
5.7278712992125982
20
-4.4782581496062992
11
5.7158331496062988
21
-4.49380405511811
0
LINE
8
BLACK
6
CONTINUOUS
10
5.7158331496062988
20
-4.49380405511811
11
5.7135495669291334
21
-4.49675811023622
0
LINE
8
BLACK
6
CONTINUOUS
10
5.7135495669291334
20
-4.49675811023622
11
5.711390118110236
21
-4.4995614566929136
0
LINE
8
BLACK
6
CONTINUOUS
10
5.711390118110236
20
-4.4995614566929136
11
5.7093973228346453
21
-4.5021581496062995
0
LINE
8
BLACK
6
CONTINUOUS
10
5.7093973228346453
20
-4.5021581496062995
11
5.7076136220472442
21
-4.5044923622047239
0
LINE
8
BLACK
6
CONTINUOUS
10
5.7076136220472442
20
-4.5044923622047239
11
5.7060816535433068
21
-4.5065082283464566
0
LINE
8
BLACK
6
CONTINUOUS
10
5.7060816535433068
20
-4.5065082283464566
11
5.7048438582677168
21
-4.5081498818897634
0
LINE
8
BLACK
6
CONTINUOUS
10
5.7048438582677168
20
-4.5081498818897634
11
5.703942755905512
21
-4.5093614960629917
0
LINE
8
BLACK
6
CONTINUOUS
10
5.703942755905512
20
-4.5093614960629917
11
5.703420866141732
21
-4.5100871259842519
0
LINE
8
BLACK
6
CONTINUOUS
10
5.703420866141732
20
-4.5100871259842519
11
5.7033135039370073
21
-4.5102538188976373
0
LINE
8
BLACK
6
CONTINUOUS
10
5.7033135039370073
20
-4.5102538188976373
11
5.7031361023622047
21
-4.5108222834645666
0
LINE
8
BLACK
6
CONTINUOUS
10
5.7031361023622047
20
-4.5108222834645666
11
5.7028582677165351
21
-4.5120112204724405
0
LINE
8
BLACK
6
CONTINUOUS
10
5.7028582677165351
20
-4.5120112204724405
11
5.7024985826771655
21
-4.5137278346456693
0
LINE
8
BLACK
6
CONTINUOUS
10
5.7024985826771655
20
-4.5137278346456693
11
5.7020754724409448
21
-4.5158793700787401
0
LINE
8
BLACK
6
CONTINUOUS
10
5.7020754724409448
20
-4.5158793700787401
11
5.7016073622047241
21
-4.5183729921259843
0
LINE
8
BLACK
6
CONTINUOUS
10
5.7016073622047241
20
-4.5183729921259843
11
5.7011127952755905
21
-4.5211159842519688
0
LINE
8
BLACK
6
CONTINUOUS
10
5.7011127952755905
20
-4.5211159842519688
11
5.7008310629921262
21
-4.5227266929133858
0
LINE
8
BLACK
6
CONTINUOUS
10
5.7008310629921262
20
-4.5227266929133858
11
5.7003400393700785
21
-4.5255522834645667
0
LINE
8
BLACK
6
CONTINUOUS
10
5.7003400393700785
20
-4.5255522834645667
11
5.6998812598425195
21
-4.5281670472440947
0
LINE
8
BLACK
6
CONTINUOUS
10
5.6998812598425195
20
-4.5281670472440947
11
5.6994708267716536
21
-4.5304811023622049
0
LINE
8
BLACK
6
CONTINUOUS
10
5.6994708267716536
20
-4.5304811023622049
11
5.6991248818897633
21
-4.5324044488188973
0
LINE
8
BLACK
6
CONTINUOUS
10
5.6991248818897633
20
-4.5324044488188973
11
5.6988595275590548
21
-4.5338472047244096
0
LINE
8
BLACK
6
CONTINUOUS
10
5.6988595275590548
20
-4.5338472047244096
11
5.6986909055118105
21
-4.5347194094488188
0
LINE
8
BLACK
6
CONTINUOUS
10
5.6986909055118105
20
-4.5347194094488188
11
5.6986437795275586
21
-4.53492842519685
0
LINE
8
BLACK
6
CONTINUOUS
10
5.6986437795275586
20
-4.53492842519685
11
5.6985026771653544
21
-4.535177834645669
0
LINE
8
BLACK
6
CONTINUOUS
10
5.6985026771653544
20
-4.535177834645669
11
5.698176456692913
21
-4.5353521653543307
0
LINE
8
BLACK
6
CONTINUOUS
10
5.698176456692913
20
-4.5353521653543307
11
5.697553464566929
21
-4.5354646062992128
0
LINE
8
BLACK
6
CONTINUOUS
10
5.697553464566929
20
-4.5354646062992128
11
5.6965220472440947
21
-4.5355281496062991
0
LINE
8
BLACK
6
CONTINUOUS
10
5.6965220472440947
20
-4.5355281496062991
11
5.6949705118110234
21
-4.5355559055118109
0
LINE
8
BLACK
6
CONTINUOUS
10
5.6949705118110234
20
-4.5355559055118109
11
5.6932396062992128
21
-4.5355611023622044
0
LINE
8
BLACK
6
CONTINUOUS
10
5.6932396062992128
20
-4.5355611023622044
11
5.6913907480314956
21
-4.5355464960629917
0
LINE
8
BLACK
6
CONTINUOUS
10
5.6913907480314956
20
-4.5355464960629917
11
5.689829960629921
21
-4.5355063385826773
0
LINE
8
BLACK
6
CONTINUOUS
10
5.689829960629921
20
-4.5355063385826773
11
5.6886846850393695
21
-4.5354461023622044
0
LINE
8
BLACK
6
CONTINUOUS
10
5.6886846850393695
20
-4.5354461023622044
11
5.6880822440944883
21
-4.5353712598425195
0
LINE
8
BLACK
6
CONTINUOUS
10
5.6880822440944883
20
-4.5353712598425195
11
5.6880217322834641
21
-4.5353372440944879
0
LINE
8
BLACK
6
CONTINUOUS
10
5.6880217322834641
20
-4.5353372440944879
11
5.6880820866141732
21
-4.5349409842519686
0
LINE
8
BLACK
6
CONTINUOUS
10
5.6880820866141732
20
-4.5349409842519686
11
5.688253700787401
21
-4.5339154330708658
0
LINE
8
BLACK
6
CONTINUOUS
10
5.688253700787401
20
-4.5339154330708658
11
5.6885222834645672
21
-4.5323433070866139
0
LINE
8
BLACK
6
CONTINUOUS
10
5.6885222834645672
20
-4.5323433070866139
11
5.6888735433070865
21
-4.5303074015748033
0
LINE
8
BLACK
6
CONTINUOUS
10
5.6888735433070865
20
-4.5303074015748033
11
5.6892932283464566
21
-4.5278904724409443
0
LINE
8
BLACK
6
CONTINUOUS
10
5.6892932283464566
20
-4.5278904724409443
11
5.6897670472440947
21
-4.52517531496063
0
LINE
8
BLACK
6
CONTINUOUS
10
5.6897670472440947
20
-4.52517531496063
11
5.6901963779527556
21
-4.5227251968503932
0
LINE
8
BLACK
6
CONTINUOUS
10
5.6901963779527556
20
-4.5227251968503932
11
5.6923710236220471
21
-4.5103370078740159
0
LINE
8
BLACK
6
CONTINUOUS
10
5.6923710236220471
20
-4.5103370078740159
11
5.6856772047244091
21
-4.4943981102362205
0
LINE
8
BLACK
6
CONTINUOUS
10
5.6856772047244091
20
-4.4943981102362205
11
5.6843366141732279
21
-4.4912019291338581
0
LINE
8
BLACK
6
CONTINUOUS
10
5.6843366141732279
20
-4.4912019291338581
11
5.6830855905511806
21
-4.4882114566929134
0
LINE
8
BLACK
6
CONTINUOUS
10
5.6830855905511806
20
-4.4882114566929134
11
5.6819513385826772
21
-4.4854922047244097
0
LINE
8
BLACK
6
CONTINUOUS
10
5.6819513385826772
20
-4.4854922047244097
11
5.6809610236220474
21
-4.4831098425196849
0
LINE
8
BLACK
6
CONTINUOUS
10
5.6809610236220474
20
-4.4831098425196849
11
5.680141889763779
21
-4.481129881889764
0
LINE
8
BLACK
6
CONTINUOUS
10
5.680141889763779
20
-4.481129881889764
11
5.6795211417322831
21
-4.4796179133858267
0
LINE
8
BLACK
6
CONTINUOUS
10
5.6795211417322831
20
-4.4796179133858267
11
5.67912594488189
21
-4.4786395669291341
0
LINE
8
BLACK
6
CONTINUOUS
10
5.67912594488189
20
-4.4786395669291341
11
5.6789835039370073
21
-4.4782603543307085
0
LINE
8
BLACK
6
CONTINUOUS
10
5.6789835039370073
20
-4.4782603543307085
11
5.6789833858267711
21
-4.478259133858268
0
LINE
8
BLACK
6
CONTINUOUS
10
5.6789833858267711
20
-4.478259133858268
11
5.6793244094488191
21
-4.4781968110236221
0
LINE
8
BLACK
6
CONTINUOUS
10
5.6793244094488191
20
-4.4781968110236221
11
5.6802658267716533
21
-4.4781551181102364
0
LINE
8
BLACK
6
CONTINUOUS
10
5.6802658267716533
20
-4.4781551181102364
11
5.6816852362204724
21
-4.4781362204724404
0
LINE
8
BLACK
6
CONTINUOUS
10
5.6816852362204724
20
-4.4781362204724404
11
5.6834602362204727
21
-4.4781423228346453
0
LINE
8
BLACK
6
CONTINUOUS
10
5.6834602362204727
20
-4.4781423228346453
11
5.6846296062992128
21
-4.4781585826771648
0
LINE
8
BLACK
6
CONTINUOUS
10
5.6846296062992128
20
-4.4781585826771648
11
5.6902757874015748
21
-4.4782581496062992
0
LINE
8
BLACK
6
CONTINUOUS
10
5.6902757874015748
20
-4.4782581496062992
11
5.6948429133858269
21
-4.489547677165354
0
LINE
8
BLACK
6
CONTINUOUS
10
5.6948429133858269
20
-4.489547677165354
11
5.6959307874015748
21
-4.4922240157480315
0
LINE
8
BLACK
6
CONTINUOUS
10
5.6959307874015748
20
-4.4922240157480315
11
5.6969365748031491
21
-4.4946735433070861
0
LINE
8
BLACK
6
CONTINUOUS
10
5.6969365748031491
20
-4.4946735433070861
11
5.6978275984251967
21
-4.4968188976377954
0
LINE
8
BLACK
6
CONTINUOUS
10
5.6978275984251967
20
-4.4968188976377954
11
5.6985713385826768
21
-4.4985825984251964
0
LINE
8
BLACK
6
CONTINUOUS
10
5.6985713385826768
20
-4.4985825984251964
11
5.6991351968503938
21
-4.4998872440944879
0
LINE
8
BLACK
6
CONTINUOUS
10
5.6991351968503938
20
-4.4998872440944879
11
5.6994866535433069
21
-4.5006554330708664
0
LINE
8
BLACK
6
CONTINUOUS
10
5.6994866535433069
20
-4.5006554330708664
11
5.6995907874015748
21
-4.5008330314960627
0
LINE
8
BLACK
6
CONTINUOUS
10
5.6995907874015748
20
-4.5008330314960627
11
5.6998384251968499
21
-4.5005512992125984
0
LINE
8
BLACK
6
CONTINUOUS
10
5.6998384251968499
20
-4.5005512992125984
11
5.7004671653543308
21
-4.4997499606299209
0
LINE
8
BLACK
6
CONTINUOUS
10
5.7004671653543308
20
-4.4997499606299209
11
5.7014295669291339
21
-4.4984917716535433
0
LINE
8
BLACK
6
CONTINUOUS
10
5.7014295669291339
20
-4.4984917716535433
11
5.702678228346457
21
-4.4968395275590547
0
LINE
8
BLACK
6
CONTINUOUS
10
5.702678228346457
20
-4.4968395275590547
11
5.7041657086614173
21
-4.4948560236220469
0
LINE
8
BLACK
6
CONTINUOUS
10
5.7041657086614173
20
-4.4948560236220469
11
5.7058446456692913
21
-4.4926040551181101
0
LINE
8
BLACK
6
CONTINUOUS
10
5.7058446456692913
20
-4.4926040551181101
11
5.7076675984251963
21
-4.4901464173228343
0
LINE
8
BLACK
6
CONTINUOUS
10
5.7076675984251963
20
-4.4901464173228343
11
5.7080783070866143
21
-4.4895911023622048
0
LINE
8
BLACK
6
CONTINUOUS
10
5.7080783070866143
20
-4.4895911023622048
11
5.7099348425196848
21
-4.4870888976377952
0
LINE
8
BLACK
6
CONTINUOUS
10
5.7099348425196848
20
-4.4870888976377952
11
5.7116665748031492
21
-4.4847728740157482
0
LINE
8
BLACK
6
CONTINUOUS
10
5.7116665748031492
20
-4.4847728740157482
11
5.7132246850393695
21
-4.4827070078740157
0
LINE
8
BLACK
6
CONTINUOUS
10
5.7132246850393695
20
-4.4827070078740157
11
5.7145603149606297
21
-4.4809552362204723
0
LINE
8
BLACK
6
CONTINUOUS
10
5.7145603149606297
20
-4.4809552362204723
11
5.7156246850393702
21
-4.4795815354330708
0
LINE
8
BLACK
6
CONTINUOUS
10
5.7156246850393702
20
-4.4795815354330708
11
5.7163688976377953
21
-4.4786498818897638
0
LINE
8
BLACK
6
CONTINUOUS
10
5.7163688976377953
20
-4.4786498818897638
11
5.7167441732283466
21
-4.4782242125984251
0
LINE
8
BLACK
6
CONTINUOUS
10
5.7167441732283466
20
-4.4782242125984251
11
5.7167709842519683
21
-4.4782052755905513
0
LINE
8
BLACK
6
CONTINUOUS
10
5.7167709842519683
20
-4.4782052755905513
11
5.717252874015748
21
-4.4781595669291336
0
LINE
8
BLACK
6
CONTINUOUS
10
5.717252874015748
20
-4.4781595669291336
11
5.7183196062992128
21
-4.4781332677165357
0
LINE
8
BLACK
6
CONTINUOUS
10
5.7183196062992128
20
-4.4781332677165357
11
5.7198330708661418
21
-4.4781275590551184
0
LINE
8
BLACK
6
CONTINUOUS
10
5.7198330708661418
20
-4.4781275590551184
11
5.7216552755905514
21
-4.4781435433070866
0
LINE
8
BLACK
6
CONTINUOUS
10
5.6717986220472438
20
-4.407264173228346
11
5.673565
21
-4.4072837401574798
0
LINE
8
BLACK
6
CONTINUOUS
10
5.673565
20
-4.4072837401574798
11
5.6743467322834649
21
-4.4072973622047247
0
LINE
8
BLACK
6
CONTINUOUS
10
5.6743467322834649
20
-4.4072973622047247
11
5.6795720078740155
21
-4.4073976771653545
0
LINE
8
BLACK
6
CONTINUOUS
10
5.6795720078740155
20
-4.4073976771653545
11
5.6749594881889767
21
-4.4336088188976381
0
LINE
8
BLACK
6
CONTINUOUS
10
5.6749594881889767
20
-4.4336088188976381
11
5.6741983070866144
21
-4.4379353149606295
0
LINE
8
BLACK
6
CONTINUOUS
10
5.6741983070866144
20
-4.4379353149606295
11
5.6734650787401577
21
-4.4421052362204723
0
LINE
8
BLACK
6
CONTINUOUS
10
5.6734650787401577
20
-4.4421052362204723
11
5.6727707874015749
21
-4.4460559448818895
0
LINE
8
BLACK
6
CONTINUOUS
10
5.6727707874015749
20
-4.4460559448818895
11
5.6721264566929133
21
-4.4497247637795274
0
LINE
8
BLACK
6
CONTINUOUS
10
5.6721264566929133
20
-4.4497247637795274
11
5.6715429921259846
21
-4.4530490157480314
0
LINE
8
BLACK
6
CONTINUOUS
10
5.6715429921259846
20
-4.4530490157480314
11
5.671031456692913
21
-4.4559660629921263
0
LINE
8
BLACK
6
CONTINUOUS
10
5.671031456692913
20
-4.4559660629921263
11
5.6706028346456687
21
-4.4584132677165353
0
LINE
8
BLACK
6
CONTINUOUS
10
5.6706028346456687
20
-4.4584132677165353
11
5.6702681102362202
21
-4.4603278740157482
0
LINE
8
BLACK
6
CONTINUOUS
10
5.6702681102362202
20
-4.4603278740157482
11
5.6700383070866138
21
-4.4616472834645666
0
LINE
8
BLACK
6
CONTINUOUS
10
5.6700383070866138
20
-4.4616472834645666
11
5.6699325590551179
21
-4.4622603149606297
0
LINE
8
BLACK
6
CONTINUOUS
10
5.6699325590551179
20
-4.4622603149606297
11
5.6695182283464565
21
-4.4647006692913385
0
LINE
8
BLACK
6
CONTINUOUS
10
5.6695182283464565
20
-4.4647006692913385
11
5.6587237795275591
21
-4.4647006692913385
0
LINE
8
BLACK
6
CONTINUOUS
10
5.6587237795275591
20
-4.4647006692913385
11
5.6589188976377951
21
-4.4638872047244096
0
LINE
8
BLACK
6
CONTINUOUS
10
5.6589188976377951
20
-4.4638872047244096
11
5.6590110629921258
21
-4.463409291338583
0
LINE
8
BLACK
6
CONTINUOUS
10
5.6590110629921258
20
-4.463409291338583
11
5.6592179527559052
21
-4.4622752362204725
0
LINE
8
BLACK
6
CONTINUOUS
10
5.6592179527559052
20
-4.4622752362204725
11
5.6595296062992126
21
-4.4605410629921263
0
LINE
8
BLACK
6
CONTINUOUS
10
5.6595296062992126
20
-4.4605410629921263
11
5.6599361811023625
21
-4.4582628740157482
0
LINE
8
BLACK
6
CONTINUOUS
10
5.6599361811023625
20
-4.4582628740157482
11
5.6604276377952756
21
-4.4554967322834642
0
LINE
8
BLACK
6
CONTINUOUS
10
5.6604276377952756
20
-4.4554967322834642
11
5.6609940551181097
21
-4.4522987007874013
0
LINE
8
BLACK
6
CONTINUOUS
10
5.6609940551181097
20
-4.4522987007874013
11
5.6616255118110237
21
-4.4487248425196846
0
LINE
8
BLACK
6
CONTINUOUS
10
5.6616255118110237
20
-4.4487248425196846
11
5.6623120866141727
21
-4.4448312598425197
0
LINE
8
BLACK
6
CONTINUOUS
10
5.6623120866141727
20
-4.4448312598425197
11
5.6630438188976377
21
-4.440673976377953
0
LINE
8
BLACK
6
CONTINUOUS
10
5.6630438188976377
20
-4.440673976377953
11
5.6638107086614173
21
-4.4363090944881884
0
LINE
8
BLACK
6
CONTINUOUS
10
5.6638107086614173
20
-4.4363090944881884
11
5.6639952362204724
21
-4.4352579133858265
0
LINE
8
BLACK
6
CONTINUOUS
10
5.6639952362204724
20
-4.4352579133858265
11
5.664765984251968
21
-4.4308727559055114
0
LINE
8
BLACK
6
CONTINUOUS
10
5.664765984251968
20
-4.4308727559055114
11
5.6655024015748028
21
-4.426697165354331
0
LINE
8
BLACK
6
CONTINUOUS
10
5.6655024015748028
20
-4.426697165354331
11
5.6661946850393701
21
-4.4227854330708665
0
LINE
8
BLACK
6
CONTINUOUS
10
5.6661946850393701
20
-4.4227854330708665
11
5.6668331496062994
21
-4.4191917716535434
0
LINE
8
BLACK
6
CONTINUOUS
10
5.6668331496062994
20
-4.4191917716535434
11
5.6674080708661414
21
-4.4159705118110235
0
LINE
8
BLACK
6
CONTINUOUS
10
5.6674080708661414
20
-4.4159705118110235
11
5.6679097637795275
21
-4.4131759055118112
0
LINE
8
BLACK
6
CONTINUOUS
10
5.6679097637795275
20
-4.4131759055118112
11
5.66832842519685
21
-4.4108622047244097
0
LINE
8
BLACK
6
CONTINUOUS
10
5.66832842519685
20
-4.4108622047244097
11
5.6686544488188977
21
-4.4090836614173226
0
LINE
8
BLACK
6
CONTINUOUS
10
5.6686544488188977
20
-4.4090836614173226
11
5.6688779921259842
21
-4.4078946062992124
0
LINE
8
BLACK
6
CONTINUOUS
10
5.6688779921259842
20
-4.4078946062992124
11
5.6689894488188974
21
-4.4073492519685038
0
LINE
8
BLACK
6
CONTINUOUS
10
5.6689894488188974
20
-4.4073492519685038
11
5.6689988976377954
21
-4.4073195275590553
0
LINE
8
BLACK
6
CONTINUOUS
10
5.6689988976377954
20
-4.4073195275590553
11
5.6693843307086613
21
-4.4072825984251969
0
LINE
8
BLACK
6
CONTINUOUS
10
5.6693843307086613
20
-4.4072825984251969
11
5.6703613385826772
21
-4.4072639763779531
0
LINE
8
BLACK
6
CONTINUOUS
10
5.6703613385826772
20
-4.4072639763779531
11
5.6717986220472438
21
-4.407264173228346
0
LINE
8
BLACK
6
CONTINUOUS
10
5.7175399606299209
20
-4.4072345669291337
11
5.7191081102362205
21
-4.4072831102362207
0
LINE
8
BLACK
6
CONTINUOUS
10
5.7191081102362205
20
-4.4072831102362207
11
5.7202624803149602
21
-4.4073559055118112
0
LINE
8
BLACK
6
CONTINUOUS
10
5.7202624803149602
20
-4.4073559055118112
11
5.7208752755905508
21
-4.4074464173228343
0
LINE
8
BLACK
6
CONTINUOUS
10
5.7208752755905508
20
-4.4074464173228343
11
5.720940433070866
21
-4.4074880708661412
0
LINE
8
BLACK
6
CONTINUOUS
10
5.720940433070866
20
-4.4074880708661412
11
5.7208825196850395
21
-4.4078782677165353
0
LINE
8
BLACK
6
CONTINUOUS
10
5.7208825196850395
20
-4.4078782677165353
11
5.7207088582677166
21
-4.4089266535433067
0
LINE
8
BLACK
6
CONTINUOUS
10
5.7207088582677166
20
-4.4089266535433067
11
5.7204288188976378
21
-4.4105792125984253
0
LINE
8
BLACK
6
CONTINUOUS
10
5.7204288188976378
20
-4.4105792125984253
11
5.7200517322834648
21
-4.4127819291338586
0
LINE
8
BLACK
6
CONTINUOUS
10
5.7200517322834648
20
-4.4127819291338586
11
5.7195868503937008
21
-4.4154808661417322
0
LINE
8
BLACK
6
CONTINUOUS
10
5.7195868503937008
20
-4.4154808661417322
11
5.7190435826771653
21
-4.4186220078740153
0
LINE
8
BLACK
6
CONTINUOUS
10
5.7190435826771653
20
-4.4186220078740153
11
5.718431220472441
21
-4.4221513385826769
0
LINE
8
BLACK
6
CONTINUOUS
10
5.718431220472441
20
-4.4221513385826769
11
5.7177590944881889
21
-4.4260148818897633
0
LINE
8
BLACK
6
CONTINUOUS
10
5.7177590944881889
20
-4.4260148818897633
11
5.7170365354330706
21
-4.4301586220472444
0
LINE
8
BLACK
6
CONTINUOUS
10
5.7170365354330706
20
-4.4301586220472444
11
5.7162728740157478
21
-4.4345286220472442
0
LINE
8
BLACK
6
CONTINUOUS
10
5.7162728740157478
20
-4.4345286220472442
11
5.7159751181102365
21
-4.4362299606299214
0
LINE
8
BLACK
6
CONTINUOUS
10
5.7159751181102365
20
-4.4362299606299214
11
5.7109905905511811
21
-4.4647006692913385
0
LINE
8
BLACK
6
CONTINUOUS
10
5.7109905905511811
20
-4.4647006692913385
11
5.7002563779527557
21
-4.4647006692913385
0
LINE
8
BLACK
6
CONTINUOUS
10
5.7002563779527557
20
-4.4647006692913385
11
5.7004643307086615
21
-4.463706456692913
0
LINE
8
BLACK
6
CONTINUOUS
10
5.7004643307086615
20
-4.463706456692913
11
5.7005588582677165
21
-4.4631968503937003
0
LINE
8
BLACK
6
CONTINUOUS
10
5.7005588582677165
20
-4.4631968503937003
11
5.7007674409448814
21
-4.4620325196850397
0
LINE
8
BLACK
6
CONTINUOUS
10
5.7007674409448814
20
-4.4620325196850397
11
5.7010800000000001
21
-4.4602709842519683
0
LINE
8
BLACK
6
CONTINUOUS
10
5.7010800000000001
20
-4.4602709842519683
11
5.7014863779527554
21
-4.4579698031496058
0
LINE
8
BLACK
6
CONTINUOUS
10
5.7014863779527554
20
-4.4579698031496058
11
5.7019764960629917
21
-4.4551865748031494
0
LINE
8
BLACK
6
CONTINUOUS
10
5.7019764960629917
20
-4.4551865748031494
11
5.7025401968503937
21
-4.4519788188976381
0
LINE
8
BLACK
6
CONTINUOUS
10
5.7025401968503937
20
-4.4519788188976381
11
5.7031673622047245
21
-4.4484041338582676
0
LINE
8
BLACK
6
CONTINUOUS
10
5.7031673622047245
20
-4.4484041338582676
11
5.7038478346456696
21
-4.4445200787401573
0
LINE
8
BLACK
6
CONTINUOUS
10
5.7038478346456696
20
-4.4445200787401573
11
5.7045715354330708
21
-4.440384212598425
0
LINE
8
BLACK
6
CONTINUOUS
10
5.7045715354330708
20
-4.440384212598425
11
5.7053283464566924
21
-4.4360540551181105
0
LINE
8
BLACK
6
CONTINUOUS
10
5.7053283464566924
20
-4.4360540551181105
11
5.7053765354330706
21
-4.4357780314960626
0
LINE
8
BLACK
6
CONTINUOUS
10
5.7053765354330706
20
-4.4357780314960626
11
5.7061342125984247
21
-4.4314431889763775
0
LINE
8
BLACK
6
CONTINUOUS
10
5.7061342125984247
20
-4.4314431889763775
11
5.7068589370078735
21
-4.4273030708661416
0
LINE
8
BLACK
6
CONTINUOUS
10
5.7068589370078735
20
-4.4273030708661416
11
5.7075406299212599
21
-4.4234148031496066
0
LINE
8
BLACK
6
CONTINUOUS
10
5.7075406299212599
20
-4.4234148031496066
11
5.7081692519685037
21
-4.4198354330708662
0
LINE
8
BLACK
6
CONTINUOUS
10
5.7081692519685037
20
-4.4198354330708662
11
5.7087347244094486
21
-4.4166220472440942
0
LINE
8
BLACK
6
CONTINUOUS
10
5.7087347244094486
20
-4.4166220472440942
11
5.7092270078740155
21
-4.4138316535433066
0
LINE
8
BLACK
6
CONTINUOUS
10
5.7092270078740155
20
-4.4138316535433066
11
5.7096360629921259
21
-4.411521338582677
0
LINE
8
BLACK
6
CONTINUOUS
10
5.7096360629921259
20
-4.411521338582677
11
5.7099518503937006
21
-4.4097481496062994
0
LINE
8
BLACK
6
CONTINUOUS
10
5.7099518503937006
20
-4.4097481496062994
11
5.7101642519685036
21
-4.4085691732283463
0
LINE
8
BLACK
6
CONTINUOUS
10
5.7101642519685036
20
-4.4085691732283463
11
5.7102632677165355
21
-4.4080414566929136
0
LINE
8
BLACK
6
CONTINUOUS
10
5.7102632677165355
20
-4.4080414566929136
11
5.7102657086614172
21
-4.4080303937007876
0
LINE
8
BLACK
6
CONTINUOUS
10
5.7102657086614172
20
-4.4080303937007876
11
5.7103633464566927
21
-4.4077133070866141
0
LINE
8
BLACK
6
CONTINUOUS
10
5.7103633464566927
20
-4.4077133070866141
11
5.7105637795275586
21
-4.4074915748031493
0
LINE
8
BLACK
6
CONTINUOUS
10
5.7105637795275586
20
-4.4074915748031493
11
5.7109805511811018
21
-4.4073481889763775
0
LINE
8
BLACK
6
CONTINUOUS
10
5.7109805511811018
20
-4.4073481889763775
11
5.7117272834645672
21
-4.4072661023622048
0
LINE
8
BLACK
6
CONTINUOUS
10
5.7117272834645672
20
-4.4072661023622048
11
5.712917677165354
21
-4.4072281889763776
0
LINE
8
BLACK
6
CONTINUOUS
10
5.712917677165354
20
-4.4072281889763776
11
5.7146653149606301
21
-4.4072174409448817
0
LINE
8
BLACK
6
CONTINUOUS
10
5.7146653149606301
20
-4.4072174409448817
11
5.7156858661417322
21
-4.4072169291338579
0
LINE
8
BLACK
6
CONTINUOUS
10
5.7156858661417322
20
-4.4072169291338579
11
5.7175399606299209
21
-4.4072345669291337
0
LINE
8
BLACK
6
CONTINUOUS
10
5.638325157480315
20
-4.4085628346456689
11
5.6382261417322832
21
-4.4091319291338582
0
LINE
8
BLACK
6
CONTINUOUS
10
5.6382261417322832
20
-4.4091319291338582
11
5.6380120472440947
21
-4.4103550393700788
0
LINE
8
BLACK
6
CONTINUOUS
10
5.6380120472440947
20
-4.4103550393700788
11
5.6376930708661419
21
-4.4121739763779528
0
LINE
8
BLACK
6
CONTINUOUS
10
5.6376930708661419
20
-4.4121739763779528
11
5.6372794488188971
21
-4.4145306692913389
0
LINE
8
BLACK
6
CONTINUOUS
10
5.6372794488188971
20
-4.4145306692913389
11
5.6367813779527554
21
-4.4173669291338582
0
LINE
8
BLACK
6
CONTINUOUS
10
5.6367813779527554
20
-4.4173669291338582
11
5.6362090944881889
21
-4.4206246062992127
0
LINE
8
BLACK
6
CONTINUOUS
10
5.6362090944881889
20
-4.4206246062992127
11
5.6355727559055113
21
-4.42424562992126
0
LINE
8
BLACK
6
CONTINUOUS
10
5.6355727559055113
20
-4.42424562992126
11
5.6348826377952754
21
-4.4281718110236223
0
LINE
8
BLACK
6
CONTINUOUS
10
5.6348826377952754
20
-4.4281718110236223
11
5.6341488976377949
21
-4.4323450393700785
0
LINE
8
BLACK
6
CONTINUOUS
10
5.6341488976377949
20
-4.4323450393700785
11
5.6333817716535428
21
-4.4367071653543304
0
LINE
8
BLACK
6
CONTINUOUS
10
5.6333817716535428
20
-4.4367071653543304
11
5.6332908661417322
21
-4.4372241732283459
0
LINE
8
BLACK
6
CONTINUOUS
10
5.6332908661417322
20
-4.4372241732283459
11
5.6284899606299215
21
-4.464519881889764
0
LINE
8
BLACK
6
CONTINUOUS
10
5.6284899606299215
20
-4.464519881889764
11
5.6231871653543308
21
-4.4646199606299213
0
LINE
8
BLACK
6
CONTINUOUS
10
5.6231871653543308
20
-4.4646199606299213
11
5.6210323228346457
21
-4.4646466535433067
0
LINE
8
BLACK
6
CONTINUOUS
10
5.6210323228346457
20
-4.4646466535433067
11
5.6195127165354331
21
-4.4646284251968504
0
LINE
8
BLACK
6
CONTINUOUS
10
5.6195127165354331
20
-4.4646284251968504
11
5.6185414173228345
21
-4.4645593307086617
0
LINE
8
BLACK
6
CONTINUOUS
10
5.6185414173228345
20
-4.4645593307086617
11
5.6180316929133856
21
-4.4644334251968507
0
LINE
8
BLACK
6
CONTINUOUS
10
5.6180316929133856
20
-4.4644334251968507
11
5.6178957874015749
21
-4.4642584251968502
0
LINE
8
BLACK
6
CONTINUOUS
10
5.6178957874015749
20
-4.4642584251968502
11
5.617958897637795
21
-4.4638377165354326
0
LINE
8
BLACK
6
CONTINUOUS
10
5.617958897637795
20
-4.4638377165354326
11
5.6181382677165352
21
-4.462759724409449
0
LINE
8
BLACK
6
CONTINUOUS
10
5.6181382677165352
20
-4.462759724409449
11
5.6184243307086614
21
-4.4610791338582674
0
LINE
8
BLACK
6
CONTINUOUS
10
5.6184243307086614
20
-4.4610791338582674
11
5.6188076377952756
21
-4.4588506692913388
0
LINE
8
BLACK
6
CONTINUOUS
10
5.6188076377952756
20
-4.4588506692913388
11
5.6192787007874019
21
-4.4561290944881886
0
LINE
8
BLACK
6
CONTINUOUS
10
5.6192787007874019
20
-4.4561290944881886
11
5.6198279527559052
21
-4.4529691732283467
0
LINE
8
BLACK
6
CONTINUOUS
10
5.6198279527559052
20
-4.4529691732283467
11
5.6204459842519681
21
-4.4494255511811023
0
LINE
8
BLACK
6
CONTINUOUS
10
5.6204459842519681
20
-4.4494255511811023
11
5.6211231889763775
21
-4.445553031496063
0
LINE
8
BLACK
6
CONTINUOUS
10
5.6211231889763775
20
-4.445553031496063
11
5.6218501574803152
21
-4.4414062992125984
0
LINE
8
BLACK
6
CONTINUOUS
10
5.6218501574803152
20
-4.4414062992125984
11
5.6226173228346452
21
-4.4370401181102359
0
LINE
8
BLACK
6
CONTINUOUS
10
5.6226173228346452
20
-4.4370401181102359
11
5.6228712204724411
21
-4.4355972440944882
0
LINE
8
BLACK
6
CONTINUOUS
10
5.6228712204724411
20
-4.4355972440944882
11
5.6278352362204727
21
-4.4073976771653545
0
LINE
8
BLACK
6
CONTINUOUS
10
5.6278352362204727
20
-4.4073976771653545
11
5.6385586220472437
21
-4.407197204724409
0
LINE
8
BLACK
6
CONTINUOUS
10
5.6385586220472437
20
-4.407197204724409
11
5.638325157480315
21
-4.4085628346456689
0
CIRCLE
8
BLACK
10
4.4424665354330708
20
-4.6279311023622043
40
0.0068897637795276
0
CIRCLE
8
BLACK
10
4.5424665354330704
20
-4.6279311023622043
40
0.0068897637795276
0
CIRCLE
8
BLACK
10
4.6424664960629922
20
-4.6279311023622043
40
0.0068897637795276
0
CIRCLE
8
BLACK
10
4.7424665354330706
20
-4.6279311023622043
40
0.0068897637795276
0
CIRCLE
8
BLACK
10
4.8424665354330712
20
-4.6279311023622043
40
0.0068897637795276
0
CIRCLE
8
BLACK
10
4.9424665354330708
20
-4.6279311023622043
40
0.0068897637795276
0
CIRCLE
8
BLACK
10
5.0424665354330704
20
-4.6279311023622043
40
0.0068897637795276
0
CIRCLE
8
BLACK
10
5.1424665748031497
20
-4.6279311023622043
40
0.0068897637795276
0
CIRCLE
8
BLACK
10
5.8424665354330712
20
-4.6279311023622043
40
0.0068897637795276
0
CIRCLE
8
BLACK
10
5.942466496062992
20
-4.6279311023622043
40
0.0068897637795276
0
CIRCLE
8
BLACK
10
6.0424665748031492
20
-4.6279311023622043
40
0.0068897637795276
0
CIRCLE
8
BLACK
10
6.142466535433071
20
-4.6279311023622043
40
0.0068897637795276
0
CIRCLE
8
BLACK
10
6.2424665354330706
20
-4.6279311023622043
40
0.0068897637795276
0
CIRCLE
8
BLACK
10
6.3424665354330712
20
-4.6279311023622043
40
0.0068897637795276
0
CIRCLE
8
BLACK
10
6.442466496062992
20
-4.6279311023622043
40
0.0068897637795276
0
CIRCLE
8
BLACK
10
6.5424665354330704
20
-4.6279311023622043
40
0.0068897637795276
0
CIRCLE
8
BLACK
10
6.642466535433071
20
-4.6279311023622043
40
0.0068897637795276
0
CIRCLE
8
BLACK
10
6.7424665354330706
20
-4.6279311023622043
40
0.0068897637795276
0
CIRCLE
8
BLACK
10
4.4424665354330708
20
-4.6279311023622043
40
0.0068897637795276
0
CIRCLE
8
BLACK
10
4.5424665354330704
20
-4.6279311023622043
40
0.0068897637795276
0
CIRCLE
8
BLACK
10
4.6424664960629922
20
-4.6279311023622043
40
0.0068897637795276
0
CIRCLE
8
BLACK
10
4.7424665354330706
20
-4.6279311023622043
40
0.0068897637795276
0
CIRCLE
8
BLACK
10
4.8424665354330712
20
-4.6279311023622043
40
0.0068897637795276
0
CIRCLE
8
BLACK
10
4.9424665354330708
20
-4.6279311023622043
40
0.0068897637795276
0
CIRCLE
8
BLACK
10
5.0424665354330704
20
-4.6279311023622043
40
0.0068897637795276
0
CIRCLE
8
BLACK
10
5.1424665748031497
20
-4.6279311023622043
40
0.0068897637795276
0
CIRCLE
8
BLACK
10
5.8424665354330712
20
-4.6279311023622043
40
0.0068897637795276
0
CIRCLE
8
BLACK
10
5.942466496062992
20
-4.6279311023622043
40
0.0068897637795276
0
CIRCLE
8
BLACK
10
6.0424665748031492
20
-4.6279311023622043
40
0.0068897637795276
0
CIRCLE
8
BLACK
10
6.142466535433071
20
-4.6279311023622043
40
0.0068897637795276
0
CIRCLE
8
BLACK
10
6.2424665354330706
20
-4.6279311023622043
40
0.0068897637795276
0
CIRCLE
8
BLACK
10
6.3424665354330712
20
-4.6279311023622043
40
0.0068897637795276
0
CIRCLE
8
BLACK
10
6.442466496062992
20
-4.6279311023622043
40
0.0068897637795276
0
CIRCLE
8
BLACK
10
6.5424665354330704
20
-4.6279311023622043
40
0.0068897637795276
0
CIRCLE
8
BLACK
10
6.642466535433071
20
-4.6279311023622043
40
0.0068897637795276
0
CIRCLE
8
BLACK
10
6.7424665354330706
20
-4.6279311023622043
40
0.0068897637795276
  0
ENDSEC
  0
EOF
