  0
SECTION
  2
HEADER
  9
$ANGBASE
  50
0.0
  9
$ANGDIR
  70
1
  9
$MEASUREMENT
  70
0
  0
ENDSEC
  0
SECTION
  2
TABLES
  0
TABLE
  2
LTYPE
  70
4
  0
LTYPE
  5
40F
  2
CONTINUOUS
  70
0
  3
Solid line
  72
65
  73
0
  40
0.0
  0
LTYPE
  5
410
  2
DASHDOT
 70
0
  3
Dash Dot ____ _ ____ _
 72
65
 73
4
 40
2.0
 49
1.25
 49
-0.25
 49
0.25
 49
-0.25
  0
LTYPE
  5
411
  2
DASHED
 70
0
  3
Dashed __ __ __ __ __
 72
65
 73
2
 40
0.75
 49
0.5
 49
-0.25
  0
LTYPE
  5
43B
  2
DOTTED
 70
0
  3
Dotted .  .  .  .
 72
65
 73
2
 40
0.2
 49
0.0
 49
-0.2
  0
ENDTAB
  0
TABLE
  2
STYLE
  70
4
  0
STYLE
  2
KICAD
  70
0
  40
0
  41
1
  42
1
  50
0
  71
0
  3
isocp.shx
  0
STYLE
  2
KICADB
  70
0
  40
0
  41
1
  42
1
  50
0
  71
0
  3
isocp.shx
  0
STYLE
  2
KICADI
  70
0
  40
0
  41
1
  42
1
  50
15
  71
0
  3
isocp.shx
  0
STYLE
  2
KICADBI
  70
0
  40
0
  41
1
  42
1
  50
15
  71
0
  3
isocp.shx
  0
ENDTAB
  0
TABLE
  2
LAYER
  70
1
  0
LAYER
  2
BLACK
  70
0
  62
7
  6
CONTINUOUS
  0
ENDTAB
  0
ENDSEC
  0
SECTION
  2
ENTITIES
0
LINE
8
BLACK
6
CONTINUOUS
10
5.2023451574803152
20
-4.3770434251968506
11
5.202877834645669
21
-4.3775761023622044
0
LINE
8
BLACK
6
CONTINUOUS
10
5.202877834645669
20
-4.3775761023622044
11
5.2029527559055113
21
-4.377952755905512
0
LINE
8
BLACK
6
CONTINUOUS
10
5.2029527559055113
20
-4.377952755905512
11
5.2029527559055113
21
-4.5196850393700787
0
LINE
8
BLACK
6
CONTINUOUS
10
5.2029527559055113
20
-4.5196850393700787
11
5.202877834645669
21
-4.5200616929133854
0
LINE
8
BLACK
6
CONTINUOUS
10
5.202877834645669
20
-4.5200616929133854
11
5.2023451574803152
21
-4.5205943700787401
0
LINE
8
BLACK
6
CONTINUOUS
10
5.2023451574803152
20
-4.5205943700787401
11
5.2019685039370076
21
-4.5206692913385824
0
LINE
8
BLACK
6
CONTINUOUS
10
5.2019685039370076
20
-4.5206692913385824
11
4.3614173228346456
21
-4.5206692913385824
0
LINE
8
BLACK
6
CONTINUOUS
10
4.3614173228346456
20
-4.5206692913385824
11
4.3610406692913388
21
-4.5205943700787401
0
LINE
8
BLACK
6
CONTINUOUS
10
4.3610406692913388
20
-4.5205943700787401
11
4.3605079921259842
21
-4.5200616929133854
0
LINE
8
BLACK
6
CONTINUOUS
10
4.3605079921259842
20
-4.5200616929133854
11
4.3604330708661418
21
-4.5196850393700787
0
LINE
8
BLACK
6
CONTINUOUS
10
4.3604330708661418
20
-4.5196850393700787
11
4.3604330708661418
21
-4.377952755905512
0
LINE
8
BLACK
6
CONTINUOUS
10
4.3604330708661418
20
-4.377952755905512
11
4.3605079921259842
21
-4.3775761023622044
0
LINE
8
BLACK
6
CONTINUOUS
10
4.3605079921259842
20
-4.3775761023622044
11
4.3610406692913388
21
-4.3770434251968506
0
LINE
8
BLACK
6
CONTINUOUS
10
4.3610406692913388
20
-4.3770434251968506
11
4.3614173228346456
21
-4.3769685039370074
0
LINE
8
BLACK
6
CONTINUOUS
10
4.3614173228346456
20
-4.3769685039370074
11
5.2019685039370076
21
-4.3769685039370074
0
LINE
8
BLACK
6
CONTINUOUS
10
5.2019685039370076
20
-4.3769685039370074
11
5.2023451574803152
21
-4.3770434251968506
0
LINE
8
BLACK
6
CONTINUOUS
10
4.3624015748031493
20
-4.3789370078740157
11
4.3624015748031493
21
-4.518700787401575
0
LINE
8
BLACK
6
CONTINUOUS
10
4.3624015748031493
20
-4.518700787401575
11
5.2009842519685039
21
-4.518700787401575
0
LINE
8
BLACK
6
CONTINUOUS
10
5.2009842519685039
20
-4.518700787401575
11
5.2009842519685039
21
-4.3789370078740157
0
LINE
8
BLACK
6
CONTINUOUS
10
5.2009842519685039
20
-4.3789370078740157
11
4.3624015748031493
21
-4.3789370078740157
0
LINE
8
BLACK
6
CONTINUOUS
10
6.8031325590551184
20
-4.3770434251968506
11
6.8036652362204721
21
-4.3775761023622044
0
LINE
8
BLACK
6
CONTINUOUS
10
6.8036652362204721
20
-4.3775761023622044
11
6.8037401574803145
21
-4.377952755905512
0
LINE
8
BLACK
6
CONTINUOUS
10
6.8037401574803145
20
-4.377952755905512
11
6.8037401574803145
21
-4.5196850393700787
0
LINE
8
BLACK
6
CONTINUOUS
10
6.8037401574803145
20
-4.5196850393700787
11
6.8036652362204721
21
-4.5200616929133854
0
LINE
8
BLACK
6
CONTINUOUS
10
6.8036652362204721
20
-4.5200616929133854
11
6.8031325590551184
21
-4.5205943700787401
0
LINE
8
BLACK
6
CONTINUOUS
10
6.8031325590551184
20
-4.5205943700787401
11
6.8027559055118108
21
-4.5206692913385824
0
LINE
8
BLACK
6
CONTINUOUS
10
6.8027559055118108
20
-4.5206692913385824
11
5.7614173228346459
21
-4.5206692913385824
0
LINE
8
BLACK
6
CONTINUOUS
10
5.7614173228346459
20
-4.5206692913385824
11
5.7610406692913383
21
-4.5205943700787401
0
LINE
8
BLACK
6
CONTINUOUS
10
5.7610406692913383
20
-4.5205943700787401
11
5.7605079921259845
21
-4.5200616929133854
0
LINE
8
BLACK
6
CONTINUOUS
10
5.7605079921259845
20
-4.5200616929133854
11
5.7604330708661413
21
-4.5196850393700787
0
LINE
8
BLACK
6
CONTINUOUS
10
5.7604330708661413
20
-4.5196850393700787
11
5.7604330708661413
21
-4.377952755905512
0
LINE
8
BLACK
6
CONTINUOUS
10
5.7604330708661413
20
-4.377952755905512
11
5.7605079921259845
21
-4.3775761023622044
0
LINE
8
BLACK
6
CONTINUOUS
10
5.7605079921259845
20
-4.3775761023622044
11
5.7610406692913383
21
-4.3770434251968506
0
LINE
8
BLACK
6
CONTINUOUS
10
5.7610406692913383
20
-4.3770434251968506
11
5.7614173228346459
21
-4.3769685039370074
0
LINE
8
BLACK
6
CONTINUOUS
10
5.7614173228346459
20
-4.3769685039370074
11
6.8027559055118108
21
-4.3769685039370074
0
LINE
8
BLACK
6
CONTINUOUS
10
6.8027559055118108
20
-4.3769685039370074
11
6.8031325590551184
21
-4.3770434251968506
0
LINE
8
BLACK
6
CONTINUOUS
10
5.7624015748031496
20
-4.3789370078740157
11
5.7624015748031496
21
-4.518700787401575
0
LINE
8
BLACK
6
CONTINUOUS
10
5.7624015748031496
20
-4.518700787401575
11
6.801771653543307
21
-4.518700787401575
0
LINE
8
BLACK
6
CONTINUOUS
10
6.801771653543307
20
-4.518700787401575
11
6.801771653543307
21
-4.3789370078740157
0
LINE
8
BLACK
6
CONTINUOUS
10
6.801771653543307
20
-4.3789370078740157
11
5.7624015748031496
21
-4.3789370078740157
0
CIRCLE
8
BLACK
10
4.4322834645669289
20
-4.4488188976377954
40
0.0068897637795276
0
CIRCLE
8
BLACK
10
4.5322834645669294
20
-4.4488188976377954
40
0.0068897637795276
0
CIRCLE
8
BLACK
10
4.6322834645669291
20
-4.4488188976377954
40
0.0068897637795276
0
CIRCLE
8
BLACK
10
4.7322834645669287
20
-4.4488188976377954
40
0.0068897637795276
0
CIRCLE
8
BLACK
10
4.8322834645669293
20
-4.4488188976377954
40
0.0068897637795276
0
CIRCLE
8
BLACK
10
4.9322834645669289
20
-4.4488188976377954
40
0.0068897637795276
0
CIRCLE
8
BLACK
10
5.0322834645669294
20
-4.4488188976377954
40
0.0068897637795276
0
CIRCLE
8
BLACK
10
5.1322834645669291
20
-4.4488188976377954
40
0.0068897637795276
0
CIRCLE
8
BLACK
10
5.8322834645669293
20
-4.4488188976377954
40
0.0068897637795276
0
CIRCLE
8
BLACK
10
5.9322834645669289
20
-4.4488188976377954
40
0.0068897637795276
0
CIRCLE
8
BLACK
10
6.0322834645669294
20
-4.4488188976377954
40
0.0068897637795276
0
CIRCLE
8
BLACK
10
6.1322834645669291
20
-4.4488188976377954
40
0.0068897637795276
0
CIRCLE
8
BLACK
10
6.2322834645669287
20
-4.4488188976377954
40
0.0068897637795276
0
CIRCLE
8
BLACK
10
6.3322834645669293
20
-4.4488188976377954
40
0.0068897637795276
0
CIRCLE
8
BLACK
10
6.4322834645669289
20
-4.4488188976377954
40
0.0068897637795276
0
CIRCLE
8
BLACK
10
6.5322834645669285
20
-4.4488188976377954
40
0.0068897637795276
0
CIRCLE
8
BLACK
10
6.6322834645669291
20
-4.4488188976377954
40
0.0068897637795276
0
CIRCLE
8
BLACK
10
6.7322834645669287
20
-4.4488188976377954
40
0.0068897637795276
0
CIRCLE
8
BLACK
10
4.4322834645669289
20
-4.4488188976377954
40
0.0068897637795276
0
CIRCLE
8
BLACK
10
4.5322834645669294
20
-4.4488188976377954
40
0.0068897637795276
0
CIRCLE
8
BLACK
10
4.6322834645669291
20
-4.4488188976377954
40
0.0068897637795276
0
CIRCLE
8
BLACK
10
4.7322834645669287
20
-4.4488188976377954
40
0.0068897637795276
0
CIRCLE
8
BLACK
10
4.8322834645669293
20
-4.4488188976377954
40
0.0068897637795276
0
CIRCLE
8
BLACK
10
4.9322834645669289
20
-4.4488188976377954
40
0.0068897637795276
0
CIRCLE
8
BLACK
10
5.0322834645669294
20
-4.4488188976377954
40
0.0068897637795276
0
CIRCLE
8
BLACK
10
5.1322834645669291
20
-4.4488188976377954
40
0.0068897637795276
0
CIRCLE
8
BLACK
10
5.8322834645669293
20
-4.4488188976377954
40
0.0068897637795276
0
CIRCLE
8
BLACK
10
5.9322834645669289
20
-4.4488188976377954
40
0.0068897637795276
0
CIRCLE
8
BLACK
10
6.0322834645669294
20
-4.4488188976377954
40
0.0068897637795276
0
CIRCLE
8
BLACK
10
6.1322834645669291
20
-4.4488188976377954
40
0.0068897637795276
0
CIRCLE
8
BLACK
10
6.2322834645669287
20
-4.4488188976377954
40
0.0068897637795276
0
CIRCLE
8
BLACK
10
6.3322834645669293
20
-4.4488188976377954
40
0.0068897637795276
0
CIRCLE
8
BLACK
10
6.4322834645669289
20
-4.4488188976377954
40
0.0068897637795276
0
CIRCLE
8
BLACK
10
6.5322834645669285
20
-4.4488188976377954
40
0.0068897637795276
0
CIRCLE
8
BLACK
10
6.6322834645669291
20
-4.4488188976377954
40
0.0068897637795276
0
CIRCLE
8
BLACK
10
6.7322834645669287
20
-4.4488188976377954
40
0.0068897637795276
  0
ENDSEC
  0
EOF
