  0
SECTION
  2
HEADER
  9
$ANGBASE
  50
0.0
  9
$ANGDIR
  70
1
  9
$MEASUREMENT
  70
0
  0
ENDSEC
  0
SECTION
  2
TABLES
  0
TABLE
  2
LTYPE
  70
4
  0
LTYPE
  5
40F
  2
CONTINUOUS
  70
0
  3
Solid line
  72
65
  73
0
  40
0.0
  0
LTYPE
  5
410
  2
DASHDOT
 70
0
  3
Dash Dot ____ _ ____ _
 72
65
 73
4
 40
2.0
 49
1.25
 49
-0.25
 49
0.25
 49
-0.25
  0
LTYPE
  5
411
  2
DASHED
 70
0
  3
Dashed __ __ __ __ __
 72
65
 73
2
 40
0.75
 49
0.5
 49
-0.25
  0
LTYPE
  5
43B
  2
DOTTED
 70
0
  3
Dotted .  .  .  .
 72
65
 73
2
 40
0.2
 49
0.0
 49
-0.2
  0
ENDTAB
  0
TABLE
  2
STYLE
  70
4
  0
STYLE
  2
KICAD
  70
0
  40
0
  41
1
  42
1
  50
0
  71
0
  3
isocp.shx
  0
STYLE
  2
KICADB
  70
0
  40
0
  41
1
  42
1
  50
0
  71
0
  3
isocp.shx
  0
STYLE
  2
KICADI
  70
0
  40
0
  41
1
  42
1
  50
15
  71
0
  3
isocp.shx
  0
STYLE
  2
KICADBI
  70
0
  40
0
  41
1
  42
1
  50
15
  71
0
  3
isocp.shx
  0
ENDTAB
  0
TABLE
  2
LAYER
  70
1
  0
LAYER
  2
BLACK
  70
0
  62
7
  6
CONTINUOUS
  0
ENDTAB
  0
ENDSEC
  0
SECTION
  2
ENTITIES
0
LINE
8
BLACK
6
CONTINUOUS
10
4.422832598425197
20
-4.7252390157480315
11
4.4238970078740154
21
-4.7256799212598422
0
LINE
8
BLACK
6
CONTINUOUS
10
4.4238970078740154
20
-4.7256799212598422
11
4.4247116535433069
21
-4.7264945669291336
0
LINE
8
BLACK
6
CONTINUOUS
10
4.4247116535433069
20
-4.7264945669291336
11
4.4251525590551184
21
-4.7275589763779529
0
LINE
8
BLACK
6
CONTINUOUS
10
4.4251525590551184
20
-4.7275589763779529
11
4.4251525590551184
21
-4.7287111023622046
0
LINE
8
BLACK
6
CONTINUOUS
10
4.4251525590551184
20
-4.7287111023622046
11
4.4247116535433069
21
-4.7297755118110238
0
LINE
8
BLACK
6
CONTINUOUS
10
4.4247116535433069
20
-4.7297755118110238
11
4.4238970078740154
21
-4.7305901574803144
0
LINE
8
BLACK
6
CONTINUOUS
10
4.4238970078740154
20
-4.7305901574803144
11
4.422832598425197
21
-4.7310310629921259
0
LINE
8
BLACK
6
CONTINUOUS
10
4.422832598425197
20
-4.7310310629921259
11
4.4222565354330712
21
-4.7310877952755908
0
LINE
8
BLACK
6
CONTINUOUS
10
4.4222565354330712
20
-4.7310877952755908
11
4.413960708661417
21
-4.7310877952755908
0
LINE
8
BLACK
6
CONTINUOUS
10
4.413960708661417
20
-4.7310877952755908
11
4.413960708661417
21
-4.7675051181102361
0
LINE
8
BLACK
6
CONTINUOUS
10
4.413960708661417
20
-4.7675051181102361
11
4.4139604724409445
21
-4.7675071653543304
0
LINE
8
BLACK
6
CONTINUOUS
10
4.4139604724409445
20
-4.7675071653543304
11
4.413960708661417
21
-4.7675082283464567
0
LINE
8
BLACK
6
CONTINUOUS
10
4.413960708661417
20
-4.7675082283464567
11
4.4139600787401569
21
-4.767511220472441
0
LINE
8
BLACK
6
CONTINUOUS
10
4.4139600787401569
20
-4.767511220472441
11
4.4139039763779531
21
-4.768081181102362
0
LINE
8
BLACK
6
CONTINUOUS
10
4.4139039763779531
20
-4.768081181102362
11
4.4137920866141735
21
-4.76835125984252
0
LINE
8
BLACK
6
CONTINUOUS
10
4.4137920866141735
20
-4.76835125984252
11
4.4137347637795274
21
-4.7686379527559053
0
LINE
8
BLACK
6
CONTINUOUS
10
4.4137347637795274
20
-4.7686379527559053
11
4.4135737401574806
21
-4.7688783464566926
0
LINE
8
BLACK
6
CONTINUOUS
10
4.4135737401574806
20
-4.7688783464566926
11
4.4134630708661415
21
-4.7691455905511813
0
LINE
8
BLACK
6
CONTINUOUS
10
4.4134630708661415
20
-4.7691455905511813
11
4.4132564173228346
21
-4.7693522047244095
0
LINE
8
BLACK
6
CONTINUOUS
10
4.4132564173228346
20
-4.7693522047244095
11
4.4130937007874014
21
-4.7695952362204723
0
LINE
8
BLACK
6
CONTINUOUS
10
4.4130937007874014
20
-4.7695952362204723
11
4.4128528740157478
21
-4.7697557480314963
0
LINE
8
BLACK
6
CONTINUOUS
10
4.4128528740157478
20
-4.7697557480314963
11
4.4126484251968501
21
-4.7699602362204727
0
LINE
8
BLACK
6
CONTINUOUS
10
4.4126484251968501
20
-4.7699602362204727
11
4.412378346456693
21
-4.7700720866141735
0
LINE
8
BLACK
6
CONTINUOUS
10
4.412378346456693
20
-4.7700720866141735
11
4.4121350787401576
21
-4.7702342913385829
0
LINE
8
BLACK
6
CONTINUOUS
10
4.4121350787401576
20
-4.7702342913385829
11
4.4118512598425195
21
-4.7702903937007877
0
LINE
8
BLACK
6
CONTINUOUS
10
4.4118512598425195
20
-4.7702903937007877
11
4.4115840157480317
21
-4.7704011417322834
0
LINE
8
BLACK
6
CONTINUOUS
10
4.4115840157480317
20
-4.7704011417322834
11
4.4112916141732281
21
-4.7704011417322834
0
LINE
8
BLACK
6
CONTINUOUS
10
4.4112916141732281
20
-4.7704011417322834
11
4.4110048425196853
21
-4.7704578740157482
0
LINE
8
BLACK
6
CONTINUOUS
10
4.4110048425196853
20
-4.7704578740157482
11
4.4107211811023621
21
-4.7704011417322834
0
LINE
8
BLACK
6
CONTINUOUS
10
4.4107211811023621
20
-4.7704011417322834
11
4.4104318897637791
21
-4.7704011417322834
0
LINE
8
BLACK
6
CONTINUOUS
10
4.4104318897637791
20
-4.7704011417322834
11
4.4101617716535433
21
-4.7702892519685038
0
LINE
8
BLACK
6
CONTINUOUS
10
4.4101617716535433
20
-4.7702892519685038
11
4.4098751574803146
21
-4.7702319291338577
0
LINE
8
BLACK
6
CONTINUOUS
10
4.4098751574803146
20
-4.7702319291338577
11
4.4096347637795272
21
-4.7700709448818897
0
LINE
8
BLACK
6
CONTINUOUS
10
4.4096347637795272
20
-4.7700709448818897
11
4.4093674803149607
21
-4.7699602362204727
0
LINE
8
BLACK
6
CONTINUOUS
10
4.4093674803149607
20
-4.7699602362204727
11
4.4091607480314963
21
-4.7697535039370074
0
LINE
8
BLACK
6
CONTINUOUS
10
4.4091607480314963
20
-4.7697535039370074
11
4.4089178740157475
21
-4.7695908661417326
0
LINE
8
BLACK
6
CONTINUOUS
10
4.4089178740157475
20
-4.7695908661417326
11
4.4085548425196848
21
-4.7691475984251968
0
LINE
8
BLACK
6
CONTINUOUS
10
4.4085548425196848
20
-4.7691475984251968
11
4.4085528346456693
21
-4.7691455905511813
0
LINE
8
BLACK
6
CONTINUOUS
10
4.4085528346456693
20
-4.7691455905511813
11
4.4085524409448817
21
-4.7691446850393699
0
LINE
8
BLACK
6
CONTINUOUS
10
4.4085524409448817
20
-4.7691446850393699
11
4.408551102362205
21
-4.7691430314960632
0
LINE
8
BLACK
6
CONTINUOUS
10
4.408551102362205
20
-4.7691430314960632
11
4.4049637007874018
21
-4.7637619291338584
0
LINE
8
BLACK
6
CONTINUOUS
10
4.4049637007874018
20
-4.7637619291338584
11
4.4017598031496066
21
-4.7605580314960632
0
LINE
8
BLACK
6
CONTINUOUS
10
4.4017598031496066
20
-4.7605580314960632
11
4.3984388582677161
21
-4.7588975590551179
0
LINE
8
BLACK
6
CONTINUOUS
10
4.3984388582677161
20
-4.7588975590551179
11
4.3979489763779522
21
-4.7585892125984248
0
LINE
8
BLACK
6
CONTINUOUS
10
4.3979489763779522
20
-4.7585892125984248
11
4.3971941338582674
21
-4.7577188188976374
0
LINE
8
BLACK
6
CONTINUOUS
10
4.3971941338582674
20
-4.7577188188976374
11
4.3968298031496058
21
-4.7566258661417322
0
LINE
8
BLACK
6
CONTINUOUS
10
4.3968298031496058
20
-4.7566258661417322
11
4.3969114566929131
21
-4.7554766535433073
0
LINE
8
BLACK
6
CONTINUOUS
10
4.3969114566929131
20
-4.7554766535433073
11
4.3974266929133856
21
-4.7544461417322834
0
LINE
8
BLACK
6
CONTINUOUS
10
4.3974266929133856
20
-4.7544461417322834
11
4.3982970866141731
21
-4.7536912992125986
0
LINE
8
BLACK
6
CONTINUOUS
10
4.3982970866141731
20
-4.7536912992125986
11
4.3993900393700782
21
-4.753326968503937
0
LINE
8
BLACK
6
CONTINUOUS
10
4.3993900393700782
20
-4.753326968503937
11
4.400539251968504
21
-4.7534086220472442
0
LINE
8
BLACK
6
CONTINUOUS
10
4.400539251968504
20
-4.7534086220472442
11
4.4010798818897641
21
-4.7536155118110237
0
LINE
8
BLACK
6
CONTINUOUS
10
4.4010798818897641
20
-4.7536155118110237
11
4.4048294094488192
21
-4.7554902755905513
0
LINE
8
BLACK
6
CONTINUOUS
10
4.4048294094488192
20
-4.7554902755905513
11
4.4050774015748031
21
-4.755646338582677
0
LINE
8
BLACK
6
CONTINUOUS
10
4.4050774015748031
20
-4.755646338582677
11
4.4051493700787399
21
-4.7556761811023618
0
LINE
8
BLACK
6
CONTINUOUS
10
4.4051493700787399
20
-4.7556761811023618
11
4.4052303149606296
21
-4.7557426377952758
0
LINE
8
BLACK
6
CONTINUOUS
10
4.4052303149606296
20
-4.7557426377952758
11
4.405319291338583
21
-4.7557986220472444
0
LINE
8
BLACK
6
CONTINUOUS
10
4.405319291338583
20
-4.7557986220472444
11
4.4053704330708658
21
-4.7558575984251972
0
LINE
8
BLACK
6
CONTINUOUS
10
4.4053704330708658
20
-4.7558575984251972
11
4.4055968110236217
21
-4.7560433858267714
0
LINE
8
BLACK
6
CONTINUOUS
10
4.4055968110236217
20
-4.7560433858267714
11
4.4080551968503938
21
-4.7585017716535436
0
LINE
8
BLACK
6
CONTINUOUS
10
4.4080551968503938
20
-4.7585017716535436
11
4.4080551968503938
21
-4.7310877952755908
0
LINE
8
BLACK
6
CONTINUOUS
10
4.4080551968503938
20
-4.7310877952755908
11
4.3997593700787396
21
-4.7310877952755908
0
LINE
8
BLACK
6
CONTINUOUS
10
4.3997593700787396
20
-4.7310877952755908
11
4.3991833070866138
21
-4.7310310629921259
0
LINE
8
BLACK
6
CONTINUOUS
10
4.3991833070866138
20
-4.7310310629921259
11
4.3981188976377954
21
-4.7305901574803144
0
LINE
8
BLACK
6
CONTINUOUS
10
4.3981188976377954
20
-4.7305901574803144
11
4.3973042519685039
21
-4.7297755118110238
0
LINE
8
BLACK
6
CONTINUOUS
10
4.3973042519685039
20
-4.7297755118110238
11
4.3968633464566924
21
-4.7287111023622046
0
LINE
8
BLACK
6
CONTINUOUS
10
4.3968633464566924
20
-4.7287111023622046
11
4.3968633464566924
21
-4.7275589763779529
0
LINE
8
BLACK
6
CONTINUOUS
10
4.3968633464566924
20
-4.7275589763779529
11
4.3973042519685039
21
-4.7264945669291336
0
LINE
8
BLACK
6
CONTINUOUS
10
4.3973042519685039
20
-4.7264945669291336
11
4.3981188976377954
21
-4.7256799212598422
0
LINE
8
BLACK
6
CONTINUOUS
10
4.3981188976377954
20
-4.7256799212598422
11
4.3991833070866138
21
-4.7252390157480315
0
LINE
8
BLACK
6
CONTINUOUS
10
4.3991833070866138
20
-4.7252390157480315
11
4.3997593700787396
21
-4.7251822834645667
0
LINE
8
BLACK
6
CONTINUOUS
10
4.3997593700787396
20
-4.7251822834645667
11
4.4222565354330712
21
-4.7251822834645667
0
LINE
8
BLACK
6
CONTINUOUS
10
4.4222565354330712
20
-4.7251822834645667
11
4.422832598425197
21
-4.7252390157480315
0
LINE
8
BLACK
6
CONTINUOUS
10
5.2952505905511806
20
-4.7256799212598422
11
5.2960652362204721
21
-4.7264945669291336
0
LINE
8
BLACK
6
CONTINUOUS
10
5.2960652362204721
20
-4.7264945669291336
11
5.2965061417322836
21
-4.7275589763779529
0
LINE
8
BLACK
6
CONTINUOUS
10
5.2965061417322836
20
-4.7275589763779529
11
5.2965628740157475
21
-4.7281350393700787
0
LINE
8
BLACK
6
CONTINUOUS
10
5.2965628740157475
20
-4.7281350393700787
11
5.2965628740157475
21
-4.7458047244094486
0
LINE
8
BLACK
6
CONTINUOUS
10
5.2965628740157475
20
-4.7458047244094486
11
5.3067334645669293
21
-4.7458047244094486
0
LINE
8
BLACK
6
CONTINUOUS
10
5.3067334645669293
20
-4.7458047244094486
11
5.3073095275590552
21
-4.7458614566929134
0
LINE
8
BLACK
6
CONTINUOUS
10
5.3073095275590552
20
-4.7458614566929134
11
5.3083739370078735
21
-4.746302362204724
0
LINE
8
BLACK
6
CONTINUOUS
10
5.3083739370078735
20
-4.746302362204724
11
5.309188582677165
21
-4.7471170078740155
0
LINE
8
BLACK
6
CONTINUOUS
10
5.309188582677165
20
-4.7471170078740155
11
5.3096294881889765
21
-4.7481814173228347
0
LINE
8
BLACK
6
CONTINUOUS
10
5.3096294881889765
20
-4.7481814173228347
11
5.3096294881889765
21
-4.7493335433070865
0
LINE
8
BLACK
6
CONTINUOUS
10
5.3096294881889765
20
-4.7493335433070865
11
5.309188582677165
21
-4.7503979527559057
0
LINE
8
BLACK
6
CONTINUOUS
10
5.309188582677165
20
-4.7503979527559057
11
5.3083739370078735
21
-4.7512125984251972
0
LINE
8
BLACK
6
CONTINUOUS
10
5.3083739370078735
20
-4.7512125984251972
11
5.3073095275590552
21
-4.7516535039370078
0
LINE
8
BLACK
6
CONTINUOUS
10
5.3073095275590552
20
-4.7516535039370078
11
5.3067334645669293
21
-4.7517102362204726
0
LINE
8
BLACK
6
CONTINUOUS
10
5.3067334645669293
20
-4.7517102362204726
11
5.2965628740157475
21
-4.7517102362204726
0
LINE
8
BLACK
6
CONTINUOUS
10
5.2965628740157475
20
-4.7517102362204726
11
5.2965628740157475
21
-4.7645523622047241
0
LINE
8
BLACK
6
CONTINUOUS
10
5.2965628740157475
20
-4.7645523622047241
11
5.312357755905512
21
-4.7645523622047241
0
LINE
8
BLACK
6
CONTINUOUS
10
5.312357755905512
20
-4.7645523622047241
11
5.3129338188976378
21
-4.7646090944881889
0
LINE
8
BLACK
6
CONTINUOUS
10
5.3129338188976378
20
-4.7646090944881889
11
5.3139982283464562
21
-4.7650499999999996
0
LINE
8
BLACK
6
CONTINUOUS
10
5.3139982283464562
20
-4.7650499999999996
11
5.3148128740157476
21
-4.765864645669291
0
LINE
8
BLACK
6
CONTINUOUS
10
5.3148128740157476
20
-4.765864645669291
11
5.3152537795275592
21
-4.7669290551181103
0
LINE
8
BLACK
6
CONTINUOUS
10
5.3152537795275592
20
-4.7669290551181103
11
5.3152537795275592
21
-4.768081181102362
0
LINE
8
BLACK
6
CONTINUOUS
10
5.3152537795275592
20
-4.768081181102362
11
5.3148128740157476
21
-4.7691455905511813
0
LINE
8
BLACK
6
CONTINUOUS
10
5.3148128740157476
20
-4.7691455905511813
11
5.3139982283464562
21
-4.7699602362204727
0
LINE
8
BLACK
6
CONTINUOUS
10
5.3139982283464562
20
-4.7699602362204727
11
5.3129338188976378
21
-4.7704011417322834
0
LINE
8
BLACK
6
CONTINUOUS
10
5.3129338188976378
20
-4.7704011417322834
11
5.312357755905512
21
-4.7704578740157482
0
LINE
8
BLACK
6
CONTINUOUS
10
5.312357755905512
20
-4.7704578740157482
11
5.2936101181102364
21
-4.7704578740157482
0
LINE
8
BLACK
6
CONTINUOUS
10
5.2936101181102364
20
-4.7704578740157482
11
5.2930340551181105
21
-4.7704011417322834
0
LINE
8
BLACK
6
CONTINUOUS
10
5.2930340551181105
20
-4.7704011417322834
11
5.2919696456692913
21
-4.7699602362204727
0
LINE
8
BLACK
6
CONTINUOUS
10
5.2919696456692913
20
-4.7699602362204727
11
5.2911549999999998
21
-4.7691455905511813
0
LINE
8
BLACK
6
CONTINUOUS
10
5.2911549999999998
20
-4.7691455905511813
11
5.2907140944881892
21
-4.768081181102362
0
LINE
8
BLACK
6
CONTINUOUS
10
5.2907140944881892
20
-4.768081181102362
11
5.2907140944881892
21
-4.7680811417322833
0
LINE
8
BLACK
6
CONTINUOUS
10
5.2907140944881892
20
-4.7680811417322833
11
5.2906573622047244
21
-4.7675051181102361
0
LINE
8
BLACK
6
CONTINUOUS
10
5.2906573622047244
20
-4.7675051181102361
11
5.2906573622047244
21
-4.7281350393700787
0
LINE
8
BLACK
6
CONTINUOUS
10
5.2906573622047244
20
-4.7281350393700787
11
5.2907140944881892
21
-4.7275589763779529
0
LINE
8
BLACK
6
CONTINUOUS
10
5.2907140944881892
20
-4.7275589763779529
11
5.2911549999999998
21
-4.7264945669291336
0
LINE
8
BLACK
6
CONTINUOUS
10
5.2911549999999998
20
-4.7264945669291336
11
5.2919696456692913
21
-4.7256799212598422
0
LINE
8
BLACK
6
CONTINUOUS
10
5.2919696456692913
20
-4.7256799212598422
11
5.2930340551181105
21
-4.7252390157480315
0
LINE
8
BLACK
6
CONTINUOUS
10
5.2930340551181105
20
-4.7252390157480315
11
5.2941861811023623
21
-4.7252390157480315
0
LINE
8
BLACK
6
CONTINUOUS
10
5.2941861811023623
20
-4.7252390157480315
11
5.2952505905511806
21
-4.7256799212598422
0
LINE
8
BLACK
6
CONTINUOUS
10
5.549154330708661
20
-4.7252390157480315
11
5.5502187401574803
21
-4.7256799212598422
0
LINE
8
BLACK
6
CONTINUOUS
10
5.5502187401574803
20
-4.7256799212598422
11
5.5510333858267717
21
-4.7264945669291336
0
LINE
8
BLACK
6
CONTINUOUS
10
5.5510333858267717
20
-4.7264945669291336
11
5.5514742913385824
21
-4.7275589763779529
0
LINE
8
BLACK
6
CONTINUOUS
10
5.5514742913385824
20
-4.7275589763779529
11
5.5514742913385824
21
-4.7287111023622046
0
LINE
8
BLACK
6
CONTINUOUS
10
5.5514742913385824
20
-4.7287111023622046
11
5.5510333858267717
21
-4.7297755118110238
0
LINE
8
BLACK
6
CONTINUOUS
10
5.5510333858267717
20
-4.7297755118110238
11
5.5502187401574803
21
-4.7305901574803144
0
LINE
8
BLACK
6
CONTINUOUS
10
5.5502187401574803
20
-4.7305901574803144
11
5.549154330708661
21
-4.7310310629921259
0
LINE
8
BLACK
6
CONTINUOUS
10
5.549154330708661
20
-4.7310310629921259
11
5.5485782677165352
21
-4.7310877952755908
0
LINE
8
BLACK
6
CONTINUOUS
10
5.5485782677165352
20
-4.7310877952755908
11
5.5278488582677161
21
-4.7310877952755908
0
LINE
8
BLACK
6
CONTINUOUS
10
5.5278488582677161
20
-4.7310877952755908
11
5.551035118110236
21
-4.7658672047244091
0
LINE
8
BLACK
6
CONTINUOUS
10
5.551035118110236
20
-4.7658672047244091
11
5.5513074409448819
21
-4.7663779921259843
0
LINE
8
BLACK
6
CONTINUOUS
10
5.5513074409448819
20
-4.7663779921259843
11
5.5513635433070867
21
-4.7666617716535429
0
LINE
8
BLACK
6
CONTINUOUS
10
5.5513635433070867
20
-4.7666617716535429
11
5.5514742913385824
21
-4.7669290551181103
0
LINE
8
BLACK
6
CONTINUOUS
10
5.5514742913385824
20
-4.7669290551181103
11
5.5514742913385824
21
-4.7672214173228342
0
LINE
8
BLACK
6
CONTINUOUS
10
5.5514742913385824
20
-4.7672214173228342
11
5.5515310236220472
21
-4.7675082283464567
0
LINE
8
BLACK
6
CONTINUOUS
10
5.5515310236220472
20
-4.7675082283464567
11
5.5514742913385824
21
-4.7677918503937002
0
LINE
8
BLACK
6
CONTINUOUS
10
5.5514742913385824
20
-4.7677918503937002
11
5.5514742913385824
21
-4.768081181102362
0
LINE
8
BLACK
6
CONTINUOUS
10
5.5514742913385824
20
-4.768081181102362
11
5.5513624015748029
21
-4.76835125984252
0
LINE
8
BLACK
6
CONTINUOUS
10
5.5513624015748029
20
-4.76835125984252
11
5.5513050787401577
21
-4.7686379133858265
0
LINE
8
BLACK
6
CONTINUOUS
10
5.5513050787401577
20
-4.7686379133858265
11
5.5511440944881887
21
-4.7688782677165351
0
LINE
8
BLACK
6
CONTINUOUS
10
5.5511440944881887
20
-4.7688782677165351
11
5.5510333858267717
21
-4.7691455905511813
0
LINE
8
BLACK
6
CONTINUOUS
10
5.5510333858267717
20
-4.7691455905511813
11
5.5508266535433073
21
-4.769352283464567
0
LINE
8
BLACK
6
CONTINUOUS
10
5.5508266535433073
20
-4.769352283464567
11
5.5506640157480316
21
-4.7695951968503936
0
LINE
8
BLACK
6
CONTINUOUS
10
5.5506640157480316
20
-4.7695951968503936
11
5.5504232677165355
21
-4.7697556692913388
0
LINE
8
BLACK
6
CONTINUOUS
10
5.5504232677165355
20
-4.7697556692913388
11
5.5502187401574803
21
-4.7699602362204727
0
LINE
8
BLACK
6
CONTINUOUS
10
5.5502187401574803
20
-4.7699602362204727
11
5.5499486220472436
21
-4.7700720866141735
0
LINE
8
BLACK
6
CONTINUOUS
10
5.5499486220472436
20
-4.7700720866141735
11
5.549705393700787
21
-4.7702342913385829
0
LINE
8
BLACK
6
CONTINUOUS
10
5.549705393700787
20
-4.7702342913385829
11
5.5494215748031497
21
-4.7702903937007877
0
LINE
8
BLACK
6
CONTINUOUS
10
5.5494215748031497
20
-4.7702903937007877
11
5.549154330708661
21
-4.7704011417322834
0
LINE
8
BLACK
6
CONTINUOUS
10
5.549154330708661
20
-4.7704011417322834
11
5.5485782677165352
21
-4.7704578740157482
0
LINE
8
BLACK
6
CONTINUOUS
10
5.5485782677165352
20
-4.7704578740157482
11
5.5485751574803146
21
-4.7704578740157482
0
LINE
8
BLACK
6
CONTINUOUS
10
5.5485751574803146
20
-4.7704578740157482
11
5.5223315748031494
21
-4.7704578740157482
0
LINE
8
BLACK
6
CONTINUOUS
10
5.5223315748031494
20
-4.7704578740157482
11
5.5217555118110235
21
-4.7704011417322834
0
LINE
8
BLACK
6
CONTINUOUS
10
5.5217555118110235
20
-4.7704011417322834
11
5.5206911023622043
21
-4.7699602362204727
0
LINE
8
BLACK
6
CONTINUOUS
10
5.5206911023622043
20
-4.7699602362204727
11
5.5198764566929128
21
-4.7691455905511813
0
LINE
8
BLACK
6
CONTINUOUS
10
5.5198764566929128
20
-4.7691455905511813
11
5.5194355511811022
21
-4.768081181102362
0
LINE
8
BLACK
6
CONTINUOUS
10
5.5194355511811022
20
-4.768081181102362
11
5.5194355511811022
21
-4.7669290551181103
0
LINE
8
BLACK
6
CONTINUOUS
10
5.5194355511811022
20
-4.7669290551181103
11
5.5198764566929128
21
-4.765864645669291
0
LINE
8
BLACK
6
CONTINUOUS
10
5.5198764566929128
20
-4.765864645669291
11
5.5206911023622043
21
-4.7650499999999996
0
LINE
8
BLACK
6
CONTINUOUS
10
5.5206911023622043
20
-4.7650499999999996
11
5.5217555118110235
21
-4.7646090944881889
0
LINE
8
BLACK
6
CONTINUOUS
10
5.5217555118110235
20
-4.7646090944881889
11
5.5223315748031494
21
-4.7645523622047241
0
LINE
8
BLACK
6
CONTINUOUS
10
5.5223315748031494
20
-4.7645523622047241
11
5.5430609842519685
21
-4.7645523622047241
0
LINE
8
BLACK
6
CONTINUOUS
10
5.5430609842519685
20
-4.7645523622047241
11
5.5198747244094486
21
-4.7297729133858271
0
LINE
8
BLACK
6
CONTINUOUS
10
5.5198747244094486
20
-4.7297729133858271
11
5.5196024015748026
21
-4.7292621653543305
0
LINE
8
BLACK
6
CONTINUOUS
10
5.5196024015748026
20
-4.7292621653543305
11
5.5195462598425191
21
-4.7289783464566932
0
LINE
8
BLACK
6
CONTINUOUS
10
5.5195462598425191
20
-4.7289783464566932
11
5.5194355511811022
21
-4.7287111023622046
0
LINE
8
BLACK
6
CONTINUOUS
10
5.5194355511811022
20
-4.7287111023622046
11
5.5194355511811022
21
-4.7284187007874019
0
LINE
8
BLACK
6
CONTINUOUS
10
5.5194355511811022
20
-4.7284187007874019
11
5.5193788188976374
21
-4.7281319291338582
0
LINE
8
BLACK
6
CONTINUOUS
10
5.5193788188976374
20
-4.7281319291338582
11
5.5194355511811022
21
-4.727848267716535
0
LINE
8
BLACK
6
CONTINUOUS
10
5.5194355511811022
20
-4.727848267716535
11
5.5194355511811022
21
-4.7275589763779529
0
LINE
8
BLACK
6
CONTINUOUS
10
5.5194355511811022
20
-4.7275589763779529
11
5.5195474015748029
21
-4.7272888582677162
0
LINE
8
BLACK
6
CONTINUOUS
10
5.5195474015748029
20
-4.7272888582677162
11
5.5196047637795278
21
-4.7270022440944883
0
LINE
8
BLACK
6
CONTINUOUS
10
5.5196047637795278
20
-4.7270022440944883
11
5.5197657086614171
21
-4.726761850393701
0
LINE
8
BLACK
6
CONTINUOUS
10
5.5197657086614171
20
-4.726761850393701
11
5.5198764566929128
21
-4.7264945669291336
0
LINE
8
BLACK
6
CONTINUOUS
10
5.5198764566929128
20
-4.7264945669291336
11
5.5200831496062994
21
-4.7262878346456692
0
LINE
8
BLACK
6
CONTINUOUS
10
5.5200831496062994
20
-4.7262878346456692
11
5.520245826771653
21
-4.7260449606299213
0
LINE
8
BLACK
6
CONTINUOUS
10
5.520245826771653
20
-4.7260449606299213
11
5.5204865354330703
21
-4.7258844488188974
0
LINE
8
BLACK
6
CONTINUOUS
10
5.5204865354330703
20
-4.7258844488188974
11
5.5206911023622043
21
-4.7256799212598422
0
LINE
8
BLACK
6
CONTINUOUS
10
5.5206911023622043
20
-4.7256799212598422
11
5.5209611811023622
21
-4.7255680314960626
0
LINE
8
BLACK
6
CONTINUOUS
10
5.5209611811023622
20
-4.7255680314960626
11
5.5212044488188976
21
-4.725405866141732
0
LINE
8
BLACK
6
CONTINUOUS
10
5.5212044488188976
20
-4.725405866141732
11
5.5214882283464561
21
-4.7253497244094484
0
LINE
8
BLACK
6
CONTINUOUS
10
5.5214882283464561
20
-4.7253497244094484
11
5.5217555118110235
21
-4.7252390157480315
0
LINE
8
BLACK
6
CONTINUOUS
10
5.5217555118110235
20
-4.7252390157480315
11
5.5223315748031494
21
-4.7251822834645667
0
LINE
8
BLACK
6
CONTINUOUS
10
5.5223315748031494
20
-4.7251822834645667
11
5.5485782677165352
21
-4.7251822834645667
0
LINE
8
BLACK
6
CONTINUOUS
10
5.5485782677165352
20
-4.7251822834645667
11
5.549154330708661
21
-4.7252390157480315
0
LINE
8
BLACK
6
CONTINUOUS
10
4.3719294094488186
20
-4.7252109842519685
11
4.372007204724409
21
-4.7252054724409449
0
LINE
8
BLACK
6
CONTINUOUS
10
4.372007204724409
20
-4.7252054724409449
11
4.3721094488188976
21
-4.7252287007874019
0
LINE
8
BLACK
6
CONTINUOUS
10
4.3721094488188976
20
-4.7252287007874019
11
4.3722139370078743
21
-4.7252390157480315
0
LINE
8
BLACK
6
CONTINUOUS
10
4.3722139370078743
20
-4.7252390157480315
11
4.3722859842519686
21
-4.7252688582677163
0
LINE
8
BLACK
6
CONTINUOUS
10
4.3722859842519686
20
-4.7252688582677163
11
4.3725716535433072
21
-4.7253338188976377
0
LINE
8
BLACK
6
CONTINUOUS
10
4.3725716535433072
20
-4.7253338188976377
11
4.3781959448818899
21
-4.727208622047244
0
LINE
8
BLACK
6
CONTINUOUS
10
4.3781959448818899
20
-4.727208622047244
11
4.3787244881889764
21
-4.7274446062992128
0
LINE
8
BLACK
6
CONTINUOUS
10
4.3787244881889764
20
-4.7274446062992128
11
4.3788046456692911
21
-4.7275141338582678
0
LINE
8
BLACK
6
CONTINUOUS
10
4.3788046456692911
20
-4.7275141338582678
11
4.3789026377952753
21
-4.7275547244094485
0
LINE
8
BLACK
6
CONTINUOUS
10
4.3789026377952753
20
-4.7275547244094485
11
4.3793500787401571
21
-4.7279219291338581
0
LINE
8
BLACK
6
CONTINUOUS
10
4.3793500787401571
20
-4.7279219291338581
11
4.3830996062992122
21
-4.7316714566929132
0
LINE
8
BLACK
6
CONTINUOUS
10
4.3830996062992122
20
-4.7316714566929132
11
4.3834668503937007
21
-4.732118897637795
0
LINE
8
BLACK
6
CONTINUOUS
10
4.3834668503937007
20
-4.732118897637795
11
4.3835074409448822
21
-4.7322169291338581
0
LINE
8
BLACK
6
CONTINUOUS
10
4.3835074409448822
20
-4.7322169291338581
11
4.3835769291338584
21
-4.7322970472440939
0
LINE
8
BLACK
6
CONTINUOUS
10
4.3835769291338584
20
-4.7322970472440939
11
4.3838129133858263
21
-4.7328256299212601
0
LINE
8
BLACK
6
CONTINUOUS
10
4.3838129133858263
20
-4.7328256299212601
11
4.3856876771653539
21
-4.738449881889764
0
LINE
8
BLACK
6
CONTINUOUS
10
4.3856876771653539
20
-4.738449881889764
11
4.3857525984251966
21
-4.7387355118110239
0
LINE
8
BLACK
6
CONTINUOUS
10
4.3857525984251966
20
-4.7387355118110239
11
4.3857824803149601
21
-4.7388075984251969
0
LINE
8
BLACK
6
CONTINUOUS
10
4.3857824803149601
20
-4.7388075984251969
11
4.3857927559055119
21
-4.738912047244094
0
LINE
8
BLACK
6
CONTINUOUS
10
4.3857927559055119
20
-4.738912047244094
11
4.3858160236220476
21
-4.7390143307086614
0
LINE
8
BLACK
6
CONTINUOUS
10
4.3858160236220476
20
-4.7390143307086614
11
4.3858104724409444
21
-4.7390920472440943
0
LINE
8
BLACK
6
CONTINUOUS
10
4.3858104724409444
20
-4.7390920472440943
11
4.3858392125984249
21
-4.7393836614173228
0
LINE
8
BLACK
6
CONTINUOUS
10
4.3858392125984249
20
-4.7393836614173228
11
4.3858392125984249
21
-4.7675051181102361
0
LINE
8
BLACK
6
CONTINUOUS
10
4.3858392125984249
20
-4.7675051181102361
11
4.3857824803149601
21
-4.768081181102362
0
LINE
8
BLACK
6
CONTINUOUS
10
4.3857824803149601
20
-4.768081181102362
11
4.3853415748031495
21
-4.7691455905511813
0
LINE
8
BLACK
6
CONTINUOUS
10
4.3853415748031495
20
-4.7691455905511813
11
4.384526929133858
21
-4.7699602362204727
0
LINE
8
BLACK
6
CONTINUOUS
10
4.384526929133858
20
-4.7699602362204727
11
4.3834625196850396
21
-4.7704011417322834
0
LINE
8
BLACK
6
CONTINUOUS
10
4.3834625196850396
20
-4.7704011417322834
11
4.382310393700787
21
-4.7704011417322834
0
LINE
8
BLACK
6
CONTINUOUS
10
4.382310393700787
20
-4.7704011417322834
11
4.3812459842519687
21
-4.7699602362204727
0
LINE
8
BLACK
6
CONTINUOUS
10
4.3812459842519687
20
-4.7699602362204727
11
4.3804313385826772
21
-4.7691455905511813
0
LINE
8
BLACK
6
CONTINUOUS
10
4.3804313385826772
20
-4.7691455905511813
11
4.3799904330708657
21
-4.768081181102362
0
LINE
8
BLACK
6
CONTINUOUS
10
4.3799904330708657
20
-4.768081181102362
11
4.3799337007874017
21
-4.7675051181102361
0
LINE
8
BLACK
6
CONTINUOUS
10
4.3799337007874017
20
-4.7675051181102361
11
4.3799337007874017
21
-4.7398627952755907
0
LINE
8
BLACK
6
CONTINUOUS
10
4.3799337007874017
20
-4.7398627952755907
11
4.3784309055118111
21
-4.7353544094488189
0
LINE
8
BLACK
6
CONTINUOUS
10
4.3784309055118111
20
-4.7353544094488189
11
4.3756670866141727
21
-4.7325905905511814
0
LINE
8
BLACK
6
CONTINUOUS
10
4.3756670866141727
20
-4.7325905905511814
11
4.3711587007874018
21
-4.7310877952755908
0
LINE
8
BLACK
6
CONTINUOUS
10
4.3711587007874018
20
-4.7310877952755908
11
4.3678883464566924
21
-4.7310877952755908
0
LINE
8
BLACK
6
CONTINUOUS
10
4.3678883464566924
20
-4.7310877952755908
11
4.3673122834645666
21
-4.7310310629921259
0
LINE
8
BLACK
6
CONTINUOUS
10
4.3673122834645666
20
-4.7310310629921259
11
4.3662478740157482
21
-4.7305901574803144
0
LINE
8
BLACK
6
CONTINUOUS
10
4.3662478740157482
20
-4.7305901574803144
11
4.3654332283464568
21
-4.7297755118110238
0
LINE
8
BLACK
6
CONTINUOUS
10
4.3654332283464568
20
-4.7297755118110238
11
4.3649923228346452
21
-4.7287111023622046
0
LINE
8
BLACK
6
CONTINUOUS
10
4.3649923228346452
20
-4.7287111023622046
11
4.3649923228346452
21
-4.7275589763779529
0
LINE
8
BLACK
6
CONTINUOUS
10
4.3649923228346452
20
-4.7275589763779529
11
4.3654332283464568
21
-4.7264945669291336
0
LINE
8
BLACK
6
CONTINUOUS
10
4.3654332283464568
20
-4.7264945669291336
11
4.3662478740157482
21
-4.7256799212598422
0
LINE
8
BLACK
6
CONTINUOUS
10
4.3662478740157482
20
-4.7256799212598422
11
4.3673122834645666
21
-4.7252390157480315
0
LINE
8
BLACK
6
CONTINUOUS
10
4.3673122834645666
20
-4.7252390157480315
11
4.3678883464566924
21
-4.7251822834645667
0
LINE
8
BLACK
6
CONTINUOUS
10
4.3678883464566924
20
-4.7251822834645667
11
4.3716378740157475
21
-4.7251822834645667
0
LINE
8
BLACK
6
CONTINUOUS
10
4.3716378740157475
20
-4.7251822834645667
11
4.3719294094488186
21
-4.7252109842519685
0
LINE
8
BLACK
6
CONTINUOUS
10
5.3344424803149604
20
-4.7255697637795278
11
5.3353128346456691
21
-4.7263246456692913
0
LINE
8
BLACK
6
CONTINUOUS
10
5.3353128346456691
20
-4.7263246456692913
11
5.3358281102362204
21
-4.7273551181102365
0
LINE
8
BLACK
6
CONTINUOUS
10
5.3358281102362204
20
-4.7273551181102365
11
5.3359097637795276
21
-4.7285043307086614
0
LINE
8
BLACK
6
CONTINUOUS
10
5.3359097637795276
20
-4.7285043307086614
11
5.3355454724409448
21
-4.7295972834645665
0
LINE
8
BLACK
6
CONTINUOUS
10
5.3355454724409448
20
-4.7295972834645665
11
5.33479062992126
21
-4.730467677165354
0
LINE
8
BLACK
6
CONTINUOUS
10
5.33479062992126
20
-4.730467677165354
11
5.3343007480314961
21
-4.7307760629921258
0
LINE
8
BLACK
6
CONTINUOUS
10
5.3343007480314961
20
-4.7307760629921258
11
5.3314314960629918
21
-4.7322107086614169
0
LINE
8
BLACK
6
CONTINUOUS
10
5.3314314960629918
20
-4.7322107086614169
11
5.3303086614173223
21
-4.7344564173228347
0
LINE
8
BLACK
6
CONTINUOUS
10
5.3303086614173223
20
-4.7344564173228347
11
5.3303086614173223
21
-4.7675051181102361
0
LINE
8
BLACK
6
CONTINUOUS
10
5.3303086614173223
20
-4.7675051181102361
11
5.3302519291338584
21
-4.768081181102362
0
LINE
8
BLACK
6
CONTINUOUS
10
5.3302519291338584
20
-4.768081181102362
11
5.3298110236220468
21
-4.7691455905511813
0
LINE
8
BLACK
6
CONTINUOUS
10
5.3298110236220468
20
-4.7691455905511813
11
5.3289963779527554
21
-4.7699602362204727
0
LINE
8
BLACK
6
CONTINUOUS
10
5.3289963779527554
20
-4.7699602362204727
11
5.327931968503937
21
-4.7704011417322834
0
LINE
8
BLACK
6
CONTINUOUS
10
5.327931968503937
20
-4.7704011417322834
11
5.3267798425196853
21
-4.7704011417322834
0
LINE
8
BLACK
6
CONTINUOUS
10
5.3267798425196853
20
-4.7704011417322834
11
5.325715433070866
21
-4.7699602362204727
0
LINE
8
BLACK
6
CONTINUOUS
10
5.325715433070866
20
-4.7699602362204727
11
5.3249007874015746
21
-4.7691455905511813
0
LINE
8
BLACK
6
CONTINUOUS
10
5.3249007874015746
20
-4.7691455905511813
11
5.3244598818897639
21
-4.768081181102362
0
LINE
8
BLACK
6
CONTINUOUS
10
5.3244598818897639
20
-4.768081181102362
11
5.3244031496062991
21
-4.7675051181102361
0
LINE
8
BLACK
6
CONTINUOUS
10
5.3244031496062991
20
-4.7675051181102361
11
5.3244031496062991
21
-4.7337593700787401
0
LINE
8
BLACK
6
CONTINUOUS
10
5.3244031496062991
20
-4.7337593700787401
11
5.3244598818897639
21
-4.7331833070866143
0
LINE
8
BLACK
6
CONTINUOUS
10
5.3244598818897639
20
-4.7331833070866143
11
5.3245004724409446
21
-4.7330852755905513
0
LINE
8
BLACK
6
CONTINUOUS
10
5.3245004724409446
20
-4.7330852755905513
11
5.3245079921259837
21
-4.7329794881889766
0
LINE
8
BLACK
6
CONTINUOUS
10
5.3245079921259837
20
-4.7329794881889766
11
5.3247148818897641
21
-4.7324388582677166
0
LINE
8
BLACK
6
CONTINUOUS
10
5.3247148818897641
20
-4.7324388582677166
11
5.3265896456692916
21
-4.7286893307086615
0
LINE
8
BLACK
6
CONTINUOUS
10
5.3265896456692916
20
-4.7286893307086615
11
5.3266502362204724
21
-4.7285930314960627
0
LINE
8
BLACK
6
CONTINUOUS
10
5.3266502362204724
20
-4.7285930314960627
11
5.3266653937007868
21
-4.7285475984251963
0
LINE
8
BLACK
6
CONTINUOUS
10
5.3266653937007868
20
-4.7285475984251963
11
5.3267144488188976
21
-4.7284909842519687
0
LINE
8
BLACK
6
CONTINUOUS
10
5.3267144488188976
20
-4.7284909842519687
11
5.3268979921259838
21
-4.7281994488188976
0
LINE
8
BLACK
6
CONTINUOUS
10
5.3268979921259838
20
-4.7281994488188976
11
5.3271777559055113
21
-4.7279567716535436
0
LINE
8
BLACK
6
CONTINUOUS
10
5.3271777559055113
20
-4.7279567716535436
11
5.3274202755905513
21
-4.7276772047244098
0
LINE
8
BLACK
6
CONTINUOUS
10
5.3274202755905513
20
-4.7276772047244098
11
5.3277118110236223
21
-4.7274936220472439
0
LINE
8
BLACK
6
CONTINUOUS
10
5.3277118110236223
20
-4.7274936220472439
11
5.3277683858267713
21
-4.7274446062992128
0
LINE
8
BLACK
6
CONTINUOUS
10
5.3277683858267713
20
-4.7274446062992128
11
5.3278137401574801
21
-4.7274294488188975
0
LINE
8
BLACK
6
CONTINUOUS
10
5.3278137401574801
20
-4.7274294488188975
11
5.3279101181102364
21
-4.7273688188976379
0
LINE
8
BLACK
6
CONTINUOUS
10
5.3279101181102364
20
-4.7273688188976379
11
5.3316596850393703
21
-4.7254940157480316
0
LINE
8
BLACK
6
CONTINUOUS
10
5.3316596850393703
20
-4.7254940157480316
11
5.3322002755905507
21
-4.7252871259842522
0
LINE
8
BLACK
6
CONTINUOUS
10
5.3322002755905507
20
-4.7252871259842522
11
5.3333494881889765
21
-4.7252054724409449
0
LINE
8
BLACK
6
CONTINUOUS
10
5.3333494881889765
20
-4.7252054724409449
11
5.3344424803149604
21
-4.7255697637795278
0
LINE
8
BLACK
6
CONTINUOUS
10
5.3496188188976372
20
-4.7613004724409445
11
5.3500662598425199
21
-4.7616676771653541
0
LINE
8
BLACK
6
CONTINUOUS
10
5.3500662598425199
20
-4.7616676771653541
11
5.3519410236220475
21
-4.7635424409448817
0
LINE
8
BLACK
6
CONTINUOUS
10
5.3519410236220475
20
-4.7635424409448817
11
5.3523082283464563
21
-4.7639898818897635
0
LINE
8
BLACK
6
CONTINUOUS
10
5.3523082283464563
20
-4.7639898818897635
11
5.3527473622047239
21
-4.7650499999999996
0
LINE
8
BLACK
6
CONTINUOUS
10
5.3527473622047239
20
-4.7650499999999996
11
5.3527491338582678
21
-4.7650543307086615
0
LINE
8
BLACK
6
CONTINUOUS
10
5.3527491338582678
20
-4.7650543307086615
11
5.3527491338582678
21
-4.7662064173228345
0
LINE
8
BLACK
6
CONTINUOUS
10
5.3527491338582678
20
-4.7662064173228345
11
5.3523082283464563
21
-4.7672708267716537
0
LINE
8
BLACK
6
CONTINUOUS
10
5.3523082283464563
20
-4.7672708267716537
11
5.3519410236220475
21
-4.7677182677165355
0
LINE
8
BLACK
6
CONTINUOUS
10
5.3519410236220475
20
-4.7677182677165355
11
5.3500662598425199
21
-4.7695930314960631
0
LINE
8
BLACK
6
CONTINUOUS
10
5.3500662598425199
20
-4.7695930314960631
11
5.3496188188976372
21
-4.7699602362204727
0
LINE
8
BLACK
6
CONTINUOUS
10
5.3496188188976372
20
-4.7699602362204727
11
5.3485544094488189
21
-4.7704011417322834
0
LINE
8
BLACK
6
CONTINUOUS
10
5.3485544094488189
20
-4.7704011417322834
11
5.3485543700787401
21
-4.7704011417322834
0
LINE
8
BLACK
6
CONTINUOUS
10
5.3485543700787401
20
-4.7704011417322834
11
5.3474023228346459
21
-4.7704011417322834
0
LINE
8
BLACK
6
CONTINUOUS
10
5.3474023228346459
20
-4.7704011417322834
11
5.3474022834645671
21
-4.7704011417322834
0
LINE
8
BLACK
6
CONTINUOUS
10
5.3474022834645671
20
-4.7704011417322834
11
5.3463378740157479
21
-4.7699602362204727
0
LINE
8
BLACK
6
CONTINUOUS
10
5.3463378740157479
20
-4.7699602362204727
11
5.3458904330708661
21
-4.7695930314960631
0
LINE
8
BLACK
6
CONTINUOUS
10
5.3458904330708661
20
-4.7695930314960631
11
5.3440156692913385
21
-4.7677182677165355
0
LINE
8
BLACK
6
CONTINUOUS
10
5.3440156692913385
20
-4.7677182677165355
11
5.3436484645669289
21
-4.7672708267716537
0
LINE
8
BLACK
6
CONTINUOUS
10
5.3436484645669289
20
-4.7672708267716537
11
5.3432075590551182
21
-4.7662063779527557
0
LINE
8
BLACK
6
CONTINUOUS
10
5.3432075590551182
20
-4.7662063779527557
11
5.3432075590551182
21
-4.7650543307086615
0
LINE
8
BLACK
6
CONTINUOUS
10
5.3432075590551182
20
-4.7650543307086615
11
5.3436484645669289
21
-4.7639898818897635
0
LINE
8
BLACK
6
CONTINUOUS
10
5.3436484645669289
20
-4.7639898818897635
11
5.3440156692913385
21
-4.7635424409448817
0
LINE
8
BLACK
6
CONTINUOUS
10
5.3440156692913385
20
-4.7635424409448817
11
5.3458904330708661
21
-4.7616676771653541
0
LINE
8
BLACK
6
CONTINUOUS
10
5.3458904330708661
20
-4.7616676771653541
11
5.3463378740157479
21
-4.7613004724409445
0
LINE
8
BLACK
6
CONTINUOUS
10
5.3463378740157479
20
-4.7613004724409445
11
5.3474022834645671
21
-4.7608595669291338
0
LINE
8
BLACK
6
CONTINUOUS
10
5.3474022834645671
20
-4.7608595669291338
11
5.3485543700787401
21
-4.7608595669291338
0
LINE
8
BLACK
6
CONTINUOUS
10
5.3485543700787401
20
-4.7608595669291338
11
5.3485544094488189
21
-4.7608595669291338
0
LINE
8
BLACK
6
CONTINUOUS
10
5.3485544094488189
20
-4.7608595669291338
11
5.3496188188976372
21
-4.7613004724409445
0
LINE
8
BLACK
6
CONTINUOUS
10
5.3683664566929137
20
-4.7125565748031493
11
5.3691811023622042
21
-4.7133712204724407
0
LINE
8
BLACK
6
CONTINUOUS
10
5.3691811023622042
20
-4.7133712204724407
11
5.3696220078740158
21
-4.71443562992126
0
LINE
8
BLACK
6
CONTINUOUS
10
5.3696220078740158
20
-4.71443562992126
11
5.3696787401574806
21
-4.7150116929133858
0
LINE
8
BLACK
6
CONTINUOUS
10
5.3696787401574806
20
-4.7150116929133858
11
5.3696787401574806
21
-4.7252935433070862
0
LINE
8
BLACK
6
CONTINUOUS
10
5.3696787401574806
20
-4.7252935433070862
11
5.3696955905511814
21
-4.7252871259842522
0
LINE
8
BLACK
6
CONTINUOUS
10
5.3696955905511814
20
-4.7252871259842522
11
5.3698014566929135
21
-4.7252795669291334
0
LINE
8
BLACK
6
CONTINUOUS
10
5.3698014566929135
20
-4.7252795669291334
11
5.3698994488188978
21
-4.7252390157480315
0
LINE
8
BLACK
6
CONTINUOUS
10
5.3698994488188978
20
-4.7252390157480315
11
5.3704755118110237
21
-4.7251822834645667
0
LINE
8
BLACK
6
CONTINUOUS
10
5.3704755118110237
20
-4.7251822834645667
11
5.3779745669291339
21
-4.7251822834645667
0
LINE
8
BLACK
6
CONTINUOUS
10
5.3779745669291339
20
-4.7251822834645667
11
5.3785506299212598
21
-4.7252390157480315
0
LINE
8
BLACK
6
CONTINUOUS
10
5.3785506299212598
20
-4.7252390157480315
11
5.3786485826771653
21
-4.7252795669291334
0
LINE
8
BLACK
6
CONTINUOUS
10
5.3786485826771653
20
-4.7252795669291334
11
5.3787544881889762
21
-4.7252871259842522
0
LINE
8
BLACK
6
CONTINUOUS
10
5.3787544881889762
20
-4.7252871259842522
11
5.3792951181102362
21
-4.7254940157480316
0
LINE
8
BLACK
6
CONTINUOUS
10
5.3792951181102362
20
-4.7254940157480316
11
5.3830446456692913
21
-4.7273688188976379
0
LINE
8
BLACK
6
CONTINUOUS
10
5.3830446456692913
20
-4.7273688188976379
11
5.3832925984251965
21
-4.7275249212598425
0
LINE
8
BLACK
6
CONTINUOUS
10
5.3832925984251965
20
-4.7275249212598425
11
5.3833645669291341
21
-4.7275547244094485
0
LINE
8
BLACK
6
CONTINUOUS
10
5.3833645669291341
20
-4.7275547244094485
11
5.3834455511811026
21
-4.7276211811023625
0
LINE
8
BLACK
6
CONTINUOUS
10
5.3834455511811026
20
-4.7276211811023625
11
5.3835345275590551
21
-4.7276772047244098
0
LINE
8
BLACK
6
CONTINUOUS
10
5.3835345275590551
20
-4.7276772047244098
11
5.3835856692913389
21
-4.7277361811023617
0
LINE
8
BLACK
6
CONTINUOUS
10
5.3835856692913389
20
-4.7277361811023617
11
5.3838120078740159
21
-4.7279219291338581
0
LINE
8
BLACK
6
CONTINUOUS
10
5.3838120078740159
20
-4.7279219291338581
11
5.3856867716535435
21
-4.7297966929133857
0
LINE
8
BLACK
6
CONTINUOUS
10
5.3856867716535435
20
-4.7297966929133857
11
5.385872519685039
21
-4.7300230314960627
0
LINE
8
BLACK
6
CONTINUOUS
10
5.385872519685039
20
-4.7300230314960627
11
5.3859315354330706
21
-4.7300742125984252
0
LINE
8
BLACK
6
CONTINUOUS
10
5.3859315354330706
20
-4.7300742125984252
11
5.3859874803149603
21
-4.730163149606299
0
LINE
8
BLACK
6
CONTINUOUS
10
5.3859874803149603
20
-4.730163149606299
11
5.3860539763779522
21
-4.7302441338582675
0
LINE
8
BLACK
6
CONTINUOUS
10
5.3860539763779522
20
-4.7302441338582675
11
5.3860837795275591
21
-4.7303160629921255
0
LINE
8
BLACK
6
CONTINUOUS
10
5.3860837795275591
20
-4.7303160629921255
11
5.3862398818897637
21
-4.730564094488189
0
LINE
8
BLACK
6
CONTINUOUS
10
5.3862398818897637
20
-4.730564094488189
11
5.3881146456692912
21
-4.7343136220472442
0
LINE
8
BLACK
6
CONTINUOUS
10
5.3881146456692912
20
-4.7343136220472442
11
5.3883215354330707
21
-4.7348542125984254
0
LINE
8
BLACK
6
CONTINUOUS
10
5.3883215354330707
20
-4.7348542125984254
11
5.3883290551181098
21
-4.7349600787401576
0
LINE
8
BLACK
6
CONTINUOUS
10
5.3883290551181098
20
-4.7349600787401576
11
5.3883696456692913
21
-4.7350580708661418
0
LINE
8
BLACK
6
CONTINUOUS
10
5.3883696456692913
20
-4.7350580708661418
11
5.3884263779527561
21
-4.7356341338582677
0
LINE
8
BLACK
6
CONTINUOUS
10
5.3884263779527561
20
-4.7356341338582677
11
5.3884263779527561
21
-4.746882716535433
0
LINE
8
BLACK
6
CONTINUOUS
10
5.3884263779527561
20
-4.746882716535433
11
5.3883696456692913
21
-4.7474587795275589
0
LINE
8
BLACK
6
CONTINUOUS
10
5.3883696456692913
20
-4.7474587795275589
11
5.3883290551181098
21
-4.7475567322834644
0
LINE
8
BLACK
6
CONTINUOUS
10
5.3883290551181098
20
-4.7475567322834644
11
5.3883215354330707
21
-4.7476626377952753
0
LINE
8
BLACK
6
CONTINUOUS
10
5.3883215354330707
20
-4.7476626377952753
11
5.3881146456692912
21
-4.7482032283464566
0
LINE
8
BLACK
6
CONTINUOUS
10
5.3881146456692912
20
-4.7482032283464566
11
5.3862398818897637
21
-4.7519527559055117
0
LINE
8
BLACK
6
CONTINUOUS
10
5.3862398818897637
20
-4.7519527559055117
11
5.3860837795275591
21
-4.7522007480314956
0
LINE
8
BLACK
6
CONTINUOUS
10
5.3860837795275591
20
-4.7522007480314956
11
5.3860539763779522
21
-4.7522727165354333
0
LINE
8
BLACK
6
CONTINUOUS
10
5.3860539763779522
20
-4.7522727165354333
11
5.3859874803149603
21
-4.752353661417323
0
LINE
8
BLACK
6
CONTINUOUS
10
5.3859874803149603
20
-4.752353661417323
11
5.3859315354330706
21
-4.7524426377952755
0
LINE
8
BLACK
6
CONTINUOUS
10
5.3859315354330706
20
-4.7524426377952755
11
5.385872519685039
21
-4.7524937795275592
0
LINE
8
BLACK
6
CONTINUOUS
10
5.385872519685039
20
-4.7524937795275592
11
5.3856867716535435
21
-4.7527201574803151
0
LINE
8
BLACK
6
CONTINUOUS
10
5.3856867716535435
20
-4.7527201574803151
11
5.3838120078740159
21
-4.7545949212598426
0
LINE
8
BLACK
6
CONTINUOUS
10
5.3838120078740159
20
-4.7545949212598426
11
5.3835856299212601
21
-4.7547806692913381
0
LINE
8
BLACK
6
CONTINUOUS
10
5.3835856299212601
20
-4.7547806692913381
11
5.3835344881889764
21
-4.7548396850393697
0
LINE
8
BLACK
6
CONTINUOUS
10
5.3835344881889764
20
-4.7548396850393697
11
5.3834455118110238
21
-4.7548956299212595
0
LINE
8
BLACK
6
CONTINUOUS
10
5.3834455118110238
20
-4.7548956299212595
11
5.3833645669291341
21
-4.7549621259842523
0
LINE
8
BLACK
6
CONTINUOUS
10
5.3833645669291341
20
-4.7549621259842523
11
5.3832925984251965
21
-4.7549919291338583
0
LINE
8
BLACK
6
CONTINUOUS
10
5.3832925984251965
20
-4.7549919291338583
11
5.3830446062992126
21
-4.7551480314960628
0
LINE
8
BLACK
6
CONTINUOUS
10
5.3830446062992126
20
-4.7551480314960628
11
5.3792950787401574
21
-4.7570227952755904
0
LINE
8
BLACK
6
CONTINUOUS
10
5.3792950787401574
20
-4.7570227952755904
11
5.3787544488188974
21
-4.7572296850393698
0
LINE
8
BLACK
6
CONTINUOUS
10
5.3787544488188974
20
-4.7572296850393698
11
5.378648622047244
21
-4.7572371653543302
0
LINE
8
BLACK
6
CONTINUOUS
10
5.378648622047244
20
-4.7572371653543302
11
5.3785506299212598
21
-4.7572777952755905
0
LINE
8
BLACK
6
CONTINUOUS
10
5.3785506299212598
20
-4.7572777952755905
11
5.3779745669291339
21
-4.7573345275590553
0
LINE
8
BLACK
6
CONTINUOUS
10
5.3779745669291339
20
-4.7573345275590553
11
5.3704755118110237
21
-4.7573345275590553
0
LINE
8
BLACK
6
CONTINUOUS
10
5.3704755118110237
20
-4.7573345275590553
11
5.3698994488188978
21
-4.7572777952755905
0
LINE
8
BLACK
6
CONTINUOUS
10
5.3698994488188978
20
-4.7572777952755905
11
5.3698014566929135
21
-4.7572372047244089
0
LINE
8
BLACK
6
CONTINUOUS
10
5.3698014566929135
20
-4.7572372047244089
11
5.3696955905511814
21
-4.7572296850393698
0
LINE
8
BLACK
6
CONTINUOUS
10
5.3696955905511814
20
-4.7572296850393698
11
5.3691550000000001
21
-4.7570227952755904
0
LINE
8
BLACK
6
CONTINUOUS
10
5.3691550000000001
20
-4.7570227952755904
11
5.3685053543307086
21
-4.7566979527559052
0
LINE
8
BLACK
6
CONTINUOUS
10
5.3685053543307086
20
-4.7566979527559052
11
5.3683664566929137
21
-4.7568368897637798
0
LINE
8
BLACK
6
CONTINUOUS
10
5.3683664566929137
20
-4.7568368897637798
11
5.3673020472440944
21
-4.7572777952755905
0
LINE
8
BLACK
6
CONTINUOUS
10
5.3673020472440944
20
-4.7572777952755905
11
5.3661499212598427
21
-4.7572777952755905
0
LINE
8
BLACK
6
CONTINUOUS
10
5.3661499212598427
20
-4.7572777952755905
11
5.3650855118110234
21
-4.7568368897637798
0
LINE
8
BLACK
6
CONTINUOUS
10
5.3650855118110234
20
-4.7568368897637798
11
5.364270866141732
21
-4.7560222440944884
0
LINE
8
BLACK
6
CONTINUOUS
10
5.364270866141732
20
-4.7560222440944884
11
5.3638299606299213
21
-4.7549578346456691
0
LINE
8
BLACK
6
CONTINUOUS
10
5.3638299606299213
20
-4.7549578346456691
11
5.3637732283464565
21
-4.7543817716535433
0
LINE
8
BLACK
6
CONTINUOUS
10
5.3637732283464565
20
-4.7543817716535433
11
5.3637732283464565
21
-4.7150116929133858
0
LINE
8
BLACK
6
CONTINUOUS
10
5.3637732283464565
20
-4.7150116929133858
11
5.3638299606299213
21
-4.71443562992126
0
LINE
8
BLACK
6
CONTINUOUS
10
5.3638299606299213
20
-4.71443562992126
11
5.364270866141732
21
-4.7133712204724407
0
LINE
8
BLACK
6
CONTINUOUS
10
5.364270866141732
20
-4.7133712204724407
11
5.3650855118110234
21
-4.7125565748031493
0
LINE
8
BLACK
6
CONTINUOUS
10
5.3650855118110234
20
-4.7125565748031493
11
5.3661499212598427
21
-4.7121156692913386
0
LINE
8
BLACK
6
CONTINUOUS
10
5.3661499212598427
20
-4.7121156692913386
11
5.3673020472440944
21
-4.7121156692913386
0
LINE
8
BLACK
6
CONTINUOUS
10
5.3673020472440944
20
-4.7121156692913386
11
5.3683664566929137
21
-4.7125565748031493
0
LINE
8
BLACK
6
CONTINUOUS
10
5.3696787401574806
20
-4.731834724409449
11
5.3696787401574806
21
-4.750682086614173
0
LINE
8
BLACK
6
CONTINUOUS
10
5.3696787401574806
20
-4.750682086614173
11
5.3711725590551183
21
-4.7514290157480312
0
LINE
8
BLACK
6
CONTINUOUS
10
5.3711725590551183
20
-4.7514290157480312
11
5.3772775196850393
21
-4.7514290157480312
0
LINE
8
BLACK
6
CONTINUOUS
10
5.3772775196850393
20
-4.7514290157480312
11
5.379975
21
-4.7500802755905509
0
LINE
8
BLACK
6
CONTINUOUS
10
5.379975
20
-4.7500802755905509
11
5.3811721259842518
21
-4.7488831496062991
0
LINE
8
BLACK
6
CONTINUOUS
10
5.3811721259842518
20
-4.7488831496062991
11
5.3825208661417321
21
-4.7461856692913384
0
LINE
8
BLACK
6
CONTINUOUS
10
5.3825208661417321
20
-4.7461856692913384
11
5.3825208661417321
21
-4.7363311811023623
0
LINE
8
BLACK
6
CONTINUOUS
10
5.3825208661417321
20
-4.7363311811023623
11
5.3811721259842518
21
-4.7336337007874016
0
LINE
8
BLACK
6
CONTINUOUS
10
5.3811721259842518
20
-4.7336337007874016
11
5.3799749606299212
21
-4.7324365354330711
0
LINE
8
BLACK
6
CONTINUOUS
10
5.3799749606299212
20
-4.7324365354330711
11
5.3772774803149606
21
-4.7310877952755908
0
LINE
8
BLACK
6
CONTINUOUS
10
5.3772774803149606
20
-4.7310877952755908
11
5.371172598425197
21
-4.7310877952755908
0
LINE
8
BLACK
6
CONTINUOUS
10
5.371172598425197
20
-4.7310877952755908
11
5.3696787401574806
21
-4.731834724409449
0
LINE
8
BLACK
6
CONTINUOUS
10
5.403987007874016
20
-4.7125565748031493
11
5.4048016535433065
21
-4.7133712204724407
0
LINE
8
BLACK
6
CONTINUOUS
10
5.4048016535433065
20
-4.7133712204724407
11
5.4052425590551181
21
-4.71443562992126
0
LINE
8
BLACK
6
CONTINUOUS
10
5.4052425590551181
20
-4.71443562992126
11
5.4052992913385829
21
-4.7150116929133858
0
LINE
8
BLACK
6
CONTINUOUS
10
5.4052992913385829
20
-4.7150116929133858
11
5.4052992913385829
21
-4.7252935433070862
0
LINE
8
BLACK
6
CONTINUOUS
10
5.4052992913385829
20
-4.7252935433070862
11
5.4053161417322837
21
-4.7252871259842522
0
LINE
8
BLACK
6
CONTINUOUS
10
5.4053161417322837
20
-4.7252871259842522
11
5.4054220078740158
21
-4.7252795669291334
0
LINE
8
BLACK
6
CONTINUOUS
10
5.4054220078740158
20
-4.7252795669291334
11
5.4055200000000001
21
-4.7252390157480315
0
LINE
8
BLACK
6
CONTINUOUS
10
5.4055200000000001
20
-4.7252390157480315
11
5.406096062992126
21
-4.7251822834645667
0
LINE
8
BLACK
6
CONTINUOUS
10
5.406096062992126
20
-4.7251822834645667
11
5.4135951181102362
21
-4.7251822834645667
0
LINE
8
BLACK
6
CONTINUOUS
10
5.4135951181102362
20
-4.7251822834645667
11
5.4141711811023621
21
-4.7252390157480315
0
LINE
8
BLACK
6
CONTINUOUS
10
5.4141711811023621
20
-4.7252390157480315
11
5.4142691338582676
21
-4.7252795669291334
0
LINE
8
BLACK
6
CONTINUOUS
10
5.4142691338582676
20
-4.7252795669291334
11
5.4143750393700785
21
-4.7252871259842522
0
LINE
8
BLACK
6
CONTINUOUS
10
5.4143750393700785
20
-4.7252871259842522
11
5.4149156692913385
21
-4.7254940157480316
0
LINE
8
BLACK
6
CONTINUOUS
10
5.4149156692913385
20
-4.7254940157480316
11
5.4186651968503936
21
-4.7273688188976379
0
LINE
8
BLACK
6
CONTINUOUS
10
5.4186651968503936
20
-4.7273688188976379
11
5.4189131496062988
21
-4.7275249212598425
0
LINE
8
BLACK
6
CONTINUOUS
10
5.4189131496062988
20
-4.7275249212598425
11
5.4189851181102364
21
-4.7275547244094485
0
LINE
8
BLACK
6
CONTINUOUS
10
5.4189851181102364
20
-4.7275547244094485
11
5.4190661023622049
21
-4.7276211811023625
0
LINE
8
BLACK
6
CONTINUOUS
10
5.4190661023622049
20
-4.7276211811023625
11
5.4191550787401574
21
-4.7276772047244098
0
LINE
8
BLACK
6
CONTINUOUS
10
5.4191550787401574
20
-4.7276772047244098
11
5.4192062204724412
21
-4.7277361811023617
0
LINE
8
BLACK
6
CONTINUOUS
10
5.4192062204724412
20
-4.7277361811023617
11
5.4194325590551182
21
-4.7279219291338581
0
LINE
8
BLACK
6
CONTINUOUS
10
5.4194325590551182
20
-4.7279219291338581
11
5.4213073228346458
21
-4.7297966929133857
0
LINE
8
BLACK
6
CONTINUOUS
10
5.4213073228346458
20
-4.7297966929133857
11
5.4214930708661413
21
-4.7300230314960627
0
LINE
8
BLACK
6
CONTINUOUS
10
5.4214930708661413
20
-4.7300230314960627
11
5.4215520866141729
21
-4.7300742125984252
0
LINE
8
BLACK
6
CONTINUOUS
10
5.4215520866141729
20
-4.7300742125984252
11
5.4216080314960626
21
-4.730163149606299
0
LINE
8
BLACK
6
CONTINUOUS
10
5.4216080314960626
20
-4.730163149606299
11
5.4216745275590554
21
-4.7302441338582675
0
LINE
8
BLACK
6
CONTINUOUS
10
5.4216745275590554
20
-4.7302441338582675
11
5.4217043307086614
21
-4.7303160629921255
0
LINE
8
BLACK
6
CONTINUOUS
10
5.4217043307086614
20
-4.7303160629921255
11
5.421860433070866
21
-4.730564094488189
0
LINE
8
BLACK
6
CONTINUOUS
10
5.421860433070866
20
-4.730564094488189
11
5.4237351968503935
21
-4.7343136220472442
0
LINE
8
BLACK
6
CONTINUOUS
10
5.4237351968503935
20
-4.7343136220472442
11
5.423942086614173
21
-4.7348542125984254
0
LINE
8
BLACK
6
CONTINUOUS
10
5.423942086614173
20
-4.7348542125984254
11
5.4239496062992121
21
-4.7349600787401576
0
LINE
8
BLACK
6
CONTINUOUS
10
5.4239496062992121
20
-4.7349600787401576
11
5.4239901968503936
21
-4.7350580708661418
0
LINE
8
BLACK
6
CONTINUOUS
10
5.4239901968503936
20
-4.7350580708661418
11
5.4240469291338584
21
-4.7356341338582677
0
LINE
8
BLACK
6
CONTINUOUS
10
5.4240469291338584
20
-4.7356341338582677
11
5.4240469291338584
21
-4.746882716535433
0
LINE
8
BLACK
6
CONTINUOUS
10
5.4240469291338584
20
-4.746882716535433
11
5.4239901968503936
21
-4.7474587795275589
0
LINE
8
BLACK
6
CONTINUOUS
10
5.4239901968503936
20
-4.7474587795275589
11
5.4239496062992121
21
-4.7475567322834644
0
LINE
8
BLACK
6
CONTINUOUS
10
5.4239496062992121
20
-4.7475567322834644
11
5.423942086614173
21
-4.7476626377952753
0
LINE
8
BLACK
6
CONTINUOUS
10
5.423942086614173
20
-4.7476626377952753
11
5.4237351968503935
21
-4.7482032283464566
0
LINE
8
BLACK
6
CONTINUOUS
10
5.4237351968503935
20
-4.7482032283464566
11
5.421860433070866
21
-4.7519527559055117
0
LINE
8
BLACK
6
CONTINUOUS
10
5.421860433070866
20
-4.7519527559055117
11
5.4217043307086614
21
-4.7522007480314956
0
LINE
8
BLACK
6
CONTINUOUS
10
5.4217043307086614
20
-4.7522007480314956
11
5.4216745275590554
21
-4.7522727165354333
0
LINE
8
BLACK
6
CONTINUOUS
10
5.4216745275590554
20
-4.7522727165354333
11
5.4216080314960626
21
-4.752353661417323
0
LINE
8
BLACK
6
CONTINUOUS
10
5.4216080314960626
20
-4.752353661417323
11
5.4215520866141729
21
-4.7524426377952755
0
LINE
8
BLACK
6
CONTINUOUS
10
5.4215520866141729
20
-4.7524426377952755
11
5.4214930708661413
21
-4.7524937795275592
0
LINE
8
BLACK
6
CONTINUOUS
10
5.4214930708661413
20
-4.7524937795275592
11
5.4213073228346458
21
-4.7527201574803151
0
LINE
8
BLACK
6
CONTINUOUS
10
5.4213073228346458
20
-4.7527201574803151
11
5.4194325590551182
21
-4.7545949212598426
0
LINE
8
BLACK
6
CONTINUOUS
10
5.4194325590551182
20
-4.7545949212598426
11
5.4192061811023624
21
-4.7547806692913381
0
LINE
8
BLACK
6
CONTINUOUS
10
5.4192061811023624
20
-4.7547806692913381
11
5.4191550393700787
21
-4.7548396850393697
0
LINE
8
BLACK
6
CONTINUOUS
10
5.4191550393700787
20
-4.7548396850393697
11
5.4190660629921261
21
-4.7548956299212595
0
LINE
8
BLACK
6
CONTINUOUS
10
5.4190660629921261
20
-4.7548956299212595
11
5.4189851181102364
21
-4.7549621259842523
0
LINE
8
BLACK
6
CONTINUOUS
10
5.4189851181102364
20
-4.7549621259842523
11
5.4189131496062988
21
-4.7549919291338583
0
LINE
8
BLACK
6
CONTINUOUS
10
5.4189131496062988
20
-4.7549919291338583
11
5.4186651574803149
21
-4.7551480314960628
0
LINE
8
BLACK
6
CONTINUOUS
10
5.4186651574803149
20
-4.7551480314960628
11
5.4149156299212597
21
-4.7570227952755904
0
LINE
8
BLACK
6
CONTINUOUS
10
5.4149156299212597
20
-4.7570227952755904
11
5.4143749999999997
21
-4.7572296850393698
0
LINE
8
BLACK
6
CONTINUOUS
10
5.4143749999999997
20
-4.7572296850393698
11
5.4142691732283463
21
-4.7572371653543302
0
LINE
8
BLACK
6
CONTINUOUS
10
5.4142691732283463
20
-4.7572371653543302
11
5.4141711811023621
21
-4.7572777952755905
0
LINE
8
BLACK
6
CONTINUOUS
10
5.4141711811023621
20
-4.7572777952755905
11
5.4135951181102362
21
-4.7573345275590553
0
LINE
8
BLACK
6
CONTINUOUS
10
5.4135951181102362
20
-4.7573345275590553
11
5.406096062992126
21
-4.7573345275590553
0
LINE
8
BLACK
6
CONTINUOUS
10
5.406096062992126
20
-4.7573345275590553
11
5.4055200000000001
21
-4.7572777952755905
0
LINE
8
BLACK
6
CONTINUOUS
10
5.4055200000000001
20
-4.7572777952755905
11
5.4054220078740158
21
-4.7572372047244089
0
LINE
8
BLACK
6
CONTINUOUS
10
5.4054220078740158
20
-4.7572372047244089
11
5.4053161417322837
21
-4.7572296850393698
0
LINE
8
BLACK
6
CONTINUOUS
10
5.4053161417322837
20
-4.7572296850393698
11
5.4047755511811024
21
-4.7570227952755904
0
LINE
8
BLACK
6
CONTINUOUS
10
5.4047755511811024
20
-4.7570227952755904
11
5.4041259055118109
21
-4.7566979527559052
0
LINE
8
BLACK
6
CONTINUOUS
10
5.4041259055118109
20
-4.7566979527559052
11
5.403987007874016
21
-4.7568368897637798
0
LINE
8
BLACK
6
CONTINUOUS
10
5.403987007874016
20
-4.7568368897637798
11
5.4029225984251967
21
-4.7572777952755905
0
LINE
8
BLACK
6
CONTINUOUS
10
5.4029225984251967
20
-4.7572777952755905
11
5.401770472440945
21
-4.7572777952755905
0
LINE
8
BLACK
6
CONTINUOUS
10
5.401770472440945
20
-4.7572777952755905
11
5.4007060629921257
21
-4.7568368897637798
0
LINE
8
BLACK
6
CONTINUOUS
10
5.4007060629921257
20
-4.7568368897637798
11
5.3998914173228343
21
-4.7560222440944884
0
LINE
8
BLACK
6
CONTINUOUS
10
5.3998914173228343
20
-4.7560222440944884
11
5.3994505118110236
21
-4.7549578346456691
0
LINE
8
BLACK
6
CONTINUOUS
10
5.3994505118110236
20
-4.7549578346456691
11
5.3993937795275588
21
-4.7543817716535433
0
LINE
8
BLACK
6
CONTINUOUS
10
5.3993937795275588
20
-4.7543817716535433
11
5.3993937795275588
21
-4.7150116929133858
0
LINE
8
BLACK
6
CONTINUOUS
10
5.3993937795275588
20
-4.7150116929133858
11
5.3994505118110236
21
-4.71443562992126
0
LINE
8
BLACK
6
CONTINUOUS
10
5.3994505118110236
20
-4.71443562992126
11
5.3998914173228343
21
-4.7133712204724407
0
LINE
8
BLACK
6
CONTINUOUS
10
5.3998914173228343
20
-4.7133712204724407
11
5.4007060629921257
21
-4.7125565748031493
0
LINE
8
BLACK
6
CONTINUOUS
10
5.4007060629921257
20
-4.7125565748031493
11
5.401770472440945
21
-4.7121156692913386
0
LINE
8
BLACK
6
CONTINUOUS
10
5.401770472440945
20
-4.7121156692913386
11
5.4029225984251967
21
-4.7121156692913386
0
LINE
8
BLACK
6
CONTINUOUS
10
5.4029225984251967
20
-4.7121156692913386
11
5.403987007874016
21
-4.7125565748031493
0
LINE
8
BLACK
6
CONTINUOUS
10
5.4052992913385829
20
-4.731834724409449
11
5.4052992913385829
21
-4.750682086614173
0
LINE
8
BLACK
6
CONTINUOUS
10
5.4052992913385829
20
-4.750682086614173
11
5.4067931102362206
21
-4.7514290157480312
0
LINE
8
BLACK
6
CONTINUOUS
10
5.4067931102362206
20
-4.7514290157480312
11
5.4128980708661416
21
-4.7514290157480312
0
LINE
8
BLACK
6
CONTINUOUS
10
5.4128980708661416
20
-4.7514290157480312
11
5.4155955511811023
21
-4.7500802755905509
0
LINE
8
BLACK
6
CONTINUOUS
10
5.4155955511811023
20
-4.7500802755905509
11
5.4167926771653541
21
-4.7488831496062991
0
LINE
8
BLACK
6
CONTINUOUS
10
5.4167926771653541
20
-4.7488831496062991
11
5.4181414173228344
21
-4.7461856692913384
0
LINE
8
BLACK
6
CONTINUOUS
10
5.4181414173228344
20
-4.7461856692913384
11
5.4181414173228344
21
-4.7363311811023623
0
LINE
8
BLACK
6
CONTINUOUS
10
5.4181414173228344
20
-4.7363311811023623
11
5.4167926771653541
21
-4.7336337007874016
0
LINE
8
BLACK
6
CONTINUOUS
10
5.4167926771653541
20
-4.7336337007874016
11
5.4155955118110235
21
-4.7324365354330711
0
LINE
8
BLACK
6
CONTINUOUS
10
5.4155955118110235
20
-4.7324365354330711
11
5.4128980314960629
21
-4.7310877952755908
0
LINE
8
BLACK
6
CONTINUOUS
10
5.4128980314960629
20
-4.7310877952755908
11
5.4067931496062993
21
-4.7310877952755908
0
LINE
8
BLACK
6
CONTINUOUS
10
5.4067931496062993
20
-4.7310877952755908
11
5.4052992913385829
21
-4.731834724409449
0
LINE
8
BLACK
6
CONTINUOUS
10
5.4497917322834644
20
-4.7252390157480315
11
5.4498896850393699
21
-4.7252795669291334
0
LINE
8
BLACK
6
CONTINUOUS
10
5.4498896850393699
20
-4.7252795669291334
11
5.4499955905511808
21
-4.7252871259842522
0
LINE
8
BLACK
6
CONTINUOUS
10
5.4499955905511808
20
-4.7252871259842522
11
5.4505362204724408
21
-4.7254940157480316
0
LINE
8
BLACK
6
CONTINUOUS
10
5.4505362204724408
20
-4.7254940157480316
11
5.4542857480314959
21
-4.7273688188976379
0
LINE
8
BLACK
6
CONTINUOUS
10
5.4542857480314959
20
-4.7273688188976379
11
5.4547756299212597
21
-4.7276772047244098
0
LINE
8
BLACK
6
CONTINUOUS
10
5.4547756299212597
20
-4.7276772047244098
11
5.4555304724409446
21
-4.7285475984251963
0
LINE
8
BLACK
6
CONTINUOUS
10
5.4555304724409446
20
-4.7285475984251963
11
5.4558947637795274
21
-4.7296405511811024
0
LINE
8
BLACK
6
CONTINUOUS
10
5.4558947637795274
20
-4.7296405511811024
11
5.4558131102362202
21
-4.7307897637795273
0
LINE
8
BLACK
6
CONTINUOUS
10
5.4558131102362202
20
-4.7307897637795273
11
5.4552978346456689
21
-4.7318202362204724
0
LINE
8
BLACK
6
CONTINUOUS
10
5.4552978346456689
20
-4.7318202362204724
11
5.4544274803149602
21
-4.732575118110236
0
LINE
8
BLACK
6
CONTINUOUS
10
5.4544274803149602
20
-4.732575118110236
11
5.4533344881889763
21
-4.7329394094488189
0
LINE
8
BLACK
6
CONTINUOUS
10
5.4533344881889763
20
-4.7329394094488189
11
5.4521852755905513
21
-4.7328577559055116
0
LINE
8
BLACK
6
CONTINUOUS
10
5.4521852755905513
20
-4.7328577559055116
11
5.4516446850393701
21
-4.7326508661417321
0
LINE
8
BLACK
6
CONTINUOUS
10
5.4516446850393701
20
-4.7326508661417321
11
5.4485185826771652
21
-4.7310877952755908
0
LINE
8
BLACK
6
CONTINUOUS
10
5.4485185826771652
20
-4.7310877952755908
11
5.4424137007874016
21
-4.7310877952755908
0
LINE
8
BLACK
6
CONTINUOUS
10
5.4424137007874016
20
-4.7310877952755908
11
5.4401679133858263
21
-4.7322107086614169
0
LINE
8
BLACK
6
CONTINUOUS
10
5.4401679133858263
20
-4.7322107086614169
11
5.4390450787401576
21
-4.7344564173228347
0
LINE
8
BLACK
6
CONTINUOUS
10
5.4390450787401576
20
-4.7344564173228347
11
5.4390450787401576
21
-4.738837716535433
0
LINE
8
BLACK
6
CONTINUOUS
10
5.4390450787401576
20
-4.738837716535433
11
5.4554190157480313
21
-4.7421125196850396
0
LINE
8
BLACK
6
CONTINUOUS
10
5.4554190157480313
20
-4.7421125196850396
11
5.4559727952755903
21
-4.742281141732283
0
LINE
8
BLACK
6
CONTINUOUS
10
5.4559727952755903
20
-4.742281141732283
11
5.4562131496062989
21
-4.7424420866141732
0
LINE
8
BLACK
6
CONTINUOUS
10
5.4562131496062989
20
-4.7424420866141732
11
5.4564804330708663
21
-4.7425528346456689
0
LINE
8
BLACK
6
CONTINUOUS
10
5.4564804330708663
20
-4.7425528346456689
11
5.4566872047244095
21
-4.7427596062992121
0
LINE
8
BLACK
6
CONTINUOUS
10
5.4566872047244095
20
-4.7427596062992121
11
5.4569300393700786
21
-4.7429222440944878
0
LINE
8
BLACK
6
CONTINUOUS
10
5.4569300393700786
20
-4.7429222440944878
11
5.4570904330708663
21
-4.7431628346456689
0
LINE
8
BLACK
6
CONTINUOUS
10
5.4570904330708663
20
-4.7431628346456689
11
5.4572950787401577
21
-4.7433674803149604
0
LINE
8
BLACK
6
CONTINUOUS
10
5.4572950787401577
20
-4.7433674803149604
11
5.457407007874016
21
-4.7436376771653546
0
LINE
8
BLACK
6
CONTINUOUS
10
5.457407007874016
20
-4.7436376771653546
11
5.4575690944881892
21
-4.7438808267716537
0
LINE
8
BLACK
6
CONTINUOUS
10
5.4575690944881892
20
-4.7438808267716537
11
5.4576251968503939
21
-4.744164488188976
0
LINE
8
BLACK
6
CONTINUOUS
10
5.4576251968503939
20
-4.744164488188976
11
5.4577359842519684
21
-4.7444318897637796
0
LINE
8
BLACK
6
CONTINUOUS
10
5.4577359842519684
20
-4.7444318897637796
11
5.4577927165354332
21
-4.7450079527559055
0
LINE
8
BLACK
6
CONTINUOUS
10
5.4577927165354332
20
-4.7450079527559055
11
5.4577927165354332
21
-4.7487574803149606
0
LINE
8
BLACK
6
CONTINUOUS
10
5.4577927165354332
20
-4.7487574803149606
11
5.4577359842519684
21
-4.7493335433070865
0
LINE
8
BLACK
6
CONTINUOUS
10
5.4577359842519684
20
-4.7493335433070865
11
5.4576953937007877
21
-4.749431496062992
0
LINE
8
BLACK
6
CONTINUOUS
10
5.4576953937007877
20
-4.749431496062992
11
5.4576878740157477
21
-4.7495374015748029
0
LINE
8
BLACK
6
CONTINUOUS
10
5.4576878740157477
20
-4.7495374015748029
11
5.4574809842519683
21
-4.7500779921259841
0
LINE
8
BLACK
6
CONTINUOUS
10
5.4574809842519683
20
-4.7500779921259841
11
5.4556062204724407
21
-4.7538275196850392
0
LINE
8
BLACK
6
CONTINUOUS
10
5.4556062204724407
20
-4.7538275196850392
11
5.4555455511811024
21
-4.7539238582677168
0
LINE
8
BLACK
6
CONTINUOUS
10
5.4555455511811024
20
-4.7539238582677168
11
5.4555304330708658
21
-4.7539692913385823
0
LINE
8
BLACK
6
CONTINUOUS
10
5.4555304330708658
20
-4.7539692913385823
11
5.455481377952756
21
-4.7540258267716533
0
LINE
8
BLACK
6
CONTINUOUS
10
5.455481377952756
20
-4.7540258267716533
11
5.4552978740157476
21
-4.7543174015748031
0
LINE
8
BLACK
6
CONTINUOUS
10
5.4552978740157476
20
-4.7543174015748031
11
5.4550181496062988
21
-4.7545599606299209
0
LINE
8
BLACK
6
CONTINUOUS
10
5.4550181496062988
20
-4.7545599606299209
11
5.454775590551181
21
-4.7548396850393697
0
LINE
8
BLACK
6
CONTINUOUS
10
5.454775590551181
20
-4.7548396850393697
11
5.4544840157480312
21
-4.7550231889763781
0
LINE
8
BLACK
6
CONTINUOUS
10
5.4544840157480312
20
-4.7550231889763781
11
5.4544274803149602
21
-4.7550722440944879
0
LINE
8
BLACK
6
CONTINUOUS
10
5.4544274803149602
20
-4.7550722440944879
11
5.4543820472440947
21
-4.7550873622047245
0
LINE
8
BLACK
6
CONTINUOUS
10
5.4543820472440947
20
-4.7550873622047245
11
5.4542857086614172
21
-4.7551480314960628
0
LINE
8
BLACK
6
CONTINUOUS
10
5.4542857086614172
20
-4.7551480314960628
11
5.450536181102362
21
-4.7570227952755904
0
LINE
8
BLACK
6
CONTINUOUS
10
5.450536181102362
20
-4.7570227952755904
11
5.449995551181102
21
-4.7572296850393698
0
LINE
8
BLACK
6
CONTINUOUS
10
5.449995551181102
20
-4.7572296850393698
11
5.4498897244094486
21
-4.7572371653543302
0
LINE
8
BLACK
6
CONTINUOUS
10
5.4498897244094486
20
-4.7572371653543302
11
5.4497917322834644
21
-4.7572777952755905
0
LINE
8
BLACK
6
CONTINUOUS
10
5.4497917322834644
20
-4.7572777952755905
11
5.4492156692913385
21
-4.7573345275590553
0
LINE
8
BLACK
6
CONTINUOUS
10
5.4492156692913385
20
-4.7573345275590553
11
5.4417166141732283
21
-4.7573345275590553
0
LINE
8
BLACK
6
CONTINUOUS
10
5.4417166141732283
20
-4.7573345275590553
11
5.4411405511811024
21
-4.7572777952755905
0
LINE
8
BLACK
6
CONTINUOUS
10
5.4411405511811024
20
-4.7572777952755905
11
5.4410425590551181
21
-4.7572372047244089
0
LINE
8
BLACK
6
CONTINUOUS
10
5.4410425590551181
20
-4.7572372047244089
11
5.440936692913386
21
-4.7572296850393698
0
LINE
8
BLACK
6
CONTINUOUS
10
5.440936692913386
20
-4.7572296850393698
11
5.4403961023622047
21
-4.7570227952755904
0
LINE
8
BLACK
6
CONTINUOUS
10
5.4403961023622047
20
-4.7570227952755904
11
5.4366465748031496
21
-4.7551480314960628
0
LINE
8
BLACK
6
CONTINUOUS
10
5.4366465748031496
20
-4.7551480314960628
11
5.4365501968503933
21
-4.7550873622047245
0
LINE
8
BLACK
6
CONTINUOUS
10
5.4365501968503933
20
-4.7550873622047245
11
5.4365048031496066
21
-4.7550722440944879
0
LINE
8
BLACK
6
CONTINUOUS
10
5.4365048031496066
20
-4.7550722440944879
11
5.4364482283464568
21
-4.7550231889763781
0
LINE
8
BLACK
6
CONTINUOUS
10
5.4364482283464568
20
-4.7550231889763781
11
5.4361566929133858
21
-4.7548396850393697
0
LINE
8
BLACK
6
CONTINUOUS
10
5.4361566929133858
20
-4.7548396850393697
11
5.4359140944881892
21
-4.7545599606299209
0
LINE
8
BLACK
6
CONTINUOUS
10
5.4359140944881892
20
-4.7545599606299209
11
5.4356344094488191
21
-4.7543174015748031
0
LINE
8
BLACK
6
CONTINUOUS
10
5.4356344094488191
20
-4.7543174015748031
11
5.435450866141732
21
-4.7540258267716533
0
LINE
8
BLACK
6
CONTINUOUS
10
5.435450866141732
20
-4.7540258267716533
11
5.4354018503937009
21
-4.7539692913385823
0
LINE
8
BLACK
6
CONTINUOUS
10
5.4354018503937009
20
-4.7539692913385823
11
5.4353866929133856
21
-4.7539238582677168
0
LINE
8
BLACK
6
CONTINUOUS
10
5.4353866929133856
20
-4.7539238582677168
11
5.4353260629921261
21
-4.7538275196850392
0
LINE
8
BLACK
6
CONTINUOUS
10
5.4353260629921261
20
-4.7538275196850392
11
5.4334512992125985
21
-4.7500779921259841
0
LINE
8
BLACK
6
CONTINUOUS
10
5.4334512992125985
20
-4.7500779921259841
11
5.433244409448819
21
-4.7495373622047241
0
LINE
8
BLACK
6
CONTINUOUS
10
5.433244409448819
20
-4.7495373622047241
11
5.4332368897637791
21
-4.7494315354330707
0
LINE
8
BLACK
6
CONTINUOUS
10
5.4332368897637791
20
-4.7494315354330707
11
5.4331962992125984
21
-4.7493335433070865
0
LINE
8
BLACK
6
CONTINUOUS
10
5.4331962992125984
20
-4.7493335433070865
11
5.4331395669291336
21
-4.7487574803149606
0
LINE
8
BLACK
6
CONTINUOUS
10
5.4331395669291336
20
-4.7487574803149606
11
5.4331395669291336
21
-4.7337593700787401
0
LINE
8
BLACK
6
CONTINUOUS
10
5.4331395669291336
20
-4.7337593700787401
11
5.4331962992125984
21
-4.7331833070866143
0
LINE
8
BLACK
6
CONTINUOUS
10
5.4331962992125984
20
-4.7331833070866143
11
5.4332368897637791
21
-4.7330852755905513
0
LINE
8
BLACK
6
CONTINUOUS
10
5.4332368897637791
20
-4.7330852755905513
11
5.433244409448819
21
-4.7329794881889766
0
LINE
8
BLACK
6
CONTINUOUS
10
5.433244409448819
20
-4.7329794881889766
11
5.4334512992125985
21
-4.7324388582677166
0
LINE
8
BLACK
6
CONTINUOUS
10
5.4334512992125985
20
-4.7324388582677166
11
5.4353260629921261
21
-4.7286893307086615
0
LINE
8
BLACK
6
CONTINUOUS
10
5.4353260629921261
20
-4.7286893307086615
11
5.4353866535433069
21
-4.7285930314960627
0
LINE
8
BLACK
6
CONTINUOUS
10
5.4353866535433069
20
-4.7285930314960627
11
5.4354018110236222
21
-4.7285475984251963
0
LINE
8
BLACK
6
CONTINUOUS
10
5.4354018110236222
20
-4.7285475984251963
11
5.435450866141732
21
-4.7284909842519687
0
LINE
8
BLACK
6
CONTINUOUS
10
5.435450866141732
20
-4.7284909842519687
11
5.4356344094488191
21
-4.7281994488188976
0
LINE
8
BLACK
6
CONTINUOUS
10
5.4356344094488191
20
-4.7281994488188976
11
5.4359141732283467
21
-4.7279567716535436
0
LINE
8
BLACK
6
CONTINUOUS
10
5.4359141732283467
20
-4.7279567716535436
11
5.4361566929133858
21
-4.7276772047244098
0
LINE
8
BLACK
6
CONTINUOUS
10
5.4361566929133858
20
-4.7276772047244098
11
5.4364482283464568
21
-4.7274936220472439
0
LINE
8
BLACK
6
CONTINUOUS
10
5.4364482283464568
20
-4.7274936220472439
11
5.4365048031496066
21
-4.7274446062992128
0
LINE
8
BLACK
6
CONTINUOUS
10
5.4365048031496066
20
-4.7274446062992128
11
5.4365501574803146
21
-4.7274294488188975
0
LINE
8
BLACK
6
CONTINUOUS
10
5.4365501574803146
20
-4.7274294488188975
11
5.4366465354330709
21
-4.7273688188976379
0
LINE
8
BLACK
6
CONTINUOUS
10
5.4366465354330709
20
-4.7273688188976379
11
5.4403961023622047
21
-4.7254940157480316
0
LINE
8
BLACK
6
CONTINUOUS
10
5.4403961023622047
20
-4.7254940157480316
11
5.440936692913386
21
-4.7252871259842522
0
LINE
8
BLACK
6
CONTINUOUS
10
5.440936692913386
20
-4.7252871259842522
11
5.4410425590551181
21
-4.7252795669291334
0
LINE
8
BLACK
6
CONTINUOUS
10
5.4410425590551181
20
-4.7252795669291334
11
5.4411405511811024
21
-4.7252390157480315
0
LINE
8
BLACK
6
CONTINUOUS
10
5.4411405511811024
20
-4.7252390157480315
11
5.4417166141732283
21
-4.7251822834645667
0
LINE
8
BLACK
6
CONTINUOUS
10
5.4417166141732283
20
-4.7251822834645667
11
5.4492156692913385
21
-4.7251822834645667
0
LINE
8
BLACK
6
CONTINUOUS
10
5.4492156692913385
20
-4.7251822834645667
11
5.4497917322834644
21
-4.7252390157480315
0
LINE
8
BLACK
6
CONTINUOUS
10
5.4390450787401576
20
-4.748060433070866
11
5.4401679133858263
21
-4.7503061417322829
0
LINE
8
BLACK
6
CONTINUOUS
10
5.4401679133858263
20
-4.7503061417322829
11
5.4424136614173229
21
-4.7514290157480312
0
LINE
8
BLACK
6
CONTINUOUS
10
5.4424136614173229
20
-4.7514290157480312
11
5.4485186220472439
21
-4.7514290157480312
0
LINE
8
BLACK
6
CONTINUOUS
10
5.4485186220472439
20
-4.7514290157480312
11
5.4507643307086617
21
-4.7503061417322829
0
LINE
8
BLACK
6
CONTINUOUS
10
5.4507643307086617
20
-4.7503061417322829
11
5.4518872047244091
21
-4.748060433070866
0
LINE
8
BLACK
6
CONTINUOUS
10
5.4518872047244091
20
-4.748060433070866
11
5.4518872047244091
21
-4.7474285826771654
0
LINE
8
BLACK
6
CONTINUOUS
10
5.4518872047244091
20
-4.7474285826771654
11
5.4390450787401576
21
-4.7448601968503938
0
LINE
8
BLACK
6
CONTINUOUS
10
5.4390450787401576
20
-4.7448601968503938
11
5.4390450787401576
21
-4.748060433070866
0
LINE
8
BLACK
6
CONTINUOUS
10
5.473353346456693
20
-4.7256799212598422
11
5.4741679921259845
21
-4.7264945669291336
0
LINE
8
BLACK
6
CONTINUOUS
10
5.4741679921259845
20
-4.7264945669291336
11
5.4746088976377951
21
-4.7275589763779529
0
LINE
8
BLACK
6
CONTINUOUS
10
5.4746088976377951
20
-4.7275589763779529
11
5.4746656299212599
21
-4.7281350393700787
0
LINE
8
BLACK
6
CONTINUOUS
10
5.4746656299212599
20
-4.7281350393700787
11
5.4746656299212599
21
-4.7461856692913384
0
LINE
8
BLACK
6
CONTINUOUS
10
5.4746656299212599
20
-4.7461856692913384
11
5.4760143700787403
21
-4.7488831496062991
0
LINE
8
BLACK
6
CONTINUOUS
10
5.4760143700787403
20
-4.7488831496062991
11
5.4772114960629921
21
-4.7500802755905509
0
LINE
8
BLACK
6
CONTINUOUS
10
5.4772114960629921
20
-4.7500802755905509
11
5.4799089763779527
21
-4.7514290157480312
0
LINE
8
BLACK
6
CONTINUOUS
10
5.4799089763779527
20
-4.7514290157480312
11
5.4829614566929132
21
-4.7514290157480312
0
LINE
8
BLACK
6
CONTINUOUS
10
5.4829614566929132
20
-4.7514290157480312
11
5.4835375196850391
21
-4.751485748031496
0
LINE
8
BLACK
6
CONTINUOUS
10
5.4835375196850391
20
-4.751485748031496
11
5.4846019291338584
21
-4.7519266535433067
0
LINE
8
BLACK
6
CONTINUOUS
10
5.4846019291338584
20
-4.7519266535433067
11
5.4854165748031498
21
-4.7527412992125981
0
LINE
8
BLACK
6
CONTINUOUS
10
5.4854165748031498
20
-4.7527412992125981
11
5.4858574803149605
21
-4.7538057086614174
0
LINE
8
BLACK
6
CONTINUOUS
10
5.4858574803149605
20
-4.7538057086614174
11
5.4858574803149605
21
-4.7549578346456691
0
LINE
8
BLACK
6
CONTINUOUS
10
5.4858574803149605
20
-4.7549578346456691
11
5.4854165748031498
21
-4.7560222440944884
0
LINE
8
BLACK
6
CONTINUOUS
10
5.4854165748031498
20
-4.7560222440944884
11
5.4846019291338584
21
-4.7568368897637798
0
LINE
8
BLACK
6
CONTINUOUS
10
5.4846019291338584
20
-4.7568368897637798
11
5.4835375196850391
21
-4.7572777952755905
0
LINE
8
BLACK
6
CONTINUOUS
10
5.4835375196850391
20
-4.7572777952755905
11
5.4829614566929132
21
-4.7573345275590553
0
LINE
8
BLACK
6
CONTINUOUS
10
5.4829614566929132
20
-4.7573345275590553
11
5.4792119291338581
21
-4.7573345275590553
0
LINE
8
BLACK
6
CONTINUOUS
10
5.4792119291338581
20
-4.7573345275590553
11
5.4786358661417323
21
-4.7572777952755905
0
LINE
8
BLACK
6
CONTINUOUS
10
5.4786358661417323
20
-4.7572777952755905
11
5.478537874015748
21
-4.7572372047244089
0
LINE
8
BLACK
6
CONTINUOUS
10
5.478537874015748
20
-4.7572372047244089
11
5.4784320078740159
21
-4.7572296850393698
0
LINE
8
BLACK
6
CONTINUOUS
10
5.4784320078740159
20
-4.7572296850393698
11
5.4778914173228346
21
-4.7570227952755904
0
LINE
8
BLACK
6
CONTINUOUS
10
5.4778914173228346
20
-4.7570227952755904
11
5.474463464566929
21
-4.755308818897638
0
LINE
8
BLACK
6
CONTINUOUS
10
5.474463464566929
20
-4.755308818897638
11
5.4741679921259845
21
-4.7560222440944884
0
LINE
8
BLACK
6
CONTINUOUS
10
5.4741679921259845
20
-4.7560222440944884
11
5.473353346456693
21
-4.7568368897637798
0
LINE
8
BLACK
6
CONTINUOUS
10
5.473353346456693
20
-4.7568368897637798
11
5.4722889370078738
21
-4.7572777952755905
0
LINE
8
BLACK
6
CONTINUOUS
10
5.4722889370078738
20
-4.7572777952755905
11
5.471136811023622
21
-4.7572777952755905
0
LINE
8
BLACK
6
CONTINUOUS
10
5.471136811023622
20
-4.7572777952755905
11
5.4700724015748028
21
-4.7568368897637798
0
LINE
8
BLACK
6
CONTINUOUS
10
5.4700724015748028
20
-4.7568368897637798
11
5.4692577559055113
21
-4.7560222440944884
0
LINE
8
BLACK
6
CONTINUOUS
10
5.4692577559055113
20
-4.7560222440944884
11
5.4688168503937007
21
-4.7549578346456691
0
LINE
8
BLACK
6
CONTINUOUS
10
5.4688168503937007
20
-4.7549578346456691
11
5.4687601181102359
21
-4.7543817716535433
0
LINE
8
BLACK
6
CONTINUOUS
10
5.4687601181102359
20
-4.7543817716535433
11
5.4687601181102359
21
-4.7281350393700787
0
LINE
8
BLACK
6
CONTINUOUS
10
5.4687601181102359
20
-4.7281350393700787
11
5.4688168503937007
21
-4.7275589763779529
0
LINE
8
BLACK
6
CONTINUOUS
10
5.4688168503937007
20
-4.7275589763779529
11
5.4692577559055113
21
-4.7264945669291336
0
LINE
8
BLACK
6
CONTINUOUS
10
5.4692577559055113
20
-4.7264945669291336
11
5.4700724015748028
21
-4.7256799212598422
0
LINE
8
BLACK
6
CONTINUOUS
10
5.4700724015748028
20
-4.7256799212598422
11
5.471136811023622
21
-4.7252390157480315
0
LINE
8
BLACK
6
CONTINUOUS
10
5.471136811023622
20
-4.7252390157480315
11
5.4722889370078738
21
-4.7252390157480315
0
LINE
8
BLACK
6
CONTINUOUS
10
5.4722889370078738
20
-4.7252390157480315
11
5.473353346456693
21
-4.7256799212598422
0
LINE
8
BLACK
6
CONTINUOUS
10
5.5754010629921256
20
-4.7252390157480315
11
5.5754990157480311
21
-4.7252795669291334
0
LINE
8
BLACK
6
CONTINUOUS
10
5.5754990157480311
20
-4.7252795669291334
11
5.575604921259842
21
-4.7252871259842522
0
LINE
8
BLACK
6
CONTINUOUS
10
5.575604921259842
20
-4.7252871259842522
11
5.576145551181102
21
-4.7254940157480316
0
LINE
8
BLACK
6
CONTINUOUS
10
5.576145551181102
20
-4.7254940157480316
11
5.5798950787401571
21
-4.7273688188976379
0
LINE
8
BLACK
6
CONTINUOUS
10
5.5798950787401571
20
-4.7273688188976379
11
5.580384960629921
21
-4.7276772047244098
0
LINE
8
BLACK
6
CONTINUOUS
10
5.580384960629921
20
-4.7276772047244098
11
5.5811398031496058
21
-4.7285475984251963
0
LINE
8
BLACK
6
CONTINUOUS
10
5.5811398031496058
20
-4.7285475984251963
11
5.5815040944881886
21
-4.7296405511811024
0
LINE
8
BLACK
6
CONTINUOUS
10
5.5815040944881886
20
-4.7296405511811024
11
5.5814224409448814
21
-4.7307897637795273
0
LINE
8
BLACK
6
CONTINUOUS
10
5.5814224409448814
20
-4.7307897637795273
11
5.580907165354331
21
-4.7318202362204724
0
LINE
8
BLACK
6
CONTINUOUS
10
5.580907165354331
20
-4.7318202362204724
11
5.5800368110236223
21
-4.732575118110236
0
LINE
8
BLACK
6
CONTINUOUS
10
5.5800368110236223
20
-4.732575118110236
11
5.5789438188976375
21
-4.7329394094488189
0
LINE
8
BLACK
6
CONTINUOUS
10
5.5789438188976375
20
-4.7329394094488189
11
5.5777946062992125
21
-4.7328577559055116
0
LINE
8
BLACK
6
CONTINUOUS
10
5.5777946062992125
20
-4.7328577559055116
11
5.5772540157480313
21
-4.7326508661417321
0
LINE
8
BLACK
6
CONTINUOUS
10
5.5772540157480313
20
-4.7326508661417321
11
5.5741279133858264
21
-4.7310877952755908
0
LINE
8
BLACK
6
CONTINUOUS
10
5.5741279133858264
20
-4.7310877952755908
11
5.5680230314960628
21
-4.7310877952755908
0
LINE
8
BLACK
6
CONTINUOUS
10
5.5680230314960628
20
-4.7310877952755908
11
5.5657772440944884
21
-4.7322107086614169
0
LINE
8
BLACK
6
CONTINUOUS
10
5.5657772440944884
20
-4.7322107086614169
11
5.5646544094488188
21
-4.7344564173228347
0
LINE
8
BLACK
6
CONTINUOUS
10
5.5646544094488188
20
-4.7344564173228347
11
5.5646544094488188
21
-4.738837716535433
0
LINE
8
BLACK
6
CONTINUOUS
10
5.5646544094488188
20
-4.738837716535433
11
5.5810283464566925
21
-4.7421125196850396
0
LINE
8
BLACK
6
CONTINUOUS
10
5.5810283464566925
20
-4.7421125196850396
11
5.5815821259842515
21
-4.742281141732283
0
LINE
8
BLACK
6
CONTINUOUS
10
5.5815821259842515
20
-4.742281141732283
11
5.5818224803149601
21
-4.7424420866141732
0
LINE
8
BLACK
6
CONTINUOUS
10
5.5818224803149601
20
-4.7424420866141732
11
5.5820897637795275
21
-4.7425528346456689
0
LINE
8
BLACK
6
CONTINUOUS
10
5.5820897637795275
20
-4.7425528346456689
11
5.5822965354330707
21
-4.7427596062992121
0
LINE
8
BLACK
6
CONTINUOUS
10
5.5822965354330707
20
-4.7427596062992121
11
5.5825393700787398
21
-4.7429222440944878
0
LINE
8
BLACK
6
CONTINUOUS
10
5.5825393700787398
20
-4.7429222440944878
11
5.5826997637795275
21
-4.7431628346456689
0
LINE
8
BLACK
6
CONTINUOUS
10
5.5826997637795275
20
-4.7431628346456689
11
5.5829044094488189
21
-4.7433674803149604
0
LINE
8
BLACK
6
CONTINUOUS
10
5.5829044094488189
20
-4.7433674803149604
11
5.5830163385826772
21
-4.7436376771653546
0
LINE
8
BLACK
6
CONTINUOUS
10
5.5830163385826772
20
-4.7436376771653546
11
5.5831784251968504
21
-4.7438808267716537
0
LINE
8
BLACK
6
CONTINUOUS
10
5.5831784251968504
20
-4.7438808267716537
11
5.5832345275590551
21
-4.744164488188976
0
LINE
8
BLACK
6
CONTINUOUS
10
5.5832345275590551
20
-4.744164488188976
11
5.5833453149606296
21
-4.7444318897637796
0
LINE
8
BLACK
6
CONTINUOUS
10
5.5833453149606296
20
-4.7444318897637796
11
5.5834020472440944
21
-4.7450079527559055
0
LINE
8
BLACK
6
CONTINUOUS
10
5.5834020472440944
20
-4.7450079527559055
11
5.5834020472440944
21
-4.7487574803149606
0
LINE
8
BLACK
6
CONTINUOUS
10
5.5834020472440944
20
-4.7487574803149606
11
5.5833453149606296
21
-4.7493335433070865
0
LINE
8
BLACK
6
CONTINUOUS
10
5.5833453149606296
20
-4.7493335433070865
11
5.5833047244094489
21
-4.749431496062992
0
LINE
8
BLACK
6
CONTINUOUS
10
5.5833047244094489
20
-4.749431496062992
11
5.5832972047244089
21
-4.7495374015748029
0
LINE
8
BLACK
6
CONTINUOUS
10
5.5832972047244089
20
-4.7495374015748029
11
5.5830903149606295
21
-4.7500779921259841
0
LINE
8
BLACK
6
CONTINUOUS
10
5.5830903149606295
20
-4.7500779921259841
11
5.5812155511811019
21
-4.7538275196850392
0
LINE
8
BLACK
6
CONTINUOUS
10
5.5812155511811019
20
-4.7538275196850392
11
5.5811548818897636
21
-4.7539238582677168
0
LINE
8
BLACK
6
CONTINUOUS
10
5.5811548818897636
20
-4.7539238582677168
11
5.581139763779527
21
-4.7539692913385823
0
LINE
8
BLACK
6
CONTINUOUS
10
5.581139763779527
20
-4.7539692913385823
11
5.5810907086614172
21
-4.7540258267716533
0
LINE
8
BLACK
6
CONTINUOUS
10
5.5810907086614172
20
-4.7540258267716533
11
5.5809072047244097
21
-4.7543174015748031
0
LINE
8
BLACK
6
CONTINUOUS
10
5.5809072047244097
20
-4.7543174015748031
11
5.5806274803149609
21
-4.7545599606299209
0
LINE
8
BLACK
6
CONTINUOUS
10
5.5806274803149609
20
-4.7545599606299209
11
5.5803849212598422
21
-4.7548396850393697
0
LINE
8
BLACK
6
CONTINUOUS
10
5.5803849212598422
20
-4.7548396850393697
11
5.5800933464566924
21
-4.7550231889763781
0
LINE
8
BLACK
6
CONTINUOUS
10
5.5800933464566924
20
-4.7550231889763781
11
5.5800368110236223
21
-4.7550722440944879
0
LINE
8
BLACK
6
CONTINUOUS
10
5.5800368110236223
20
-4.7550722440944879
11
5.5799913779527559
21
-4.7550873622047245
0
LINE
8
BLACK
6
CONTINUOUS
10
5.5799913779527559
20
-4.7550873622047245
11
5.5798950393700784
21
-4.7551480314960628
0
LINE
8
BLACK
6
CONTINUOUS
10
5.5798950393700784
20
-4.7551480314960628
11
5.5761455118110232
21
-4.7570227952755904
0
LINE
8
BLACK
6
CONTINUOUS
10
5.5761455118110232
20
-4.7570227952755904
11
5.5756048818897632
21
-4.7572296850393698
0
LINE
8
BLACK
6
CONTINUOUS
10
5.5756048818897632
20
-4.7572296850393698
11
5.5754990551181098
21
-4.7572371653543302
0
LINE
8
BLACK
6
CONTINUOUS
10
5.5754990551181098
20
-4.7572371653543302
11
5.5754010629921256
21
-4.7572777952755905
0
LINE
8
BLACK
6
CONTINUOUS
10
5.5754010629921256
20
-4.7572777952755905
11
5.5748249999999997
21
-4.7573345275590553
0
LINE
8
BLACK
6
CONTINUOUS
10
5.5748249999999997
20
-4.7573345275590553
11
5.5673259448818895
21
-4.7573345275590553
0
LINE
8
BLACK
6
CONTINUOUS
10
5.5673259448818895
20
-4.7573345275590553
11
5.5667498818897636
21
-4.7572777952755905
0
LINE
8
BLACK
6
CONTINUOUS
10
5.5667498818897636
20
-4.7572777952755905
11
5.5666518897637793
21
-4.7572372047244089
0
LINE
8
BLACK
6
CONTINUOUS
10
5.5666518897637793
20
-4.7572372047244089
11
5.5665460236220472
21
-4.7572296850393698
0
LINE
8
BLACK
6
CONTINUOUS
10
5.5665460236220472
20
-4.7572296850393698
11
5.5660054330708659
21
-4.7570227952755904
0
LINE
8
BLACK
6
CONTINUOUS
10
5.5660054330708659
20
-4.7570227952755904
11
5.5622559055118108
21
-4.7551480314960628
0
LINE
8
BLACK
6
CONTINUOUS
10
5.5622559055118108
20
-4.7551480314960628
11
5.5621595275590554
21
-4.7550873622047245
0
LINE
8
BLACK
6
CONTINUOUS
10
5.5621595275590554
20
-4.7550873622047245
11
5.5621141338582678
21
-4.7550722440944879
0
LINE
8
BLACK
6
CONTINUOUS
10
5.5621141338582678
20
-4.7550722440944879
11
5.562057559055118
21
-4.7550231889763781
0
LINE
8
BLACK
6
CONTINUOUS
10
5.562057559055118
20
-4.7550231889763781
11
5.561766023622047
21
-4.7548396850393697
0
LINE
8
BLACK
6
CONTINUOUS
10
5.561766023622047
20
-4.7548396850393697
11
5.5615234251968504
21
-4.7545599606299209
0
LINE
8
BLACK
6
CONTINUOUS
10
5.5615234251968504
20
-4.7545599606299209
11
5.5612437401574804
21
-4.7543174015748031
0
LINE
8
BLACK
6
CONTINUOUS
10
5.5612437401574804
20
-4.7543174015748031
11
5.5610601968503932
21
-4.7540258267716533
0
LINE
8
BLACK
6
CONTINUOUS
10
5.5610601968503932
20
-4.7540258267716533
11
5.5610111811023621
21
-4.7539692913385823
0
LINE
8
BLACK
6
CONTINUOUS
10
5.5610111811023621
20
-4.7539692913385823
11
5.5609960236220468
21
-4.7539238582677168
0
LINE
8
BLACK
6
CONTINUOUS
10
5.5609960236220468
20
-4.7539238582677168
11
5.5609353937007873
21
-4.7538275196850392
0
LINE
8
BLACK
6
CONTINUOUS
10
5.5609353937007873
20
-4.7538275196850392
11
5.5590606299212597
21
-4.7500779921259841
0
LINE
8
BLACK
6
CONTINUOUS
10
5.5590606299212597
20
-4.7500779921259841
11
5.5588537401574802
21
-4.7495373622047241
0
LINE
8
BLACK
6
CONTINUOUS
10
5.5588537401574802
20
-4.7495373622047241
11
5.5588462204724411
21
-4.7494315354330707
0
LINE
8
BLACK
6
CONTINUOUS
10
5.5588462204724411
20
-4.7494315354330707
11
5.5588056299212596
21
-4.7493335433070865
0
LINE
8
BLACK
6
CONTINUOUS
10
5.5588056299212596
20
-4.7493335433070865
11
5.5587488976377948
21
-4.7487574803149606
0
LINE
8
BLACK
6
CONTINUOUS
10
5.5587488976377948
20
-4.7487574803149606
11
5.5587488976377948
21
-4.7337593700787401
0
LINE
8
BLACK
6
CONTINUOUS
10
5.5587488976377948
20
-4.7337593700787401
11
5.5588056299212596
21
-4.7331833070866143
0
LINE
8
BLACK
6
CONTINUOUS
10
5.5588056299212596
20
-4.7331833070866143
11
5.5588462204724411
21
-4.7330852755905513
0
LINE
8
BLACK
6
CONTINUOUS
10
5.5588462204724411
20
-4.7330852755905513
11
5.5588537401574802
21
-4.7329794881889766
0
LINE
8
BLACK
6
CONTINUOUS
10
5.5588537401574802
20
-4.7329794881889766
11
5.5590606299212597
21
-4.7324388582677166
0
LINE
8
BLACK
6
CONTINUOUS
10
5.5590606299212597
20
-4.7324388582677166
11
5.5609353937007873
21
-4.7286893307086615
0
LINE
8
BLACK
6
CONTINUOUS
10
5.5609353937007873
20
-4.7286893307086615
11
5.5609959842519681
21
-4.7285930314960627
0
LINE
8
BLACK
6
CONTINUOUS
10
5.5609959842519681
20
-4.7285930314960627
11
5.5610111417322834
21
-4.7285475984251963
0
LINE
8
BLACK
6
CONTINUOUS
10
5.5610111417322834
20
-4.7285475984251963
11
5.5610601968503932
21
-4.7284909842519687
0
LINE
8
BLACK
6
CONTINUOUS
10
5.5610601968503932
20
-4.7284909842519687
11
5.5612437401574804
21
-4.7281994488188976
0
LINE
8
BLACK
6
CONTINUOUS
10
5.5612437401574804
20
-4.7281994488188976
11
5.5615235039370079
21
-4.7279567716535436
0
LINE
8
BLACK
6
CONTINUOUS
10
5.5615235039370079
20
-4.7279567716535436
11
5.561766023622047
21
-4.7276772047244098
0
LINE
8
BLACK
6
CONTINUOUS
10
5.561766023622047
20
-4.7276772047244098
11
5.562057559055118
21
-4.7274936220472439
0
LINE
8
BLACK
6
CONTINUOUS
10
5.562057559055118
20
-4.7274936220472439
11
5.5621141338582678
21
-4.7274446062992128
0
LINE
8
BLACK
6
CONTINUOUS
10
5.5621141338582678
20
-4.7274446062992128
11
5.5621594881889767
21
-4.7274294488188975
0
LINE
8
BLACK
6
CONTINUOUS
10
5.5621594881889767
20
-4.7274294488188975
11
5.5622558661417321
21
-4.7273688188976379
0
LINE
8
BLACK
6
CONTINUOUS
10
5.5622558661417321
20
-4.7273688188976379
11
5.5660054330708659
21
-4.7254940157480316
0
LINE
8
BLACK
6
CONTINUOUS
10
5.5660054330708659
20
-4.7254940157480316
11
5.5665460236220472
21
-4.7252871259842522
0
LINE
8
BLACK
6
CONTINUOUS
10
5.5665460236220472
20
-4.7252871259842522
11
5.5666518897637793
21
-4.7252795669291334
0
LINE
8
BLACK
6
CONTINUOUS
10
5.5666518897637793
20
-4.7252795669291334
11
5.5667498818897636
21
-4.7252390157480315
0
LINE
8
BLACK
6
CONTINUOUS
10
5.5667498818897636
20
-4.7252390157480315
11
5.5673259448818895
21
-4.7251822834645667
0
LINE
8
BLACK
6
CONTINUOUS
10
5.5673259448818895
20
-4.7251822834645667
11
5.5748249999999997
21
-4.7251822834645667
0
LINE
8
BLACK
6
CONTINUOUS
10
5.5748249999999997
20
-4.7251822834645667
11
5.5754010629921256
21
-4.7252390157480315
0
LINE
8
BLACK
6
CONTINUOUS
10
5.5646544094488188
20
-4.748060433070866
11
5.5657772440944884
21
-4.7503061417322829
0
LINE
8
BLACK
6
CONTINUOUS
10
5.5657772440944884
20
-4.7503061417322829
11
5.5680229921259841
21
-4.7514290157480312
0
LINE
8
BLACK
6
CONTINUOUS
10
5.5680229921259841
20
-4.7514290157480312
11
5.5741279527559051
21
-4.7514290157480312
0
LINE
8
BLACK
6
CONTINUOUS
10
5.5741279527559051
20
-4.7514290157480312
11
5.5763736614173229
21
-4.7503061417322829
0
LINE
8
BLACK
6
CONTINUOUS
10
5.5763736614173229
20
-4.7503061417322829
11
5.5774965354330703
21
-4.748060433070866
0
LINE
8
BLACK
6
CONTINUOUS
10
5.5774965354330703
20
-4.748060433070866
11
5.5774965354330703
21
-4.7474285826771654
0
LINE
8
BLACK
6
CONTINUOUS
10
5.5774965354330703
20
-4.7474285826771654
11
5.5646544094488188
21
-4.7448601968503938
0
LINE
8
BLACK
6
CONTINUOUS
10
5.5646544094488188
20
-4.7448601968503938
11
5.5646544094488188
21
-4.748060433070866
0
LINE
8
BLACK
6
CONTINUOUS
10
5.5989626771653542
20
-4.7256799212598422
11
5.5997773228346457
21
-4.7264945669291336
0
LINE
8
BLACK
6
CONTINUOUS
10
5.5997773228346457
20
-4.7264945669291336
11
5.6002182283464563
21
-4.7275589763779529
0
LINE
8
BLACK
6
CONTINUOUS
10
5.6002182283464563
20
-4.7275589763779529
11
5.6002749606299211
21
-4.7281350393700787
0
LINE
8
BLACK
6
CONTINUOUS
10
5.6002749606299211
20
-4.7281350393700787
11
5.6002749606299211
21
-4.7461856692913384
0
LINE
8
BLACK
6
CONTINUOUS
10
5.6002749606299211
20
-4.7461856692913384
11
5.6016237007874015
21
-4.7488831496062991
0
LINE
8
BLACK
6
CONTINUOUS
10
5.6016237007874015
20
-4.7488831496062991
11
5.6028208267716533
21
-4.7500802755905509
0
LINE
8
BLACK
6
CONTINUOUS
10
5.6028208267716533
20
-4.7500802755905509
11
5.6055183070866139
21
-4.7514290157480312
0
LINE
8
BLACK
6
CONTINUOUS
10
5.6055183070866139
20
-4.7514290157480312
11
5.6085707874015744
21
-4.7514290157480312
0
LINE
8
BLACK
6
CONTINUOUS
10
5.6085707874015744
20
-4.7514290157480312
11
5.6091468503937003
21
-4.751485748031496
0
LINE
8
BLACK
6
CONTINUOUS
10
5.6091468503937003
20
-4.751485748031496
11
5.6102112598425196
21
-4.7519266535433067
0
LINE
8
BLACK
6
CONTINUOUS
10
5.6102112598425196
20
-4.7519266535433067
11
5.611025905511811
21
-4.7527412992125981
0
LINE
8
BLACK
6
CONTINUOUS
10
5.611025905511811
20
-4.7527412992125981
11
5.6114668110236217
21
-4.7538057086614174
0
LINE
8
BLACK
6
CONTINUOUS
10
5.6114668110236217
20
-4.7538057086614174
11
5.6114668110236217
21
-4.7549578346456691
0
LINE
8
BLACK
6
CONTINUOUS
10
5.6114668110236217
20
-4.7549578346456691
11
5.611025905511811
21
-4.7560222440944884
0
LINE
8
BLACK
6
CONTINUOUS
10
5.611025905511811
20
-4.7560222440944884
11
5.6102112598425196
21
-4.7568368897637798
0
LINE
8
BLACK
6
CONTINUOUS
10
5.6102112598425196
20
-4.7568368897637798
11
5.6091468503937003
21
-4.7572777952755905
0
LINE
8
BLACK
6
CONTINUOUS
10
5.6091468503937003
20
-4.7572777952755905
11
5.6085707874015744
21
-4.7573345275590553
0
LINE
8
BLACK
6
CONTINUOUS
10
5.6085707874015744
20
-4.7573345275590553
11
5.6048212598425193
21
-4.7573345275590553
0
LINE
8
BLACK
6
CONTINUOUS
10
5.6048212598425193
20
-4.7573345275590553
11
5.6042451968503935
21
-4.7572777952755905
0
LINE
8
BLACK
6
CONTINUOUS
10
5.6042451968503935
20
-4.7572777952755905
11
5.6041472047244092
21
-4.7572372047244089
0
LINE
8
BLACK
6
CONTINUOUS
10
5.6041472047244092
20
-4.7572372047244089
11
5.6040413385826771
21
-4.7572296850393698
0
LINE
8
BLACK
6
CONTINUOUS
10
5.6040413385826771
20
-4.7572296850393698
11
5.6035007480314958
21
-4.7570227952755904
0
LINE
8
BLACK
6
CONTINUOUS
10
5.6035007480314958
20
-4.7570227952755904
11
5.6000727952755902
21
-4.755308818897638
0
LINE
8
BLACK
6
CONTINUOUS
10
5.6000727952755902
20
-4.755308818897638
11
5.5997773228346457
21
-4.7560222440944884
0
LINE
8
BLACK
6
CONTINUOUS
10
5.5997773228346457
20
-4.7560222440944884
11
5.5989626771653542
21
-4.7568368897637798
0
LINE
8
BLACK
6
CONTINUOUS
10
5.5989626771653542
20
-4.7568368897637798
11
5.597898267716535
21
-4.7572777952755905
0
LINE
8
BLACK
6
CONTINUOUS
10
5.597898267716535
20
-4.7572777952755905
11
5.5967461417322832
21
-4.7572777952755905
0
LINE
8
BLACK
6
CONTINUOUS
10
5.5967461417322832
20
-4.7572777952755905
11
5.5956817322834649
21
-4.7568368897637798
0
LINE
8
BLACK
6
CONTINUOUS
10
5.5956817322834649
20
-4.7568368897637798
11
5.5948670866141734
21
-4.7560222440944884
0
LINE
8
BLACK
6
CONTINUOUS
10
5.5948670866141734
20
-4.7560222440944884
11
5.5944261811023619
21
-4.7549578346456691
0
LINE
8
BLACK
6
CONTINUOUS
10
5.5944261811023619
20
-4.7549578346456691
11
5.5943694488188971
21
-4.7543817716535433
0
LINE
8
BLACK
6
CONTINUOUS
10
5.5943694488188971
20
-4.7543817716535433
11
5.5943694488188971
21
-4.7281350393700787
0
LINE
8
BLACK
6
CONTINUOUS
10
5.5943694488188971
20
-4.7281350393700787
11
5.5944261811023619
21
-4.7275589763779529
0
LINE
8
BLACK
6
CONTINUOUS
10
5.5944261811023619
20
-4.7275589763779529
11
5.5948670866141734
21
-4.7264945669291336
0
LINE
8
BLACK
6
CONTINUOUS
10
5.5948670866141734
20
-4.7264945669291336
11
5.5956817322834649
21
-4.7256799212598422
0
LINE
8
BLACK
6
CONTINUOUS
10
5.5956817322834649
20
-4.7256799212598422
11
5.5967461417322832
21
-4.7252390157480315
0
LINE
8
BLACK
6
CONTINUOUS
10
5.5967461417322832
20
-4.7252390157480315
11
5.597898267716535
21
-4.7252390157480315
0
LINE
8
BLACK
6
CONTINUOUS
10
5.597898267716535
20
-4.7252390157480315
11
5.5989626771653542
21
-4.7256799212598422
0
LINE
8
BLACK
6
CONTINUOUS
10
5.6335188188976373
20
-4.7252390157480315
11
5.6336167716535428
21
-4.7252795669291334
0
LINE
8
BLACK
6
CONTINUOUS
10
5.6336167716535428
20
-4.7252795669291334
11
5.6337226771653546
21
-4.7252871259842522
0
LINE
8
BLACK
6
CONTINUOUS
10
5.6337226771653546
20
-4.7252871259842522
11
5.6342633070866137
21
-4.7254940157480316
0
LINE
8
BLACK
6
CONTINUOUS
10
5.6342633070866137
20
-4.7254940157480316
11
5.6380128346456688
21
-4.7273688188976379
0
LINE
8
BLACK
6
CONTINUOUS
10
5.6380128346456688
20
-4.7273688188976379
11
5.6382607874015749
21
-4.7275249212598425
0
LINE
8
BLACK
6
CONTINUOUS
10
5.6382607874015749
20
-4.7275249212598425
11
5.6383327559055116
21
-4.7275547244094485
0
LINE
8
BLACK
6
CONTINUOUS
10
5.6383327559055116
20
-4.7275547244094485
11
5.6384137401574801
21
-4.7276211811023625
0
LINE
8
BLACK
6
CONTINUOUS
10
5.6384137401574801
20
-4.7276211811023625
11
5.6385027165354327
21
-4.7276772047244098
0
LINE
8
BLACK
6
CONTINUOUS
10
5.6385027165354327
20
-4.7276772047244098
11
5.6385538582677164
21
-4.7277361811023617
0
LINE
8
BLACK
6
CONTINUOUS
10
5.6385538582677164
20
-4.7277361811023617
11
5.6387801968503934
21
-4.7279219291338581
0
LINE
8
BLACK
6
CONTINUOUS
10
5.6387801968503934
20
-4.7279219291338581
11
5.640654960629921
21
-4.7297966929133857
0
LINE
8
BLACK
6
CONTINUOUS
10
5.640654960629921
20
-4.7297966929133857
11
5.6408407086614174
21
-4.7300230314960627
0
LINE
8
BLACK
6
CONTINUOUS
10
5.6408407086614174
20
-4.7300230314960627
11
5.640899724409449
21
-4.7300742125984252
0
LINE
8
BLACK
6
CONTINUOUS
10
5.640899724409449
20
-4.7300742125984252
11
5.6409556692913387
21
-4.730163149606299
0
LINE
8
BLACK
6
CONTINUOUS
10
5.6409556692913387
20
-4.730163149606299
11
5.6410221653543307
21
-4.7302441338582675
0
LINE
8
BLACK
6
CONTINUOUS
10
5.6410221653543307
20
-4.7302441338582675
11
5.6410519685039366
21
-4.7303160629921255
0
LINE
8
BLACK
6
CONTINUOUS
10
5.6410519685039366
20
-4.7303160629921255
11
5.6412080708661412
21
-4.730564094488189
0
LINE
8
BLACK
6
CONTINUOUS
10
5.6412080708661412
20
-4.730564094488189
11
5.6430828346456687
21
-4.7343136220472442
0
LINE
8
BLACK
6
CONTINUOUS
10
5.6430828346456687
20
-4.7343136220472442
11
5.6432897244094491
21
-4.7348542125984254
0
LINE
8
BLACK
6
CONTINUOUS
10
5.6432897244094491
20
-4.7348542125984254
11
5.6432972440944882
21
-4.7349600787401576
0
LINE
8
BLACK
6
CONTINUOUS
10
5.6432972440944882
20
-4.7349600787401576
11
5.6433378346456688
21
-4.7350580708661418
0
LINE
8
BLACK
6
CONTINUOUS
10
5.6433378346456688
20
-4.7350580708661418
11
5.6433945669291337
21
-4.7356341338582677
0
LINE
8
BLACK
6
CONTINUOUS
10
5.6433945669291337
20
-4.7356341338582677
11
5.6433945669291337
21
-4.746882716535433
0
LINE
8
BLACK
6
CONTINUOUS
10
5.6433945669291337
20
-4.746882716535433
11
5.6433378346456688
21
-4.7474587795275589
0
LINE
8
BLACK
6
CONTINUOUS
10
5.6433378346456688
20
-4.7474587795275589
11
5.6432972440944882
21
-4.7475567322834644
0
LINE
8
BLACK
6
CONTINUOUS
10
5.6432972440944882
20
-4.7475567322834644
11
5.6432897244094491
21
-4.7476626377952753
0
LINE
8
BLACK
6
CONTINUOUS
10
5.6432897244094491
20
-4.7476626377952753
11
5.6430828346456687
21
-4.7482032283464566
0
LINE
8
BLACK
6
CONTINUOUS
10
5.6430828346456687
20
-4.7482032283464566
11
5.6412080708661412
21
-4.7519527559055117
0
LINE
8
BLACK
6
CONTINUOUS
10
5.6412080708661412
20
-4.7519527559055117
11
5.6410519685039366
21
-4.7522007480314956
0
LINE
8
BLACK
6
CONTINUOUS
10
5.6410519685039366
20
-4.7522007480314956
11
5.6410221653543307
21
-4.7522727165354333
0
LINE
8
BLACK
6
CONTINUOUS
10
5.6410221653543307
20
-4.7522727165354333
11
5.6409556692913387
21
-4.752353661417323
0
LINE
8
BLACK
6
CONTINUOUS
10
5.6409556692913387
20
-4.752353661417323
11
5.640899724409449
21
-4.7524426377952755
0
LINE
8
BLACK
6
CONTINUOUS
10
5.640899724409449
20
-4.7524426377952755
11
5.6408407086614174
21
-4.7524937795275592
0
LINE
8
BLACK
6
CONTINUOUS
10
5.6408407086614174
20
-4.7524937795275592
11
5.640654960629921
21
-4.7527201574803151
0
LINE
8
BLACK
6
CONTINUOUS
10
5.640654960629921
20
-4.7527201574803151
11
5.6387801968503934
21
-4.7545949212598426
0
LINE
8
BLACK
6
CONTINUOUS
10
5.6387801968503934
20
-4.7545949212598426
11
5.6385538188976376
21
-4.7547806692913381
0
LINE
8
BLACK
6
CONTINUOUS
10
5.6385538188976376
20
-4.7547806692913381
11
5.6385026771653539
21
-4.7548396850393697
0
LINE
8
BLACK
6
CONTINUOUS
10
5.6385026771653539
20
-4.7548396850393697
11
5.6384137007874013
21
-4.7548956299212595
0
LINE
8
BLACK
6
CONTINUOUS
10
5.6384137007874013
20
-4.7548956299212595
11
5.6383327559055116
21
-4.7549621259842523
0
LINE
8
BLACK
6
CONTINUOUS
10
5.6383327559055116
20
-4.7549621259842523
11
5.6382607874015749
21
-4.7549919291338583
0
LINE
8
BLACK
6
CONTINUOUS
10
5.6382607874015749
20
-4.7549919291338583
11
5.6380127952755901
21
-4.7551480314960628
0
LINE
8
BLACK
6
CONTINUOUS
10
5.6380127952755901
20
-4.7551480314960628
11
5.634263267716535
21
-4.7570227952755904
0
LINE
8
BLACK
6
CONTINUOUS
10
5.634263267716535
20
-4.7570227952755904
11
5.6337226377952758
21
-4.7572296850393698
0
LINE
8
BLACK
6
CONTINUOUS
10
5.6337226377952758
20
-4.7572296850393698
11
5.6336168110236216
21
-4.7572371653543302
0
LINE
8
BLACK
6
CONTINUOUS
10
5.6336168110236216
20
-4.7572371653543302
11
5.6335188188976373
21
-4.7572777952755905
0
LINE
8
BLACK
6
CONTINUOUS
10
5.6335188188976373
20
-4.7572777952755905
11
5.6329427559055114
21
-4.7573345275590553
0
LINE
8
BLACK
6
CONTINUOUS
10
5.6329427559055114
20
-4.7573345275590553
11
5.6273184645669287
21
-4.7573345275590553
0
LINE
8
BLACK
6
CONTINUOUS
10
5.6273184645669287
20
-4.7573345275590553
11
5.6267424015748029
21
-4.7572777952755905
0
LINE
8
BLACK
6
CONTINUOUS
10
5.6267424015748029
20
-4.7572777952755905
11
5.6266444094488186
21
-4.7572372047244089
0
LINE
8
BLACK
6
CONTINUOUS
10
5.6266444094488186
20
-4.7572372047244089
11
5.6265385433070865
21
-4.7572296850393698
0
LINE
8
BLACK
6
CONTINUOUS
10
5.6265385433070865
20
-4.7572296850393698
11
5.6259979527559052
21
-4.7570227952755904
0
LINE
8
BLACK
6
CONTINUOUS
10
5.6259979527559052
20
-4.7570227952755904
11
5.6222484251968501
21
-4.7551480314960628
0
LINE
8
BLACK
6
CONTINUOUS
10
5.6222484251968501
20
-4.7551480314960628
11
5.6220003937007874
21
-4.7549919291338583
0
LINE
8
BLACK
6
CONTINUOUS
10
5.6220003937007874
20
-4.7549919291338583
11
5.6219284645669294
21
-4.7549621259842523
0
LINE
8
BLACK
6
CONTINUOUS
10
5.6219284645669294
20
-4.7549621259842523
11
5.6218474803149601
21
-4.7548956299212595
0
LINE
8
BLACK
6
CONTINUOUS
10
5.6218474803149601
20
-4.7548956299212595
11
5.6217585433070862
21
-4.7548396850393697
0
LINE
8
BLACK
6
CONTINUOUS
10
5.6217585433070862
20
-4.7548396850393697
11
5.6217073622047247
21
-4.7547806692913381
0
LINE
8
BLACK
6
CONTINUOUS
10
5.6217073622047247
20
-4.7547806692913381
11
5.6214810236220467
21
-4.7545949212598426
0
LINE
8
BLACK
6
CONTINUOUS
10
5.6214810236220467
20
-4.7545949212598426
11
5.6196062598425192
21
-4.7527201574803151
0
LINE
8
BLACK
6
CONTINUOUS
10
5.6196062598425192
20
-4.7527201574803151
11
5.6194204724409449
21
-4.7524937795275592
0
LINE
8
BLACK
6
CONTINUOUS
10
5.6194204724409449
20
-4.7524937795275592
11
5.6193614960629921
21
-4.7524426377952755
0
LINE
8
BLACK
6
CONTINUOUS
10
5.6193614960629921
20
-4.7524426377952755
11
5.6193055118110236
21
-4.752353661417323
0
LINE
8
BLACK
6
CONTINUOUS
10
5.6193055118110236
20
-4.752353661417323
11
5.6192390551181104
21
-4.7522727165354333
0
LINE
8
BLACK
6
CONTINUOUS
10
5.6192390551181104
20
-4.7522727165354333
11
5.6192092125984248
21
-4.7522007480314956
0
LINE
8
BLACK
6
CONTINUOUS
10
5.6192092125984248
20
-4.7522007480314956
11
5.619053149606299
21
-4.7519527559055117
0
LINE
8
BLACK
6
CONTINUOUS
10
5.619053149606299
20
-4.7519527559055117
11
5.6171783858267714
21
-4.7482032283464566
0
LINE
8
BLACK
6
CONTINUOUS
10
5.6171783858267714
20
-4.7482032283464566
11
5.616971496062992
21
-4.7476625984251966
0
LINE
8
BLACK
6
CONTINUOUS
10
5.616971496062992
20
-4.7476625984251966
11
5.6169639763779529
21
-4.7475567716535432
0
LINE
8
BLACK
6
CONTINUOUS
10
5.6169639763779529
20
-4.7475567716535432
11
5.6169233858267713
21
-4.7474587795275589
0
LINE
8
BLACK
6
CONTINUOUS
10
5.6169233858267713
20
-4.7474587795275589
11
5.6168666535433074
21
-4.746882716535433
0
LINE
8
BLACK
6
CONTINUOUS
10
5.6168666535433074
20
-4.746882716535433
11
5.6168666535433074
21
-4.7356341338582677
0
LINE
8
BLACK
6
CONTINUOUS
10
5.6168666535433074
20
-4.7356341338582677
11
5.6169233858267713
21
-4.7350580708661418
0
LINE
8
BLACK
6
CONTINUOUS
10
5.6169233858267713
20
-4.7350580708661418
11
5.6169639763779529
21
-4.7349600393700788
0
LINE
8
BLACK
6
CONTINUOUS
10
5.6169639763779529
20
-4.7349600393700788
11
5.616971496062992
21
-4.7348542519685042
0
LINE
8
BLACK
6
CONTINUOUS
10
5.616971496062992
20
-4.7348542519685042
11
5.6171783858267714
21
-4.7343136220472442
0
LINE
8
BLACK
6
CONTINUOUS
10
5.6171783858267714
20
-4.7343136220472442
11
5.619053149606299
21
-4.730564094488189
0
LINE
8
BLACK
6
CONTINUOUS
10
5.619053149606299
20
-4.730564094488189
11
5.6192092125984248
21
-4.7303160629921255
0
LINE
8
BLACK
6
CONTINUOUS
10
5.6192092125984248
20
-4.7303160629921255
11
5.6192390551181104
21
-4.7302441338582675
0
LINE
8
BLACK
6
CONTINUOUS
10
5.6192390551181104
20
-4.7302441338582675
11
5.6193055118110236
21
-4.730163149606299
0
LINE
8
BLACK
6
CONTINUOUS
10
5.6193055118110236
20
-4.730163149606299
11
5.6193614960629921
21
-4.7300742125984252
0
LINE
8
BLACK
6
CONTINUOUS
10
5.6193614960629921
20
-4.7300742125984252
11
5.6194204724409449
21
-4.7300230314960627
0
LINE
8
BLACK
6
CONTINUOUS
10
5.6194204724409449
20
-4.7300230314960627
11
5.6196062598425192
21
-4.7297966929133857
0
LINE
8
BLACK
6
CONTINUOUS
10
5.6196062598425192
20
-4.7297966929133857
11
5.6214810236220467
21
-4.7279219291338581
0
LINE
8
BLACK
6
CONTINUOUS
10
5.6214810236220467
20
-4.7279219291338581
11
5.6217074803149609
21
-4.7277360629921255
0
LINE
8
BLACK
6
CONTINUOUS
10
5.6217074803149609
20
-4.7277360629921255
11
5.6217585433070862
21
-4.7276772047244098
0
LINE
8
BLACK
6
CONTINUOUS
10
5.6217585433070862
20
-4.7276772047244098
11
5.6218473228346459
21
-4.7276212992125979
0
LINE
8
BLACK
6
CONTINUOUS
10
5.6218473228346459
20
-4.7276212992125979
11
5.6219284645669294
21
-4.7275547244094485
0
LINE
8
BLACK
6
CONTINUOUS
10
5.6219284645669294
20
-4.7275547244094485
11
5.6220004330708662
21
-4.7275248818897637
0
LINE
8
BLACK
6
CONTINUOUS
10
5.6220004330708662
20
-4.7275248818897637
11
5.6222483858267713
21
-4.7273688188976379
0
LINE
8
BLACK
6
CONTINUOUS
10
5.6222483858267713
20
-4.7273688188976379
11
5.6259979527559052
21
-4.7254940157480316
0
LINE
8
BLACK
6
CONTINUOUS
10
5.6259979527559052
20
-4.7254940157480316
11
5.6265385433070865
21
-4.7252871259842522
0
LINE
8
BLACK
6
CONTINUOUS
10
5.6265385433070865
20
-4.7252871259842522
11
5.6266444094488186
21
-4.7252795669291334
0
LINE
8
BLACK
6
CONTINUOUS
10
5.6266444094488186
20
-4.7252795669291334
11
5.6267424015748029
21
-4.7252390157480315
0
LINE
8
BLACK
6
CONTINUOUS
10
5.6267424015748029
20
-4.7252390157480315
11
5.6273184645669287
21
-4.7251822834645667
0
LINE
8
BLACK
6
CONTINUOUS
10
5.6273184645669287
20
-4.7251822834645667
11
5.6329427559055114
21
-4.7251822834645667
0
LINE
8
BLACK
6
CONTINUOUS
10
5.6329427559055114
20
-4.7251822834645667
11
5.6335188188976373
21
-4.7252390157480315
0
LINE
8
BLACK
6
CONTINUOUS
10
5.6253179921259839
20
-4.7324365748031498
11
5.6241209055118109
21
-4.7336337007874016
0
LINE
8
BLACK
6
CONTINUOUS
10
5.6241209055118109
20
-4.7336337007874016
11
5.6227721653543306
21
-4.7363311811023623
0
LINE
8
BLACK
6
CONTINUOUS
10
5.6227721653543306
20
-4.7363311811023623
11
5.6227721653543306
21
-4.7461856692913384
0
LINE
8
BLACK
6
CONTINUOUS
10
5.6227721653543306
20
-4.7461856692913384
11
5.6241209055118109
21
-4.7488831496062991
0
LINE
8
BLACK
6
CONTINUOUS
10
5.6241209055118109
20
-4.7488831496062991
11
5.6253180314960627
21
-4.7500802755905509
0
LINE
8
BLACK
6
CONTINUOUS
10
5.6253180314960627
20
-4.7500802755905509
11
5.6280155118110233
21
-4.7514290157480312
0
LINE
8
BLACK
6
CONTINUOUS
10
5.6280155118110233
20
-4.7514290157480312
11
5.6322457086614168
21
-4.7514290157480312
0
LINE
8
BLACK
6
CONTINUOUS
10
5.6322457086614168
20
-4.7514290157480312
11
5.6349431889763775
21
-4.7500802755905509
0
LINE
8
BLACK
6
CONTINUOUS
10
5.6349431889763775
20
-4.7500802755905509
11
5.6361403149606302
21
-4.7488831496062991
0
LINE
8
BLACK
6
CONTINUOUS
10
5.6361403149606302
20
-4.7488831496062991
11
5.6374890551181105
21
-4.7461856692913384
0
LINE
8
BLACK
6
CONTINUOUS
10
5.6374890551181105
20
-4.7461856692913384
11
5.6374890551181105
21
-4.7363311811023623
0
LINE
8
BLACK
6
CONTINUOUS
10
5.6374890551181105
20
-4.7363311811023623
11
5.6361403149606302
21
-4.7336337007874016
0
LINE
8
BLACK
6
CONTINUOUS
10
5.6361403149606302
20
-4.7336337007874016
11
5.6349431496062987
21
-4.7324365354330711
0
LINE
8
BLACK
6
CONTINUOUS
10
5.6349431496062987
20
-4.7324365354330711
11
5.6322456692913381
21
-4.7310877952755908
0
LINE
8
BLACK
6
CONTINUOUS
10
5.6322456692913381
20
-4.7310877952755908
11
5.6280155511811021
21
-4.7310877952755908
0
LINE
8
BLACK
6
CONTINUOUS
10
5.6280155511811021
20
-4.7310877952755908
11
5.6253179921259839
21
-4.7324365748031498
0
LINE
8
BLACK
6
CONTINUOUS
10
5.3496188188976372
20
-4.7256799212598422
11
5.3504334645669287
21
-4.7264945669291336
0
LINE
8
BLACK
6
CONTINUOUS
10
5.3504334645669287
20
-4.7264945669291336
11
5.3508743700787402
21
-4.7275589763779529
0
LINE
8
BLACK
6
CONTINUOUS
10
5.3508743700787402
20
-4.7275589763779529
11
5.350931102362205
21
-4.7281350393700787
0
LINE
8
BLACK
6
CONTINUOUS
10
5.350931102362205
20
-4.7281350393700787
11
5.350931102362205
21
-4.7543817716535433
0
LINE
8
BLACK
6
CONTINUOUS
10
5.350931102362205
20
-4.7543817716535433
11
5.3508743700787402
21
-4.7549578346456691
0
LINE
8
BLACK
6
CONTINUOUS
10
5.3508743700787402
20
-4.7549578346456691
11
5.3504334645669287
21
-4.7560222440944884
0
LINE
8
BLACK
6
CONTINUOUS
10
5.3504334645669287
20
-4.7560222440944884
11
5.3496188188976372
21
-4.7568368897637798
0
LINE
8
BLACK
6
CONTINUOUS
10
5.3496188188976372
20
-4.7568368897637798
11
5.3485544094488189
21
-4.7572777952755905
0
LINE
8
BLACK
6
CONTINUOUS
10
5.3485544094488189
20
-4.7572777952755905
11
5.3474022834645671
21
-4.7572777952755905
0
LINE
8
BLACK
6
CONTINUOUS
10
5.3474022834645671
20
-4.7572777952755905
11
5.3463378740157479
21
-4.7568368897637798
0
LINE
8
BLACK
6
CONTINUOUS
10
5.3463378740157479
20
-4.7568368897637798
11
5.3455232283464564
21
-4.7560222440944884
0
LINE
8
BLACK
6
CONTINUOUS
10
5.3455232283464564
20
-4.7560222440944884
11
5.3450823228346458
21
-4.7549578346456691
0
LINE
8
BLACK
6
CONTINUOUS
10
5.3450823228346458
20
-4.7549578346456691
11
5.345025590551181
21
-4.7543817716535433
0
LINE
8
BLACK
6
CONTINUOUS
10
5.345025590551181
20
-4.7543817716535433
11
5.345025590551181
21
-4.7281350393700787
0
LINE
8
BLACK
6
CONTINUOUS
10
5.345025590551181
20
-4.7281350393700787
11
5.3450823228346458
21
-4.7275589763779529
0
LINE
8
BLACK
6
CONTINUOUS
10
5.3450823228346458
20
-4.7275589763779529
11
5.3455232283464564
21
-4.7264945669291336
0
LINE
8
BLACK
6
CONTINUOUS
10
5.3455232283464564
20
-4.7264945669291336
11
5.3463378740157479
21
-4.7256799212598422
0
LINE
8
BLACK
6
CONTINUOUS
10
5.3463378740157479
20
-4.7256799212598422
11
5.3474022834645671
21
-4.7252390157480315
0
LINE
8
BLACK
6
CONTINUOUS
10
5.3474022834645671
20
-4.7252390157480315
11
5.3485544094488189
21
-4.7252390157480315
0
LINE
8
BLACK
6
CONTINUOUS
10
5.3485544094488189
20
-4.7252390157480315
11
5.3496188188976372
21
-4.7256799212598422
0
LINE
8
BLACK
6
CONTINUOUS
10
5.5172833070866139
20
-4.7214894881889764
11
5.5183477165354331
21
-4.721930393700787
0
LINE
8
BLACK
6
CONTINUOUS
10
5.5183477165354331
20
-4.721930393700787
11
5.5191623622047246
21
-4.7227450393700785
0
LINE
8
BLACK
6
CONTINUOUS
10
5.5191623622047246
20
-4.7227450393700785
11
5.5196032677165352
21
-4.7238094488188977
0
LINE
8
BLACK
6
CONTINUOUS
10
5.5196032677165352
20
-4.7238094488188977
11
5.5196032677165352
21
-4.7249615748031495
0
LINE
8
BLACK
6
CONTINUOUS
10
5.5196032677165352
20
-4.7249615748031495
11
5.5191623622047246
21
-4.7260259842519687
0
LINE
8
BLACK
6
CONTINUOUS
10
5.5191623622047246
20
-4.7260259842519687
11
5.5183477165354331
21
-4.7268406299212593
0
LINE
8
BLACK
6
CONTINUOUS
10
5.5183477165354331
20
-4.7268406299212593
11
5.5172833070866139
21
-4.7272815354330708
0
LINE
8
BLACK
6
CONTINUOUS
10
5.5172833070866139
20
-4.7272815354330708
11
5.516707244094488
21
-4.7273382677165356
0
LINE
8
BLACK
6
CONTINUOUS
10
5.516707244094488
20
-4.7273382677165356
11
5.4867110236220471
21
-4.7273382677165356
0
LINE
8
BLACK
6
CONTINUOUS
10
5.4867110236220471
20
-4.7273382677165356
11
5.4861349606299212
21
-4.7272815354330708
0
LINE
8
BLACK
6
CONTINUOUS
10
5.4861349606299212
20
-4.7272815354330708
11
5.485070551181102
21
-4.7268406299212593
0
LINE
8
BLACK
6
CONTINUOUS
10
5.485070551181102
20
-4.7268406299212593
11
5.4842559055118105
21
-4.7260259842519687
0
LINE
8
BLACK
6
CONTINUOUS
10
5.4842559055118105
20
-4.7260259842519687
11
5.4838149999999999
21
-4.7249615748031495
0
LINE
8
BLACK
6
CONTINUOUS
10
5.4838149999999999
20
-4.7249615748031495
11
5.4838149999999999
21
-4.7238094488188977
0
LINE
8
BLACK
6
CONTINUOUS
10
5.4838149999999999
20
-4.7238094488188977
11
5.4842559055118105
21
-4.7227450393700785
0
LINE
8
BLACK
6
CONTINUOUS
10
5.4842559055118105
20
-4.7227450393700785
11
5.485070551181102
21
-4.721930393700787
0
LINE
8
BLACK
6
CONTINUOUS
10
5.485070551181102
20
-4.721930393700787
11
5.4861349606299212
21
-4.7214894881889764
0
LINE
8
BLACK
6
CONTINUOUS
10
5.4861349606299212
20
-4.7214894881889764
11
5.4867110236220471
21
-4.7214327559055116
0
LINE
8
BLACK
6
CONTINUOUS
10
5.4867110236220471
20
-4.7214327559055116
11
5.516707244094488
21
-4.7214327559055116
0
LINE
8
BLACK
6
CONTINUOUS
10
5.516707244094488
20
-4.7214327559055116
11
5.5172833070866139
21
-4.7214894881889764
0
LINE
8
BLACK
6
CONTINUOUS
10
5.1932198425196852
20
-4.5761124409448817
11
5.1942851968503936
21
-4.5771777952755901
0
LINE
8
BLACK
6
CONTINUOUS
10
5.1942851968503936
20
-4.5771777952755901
11
5.1944350393700782
21
-4.5779311023622045
0
LINE
8
BLACK
6
CONTINUOUS
10
5.1944350393700782
20
-4.5779311023622045
11
5.1944350393700782
21
-4.677931102362205
0
LINE
8
BLACK
6
CONTINUOUS
10
5.1944350393700782
20
-4.677931102362205
11
5.1942851968503936
21
-4.6786844094488185
0
LINE
8
BLACK
6
CONTINUOUS
10
5.1942851968503936
20
-4.6786844094488185
11
5.1932198425196852
21
-4.6797497637795278
0
LINE
8
BLACK
6
CONTINUOUS
10
5.1932198425196852
20
-4.6797497637795278
11
5.1924665354330708
21
-4.6798996062992124
0
LINE
8
BLACK
6
CONTINUOUS
10
5.1924665354330708
20
-4.6798996062992124
11
4.4174665354330704
21
-4.6798996062992124
0
LINE
8
BLACK
6
CONTINUOUS
10
4.4174665354330704
20
-4.6798996062992124
11
4.416713228346457
21
-4.6797497637795278
0
LINE
8
BLACK
6
CONTINUOUS
10
4.416713228346457
20
-4.6797497637795278
11
4.4160746062992127
21
-4.6793230708661415
0
LINE
8
BLACK
6
CONTINUOUS
10
4.4160746062992127
20
-4.6793230708661415
11
4.3910746062992123
21
-4.6543230314960633
0
LINE
8
BLACK
6
CONTINUOUS
10
4.3910746062992123
20
-4.6543230314960633
11
4.3906478740157482
21
-4.653684409448819
0
LINE
8
BLACK
6
CONTINUOUS
10
4.3906478740157482
20
-4.653684409448819
11
4.3904980314960627
21
-4.6529311023622046
0
LINE
8
BLACK
6
CONTINUOUS
10
4.3904980314960627
20
-4.6529311023622046
11
4.3904980314960627
21
-4.5779311023622045
0
LINE
8
BLACK
6
CONTINUOUS
10
4.3904980314960627
20
-4.5779311023622045
11
4.3906478740157482
21
-4.5771777952755901
0
LINE
8
BLACK
6
CONTINUOUS
10
4.3906478740157482
20
-4.5771777952755901
11
4.3917132283464566
21
-4.5761124409448817
0
LINE
8
BLACK
6
CONTINUOUS
10
4.3917132283464566
20
-4.5761124409448817
11
4.392466535433071
21
-4.575962598425197
0
LINE
8
BLACK
6
CONTINUOUS
10
4.392466535433071
20
-4.575962598425197
11
5.1924665354330708
21
-4.575962598425197
0
LINE
8
BLACK
6
CONTINUOUS
10
5.1924665354330708
20
-4.575962598425197
11
5.1932198425196852
21
-4.5761124409448817
0
LINE
8
BLACK
6
CONTINUOUS
10
4.3944350393700784
20
-4.5798996062992128
11
4.3944350393700784
21
-4.6521157086614169
0
LINE
8
BLACK
6
CONTINUOUS
10
4.3944350393700784
20
-4.6521157086614169
11
4.4182819291338582
21
-4.6759625984251967
0
LINE
8
BLACK
6
CONTINUOUS
10
4.4182819291338582
20
-4.6759625984251967
11
5.1904980314960625
21
-4.6759625984251967
0
LINE
8
BLACK
6
CONTINUOUS
10
5.1904980314960625
20
-4.6759625984251967
11
5.1904980314960625
21
-4.5798996062992128
0
LINE
8
BLACK
6
CONTINUOUS
10
5.1904980314960625
20
-4.5798996062992128
11
4.3944350393700784
21
-4.5798996062992128
0
LINE
8
BLACK
6
CONTINUOUS
10
6.7932198425196848
20
-4.5761124409448817
11
6.7942851968503932
21
-4.5771777952755901
0
LINE
8
BLACK
6
CONTINUOUS
10
6.7942851968503932
20
-4.5771777952755901
11
6.7944350393700788
21
-4.5779311023622045
0
LINE
8
BLACK
6
CONTINUOUS
10
6.7944350393700788
20
-4.5779311023622045
11
6.7944350393700788
21
-4.677931102362205
0
LINE
8
BLACK
6
CONTINUOUS
10
6.7944350393700788
20
-4.677931102362205
11
6.7942851968503932
21
-4.6786844094488185
0
LINE
8
BLACK
6
CONTINUOUS
10
6.7942851968503932
20
-4.6786844094488185
11
6.7932198425196848
21
-4.6797497637795278
0
LINE
8
BLACK
6
CONTINUOUS
10
6.7932198425196848
20
-4.6797497637795278
11
6.7924665354330704
21
-4.6798996062992124
0
LINE
8
BLACK
6
CONTINUOUS
10
6.7924665354330704
20
-4.6798996062992124
11
5.8174665354330708
21
-4.6798996062992124
0
LINE
8
BLACK
6
CONTINUOUS
10
5.8174665354330708
20
-4.6798996062992124
11
5.8167132283464564
21
-4.6797497637795278
0
LINE
8
BLACK
6
CONTINUOUS
10
5.8167132283464564
20
-4.6797497637795278
11
5.8160746062992121
21
-4.6793230708661415
0
LINE
8
BLACK
6
CONTINUOUS
10
5.8160746062992121
20
-4.6793230708661415
11
5.7910746062992127
21
-4.6543230314960633
0
LINE
8
BLACK
6
CONTINUOUS
10
5.7910746062992127
20
-4.6543230314960633
11
5.7906478740157477
21
-4.653684409448819
0
LINE
8
BLACK
6
CONTINUOUS
10
5.7906478740157477
20
-4.653684409448819
11
5.790498031496063
21
-4.6529311023622046
0
LINE
8
BLACK
6
CONTINUOUS
10
5.790498031496063
20
-4.6529311023622046
11
5.790498031496063
21
-4.5779311023622045
0
LINE
8
BLACK
6
CONTINUOUS
10
5.790498031496063
20
-4.5779311023622045
11
5.7906478740157477
21
-4.5771777952755901
0
LINE
8
BLACK
6
CONTINUOUS
10
5.7906478740157477
20
-4.5771777952755901
11
5.791713228346457
21
-4.5761124409448817
0
LINE
8
BLACK
6
CONTINUOUS
10
5.791713228346457
20
-4.5761124409448817
11
5.7924665354330704
21
-4.575962598425197
0
LINE
8
BLACK
6
CONTINUOUS
10
5.7924665354330704
20
-4.575962598425197
11
6.7924665354330704
21
-4.575962598425197
0
LINE
8
BLACK
6
CONTINUOUS
10
6.7924665354330704
20
-4.575962598425197
11
6.7932198425196848
21
-4.5761124409448817
0
LINE
8
BLACK
6
CONTINUOUS
10
5.7944350393700788
20
-4.5798996062992128
11
5.7944350393700788
21
-4.6521157086614169
0
LINE
8
BLACK
6
CONTINUOUS
10
5.7944350393700788
20
-4.6521157086614169
11
5.8182819291338586
21
-4.6759625984251967
0
LINE
8
BLACK
6
CONTINUOUS
10
5.8182819291338586
20
-4.6759625984251967
11
6.790498031496063
21
-4.6759625984251967
0
LINE
8
BLACK
6
CONTINUOUS
10
6.790498031496063
20
-4.6759625984251967
11
6.790498031496063
21
-4.5798996062992128
0
LINE
8
BLACK
6
CONTINUOUS
10
6.790498031496063
20
-4.5798996062992128
11
5.7944350393700788
21
-4.5798996062992128
0
CIRCLE
8
BLACK
10
4.4424665354330708
20
-4.6279311023622043
40
0.0068897637795276
0
CIRCLE
8
BLACK
10
4.5424665354330704
20
-4.6279311023622043
40
0.0068897637795276
0
CIRCLE
8
BLACK
10
4.6424664960629922
20
-4.6279311023622043
40
0.0068897637795276
0
CIRCLE
8
BLACK
10
4.7424665354330706
20
-4.6279311023622043
40
0.0068897637795276
0
CIRCLE
8
BLACK
10
4.8424665354330712
20
-4.6279311023622043
40
0.0068897637795276
0
CIRCLE
8
BLACK
10
4.9424665354330708
20
-4.6279311023622043
40
0.0068897637795276
0
CIRCLE
8
BLACK
10
5.0424665354330704
20
-4.6279311023622043
40
0.0068897637795276
0
CIRCLE
8
BLACK
10
5.1424665748031497
20
-4.6279311023622043
40
0.0068897637795276
0
CIRCLE
8
BLACK
10
5.8424665354330712
20
-4.6279311023622043
40
0.0068897637795276
0
CIRCLE
8
BLACK
10
5.942466496062992
20
-4.6279311023622043
40
0.0068897637795276
0
CIRCLE
8
BLACK
10
6.0424665748031492
20
-4.6279311023622043
40
0.0068897637795276
0
CIRCLE
8
BLACK
10
6.142466535433071
20
-4.6279311023622043
40
0.0068897637795276
0
CIRCLE
8
BLACK
10
6.2424665354330706
20
-4.6279311023622043
40
0.0068897637795276
0
CIRCLE
8
BLACK
10
6.3424665354330712
20
-4.6279311023622043
40
0.0068897637795276
0
CIRCLE
8
BLACK
10
6.442466496062992
20
-4.6279311023622043
40
0.0068897637795276
0
CIRCLE
8
BLACK
10
6.5424665354330704
20
-4.6279311023622043
40
0.0068897637795276
0
CIRCLE
8
BLACK
10
6.642466535433071
20
-4.6279311023622043
40
0.0068897637795276
0
CIRCLE
8
BLACK
10
6.7424665354330706
20
-4.6279311023622043
40
0.0068897637795276
0
CIRCLE
8
BLACK
10
4.4424665354330708
20
-4.6279311023622043
40
0.0068897637795276
0
CIRCLE
8
BLACK
10
4.5424665354330704
20
-4.6279311023622043
40
0.0068897637795276
0
CIRCLE
8
BLACK
10
4.6424664960629922
20
-4.6279311023622043
40
0.0068897637795276
0
CIRCLE
8
BLACK
10
4.7424665354330706
20
-4.6279311023622043
40
0.0068897637795276
0
CIRCLE
8
BLACK
10
4.8424665354330712
20
-4.6279311023622043
40
0.0068897637795276
0
CIRCLE
8
BLACK
10
4.9424665354330708
20
-4.6279311023622043
40
0.0068897637795276
0
CIRCLE
8
BLACK
10
5.0424665354330704
20
-4.6279311023622043
40
0.0068897637795276
0
CIRCLE
8
BLACK
10
5.1424665748031497
20
-4.6279311023622043
40
0.0068897637795276
0
CIRCLE
8
BLACK
10
5.8424665354330712
20
-4.6279311023622043
40
0.0068897637795276
0
CIRCLE
8
BLACK
10
5.942466496062992
20
-4.6279311023622043
40
0.0068897637795276
0
CIRCLE
8
BLACK
10
6.0424665748031492
20
-4.6279311023622043
40
0.0068897637795276
0
CIRCLE
8
BLACK
10
6.142466535433071
20
-4.6279311023622043
40
0.0068897637795276
0
CIRCLE
8
BLACK
10
6.2424665354330706
20
-4.6279311023622043
40
0.0068897637795276
0
CIRCLE
8
BLACK
10
6.3424665354330712
20
-4.6279311023622043
40
0.0068897637795276
0
CIRCLE
8
BLACK
10
6.442466496062992
20
-4.6279311023622043
40
0.0068897637795276
0
CIRCLE
8
BLACK
10
6.5424665354330704
20
-4.6279311023622043
40
0.0068897637795276
0
CIRCLE
8
BLACK
10
6.642466535433071
20
-4.6279311023622043
40
0.0068897637795276
0
CIRCLE
8
BLACK
10
6.7424665354330706
20
-4.6279311023622043
40
0.0068897637795276
  0
ENDSEC
  0
EOF
