  0
SECTION
  2
HEADER
  9
$ANGBASE
  50
0.0
  9
$ANGDIR
  70
1
  9
$MEASUREMENT
  70
0
  0
ENDSEC
  0
SECTION
  2
TABLES
  0
TABLE
  2
LTYPE
  70
4
  0
LTYPE
  5
40F
  2
CONTINUOUS
  70
0
  3
Solid line
  72
65
  73
0
  40
0.0
  0
LTYPE
  5
410
  2
DASHDOT
 70
0
  3
Dash Dot ____ _ ____ _
 72
65
 73
4
 40
2.0
 49
1.25
 49
-0.25
 49
0.25
 49
-0.25
  0
LTYPE
  5
411
  2
DASHED
 70
0
  3
Dashed __ __ __ __ __
 72
65
 73
2
 40
0.75
 49
0.5
 49
-0.25
  0
LTYPE
  5
43B
  2
DOTTED
 70
0
  3
Dotted .  .  .  .
 72
65
 73
2
 40
0.2
 49
0.0
 49
-0.2
  0
ENDTAB
  0
TABLE
  2
STYLE
  70
4
  0
STYLE
  2
KICAD
  70
0
  40
0
  41
1
  42
1
  50
0
  71
0
  3
isocp.shx
  0
STYLE
  2
KICADB
  70
0
  40
0
  41
1
  42
1
  50
0
  71
0
  3
isocp.shx
  0
STYLE
  2
KICADI
  70
0
  40
0
  41
1
  42
1
  50
15
  71
0
  3
isocp.shx
  0
STYLE
  2
KICADBI
  70
0
  40
0
  41
1
  42
1
  50
15
  71
0
  3
isocp.shx
  0
ENDTAB
  0
TABLE
  2
LAYER
  70
1
  0
LAYER
  2
BLACK
  70
0
  62
7
  6
CONTINUOUS
  0
ENDTAB
  0
ENDSEC
  0
SECTION
  2
ENTITIES
0
LINE
8
BLACK
6
CONTINUOUS
10
6.0885557874015745
20
-4.2331064173228343
11
6.0890884645669292
21
-4.233639094488189
0
LINE
8
BLACK
6
CONTINUOUS
10
6.0890884645669292
20
-4.233639094488189
11
6.0891633858267715
21
-4.2340157480314957
0
LINE
8
BLACK
6
CONTINUOUS
10
6.0891633858267715
20
-4.2340157480314957
11
6.0891633858267715
21
-4.2428740157480318
0
LINE
8
BLACK
6
CONTINUOUS
10
6.0891633858267715
20
-4.2428740157480318
11
6.3997933070866138
21
-4.2428740157480318
0
LINE
8
BLACK
6
CONTINUOUS
10
6.3997933070866138
20
-4.2428740157480318
11
6.3997933070866138
21
-4.2340157480314957
0
LINE
8
BLACK
6
CONTINUOUS
10
6.3997933070866138
20
-4.2340157480314957
11
6.399868228346457
21
-4.233639094488189
0
LINE
8
BLACK
6
CONTINUOUS
10
6.399868228346457
20
-4.233639094488189
11
6.4004009055118107
21
-4.2331064173228343
0
LINE
8
BLACK
6
CONTINUOUS
10
6.4004009055118107
20
-4.2331064173228343
11
6.4007775590551184
21
-4.233031496062992
0
LINE
8
BLACK
6
CONTINUOUS
10
6.4007775590551184
20
-4.233031496062992
11
6.4799114173228345
21
-4.233031496062992
0
LINE
8
BLACK
6
CONTINUOUS
10
6.4799114173228345
20
-4.233031496062992
11
6.4802880708661412
21
-4.2331064173228343
0
LINE
8
BLACK
6
CONTINUOUS
10
6.4802880708661412
20
-4.2331064173228343
11
6.4808207480314959
21
-4.233639094488189
0
LINE
8
BLACK
6
CONTINUOUS
10
6.4808207480314959
20
-4.233639094488189
11
6.4808956692913382
21
-4.2340157480314957
0
LINE
8
BLACK
6
CONTINUOUS
10
6.4808956692913382
20
-4.2340157480314957
11
6.4808956692913382
21
-4.379685039370079
0
LINE
8
BLACK
6
CONTINUOUS
10
6.4808956692913382
20
-4.379685039370079
11
6.4808207480314959
21
-4.3800616929133858
0
LINE
8
BLACK
6
CONTINUOUS
10
6.4808207480314959
20
-4.3800616929133858
11
6.4802880708661412
21
-4.3805943700787404
0
LINE
8
BLACK
6
CONTINUOUS
10
6.4802880708661412
20
-4.3805943700787404
11
6.4799114173228345
21
-4.3806692913385827
0
LINE
8
BLACK
6
CONTINUOUS
10
6.4799114173228345
20
-4.3806692913385827
11
6.4769586220472437
21
-4.3806692913385827
0
LINE
8
BLACK
6
CONTINUOUS
10
6.4769586220472437
20
-4.3806692913385827
11
6.4769586614173225
21
-4.4426771653543309
0
LINE
8
BLACK
6
CONTINUOUS
10
6.4769586614173225
20
-4.4426771653543309
11
6.4768837401574801
21
-4.4430538188976376
0
LINE
8
BLACK
6
CONTINUOUS
10
6.4768837401574801
20
-4.4430538188976376
11
6.4763510629921255
21
-4.4435864960629923
0
LINE
8
BLACK
6
CONTINUOUS
10
6.4763510629921255
20
-4.4435864960629923
11
6.4759744094488187
21
-4.4436614173228346
0
LINE
8
BLACK
6
CONTINUOUS
10
6.4759744094488187
20
-4.4436614173228346
11
6.400187007874016
21
-4.4436614173228346
0
LINE
8
BLACK
6
CONTINUOUS
10
6.400187007874016
20
-4.4436614173228346
11
6.400187007874016
21
-4.485984251968504
0
LINE
8
BLACK
6
CONTINUOUS
10
6.400187007874016
20
-4.485984251968504
11
6.4001120866141727
21
-4.4863609055118108
0
LINE
8
BLACK
6
CONTINUOUS
10
6.4001120866141727
20
-4.4863609055118108
11
6.399579409448819
21
-4.4868935826771654
0
LINE
8
BLACK
6
CONTINUOUS
10
6.399579409448819
20
-4.4868935826771654
11
6.3992027559055114
21
-4.4869685039370077
0
LINE
8
BLACK
6
CONTINUOUS
10
6.3992027559055114
20
-4.4869685039370077
11
6.0897539370078739
21
-4.4869685039370077
0
LINE
8
BLACK
6
CONTINUOUS
10
6.0897539370078739
20
-4.4869685039370077
11
6.0893772834645672
21
-4.4868935826771654
0
LINE
8
BLACK
6
CONTINUOUS
10
6.0893772834645672
20
-4.4868935826771654
11
6.0888446062992125
21
-4.4863609055118108
0
LINE
8
BLACK
6
CONTINUOUS
10
6.0888446062992125
20
-4.4863609055118108
11
6.0887696850393702
21
-4.485984251968504
0
LINE
8
BLACK
6
CONTINUOUS
10
6.0887696850393702
20
-4.485984251968504
11
6.0887696850393702
21
-4.4436614173228346
0
LINE
8
BLACK
6
CONTINUOUS
10
6.0887696850393702
20
-4.4436614173228346
11
6.0129822834645665
21
-4.4436614173228346
0
LINE
8
BLACK
6
CONTINUOUS
10
6.0129822834645665
20
-4.4436614173228346
11
6.0126056299212598
21
-4.4435864960629923
0
LINE
8
BLACK
6
CONTINUOUS
10
6.0126056299212598
20
-4.4435864960629923
11
6.0120729527559051
21
-4.4430538188976376
0
LINE
8
BLACK
6
CONTINUOUS
10
6.0120729527559051
20
-4.4430538188976376
11
6.0119980314960628
21
-4.4426771653543309
0
LINE
8
BLACK
6
CONTINUOUS
10
6.0119980314960628
20
-4.4426771653543309
11
6.0119980708661416
21
-4.3806692913385827
0
LINE
8
BLACK
6
CONTINUOUS
10
6.0119980708661416
20
-4.3806692913385827
11
6.0090452755905508
21
-4.3806692913385827
0
LINE
8
BLACK
6
CONTINUOUS
10
6.0090452755905508
20
-4.3806692913385827
11
6.0086686220472441
21
-4.3805943700787404
0
LINE
8
BLACK
6
CONTINUOUS
10
6.0086686220472441
20
-4.3805943700787404
11
6.0081359448818894
21
-4.3800616929133858
0
LINE
8
BLACK
6
CONTINUOUS
10
6.0081359448818894
20
-4.3800616929133858
11
6.0080610236220471
21
-4.379685039370079
0
LINE
8
BLACK
6
CONTINUOUS
10
6.0080610236220471
20
-4.379685039370079
11
6.0080610236220471
21
-4.2340157480314957
0
LINE
8
BLACK
6
CONTINUOUS
10
6.0080610236220471
20
-4.2340157480314957
11
6.0081359448818894
21
-4.233639094488189
0
LINE
8
BLACK
6
CONTINUOUS
10
6.0081359448818894
20
-4.233639094488189
11
6.0086686220472441
21
-4.2331064173228343
0
LINE
8
BLACK
6
CONTINUOUS
10
6.0086686220472441
20
-4.2331064173228343
11
6.0090452755905508
21
-4.233031496062992
0
LINE
8
BLACK
6
CONTINUOUS
10
6.0090452755905508
20
-4.233031496062992
11
6.0881791338582678
21
-4.233031496062992
0
LINE
8
BLACK
6
CONTINUOUS
10
6.0881791338582678
20
-4.233031496062992
11
6.0885557874015745
21
-4.2331064173228343
0
LINE
8
BLACK
6
CONTINUOUS
10
6.0100295275590554
20
-4.2350000000000003
11
6.0100295275590554
21
-4.3787007874015744
0
LINE
8
BLACK
6
CONTINUOUS
10
6.0100295275590554
20
-4.3787007874015744
11
6.0129823228346453
21
-4.3787007874015744
0
LINE
8
BLACK
6
CONTINUOUS
10
6.0129823228346453
20
-4.3787007874015744
11
6.0133589763779529
21
-4.3787757086614176
0
LINE
8
BLACK
6
CONTINUOUS
10
6.0133589763779529
20
-4.3787757086614176
11
6.0138916535433067
21
-4.3793083858267714
0
LINE
8
BLACK
6
CONTINUOUS
10
6.0138916535433067
20
-4.3793083858267714
11
6.0139665748031499
21
-4.379685039370079
0
LINE
8
BLACK
6
CONTINUOUS
10
6.0139665748031499
20
-4.379685039370079
11
6.0139665354330711
21
-4.4416929133858263
0
LINE
8
BLACK
6
CONTINUOUS
10
6.0139665354330711
20
-4.4416929133858263
11
6.0897539370078739
21
-4.4416929133858263
0
LINE
8
BLACK
6
CONTINUOUS
10
6.0897539370078739
20
-4.4416929133858263
11
6.0901305905511807
21
-4.4417678346456695
0
LINE
8
BLACK
6
CONTINUOUS
10
6.0901305905511807
20
-4.4417678346456695
11
6.0906632677165353
21
-4.4423005118110233
0
LINE
8
BLACK
6
CONTINUOUS
10
6.0906632677165353
20
-4.4423005118110233
11
6.0907381889763776
21
-4.4426771653543309
0
LINE
8
BLACK
6
CONTINUOUS
10
6.0907381889763776
20
-4.4426771653543309
11
6.0907381889763776
21
-4.4850000000000003
0
LINE
8
BLACK
6
CONTINUOUS
10
6.0907381889763776
20
-4.4850000000000003
11
6.3982185039370076
21
-4.4850000000000003
0
LINE
8
BLACK
6
CONTINUOUS
10
6.3982185039370076
20
-4.4850000000000003
11
6.3982185039370076
21
-4.4426771653543309
0
LINE
8
BLACK
6
CONTINUOUS
10
6.3982185039370076
20
-4.4426771653543309
11
6.39829342519685
21
-4.4423005118110233
0
LINE
8
BLACK
6
CONTINUOUS
10
6.39829342519685
20
-4.4423005118110233
11
6.3988261023622046
21
-4.4417678346456695
0
LINE
8
BLACK
6
CONTINUOUS
10
6.3988261023622046
20
-4.4417678346456695
11
6.3992027559055114
21
-4.4416929133858263
0
LINE
8
BLACK
6
CONTINUOUS
10
6.3992027559055114
20
-4.4416929133858263
11
6.474990157480315
21
-4.4416929133858263
0
LINE
8
BLACK
6
CONTINUOUS
10
6.474990157480315
20
-4.4416929133858263
11
6.4749901181102363
21
-4.379685039370079
0
LINE
8
BLACK
6
CONTINUOUS
10
6.4749901181102363
20
-4.379685039370079
11
6.4750650393700786
21
-4.3793083858267714
0
LINE
8
BLACK
6
CONTINUOUS
10
6.4750650393700786
20
-4.3793083858267714
11
6.4755977165354333
21
-4.3787757086614176
0
LINE
8
BLACK
6
CONTINUOUS
10
6.4755977165354333
20
-4.3787757086614176
11
6.47597437007874
21
-4.3787007874015744
0
LINE
8
BLACK
6
CONTINUOUS
10
6.47597437007874
20
-4.3787007874015744
11
6.4789271653543308
21
-4.3787007874015744
0
LINE
8
BLACK
6
CONTINUOUS
10
6.4789271653543308
20
-4.3787007874015744
11
6.4789271653543308
21
-4.2350000000000003
0
LINE
8
BLACK
6
CONTINUOUS
10
6.4789271653543308
20
-4.2350000000000003
11
6.4017618110236221
21
-4.2350000000000003
0
LINE
8
BLACK
6
CONTINUOUS
10
6.4017618110236221
20
-4.2350000000000003
11
6.4017618110236221
21
-4.2438582677165355
0
LINE
8
BLACK
6
CONTINUOUS
10
6.4017618110236221
20
-4.2438582677165355
11
6.4016868897637798
21
-4.2442349212598423
0
LINE
8
BLACK
6
CONTINUOUS
10
6.4016868897637798
20
-4.2442349212598423
11
6.4011542125984251
21
-4.2447675984251969
0
LINE
8
BLACK
6
CONTINUOUS
10
6.4011542125984251
20
-4.2447675984251969
11
6.4007775590551184
21
-4.2448425196850392
0
LINE
8
BLACK
6
CONTINUOUS
10
6.4007775590551184
20
-4.2448425196850392
11
6.0881791338582678
21
-4.2448425196850392
0
LINE
8
BLACK
6
CONTINUOUS
10
6.0881791338582678
20
-4.2448425196850392
11
6.0878024803149602
21
-4.2447675984251969
0
LINE
8
BLACK
6
CONTINUOUS
10
6.0878024803149602
20
-4.2447675984251969
11
6.0872698031496064
21
-4.2442349212598423
0
LINE
8
BLACK
6
CONTINUOUS
10
6.0872698031496064
20
-4.2442349212598423
11
6.0871948818897632
21
-4.2438582677165355
0
LINE
8
BLACK
6
CONTINUOUS
10
6.0871948818897632
20
-4.2438582677165355
11
6.0871948818897632
21
-4.2350000000000003
0
LINE
8
BLACK
6
CONTINUOUS
10
6.0871948818897632
20
-4.2350000000000003
11
6.0100295275590554
21
-4.2350000000000003
0
LINE
8
BLACK
6
CONTINUOUS
10
5.0702683858267719
20
-4.230271771653543
11
5.0708010629921256
21
-4.2308044488188976
0
LINE
8
BLACK
6
CONTINUOUS
10
5.0708010629921256
20
-4.2308044488188976
11
5.0708759842519679
21
-4.2311811023622043
0
LINE
8
BLACK
6
CONTINUOUS
10
5.0708759842519679
20
-4.2311811023622043
11
5.0708759842519679
21
-4.2400393700787404
0
LINE
8
BLACK
6
CONTINUOUS
10
5.0708759842519679
20
-4.2400393700787404
11
5.3815059055118111
21
-4.2400393700787404
0
LINE
8
BLACK
6
CONTINUOUS
10
5.3815059055118111
20
-4.2400393700787404
11
5.3815059055118111
21
-4.2311811023622043
0
LINE
8
BLACK
6
CONTINUOUS
10
5.3815059055118111
20
-4.2311811023622043
11
5.3815808267716534
21
-4.2308044488188976
0
LINE
8
BLACK
6
CONTINUOUS
10
5.3815808267716534
20
-4.2308044488188976
11
5.382113503937008
21
-4.230271771653543
0
LINE
8
BLACK
6
CONTINUOUS
10
5.382113503937008
20
-4.230271771653543
11
5.3824901574803148
21
-4.2301968503937006
0
LINE
8
BLACK
6
CONTINUOUS
10
5.3824901574803148
20
-4.2301968503937006
11
5.4616240157480318
21
-4.2301968503937006
0
LINE
8
BLACK
6
CONTINUOUS
10
5.4616240157480318
20
-4.2301968503937006
11
5.4620006692913385
21
-4.230271771653543
0
LINE
8
BLACK
6
CONTINUOUS
10
5.4620006692913385
20
-4.230271771653543
11
5.4625333464566932
21
-4.2308044488188976
0
LINE
8
BLACK
6
CONTINUOUS
10
5.4625333464566932
20
-4.2308044488188976
11
5.4626082677165355
21
-4.2311811023622043
0
LINE
8
BLACK
6
CONTINUOUS
10
5.4626082677165355
20
-4.2311811023622043
11
5.4626082677165355
21
-4.3768503937007877
0
LINE
8
BLACK
6
CONTINUOUS
10
5.4626082677165355
20
-4.3768503937007877
11
5.4625333464566932
21
-4.3772270078740156
0
LINE
8
BLACK
6
CONTINUOUS
10
5.4625333464566932
20
-4.3772270078740156
11
5.4625333464566932
21
-4.3772270472440944
0
LINE
8
BLACK
6
CONTINUOUS
10
5.4625333464566932
20
-4.3772270472440944
11
5.4620006692913385
21
-4.377759724409449
0
LINE
8
BLACK
6
CONTINUOUS
10
5.4620006692913385
20
-4.377759724409449
11
5.4616240157480318
21
-4.3778346456692914
0
LINE
8
BLACK
6
CONTINUOUS
10
5.4616240157480318
20
-4.3778346456692914
11
5.458671220472441
21
-4.3778346456692914
0
LINE
8
BLACK
6
CONTINUOUS
10
5.458671220472441
20
-4.3778346456692914
11
5.4586712598425198
21
-4.4398425196850395
0
LINE
8
BLACK
6
CONTINUOUS
10
5.4586712598425198
20
-4.4398425196850395
11
5.4585963385826775
21
-4.4402191732283462
0
LINE
8
BLACK
6
CONTINUOUS
10
5.4585963385826775
20
-4.4402191732283462
11
5.4580636614173228
21
-4.4407518503937009
0
LINE
8
BLACK
6
CONTINUOUS
10
5.4580636614173228
20
-4.4407518503937009
11
5.4576870078740161
21
-4.4408267716535432
0
LINE
8
BLACK
6
CONTINUOUS
10
5.4576870078740161
20
-4.4408267716535432
11
5.3818996062992124
21
-4.4408267716535432
0
LINE
8
BLACK
6
CONTINUOUS
10
5.3818996062992124
20
-4.4408267716535432
11
5.3818996062992124
21
-4.4831496062992127
0
LINE
8
BLACK
6
CONTINUOUS
10
5.3818996062992124
20
-4.4831496062992127
11
5.3818246850393701
21
-4.4835262598425194
0
LINE
8
BLACK
6
CONTINUOUS
10
5.3818246850393701
20
-4.4835262598425194
11
5.3812920078740154
21
-4.4840589370078741
0
LINE
8
BLACK
6
CONTINUOUS
10
5.3812920078740154
20
-4.4840589370078741
11
5.3809153543307087
21
-4.4841338582677164
0
LINE
8
BLACK
6
CONTINUOUS
10
5.3809153543307087
20
-4.4841338582677164
11
5.0714665354330704
21
-4.4841338582677164
0
LINE
8
BLACK
6
CONTINUOUS
10
5.0714665354330704
20
-4.4841338582677164
11
5.0710898818897636
21
-4.4840589370078741
0
LINE
8
BLACK
6
CONTINUOUS
10
5.0710898818897636
20
-4.4840589370078741
11
5.070557204724409
21
-4.4835262598425194
0
LINE
8
BLACK
6
CONTINUOUS
10
5.070557204724409
20
-4.4835262598425194
11
5.0704822834645666
21
-4.4831496062992127
0
LINE
8
BLACK
6
CONTINUOUS
10
5.0704822834645666
20
-4.4831496062992127
11
5.0704822834645666
21
-4.4408267716535432
0
LINE
8
BLACK
6
CONTINUOUS
10
5.0704822834645666
20
-4.4408267716535432
11
4.9946948818897638
21
-4.4408267716535432
0
LINE
8
BLACK
6
CONTINUOUS
10
4.9946948818897638
20
-4.4408267716535432
11
4.9943182283464562
21
-4.4407518503937009
0
LINE
8
BLACK
6
CONTINUOUS
10
4.9943182283464562
20
-4.4407518503937009
11
4.9937855511811025
21
-4.4402191732283462
0
LINE
8
BLACK
6
CONTINUOUS
10
4.9937855511811025
20
-4.4402191732283462
11
4.9937106299212601
21
-4.4398425196850395
0
LINE
8
BLACK
6
CONTINUOUS
10
4.9937106299212601
20
-4.4398425196850395
11
4.9937106692913389
21
-4.3778346456692914
0
LINE
8
BLACK
6
CONTINUOUS
10
4.9937106692913389
20
-4.3778346456692914
11
4.9907578740157481
21
-4.3778346456692914
0
LINE
8
BLACK
6
CONTINUOUS
10
4.9907578740157481
20
-4.3778346456692914
11
4.9903812204724405
21
-4.377759724409449
0
LINE
8
BLACK
6
CONTINUOUS
10
4.9903812204724405
20
-4.377759724409449
11
4.9898485433070867
21
-4.3772270472440944
0
LINE
8
BLACK
6
CONTINUOUS
10
4.9898485433070867
20
-4.3772270472440944
11
4.9898485433070867
21
-4.3772270078740156
0
LINE
8
BLACK
6
CONTINUOUS
10
4.9898485433070867
20
-4.3772270078740156
11
4.9897736220472444
21
-4.3768503937007877
0
LINE
8
BLACK
6
CONTINUOUS
10
4.9897736220472444
20
-4.3768503937007877
11
4.9897736220472444
21
-4.2311811023622043
0
LINE
8
BLACK
6
CONTINUOUS
10
4.9897736220472444
20
-4.2311811023622043
11
4.9898485433070867
21
-4.2308044488188976
0
LINE
8
BLACK
6
CONTINUOUS
10
4.9898485433070867
20
-4.2308044488188976
11
4.9903812204724405
21
-4.230271771653543
0
LINE
8
BLACK
6
CONTINUOUS
10
4.9903812204724405
20
-4.230271771653543
11
4.9907578740157481
21
-4.2301968503937006
0
LINE
8
BLACK
6
CONTINUOUS
10
4.9907578740157481
20
-4.2301968503937006
11
5.0698917322834642
21
-4.2301968503937006
0
LINE
8
BLACK
6
CONTINUOUS
10
5.0698917322834642
20
-4.2301968503937006
11
5.0702683858267719
21
-4.230271771653543
0
LINE
8
BLACK
6
CONTINUOUS
10
4.9917421259842518
20
-4.232165354330709
11
4.9917421259842518
21
-4.3758661417322831
0
LINE
8
BLACK
6
CONTINUOUS
10
4.9917421259842518
20
-4.3758661417322831
11
4.9946949212598426
21
-4.3758661417322831
0
LINE
8
BLACK
6
CONTINUOUS
10
4.9946949212598426
20
-4.3758661417322831
11
4.9950715748031493
21
-4.3759410629921263
0
LINE
8
BLACK
6
CONTINUOUS
10
4.9950715748031493
20
-4.3759410629921263
11
4.995604251968504
21
-4.37647374015748
0
LINE
8
BLACK
6
CONTINUOUS
10
4.995604251968504
20
-4.37647374015748
11
4.9956791732283463
21
-4.3768503937007877
0
LINE
8
BLACK
6
CONTINUOUS
10
4.9956791732283463
20
-4.3768503937007877
11
4.9956791338582676
21
-4.4388582677165349
0
LINE
8
BLACK
6
CONTINUOUS
10
4.9956791338582676
20
-4.4388582677165349
11
5.0714665354330704
21
-4.4388582677165349
0
LINE
8
BLACK
6
CONTINUOUS
10
5.0714665354330704
20
-4.4388582677165349
11
5.071843188976378
21
-4.4389331889763781
0
LINE
8
BLACK
6
CONTINUOUS
10
5.071843188976378
20
-4.4389331889763781
11
5.0723758661417317
21
-4.4394658661417319
0
LINE
8
BLACK
6
CONTINUOUS
10
5.0723758661417317
20
-4.4394658661417319
11
5.072450787401575
21
-4.4398425196850395
0
LINE
8
BLACK
6
CONTINUOUS
10
5.072450787401575
20
-4.4398425196850395
11
5.072450787401575
21
-4.482165354330709
0
LINE
8
BLACK
6
CONTINUOUS
10
5.072450787401575
20
-4.482165354330709
11
5.379931102362205
21
-4.482165354330709
0
LINE
8
BLACK
6
CONTINUOUS
10
5.379931102362205
20
-4.482165354330709
11
5.379931102362205
21
-4.4398425196850395
0
LINE
8
BLACK
6
CONTINUOUS
10
5.379931102362205
20
-4.4398425196850395
11
5.3800060236220473
21
-4.4394658661417319
0
LINE
8
BLACK
6
CONTINUOUS
10
5.3800060236220473
20
-4.4394658661417319
11
5.380538700787401
21
-4.4389331889763781
0
LINE
8
BLACK
6
CONTINUOUS
10
5.380538700787401
20
-4.4389331889763781
11
5.3809153543307087
21
-4.4388582677165349
0
LINE
8
BLACK
6
CONTINUOUS
10
5.3809153543307087
20
-4.4388582677165349
11
5.4567027559055115
21
-4.4388582677165349
0
LINE
8
BLACK
6
CONTINUOUS
10
5.4567027559055115
20
-4.4388582677165349
11
5.4567027165354327
21
-4.3768503937007877
0
LINE
8
BLACK
6
CONTINUOUS
10
5.4567027165354327
20
-4.3768503937007877
11
5.456777637795275
21
-4.37647374015748
0
LINE
8
BLACK
6
CONTINUOUS
10
5.456777637795275
20
-4.37647374015748
11
5.4573103149606297
21
-4.3759410629921263
0
LINE
8
BLACK
6
CONTINUOUS
10
5.4573103149606297
20
-4.3759410629921263
11
5.4576869685039373
21
-4.3758661417322831
0
LINE
8
BLACK
6
CONTINUOUS
10
5.4576869685039373
20
-4.3758661417322831
11
5.4606397637795272
21
-4.3758661417322831
0
LINE
8
BLACK
6
CONTINUOUS
10
5.4606397637795272
20
-4.3758661417322831
11
5.4606397637795272
21
-4.232165354330709
0
LINE
8
BLACK
6
CONTINUOUS
10
5.4606397637795272
20
-4.232165354330709
11
5.3834744094488185
21
-4.232165354330709
0
LINE
8
BLACK
6
CONTINUOUS
10
5.3834744094488185
20
-4.232165354330709
11
5.3834744094488185
21
-4.2410236220472441
0
LINE
8
BLACK
6
CONTINUOUS
10
5.3834744094488185
20
-4.2410236220472441
11
5.3833994881889762
21
-4.2414002755905509
0
LINE
8
BLACK
6
CONTINUOUS
10
5.3833994881889762
20
-4.2414002755905509
11
5.3828668110236215
21
-4.2419329527559055
0
LINE
8
BLACK
6
CONTINUOUS
10
5.3828668110236215
20
-4.2419329527559055
11
5.3824901574803148
21
-4.2420078740157479
0
LINE
8
BLACK
6
CONTINUOUS
10
5.3824901574803148
20
-4.2420078740157479
11
5.0698917322834642
21
-4.2420078740157479
0
LINE
8
BLACK
6
CONTINUOUS
10
5.0698917322834642
20
-4.2420078740157479
11
5.0695150787401575
21
-4.2419329527559055
0
LINE
8
BLACK
6
CONTINUOUS
10
5.0695150787401575
20
-4.2419329527559055
11
5.0689824015748028
21
-4.2414002755905509
0
LINE
8
BLACK
6
CONTINUOUS
10
5.0689824015748028
20
-4.2414002755905509
11
5.0689074803149605
21
-4.2410236220472441
0
LINE
8
BLACK
6
CONTINUOUS
10
5.0689074803149605
20
-4.2410236220472441
11
5.0689074803149605
21
-4.232165354330709
0
LINE
8
BLACK
6
CONTINUOUS
10
5.0689074803149605
20
-4.232165354330709
11
4.9917421259842518
21
-4.232165354330709
0
LINE
8
BLACK
6
CONTINUOUS
10
5.5546089370078739
20
-4.230271771653543
11
5.5551416141732286
21
-4.2308044488188976
0
LINE
8
BLACK
6
CONTINUOUS
10
5.5551416141732286
20
-4.2308044488188976
11
5.5552165354330709
21
-4.2311811023622043
0
LINE
8
BLACK
6
CONTINUOUS
10
5.5552165354330709
20
-4.2311811023622043
11
5.5552165354330709
21
-4.2400393700787404
0
LINE
8
BLACK
6
CONTINUOUS
10
5.5552165354330709
20
-4.2400393700787404
11
5.9154527559055117
21
-4.2400393700787404
0
LINE
8
BLACK
6
CONTINUOUS
10
5.9154527559055117
20
-4.2400393700787404
11
5.9154527559055117
21
-4.2311811023622043
0
LINE
8
BLACK
6
CONTINUOUS
10
5.9154527559055117
20
-4.2311811023622043
11
5.915527677165354
21
-4.2308044488188976
0
LINE
8
BLACK
6
CONTINUOUS
10
5.915527677165354
20
-4.2308044488188976
11
5.9160603543307086
21
-4.230271771653543
0
LINE
8
BLACK
6
CONTINUOUS
10
5.9160603543307086
20
-4.230271771653543
11
5.9164370078740154
21
-4.2301968503937006
0
LINE
8
BLACK
6
CONTINUOUS
10
5.9164370078740154
20
-4.2301968503937006
11
5.9951771653543302
21
-4.2301968503937006
0
LINE
8
BLACK
6
CONTINUOUS
10
5.9951771653543302
20
-4.2301968503937006
11
5.9955538188976378
21
-4.230271771653543
0
LINE
8
BLACK
6
CONTINUOUS
10
5.9955538188976378
20
-4.230271771653543
11
5.9960864960629916
21
-4.2308044488188976
0
LINE
8
BLACK
6
CONTINUOUS
10
5.9960864960629916
20
-4.2308044488188976
11
5.9961614173228348
21
-4.2311811023622043
0
LINE
8
BLACK
6
CONTINUOUS
10
5.9961614173228348
20
-4.2311811023622043
11
5.9961614173228348
21
-4.3768503937007877
0
LINE
8
BLACK
6
CONTINUOUS
10
5.9961614173228348
20
-4.3768503937007877
11
5.9960864960629916
21
-4.3772270078740156
0
LINE
8
BLACK
6
CONTINUOUS
10
5.9960864960629916
20
-4.3772270078740156
11
5.9960864960629916
21
-4.3772270472440944
0
LINE
8
BLACK
6
CONTINUOUS
10
5.9960864960629916
20
-4.3772270472440944
11
5.9955538188976378
21
-4.377759724409449
0
LINE
8
BLACK
6
CONTINUOUS
10
5.9955538188976378
20
-4.377759724409449
11
5.9951771653543302
21
-4.3778346456692914
0
LINE
8
BLACK
6
CONTINUOUS
10
5.9951771653543302
20
-4.3778346456692914
11
5.9922244094488191
21
-4.3778346062992126
0
LINE
8
BLACK
6
CONTINUOUS
10
5.9922244094488191
20
-4.3778346062992126
11
5.9922244094488191
21
-4.4398425196850395
0
LINE
8
BLACK
6
CONTINUOUS
10
5.9922244094488191
20
-4.4398425196850395
11
5.9921494881889759
21
-4.4402191732283462
0
LINE
8
BLACK
6
CONTINUOUS
10
5.9921494881889759
20
-4.4402191732283462
11
5.9916168110236221
21
-4.4407518503937009
0
LINE
8
BLACK
6
CONTINUOUS
10
5.9916168110236221
20
-4.4407518503937009
11
5.9912401574803145
21
-4.4408267716535432
0
LINE
8
BLACK
6
CONTINUOUS
10
5.9912401574803145
20
-4.4408267716535432
11
5.9154527559055117
21
-4.4408267716535432
0
LINE
8
BLACK
6
CONTINUOUS
10
5.9154527559055117
20
-4.4408267716535432
11
5.9154527559055117
21
-4.4831496062992127
0
LINE
8
BLACK
6
CONTINUOUS
10
5.9154527559055117
20
-4.4831496062992127
11
5.9153778346456694
21
-4.4835262598425194
0
LINE
8
BLACK
6
CONTINUOUS
10
5.9153778346456694
20
-4.4835262598425194
11
5.9148451574803147
21
-4.4840589370078741
0
LINE
8
BLACK
6
CONTINUOUS
10
5.9148451574803147
20
-4.4840589370078741
11
5.914468503937008
21
-4.4841338582677164
0
LINE
8
BLACK
6
CONTINUOUS
10
5.914468503937008
20
-4.4841338582677164
11
5.5562007874015746
21
-4.4841338582677164
0
LINE
8
BLACK
6
CONTINUOUS
10
5.5562007874015746
20
-4.4841338582677164
11
5.5558241338582679
21
-4.4840589370078741
0
LINE
8
BLACK
6
CONTINUOUS
10
5.5558241338582679
20
-4.4840589370078741
11
5.5552914566929132
21
-4.4835262598425194
0
LINE
8
BLACK
6
CONTINUOUS
10
5.5552914566929132
20
-4.4835262598425194
11
5.5552165354330709
21
-4.4831496062992127
0
LINE
8
BLACK
6
CONTINUOUS
10
5.5552165354330709
20
-4.4831496062992127
11
5.5552165354330709
21
-4.4408267716535432
0
LINE
8
BLACK
6
CONTINUOUS
10
5.5552165354330709
20
-4.4408267716535432
11
5.4794291338582672
21
-4.4408267716535432
0
LINE
8
BLACK
6
CONTINUOUS
10
5.4794291338582672
20
-4.4408267716535432
11
5.4790524803149605
21
-4.4407518503937009
0
LINE
8
BLACK
6
CONTINUOUS
10
5.4790524803149605
20
-4.4407518503937009
11
5.4785198031496058
21
-4.4402191732283462
0
LINE
8
BLACK
6
CONTINUOUS
10
5.4785198031496058
20
-4.4402191732283462
11
5.4784448818897635
21
-4.4398425196850395
0
LINE
8
BLACK
6
CONTINUOUS
10
5.4784448818897635
20
-4.4398425196850395
11
5.4784448818897635
21
-4.3778346062992126
0
LINE
8
BLACK
6
CONTINUOUS
10
5.4784448818897635
20
-4.3778346062992126
11
5.4754921259842515
21
-4.3778346456692914
0
LINE
8
BLACK
6
CONTINUOUS
10
5.4754921259842515
20
-4.3778346456692914
11
5.4751154724409448
21
-4.377759724409449
0
LINE
8
BLACK
6
CONTINUOUS
10
5.4751154724409448
20
-4.377759724409449
11
5.4745827952755901
21
-4.3772270472440944
0
LINE
8
BLACK
6
CONTINUOUS
10
5.4745827952755901
20
-4.3772270472440944
11
5.4745827952755901
21
-4.3772270078740156
0
LINE
8
BLACK
6
CONTINUOUS
10
5.4745827952755901
20
-4.3772270078740156
11
5.4745078740157478
21
-4.3768503937007877
0
LINE
8
BLACK
6
CONTINUOUS
10
5.4745078740157478
20
-4.3768503937007877
11
5.4745078740157478
21
-4.2311811023622043
0
LINE
8
BLACK
6
CONTINUOUS
10
5.4745078740157478
20
-4.2311811023622043
11
5.4745827952755901
21
-4.2308044488188976
0
LINE
8
BLACK
6
CONTINUOUS
10
5.4745827952755901
20
-4.2308044488188976
11
5.4751154724409448
21
-4.230271771653543
0
LINE
8
BLACK
6
CONTINUOUS
10
5.4751154724409448
20
-4.230271771653543
11
5.4754921259842515
21
-4.2301968503937006
0
LINE
8
BLACK
6
CONTINUOUS
10
5.4754921259842515
20
-4.2301968503937006
11
5.5542322834645672
21
-4.2301968503937006
0
LINE
8
BLACK
6
CONTINUOUS
10
5.5542322834645672
20
-4.2301968503937006
11
5.5546089370078739
21
-4.230271771653543
0
LINE
8
BLACK
6
CONTINUOUS
10
5.4764763779527561
20
-4.232165354330709
11
5.4764763779527561
21
-4.3758661023622043
0
LINE
8
BLACK
6
CONTINUOUS
10
5.4764763779527561
20
-4.3758661023622043
11
5.4794291338582672
21
-4.3758661023622043
0
LINE
8
BLACK
6
CONTINUOUS
10
5.4794291338582672
20
-4.3758661023622043
11
5.4798057874015749
21
-4.3759410236220475
0
LINE
8
BLACK
6
CONTINUOUS
10
5.4798057874015749
20
-4.3759410236220475
11
5.4803384645669286
21
-4.3764737007874013
0
LINE
8
BLACK
6
CONTINUOUS
10
5.4803384645669286
20
-4.3764737007874013
11
5.4804133858267718
21
-4.3768503543307089
0
LINE
8
BLACK
6
CONTINUOUS
10
5.4804133858267718
20
-4.3768503543307089
11
5.4804133858267718
21
-4.4388582677165349
0
LINE
8
BLACK
6
CONTINUOUS
10
5.4804133858267718
20
-4.4388582677165349
11
5.5562007874015746
21
-4.4388582677165349
0
LINE
8
BLACK
6
CONTINUOUS
10
5.5562007874015746
20
-4.4388582677165349
11
5.5565774409448814
21
-4.4389331889763781
0
LINE
8
BLACK
6
CONTINUOUS
10
5.5565774409448814
20
-4.4389331889763781
11
5.557110118110236
21
-4.4394658661417319
0
LINE
8
BLACK
6
CONTINUOUS
10
5.557110118110236
20
-4.4394658661417319
11
5.5571850393700783
21
-4.4398425196850395
0
LINE
8
BLACK
6
CONTINUOUS
10
5.5571850393700783
20
-4.4398425196850395
11
5.5571850393700783
21
-4.482165354330709
0
LINE
8
BLACK
6
CONTINUOUS
10
5.5571850393700783
20
-4.482165354330709
11
5.9134842519685042
21
-4.482165354330709
0
LINE
8
BLACK
6
CONTINUOUS
10
5.9134842519685042
20
-4.482165354330709
11
5.9134842519685042
21
-4.4398425196850395
0
LINE
8
BLACK
6
CONTINUOUS
10
5.9134842519685042
20
-4.4398425196850395
11
5.9135591732283466
21
-4.4394658661417319
0
LINE
8
BLACK
6
CONTINUOUS
10
5.9135591732283466
20
-4.4394658661417319
11
5.9140918503937003
21
-4.4389331889763781
0
LINE
8
BLACK
6
CONTINUOUS
10
5.9140918503937003
20
-4.4389331889763781
11
5.914468503937008
21
-4.4388582677165349
0
LINE
8
BLACK
6
CONTINUOUS
10
5.914468503937008
20
-4.4388582677165349
11
5.9902559055118108
21
-4.4388582677165349
0
LINE
8
BLACK
6
CONTINUOUS
10
5.9902559055118108
20
-4.4388582677165349
11
5.9902559055118108
21
-4.3768503543307089
0
LINE
8
BLACK
6
CONTINUOUS
10
5.9902559055118108
20
-4.3768503543307089
11
5.9903308267716531
21
-4.3764737007874013
0
LINE
8
BLACK
6
CONTINUOUS
10
5.9903308267716531
20
-4.3764737007874013
11
5.9908635039370077
21
-4.3759410236220475
0
LINE
8
BLACK
6
CONTINUOUS
10
5.9908635039370077
20
-4.3759410236220475
11
5.9912401574803145
21
-4.3758661023622043
0
LINE
8
BLACK
6
CONTINUOUS
10
5.9912401574803145
20
-4.3758661023622043
11
5.9941929133858265
21
-4.3758661023622043
0
LINE
8
BLACK
6
CONTINUOUS
10
5.9941929133858265
20
-4.3758661023622043
11
5.9941929133858265
21
-4.232165354330709
0
LINE
8
BLACK
6
CONTINUOUS
10
5.9941929133858265
20
-4.232165354330709
11
5.91742125984252
21
-4.232165354330709
0
LINE
8
BLACK
6
CONTINUOUS
10
5.91742125984252
20
-4.232165354330709
11
5.91742125984252
21
-4.2410236220472441
0
LINE
8
BLACK
6
CONTINUOUS
10
5.91742125984252
20
-4.2410236220472441
11
5.9173463385826768
21
-4.2414002755905509
0
LINE
8
BLACK
6
CONTINUOUS
10
5.9173463385826768
20
-4.2414002755905509
11
5.916813661417323
21
-4.2419329527559055
0
LINE
8
BLACK
6
CONTINUOUS
10
5.916813661417323
20
-4.2419329527559055
11
5.9164370078740154
21
-4.2420078740157479
0
LINE
8
BLACK
6
CONTINUOUS
10
5.9164370078740154
20
-4.2420078740157479
11
5.5542322834645672
21
-4.2420078740157479
0
LINE
8
BLACK
6
CONTINUOUS
10
5.5542322834645672
20
-4.2420078740157479
11
5.5538556299212596
21
-4.2419329527559055
0
LINE
8
BLACK
6
CONTINUOUS
10
5.5538556299212596
20
-4.2419329527559055
11
5.5533229527559058
21
-4.2414002755905509
0
LINE
8
BLACK
6
CONTINUOUS
10
5.5533229527559058
20
-4.2414002755905509
11
5.5532480314960626
21
-4.2410236220472441
0
LINE
8
BLACK
6
CONTINUOUS
10
5.5532480314960626
20
-4.2410236220472441
11
5.5532480314960626
21
-4.232165354330709
0
LINE
8
BLACK
6
CONTINUOUS
10
5.5532480314960626
20
-4.232165354330709
11
5.4764763779527561
21
-4.232165354330709
0
LINE
8
BLACK
6
CONTINUOUS
10
6.5732900393700788
20
-4.2231064173228345
11
6.5738227165354326
21
-4.2236390944881892
0
LINE
8
BLACK
6
CONTINUOUS
10
6.5738227165354326
20
-4.2236390944881892
11
6.5738976377952758
21
-4.2240157480314959
0
LINE
8
BLACK
6
CONTINUOUS
10
6.5738976377952758
20
-4.2240157480314959
11
6.5738976771653546
21
-4.2328740157480311
0
LINE
8
BLACK
6
CONTINUOUS
10
6.5738976771653546
20
-4.2328740157480311
11
6.7861023228346458
21
-4.2328740157480311
0
LINE
8
BLACK
6
CONTINUOUS
10
6.7861023228346458
20
-4.2328740157480311
11
6.7861023622047245
21
-4.2240157480314959
0
LINE
8
BLACK
6
CONTINUOUS
10
6.7861023622047245
20
-4.2240157480314959
11
6.7861772834645668
21
-4.2236390944881892
0
LINE
8
BLACK
6
CONTINUOUS
10
6.7861772834645668
20
-4.2236390944881892
11
6.7867099606299215
21
-4.2231064173228345
0
LINE
8
BLACK
6
CONTINUOUS
10
6.7867099606299215
20
-4.2231064173228345
11
6.7870866141732282
21
-4.2230314960629922
0
LINE
8
BLACK
6
CONTINUOUS
10
6.7870866141732282
20
-4.2230314960629922
11
6.8662204724409444
21
-4.2230314960629922
0
LINE
8
BLACK
6
CONTINUOUS
10
6.8662204724409444
20
-4.2230314960629922
11
6.866597125984252
21
-4.2231064173228345
0
LINE
8
BLACK
6
CONTINUOUS
10
6.866597125984252
20
-4.2231064173228345
11
6.8671298031496057
21
-4.2236390944881892
0
LINE
8
BLACK
6
CONTINUOUS
10
6.8671298031496057
20
-4.2236390944881892
11
6.867204724409449
21
-4.2240157480314959
0
LINE
8
BLACK
6
CONTINUOUS
10
6.867204724409449
20
-4.2240157480314959
11
6.867204724409449
21
-4.3696849999999996
0
LINE
8
BLACK
6
CONTINUOUS
10
6.867204724409449
20
-4.3696849999999996
11
6.8671298031496057
21
-4.3700616535433072
0
LINE
8
BLACK
6
CONTINUOUS
10
6.8671298031496057
20
-4.3700616535433072
11
6.866597125984252
21
-4.370594330708661
0
LINE
8
BLACK
6
CONTINUOUS
10
6.866597125984252
20
-4.370594330708661
11
6.8662204724409444
21
-4.3706692519685042
0
LINE
8
BLACK
6
CONTINUOUS
10
6.8662204724409444
20
-4.3706692519685042
11
6.8632677165354332
21
-4.3706692519685042
0
LINE
8
BLACK
6
CONTINUOUS
10
6.8632677165354332
20
-4.3706692519685042
11
6.8632677165354332
21
-4.4326771653543302
0
LINE
8
BLACK
6
CONTINUOUS
10
6.8632677165354332
20
-4.4326771653543302
11
6.86319279527559
21
-4.4330538188976378
0
LINE
8
BLACK
6
CONTINUOUS
10
6.86319279527559
20
-4.4330538188976378
11
6.8626601181102362
21
-4.4335864960629916
0
LINE
8
BLACK
6
CONTINUOUS
10
6.8626601181102362
20
-4.4335864960629916
11
6.8622834645669286
21
-4.4336614173228348
0
LINE
8
BLACK
6
CONTINUOUS
10
6.8622834645669286
20
-4.4336614173228348
11
6.7864960629921258
21
-4.4336614173228348
0
LINE
8
BLACK
6
CONTINUOUS
10
6.7864960629921258
20
-4.4336614173228348
11
6.7864960629921258
21
-4.4759842519685042
0
LINE
8
BLACK
6
CONTINUOUS
10
6.7864960629921258
20
-4.4759842519685042
11
6.7864211417322835
21
-4.476360905511811
0
LINE
8
BLACK
6
CONTINUOUS
10
6.7864211417322835
20
-4.476360905511811
11
6.7858884645669288
21
-4.4768935826771656
0
LINE
8
BLACK
6
CONTINUOUS
10
6.7858884645669288
20
-4.4768935826771656
11
6.7855118110236221
21
-4.476968503937008
0
LINE
8
BLACK
6
CONTINUOUS
10
6.7855118110236221
20
-4.476968503937008
11
6.5744881889763782
21
-4.476968503937008
0
LINE
8
BLACK
6
CONTINUOUS
10
6.5744881889763782
20
-4.476968503937008
11
6.5741115354330706
21
-4.4768935826771656
0
LINE
8
BLACK
6
CONTINUOUS
10
6.5741115354330706
20
-4.4768935826771656
11
6.5735788582677168
21
-4.476360905511811
0
LINE
8
BLACK
6
CONTINUOUS
10
6.5735788582677168
20
-4.476360905511811
11
6.5735039370078736
21
-4.4759842519685042
0
LINE
8
BLACK
6
CONTINUOUS
10
6.5735039370078736
20
-4.4759842519685042
11
6.5735039370078736
21
-4.4336614173228348
0
LINE
8
BLACK
6
CONTINUOUS
10
6.5735039370078736
20
-4.4336614173228348
11
6.4977165354330708
21
-4.4336614173228348
0
LINE
8
BLACK
6
CONTINUOUS
10
6.4977165354330708
20
-4.4336614173228348
11
6.4973398818897632
21
-4.4335864960629916
0
LINE
8
BLACK
6
CONTINUOUS
10
6.4973398818897632
20
-4.4335864960629916
11
6.4968072047244094
21
-4.4330538188976378
0
LINE
8
BLACK
6
CONTINUOUS
10
6.4968072047244094
20
-4.4330538188976378
11
6.4967322834645671
21
-4.4326771653543302
0
LINE
8
BLACK
6
CONTINUOUS
10
6.4967322834645671
20
-4.4326771653543302
11
6.4967322834645671
21
-4.3706692519685042
0
LINE
8
BLACK
6
CONTINUOUS
10
6.4967322834645671
20
-4.3706692519685042
11
6.4937795275590551
21
-4.3706692519685042
0
LINE
8
BLACK
6
CONTINUOUS
10
6.4937795275590551
20
-4.3706692519685042
11
6.4934028740157475
21
-4.370594330708661
0
LINE
8
BLACK
6
CONTINUOUS
10
6.4934028740157475
20
-4.370594330708661
11
6.4928701968503937
21
-4.3700616535433072
0
LINE
8
BLACK
6
CONTINUOUS
10
6.4928701968503937
20
-4.3700616535433072
11
6.4927952755905514
21
-4.3696849999999996
0
LINE
8
BLACK
6
CONTINUOUS
10
6.4927952755905514
20
-4.3696849999999996
11
6.4927952755905514
21
-4.2240157480314959
0
LINE
8
BLACK
6
CONTINUOUS
10
6.4927952755905514
20
-4.2240157480314959
11
6.4928701968503937
21
-4.2236390944881892
0
LINE
8
BLACK
6
CONTINUOUS
10
6.4928701968503937
20
-4.2236390944881892
11
6.4934028740157475
21
-4.2231064173228345
0
LINE
8
BLACK
6
CONTINUOUS
10
6.4934028740157475
20
-4.2231064173228345
11
6.4937795275590551
21
-4.2230314960629922
0
LINE
8
BLACK
6
CONTINUOUS
10
6.4937795275590551
20
-4.2230314960629922
11
6.5729133858267712
21
-4.2230314960629922
0
LINE
8
BLACK
6
CONTINUOUS
10
6.5729133858267712
20
-4.2230314960629922
11
6.5732900393700788
21
-4.2231064173228345
0
LINE
8
BLACK
6
CONTINUOUS
10
6.4947637795275588
20
-4.2249999999999996
11
6.4947637795275588
21
-4.3687007480314959
0
LINE
8
BLACK
6
CONTINUOUS
10
6.4947637795275588
20
-4.3687007480314959
11
6.4977165354330708
21
-4.3687007874015746
0
LINE
8
BLACK
6
CONTINUOUS
10
6.4977165354330708
20
-4.3687007874015746
11
6.4980931889763776
21
-4.368775708661417
0
LINE
8
BLACK
6
CONTINUOUS
10
6.4980931889763776
20
-4.368775708661417
11
6.4986258661417322
21
-4.3693083858267716
0
LINE
8
BLACK
6
CONTINUOUS
10
6.4986258661417322
20
-4.3693083858267716
11
6.4987007874015745
21
-4.3696850393700783
0
LINE
8
BLACK
6
CONTINUOUS
10
6.4987007874015745
20
-4.3696850393700783
11
6.4987007874015745
21
-4.4316929133858265
0
LINE
8
BLACK
6
CONTINUOUS
10
6.4987007874015745
20
-4.4316929133858265
11
6.5744881889763782
21
-4.4316929133858265
0
LINE
8
BLACK
6
CONTINUOUS
10
6.5744881889763782
20
-4.4316929133858265
11
6.5748648425196849
21
-4.4317678346456688
0
LINE
8
BLACK
6
CONTINUOUS
10
6.5748648425196849
20
-4.4317678346456688
11
6.5753975196850396
21
-4.4323005118110235
0
LINE
8
BLACK
6
CONTINUOUS
10
6.5753975196850396
20
-4.4323005118110235
11
6.5754724409448819
21
-4.4326771653543302
0
LINE
8
BLACK
6
CONTINUOUS
10
6.5754724409448819
20
-4.4326771653543302
11
6.5754724409448819
21
-4.4749999999999996
0
LINE
8
BLACK
6
CONTINUOUS
10
6.5754724409448819
20
-4.4749999999999996
11
6.7845275590551184
21
-4.4749999999999996
0
LINE
8
BLACK
6
CONTINUOUS
10
6.7845275590551184
20
-4.4749999999999996
11
6.7845275590551184
21
-4.4326771653543302
0
LINE
8
BLACK
6
CONTINUOUS
10
6.7845275590551184
20
-4.4326771653543302
11
6.7846024803149607
21
-4.4323005118110235
0
LINE
8
BLACK
6
CONTINUOUS
10
6.7846024803149607
20
-4.4323005118110235
11
6.7851351574803145
21
-4.4317678346456688
0
LINE
8
BLACK
6
CONTINUOUS
10
6.7851351574803145
20
-4.4317678346456688
11
6.7855118110236221
21
-4.4316929133858265
0
LINE
8
BLACK
6
CONTINUOUS
10
6.7855118110236221
20
-4.4316929133858265
11
6.8612992125984249
21
-4.4316929133858265
0
LINE
8
BLACK
6
CONTINUOUS
10
6.8612992125984249
20
-4.4316929133858265
11
6.8612992125984249
21
-4.3696850393700783
0
LINE
8
BLACK
6
CONTINUOUS
10
6.8612992125984249
20
-4.3696850393700783
11
6.8613741338582672
21
-4.3693083858267716
0
LINE
8
BLACK
6
CONTINUOUS
10
6.8613741338582672
20
-4.3693083858267716
11
6.8619068110236219
21
-4.368775708661417
0
LINE
8
BLACK
6
CONTINUOUS
10
6.8619068110236219
20
-4.368775708661417
11
6.8622834645669286
21
-4.3687007874015746
0
LINE
8
BLACK
6
CONTINUOUS
10
6.8622834645669286
20
-4.3687007874015746
11
6.8652362204724406
21
-4.3687007480314959
0
LINE
8
BLACK
6
CONTINUOUS
10
6.8652362204724406
20
-4.3687007480314959
11
6.8652362204724406
21
-4.2249999999999996
0
LINE
8
BLACK
6
CONTINUOUS
10
6.8652362204724406
20
-4.2249999999999996
11
6.7880708661417319
21
-4.2249999999999996
0
LINE
8
BLACK
6
CONTINUOUS
10
6.7880708661417319
20
-4.2249999999999996
11
6.7880708267716532
21
-4.2338582677165357
0
LINE
8
BLACK
6
CONTINUOUS
10
6.7880708267716532
20
-4.2338582677165357
11
6.7879959055118109
21
-4.2342349212598425
0
LINE
8
BLACK
6
CONTINUOUS
10
6.7879959055118109
20
-4.2342349212598425
11
6.7874632283464562
21
-4.2347675984251971
0
LINE
8
BLACK
6
CONTINUOUS
10
6.7874632283464562
20
-4.2347675984251971
11
6.7870865748031495
21
-4.2348425196850394
0
LINE
8
BLACK
6
CONTINUOUS
10
6.7870865748031495
20
-4.2348425196850394
11
6.57291342519685
21
-4.2348425196850394
0
LINE
8
BLACK
6
CONTINUOUS
10
6.57291342519685
20
-4.2348425196850394
11
6.5725367716535432
21
-4.2347675984251971
0
LINE
8
BLACK
6
CONTINUOUS
10
6.5725367716535432
20
-4.2347675984251971
11
6.5720040944881886
21
-4.2342349212598425
0
LINE
8
BLACK
6
CONTINUOUS
10
6.5720040944881886
20
-4.2342349212598425
11
6.5719291732283462
21
-4.2338582677165357
0
LINE
8
BLACK
6
CONTINUOUS
10
6.5719291732283462
20
-4.2338582677165357
11
6.5719291338582675
21
-4.2249999999999996
0
LINE
8
BLACK
6
CONTINUOUS
10
6.5719291338582675
20
-4.2249999999999996
11
6.4947637795275588
21
-4.2249999999999996
0
LINE
8
BLACK
6
CONTINUOUS
10
4.3886837401574805
20
-4.2202717716535432
11
4.3892164173228343
21
-4.2208044488188978
0
LINE
8
BLACK
6
CONTINUOUS
10
4.3892164173228343
20
-4.2208044488188978
11
4.3892913385826775
21
-4.2211811023622046
0
LINE
8
BLACK
6
CONTINUOUS
10
4.3892913385826775
20
-4.2211811023622046
11
4.3892913385826775
21
-4.2300393700787398
0
LINE
8
BLACK
6
CONTINUOUS
10
4.3892913385826775
20
-4.2300393700787398
11
4.8967716535433068
21
-4.2300393700787398
0
LINE
8
BLACK
6
CONTINUOUS
10
4.8967716535433068
20
-4.2300393700787398
11
4.8967716535433068
21
-4.2211811023622046
0
LINE
8
BLACK
6
CONTINUOUS
10
4.8967716535433068
20
-4.2211811023622046
11
4.8968465748031491
21
-4.2208044488188978
0
LINE
8
BLACK
6
CONTINUOUS
10
4.8968465748031491
20
-4.2208044488188978
11
4.8973792519685038
21
-4.2202717716535432
0
LINE
8
BLACK
6
CONTINUOUS
10
4.8973792519685038
20
-4.2202717716535432
11
4.8977559055118105
21
-4.2201968503937008
0
LINE
8
BLACK
6
CONTINUOUS
10
4.8977559055118105
20
-4.2201968503937008
11
4.9768897637795275
21
-4.2201968503937008
0
LINE
8
BLACK
6
CONTINUOUS
10
4.9768897637795275
20
-4.2201968503937008
11
4.9772664173228343
21
-4.2202717716535432
0
LINE
8
BLACK
6
CONTINUOUS
10
4.9772664173228343
20
-4.2202717716535432
11
4.9777990944881889
21
-4.2208044488188978
0
LINE
8
BLACK
6
CONTINUOUS
10
4.9777990944881889
20
-4.2208044488188978
11
4.9778740157480312
21
-4.2211811023622046
0
LINE
8
BLACK
6
CONTINUOUS
10
4.9778740157480312
20
-4.2211811023622046
11
4.9778740157480312
21
-4.366850393700787
0
LINE
8
BLACK
6
CONTINUOUS
10
4.9778740157480312
20
-4.366850393700787
11
4.9777990944881889
21
-4.3672270472440946
0
LINE
8
BLACK
6
CONTINUOUS
10
4.9777990944881889
20
-4.3672270472440946
11
4.9772664173228343
21
-4.3677597244094484
0
LINE
8
BLACK
6
CONTINUOUS
10
4.9772664173228343
20
-4.3677597244094484
11
4.9768897637795275
21
-4.3678346456692916
0
LINE
8
BLACK
6
CONTINUOUS
10
4.9768897637795275
20
-4.3678346456692916
11
4.9739370078740155
21
-4.3678346456692916
0
LINE
8
BLACK
6
CONTINUOUS
10
4.9739370078740155
20
-4.3678346456692916
11
4.9739370078740155
21
-4.4298425196850388
0
LINE
8
BLACK
6
CONTINUOUS
10
4.9739370078740155
20
-4.4298425196850388
11
4.9738620866141732
21
-4.4302191732283465
0
LINE
8
BLACK
6
CONTINUOUS
10
4.9738620866141732
20
-4.4302191732283465
11
4.9733294094488185
21
-4.4307518503937011
0
LINE
8
BLACK
6
CONTINUOUS
10
4.9733294094488185
20
-4.4307518503937011
11
4.9729527559055118
21
-4.4308267716535434
0
LINE
8
BLACK
6
CONTINUOUS
10
4.9729527559055118
20
-4.4308267716535434
11
4.897165354330709
21
-4.4308267716535434
0
LINE
8
BLACK
6
CONTINUOUS
10
4.897165354330709
20
-4.4308267716535434
11
4.897165354330709
21
-4.4731496062992129
0
LINE
8
BLACK
6
CONTINUOUS
10
4.897165354330709
20
-4.4731496062992129
11
4.8970904330708658
21
-4.4735262598425196
0
LINE
8
BLACK
6
CONTINUOUS
10
4.8970904330708658
20
-4.4735262598425196
11
4.896557755905512
21
-4.4740589370078743
0
LINE
8
BLACK
6
CONTINUOUS
10
4.896557755905512
20
-4.4740589370078743
11
4.8961811023622044
21
-4.4741338582677166
0
LINE
8
BLACK
6
CONTINUOUS
10
4.8961811023622044
20
-4.4741338582677166
11
4.389881889763779
21
-4.4741338582677166
0
LINE
8
BLACK
6
CONTINUOUS
10
4.389881889763779
20
-4.4741338582677166
11
4.3895052362204723
21
-4.4740589370078743
0
LINE
8
BLACK
6
CONTINUOUS
10
4.3895052362204723
20
-4.4740589370078743
11
4.3889725590551176
21
-4.4735262598425196
0
LINE
8
BLACK
6
CONTINUOUS
10
4.3889725590551176
20
-4.4735262598425196
11
4.3888976377952753
21
-4.4731496062992129
0
LINE
8
BLACK
6
CONTINUOUS
10
4.3888976377952753
20
-4.4731496062992129
11
4.3888976377952753
21
-4.4308267716535434
0
LINE
8
BLACK
6
CONTINUOUS
10
4.3888976377952753
20
-4.4308267716535434
11
4.3131102362204725
21
-4.4308267716535434
0
LINE
8
BLACK
6
CONTINUOUS
10
4.3131102362204725
20
-4.4308267716535434
11
4.3127335826771649
21
-4.4307518503937011
0
LINE
8
BLACK
6
CONTINUOUS
10
4.3127335826771649
20
-4.4307518503937011
11
4.3122009055118111
21
-4.4302191732283465
0
LINE
8
BLACK
6
CONTINUOUS
10
4.3122009055118111
20
-4.4302191732283465
11
4.3121259842519688
21
-4.4298425196850388
0
LINE
8
BLACK
6
CONTINUOUS
10
4.3121259842519688
20
-4.4298425196850388
11
4.3121259842519688
21
-4.3678346456692916
0
LINE
8
BLACK
6
CONTINUOUS
10
4.3121259842519688
20
-4.3678346456692916
11
4.3091732283464568
21
-4.3678346456692916
0
LINE
8
BLACK
6
CONTINUOUS
10
4.3091732283464568
20
-4.3678346456692916
11
4.3087965748031491
21
-4.3677597244094484
0
LINE
8
BLACK
6
CONTINUOUS
10
4.3087965748031491
20
-4.3677597244094484
11
4.3082638976377954
21
-4.3672270472440946
0
LINE
8
BLACK
6
CONTINUOUS
10
4.3082638976377954
20
-4.3672270472440946
11
4.3081889763779531
21
-4.366850393700787
0
LINE
8
BLACK
6
CONTINUOUS
10
4.3081889763779531
20
-4.366850393700787
11
4.3081889763779531
21
-4.2211811023622046
0
LINE
8
BLACK
6
CONTINUOUS
10
4.3081889763779531
20
-4.2211811023622046
11
4.3082638976377954
21
-4.2208044488188978
0
LINE
8
BLACK
6
CONTINUOUS
10
4.3082638976377954
20
-4.2208044488188978
11
4.3087965748031491
21
-4.2202717716535432
0
LINE
8
BLACK
6
CONTINUOUS
10
4.3087965748031491
20
-4.2202717716535432
11
4.3091732283464568
21
-4.2201968503937008
0
LINE
8
BLACK
6
CONTINUOUS
10
4.3091732283464568
20
-4.2201968503937008
11
4.3883070866141729
21
-4.2201968503937008
0
LINE
8
BLACK
6
CONTINUOUS
10
4.3883070866141729
20
-4.2201968503937008
11
4.3886837401574805
21
-4.2202717716535432
0
LINE
8
BLACK
6
CONTINUOUS
10
4.3101574803149605
20
-4.2221653543307083
11
4.3101574803149605
21
-4.3658661417322833
0
LINE
8
BLACK
6
CONTINUOUS
10
4.3101574803149605
20
-4.3658661417322833
11
4.3131102362204725
21
-4.3658661417322833
0
LINE
8
BLACK
6
CONTINUOUS
10
4.3131102362204725
20
-4.3658661417322833
11
4.3134868897637793
21
-4.3659410629921256
0
LINE
8
BLACK
6
CONTINUOUS
10
4.3134868897637793
20
-4.3659410629921256
11
4.3140195669291339
21
-4.3664737401574802
0
LINE
8
BLACK
6
CONTINUOUS
10
4.3140195669291339
20
-4.3664737401574802
11
4.3140944881889762
21
-4.366850393700787
0
LINE
8
BLACK
6
CONTINUOUS
10
4.3140944881889762
20
-4.366850393700787
11
4.3140944881889762
21
-4.4288582677165351
0
LINE
8
BLACK
6
CONTINUOUS
10
4.3140944881889762
20
-4.4288582677165351
11
4.389881889763779
21
-4.4288582677165351
0
LINE
8
BLACK
6
CONTINUOUS
10
4.389881889763779
20
-4.4288582677165351
11
4.3902585433070866
21
-4.4289331889763774
0
LINE
8
BLACK
6
CONTINUOUS
10
4.3902585433070866
20
-4.4289331889763774
11
4.3907912204724404
21
-4.4294658661417321
0
LINE
8
BLACK
6
CONTINUOUS
10
4.3907912204724404
20
-4.4294658661417321
11
4.3908661417322836
21
-4.4298425196850388
0
LINE
8
BLACK
6
CONTINUOUS
10
4.3908661417322836
20
-4.4298425196850388
11
4.3908661417322836
21
-4.4721653543307083
0
LINE
8
BLACK
6
CONTINUOUS
10
4.3908661417322836
20
-4.4721653543307083
11
4.8951968503937007
21
-4.4721653543307083
0
LINE
8
BLACK
6
CONTINUOUS
10
4.8951968503937007
20
-4.4721653543307083
11
4.8951968503937007
21
-4.4298425196850388
0
LINE
8
BLACK
6
CONTINUOUS
10
4.8951968503937007
20
-4.4298425196850388
11
4.895271771653543
21
-4.4294658661417321
0
LINE
8
BLACK
6
CONTINUOUS
10
4.895271771653543
20
-4.4294658661417321
11
4.8958044488188976
21
-4.4289331889763774
0
LINE
8
BLACK
6
CONTINUOUS
10
4.8958044488188976
20
-4.4289331889763774
11
4.8961811023622044
21
-4.4288582677165351
0
LINE
8
BLACK
6
CONTINUOUS
10
4.8961811023622044
20
-4.4288582677165351
11
4.9719685039370081
21
-4.4288582677165351
0
LINE
8
BLACK
6
CONTINUOUS
10
4.9719685039370081
20
-4.4288582677165351
11
4.9719685039370081
21
-4.366850393700787
0
LINE
8
BLACK
6
CONTINUOUS
10
4.9719685039370081
20
-4.366850393700787
11
4.9720434251968504
21
-4.3664737401574802
0
LINE
8
BLACK
6
CONTINUOUS
10
4.9720434251968504
20
-4.3664737401574802
11
4.972576102362205
21
-4.3659410629921256
0
LINE
8
BLACK
6
CONTINUOUS
10
4.972576102362205
20
-4.3659410629921256
11
4.9729527559055118
21
-4.3658661417322833
0
LINE
8
BLACK
6
CONTINUOUS
10
4.9729527559055118
20
-4.3658661417322833
11
4.9759055118110238
21
-4.3658661417322833
0
LINE
8
BLACK
6
CONTINUOUS
10
4.9759055118110238
20
-4.3658661417322833
11
4.9759055118110238
21
-4.2221653543307083
0
LINE
8
BLACK
6
CONTINUOUS
10
4.9759055118110238
20
-4.2221653543307083
11
4.8987401574803151
21
-4.2221653543307083
0
LINE
8
BLACK
6
CONTINUOUS
10
4.8987401574803151
20
-4.2221653543307083
11
4.8987401574803151
21
-4.2310236220472444
0
LINE
8
BLACK
6
CONTINUOUS
10
4.8987401574803151
20
-4.2310236220472444
11
4.8986652362204719
21
-4.2314002755905511
0
LINE
8
BLACK
6
CONTINUOUS
10
4.8986652362204719
20
-4.2314002755905511
11
4.8981325590551181
21
-4.2319329527559058
0
LINE
8
BLACK
6
CONTINUOUS
10
4.8981325590551181
20
-4.2319329527559058
11
4.8977559055118105
21
-4.2320078740157481
0
LINE
8
BLACK
6
CONTINUOUS
10
4.8977559055118105
20
-4.2320078740157481
11
4.3883070866141729
21
-4.2320078740157481
0
LINE
8
BLACK
6
CONTINUOUS
10
4.3883070866141729
20
-4.2320078740157481
11
4.3879304330708662
21
-4.2319329527559058
0
LINE
8
BLACK
6
CONTINUOUS
10
4.3879304330708662
20
-4.2319329527559058
11
4.3873977559055115
21
-4.2314002755905511
0
LINE
8
BLACK
6
CONTINUOUS
10
4.3873977559055115
20
-4.2314002755905511
11
4.3873228346456692
21
-4.2310236220472444
0
LINE
8
BLACK
6
CONTINUOUS
10
4.3873228346456692
20
-4.2310236220472444
11
4.3873228346456692
21
-4.2221653543307083
0
LINE
8
BLACK
6
CONTINUOUS
10
4.3873228346456692
20
-4.2221653543307083
11
4.3101574803149605
21
-4.2221653543307083
0
CIRCLE
8
BLACK
10
4.4424665354330708
20
-4.6279311023622043
40
0.0068897637795276
0
CIRCLE
8
BLACK
10
4.5424665354330704
20
-4.6279311023622043
40
0.0068897637795276
0
CIRCLE
8
BLACK
10
4.6424664960629922
20
-4.6279311023622043
40
0.0068897637795276
0
CIRCLE
8
BLACK
10
4.7424665354330706
20
-4.6279311023622043
40
0.0068897637795276
0
CIRCLE
8
BLACK
10
4.8424665354330712
20
-4.6279311023622043
40
0.0068897637795276
0
CIRCLE
8
BLACK
10
4.9424665354330708
20
-4.6279311023622043
40
0.0068897637795276
0
CIRCLE
8
BLACK
10
5.0424665354330704
20
-4.6279311023622043
40
0.0068897637795276
0
CIRCLE
8
BLACK
10
5.1424665748031497
20
-4.6279311023622043
40
0.0068897637795276
0
CIRCLE
8
BLACK
10
5.8424665354330712
20
-4.6279311023622043
40
0.0068897637795276
0
CIRCLE
8
BLACK
10
5.942466496062992
20
-4.6279311023622043
40
0.0068897637795276
0
CIRCLE
8
BLACK
10
6.0424665748031492
20
-4.6279311023622043
40
0.0068897637795276
0
CIRCLE
8
BLACK
10
6.142466535433071
20
-4.6279311023622043
40
0.0068897637795276
0
CIRCLE
8
BLACK
10
6.2424665354330706
20
-4.6279311023622043
40
0.0068897637795276
0
CIRCLE
8
BLACK
10
6.3424665354330712
20
-4.6279311023622043
40
0.0068897637795276
0
CIRCLE
8
BLACK
10
6.442466496062992
20
-4.6279311023622043
40
0.0068897637795276
0
CIRCLE
8
BLACK
10
6.5424665354330704
20
-4.6279311023622043
40
0.0068897637795276
0
CIRCLE
8
BLACK
10
6.642466535433071
20
-4.6279311023622043
40
0.0068897637795276
0
CIRCLE
8
BLACK
10
6.7424665354330706
20
-4.6279311023622043
40
0.0068897637795276
0
CIRCLE
8
BLACK
10
5.5800000000000001
20
-4.6626377952755904
40
0.0068897637795276
0
CIRCLE
8
BLACK
10
5.4799999999999995
20
-4.6626377952755904
40
0.0068897637795276
0
CIRCLE
8
BLACK
10
5.3800000393700786
20
-4.6626377952755904
40
0.0068897637795276
0
CIRCLE
8
BLACK
10
4.4424665354330708
20
-4.6279311023622043
40
0.0068897637795276
0
CIRCLE
8
BLACK
10
4.5424665354330704
20
-4.6279311023622043
40
0.0068897637795276
0
CIRCLE
8
BLACK
10
4.6424664960629922
20
-4.6279311023622043
40
0.0068897637795276
0
CIRCLE
8
BLACK
10
4.7424665354330706
20
-4.6279311023622043
40
0.0068897637795276
0
CIRCLE
8
BLACK
10
4.8424665354330712
20
-4.6279311023622043
40
0.0068897637795276
0
CIRCLE
8
BLACK
10
4.9424665354330708
20
-4.6279311023622043
40
0.0068897637795276
0
CIRCLE
8
BLACK
10
5.0424665354330704
20
-4.6279311023622043
40
0.0068897637795276
0
CIRCLE
8
BLACK
10
5.1424665748031497
20
-4.6279311023622043
40
0.0068897637795276
0
CIRCLE
8
BLACK
10
5.8424665354330712
20
-4.6279311023622043
40
0.0068897637795276
0
CIRCLE
8
BLACK
10
5.942466496062992
20
-4.6279311023622043
40
0.0068897637795276
0
CIRCLE
8
BLACK
10
6.0424665748031492
20
-4.6279311023622043
40
0.0068897637795276
0
CIRCLE
8
BLACK
10
6.142466535433071
20
-4.6279311023622043
40
0.0068897637795276
0
CIRCLE
8
BLACK
10
6.2424665354330706
20
-4.6279311023622043
40
0.0068897637795276
0
CIRCLE
8
BLACK
10
6.3424665354330712
20
-4.6279311023622043
40
0.0068897637795276
0
CIRCLE
8
BLACK
10
6.442466496062992
20
-4.6279311023622043
40
0.0068897637795276
0
CIRCLE
8
BLACK
10
6.5424665354330704
20
-4.6279311023622043
40
0.0068897637795276
0
CIRCLE
8
BLACK
10
6.642466535433071
20
-4.6279311023622043
40
0.0068897637795276
0
CIRCLE
8
BLACK
10
6.7424665354330706
20
-4.6279311023622043
40
0.0068897637795276
0
CIRCLE
8
BLACK
10
5.5800000000000001
20
-4.6626377952755904
40
0.0068897637795276
0
CIRCLE
8
BLACK
10
5.4799999999999995
20
-4.6626377952755904
40
0.0068897637795276
0
CIRCLE
8
BLACK
10
5.3800000393700786
20
-4.6626377952755904
40
0.0068897637795276
  0
ENDSEC
  0
EOF
