  0
SECTION
  2
HEADER
  9
$ANGBASE
  50
0.0
  9
$ANGDIR
  70
1
  9
$MEASUREMENT
  70
0
  0
ENDSEC
  0
SECTION
  2
TABLES
  0
TABLE
  2
LTYPE
  70
4
  0
LTYPE
  5
40F
  2
CONTINUOUS
  70
0
  3
Solid line
  72
65
  73
0
  40
0.0
  0
LTYPE
  5
410
  2
DASHDOT
 70
0
  3
Dash Dot ____ _ ____ _
 72
65
 73
4
 40
2.0
 49
1.25
 49
-0.25
 49
0.25
 49
-0.25
  0
LTYPE
  5
411
  2
DASHED
 70
0
  3
Dashed __ __ __ __ __
 72
65
 73
2
 40
0.75
 49
0.5
 49
-0.25
  0
LTYPE
  5
43B
  2
DOTTED
 70
0
  3
Dotted .  .  .  .
 72
65
 73
2
 40
0.2
 49
0.0
 49
-0.2
  0
ENDTAB
  0
TABLE
  2
STYLE
  70
4
  0
STYLE
  2
KICAD
  70
0
  40
0
  41
1
  42
1
  50
0
  71
0
  3
isocp.shx
  0
STYLE
  2
KICADB
  70
0
  40
0
  41
1
  42
1
  50
0
  71
0
  3
isocp.shx
  0
STYLE
  2
KICADI
  70
0
  40
0
  41
1
  42
1
  50
15
  71
0
  3
isocp.shx
  0
STYLE
  2
KICADBI
  70
0
  40
0
  41
1
  42
1
  50
15
  71
0
  3
isocp.shx
  0
ENDTAB
  0
TABLE
  2
LAYER
  70
1
  0
LAYER
  2
BLACK
  70
0
  62
7
  6
CONTINUOUS
  0
ENDTAB
  0
ENDSEC
  0
SECTION
  2
ENTITIES
0
LINE
8
BLACK
6
CONTINUOUS
10
4.403132559055118
20
-4.2231064173228345
11
4.4036652362204727
21
-4.2236390944881892
0
LINE
8
BLACK
6
CONTINUOUS
10
4.4036652362204727
20
-4.2236390944881892
11
4.403740157480315
21
-4.2240157480314959
0
LINE
8
BLACK
6
CONTINUOUS
10
4.403740157480315
20
-4.2240157480314959
11
4.403740157480315
21
-4.2328740157480311
0
LINE
8
BLACK
6
CONTINUOUS
10
4.403740157480315
20
-4.2328740157480311
11
4.9112204724409452
21
-4.2328740157480311
0
LINE
8
BLACK
6
CONTINUOUS
10
4.9112204724409452
20
-4.2328740157480311
11
4.9112204724409452
21
-4.2240157480314959
0
LINE
8
BLACK
6
CONTINUOUS
10
4.9112204724409452
20
-4.2240157480314959
11
4.9112953937007875
21
-4.2236390944881892
0
LINE
8
BLACK
6
CONTINUOUS
10
4.9112953937007875
20
-4.2236390944881892
11
4.9118280708661413
21
-4.2231064173228345
0
LINE
8
BLACK
6
CONTINUOUS
10
4.9118280708661413
20
-4.2231064173228345
11
4.9122047244094489
21
-4.2230314960629922
0
LINE
8
BLACK
6
CONTINUOUS
10
4.9122047244094489
20
-4.2230314960629922
11
4.991338582677165
21
-4.2230314960629922
0
LINE
8
BLACK
6
CONTINUOUS
10
4.991338582677165
20
-4.2230314960629922
11
4.9917152362204726
21
-4.2231064173228345
0
LINE
8
BLACK
6
CONTINUOUS
10
4.9917152362204726
20
-4.2231064173228345
11
4.9922479133858264
21
-4.2236390944881892
0
LINE
8
BLACK
6
CONTINUOUS
10
4.9922479133858264
20
-4.2236390944881892
11
4.9923228346456696
21
-4.2240157480314959
0
LINE
8
BLACK
6
CONTINUOUS
10
4.9923228346456696
20
-4.2240157480314959
11
4.9923228346456696
21
-4.3696850393700783
0
LINE
8
BLACK
6
CONTINUOUS
10
4.9923228346456696
20
-4.3696850393700783
11
4.9922479133858264
21
-4.3700616535433072
0
LINE
8
BLACK
6
CONTINUOUS
10
4.9922479133858264
20
-4.3700616535433072
11
4.9922479133858264
21
-4.370061692913386
0
LINE
8
BLACK
6
CONTINUOUS
10
4.9922479133858264
20
-4.370061692913386
11
4.9917152362204726
21
-4.3705943700787397
0
LINE
8
BLACK
6
CONTINUOUS
10
4.9917152362204726
20
-4.3705943700787397
11
4.991338582677165
21
-4.370669291338583
0
LINE
8
BLACK
6
CONTINUOUS
10
4.991338582677165
20
-4.370669291338583
11
4.988385826771653
21
-4.370669291338583
0
LINE
8
BLACK
6
CONTINUOUS
10
4.988385826771653
20
-4.370669291338583
11
4.988385826771653
21
-4.4326771653543302
0
LINE
8
BLACK
6
CONTINUOUS
10
4.988385826771653
20
-4.4326771653543302
11
4.9883109055118107
21
-4.4330538188976378
0
LINE
8
BLACK
6
CONTINUOUS
10
4.9883109055118107
20
-4.4330538188976378
11
4.9877782283464569
21
-4.4335864960629916
0
LINE
8
BLACK
6
CONTINUOUS
10
4.9877782283464569
20
-4.4335864960629916
11
4.9874015748031493
21
-4.4336614173228348
0
LINE
8
BLACK
6
CONTINUOUS
10
4.9874015748031493
20
-4.4336614173228348
11
4.9116141732283465
21
-4.4336614173228348
0
LINE
8
BLACK
6
CONTINUOUS
10
4.9116141732283465
20
-4.4336614173228348
11
4.9116141732283465
21
-4.4759842519685042
0
LINE
8
BLACK
6
CONTINUOUS
10
4.9116141732283465
20
-4.4759842519685042
11
4.9115392519685042
21
-4.476360905511811
0
LINE
8
BLACK
6
CONTINUOUS
10
4.9115392519685042
20
-4.476360905511811
11
4.9110065748031495
21
-4.4768935826771656
0
LINE
8
BLACK
6
CONTINUOUS
10
4.9110065748031495
20
-4.4768935826771656
11
4.9106299212598428
21
-4.476968503937008
0
LINE
8
BLACK
6
CONTINUOUS
10
4.9106299212598428
20
-4.476968503937008
11
4.4043307086614174
21
-4.476968503937008
0
LINE
8
BLACK
6
CONTINUOUS
10
4.4043307086614174
20
-4.476968503937008
11
4.4039540551181098
21
-4.4768935826771656
0
LINE
8
BLACK
6
CONTINUOUS
10
4.4039540551181098
20
-4.4768935826771656
11
4.403421377952756
21
-4.476360905511811
0
LINE
8
BLACK
6
CONTINUOUS
10
4.403421377952756
20
-4.476360905511811
11
4.4033464566929137
21
-4.4759842519685042
0
LINE
8
BLACK
6
CONTINUOUS
10
4.4033464566929137
20
-4.4759842519685042
11
4.4033464566929137
21
-4.4336614173228348
0
LINE
8
BLACK
6
CONTINUOUS
10
4.4033464566929137
20
-4.4336614173228348
11
4.32755905511811
21
-4.4336614173228348
0
LINE
8
BLACK
6
CONTINUOUS
10
4.32755905511811
20
-4.4336614173228348
11
4.3271824015748033
21
-4.4335864960629916
0
LINE
8
BLACK
6
CONTINUOUS
10
4.3271824015748033
20
-4.4335864960629916
11
4.3266497244094486
21
-4.4330538188976378
0
LINE
8
BLACK
6
CONTINUOUS
10
4.3266497244094486
20
-4.4330538188976378
11
4.3265748031496063
21
-4.4326771653543302
0
LINE
8
BLACK
6
CONTINUOUS
10
4.3265748031496063
20
-4.4326771653543302
11
4.3265748031496063
21
-4.370669291338583
0
LINE
8
BLACK
6
CONTINUOUS
10
4.3265748031496063
20
-4.370669291338583
11
4.3236220472440943
21
-4.370669291338583
0
LINE
8
BLACK
6
CONTINUOUS
10
4.3236220472440943
20
-4.370669291338583
11
4.3232453937007875
21
-4.3705943700787397
0
LINE
8
BLACK
6
CONTINUOUS
10
4.3232453937007875
20
-4.3705943700787397
11
4.3227127165354329
21
-4.370061692913386
0
LINE
8
BLACK
6
CONTINUOUS
10
4.3227127165354329
20
-4.370061692913386
11
4.3227127165354329
21
-4.3700616535433072
0
LINE
8
BLACK
6
CONTINUOUS
10
4.3227127165354329
20
-4.3700616535433072
11
4.3226377952755906
21
-4.3696850393700783
0
LINE
8
BLACK
6
CONTINUOUS
10
4.3226377952755906
20
-4.3696850393700783
11
4.3226377952755906
21
-4.2240157480314959
0
LINE
8
BLACK
6
CONTINUOUS
10
4.3226377952755906
20
-4.2240157480314959
11
4.3227127165354329
21
-4.2236390944881892
0
LINE
8
BLACK
6
CONTINUOUS
10
4.3227127165354329
20
-4.2236390944881892
11
4.3232453937007875
21
-4.2231064173228345
0
LINE
8
BLACK
6
CONTINUOUS
10
4.3232453937007875
20
-4.2231064173228345
11
4.3236220472440943
21
-4.2230314960629922
0
LINE
8
BLACK
6
CONTINUOUS
10
4.3236220472440943
20
-4.2230314960629922
11
4.4027559055118113
21
-4.2230314960629922
0
LINE
8
BLACK
6
CONTINUOUS
10
4.4027559055118113
20
-4.2230314960629922
11
4.403132559055118
21
-4.2231064173228345
0
LINE
8
BLACK
6
CONTINUOUS
10
4.324606299212598
20
-4.2249999999999996
11
4.324606299212598
21
-4.3687007874015746
0
LINE
8
BLACK
6
CONTINUOUS
10
4.324606299212598
20
-4.3687007874015746
11
4.32755905511811
21
-4.3687007874015746
0
LINE
8
BLACK
6
CONTINUOUS
10
4.32755905511811
20
-4.3687007874015746
11
4.3279357086614176
21
-4.368775708661417
0
LINE
8
BLACK
6
CONTINUOUS
10
4.3279357086614176
20
-4.368775708661417
11
4.3284683858267714
21
-4.3693083858267716
0
LINE
8
BLACK
6
CONTINUOUS
10
4.3284683858267714
20
-4.3693083858267716
11
4.3285433070866137
21
-4.3696850393700783
0
LINE
8
BLACK
6
CONTINUOUS
10
4.3285433070866137
20
-4.3696850393700783
11
4.3285433070866137
21
-4.4316929133858265
0
LINE
8
BLACK
6
CONTINUOUS
10
4.3285433070866137
20
-4.4316929133858265
11
4.4043307086614174
21
-4.4316929133858265
0
LINE
8
BLACK
6
CONTINUOUS
10
4.4043307086614174
20
-4.4316929133858265
11
4.4047073622047241
21
-4.4317678346456688
0
LINE
8
BLACK
6
CONTINUOUS
10
4.4047073622047241
20
-4.4317678346456688
11
4.4052400393700788
21
-4.4323005118110235
0
LINE
8
BLACK
6
CONTINUOUS
10
4.4052400393700788
20
-4.4323005118110235
11
4.4053149606299211
21
-4.4326771653543302
0
LINE
8
BLACK
6
CONTINUOUS
10
4.4053149606299211
20
-4.4326771653543302
11
4.4053149606299211
21
-4.4749999999999996
0
LINE
8
BLACK
6
CONTINUOUS
10
4.4053149606299211
20
-4.4749999999999996
11
4.9096456692913382
21
-4.4749999999999996
0
LINE
8
BLACK
6
CONTINUOUS
10
4.9096456692913382
20
-4.4749999999999996
11
4.9096456692913382
21
-4.4326771653543302
0
LINE
8
BLACK
6
CONTINUOUS
10
4.9096456692913382
20
-4.4326771653543302
11
4.9097205905511814
21
-4.4323005118110235
0
LINE
8
BLACK
6
CONTINUOUS
10
4.9097205905511814
20
-4.4323005118110235
11
4.9102532677165351
21
-4.4317678346456688
0
LINE
8
BLACK
6
CONTINUOUS
10
4.9102532677165351
20
-4.4317678346456688
11
4.9106299212598428
21
-4.4316929133858265
0
LINE
8
BLACK
6
CONTINUOUS
10
4.9106299212598428
20
-4.4316929133858265
11
4.9864173228346456
21
-4.4316929133858265
0
LINE
8
BLACK
6
CONTINUOUS
10
4.9864173228346456
20
-4.4316929133858265
11
4.9864173228346456
21
-4.3696850393700783
0
LINE
8
BLACK
6
CONTINUOUS
10
4.9864173228346456
20
-4.3696850393700783
11
4.9864922440944879
21
-4.3693083858267716
0
LINE
8
BLACK
6
CONTINUOUS
10
4.9864922440944879
20
-4.3693083858267716
11
4.9870249212598425
21
-4.368775708661417
0
LINE
8
BLACK
6
CONTINUOUS
10
4.9870249212598425
20
-4.368775708661417
11
4.9874015748031493
21
-4.3687007874015746
0
LINE
8
BLACK
6
CONTINUOUS
10
4.9874015748031493
20
-4.3687007874015746
11
4.9903543307086613
21
-4.3687007874015746
0
LINE
8
BLACK
6
CONTINUOUS
10
4.9903543307086613
20
-4.3687007874015746
11
4.9903543307086613
21
-4.2249999999999996
0
LINE
8
BLACK
6
CONTINUOUS
10
4.9903543307086613
20
-4.2249999999999996
11
4.9131889763779526
21
-4.2249999999999996
0
LINE
8
BLACK
6
CONTINUOUS
10
4.9131889763779526
20
-4.2249999999999996
11
4.9131889763779526
21
-4.2338582677165357
0
LINE
8
BLACK
6
CONTINUOUS
10
4.9131889763779526
20
-4.2338582677165357
11
4.9131140551181103
21
-4.2342349212598425
0
LINE
8
BLACK
6
CONTINUOUS
10
4.9131140551181103
20
-4.2342349212598425
11
4.9125813779527556
21
-4.2347675984251971
0
LINE
8
BLACK
6
CONTINUOUS
10
4.9125813779527556
20
-4.2347675984251971
11
4.9122047244094489
21
-4.2348425196850394
0
LINE
8
BLACK
6
CONTINUOUS
10
4.9122047244094489
20
-4.2348425196850394
11
4.4027559055118113
21
-4.2348425196850394
0
LINE
8
BLACK
6
CONTINUOUS
10
4.4027559055118113
20
-4.2348425196850394
11
4.4023792519685037
21
-4.2347675984251971
0
LINE
8
BLACK
6
CONTINUOUS
10
4.4023792519685037
20
-4.2347675984251971
11
4.4018465748031499
21
-4.2342349212598425
0
LINE
8
BLACK
6
CONTINUOUS
10
4.4018465748031499
20
-4.2342349212598425
11
4.4017716535433067
21
-4.2338582677165357
0
LINE
8
BLACK
6
CONTINUOUS
10
4.4017716535433067
20
-4.2338582677165357
11
4.4017716535433067
21
-4.2249999999999996
0
LINE
8
BLACK
6
CONTINUOUS
10
4.4017716535433067
20
-4.2249999999999996
11
4.324606299212598
21
-4.2249999999999996
0
LINE
8
BLACK
6
CONTINUOUS
10
5.081105
20
-4.2231064173228345
11
5.0816376771653546
21
-4.2236390944881892
0
LINE
8
BLACK
6
CONTINUOUS
10
5.0816376771653546
20
-4.2236390944881892
11
5.081712598425197
21
-4.2240157480314959
0
LINE
8
BLACK
6
CONTINUOUS
10
5.081712598425197
20
-4.2240157480314959
11
5.081712598425197
21
-4.2328740157480311
0
LINE
8
BLACK
6
CONTINUOUS
10
5.081712598425197
20
-4.2328740157480311
11
5.3923425196850392
21
-4.2328740157480311
0
LINE
8
BLACK
6
CONTINUOUS
10
5.3923425196850392
20
-4.2328740157480311
11
5.3923425196850392
21
-4.2240157480314959
0
LINE
8
BLACK
6
CONTINUOUS
10
5.3923425196850392
20
-4.2240157480314959
11
5.3924174409448815
21
-4.2236390944881892
0
LINE
8
BLACK
6
CONTINUOUS
10
5.3924174409448815
20
-4.2236390944881892
11
5.3929501181102362
21
-4.2231064173228345
0
LINE
8
BLACK
6
CONTINUOUS
10
5.3929501181102362
20
-4.2231064173228345
11
5.3933267716535429
21
-4.2230314960629922
0
LINE
8
BLACK
6
CONTINUOUS
10
5.3933267716535429
20
-4.2230314960629922
11
5.4724606299212599
21
-4.2230314960629922
0
LINE
8
BLACK
6
CONTINUOUS
10
5.4724606299212599
20
-4.2230314960629922
11
5.4728372834645667
21
-4.2231064173228345
0
LINE
8
BLACK
6
CONTINUOUS
10
5.4728372834645667
20
-4.2231064173228345
11
5.4733699606299213
21
-4.2236390944881892
0
LINE
8
BLACK
6
CONTINUOUS
10
5.4733699606299213
20
-4.2236390944881892
11
5.4734448818897636
21
-4.2240157480314959
0
LINE
8
BLACK
6
CONTINUOUS
10
5.4734448818897636
20
-4.2240157480314959
11
5.4734448818897636
21
-4.3696850393700783
0
LINE
8
BLACK
6
CONTINUOUS
10
5.4734448818897636
20
-4.3696850393700783
11
5.4733699606299213
21
-4.3700616535433072
0
LINE
8
BLACK
6
CONTINUOUS
10
5.4733699606299213
20
-4.3700616535433072
11
5.4733699606299213
21
-4.370061692913386
0
LINE
8
BLACK
6
CONTINUOUS
10
5.4733699606299213
20
-4.370061692913386
11
5.4728372834645667
21
-4.3705943700787397
0
LINE
8
BLACK
6
CONTINUOUS
10
5.4728372834645667
20
-4.3705943700787397
11
5.4724606299212599
21
-4.370669291338583
0
LINE
8
BLACK
6
CONTINUOUS
10
5.4724606299212599
20
-4.370669291338583
11
5.4695078346456691
21
-4.370669291338583
0
LINE
8
BLACK
6
CONTINUOUS
10
5.4695078346456691
20
-4.370669291338583
11
5.4695078740157479
21
-4.4326771653543302
0
LINE
8
BLACK
6
CONTINUOUS
10
5.4695078740157479
20
-4.4326771653543302
11
5.4694329527559056
21
-4.4330538188976378
0
LINE
8
BLACK
6
CONTINUOUS
10
5.4694329527559056
20
-4.4330538188976378
11
5.4689002755905509
21
-4.4335864960629916
0
LINE
8
BLACK
6
CONTINUOUS
10
5.4689002755905509
20
-4.4335864960629916
11
5.4685236220472442
21
-4.4336614173228348
0
LINE
8
BLACK
6
CONTINUOUS
10
5.4685236220472442
20
-4.4336614173228348
11
5.3927362204724405
21
-4.4336614173228348
0
LINE
8
BLACK
6
CONTINUOUS
10
5.3927362204724405
20
-4.4336614173228348
11
5.3927362204724405
21
-4.4759842519685042
0
LINE
8
BLACK
6
CONTINUOUS
10
5.3927362204724405
20
-4.4759842519685042
11
5.3926612992125982
21
-4.476360905511811
0
LINE
8
BLACK
6
CONTINUOUS
10
5.3926612992125982
20
-4.476360905511811
11
5.3921286220472444
21
-4.4768935826771656
0
LINE
8
BLACK
6
CONTINUOUS
10
5.3921286220472444
20
-4.4768935826771656
11
5.3917519685039368
21
-4.476968503937008
0
LINE
8
BLACK
6
CONTINUOUS
10
5.3917519685039368
20
-4.476968503937008
11
5.0823031496062994
21
-4.476968503937008
0
LINE
8
BLACK
6
CONTINUOUS
10
5.0823031496062994
20
-4.476968503937008
11
5.0819264960629917
21
-4.4768935826771656
0
LINE
8
BLACK
6
CONTINUOUS
10
5.0819264960629917
20
-4.4768935826771656
11
5.081393818897638
21
-4.476360905511811
0
LINE
8
BLACK
6
CONTINUOUS
10
5.081393818897638
20
-4.476360905511811
11
5.0813188976377948
21
-4.4759842519685042
0
LINE
8
BLACK
6
CONTINUOUS
10
5.0813188976377948
20
-4.4759842519685042
11
5.0813188976377948
21
-4.4336614173228348
0
LINE
8
BLACK
6
CONTINUOUS
10
5.0813188976377948
20
-4.4336614173228348
11
5.005531496062992
21
-4.4336614173228348
0
LINE
8
BLACK
6
CONTINUOUS
10
5.005531496062992
20
-4.4336614173228348
11
5.0051548425196852
21
-4.4335864960629916
0
LINE
8
BLACK
6
CONTINUOUS
10
5.0051548425196852
20
-4.4335864960629916
11
5.0046221653543306
21
-4.4330538188976378
0
LINE
8
BLACK
6
CONTINUOUS
10
5.0046221653543306
20
-4.4330538188976378
11
5.0045472440944883
21
-4.4326771653543302
0
LINE
8
BLACK
6
CONTINUOUS
10
5.0045472440944883
20
-4.4326771653543302
11
5.004547283464567
21
-4.370669291338583
0
LINE
8
BLACK
6
CONTINUOUS
10
5.004547283464567
20
-4.370669291338583
11
5.0015944881889762
21
-4.370669291338583
0
LINE
8
BLACK
6
CONTINUOUS
10
5.0015944881889762
20
-4.370669291338583
11
5.0012178346456695
21
-4.3705943700787397
0
LINE
8
BLACK
6
CONTINUOUS
10
5.0012178346456695
20
-4.3705943700787397
11
5.0006851574803148
21
-4.370061692913386
0
LINE
8
BLACK
6
CONTINUOUS
10
5.0006851574803148
20
-4.370061692913386
11
5.0006851574803148
21
-4.3700616535433072
0
LINE
8
BLACK
6
CONTINUOUS
10
5.0006851574803148
20
-4.3700616535433072
11
5.0006102362204725
21
-4.3696850393700783
0
LINE
8
BLACK
6
CONTINUOUS
10
5.0006102362204725
20
-4.3696850393700783
11
5.0006102362204725
21
-4.2240157480314959
0
LINE
8
BLACK
6
CONTINUOUS
10
5.0006102362204725
20
-4.2240157480314959
11
5.0006851574803148
21
-4.2236390944881892
0
LINE
8
BLACK
6
CONTINUOUS
10
5.0006851574803148
20
-4.2236390944881892
11
5.0012178346456695
21
-4.2231064173228345
0
LINE
8
BLACK
6
CONTINUOUS
10
5.0012178346456695
20
-4.2231064173228345
11
5.0015944881889762
21
-4.2230314960629922
0
LINE
8
BLACK
6
CONTINUOUS
10
5.0015944881889762
20
-4.2230314960629922
11
5.0807283464566924
21
-4.2230314960629922
0
LINE
8
BLACK
6
CONTINUOUS
10
5.0807283464566924
20
-4.2230314960629922
11
5.081105
21
-4.2231064173228345
0
LINE
8
BLACK
6
CONTINUOUS
10
5.0025787401574799
20
-4.2249999999999996
11
5.0025787401574799
21
-4.3687007874015746
0
LINE
8
BLACK
6
CONTINUOUS
10
5.0025787401574799
20
-4.3687007874015746
11
5.0055315354330707
21
-4.3687007874015746
0
LINE
8
BLACK
6
CONTINUOUS
10
5.0055315354330707
20
-4.3687007874015746
11
5.0059081889763775
21
-4.368775708661417
0
LINE
8
BLACK
6
CONTINUOUS
10
5.0059081889763775
20
-4.368775708661417
11
5.0064408661417321
21
-4.3693083858267716
0
LINE
8
BLACK
6
CONTINUOUS
10
5.0064408661417321
20
-4.3693083858267716
11
5.0065157874015744
21
-4.3696850393700783
0
LINE
8
BLACK
6
CONTINUOUS
10
5.0065157874015744
20
-4.3696850393700783
11
5.0065157480314957
21
-4.4316929133858265
0
LINE
8
BLACK
6
CONTINUOUS
10
5.0065157480314957
20
-4.4316929133858265
11
5.0823031496062994
21
-4.4316929133858265
0
LINE
8
BLACK
6
CONTINUOUS
10
5.0823031496062994
20
-4.4316929133858265
11
5.0826798031496061
21
-4.4317678346456688
0
LINE
8
BLACK
6
CONTINUOUS
10
5.0826798031496061
20
-4.4317678346456688
11
5.0832124803149608
21
-4.4323005118110235
0
LINE
8
BLACK
6
CONTINUOUS
10
5.0832124803149608
20
-4.4323005118110235
11
5.0832874015748031
21
-4.4326771653543302
0
LINE
8
BLACK
6
CONTINUOUS
10
5.0832874015748031
20
-4.4326771653543302
11
5.0832874015748031
21
-4.4749999999999996
0
LINE
8
BLACK
6
CONTINUOUS
10
5.0832874015748031
20
-4.4749999999999996
11
5.3907677165354331
21
-4.4749999999999996
0
LINE
8
BLACK
6
CONTINUOUS
10
5.3907677165354331
20
-4.4749999999999996
11
5.3907677165354331
21
-4.4326771653543302
0
LINE
8
BLACK
6
CONTINUOUS
10
5.3907677165354331
20
-4.4326771653543302
11
5.3908426377952754
21
-4.4323005118110235
0
LINE
8
BLACK
6
CONTINUOUS
10
5.3908426377952754
20
-4.4323005118110235
11
5.39137531496063
21
-4.4317678346456688
0
LINE
8
BLACK
6
CONTINUOUS
10
5.39137531496063
20
-4.4317678346456688
11
5.3917519685039368
21
-4.4316929133858265
0
LINE
8
BLACK
6
CONTINUOUS
10
5.3917519685039368
20
-4.4316929133858265
11
5.4675393700787405
21
-4.4316929133858265
0
LINE
8
BLACK
6
CONTINUOUS
10
5.4675393700787405
20
-4.4316929133858265
11
5.4675393307086617
21
-4.3696850393700783
0
LINE
8
BLACK
6
CONTINUOUS
10
5.4675393307086617
20
-4.3696850393700783
11
5.467614251968504
21
-4.3693083858267716
0
LINE
8
BLACK
6
CONTINUOUS
10
5.467614251968504
20
-4.3693083858267716
11
5.4681469291338578
21
-4.368775708661417
0
LINE
8
BLACK
6
CONTINUOUS
10
5.4681469291338578
20
-4.368775708661417
11
5.4685235826771654
21
-4.3687007874015746
0
LINE
8
BLACK
6
CONTINUOUS
10
5.4685235826771654
20
-4.3687007874015746
11
5.4714763779527562
21
-4.3687007874015746
0
LINE
8
BLACK
6
CONTINUOUS
10
5.4714763779527562
20
-4.3687007874015746
11
5.4714763779527562
21
-4.2249999999999996
0
LINE
8
BLACK
6
CONTINUOUS
10
5.4714763779527562
20
-4.2249999999999996
11
5.3943110236220475
21
-4.2249999999999996
0
LINE
8
BLACK
6
CONTINUOUS
10
5.3943110236220475
20
-4.2249999999999996
11
5.3943110236220475
21
-4.2338582677165357
0
LINE
8
BLACK
6
CONTINUOUS
10
5.3943110236220475
20
-4.2338582677165357
11
5.3942361023622043
21
-4.2342349212598425
0
LINE
8
BLACK
6
CONTINUOUS
10
5.3942361023622043
20
-4.2342349212598425
11
5.3937034251968505
21
-4.2347675984251971
0
LINE
8
BLACK
6
CONTINUOUS
10
5.3937034251968505
20
-4.2347675984251971
11
5.3933267716535429
21
-4.2348425196850394
0
LINE
8
BLACK
6
CONTINUOUS
10
5.3933267716535429
20
-4.2348425196850394
11
5.0807283464566924
21
-4.2348425196850394
0
LINE
8
BLACK
6
CONTINUOUS
10
5.0807283464566924
20
-4.2348425196850394
11
5.0803516929133856
21
-4.2347675984251971
0
LINE
8
BLACK
6
CONTINUOUS
10
5.0803516929133856
20
-4.2347675984251971
11
5.079819015748031
21
-4.2342349212598425
0
LINE
8
BLACK
6
CONTINUOUS
10
5.079819015748031
20
-4.2342349212598425
11
5.0797440944881886
21
-4.2338582677165357
0
LINE
8
BLACK
6
CONTINUOUS
10
5.0797440944881886
20
-4.2338582677165357
11
5.0797440944881886
21
-4.2249999999999996
0
LINE
8
BLACK
6
CONTINUOUS
10
5.0797440944881886
20
-4.2249999999999996
11
5.0025787401574799
21
-4.2249999999999996
0
LINE
8
BLACK
6
CONTINUOUS
10
5.5618333464566927
20
-4.2231064173228345
11
5.5623660236220474
21
-4.2236390944881892
0
LINE
8
BLACK
6
CONTINUOUS
10
5.5623660236220474
20
-4.2236390944881892
11
5.5624409448818897
21
-4.2240157480314959
0
LINE
8
BLACK
6
CONTINUOUS
10
5.5624409448818897
20
-4.2240157480314959
11
5.5624409448818897
21
-4.2328740157480311
0
LINE
8
BLACK
6
CONTINUOUS
10
5.5624409448818897
20
-4.2328740157480311
11
5.9226771653543304
21
-4.2328740157480311
0
LINE
8
BLACK
6
CONTINUOUS
10
5.9226771653543304
20
-4.2328740157480311
11
5.9226771653543304
21
-4.2240157480314959
0
LINE
8
BLACK
6
CONTINUOUS
10
5.9226771653543304
20
-4.2240157480314959
11
5.9227520866141727
21
-4.2236390944881892
0
LINE
8
BLACK
6
CONTINUOUS
10
5.9227520866141727
20
-4.2236390944881892
11
5.9232847637795274
21
-4.2231064173228345
0
LINE
8
BLACK
6
CONTINUOUS
10
5.9232847637795274
20
-4.2231064173228345
11
5.9236614173228341
21
-4.2230314960629922
0
LINE
8
BLACK
6
CONTINUOUS
10
5.9236614173228341
20
-4.2230314960629922
11
6.0024015748031498
21
-4.2230314960629922
0
LINE
8
BLACK
6
CONTINUOUS
10
6.0024015748031498
20
-4.2230314960629922
11
6.0027782283464566
21
-4.2231064173228345
0
LINE
8
BLACK
6
CONTINUOUS
10
6.0027782283464566
20
-4.2231064173228345
11
6.0033109055118112
21
-4.2236390944881892
0
LINE
8
BLACK
6
CONTINUOUS
10
6.0033109055118112
20
-4.2236390944881892
11
6.0033858267716536
21
-4.2240157480314959
0
LINE
8
BLACK
6
CONTINUOUS
10
6.0033858267716536
20
-4.2240157480314959
11
6.0033858267716536
21
-4.3696850393700783
0
LINE
8
BLACK
6
CONTINUOUS
10
6.0033858267716536
20
-4.3696850393700783
11
6.0033109055118112
21
-4.3700616535433072
0
LINE
8
BLACK
6
CONTINUOUS
10
6.0033109055118112
20
-4.3700616535433072
11
6.0033109055118112
21
-4.370061692913386
0
LINE
8
BLACK
6
CONTINUOUS
10
6.0033109055118112
20
-4.370061692913386
11
6.0027782283464566
21
-4.3705943700787397
0
LINE
8
BLACK
6
CONTINUOUS
10
6.0027782283464566
20
-4.3705943700787397
11
6.0024015748031498
21
-4.370669291338583
0
LINE
8
BLACK
6
CONTINUOUS
10
6.0024015748031498
20
-4.370669291338583
11
5.9994488188976378
21
-4.3706692519685042
0
LINE
8
BLACK
6
CONTINUOUS
10
5.9994488188976378
20
-4.3706692519685042
11
5.9994488188976378
21
-4.4326771653543302
0
LINE
8
BLACK
6
CONTINUOUS
10
5.9994488188976378
20
-4.4326771653543302
11
5.9993738976377955
21
-4.4330538188976378
0
LINE
8
BLACK
6
CONTINUOUS
10
5.9993738976377955
20
-4.4330538188976378
11
5.9988412204724408
21
-4.4335864960629916
0
LINE
8
BLACK
6
CONTINUOUS
10
5.9988412204724408
20
-4.4335864960629916
11
5.9984645669291341
21
-4.4336614173228348
0
LINE
8
BLACK
6
CONTINUOUS
10
5.9984645669291341
20
-4.4336614173228348
11
5.9226771653543304
21
-4.4336614173228348
0
LINE
8
BLACK
6
CONTINUOUS
10
5.9226771653543304
20
-4.4336614173228348
11
5.9226771653543304
21
-4.4759842519685042
0
LINE
8
BLACK
6
CONTINUOUS
10
5.9226771653543304
20
-4.4759842519685042
11
5.9226022440944881
21
-4.476360905511811
0
LINE
8
BLACK
6
CONTINUOUS
10
5.9226022440944881
20
-4.476360905511811
11
5.9220695669291334
21
-4.4768935826771656
0
LINE
8
BLACK
6
CONTINUOUS
10
5.9220695669291334
20
-4.4768935826771656
11
5.9216929133858267
21
-4.476968503937008
0
LINE
8
BLACK
6
CONTINUOUS
10
5.9216929133858267
20
-4.476968503937008
11
5.5634251968503934
21
-4.476968503937008
0
LINE
8
BLACK
6
CONTINUOUS
10
5.5634251968503934
20
-4.476968503937008
11
5.5630485433070866
21
-4.4768935826771656
0
LINE
8
BLACK
6
CONTINUOUS
10
5.5630485433070866
20
-4.4768935826771656
11
5.562515866141732
21
-4.476360905511811
0
LINE
8
BLACK
6
CONTINUOUS
10
5.562515866141732
20
-4.476360905511811
11
5.5624409448818897
21
-4.4759842519685042
0
LINE
8
BLACK
6
CONTINUOUS
10
5.5624409448818897
20
-4.4759842519685042
11
5.5624409448818897
21
-4.4336614173228348
0
LINE
8
BLACK
6
CONTINUOUS
10
5.5624409448818897
20
-4.4336614173228348
11
5.4866535433070869
21
-4.4336614173228348
0
LINE
8
BLACK
6
CONTINUOUS
10
5.4866535433070869
20
-4.4336614173228348
11
5.4862768897637793
21
-4.4335864960629916
0
LINE
8
BLACK
6
CONTINUOUS
10
5.4862768897637793
20
-4.4335864960629916
11
5.4857442125984255
21
-4.4330538188976378
0
LINE
8
BLACK
6
CONTINUOUS
10
5.4857442125984255
20
-4.4330538188976378
11
5.4856692913385823
21
-4.4326771653543302
0
LINE
8
BLACK
6
CONTINUOUS
10
5.4856692913385823
20
-4.4326771653543302
11
5.4856692913385823
21
-4.3706692519685042
0
LINE
8
BLACK
6
CONTINUOUS
10
5.4856692913385823
20
-4.3706692519685042
11
5.4827165354330711
21
-4.370669291338583
0
LINE
8
BLACK
6
CONTINUOUS
10
5.4827165354330711
20
-4.370669291338583
11
5.4823398818897635
21
-4.3705943700787397
0
LINE
8
BLACK
6
CONTINUOUS
10
5.4823398818897635
20
-4.3705943700787397
11
5.4818072047244097
21
-4.370061692913386
0
LINE
8
BLACK
6
CONTINUOUS
10
5.4818072047244097
20
-4.370061692913386
11
5.4818072047244097
21
-4.3700616535433072
0
LINE
8
BLACK
6
CONTINUOUS
10
5.4818072047244097
20
-4.3700616535433072
11
5.4817322834645665
21
-4.3696850393700783
0
LINE
8
BLACK
6
CONTINUOUS
10
5.4817322834645665
20
-4.3696850393700783
11
5.4817322834645665
21
-4.2240157480314959
0
LINE
8
BLACK
6
CONTINUOUS
10
5.4817322834645665
20
-4.2240157480314959
11
5.4818072047244097
21
-4.2236390944881892
0
LINE
8
BLACK
6
CONTINUOUS
10
5.4818072047244097
20
-4.2236390944881892
11
5.4823398818897635
21
-4.2231064173228345
0
LINE
8
BLACK
6
CONTINUOUS
10
5.4823398818897635
20
-4.2231064173228345
11
5.4827165354330711
21
-4.2230314960629922
0
LINE
8
BLACK
6
CONTINUOUS
10
5.4827165354330711
20
-4.2230314960629922
11
5.561456692913386
21
-4.2230314960629922
0
LINE
8
BLACK
6
CONTINUOUS
10
5.561456692913386
20
-4.2230314960629922
11
5.5618333464566927
21
-4.2231064173228345
0
LINE
8
BLACK
6
CONTINUOUS
10
5.4837007874015748
20
-4.2249999999999996
11
5.4837007874015748
21
-4.3687007480314959
0
LINE
8
BLACK
6
CONTINUOUS
10
5.4837007874015748
20
-4.3687007480314959
11
5.4866535433070869
21
-4.3687007480314959
0
LINE
8
BLACK
6
CONTINUOUS
10
5.4866535433070869
20
-4.3687007480314959
11
5.4870301968503936
21
-4.3687756692913382
0
LINE
8
BLACK
6
CONTINUOUS
10
5.4870301968503936
20
-4.3687756692913382
11
5.4875628740157483
21
-4.3693083464566929
0
LINE
8
BLACK
6
CONTINUOUS
10
5.4875628740157483
20
-4.3693083464566929
11
5.4876377952755906
21
-4.3696849999999996
0
LINE
8
BLACK
6
CONTINUOUS
10
5.4876377952755906
20
-4.3696849999999996
11
5.4876377952755906
21
-4.4316929133858265
0
LINE
8
BLACK
6
CONTINUOUS
10
5.4876377952755906
20
-4.4316929133858265
11
5.5634251968503934
21
-4.4316929133858265
0
LINE
8
BLACK
6
CONTINUOUS
10
5.5634251968503934
20
-4.4316929133858265
11
5.563801850393701
21
-4.4317678346456688
0
LINE
8
BLACK
6
CONTINUOUS
10
5.563801850393701
20
-4.4317678346456688
11
5.5643345275590548
21
-4.4323005118110235
0
LINE
8
BLACK
6
CONTINUOUS
10
5.5643345275590548
20
-4.4323005118110235
11
5.5644094488188971
21
-4.4326771653543302
0
LINE
8
BLACK
6
CONTINUOUS
10
5.5644094488188971
20
-4.4326771653543302
11
5.5644094488188971
21
-4.4749999999999996
0
LINE
8
BLACK
6
CONTINUOUS
10
5.5644094488188971
20
-4.4749999999999996
11
5.920708661417323
21
-4.4749999999999996
0
LINE
8
BLACK
6
CONTINUOUS
10
5.920708661417323
20
-4.4749999999999996
11
5.920708661417323
21
-4.4326771653543302
0
LINE
8
BLACK
6
CONTINUOUS
10
5.920708661417323
20
-4.4326771653543302
11
5.9207835826771653
21
-4.4323005118110235
0
LINE
8
BLACK
6
CONTINUOUS
10
5.9207835826771653
20
-4.4323005118110235
11
5.92131625984252
21
-4.4317678346456688
0
LINE
8
BLACK
6
CONTINUOUS
10
5.92131625984252
20
-4.4317678346456688
11
5.9216929133858267
21
-4.4316929133858265
0
LINE
8
BLACK
6
CONTINUOUS
10
5.9216929133858267
20
-4.4316929133858265
11
5.9974803149606295
21
-4.4316929133858265
0
LINE
8
BLACK
6
CONTINUOUS
10
5.9974803149606295
20
-4.4316929133858265
11
5.9974803149606295
21
-4.3696849999999996
0
LINE
8
BLACK
6
CONTINUOUS
10
5.9974803149606295
20
-4.3696849999999996
11
5.9975552362204727
21
-4.3693083464566929
0
LINE
8
BLACK
6
CONTINUOUS
10
5.9975552362204727
20
-4.3693083464566929
11
5.9980879133858265
21
-4.3687756692913382
0
LINE
8
BLACK
6
CONTINUOUS
10
5.9980879133858265
20
-4.3687756692913382
11
5.9984645669291341
21
-4.3687007480314959
0
LINE
8
BLACK
6
CONTINUOUS
10
5.9984645669291341
20
-4.3687007480314959
11
6.0014173228346452
21
-4.3687007480314959
0
LINE
8
BLACK
6
CONTINUOUS
10
6.0014173228346452
20
-4.3687007480314959
11
6.0014173228346452
21
-4.2249999999999996
0
LINE
8
BLACK
6
CONTINUOUS
10
6.0014173228346452
20
-4.2249999999999996
11
5.9246456692913387
21
-4.2249999999999996
0
LINE
8
BLACK
6
CONTINUOUS
10
5.9246456692913387
20
-4.2249999999999996
11
5.9246456692913387
21
-4.2338582677165357
0
LINE
8
BLACK
6
CONTINUOUS
10
5.9246456692913387
20
-4.2338582677165357
11
5.9245707480314955
21
-4.2342349212598425
0
LINE
8
BLACK
6
CONTINUOUS
10
5.9245707480314955
20
-4.2342349212598425
11
5.9240380708661418
21
-4.2347675984251971
0
LINE
8
BLACK
6
CONTINUOUS
10
5.9240380708661418
20
-4.2347675984251971
11
5.9236614173228341
21
-4.2348425196850394
0
LINE
8
BLACK
6
CONTINUOUS
10
5.9236614173228341
20
-4.2348425196850394
11
5.561456692913386
21
-4.2348425196850394
0
LINE
8
BLACK
6
CONTINUOUS
10
5.561456692913386
20
-4.2348425196850394
11
5.5610800393700783
21
-4.2347675984251971
0
LINE
8
BLACK
6
CONTINUOUS
10
5.5610800393700783
20
-4.2347675984251971
11
5.5605473622047246
21
-4.2342349212598425
0
LINE
8
BLACK
6
CONTINUOUS
10
5.5605473622047246
20
-4.2342349212598425
11
5.5604724409448814
21
-4.2338582677165357
0
LINE
8
BLACK
6
CONTINUOUS
10
5.5604724409448814
20
-4.2338582677165357
11
5.5604724409448814
21
-4.2249999999999996
0
LINE
8
BLACK
6
CONTINUOUS
10
5.5604724409448814
20
-4.2249999999999996
11
5.4837007874015748
21
-4.2249999999999996
0
LINE
8
BLACK
6
CONTINUOUS
10
6.0921679921259839
20
-4.2231064173228345
11
6.0927006692913386
21
-4.2236390944881892
0
LINE
8
BLACK
6
CONTINUOUS
10
6.0927006692913386
20
-4.2236390944881892
11
6.0927755905511809
21
-4.2240157480314959
0
LINE
8
BLACK
6
CONTINUOUS
10
6.0927755905511809
20
-4.2240157480314959
11
6.0927755905511809
21
-4.2328740157480311
0
LINE
8
BLACK
6
CONTINUOUS
10
6.0927755905511809
20
-4.2328740157480311
11
6.4034055118110231
21
-4.2328740157480311
0
LINE
8
BLACK
6
CONTINUOUS
10
6.4034055118110231
20
-4.2328740157480311
11
6.4034055118110231
21
-4.2240157480314959
0
LINE
8
BLACK
6
CONTINUOUS
10
6.4034055118110231
20
-4.2240157480314959
11
6.4034804330708663
21
-4.2236390944881892
0
LINE
8
BLACK
6
CONTINUOUS
10
6.4034804330708663
20
-4.2236390944881892
11
6.4040131102362201
21
-4.2231064173228345
0
LINE
8
BLACK
6
CONTINUOUS
10
6.4040131102362201
20
-4.2231064173228345
11
6.4043897637795277
21
-4.2230314960629922
0
LINE
8
BLACK
6
CONTINUOUS
10
6.4043897637795277
20
-4.2230314960629922
11
6.4835236220472439
21
-4.2230314960629922
0
LINE
8
BLACK
6
CONTINUOUS
10
6.4835236220472439
20
-4.2230314960629922
11
6.4839002755905506
21
-4.2231064173228345
0
LINE
8
BLACK
6
CONTINUOUS
10
6.4839002755905506
20
-4.2231064173228345
11
6.4844329527559053
21
-4.2236390944881892
0
LINE
8
BLACK
6
CONTINUOUS
10
6.4844329527559053
20
-4.2236390944881892
11
6.4845078740157476
21
-4.2240157480314959
0
LINE
8
BLACK
6
CONTINUOUS
10
6.4845078740157476
20
-4.2240157480314959
11
6.4845078740157476
21
-4.3696850393700783
0
LINE
8
BLACK
6
CONTINUOUS
10
6.4845078740157476
20
-4.3696850393700783
11
6.4844329527559053
21
-4.3700616535433072
0
LINE
8
BLACK
6
CONTINUOUS
10
6.4844329527559053
20
-4.3700616535433072
11
6.4844329527559053
21
-4.370061692913386
0
LINE
8
BLACK
6
CONTINUOUS
10
6.4844329527559053
20
-4.370061692913386
11
6.4839002755905506
21
-4.3705943700787397
0
LINE
8
BLACK
6
CONTINUOUS
10
6.4839002755905506
20
-4.3705943700787397
11
6.4835236220472439
21
-4.370669291338583
0
LINE
8
BLACK
6
CONTINUOUS
10
6.4835236220472439
20
-4.370669291338583
11
6.4805708267716531
21
-4.370669291338583
0
LINE
8
BLACK
6
CONTINUOUS
10
6.4805708267716531
20
-4.370669291338583
11
6.4805708661417318
21
-4.4326771653543302
0
LINE
8
BLACK
6
CONTINUOUS
10
6.4805708661417318
20
-4.4326771653543302
11
6.4804959448818895
21
-4.4330538188976378
0
LINE
8
BLACK
6
CONTINUOUS
10
6.4804959448818895
20
-4.4330538188976378
11
6.4799632677165349
21
-4.4335864960629916
0
LINE
8
BLACK
6
CONTINUOUS
10
6.4799632677165349
20
-4.4335864960629916
11
6.4795866141732281
21
-4.4336614173228348
0
LINE
8
BLACK
6
CONTINUOUS
10
6.4795866141732281
20
-4.4336614173228348
11
6.4037992125984253
21
-4.4336614173228348
0
LINE
8
BLACK
6
CONTINUOUS
10
6.4037992125984253
20
-4.4336614173228348
11
6.4037992125984253
21
-4.4759842519685042
0
LINE
8
BLACK
6
CONTINUOUS
10
6.4037992125984253
20
-4.4759842519685042
11
6.4037242913385821
21
-4.476360905511811
0
LINE
8
BLACK
6
CONTINUOUS
10
6.4037242913385821
20
-4.476360905511811
11
6.4031916141732284
21
-4.4768935826771656
0
LINE
8
BLACK
6
CONTINUOUS
10
6.4031916141732284
20
-4.4768935826771656
11
6.4028149606299207
21
-4.476968503937008
0
LINE
8
BLACK
6
CONTINUOUS
10
6.4028149606299207
20
-4.476968503937008
11
6.0933661417322833
21
-4.476968503937008
0
LINE
8
BLACK
6
CONTINUOUS
10
6.0933661417322833
20
-4.476968503937008
11
6.0929894881889766
21
-4.4768935826771656
0
LINE
8
BLACK
6
CONTINUOUS
10
6.0929894881889766
20
-4.4768935826771656
11
6.0924568110236219
21
-4.476360905511811
0
LINE
8
BLACK
6
CONTINUOUS
10
6.0924568110236219
20
-4.476360905511811
11
6.0923818897637796
21
-4.4759842519685042
0
LINE
8
BLACK
6
CONTINUOUS
10
6.0923818897637796
20
-4.4759842519685042
11
6.0923818897637796
21
-4.4336614173228348
0
LINE
8
BLACK
6
CONTINUOUS
10
6.0923818897637796
20
-4.4336614173228348
11
6.0165944881889759
21
-4.4336614173228348
0
LINE
8
BLACK
6
CONTINUOUS
10
6.0165944881889759
20
-4.4336614173228348
11
6.0162178346456692
21
-4.4335864960629916
0
LINE
8
BLACK
6
CONTINUOUS
10
6.0162178346456692
20
-4.4335864960629916
11
6.0156851574803145
21
-4.4330538188976378
0
LINE
8
BLACK
6
CONTINUOUS
10
6.0156851574803145
20
-4.4330538188976378
11
6.0156102362204722
21
-4.4326771653543302
0
LINE
8
BLACK
6
CONTINUOUS
10
6.0156102362204722
20
-4.4326771653543302
11
6.0156102755905509
21
-4.370669291338583
0
LINE
8
BLACK
6
CONTINUOUS
10
6.0156102755905509
20
-4.370669291338583
11
6.0126574803149602
21
-4.370669291338583
0
LINE
8
BLACK
6
CONTINUOUS
10
6.0126574803149602
20
-4.370669291338583
11
6.0122808267716534
21
-4.3705943700787397
0
LINE
8
BLACK
6
CONTINUOUS
10
6.0122808267716534
20
-4.3705943700787397
11
6.0117481496062988
21
-4.370061692913386
0
LINE
8
BLACK
6
CONTINUOUS
10
6.0117481496062988
20
-4.370061692913386
11
6.0117481496062988
21
-4.3700616535433072
0
LINE
8
BLACK
6
CONTINUOUS
10
6.0117481496062988
20
-4.3700616535433072
11
6.0116732283464565
21
-4.3696850393700783
0
LINE
8
BLACK
6
CONTINUOUS
10
6.0116732283464565
20
-4.3696850393700783
11
6.0116732283464565
21
-4.2240157480314959
0
LINE
8
BLACK
6
CONTINUOUS
10
6.0116732283464565
20
-4.2240157480314959
11
6.0117481496062988
21
-4.2236390944881892
0
LINE
8
BLACK
6
CONTINUOUS
10
6.0117481496062988
20
-4.2236390944881892
11
6.0122808267716534
21
-4.2231064173228345
0
LINE
8
BLACK
6
CONTINUOUS
10
6.0122808267716534
20
-4.2231064173228345
11
6.0126574803149602
21
-4.2230314960629922
0
LINE
8
BLACK
6
CONTINUOUS
10
6.0126574803149602
20
-4.2230314960629922
11
6.0917913385826772
21
-4.2230314960629922
0
LINE
8
BLACK
6
CONTINUOUS
10
6.0917913385826772
20
-4.2230314960629922
11
6.0921679921259839
21
-4.2231064173228345
0
LINE
8
BLACK
6
CONTINUOUS
10
6.0136417322834648
20
-4.2249999999999996
11
6.0136417322834648
21
-4.3687007874015746
0
LINE
8
BLACK
6
CONTINUOUS
10
6.0136417322834648
20
-4.3687007874015746
11
6.0165945275590547
21
-4.3687007874015746
0
LINE
8
BLACK
6
CONTINUOUS
10
6.0165945275590547
20
-4.3687007874015746
11
6.0169711811023623
21
-4.368775708661417
0
LINE
8
BLACK
6
CONTINUOUS
10
6.0169711811023623
20
-4.368775708661417
11
6.0175038582677161
21
-4.3693083858267716
0
LINE
8
BLACK
6
CONTINUOUS
10
6.0175038582677161
20
-4.3693083858267716
11
6.0175787795275593
21
-4.3696850393700783
0
LINE
8
BLACK
6
CONTINUOUS
10
6.0175787795275593
20
-4.3696850393700783
11
6.0175787401574805
21
-4.4316929133858265
0
LINE
8
BLACK
6
CONTINUOUS
10
6.0175787401574805
20
-4.4316929133858265
11
6.0933661417322833
21
-4.4316929133858265
0
LINE
8
BLACK
6
CONTINUOUS
10
6.0933661417322833
20
-4.4316929133858265
11
6.09374279527559
21
-4.4317678346456688
0
LINE
8
BLACK
6
CONTINUOUS
10
6.09374279527559
20
-4.4317678346456688
11
6.0942754724409447
21
-4.4323005118110235
0
LINE
8
BLACK
6
CONTINUOUS
10
6.0942754724409447
20
-4.4323005118110235
11
6.094350393700787
21
-4.4326771653543302
0
LINE
8
BLACK
6
CONTINUOUS
10
6.094350393700787
20
-4.4326771653543302
11
6.094350393700787
21
-4.4749999999999996
0
LINE
8
BLACK
6
CONTINUOUS
10
6.094350393700787
20
-4.4749999999999996
11
6.401830708661417
21
-4.4749999999999996
0
LINE
8
BLACK
6
CONTINUOUS
10
6.401830708661417
20
-4.4749999999999996
11
6.401830708661417
21
-4.4326771653543302
0
LINE
8
BLACK
6
CONTINUOUS
10
6.401830708661417
20
-4.4326771653543302
11
6.4019056299212593
21
-4.4323005118110235
0
LINE
8
BLACK
6
CONTINUOUS
10
6.4019056299212593
20
-4.4323005118110235
11
6.402438307086614
21
-4.4317678346456688
0
LINE
8
BLACK
6
CONTINUOUS
10
6.402438307086614
20
-4.4317678346456688
11
6.4028149606299207
21
-4.4316929133858265
0
LINE
8
BLACK
6
CONTINUOUS
10
6.4028149606299207
20
-4.4316929133858265
11
6.4786023622047244
21
-4.4316929133858265
0
LINE
8
BLACK
6
CONTINUOUS
10
6.4786023622047244
20
-4.4316929133858265
11
6.4786023228346457
21
-4.3696850393700783
0
LINE
8
BLACK
6
CONTINUOUS
10
6.4786023228346457
20
-4.3696850393700783
11
6.478677244094488
21
-4.3693083858267716
0
LINE
8
BLACK
6
CONTINUOUS
10
6.478677244094488
20
-4.3693083858267716
11
6.4792099212598426
21
-4.368775708661417
0
LINE
8
BLACK
6
CONTINUOUS
10
6.4792099212598426
20
-4.368775708661417
11
6.4795865748031494
21
-4.3687007874015746
0
LINE
8
BLACK
6
CONTINUOUS
10
6.4795865748031494
20
-4.3687007874015746
11
6.4825393700787401
21
-4.3687007874015746
0
LINE
8
BLACK
6
CONTINUOUS
10
6.4825393700787401
20
-4.3687007874015746
11
6.4825393700787401
21
-4.2249999999999996
0
LINE
8
BLACK
6
CONTINUOUS
10
6.4825393700787401
20
-4.2249999999999996
11
6.4053740157480314
21
-4.2249999999999996
0
LINE
8
BLACK
6
CONTINUOUS
10
6.4053740157480314
20
-4.2249999999999996
11
6.4053740157480314
21
-4.2338582677165357
0
LINE
8
BLACK
6
CONTINUOUS
10
6.4053740157480314
20
-4.2338582677165357
11
6.4052990944881891
21
-4.2342349212598425
0
LINE
8
BLACK
6
CONTINUOUS
10
6.4052990944881891
20
-4.2342349212598425
11
6.4047664173228345
21
-4.2347675984251971
0
LINE
8
BLACK
6
CONTINUOUS
10
6.4047664173228345
20
-4.2347675984251971
11
6.4043897637795277
21
-4.2348425196850394
0
LINE
8
BLACK
6
CONTINUOUS
10
6.4043897637795277
20
-4.2348425196850394
11
6.0917913385826772
21
-4.2348425196850394
0
LINE
8
BLACK
6
CONTINUOUS
10
6.0917913385826772
20
-4.2348425196850394
11
6.0914146850393696
21
-4.2347675984251971
0
LINE
8
BLACK
6
CONTINUOUS
10
6.0914146850393696
20
-4.2347675984251971
11
6.0908820078740158
21
-4.2342349212598425
0
LINE
8
BLACK
6
CONTINUOUS
10
6.0908820078740158
20
-4.2342349212598425
11
6.0908070866141735
21
-4.2338582677165357
0
LINE
8
BLACK
6
CONTINUOUS
10
6.0908070866141735
20
-4.2338582677165357
11
6.0908070866141735
21
-4.2249999999999996
0
LINE
8
BLACK
6
CONTINUOUS
10
6.0908070866141735
20
-4.2249999999999996
11
6.0136417322834648
21
-4.2249999999999996
0
LINE
8
BLACK
6
CONTINUOUS
10
6.5732900393700788
20
-4.2231064173228345
11
6.5738227165354326
21
-4.2236390944881892
0
LINE
8
BLACK
6
CONTINUOUS
10
6.5738227165354326
20
-4.2236390944881892
11
6.5738976377952758
21
-4.2240157480314959
0
LINE
8
BLACK
6
CONTINUOUS
10
6.5738976377952758
20
-4.2240157480314959
11
6.5738976771653546
21
-4.2328740157480311
0
LINE
8
BLACK
6
CONTINUOUS
10
6.5738976771653546
20
-4.2328740157480311
11
6.7861023228346458
21
-4.2328740157480311
0
LINE
8
BLACK
6
CONTINUOUS
10
6.7861023228346458
20
-4.2328740157480311
11
6.7861023622047245
21
-4.2240157480314959
0
LINE
8
BLACK
6
CONTINUOUS
10
6.7861023622047245
20
-4.2240157480314959
11
6.7861772834645668
21
-4.2236390944881892
0
LINE
8
BLACK
6
CONTINUOUS
10
6.7861772834645668
20
-4.2236390944881892
11
6.7867099606299215
21
-4.2231064173228345
0
LINE
8
BLACK
6
CONTINUOUS
10
6.7867099606299215
20
-4.2231064173228345
11
6.7870866141732282
21
-4.2230314960629922
0
LINE
8
BLACK
6
CONTINUOUS
10
6.7870866141732282
20
-4.2230314960629922
11
6.8662204724409444
21
-4.2230314960629922
0
LINE
8
BLACK
6
CONTINUOUS
10
6.8662204724409444
20
-4.2230314960629922
11
6.866597125984252
21
-4.2231064173228345
0
LINE
8
BLACK
6
CONTINUOUS
10
6.866597125984252
20
-4.2231064173228345
11
6.8671298031496057
21
-4.2236390944881892
0
LINE
8
BLACK
6
CONTINUOUS
10
6.8671298031496057
20
-4.2236390944881892
11
6.867204724409449
21
-4.2240157480314959
0
LINE
8
BLACK
6
CONTINUOUS
10
6.867204724409449
20
-4.2240157480314959
11
6.867204724409449
21
-4.3696849999999996
0
LINE
8
BLACK
6
CONTINUOUS
10
6.867204724409449
20
-4.3696849999999996
11
6.8671298031496057
21
-4.3700616535433072
0
LINE
8
BLACK
6
CONTINUOUS
10
6.8671298031496057
20
-4.3700616535433072
11
6.866597125984252
21
-4.370594330708661
0
LINE
8
BLACK
6
CONTINUOUS
10
6.866597125984252
20
-4.370594330708661
11
6.8662204724409444
21
-4.3706692519685042
0
LINE
8
BLACK
6
CONTINUOUS
10
6.8662204724409444
20
-4.3706692519685042
11
6.8632677165354332
21
-4.3706692519685042
0
LINE
8
BLACK
6
CONTINUOUS
10
6.8632677165354332
20
-4.3706692519685042
11
6.8632677165354332
21
-4.4326771653543302
0
LINE
8
BLACK
6
CONTINUOUS
10
6.8632677165354332
20
-4.4326771653543302
11
6.86319279527559
21
-4.4330538188976378
0
LINE
8
BLACK
6
CONTINUOUS
10
6.86319279527559
20
-4.4330538188976378
11
6.8626601181102362
21
-4.4335864960629916
0
LINE
8
BLACK
6
CONTINUOUS
10
6.8626601181102362
20
-4.4335864960629916
11
6.8622834645669286
21
-4.4336614173228348
0
LINE
8
BLACK
6
CONTINUOUS
10
6.8622834645669286
20
-4.4336614173228348
11
6.7864960629921258
21
-4.4336614173228348
0
LINE
8
BLACK
6
CONTINUOUS
10
6.7864960629921258
20
-4.4336614173228348
11
6.7864960629921258
21
-4.4759842519685042
0
LINE
8
BLACK
6
CONTINUOUS
10
6.7864960629921258
20
-4.4759842519685042
11
6.7864211417322835
21
-4.476360905511811
0
LINE
8
BLACK
6
CONTINUOUS
10
6.7864211417322835
20
-4.476360905511811
11
6.7858884645669288
21
-4.4768935826771656
0
LINE
8
BLACK
6
CONTINUOUS
10
6.7858884645669288
20
-4.4768935826771656
11
6.7855118110236221
21
-4.476968503937008
0
LINE
8
BLACK
6
CONTINUOUS
10
6.7855118110236221
20
-4.476968503937008
11
6.5744881889763782
21
-4.476968503937008
0
LINE
8
BLACK
6
CONTINUOUS
10
6.5744881889763782
20
-4.476968503937008
11
6.5741115354330706
21
-4.4768935826771656
0
LINE
8
BLACK
6
CONTINUOUS
10
6.5741115354330706
20
-4.4768935826771656
11
6.5735788582677168
21
-4.476360905511811
0
LINE
8
BLACK
6
CONTINUOUS
10
6.5735788582677168
20
-4.476360905511811
11
6.5735039370078736
21
-4.4759842519685042
0
LINE
8
BLACK
6
CONTINUOUS
10
6.5735039370078736
20
-4.4759842519685042
11
6.5735039370078736
21
-4.4336614173228348
0
LINE
8
BLACK
6
CONTINUOUS
10
6.5735039370078736
20
-4.4336614173228348
11
6.4977165354330708
21
-4.4336614173228348
0
LINE
8
BLACK
6
CONTINUOUS
10
6.4977165354330708
20
-4.4336614173228348
11
6.4973398818897632
21
-4.4335864960629916
0
LINE
8
BLACK
6
CONTINUOUS
10
6.4973398818897632
20
-4.4335864960629916
11
6.4968072047244094
21
-4.4330538188976378
0
LINE
8
BLACK
6
CONTINUOUS
10
6.4968072047244094
20
-4.4330538188976378
11
6.4967322834645671
21
-4.4326771653543302
0
LINE
8
BLACK
6
CONTINUOUS
10
6.4967322834645671
20
-4.4326771653543302
11
6.4967322834645671
21
-4.3706692519685042
0
LINE
8
BLACK
6
CONTINUOUS
10
6.4967322834645671
20
-4.3706692519685042
11
6.4937795275590551
21
-4.3706692519685042
0
LINE
8
BLACK
6
CONTINUOUS
10
6.4937795275590551
20
-4.3706692519685042
11
6.4934028740157475
21
-4.370594330708661
0
LINE
8
BLACK
6
CONTINUOUS
10
6.4934028740157475
20
-4.370594330708661
11
6.4928701968503937
21
-4.3700616535433072
0
LINE
8
BLACK
6
CONTINUOUS
10
6.4928701968503937
20
-4.3700616535433072
11
6.4927952755905514
21
-4.3696849999999996
0
LINE
8
BLACK
6
CONTINUOUS
10
6.4927952755905514
20
-4.3696849999999996
11
6.4927952755905514
21
-4.2240157480314959
0
LINE
8
BLACK
6
CONTINUOUS
10
6.4927952755905514
20
-4.2240157480314959
11
6.4928701968503937
21
-4.2236390944881892
0
LINE
8
BLACK
6
CONTINUOUS
10
6.4928701968503937
20
-4.2236390944881892
11
6.4934028740157475
21
-4.2231064173228345
0
LINE
8
BLACK
6
CONTINUOUS
10
6.4934028740157475
20
-4.2231064173228345
11
6.4937795275590551
21
-4.2230314960629922
0
LINE
8
BLACK
6
CONTINUOUS
10
6.4937795275590551
20
-4.2230314960629922
11
6.5729133858267712
21
-4.2230314960629922
0
LINE
8
BLACK
6
CONTINUOUS
10
6.5729133858267712
20
-4.2230314960629922
11
6.5732900393700788
21
-4.2231064173228345
0
LINE
8
BLACK
6
CONTINUOUS
10
6.4947637795275588
20
-4.2249999999999996
11
6.4947637795275588
21
-4.3687007480314959
0
LINE
8
BLACK
6
CONTINUOUS
10
6.4947637795275588
20
-4.3687007480314959
11
6.4977165354330708
21
-4.3687007874015746
0
LINE
8
BLACK
6
CONTINUOUS
10
6.4977165354330708
20
-4.3687007874015746
11
6.4980931889763776
21
-4.368775708661417
0
LINE
8
BLACK
6
CONTINUOUS
10
6.4980931889763776
20
-4.368775708661417
11
6.4986258661417322
21
-4.3693083858267716
0
LINE
8
BLACK
6
CONTINUOUS
10
6.4986258661417322
20
-4.3693083858267716
11
6.4987007874015745
21
-4.3696850393700783
0
LINE
8
BLACK
6
CONTINUOUS
10
6.4987007874015745
20
-4.3696850393700783
11
6.4987007874015745
21
-4.4316929133858265
0
LINE
8
BLACK
6
CONTINUOUS
10
6.4987007874015745
20
-4.4316929133858265
11
6.5744881889763782
21
-4.4316929133858265
0
LINE
8
BLACK
6
CONTINUOUS
10
6.5744881889763782
20
-4.4316929133858265
11
6.5748648425196849
21
-4.4317678346456688
0
LINE
8
BLACK
6
CONTINUOUS
10
6.5748648425196849
20
-4.4317678346456688
11
6.5753975196850396
21
-4.4323005118110235
0
LINE
8
BLACK
6
CONTINUOUS
10
6.5753975196850396
20
-4.4323005118110235
11
6.5754724409448819
21
-4.4326771653543302
0
LINE
8
BLACK
6
CONTINUOUS
10
6.5754724409448819
20
-4.4326771653543302
11
6.5754724409448819
21
-4.4749999999999996
0
LINE
8
BLACK
6
CONTINUOUS
10
6.5754724409448819
20
-4.4749999999999996
11
6.7845275590551184
21
-4.4749999999999996
0
LINE
8
BLACK
6
CONTINUOUS
10
6.7845275590551184
20
-4.4749999999999996
11
6.7845275590551184
21
-4.4326771653543302
0
LINE
8
BLACK
6
CONTINUOUS
10
6.7845275590551184
20
-4.4326771653543302
11
6.7846024803149607
21
-4.4323005118110235
0
LINE
8
BLACK
6
CONTINUOUS
10
6.7846024803149607
20
-4.4323005118110235
11
6.7851351574803145
21
-4.4317678346456688
0
LINE
8
BLACK
6
CONTINUOUS
10
6.7851351574803145
20
-4.4317678346456688
11
6.7855118110236221
21
-4.4316929133858265
0
LINE
8
BLACK
6
CONTINUOUS
10
6.7855118110236221
20
-4.4316929133858265
11
6.8612992125984249
21
-4.4316929133858265
0
LINE
8
BLACK
6
CONTINUOUS
10
6.8612992125984249
20
-4.4316929133858265
11
6.8612992125984249
21
-4.3696850393700783
0
LINE
8
BLACK
6
CONTINUOUS
10
6.8612992125984249
20
-4.3696850393700783
11
6.8613741338582672
21
-4.3693083858267716
0
LINE
8
BLACK
6
CONTINUOUS
10
6.8613741338582672
20
-4.3693083858267716
11
6.8619068110236219
21
-4.368775708661417
0
LINE
8
BLACK
6
CONTINUOUS
10
6.8619068110236219
20
-4.368775708661417
11
6.8622834645669286
21
-4.3687007874015746
0
LINE
8
BLACK
6
CONTINUOUS
10
6.8622834645669286
20
-4.3687007874015746
11
6.8652362204724406
21
-4.3687007480314959
0
LINE
8
BLACK
6
CONTINUOUS
10
6.8652362204724406
20
-4.3687007480314959
11
6.8652362204724406
21
-4.2249999999999996
0
LINE
8
BLACK
6
CONTINUOUS
10
6.8652362204724406
20
-4.2249999999999996
11
6.7880708661417319
21
-4.2249999999999996
0
LINE
8
BLACK
6
CONTINUOUS
10
6.7880708661417319
20
-4.2249999999999996
11
6.7880708267716532
21
-4.2338582677165357
0
LINE
8
BLACK
6
CONTINUOUS
10
6.7880708267716532
20
-4.2338582677165357
11
6.7879959055118109
21
-4.2342349212598425
0
LINE
8
BLACK
6
CONTINUOUS
10
6.7879959055118109
20
-4.2342349212598425
11
6.7874632283464562
21
-4.2347675984251971
0
LINE
8
BLACK
6
CONTINUOUS
10
6.7874632283464562
20
-4.2347675984251971
11
6.7870865748031495
21
-4.2348425196850394
0
LINE
8
BLACK
6
CONTINUOUS
10
6.7870865748031495
20
-4.2348425196850394
11
6.57291342519685
21
-4.2348425196850394
0
LINE
8
BLACK
6
CONTINUOUS
10
6.57291342519685
20
-4.2348425196850394
11
6.5725367716535432
21
-4.2347675984251971
0
LINE
8
BLACK
6
CONTINUOUS
10
6.5725367716535432
20
-4.2347675984251971
11
6.5720040944881886
21
-4.2342349212598425
0
LINE
8
BLACK
6
CONTINUOUS
10
6.5720040944881886
20
-4.2342349212598425
11
6.5719291732283462
21
-4.2338582677165357
0
LINE
8
BLACK
6
CONTINUOUS
10
6.5719291732283462
20
-4.2338582677165357
11
6.5719291338582675
21
-4.2249999999999996
0
LINE
8
BLACK
6
CONTINUOUS
10
6.5719291338582675
20
-4.2249999999999996
11
6.4947637795275588
21
-4.2249999999999996
0
CIRCLE
8
BLACK
10
4.4424665354330708
20
-4.6279311023622043
40
0.0068897637795276
0
CIRCLE
8
BLACK
10
4.5424665354330704
20
-4.6279311023622043
40
0.0068897637795276
0
CIRCLE
8
BLACK
10
4.6424664960629922
20
-4.6279311023622043
40
0.0068897637795276
0
CIRCLE
8
BLACK
10
4.7424665354330706
20
-4.6279311023622043
40
0.0068897637795276
0
CIRCLE
8
BLACK
10
4.8424665354330712
20
-4.6279311023622043
40
0.0068897637795276
0
CIRCLE
8
BLACK
10
4.9424665354330708
20
-4.6279311023622043
40
0.0068897637795276
0
CIRCLE
8
BLACK
10
5.0424665354330704
20
-4.6279311023622043
40
0.0068897637795276
0
CIRCLE
8
BLACK
10
5.1424665748031497
20
-4.6279311023622043
40
0.0068897637795276
0
CIRCLE
8
BLACK
10
5.8424665354330712
20
-4.6279311023622043
40
0.0068897637795276
0
CIRCLE
8
BLACK
10
5.942466496062992
20
-4.6279311023622043
40
0.0068897637795276
0
CIRCLE
8
BLACK
10
6.0424665748031492
20
-4.6279311023622043
40
0.0068897637795276
0
CIRCLE
8
BLACK
10
6.142466535433071
20
-4.6279311023622043
40
0.0068897637795276
0
CIRCLE
8
BLACK
10
6.2424665354330706
20
-4.6279311023622043
40
0.0068897637795276
0
CIRCLE
8
BLACK
10
6.3424665354330712
20
-4.6279311023622043
40
0.0068897637795276
0
CIRCLE
8
BLACK
10
6.442466496062992
20
-4.6279311023622043
40
0.0068897637795276
0
CIRCLE
8
BLACK
10
6.5424665354330704
20
-4.6279311023622043
40
0.0068897637795276
0
CIRCLE
8
BLACK
10
6.642466535433071
20
-4.6279311023622043
40
0.0068897637795276
0
CIRCLE
8
BLACK
10
6.7424665354330706
20
-4.6279311023622043
40
0.0068897637795276
0
CIRCLE
8
BLACK
10
5.5800000000000001
20
-4.6626377952755904
40
0.0068897637795276
0
CIRCLE
8
BLACK
10
5.4799999999999995
20
-4.6626377952755904
40
0.0068897637795276
0
CIRCLE
8
BLACK
10
5.3800000393700786
20
-4.6626377952755904
40
0.0068897637795276
0
CIRCLE
8
BLACK
10
4.4424665354330708
20
-4.6279311023622043
40
0.0068897637795276
0
CIRCLE
8
BLACK
10
4.5424665354330704
20
-4.6279311023622043
40
0.0068897637795276
0
CIRCLE
8
BLACK
10
4.6424664960629922
20
-4.6279311023622043
40
0.0068897637795276
0
CIRCLE
8
BLACK
10
4.7424665354330706
20
-4.6279311023622043
40
0.0068897637795276
0
CIRCLE
8
BLACK
10
4.8424665354330712
20
-4.6279311023622043
40
0.0068897637795276
0
CIRCLE
8
BLACK
10
4.9424665354330708
20
-4.6279311023622043
40
0.0068897637795276
0
CIRCLE
8
BLACK
10
5.0424665354330704
20
-4.6279311023622043
40
0.0068897637795276
0
CIRCLE
8
BLACK
10
5.1424665748031497
20
-4.6279311023622043
40
0.0068897637795276
0
CIRCLE
8
BLACK
10
5.8424665354330712
20
-4.6279311023622043
40
0.0068897637795276
0
CIRCLE
8
BLACK
10
5.942466496062992
20
-4.6279311023622043
40
0.0068897637795276
0
CIRCLE
8
BLACK
10
6.0424665748031492
20
-4.6279311023622043
40
0.0068897637795276
0
CIRCLE
8
BLACK
10
6.142466535433071
20
-4.6279311023622043
40
0.0068897637795276
0
CIRCLE
8
BLACK
10
6.2424665354330706
20
-4.6279311023622043
40
0.0068897637795276
0
CIRCLE
8
BLACK
10
6.3424665354330712
20
-4.6279311023622043
40
0.0068897637795276
0
CIRCLE
8
BLACK
10
6.442466496062992
20
-4.6279311023622043
40
0.0068897637795276
0
CIRCLE
8
BLACK
10
6.5424665354330704
20
-4.6279311023622043
40
0.0068897637795276
0
CIRCLE
8
BLACK
10
6.642466535433071
20
-4.6279311023622043
40
0.0068897637795276
0
CIRCLE
8
BLACK
10
6.7424665354330706
20
-4.6279311023622043
40
0.0068897637795276
0
CIRCLE
8
BLACK
10
5.5800000000000001
20
-4.6626377952755904
40
0.0068897637795276
0
CIRCLE
8
BLACK
10
5.4799999999999995
20
-4.6626377952755904
40
0.0068897637795276
0
CIRCLE
8
BLACK
10
5.3800000393700786
20
-4.6626377952755904
40
0.0068897637795276
  0
ENDSEC
  0
EOF
