  0
SECTION
  2
HEADER
  9
$ANGBASE
  50
0.0
  9
$ANGDIR
  70
1
  9
$MEASUREMENT
  70
0
  0
ENDSEC
  0
SECTION
  2
TABLES
  0
TABLE
  2
LTYPE
  70
4
  0
LTYPE
  5
40F
  2
CONTINUOUS
  70
0
  3
Solid line
  72
65
  73
0
  40
0.0
  0
LTYPE
  5
410
  2
DASHDOT
 70
0
  3
Dash Dot ____ _ ____ _
 72
65
 73
4
 40
2.0
 49
1.25
 49
-0.25
 49
0.25
 49
-0.25
  0
LTYPE
  5
411
  2
DASHED
 70
0
  3
Dashed __ __ __ __ __
 72
65
 73
2
 40
0.75
 49
0.5
 49
-0.25
  0
LTYPE
  5
43B
  2
DOTTED
 70
0
  3
Dotted .  .  .  .
 72
65
 73
2
 40
0.2
 49
0.0
 49
-0.2
  0
ENDTAB
  0
TABLE
  2
STYLE
  70
4
  0
STYLE
  2
KICAD
  70
0
  40
0
  41
1
  42
1
  50
0
  71
0
  3
isocp.shx
  0
STYLE
  2
KICADB
  70
0
  40
0
  41
1
  42
1
  50
0
  71
0
  3
isocp.shx
  0
STYLE
  2
KICADI
  70
0
  40
0
  41
1
  42
1
  50
15
  71
0
  3
isocp.shx
  0
STYLE
  2
KICADBI
  70
0
  40
0
  41
1
  42
1
  50
15
  71
0
  3
isocp.shx
  0
ENDTAB
  0
TABLE
  2
LAYER
  70
1
  0
LAYER
  2
BLACK
  70
0
  62
7
  6
CONTINUOUS
  0
ENDTAB
  0
ENDSEC
  0
SECTION
  2
ENTITIES
0
LINE
8
BLACK
6
CONTINUOUS
10
5.6142178740157478
20
-4.6273545669291334
11
5.6148564960629921
21
-4.6277812992125984
0
LINE
8
BLACK
6
CONTINUOUS
10
5.6148564960629921
20
-4.6277812992125984
11
5.6152832283464562
21
-4.6284199212598427
0
LINE
8
BLACK
6
CONTINUOUS
10
5.6152832283464562
20
-4.6284199212598427
11
5.6154330708661417
21
-4.6291732283464562
0
LINE
8
BLACK
6
CONTINUOUS
10
5.6154330708661417
20
-4.6291732283464562
11
5.6154330708661417
21
-4.6961023622047247
0
LINE
8
BLACK
6
CONTINUOUS
10
5.6154330708661417
20
-4.6961023622047247
11
5.6152832283464562
21
-4.6968556692913381
0
LINE
8
BLACK
6
CONTINUOUS
10
5.6152832283464562
20
-4.6968556692913381
11
5.6148564960629921
21
-4.6974942913385824
0
LINE
8
BLACK
6
CONTINUOUS
10
5.6148564960629921
20
-4.6974942913385824
11
5.6142178740157478
21
-4.6979210236220474
0
LINE
8
BLACK
6
CONTINUOUS
10
5.6142178740157478
20
-4.6979210236220474
11
5.6134645669291334
21
-4.6980708661417321
0
LINE
8
BLACK
6
CONTINUOUS
10
5.6134645669291334
20
-4.6980708661417321
11
5.5465354330708658
21
-4.6980708661417321
0
LINE
8
BLACK
6
CONTINUOUS
10
5.5465354330708658
20
-4.6980708661417321
11
5.5457821259842515
21
-4.6979210236220474
0
LINE
8
BLACK
6
CONTINUOUS
10
5.5457821259842515
20
-4.6979210236220474
11
5.5451435039370081
21
-4.6974942913385824
0
LINE
8
BLACK
6
CONTINUOUS
10
5.5451435039370081
20
-4.6974942913385824
11
5.544716771653543
21
-4.6968556692913381
0
LINE
8
BLACK
6
CONTINUOUS
10
5.544716771653543
20
-4.6968556692913381
11
5.5445669291338584
21
-4.6961023622047247
0
LINE
8
BLACK
6
CONTINUOUS
10
5.5445669291338584
20
-4.6961023622047247
11
5.5445669291338584
21
-4.6291732283464562
0
LINE
8
BLACK
6
CONTINUOUS
10
5.5445669291338584
20
-4.6291732283464562
11
5.544716771653543
21
-4.6284199212598427
0
LINE
8
BLACK
6
CONTINUOUS
10
5.544716771653543
20
-4.6284199212598427
11
5.5451435039370081
21
-4.6277812992125984
0
LINE
8
BLACK
6
CONTINUOUS
10
5.5451435039370081
20
-4.6277812992125984
11
5.5457821259842515
21
-4.6273545669291334
0
LINE
8
BLACK
6
CONTINUOUS
10
5.5457821259842515
20
-4.6273545669291334
11
5.5465354330708658
21
-4.6272047244094487
0
LINE
8
BLACK
6
CONTINUOUS
10
5.5465354330708658
20
-4.6272047244094487
11
5.6134645669291334
21
-4.6272047244094487
0
LINE
8
BLACK
6
CONTINUOUS
10
5.6134645669291334
20
-4.6272047244094487
11
5.6142178740157478
21
-4.6273545669291334
0
LINE
8
BLACK
6
CONTINUOUS
10
5.3902856692913383
20
-4.628730472440945
11
5.3967030314960631
21
-4.6313886220472442
0
LINE
8
BLACK
6
CONTINUOUS
10
5.3967030314960631
20
-4.6313886220472442
11
5.402478503937008
21
-4.6352476771653546
0
LINE
8
BLACK
6
CONTINUOUS
10
5.402478503937008
20
-4.6352476771653546
11
5.4073901181102357
21
-4.6401592913385823
0
LINE
8
BLACK
6
CONTINUOUS
10
5.4073901181102357
20
-4.6401592913385823
11
5.4112491732283461
21
-4.6459347637795272
0
LINE
8
BLACK
6
CONTINUOUS
10
5.4112491732283461
20
-4.6459347637795272
11
5.4139073228346453
21
-4.652352125984252
0
LINE
8
BLACK
6
CONTINUOUS
10
5.4139073228346453
20
-4.652352125984252
11
5.4152624409448817
21
-4.6591647637795273
0
LINE
8
BLACK
6
CONTINUOUS
10
5.4152624409448817
20
-4.6591647637795273
11
5.4152624409448817
21
-4.6661108267716536
0
LINE
8
BLACK
6
CONTINUOUS
10
5.4152624409448817
20
-4.6661108267716536
11
5.4139073228346453
21
-4.6729234645669289
0
LINE
8
BLACK
6
CONTINUOUS
10
5.4139073228346453
20
-4.6729234645669289
11
5.4112491732283461
21
-4.6793408267716536
0
LINE
8
BLACK
6
CONTINUOUS
10
5.4112491732283461
20
-4.6793408267716536
11
5.4073901181102357
21
-4.6851162992125985
0
LINE
8
BLACK
6
CONTINUOUS
10
5.4073901181102357
20
-4.6851162992125985
11
5.402478503937008
21
-4.6900279133858263
0
LINE
8
BLACK
6
CONTINUOUS
10
5.402478503937008
20
-4.6900279133858263
11
5.3967030314960631
21
-4.6938869685039366
0
LINE
8
BLACK
6
CONTINUOUS
10
5.3967030314960631
20
-4.6938869685039366
11
5.3902856692913383
21
-4.6965451181102358
0
LINE
8
BLACK
6
CONTINUOUS
10
5.3902856692913383
20
-4.6965451181102358
11
5.383473031496063
21
-4.6979002362204723
0
LINE
8
BLACK
6
CONTINUOUS
10
5.383473031496063
20
-4.6979002362204723
11
5.3765269685039367
21
-4.6979002362204723
0
LINE
8
BLACK
6
CONTINUOUS
10
5.3765269685039367
20
-4.6979002362204723
11
5.3697143307086614
21
-4.6965451181102358
0
LINE
8
BLACK
6
CONTINUOUS
10
5.3697143307086614
20
-4.6965451181102358
11
5.3632969685039367
21
-4.6938869685039366
0
LINE
8
BLACK
6
CONTINUOUS
10
5.3632969685039367
20
-4.6938869685039366
11
5.3575214960629918
21
-4.6900279133858263
0
LINE
8
BLACK
6
CONTINUOUS
10
5.3575214960629918
20
-4.6900279133858263
11
5.3526098818897641
21
-4.6851162992125985
0
LINE
8
BLACK
6
CONTINUOUS
10
5.3526098818897641
20
-4.6851162992125985
11
5.3487508267716537
21
-4.6793408267716536
0
LINE
8
BLACK
6
CONTINUOUS
10
5.3487508267716537
20
-4.6793408267716536
11
5.3460926771653545
21
-4.6729234645669289
0
LINE
8
BLACK
6
CONTINUOUS
10
5.3460926771653545
20
-4.6729234645669289
11
5.344737559055118
21
-4.6661108267716536
0
LINE
8
BLACK
6
CONTINUOUS
10
5.344737559055118
20
-4.6661108267716536
11
5.344737559055118
21
-4.6591647637795273
0
LINE
8
BLACK
6
CONTINUOUS
10
5.344737559055118
20
-4.6591647637795273
11
5.3460926771653545
21
-4.652352125984252
0
LINE
8
BLACK
6
CONTINUOUS
10
5.3460926771653545
20
-4.652352125984252
11
5.3487508267716537
21
-4.6459347637795272
0
LINE
8
BLACK
6
CONTINUOUS
10
5.3487508267716537
20
-4.6459347637795272
11
5.3526098818897641
21
-4.6401592913385823
0
LINE
8
BLACK
6
CONTINUOUS
10
5.3526098818897641
20
-4.6401592913385823
11
5.3575214960629918
21
-4.6352476771653546
0
LINE
8
BLACK
6
CONTINUOUS
10
5.3575214960629918
20
-4.6352476771653546
11
5.3632969685039367
21
-4.6313886220472442
0
LINE
8
BLACK
6
CONTINUOUS
10
5.3632969685039367
20
-4.6313886220472442
11
5.3697143307086614
21
-4.628730472440945
0
LINE
8
BLACK
6
CONTINUOUS
10
5.3697143307086614
20
-4.628730472440945
11
5.3765269685039367
21
-4.6273753543307086
0
LINE
8
BLACK
6
CONTINUOUS
10
5.3765269685039367
20
-4.6273753543307086
11
5.383473031496063
21
-4.6273753543307086
0
LINE
8
BLACK
6
CONTINUOUS
10
5.383473031496063
20
-4.6273753543307086
11
5.3902856692913383
21
-4.628730472440945
0
LINE
8
BLACK
6
CONTINUOUS
10
5.4902856692913389
20
-4.628730472440945
11
5.4967030314960628
21
-4.6313886220472442
0
LINE
8
BLACK
6
CONTINUOUS
10
5.4967030314960628
20
-4.6313886220472442
11
5.5024785039370077
21
-4.6352476771653546
0
LINE
8
BLACK
6
CONTINUOUS
10
5.5024785039370077
20
-4.6352476771653546
11
5.5073901181102363
21
-4.6401592913385823
0
LINE
8
BLACK
6
CONTINUOUS
10
5.5073901181102363
20
-4.6401592913385823
11
5.5112491732283466
21
-4.6459347637795272
0
LINE
8
BLACK
6
CONTINUOUS
10
5.5112491732283466
20
-4.6459347637795272
11
5.5139073228346458
21
-4.652352125984252
0
LINE
8
BLACK
6
CONTINUOUS
10
5.5139073228346458
20
-4.652352125984252
11
5.5152624409448814
21
-4.6591647637795273
0
LINE
8
BLACK
6
CONTINUOUS
10
5.5152624409448814
20
-4.6591647637795273
11
5.5152624409448814
21
-4.6661108267716536
0
LINE
8
BLACK
6
CONTINUOUS
10
5.5152624409448814
20
-4.6661108267716536
11
5.5139073228346458
21
-4.6729234645669289
0
LINE
8
BLACK
6
CONTINUOUS
10
5.5139073228346458
20
-4.6729234645669289
11
5.5112491732283466
21
-4.6793408267716536
0
LINE
8
BLACK
6
CONTINUOUS
10
5.5112491732283466
20
-4.6793408267716536
11
5.5073901181102363
21
-4.6851162992125985
0
LINE
8
BLACK
6
CONTINUOUS
10
5.5073901181102363
20
-4.6851162992125985
11
5.5024785039370077
21
-4.6900279133858263
0
LINE
8
BLACK
6
CONTINUOUS
10
5.5024785039370077
20
-4.6900279133858263
11
5.4967030314960628
21
-4.6938869685039366
0
LINE
8
BLACK
6
CONTINUOUS
10
5.4967030314960628
20
-4.6938869685039366
11
5.4902856692913389
21
-4.6965451181102358
0
LINE
8
BLACK
6
CONTINUOUS
10
5.4902856692913389
20
-4.6965451181102358
11
5.4834730314960627
21
-4.6979002362204723
0
LINE
8
BLACK
6
CONTINUOUS
10
5.4834730314960627
20
-4.6979002362204723
11
5.4765269685039373
21
-4.6979002362204723
0
LINE
8
BLACK
6
CONTINUOUS
10
5.4765269685039373
20
-4.6979002362204723
11
5.4697143307086611
21
-4.6965451181102358
0
LINE
8
BLACK
6
CONTINUOUS
10
5.4697143307086611
20
-4.6965451181102358
11
5.4632969685039372
21
-4.6938869685039366
0
LINE
8
BLACK
6
CONTINUOUS
10
5.4632969685039372
20
-4.6938869685039366
11
5.4575214960629923
21
-4.6900279133858263
0
LINE
8
BLACK
6
CONTINUOUS
10
5.4575214960629923
20
-4.6900279133858263
11
5.4526098818897637
21
-4.6851162992125985
0
LINE
8
BLACK
6
CONTINUOUS
10
5.4526098818897637
20
-4.6851162992125985
11
5.4487508267716533
21
-4.6793408267716536
0
LINE
8
BLACK
6
CONTINUOUS
10
5.4487508267716533
20
-4.6793408267716536
11
5.4460926771653542
21
-4.6729234645669289
0
LINE
8
BLACK
6
CONTINUOUS
10
5.4460926771653542
20
-4.6729234645669289
11
5.4447375590551177
21
-4.6661108267716536
0
LINE
8
BLACK
6
CONTINUOUS
10
5.4447375590551177
20
-4.6661108267716536
11
5.4447375590551177
21
-4.6591647637795273
0
LINE
8
BLACK
6
CONTINUOUS
10
5.4447375590551177
20
-4.6591647637795273
11
5.4460926771653542
21
-4.652352125984252
0
LINE
8
BLACK
6
CONTINUOUS
10
5.4460926771653542
20
-4.652352125984252
11
5.4487508267716533
21
-4.6459347637795272
0
LINE
8
BLACK
6
CONTINUOUS
10
5.4487508267716533
20
-4.6459347637795272
11
5.4526098818897637
21
-4.6401592913385823
0
LINE
8
BLACK
6
CONTINUOUS
10
5.4526098818897637
20
-4.6401592913385823
11
5.4575214960629923
21
-4.6352476771653546
0
LINE
8
BLACK
6
CONTINUOUS
10
5.4575214960629923
20
-4.6352476771653546
11
5.4632969685039372
21
-4.6313886220472442
0
LINE
8
BLACK
6
CONTINUOUS
10
5.4632969685039372
20
-4.6313886220472442
11
5.4697143307086611
21
-4.628730472440945
0
LINE
8
BLACK
6
CONTINUOUS
10
5.4697143307086611
20
-4.628730472440945
11
5.4765269685039373
21
-4.6273753543307086
0
LINE
8
BLACK
6
CONTINUOUS
10
5.4765269685039373
20
-4.6273753543307086
11
5.4834730314960627
21
-4.6273753543307086
0
LINE
8
BLACK
6
CONTINUOUS
10
5.4834730314960627
20
-4.6273753543307086
11
5.4902856692913389
21
-4.628730472440945
0
LINE
8
BLACK
6
CONTINUOUS
10
4.4766844094488185
20
-4.5926478740157481
11
4.4773230314960628
21
-4.5930746062992123
0
LINE
8
BLACK
6
CONTINUOUS
10
4.4773230314960628
20
-4.5930746062992123
11
4.4777497637795278
21
-4.5937132283464566
0
LINE
8
BLACK
6
CONTINUOUS
10
4.4777497637795278
20
-4.5937132283464566
11
4.4778996062992125
21
-4.5944665354330709
0
LINE
8
BLACK
6
CONTINUOUS
10
4.4778996062992125
20
-4.5944665354330709
11
4.4778996062992125
21
-4.6613956692913385
0
LINE
8
BLACK
6
CONTINUOUS
10
4.4778996062992125
20
-4.6613956692913385
11
4.4777497637795278
21
-4.6621489763779529
0
LINE
8
BLACK
6
CONTINUOUS
10
4.4777497637795278
20
-4.6621489763779529
11
4.4773230314960628
21
-4.6627875984251963
0
LINE
8
BLACK
6
CONTINUOUS
10
4.4773230314960628
20
-4.6627875984251963
11
4.4766844094488185
21
-4.6632143307086613
0
LINE
8
BLACK
6
CONTINUOUS
10
4.4766844094488185
20
-4.6632143307086613
11
4.475931102362205
21
-4.663364173228346
0
LINE
8
BLACK
6
CONTINUOUS
10
4.475931102362205
20
-4.663364173228346
11
4.4090019685039366
21
-4.663364173228346
0
LINE
8
BLACK
6
CONTINUOUS
10
4.4090019685039366
20
-4.663364173228346
11
4.4082486614173231
21
-4.6632143307086613
0
LINE
8
BLACK
6
CONTINUOUS
10
4.4082486614173231
20
-4.6632143307086613
11
4.4076100393700788
21
-4.6627875984251963
0
LINE
8
BLACK
6
CONTINUOUS
10
4.4076100393700788
20
-4.6627875984251963
11
4.4071833070866138
21
-4.6621489763779529
0
LINE
8
BLACK
6
CONTINUOUS
10
4.4071833070866138
20
-4.6621489763779529
11
4.4070334645669291
21
-4.6613956692913385
0
LINE
8
BLACK
6
CONTINUOUS
10
4.4070334645669291
20
-4.6613956692913385
11
4.4070334645669291
21
-4.5944665354330709
0
LINE
8
BLACK
6
CONTINUOUS
10
4.4070334645669291
20
-4.5944665354330709
11
4.4071833070866138
21
-4.5937132283464566
0
LINE
8
BLACK
6
CONTINUOUS
10
4.4071833070866138
20
-4.5937132283464566
11
4.4076100393700788
21
-4.5930746062992123
0
LINE
8
BLACK
6
CONTINUOUS
10
4.4076100393700788
20
-4.5930746062992123
11
4.4082486614173231
21
-4.5926478740157481
0
LINE
8
BLACK
6
CONTINUOUS
10
4.4082486614173231
20
-4.5926478740157481
11
4.4090019685039366
21
-4.5924980314960626
0
LINE
8
BLACK
6
CONTINUOUS
10
4.4090019685039366
20
-4.5924980314960626
11
4.475931102362205
21
-4.5924980314960626
0
LINE
8
BLACK
6
CONTINUOUS
10
4.475931102362205
20
-4.5924980314960626
11
4.4766844094488185
21
-4.5926478740157481
0
LINE
8
BLACK
6
CONTINUOUS
10
4.5527522047244098
20
-4.5940237795275589
11
4.5591695669291337
21
-4.5966819291338581
0
LINE
8
BLACK
6
CONTINUOUS
10
4.5591695669291337
20
-4.5966819291338581
11
4.5649450393700786
21
-4.6005409842519684
0
LINE
8
BLACK
6
CONTINUOUS
10
4.5649450393700786
20
-4.6005409842519684
11
4.5698566535433072
21
-4.6054525984251971
0
LINE
8
BLACK
6
CONTINUOUS
10
4.5698566535433072
20
-4.6054525984251971
11
4.5737157086614175
21
-4.6112280708661419
0
LINE
8
BLACK
6
CONTINUOUS
10
4.5737157086614175
20
-4.6112280708661419
11
4.5763738582677167
21
-4.6176454330708658
0
LINE
8
BLACK
6
CONTINUOUS
10
4.5763738582677167
20
-4.6176454330708658
11
4.5777289763779523
21
-4.624458070866142
0
LINE
8
BLACK
6
CONTINUOUS
10
4.5777289763779523
20
-4.624458070866142
11
4.5777289763779523
21
-4.6314041338582674
0
LINE
8
BLACK
6
CONTINUOUS
10
4.5777289763779523
20
-4.6314041338582674
11
4.5763738582677167
21
-4.6382167716535436
0
LINE
8
BLACK
6
CONTINUOUS
10
4.5763738582677167
20
-4.6382167716535436
11
4.5737157086614175
21
-4.6446341338582675
0
LINE
8
BLACK
6
CONTINUOUS
10
4.5737157086614175
20
-4.6446341338582675
11
4.5698566535433072
21
-4.6504096062992124
0
LINE
8
BLACK
6
CONTINUOUS
10
4.5698566535433072
20
-4.6504096062992124
11
4.5649450393700786
21
-4.655321220472441
0
LINE
8
BLACK
6
CONTINUOUS
10
4.5649450393700786
20
-4.655321220472441
11
4.5591695669291337
21
-4.6591802755905514
0
LINE
8
BLACK
6
CONTINUOUS
10
4.5591695669291337
20
-4.6591802755905514
11
4.5527522047244098
21
-4.6618384251968505
0
LINE
8
BLACK
6
CONTINUOUS
10
4.5527522047244098
20
-4.6618384251968505
11
4.5459395669291336
21
-4.6631935433070861
0
LINE
8
BLACK
6
CONTINUOUS
10
4.5459395669291336
20
-4.6631935433070861
11
4.5389935039370082
21
-4.6631935433070861
0
LINE
8
BLACK
6
CONTINUOUS
10
4.5389935039370082
20
-4.6631935433070861
11
4.532180866141732
21
-4.6618384251968505
0
LINE
8
BLACK
6
CONTINUOUS
10
4.532180866141732
20
-4.6618384251968505
11
4.5257635039370081
21
-4.6591802755905514
0
LINE
8
BLACK
6
CONTINUOUS
10
4.5257635039370081
20
-4.6591802755905514
11
4.5199880314960632
21
-4.655321220472441
0
LINE
8
BLACK
6
CONTINUOUS
10
4.5199880314960632
20
-4.655321220472441
11
4.5150764173228346
21
-4.6504096062992124
0
LINE
8
BLACK
6
CONTINUOUS
10
4.5150764173228346
20
-4.6504096062992124
11
4.5112173622047242
21
-4.6446341338582675
0
LINE
8
BLACK
6
CONTINUOUS
10
4.5112173622047242
20
-4.6446341338582675
11
4.5085592125984251
21
-4.6382167716535436
0
LINE
8
BLACK
6
CONTINUOUS
10
4.5085592125984251
20
-4.6382167716535436
11
4.5072040944881886
21
-4.6314041338582674
0
LINE
8
BLACK
6
CONTINUOUS
10
4.5072040944881886
20
-4.6314041338582674
11
4.5072040944881886
21
-4.624458070866142
0
LINE
8
BLACK
6
CONTINUOUS
10
4.5072040944881886
20
-4.624458070866142
11
4.5085592125984251
21
-4.6176454330708658
0
LINE
8
BLACK
6
CONTINUOUS
10
4.5085592125984251
20
-4.6176454330708658
11
4.5112173622047242
21
-4.6112280708661419
0
LINE
8
BLACK
6
CONTINUOUS
10
4.5112173622047242
20
-4.6112280708661419
11
4.5150764173228346
21
-4.6054525984251971
0
LINE
8
BLACK
6
CONTINUOUS
10
4.5150764173228346
20
-4.6054525984251971
11
4.5199880314960632
21
-4.6005409842519684
0
LINE
8
BLACK
6
CONTINUOUS
10
4.5199880314960632
20
-4.6005409842519684
11
4.5257635039370081
21
-4.5966819291338581
0
LINE
8
BLACK
6
CONTINUOUS
10
4.5257635039370081
20
-4.5966819291338581
11
4.532180866141732
21
-4.5940237795275589
0
LINE
8
BLACK
6
CONTINUOUS
10
4.532180866141732
20
-4.5940237795275589
11
4.5389935039370082
21
-4.5926686614173224
0
LINE
8
BLACK
6
CONTINUOUS
10
4.5389935039370082
20
-4.5926686614173224
11
4.5459395669291336
21
-4.5926686614173224
0
LINE
8
BLACK
6
CONTINUOUS
10
4.5459395669291336
20
-4.5926686614173224
11
4.5527522047244098
21
-4.5940237795275589
0
LINE
8
BLACK
6
CONTINUOUS
10
4.6527522047244094
20
-4.5940237795275589
11
4.6591695669291333
21
-4.5966819291338581
0
LINE
8
BLACK
6
CONTINUOUS
10
4.6591695669291333
20
-4.5966819291338581
11
4.6649450393700782
21
-4.6005409842519684
0
LINE
8
BLACK
6
CONTINUOUS
10
4.6649450393700782
20
-4.6005409842519684
11
4.6698566535433068
21
-4.6054525984251971
0
LINE
8
BLACK
6
CONTINUOUS
10
4.6698566535433068
20
-4.6054525984251971
11
4.6737157086614172
21
-4.6112280708661419
0
LINE
8
BLACK
6
CONTINUOUS
10
4.6737157086614172
20
-4.6112280708661419
11
4.6763738582677163
21
-4.6176454330708658
0
LINE
8
BLACK
6
CONTINUOUS
10
4.6763738582677163
20
-4.6176454330708658
11
4.6777289763779528
21
-4.624458070866142
0
LINE
8
BLACK
6
CONTINUOUS
10
4.6777289763779528
20
-4.624458070866142
11
4.6777289763779528
21
-4.6314041338582674
0
LINE
8
BLACK
6
CONTINUOUS
10
4.6777289763779528
20
-4.6314041338582674
11
4.6763738582677163
21
-4.6382167716535436
0
LINE
8
BLACK
6
CONTINUOUS
10
4.6763738582677163
20
-4.6382167716535436
11
4.6737157086614172
21
-4.6446341338582675
0
LINE
8
BLACK
6
CONTINUOUS
10
4.6737157086614172
20
-4.6446341338582675
11
4.6698566535433068
21
-4.6504096062992124
0
LINE
8
BLACK
6
CONTINUOUS
10
4.6698566535433068
20
-4.6504096062992124
11
4.6649450393700782
21
-4.655321220472441
0
LINE
8
BLACK
6
CONTINUOUS
10
4.6649450393700782
20
-4.655321220472441
11
4.6591695669291333
21
-4.6591802755905514
0
LINE
8
BLACK
6
CONTINUOUS
10
4.6591695669291333
20
-4.6591802755905514
11
4.6527522047244094
21
-4.6618384251968505
0
LINE
8
BLACK
6
CONTINUOUS
10
4.6527522047244094
20
-4.6618384251968505
11
4.6459395669291341
21
-4.6631935433070861
0
LINE
8
BLACK
6
CONTINUOUS
10
4.6459395669291341
20
-4.6631935433070861
11
4.6389935039370078
21
-4.6631935433070861
0
LINE
8
BLACK
6
CONTINUOUS
10
4.6389935039370078
20
-4.6631935433070861
11
4.6321808661417325
21
-4.6618384251968505
0
LINE
8
BLACK
6
CONTINUOUS
10
4.6321808661417325
20
-4.6618384251968505
11
4.6257635039370077
21
-4.6591802755905514
0
LINE
8
BLACK
6
CONTINUOUS
10
4.6257635039370077
20
-4.6591802755905514
11
4.6199880314960629
21
-4.655321220472441
0
LINE
8
BLACK
6
CONTINUOUS
10
4.6199880314960629
20
-4.655321220472441
11
4.6150764173228342
21
-4.6504096062992124
0
LINE
8
BLACK
6
CONTINUOUS
10
4.6150764173228342
20
-4.6504096062992124
11
4.6112173622047239
21
-4.6446341338582675
0
LINE
8
BLACK
6
CONTINUOUS
10
4.6112173622047239
20
-4.6446341338582675
11
4.6085592125984247
21
-4.6382167716535436
0
LINE
8
BLACK
6
CONTINUOUS
10
4.6085592125984247
20
-4.6382167716535436
11
4.6072040944881891
21
-4.6314041338582674
0
LINE
8
BLACK
6
CONTINUOUS
10
4.6072040944881891
20
-4.6314041338582674
11
4.6072040944881891
21
-4.624458070866142
0
LINE
8
BLACK
6
CONTINUOUS
10
4.6072040944881891
20
-4.624458070866142
11
4.6085592125984247
21
-4.6176454330708658
0
LINE
8
BLACK
6
CONTINUOUS
10
4.6085592125984247
20
-4.6176454330708658
11
4.6112173622047239
21
-4.6112280708661419
0
LINE
8
BLACK
6
CONTINUOUS
10
4.6112173622047239
20
-4.6112280708661419
11
4.6150764173228342
21
-4.6054525984251971
0
LINE
8
BLACK
6
CONTINUOUS
10
4.6150764173228342
20
-4.6054525984251971
11
4.6199880314960629
21
-4.6005409842519684
0
LINE
8
BLACK
6
CONTINUOUS
10
4.6199880314960629
20
-4.6005409842519684
11
4.6257635039370077
21
-4.5966819291338581
0
LINE
8
BLACK
6
CONTINUOUS
10
4.6257635039370077
20
-4.5966819291338581
11
4.6321808661417325
21
-4.5940237795275589
0
LINE
8
BLACK
6
CONTINUOUS
10
4.6321808661417325
20
-4.5940237795275589
11
4.6389935039370078
21
-4.5926686614173224
0
LINE
8
BLACK
6
CONTINUOUS
10
4.6389935039370078
20
-4.5926686614173224
11
4.6459395669291341
21
-4.5926686614173224
0
LINE
8
BLACK
6
CONTINUOUS
10
4.6459395669291341
20
-4.5926686614173224
11
4.6527522047244094
21
-4.5940237795275589
0
LINE
8
BLACK
6
CONTINUOUS
10
4.7527522047244091
20
-4.5940237795275589
11
4.7591695669291338
21
-4.5966819291338581
0
LINE
8
BLACK
6
CONTINUOUS
10
4.7591695669291338
20
-4.5966819291338581
11
4.7649450393700787
21
-4.6005409842519684
0
LINE
8
BLACK
6
CONTINUOUS
10
4.7649450393700787
20
-4.6005409842519684
11
4.7698566535433073
21
-4.6054525984251971
0
LINE
8
BLACK
6
CONTINUOUS
10
4.7698566535433073
20
-4.6054525984251971
11
4.7737157086614168
21
-4.6112280708661419
0
LINE
8
BLACK
6
CONTINUOUS
10
4.7737157086614168
20
-4.6112280708661419
11
4.776373858267716
21
-4.6176454330708658
0
LINE
8
BLACK
6
CONTINUOUS
10
4.776373858267716
20
-4.6176454330708658
11
4.7777289763779525
21
-4.624458070866142
0
LINE
8
BLACK
6
CONTINUOUS
10
4.7777289763779525
20
-4.624458070866142
11
4.7777289763779525
21
-4.6314041338582674
0
LINE
8
BLACK
6
CONTINUOUS
10
4.7777289763779525
20
-4.6314041338582674
11
4.776373858267716
21
-4.6382167716535436
0
LINE
8
BLACK
6
CONTINUOUS
10
4.776373858267716
20
-4.6382167716535436
11
4.7737157086614168
21
-4.6446341338582675
0
LINE
8
BLACK
6
CONTINUOUS
10
4.7737157086614168
20
-4.6446341338582675
11
4.7698566535433073
21
-4.6504096062992124
0
LINE
8
BLACK
6
CONTINUOUS
10
4.7698566535433073
20
-4.6504096062992124
11
4.7649450393700787
21
-4.655321220472441
0
LINE
8
BLACK
6
CONTINUOUS
10
4.7649450393700787
20
-4.655321220472441
11
4.7591695669291338
21
-4.6591802755905514
0
LINE
8
BLACK
6
CONTINUOUS
10
4.7591695669291338
20
-4.6591802755905514
11
4.7527522047244091
21
-4.6618384251968505
0
LINE
8
BLACK
6
CONTINUOUS
10
4.7527522047244091
20
-4.6618384251968505
11
4.7459395669291338
21
-4.6631935433070861
0
LINE
8
BLACK
6
CONTINUOUS
10
4.7459395669291338
20
-4.6631935433070861
11
4.7389935039370075
21
-4.6631935433070861
0
LINE
8
BLACK
6
CONTINUOUS
10
4.7389935039370075
20
-4.6631935433070861
11
4.7321808661417322
21
-4.6618384251968505
0
LINE
8
BLACK
6
CONTINUOUS
10
4.7321808661417322
20
-4.6618384251968505
11
4.7257635039370074
21
-4.6591802755905514
0
LINE
8
BLACK
6
CONTINUOUS
10
4.7257635039370074
20
-4.6591802755905514
11
4.7199880314960625
21
-4.655321220472441
0
LINE
8
BLACK
6
CONTINUOUS
10
4.7199880314960625
20
-4.655321220472441
11
4.7150764173228348
21
-4.6504096062992124
0
LINE
8
BLACK
6
CONTINUOUS
10
4.7150764173228348
20
-4.6504096062992124
11
4.7112173622047244
21
-4.6446341338582675
0
LINE
8
BLACK
6
CONTINUOUS
10
4.7112173622047244
20
-4.6446341338582675
11
4.7085592125984252
21
-4.6382167716535436
0
LINE
8
BLACK
6
CONTINUOUS
10
4.7085592125984252
20
-4.6382167716535436
11
4.7072040944881888
21
-4.6314041338582674
0
LINE
8
BLACK
6
CONTINUOUS
10
4.7072040944881888
20
-4.6314041338582674
11
4.7072040944881888
21
-4.624458070866142
0
LINE
8
BLACK
6
CONTINUOUS
10
4.7072040944881888
20
-4.624458070866142
11
4.7085592125984252
21
-4.6176454330708658
0
LINE
8
BLACK
6
CONTINUOUS
10
4.7085592125984252
20
-4.6176454330708658
11
4.7112173622047244
21
-4.6112280708661419
0
LINE
8
BLACK
6
CONTINUOUS
10
4.7112173622047244
20
-4.6112280708661419
11
4.7150764173228348
21
-4.6054525984251971
0
LINE
8
BLACK
6
CONTINUOUS
10
4.7150764173228348
20
-4.6054525984251971
11
4.7199880314960625
21
-4.6005409842519684
0
LINE
8
BLACK
6
CONTINUOUS
10
4.7199880314960625
20
-4.6005409842519684
11
4.7257635039370074
21
-4.5966819291338581
0
LINE
8
BLACK
6
CONTINUOUS
10
4.7257635039370074
20
-4.5966819291338581
11
4.7321808661417322
21
-4.5940237795275589
0
LINE
8
BLACK
6
CONTINUOUS
10
4.7321808661417322
20
-4.5940237795275589
11
4.7389935039370075
21
-4.5926686614173224
0
LINE
8
BLACK
6
CONTINUOUS
10
4.7389935039370075
20
-4.5926686614173224
11
4.7459395669291338
21
-4.5926686614173224
0
LINE
8
BLACK
6
CONTINUOUS
10
4.7459395669291338
20
-4.5926686614173224
11
4.7527522047244091
21
-4.5940237795275589
0
LINE
8
BLACK
6
CONTINUOUS
10
4.8527522047244096
20
-4.5940237795275589
11
4.8591695669291335
21
-4.5966819291338581
0
LINE
8
BLACK
6
CONTINUOUS
10
4.8591695669291335
20
-4.5966819291338581
11
4.8649450393700784
21
-4.6005409842519684
0
LINE
8
BLACK
6
CONTINUOUS
10
4.8649450393700784
20
-4.6005409842519684
11
4.869856653543307
21
-4.6054525984251971
0
LINE
8
BLACK
6
CONTINUOUS
10
4.869856653543307
20
-4.6054525984251971
11
4.8737157086614173
21
-4.6112280708661419
0
LINE
8
BLACK
6
CONTINUOUS
10
4.8737157086614173
20
-4.6112280708661419
11
4.8763738582677165
21
-4.6176454330708658
0
LINE
8
BLACK
6
CONTINUOUS
10
4.8763738582677165
20
-4.6176454330708658
11
4.877728976377953
21
-4.624458070866142
0
LINE
8
BLACK
6
CONTINUOUS
10
4.877728976377953
20
-4.624458070866142
11
4.877728976377953
21
-4.6314041338582674
0
LINE
8
BLACK
6
CONTINUOUS
10
4.877728976377953
20
-4.6314041338582674
11
4.8763738582677165
21
-4.6382167716535436
0
LINE
8
BLACK
6
CONTINUOUS
10
4.8763738582677165
20
-4.6382167716535436
11
4.8737157086614173
21
-4.6446341338582675
0
LINE
8
BLACK
6
CONTINUOUS
10
4.8737157086614173
20
-4.6446341338582675
11
4.869856653543307
21
-4.6504096062992124
0
LINE
8
BLACK
6
CONTINUOUS
10
4.869856653543307
20
-4.6504096062992124
11
4.8649450393700784
21
-4.655321220472441
0
LINE
8
BLACK
6
CONTINUOUS
10
4.8649450393700784
20
-4.655321220472441
11
4.8591695669291335
21
-4.6591802755905514
0
LINE
8
BLACK
6
CONTINUOUS
10
4.8591695669291335
20
-4.6591802755905514
11
4.8527522047244096
21
-4.6618384251968505
0
LINE
8
BLACK
6
CONTINUOUS
10
4.8527522047244096
20
-4.6618384251968505
11
4.8459395669291334
21
-4.6631935433070861
0
LINE
8
BLACK
6
CONTINUOUS
10
4.8459395669291334
20
-4.6631935433070861
11
4.838993503937008
21
-4.6631935433070861
0
LINE
8
BLACK
6
CONTINUOUS
10
4.838993503937008
20
-4.6631935433070861
11
4.8321808661417318
21
-4.6618384251968505
0
LINE
8
BLACK
6
CONTINUOUS
10
4.8321808661417318
20
-4.6618384251968505
11
4.8257635039370079
21
-4.6591802755905514
0
LINE
8
BLACK
6
CONTINUOUS
10
4.8257635039370079
20
-4.6591802755905514
11
4.819988031496063
21
-4.655321220472441
0
LINE
8
BLACK
6
CONTINUOUS
10
4.819988031496063
20
-4.655321220472441
11
4.8150764173228344
21
-4.6504096062992124
0
LINE
8
BLACK
6
CONTINUOUS
10
4.8150764173228344
20
-4.6504096062992124
11
4.8112173622047241
21
-4.6446341338582675
0
LINE
8
BLACK
6
CONTINUOUS
10
4.8112173622047241
20
-4.6446341338582675
11
4.8085592125984249
21
-4.6382167716535436
0
LINE
8
BLACK
6
CONTINUOUS
10
4.8085592125984249
20
-4.6382167716535436
11
4.8072040944881893
21
-4.6314041338582674
0
LINE
8
BLACK
6
CONTINUOUS
10
4.8072040944881893
20
-4.6314041338582674
11
4.8072040944881893
21
-4.624458070866142
0
LINE
8
BLACK
6
CONTINUOUS
10
4.8072040944881893
20
-4.624458070866142
11
4.8085592125984249
21
-4.6176454330708658
0
LINE
8
BLACK
6
CONTINUOUS
10
4.8085592125984249
20
-4.6176454330708658
11
4.8112173622047241
21
-4.6112280708661419
0
LINE
8
BLACK
6
CONTINUOUS
10
4.8112173622047241
20
-4.6112280708661419
11
4.8150764173228344
21
-4.6054525984251971
0
LINE
8
BLACK
6
CONTINUOUS
10
4.8150764173228344
20
-4.6054525984251971
11
4.819988031496063
21
-4.6005409842519684
0
LINE
8
BLACK
6
CONTINUOUS
10
4.819988031496063
20
-4.6005409842519684
11
4.8257635039370079
21
-4.5966819291338581
0
LINE
8
BLACK
6
CONTINUOUS
10
4.8257635039370079
20
-4.5966819291338581
11
4.8321808661417318
21
-4.5940237795275589
0
LINE
8
BLACK
6
CONTINUOUS
10
4.8321808661417318
20
-4.5940237795275589
11
4.838993503937008
21
-4.5926686614173224
0
LINE
8
BLACK
6
CONTINUOUS
10
4.838993503937008
20
-4.5926686614173224
11
4.8459395669291334
21
-4.5926686614173224
0
LINE
8
BLACK
6
CONTINUOUS
10
4.8459395669291334
20
-4.5926686614173224
11
4.8527522047244096
21
-4.5940237795275589
0
LINE
8
BLACK
6
CONTINUOUS
10
4.9527522047244092
20
-4.5940237795275589
11
4.959169566929134
21
-4.5966819291338581
0
LINE
8
BLACK
6
CONTINUOUS
10
4.959169566929134
20
-4.5966819291338581
11
4.9649450393700789
21
-4.6005409842519684
0
LINE
8
BLACK
6
CONTINUOUS
10
4.9649450393700789
20
-4.6005409842519684
11
4.9698566535433066
21
-4.6054525984251971
0
LINE
8
BLACK
6
CONTINUOUS
10
4.9698566535433066
20
-4.6054525984251971
11
4.973715708661417
21
-4.6112280708661419
0
LINE
8
BLACK
6
CONTINUOUS
10
4.973715708661417
20
-4.6112280708661419
11
4.9763738582677162
21
-4.6176454330708658
0
LINE
8
BLACK
6
CONTINUOUS
10
4.9763738582677162
20
-4.6176454330708658
11
4.9777289763779526
21
-4.624458070866142
0
LINE
8
BLACK
6
CONTINUOUS
10
4.9777289763779526
20
-4.624458070866142
11
4.9777289763779526
21
-4.6314041338582674
0
LINE
8
BLACK
6
CONTINUOUS
10
4.9777289763779526
20
-4.6314041338582674
11
4.9763738582677162
21
-4.6382167716535436
0
LINE
8
BLACK
6
CONTINUOUS
10
4.9763738582677162
20
-4.6382167716535436
11
4.973715708661417
21
-4.6446341338582675
0
LINE
8
BLACK
6
CONTINUOUS
10
4.973715708661417
20
-4.6446341338582675
11
4.9698566535433066
21
-4.6504096062992124
0
LINE
8
BLACK
6
CONTINUOUS
10
4.9698566535433066
20
-4.6504096062992124
11
4.9649450393700789
21
-4.655321220472441
0
LINE
8
BLACK
6
CONTINUOUS
10
4.9649450393700789
20
-4.655321220472441
11
4.959169566929134
21
-4.6591802755905514
0
LINE
8
BLACK
6
CONTINUOUS
10
4.959169566929134
20
-4.6591802755905514
11
4.9527522047244092
21
-4.6618384251968505
0
LINE
8
BLACK
6
CONTINUOUS
10
4.9527522047244092
20
-4.6618384251968505
11
4.9459395669291339
21
-4.6631935433070861
0
LINE
8
BLACK
6
CONTINUOUS
10
4.9459395669291339
20
-4.6631935433070861
11
4.9389935039370076
21
-4.6631935433070861
0
LINE
8
BLACK
6
CONTINUOUS
10
4.9389935039370076
20
-4.6631935433070861
11
4.9321808661417323
21
-4.6618384251968505
0
LINE
8
BLACK
6
CONTINUOUS
10
4.9321808661417323
20
-4.6618384251968505
11
4.9257635039370076
21
-4.6591802755905514
0
LINE
8
BLACK
6
CONTINUOUS
10
4.9257635039370076
20
-4.6591802755905514
11
4.9199880314960627
21
-4.655321220472441
0
LINE
8
BLACK
6
CONTINUOUS
10
4.9199880314960627
20
-4.655321220472441
11
4.915076417322835
21
-4.6504096062992124
0
LINE
8
BLACK
6
CONTINUOUS
10
4.915076417322835
20
-4.6504096062992124
11
4.9112173622047246
21
-4.6446341338582675
0
LINE
8
BLACK
6
CONTINUOUS
10
4.9112173622047246
20
-4.6446341338582675
11
4.9085592125984254
21
-4.6382167716535436
0
LINE
8
BLACK
6
CONTINUOUS
10
4.9085592125984254
20
-4.6382167716535436
11
4.907204094488189
21
-4.6314041338582674
0
LINE
8
BLACK
6
CONTINUOUS
10
4.907204094488189
20
-4.6314041338582674
11
4.907204094488189
21
-4.624458070866142
0
LINE
8
BLACK
6
CONTINUOUS
10
4.907204094488189
20
-4.624458070866142
11
4.9085592125984254
21
-4.6176454330708658
0
LINE
8
BLACK
6
CONTINUOUS
10
4.9085592125984254
20
-4.6176454330708658
11
4.9112173622047246
21
-4.6112280708661419
0
LINE
8
BLACK
6
CONTINUOUS
10
4.9112173622047246
20
-4.6112280708661419
11
4.915076417322835
21
-4.6054525984251971
0
LINE
8
BLACK
6
CONTINUOUS
10
4.915076417322835
20
-4.6054525984251971
11
4.9199880314960627
21
-4.6005409842519684
0
LINE
8
BLACK
6
CONTINUOUS
10
4.9199880314960627
20
-4.6005409842519684
11
4.9257635039370076
21
-4.5966819291338581
0
LINE
8
BLACK
6
CONTINUOUS
10
4.9257635039370076
20
-4.5966819291338581
11
4.9321808661417323
21
-4.5940237795275589
0
LINE
8
BLACK
6
CONTINUOUS
10
4.9321808661417323
20
-4.5940237795275589
11
4.9389935039370076
21
-4.5926686614173224
0
LINE
8
BLACK
6
CONTINUOUS
10
4.9389935039370076
20
-4.5926686614173224
11
4.9459395669291339
21
-4.5926686614173224
0
LINE
8
BLACK
6
CONTINUOUS
10
4.9459395669291339
20
-4.5926686614173224
11
4.9527522047244092
21
-4.5940237795275589
0
LINE
8
BLACK
6
CONTINUOUS
10
5.0527522047244089
20
-4.5940237795275589
11
5.0591695669291337
21
-4.5966819291338581
0
LINE
8
BLACK
6
CONTINUOUS
10
5.0591695669291337
20
-4.5966819291338581
11
5.0649450393700786
21
-4.6005409842519684
0
LINE
8
BLACK
6
CONTINUOUS
10
5.0649450393700786
20
-4.6005409842519684
11
5.0698566535433072
21
-4.6054525984251971
0
LINE
8
BLACK
6
CONTINUOUS
10
5.0698566535433072
20
-4.6054525984251971
11
5.0737157086614175
21
-4.6112280708661419
0
LINE
8
BLACK
6
CONTINUOUS
10
5.0737157086614175
20
-4.6112280708661419
11
5.0763738582677167
21
-4.6176454330708658
0
LINE
8
BLACK
6
CONTINUOUS
10
5.0763738582677167
20
-4.6176454330708658
11
5.0777289763779523
21
-4.624458070866142
0
LINE
8
BLACK
6
CONTINUOUS
10
5.0777289763779523
20
-4.624458070866142
11
5.0777289763779523
21
-4.6314041338582674
0
LINE
8
BLACK
6
CONTINUOUS
10
5.0777289763779523
20
-4.6314041338582674
11
5.0763738582677167
21
-4.6382167716535436
0
LINE
8
BLACK
6
CONTINUOUS
10
5.0763738582677167
20
-4.6382167716535436
11
5.0737157086614175
21
-4.6446341338582675
0
LINE
8
BLACK
6
CONTINUOUS
10
5.0737157086614175
20
-4.6446341338582675
11
5.0698566535433072
21
-4.6504096062992124
0
LINE
8
BLACK
6
CONTINUOUS
10
5.0698566535433072
20
-4.6504096062992124
11
5.0649450393700786
21
-4.655321220472441
0
LINE
8
BLACK
6
CONTINUOUS
10
5.0649450393700786
20
-4.655321220472441
11
5.0591695669291337
21
-4.6591802755905514
0
LINE
8
BLACK
6
CONTINUOUS
10
5.0591695669291337
20
-4.6591802755905514
11
5.0527522047244089
21
-4.6618384251968505
0
LINE
8
BLACK
6
CONTINUOUS
10
5.0527522047244089
20
-4.6618384251968505
11
5.0459395669291336
21
-4.6631935433070861
0
LINE
8
BLACK
6
CONTINUOUS
10
5.0459395669291336
20
-4.6631935433070861
11
5.0389935039370082
21
-4.6631935433070861
0
LINE
8
BLACK
6
CONTINUOUS
10
5.0389935039370082
20
-4.6631935433070861
11
5.032180866141732
21
-4.6618384251968505
0
LINE
8
BLACK
6
CONTINUOUS
10
5.032180866141732
20
-4.6618384251968505
11
5.0257635039370081
21
-4.6591802755905514
0
LINE
8
BLACK
6
CONTINUOUS
10
5.0257635039370081
20
-4.6591802755905514
11
5.0199880314960632
21
-4.655321220472441
0
LINE
8
BLACK
6
CONTINUOUS
10
5.0199880314960632
20
-4.655321220472441
11
5.0150764173228346
21
-4.6504096062992124
0
LINE
8
BLACK
6
CONTINUOUS
10
5.0150764173228346
20
-4.6504096062992124
11
5.0112173622047242
21
-4.6446341338582675
0
LINE
8
BLACK
6
CONTINUOUS
10
5.0112173622047242
20
-4.6446341338582675
11
5.0085592125984251
21
-4.6382167716535436
0
LINE
8
BLACK
6
CONTINUOUS
10
5.0085592125984251
20
-4.6382167716535436
11
5.0072040944881886
21
-4.6314041338582674
0
LINE
8
BLACK
6
CONTINUOUS
10
5.0072040944881886
20
-4.6314041338582674
11
5.0072040944881886
21
-4.624458070866142
0
LINE
8
BLACK
6
CONTINUOUS
10
5.0072040944881886
20
-4.624458070866142
11
5.0085592125984251
21
-4.6176454330708658
0
LINE
8
BLACK
6
CONTINUOUS
10
5.0085592125984251
20
-4.6176454330708658
11
5.0112173622047242
21
-4.6112280708661419
0
LINE
8
BLACK
6
CONTINUOUS
10
5.0112173622047242
20
-4.6112280708661419
11
5.0150764173228346
21
-4.6054525984251971
0
LINE
8
BLACK
6
CONTINUOUS
10
5.0150764173228346
20
-4.6054525984251971
11
5.0199880314960632
21
-4.6005409842519684
0
LINE
8
BLACK
6
CONTINUOUS
10
5.0199880314960632
20
-4.6005409842519684
11
5.0257635039370081
21
-4.5966819291338581
0
LINE
8
BLACK
6
CONTINUOUS
10
5.0257635039370081
20
-4.5966819291338581
11
5.032180866141732
21
-4.5940237795275589
0
LINE
8
BLACK
6
CONTINUOUS
10
5.032180866141732
20
-4.5940237795275589
11
5.0389935039370082
21
-4.5926686614173224
0
LINE
8
BLACK
6
CONTINUOUS
10
5.0389935039370082
20
-4.5926686614173224
11
5.0459395669291336
21
-4.5926686614173224
0
LINE
8
BLACK
6
CONTINUOUS
10
5.0459395669291336
20
-4.5926686614173224
11
5.0527522047244089
21
-4.5940237795275589
0
LINE
8
BLACK
6
CONTINUOUS
10
5.1527522047244094
20
-4.5940237795275589
11
5.1591695669291333
21
-4.5966819291338581
0
LINE
8
BLACK
6
CONTINUOUS
10
5.1591695669291333
20
-4.5966819291338581
11
5.1649450393700782
21
-4.6005409842519684
0
LINE
8
BLACK
6
CONTINUOUS
10
5.1649450393700782
20
-4.6005409842519684
11
5.1698566535433068
21
-4.6054525984251971
0
LINE
8
BLACK
6
CONTINUOUS
10
5.1698566535433068
20
-4.6054525984251971
11
5.1737157086614172
21
-4.6112280708661419
0
LINE
8
BLACK
6
CONTINUOUS
10
5.1737157086614172
20
-4.6112280708661419
11
5.1763738582677163
21
-4.6176454330708658
0
LINE
8
BLACK
6
CONTINUOUS
10
5.1763738582677163
20
-4.6176454330708658
11
5.1777289763779528
21
-4.624458070866142
0
LINE
8
BLACK
6
CONTINUOUS
10
5.1777289763779528
20
-4.624458070866142
11
5.1777289763779528
21
-4.6314041338582674
0
LINE
8
BLACK
6
CONTINUOUS
10
5.1777289763779528
20
-4.6314041338582674
11
5.1763738582677163
21
-4.6382167716535436
0
LINE
8
BLACK
6
CONTINUOUS
10
5.1763738582677163
20
-4.6382167716535436
11
5.1737157086614172
21
-4.6446341338582675
0
LINE
8
BLACK
6
CONTINUOUS
10
5.1737157086614172
20
-4.6446341338582675
11
5.1698566535433068
21
-4.6504096062992124
0
LINE
8
BLACK
6
CONTINUOUS
10
5.1698566535433068
20
-4.6504096062992124
11
5.1649450393700782
21
-4.655321220472441
0
LINE
8
BLACK
6
CONTINUOUS
10
5.1649450393700782
20
-4.655321220472441
11
5.1591695669291333
21
-4.6591802755905514
0
LINE
8
BLACK
6
CONTINUOUS
10
5.1591695669291333
20
-4.6591802755905514
11
5.1527522047244094
21
-4.6618384251968505
0
LINE
8
BLACK
6
CONTINUOUS
10
5.1527522047244094
20
-4.6618384251968505
11
5.1459395669291341
21
-4.6631935433070861
0
LINE
8
BLACK
6
CONTINUOUS
10
5.1459395669291341
20
-4.6631935433070861
11
5.1389935039370078
21
-4.6631935433070861
0
LINE
8
BLACK
6
CONTINUOUS
10
5.1389935039370078
20
-4.6631935433070861
11
5.1321808661417325
21
-4.6618384251968505
0
LINE
8
BLACK
6
CONTINUOUS
10
5.1321808661417325
20
-4.6618384251968505
11
5.1257635039370077
21
-4.6591802755905514
0
LINE
8
BLACK
6
CONTINUOUS
10
5.1257635039370077
20
-4.6591802755905514
11
5.1199880314960629
21
-4.655321220472441
0
LINE
8
BLACK
6
CONTINUOUS
10
5.1199880314960629
20
-4.655321220472441
11
5.1150764173228342
21
-4.6504096062992124
0
LINE
8
BLACK
6
CONTINUOUS
10
5.1150764173228342
20
-4.6504096062992124
11
5.1112173622047239
21
-4.6446341338582675
0
LINE
8
BLACK
6
CONTINUOUS
10
5.1112173622047239
20
-4.6446341338582675
11
5.1085592125984247
21
-4.6382167716535436
0
LINE
8
BLACK
6
CONTINUOUS
10
5.1085592125984247
20
-4.6382167716535436
11
5.1072040944881891
21
-4.6314041338582674
0
LINE
8
BLACK
6
CONTINUOUS
10
5.1072040944881891
20
-4.6314041338582674
11
5.1072040944881891
21
-4.624458070866142
0
LINE
8
BLACK
6
CONTINUOUS
10
5.1072040944881891
20
-4.624458070866142
11
5.1085592125984247
21
-4.6176454330708658
0
LINE
8
BLACK
6
CONTINUOUS
10
5.1085592125984247
20
-4.6176454330708658
11
5.1112173622047239
21
-4.6112280708661419
0
LINE
8
BLACK
6
CONTINUOUS
10
5.1112173622047239
20
-4.6112280708661419
11
5.1150764173228342
21
-4.6054525984251971
0
LINE
8
BLACK
6
CONTINUOUS
10
5.1150764173228342
20
-4.6054525984251971
11
5.1199880314960629
21
-4.6005409842519684
0
LINE
8
BLACK
6
CONTINUOUS
10
5.1199880314960629
20
-4.6005409842519684
11
5.1257635039370077
21
-4.5966819291338581
0
LINE
8
BLACK
6
CONTINUOUS
10
5.1257635039370077
20
-4.5966819291338581
11
5.1321808661417325
21
-4.5940237795275589
0
LINE
8
BLACK
6
CONTINUOUS
10
5.1321808661417325
20
-4.5940237795275589
11
5.1389935039370078
21
-4.5926686614173224
0
LINE
8
BLACK
6
CONTINUOUS
10
5.1389935039370078
20
-4.5926686614173224
11
5.1459395669291341
21
-4.5926686614173224
0
LINE
8
BLACK
6
CONTINUOUS
10
5.1459395669291341
20
-4.5926686614173224
11
5.1527522047244094
21
-4.5940237795275589
0
LINE
8
BLACK
6
CONTINUOUS
10
5.8527522047244096
20
-4.5940237795275589
11
5.8591695669291335
21
-4.5966819291338581
0
LINE
8
BLACK
6
CONTINUOUS
10
5.8591695669291335
20
-4.5966819291338581
11
5.8649450393700784
21
-4.6005409842519684
0
LINE
8
BLACK
6
CONTINUOUS
10
5.8649450393700784
20
-4.6005409842519684
11
5.869856653543307
21
-4.6054525984251971
0
LINE
8
BLACK
6
CONTINUOUS
10
5.869856653543307
20
-4.6054525984251971
11
5.8737157086614173
21
-4.6112280708661419
0
LINE
8
BLACK
6
CONTINUOUS
10
5.8737157086614173
20
-4.6112280708661419
11
5.8763738582677165
21
-4.6176454330708658
0
LINE
8
BLACK
6
CONTINUOUS
10
5.8763738582677165
20
-4.6176454330708658
11
5.877728976377953
21
-4.624458070866142
0
LINE
8
BLACK
6
CONTINUOUS
10
5.877728976377953
20
-4.624458070866142
11
5.877728976377953
21
-4.6314041338582674
0
LINE
8
BLACK
6
CONTINUOUS
10
5.877728976377953
20
-4.6314041338582674
11
5.8763738582677165
21
-4.6382167716535436
0
LINE
8
BLACK
6
CONTINUOUS
10
5.8763738582677165
20
-4.6382167716535436
11
5.8737157086614173
21
-4.6446341338582675
0
LINE
8
BLACK
6
CONTINUOUS
10
5.8737157086614173
20
-4.6446341338582675
11
5.869856653543307
21
-4.6504096062992124
0
LINE
8
BLACK
6
CONTINUOUS
10
5.869856653543307
20
-4.6504096062992124
11
5.8649450393700784
21
-4.655321220472441
0
LINE
8
BLACK
6
CONTINUOUS
10
5.8649450393700784
20
-4.655321220472441
11
5.8591695669291335
21
-4.6591802755905514
0
LINE
8
BLACK
6
CONTINUOUS
10
5.8591695669291335
20
-4.6591802755905514
11
5.8527522047244096
21
-4.6618384251968505
0
LINE
8
BLACK
6
CONTINUOUS
10
5.8527522047244096
20
-4.6618384251968505
11
5.8459395669291334
21
-4.6631935433070861
0
LINE
8
BLACK
6
CONTINUOUS
10
5.8459395669291334
20
-4.6631935433070861
11
5.838993503937008
21
-4.6631935433070861
0
LINE
8
BLACK
6
CONTINUOUS
10
5.838993503937008
20
-4.6631935433070861
11
5.8321808661417318
21
-4.6618384251968505
0
LINE
8
BLACK
6
CONTINUOUS
10
5.8321808661417318
20
-4.6618384251968505
11
5.8257635039370079
21
-4.6591802755905514
0
LINE
8
BLACK
6
CONTINUOUS
10
5.8257635039370079
20
-4.6591802755905514
11
5.819988031496063
21
-4.655321220472441
0
LINE
8
BLACK
6
CONTINUOUS
10
5.819988031496063
20
-4.655321220472441
11
5.8150764173228344
21
-4.6504096062992124
0
LINE
8
BLACK
6
CONTINUOUS
10
5.8150764173228344
20
-4.6504096062992124
11
5.8112173622047241
21
-4.6446341338582675
0
LINE
8
BLACK
6
CONTINUOUS
10
5.8112173622047241
20
-4.6446341338582675
11
5.8085592125984249
21
-4.6382167716535436
0
LINE
8
BLACK
6
CONTINUOUS
10
5.8085592125984249
20
-4.6382167716535436
11
5.8072040944881884
21
-4.6314041338582674
0
LINE
8
BLACK
6
CONTINUOUS
10
5.8072040944881884
20
-4.6314041338582674
11
5.8072040944881884
21
-4.624458070866142
0
LINE
8
BLACK
6
CONTINUOUS
10
5.8072040944881884
20
-4.624458070866142
11
5.8085592125984249
21
-4.6176454330708658
0
LINE
8
BLACK
6
CONTINUOUS
10
5.8085592125984249
20
-4.6176454330708658
11
5.8112173622047241
21
-4.6112280708661419
0
LINE
8
BLACK
6
CONTINUOUS
10
5.8112173622047241
20
-4.6112280708661419
11
5.8150764173228344
21
-4.6054525984251971
0
LINE
8
BLACK
6
CONTINUOUS
10
5.8150764173228344
20
-4.6054525984251971
11
5.819988031496063
21
-4.6005409842519684
0
LINE
8
BLACK
6
CONTINUOUS
10
5.819988031496063
20
-4.6005409842519684
11
5.8257635039370079
21
-4.5966819291338581
0
LINE
8
BLACK
6
CONTINUOUS
10
5.8257635039370079
20
-4.5966819291338581
11
5.8321808661417318
21
-4.5940237795275589
0
LINE
8
BLACK
6
CONTINUOUS
10
5.8321808661417318
20
-4.5940237795275589
11
5.838993503937008
21
-4.5926686614173224
0
LINE
8
BLACK
6
CONTINUOUS
10
5.838993503937008
20
-4.5926686614173224
11
5.8459395669291334
21
-4.5926686614173224
0
LINE
8
BLACK
6
CONTINUOUS
10
5.8459395669291334
20
-4.5926686614173224
11
5.8527522047244096
21
-4.5940237795275589
0
LINE
8
BLACK
6
CONTINUOUS
10
5.9527522047244092
20
-4.5940237795275589
11
5.959169566929134
21
-4.5966819291338581
0
LINE
8
BLACK
6
CONTINUOUS
10
5.959169566929134
20
-4.5966819291338581
11
5.9649450393700789
21
-4.6005409842519684
0
LINE
8
BLACK
6
CONTINUOUS
10
5.9649450393700789
20
-4.6005409842519684
11
5.9698566535433066
21
-4.6054525984251971
0
LINE
8
BLACK
6
CONTINUOUS
10
5.9698566535433066
20
-4.6054525984251971
11
5.973715708661417
21
-4.6112280708661419
0
LINE
8
BLACK
6
CONTINUOUS
10
5.973715708661417
20
-4.6112280708661419
11
5.9763738582677162
21
-4.6176454330708658
0
LINE
8
BLACK
6
CONTINUOUS
10
5.9763738582677162
20
-4.6176454330708658
11
5.9777289763779526
21
-4.624458070866142
0
LINE
8
BLACK
6
CONTINUOUS
10
5.9777289763779526
20
-4.624458070866142
11
5.9777289763779526
21
-4.6314041338582674
0
LINE
8
BLACK
6
CONTINUOUS
10
5.9777289763779526
20
-4.6314041338582674
11
5.9763738582677162
21
-4.6382167716535436
0
LINE
8
BLACK
6
CONTINUOUS
10
5.9763738582677162
20
-4.6382167716535436
11
5.973715708661417
21
-4.6446341338582675
0
LINE
8
BLACK
6
CONTINUOUS
10
5.973715708661417
20
-4.6446341338582675
11
5.9698566535433066
21
-4.6504096062992124
0
LINE
8
BLACK
6
CONTINUOUS
10
5.9698566535433066
20
-4.6504096062992124
11
5.9649450393700789
21
-4.655321220472441
0
LINE
8
BLACK
6
CONTINUOUS
10
5.9649450393700789
20
-4.655321220472441
11
5.959169566929134
21
-4.6591802755905514
0
LINE
8
BLACK
6
CONTINUOUS
10
5.959169566929134
20
-4.6591802755905514
11
5.9527522047244092
21
-4.6618384251968505
0
LINE
8
BLACK
6
CONTINUOUS
10
5.9527522047244092
20
-4.6618384251968505
11
5.9459395669291339
21
-4.6631935433070861
0
LINE
8
BLACK
6
CONTINUOUS
10
5.9459395669291339
20
-4.6631935433070861
11
5.9389935039370076
21
-4.6631935433070861
0
LINE
8
BLACK
6
CONTINUOUS
10
5.9389935039370076
20
-4.6631935433070861
11
5.9321808661417323
21
-4.6618384251968505
0
LINE
8
BLACK
6
CONTINUOUS
10
5.9321808661417323
20
-4.6618384251968505
11
5.9257635039370076
21
-4.6591802755905514
0
LINE
8
BLACK
6
CONTINUOUS
10
5.9257635039370076
20
-4.6591802755905514
11
5.9199880314960627
21
-4.655321220472441
0
LINE
8
BLACK
6
CONTINUOUS
10
5.9199880314960627
20
-4.655321220472441
11
5.9150764173228341
21
-4.6504096062992124
0
LINE
8
BLACK
6
CONTINUOUS
10
5.9150764173228341
20
-4.6504096062992124
11
5.9112173622047246
21
-4.6446341338582675
0
LINE
8
BLACK
6
CONTINUOUS
10
5.9112173622047246
20
-4.6446341338582675
11
5.9085592125984254
21
-4.6382167716535436
0
LINE
8
BLACK
6
CONTINUOUS
10
5.9085592125984254
20
-4.6382167716535436
11
5.907204094488189
21
-4.6314041338582674
0
LINE
8
BLACK
6
CONTINUOUS
10
5.907204094488189
20
-4.6314041338582674
11
5.907204094488189
21
-4.624458070866142
0
LINE
8
BLACK
6
CONTINUOUS
10
5.907204094488189
20
-4.624458070866142
11
5.9085592125984254
21
-4.6176454330708658
0
LINE
8
BLACK
6
CONTINUOUS
10
5.9085592125984254
20
-4.6176454330708658
11
5.9112173622047246
21
-4.6112280708661419
0
LINE
8
BLACK
6
CONTINUOUS
10
5.9112173622047246
20
-4.6112280708661419
11
5.9150764173228341
21
-4.6054525984251971
0
LINE
8
BLACK
6
CONTINUOUS
10
5.9150764173228341
20
-4.6054525984251971
11
5.9199880314960627
21
-4.6005409842519684
0
LINE
8
BLACK
6
CONTINUOUS
10
5.9199880314960627
20
-4.6005409842519684
11
5.9257635039370076
21
-4.5966819291338581
0
LINE
8
BLACK
6
CONTINUOUS
10
5.9257635039370076
20
-4.5966819291338581
11
5.9321808661417323
21
-4.5940237795275589
0
LINE
8
BLACK
6
CONTINUOUS
10
5.9321808661417323
20
-4.5940237795275589
11
5.9389935039370076
21
-4.5926686614173224
0
LINE
8
BLACK
6
CONTINUOUS
10
5.9389935039370076
20
-4.5926686614173224
11
5.9459395669291339
21
-4.5926686614173224
0
LINE
8
BLACK
6
CONTINUOUS
10
5.9459395669291339
20
-4.5926686614173224
11
5.9527522047244092
21
-4.5940237795275589
0
LINE
8
BLACK
6
CONTINUOUS
10
6.0527522047244089
20
-4.5940237795275589
11
6.0591695669291337
21
-4.5966819291338581
0
LINE
8
BLACK
6
CONTINUOUS
10
6.0591695669291337
20
-4.5966819291338581
11
6.0649450393700786
21
-4.6005409842519684
0
LINE
8
BLACK
6
CONTINUOUS
10
6.0649450393700786
20
-4.6005409842519684
11
6.0698566535433072
21
-4.6054525984251971
0
LINE
8
BLACK
6
CONTINUOUS
10
6.0698566535433072
20
-4.6054525984251971
11
6.0737157086614175
21
-4.6112280708661419
0
LINE
8
BLACK
6
CONTINUOUS
10
6.0737157086614175
20
-4.6112280708661419
11
6.0763738582677167
21
-4.6176454330708658
0
LINE
8
BLACK
6
CONTINUOUS
10
6.0763738582677167
20
-4.6176454330708658
11
6.0777289763779523
21
-4.624458070866142
0
LINE
8
BLACK
6
CONTINUOUS
10
6.0777289763779523
20
-4.624458070866142
11
6.0777289763779523
21
-4.6314041338582674
0
LINE
8
BLACK
6
CONTINUOUS
10
6.0777289763779523
20
-4.6314041338582674
11
6.0763738582677167
21
-4.6382167716535436
0
LINE
8
BLACK
6
CONTINUOUS
10
6.0763738582677167
20
-4.6382167716535436
11
6.0737157086614175
21
-4.6446341338582675
0
LINE
8
BLACK
6
CONTINUOUS
10
6.0737157086614175
20
-4.6446341338582675
11
6.0698566535433072
21
-4.6504096062992124
0
LINE
8
BLACK
6
CONTINUOUS
10
6.0698566535433072
20
-4.6504096062992124
11
6.0649450393700786
21
-4.655321220472441
0
LINE
8
BLACK
6
CONTINUOUS
10
6.0649450393700786
20
-4.655321220472441
11
6.0591695669291337
21
-4.6591802755905514
0
LINE
8
BLACK
6
CONTINUOUS
10
6.0591695669291337
20
-4.6591802755905514
11
6.0527522047244089
21
-4.6618384251968505
0
LINE
8
BLACK
6
CONTINUOUS
10
6.0527522047244089
20
-4.6618384251968505
11
6.0459395669291336
21
-4.6631935433070861
0
LINE
8
BLACK
6
CONTINUOUS
10
6.0459395669291336
20
-4.6631935433070861
11
6.0389935039370082
21
-4.6631935433070861
0
LINE
8
BLACK
6
CONTINUOUS
10
6.0389935039370082
20
-4.6631935433070861
11
6.032180866141732
21
-4.6618384251968505
0
LINE
8
BLACK
6
CONTINUOUS
10
6.032180866141732
20
-4.6618384251968505
11
6.0257635039370081
21
-4.6591802755905514
0
LINE
8
BLACK
6
CONTINUOUS
10
6.0257635039370081
20
-4.6591802755905514
11
6.0199880314960632
21
-4.655321220472441
0
LINE
8
BLACK
6
CONTINUOUS
10
6.0199880314960632
20
-4.655321220472441
11
6.0150764173228346
21
-4.6504096062992124
0
LINE
8
BLACK
6
CONTINUOUS
10
6.0150764173228346
20
-4.6504096062992124
11
6.0112173622047242
21
-4.6446341338582675
0
LINE
8
BLACK
6
CONTINUOUS
10
6.0112173622047242
20
-4.6446341338582675
11
6.0085592125984251
21
-4.6382167716535436
0
LINE
8
BLACK
6
CONTINUOUS
10
6.0085592125984251
20
-4.6382167716535436
11
6.0072040944881886
21
-4.6314041338582674
0
LINE
8
BLACK
6
CONTINUOUS
10
6.0072040944881886
20
-4.6314041338582674
11
6.0072040944881886
21
-4.624458070866142
0
LINE
8
BLACK
6
CONTINUOUS
10
6.0072040944881886
20
-4.624458070866142
11
6.0085592125984251
21
-4.6176454330708658
0
LINE
8
BLACK
6
CONTINUOUS
10
6.0085592125984251
20
-4.6176454330708658
11
6.0112173622047242
21
-4.6112280708661419
0
LINE
8
BLACK
6
CONTINUOUS
10
6.0112173622047242
20
-4.6112280708661419
11
6.0150764173228346
21
-4.6054525984251971
0
LINE
8
BLACK
6
CONTINUOUS
10
6.0150764173228346
20
-4.6054525984251971
11
6.0199880314960632
21
-4.6005409842519684
0
LINE
8
BLACK
6
CONTINUOUS
10
6.0199880314960632
20
-4.6005409842519684
11
6.0257635039370081
21
-4.5966819291338581
0
LINE
8
BLACK
6
CONTINUOUS
10
6.0257635039370081
20
-4.5966819291338581
11
6.032180866141732
21
-4.5940237795275589
0
LINE
8
BLACK
6
CONTINUOUS
10
6.032180866141732
20
-4.5940237795275589
11
6.0389935039370082
21
-4.5926686614173224
0
LINE
8
BLACK
6
CONTINUOUS
10
6.0389935039370082
20
-4.5926686614173224
11
6.0459395669291336
21
-4.5926686614173224
0
LINE
8
BLACK
6
CONTINUOUS
10
6.0459395669291336
20
-4.5926686614173224
11
6.0527522047244089
21
-4.5940237795275589
0
LINE
8
BLACK
6
CONTINUOUS
10
6.1527522047244094
20
-4.5940237795275589
11
6.1591695669291333
21
-4.5966819291338581
0
LINE
8
BLACK
6
CONTINUOUS
10
6.1591695669291333
20
-4.5966819291338581
11
6.1649450393700782
21
-4.6005409842519684
0
LINE
8
BLACK
6
CONTINUOUS
10
6.1649450393700782
20
-4.6005409842519684
11
6.1698566535433068
21
-4.6054525984251971
0
LINE
8
BLACK
6
CONTINUOUS
10
6.1698566535433068
20
-4.6054525984251971
11
6.1737157086614172
21
-4.6112280708661419
0
LINE
8
BLACK
6
CONTINUOUS
10
6.1737157086614172
20
-4.6112280708661419
11
6.1763738582677163
21
-4.6176454330708658
0
LINE
8
BLACK
6
CONTINUOUS
10
6.1763738582677163
20
-4.6176454330708658
11
6.1777289763779528
21
-4.624458070866142
0
LINE
8
BLACK
6
CONTINUOUS
10
6.1777289763779528
20
-4.624458070866142
11
6.1777289763779528
21
-4.6314041338582674
0
LINE
8
BLACK
6
CONTINUOUS
10
6.1777289763779528
20
-4.6314041338582674
11
6.1763738582677163
21
-4.6382167716535436
0
LINE
8
BLACK
6
CONTINUOUS
10
6.1763738582677163
20
-4.6382167716535436
11
6.1737157086614172
21
-4.6446341338582675
0
LINE
8
BLACK
6
CONTINUOUS
10
6.1737157086614172
20
-4.6446341338582675
11
6.1698566535433068
21
-4.6504096062992124
0
LINE
8
BLACK
6
CONTINUOUS
10
6.1698566535433068
20
-4.6504096062992124
11
6.1649450393700782
21
-4.655321220472441
0
LINE
8
BLACK
6
CONTINUOUS
10
6.1649450393700782
20
-4.655321220472441
11
6.1591695669291333
21
-4.6591802755905514
0
LINE
8
BLACK
6
CONTINUOUS
10
6.1591695669291333
20
-4.6591802755905514
11
6.1527522047244094
21
-4.6618384251968505
0
LINE
8
BLACK
6
CONTINUOUS
10
6.1527522047244094
20
-4.6618384251968505
11
6.1459395669291341
21
-4.6631935433070861
0
LINE
8
BLACK
6
CONTINUOUS
10
6.1459395669291341
20
-4.6631935433070861
11
6.1389935039370078
21
-4.6631935433070861
0
LINE
8
BLACK
6
CONTINUOUS
10
6.1389935039370078
20
-4.6631935433070861
11
6.1321808661417325
21
-4.6618384251968505
0
LINE
8
BLACK
6
CONTINUOUS
10
6.1321808661417325
20
-4.6618384251968505
11
6.1257635039370077
21
-4.6591802755905514
0
LINE
8
BLACK
6
CONTINUOUS
10
6.1257635039370077
20
-4.6591802755905514
11
6.1199880314960629
21
-4.655321220472441
0
LINE
8
BLACK
6
CONTINUOUS
10
6.1199880314960629
20
-4.655321220472441
11
6.1150764173228342
21
-4.6504096062992124
0
LINE
8
BLACK
6
CONTINUOUS
10
6.1150764173228342
20
-4.6504096062992124
11
6.1112173622047239
21
-4.6446341338582675
0
LINE
8
BLACK
6
CONTINUOUS
10
6.1112173622047239
20
-4.6446341338582675
11
6.1085592125984247
21
-4.6382167716535436
0
LINE
8
BLACK
6
CONTINUOUS
10
6.1085592125984247
20
-4.6382167716535436
11
6.1072040944881891
21
-4.6314041338582674
0
LINE
8
BLACK
6
CONTINUOUS
10
6.1072040944881891
20
-4.6314041338582674
11
6.1072040944881891
21
-4.624458070866142
0
LINE
8
BLACK
6
CONTINUOUS
10
6.1072040944881891
20
-4.624458070866142
11
6.1085592125984247
21
-4.6176454330708658
0
LINE
8
BLACK
6
CONTINUOUS
10
6.1085592125984247
20
-4.6176454330708658
11
6.1112173622047239
21
-4.6112280708661419
0
LINE
8
BLACK
6
CONTINUOUS
10
6.1112173622047239
20
-4.6112280708661419
11
6.1150764173228342
21
-4.6054525984251971
0
LINE
8
BLACK
6
CONTINUOUS
10
6.1150764173228342
20
-4.6054525984251971
11
6.1199880314960629
21
-4.6005409842519684
0
LINE
8
BLACK
6
CONTINUOUS
10
6.1199880314960629
20
-4.6005409842519684
11
6.1257635039370077
21
-4.5966819291338581
0
LINE
8
BLACK
6
CONTINUOUS
10
6.1257635039370077
20
-4.5966819291338581
11
6.1321808661417325
21
-4.5940237795275589
0
LINE
8
BLACK
6
CONTINUOUS
10
6.1321808661417325
20
-4.5940237795275589
11
6.1389935039370078
21
-4.5926686614173224
0
LINE
8
BLACK
6
CONTINUOUS
10
6.1389935039370078
20
-4.5926686614173224
11
6.1459395669291341
21
-4.5926686614173224
0
LINE
8
BLACK
6
CONTINUOUS
10
6.1459395669291341
20
-4.5926686614173224
11
6.1527522047244094
21
-4.5940237795275589
0
LINE
8
BLACK
6
CONTINUOUS
10
6.2527522047244091
20
-4.5940237795275589
11
6.2591695669291338
21
-4.5966819291338581
0
LINE
8
BLACK
6
CONTINUOUS
10
6.2591695669291338
20
-4.5966819291338581
11
6.2649450393700787
21
-4.6005409842519684
0
LINE
8
BLACK
6
CONTINUOUS
10
6.2649450393700787
20
-4.6005409842519684
11
6.2698566535433073
21
-4.6054525984251971
0
LINE
8
BLACK
6
CONTINUOUS
10
6.2698566535433073
20
-4.6054525984251971
11
6.2737157086614168
21
-4.6112280708661419
0
LINE
8
BLACK
6
CONTINUOUS
10
6.2737157086614168
20
-4.6112280708661419
11
6.276373858267716
21
-4.6176454330708658
0
LINE
8
BLACK
6
CONTINUOUS
10
6.276373858267716
20
-4.6176454330708658
11
6.2777289763779525
21
-4.624458070866142
0
LINE
8
BLACK
6
CONTINUOUS
10
6.2777289763779525
20
-4.624458070866142
11
6.2777289763779525
21
-4.6314041338582674
0
LINE
8
BLACK
6
CONTINUOUS
10
6.2777289763779525
20
-4.6314041338582674
11
6.276373858267716
21
-4.6382167716535436
0
LINE
8
BLACK
6
CONTINUOUS
10
6.276373858267716
20
-4.6382167716535436
11
6.2737157086614168
21
-4.6446341338582675
0
LINE
8
BLACK
6
CONTINUOUS
10
6.2737157086614168
20
-4.6446341338582675
11
6.2698566535433073
21
-4.6504096062992124
0
LINE
8
BLACK
6
CONTINUOUS
10
6.2698566535433073
20
-4.6504096062992124
11
6.2649450393700787
21
-4.655321220472441
0
LINE
8
BLACK
6
CONTINUOUS
10
6.2649450393700787
20
-4.655321220472441
11
6.2591695669291338
21
-4.6591802755905514
0
LINE
8
BLACK
6
CONTINUOUS
10
6.2591695669291338
20
-4.6591802755905514
11
6.2527522047244091
21
-4.6618384251968505
0
LINE
8
BLACK
6
CONTINUOUS
10
6.2527522047244091
20
-4.6618384251968505
11
6.2459395669291338
21
-4.6631935433070861
0
LINE
8
BLACK
6
CONTINUOUS
10
6.2459395669291338
20
-4.6631935433070861
11
6.2389935039370075
21
-4.6631935433070861
0
LINE
8
BLACK
6
CONTINUOUS
10
6.2389935039370075
20
-4.6631935433070861
11
6.2321808661417322
21
-4.6618384251968505
0
LINE
8
BLACK
6
CONTINUOUS
10
6.2321808661417322
20
-4.6618384251968505
11
6.2257635039370074
21
-4.6591802755905514
0
LINE
8
BLACK
6
CONTINUOUS
10
6.2257635039370074
20
-4.6591802755905514
11
6.2199880314960625
21
-4.655321220472441
0
LINE
8
BLACK
6
CONTINUOUS
10
6.2199880314960625
20
-4.655321220472441
11
6.2150764173228348
21
-4.6504096062992124
0
LINE
8
BLACK
6
CONTINUOUS
10
6.2150764173228348
20
-4.6504096062992124
11
6.2112173622047244
21
-4.6446341338582675
0
LINE
8
BLACK
6
CONTINUOUS
10
6.2112173622047244
20
-4.6446341338582675
11
6.2085592125984252
21
-4.6382167716535436
0
LINE
8
BLACK
6
CONTINUOUS
10
6.2085592125984252
20
-4.6382167716535436
11
6.2072040944881888
21
-4.6314041338582674
0
LINE
8
BLACK
6
CONTINUOUS
10
6.2072040944881888
20
-4.6314041338582674
11
6.2072040944881888
21
-4.624458070866142
0
LINE
8
BLACK
6
CONTINUOUS
10
6.2072040944881888
20
-4.624458070866142
11
6.2085592125984252
21
-4.6176454330708658
0
LINE
8
BLACK
6
CONTINUOUS
10
6.2085592125984252
20
-4.6176454330708658
11
6.2112173622047244
21
-4.6112280708661419
0
LINE
8
BLACK
6
CONTINUOUS
10
6.2112173622047244
20
-4.6112280708661419
11
6.2150764173228348
21
-4.6054525984251971
0
LINE
8
BLACK
6
CONTINUOUS
10
6.2150764173228348
20
-4.6054525984251971
11
6.2199880314960625
21
-4.6005409842519684
0
LINE
8
BLACK
6
CONTINUOUS
10
6.2199880314960625
20
-4.6005409842519684
11
6.2257635039370074
21
-4.5966819291338581
0
LINE
8
BLACK
6
CONTINUOUS
10
6.2257635039370074
20
-4.5966819291338581
11
6.2321808661417322
21
-4.5940237795275589
0
LINE
8
BLACK
6
CONTINUOUS
10
6.2321808661417322
20
-4.5940237795275589
11
6.2389935039370075
21
-4.5926686614173224
0
LINE
8
BLACK
6
CONTINUOUS
10
6.2389935039370075
20
-4.5926686614173224
11
6.2459395669291338
21
-4.5926686614173224
0
LINE
8
BLACK
6
CONTINUOUS
10
6.2459395669291338
20
-4.5926686614173224
11
6.2527522047244091
21
-4.5940237795275589
0
LINE
8
BLACK
6
CONTINUOUS
10
6.3527522047244096
20
-4.5940237795275589
11
6.3591695669291335
21
-4.5966819291338581
0
LINE
8
BLACK
6
CONTINUOUS
10
6.3591695669291335
20
-4.5966819291338581
11
6.3649450393700784
21
-4.6005409842519684
0
LINE
8
BLACK
6
CONTINUOUS
10
6.3649450393700784
20
-4.6005409842519684
11
6.369856653543307
21
-4.6054525984251971
0
LINE
8
BLACK
6
CONTINUOUS
10
6.369856653543307
20
-4.6054525984251971
11
6.3737157086614173
21
-4.6112280708661419
0
LINE
8
BLACK
6
CONTINUOUS
10
6.3737157086614173
20
-4.6112280708661419
11
6.3763738582677165
21
-4.6176454330708658
0
LINE
8
BLACK
6
CONTINUOUS
10
6.3763738582677165
20
-4.6176454330708658
11
6.377728976377953
21
-4.624458070866142
0
LINE
8
BLACK
6
CONTINUOUS
10
6.377728976377953
20
-4.624458070866142
11
6.377728976377953
21
-4.6314041338582674
0
LINE
8
BLACK
6
CONTINUOUS
10
6.377728976377953
20
-4.6314041338582674
11
6.3763738582677165
21
-4.6382167716535436
0
LINE
8
BLACK
6
CONTINUOUS
10
6.3763738582677165
20
-4.6382167716535436
11
6.3737157086614173
21
-4.6446341338582675
0
LINE
8
BLACK
6
CONTINUOUS
10
6.3737157086614173
20
-4.6446341338582675
11
6.369856653543307
21
-4.6504096062992124
0
LINE
8
BLACK
6
CONTINUOUS
10
6.369856653543307
20
-4.6504096062992124
11
6.3649450393700784
21
-4.655321220472441
0
LINE
8
BLACK
6
CONTINUOUS
10
6.3649450393700784
20
-4.655321220472441
11
6.3591695669291335
21
-4.6591802755905514
0
LINE
8
BLACK
6
CONTINUOUS
10
6.3591695669291335
20
-4.6591802755905514
11
6.3527522047244096
21
-4.6618384251968505
0
LINE
8
BLACK
6
CONTINUOUS
10
6.3527522047244096
20
-4.6618384251968505
11
6.3459395669291334
21
-4.6631935433070861
0
LINE
8
BLACK
6
CONTINUOUS
10
6.3459395669291334
20
-4.6631935433070861
11
6.338993503937008
21
-4.6631935433070861
0
LINE
8
BLACK
6
CONTINUOUS
10
6.338993503937008
20
-4.6631935433070861
11
6.3321808661417318
21
-4.6618384251968505
0
LINE
8
BLACK
6
CONTINUOUS
10
6.3321808661417318
20
-4.6618384251968505
11
6.3257635039370079
21
-4.6591802755905514
0
LINE
8
BLACK
6
CONTINUOUS
10
6.3257635039370079
20
-4.6591802755905514
11
6.319988031496063
21
-4.655321220472441
0
LINE
8
BLACK
6
CONTINUOUS
10
6.319988031496063
20
-4.655321220472441
11
6.3150764173228344
21
-4.6504096062992124
0
LINE
8
BLACK
6
CONTINUOUS
10
6.3150764173228344
20
-4.6504096062992124
11
6.3112173622047241
21
-4.6446341338582675
0
LINE
8
BLACK
6
CONTINUOUS
10
6.3112173622047241
20
-4.6446341338582675
11
6.3085592125984249
21
-4.6382167716535436
0
LINE
8
BLACK
6
CONTINUOUS
10
6.3085592125984249
20
-4.6382167716535436
11
6.3072040944881884
21
-4.6314041338582674
0
LINE
8
BLACK
6
CONTINUOUS
10
6.3072040944881884
20
-4.6314041338582674
11
6.3072040944881884
21
-4.624458070866142
0
LINE
8
BLACK
6
CONTINUOUS
10
6.3072040944881884
20
-4.624458070866142
11
6.3085592125984249
21
-4.6176454330708658
0
LINE
8
BLACK
6
CONTINUOUS
10
6.3085592125984249
20
-4.6176454330708658
11
6.3112173622047241
21
-4.6112280708661419
0
LINE
8
BLACK
6
CONTINUOUS
10
6.3112173622047241
20
-4.6112280708661419
11
6.3150764173228344
21
-4.6054525984251971
0
LINE
8
BLACK
6
CONTINUOUS
10
6.3150764173228344
20
-4.6054525984251971
11
6.319988031496063
21
-4.6005409842519684
0
LINE
8
BLACK
6
CONTINUOUS
10
6.319988031496063
20
-4.6005409842519684
11
6.3257635039370079
21
-4.5966819291338581
0
LINE
8
BLACK
6
CONTINUOUS
10
6.3257635039370079
20
-4.5966819291338581
11
6.3321808661417318
21
-4.5940237795275589
0
LINE
8
BLACK
6
CONTINUOUS
10
6.3321808661417318
20
-4.5940237795275589
11
6.338993503937008
21
-4.5926686614173224
0
LINE
8
BLACK
6
CONTINUOUS
10
6.338993503937008
20
-4.5926686614173224
11
6.3459395669291334
21
-4.5926686614173224
0
LINE
8
BLACK
6
CONTINUOUS
10
6.3459395669291334
20
-4.5926686614173224
11
6.3527522047244096
21
-4.5940237795275589
0
LINE
8
BLACK
6
CONTINUOUS
10
6.4527522047244092
20
-4.5940237795275589
11
6.459169566929134
21
-4.5966819291338581
0
LINE
8
BLACK
6
CONTINUOUS
10
6.459169566929134
20
-4.5966819291338581
11
6.4649450393700789
21
-4.6005409842519684
0
LINE
8
BLACK
6
CONTINUOUS
10
6.4649450393700789
20
-4.6005409842519684
11
6.4698566535433066
21
-4.6054525984251971
0
LINE
8
BLACK
6
CONTINUOUS
10
6.4698566535433066
20
-4.6054525984251971
11
6.473715708661417
21
-4.6112280708661419
0
LINE
8
BLACK
6
CONTINUOUS
10
6.473715708661417
20
-4.6112280708661419
11
6.4763738582677162
21
-4.6176454330708658
0
LINE
8
BLACK
6
CONTINUOUS
10
6.4763738582677162
20
-4.6176454330708658
11
6.4777289763779526
21
-4.624458070866142
0
LINE
8
BLACK
6
CONTINUOUS
10
6.4777289763779526
20
-4.624458070866142
11
6.4777289763779526
21
-4.6314041338582674
0
LINE
8
BLACK
6
CONTINUOUS
10
6.4777289763779526
20
-4.6314041338582674
11
6.4763738582677162
21
-4.6382167716535436
0
LINE
8
BLACK
6
CONTINUOUS
10
6.4763738582677162
20
-4.6382167716535436
11
6.473715708661417
21
-4.6446341338582675
0
LINE
8
BLACK
6
CONTINUOUS
10
6.473715708661417
20
-4.6446341338582675
11
6.4698566535433066
21
-4.6504096062992124
0
LINE
8
BLACK
6
CONTINUOUS
10
6.4698566535433066
20
-4.6504096062992124
11
6.4649450393700789
21
-4.655321220472441
0
LINE
8
BLACK
6
CONTINUOUS
10
6.4649450393700789
20
-4.655321220472441
11
6.459169566929134
21
-4.6591802755905514
0
LINE
8
BLACK
6
CONTINUOUS
10
6.459169566929134
20
-4.6591802755905514
11
6.4527522047244092
21
-4.6618384251968505
0
LINE
8
BLACK
6
CONTINUOUS
10
6.4527522047244092
20
-4.6618384251968505
11
6.4459395669291339
21
-4.6631935433070861
0
LINE
8
BLACK
6
CONTINUOUS
10
6.4459395669291339
20
-4.6631935433070861
11
6.4389935039370076
21
-4.6631935433070861
0
LINE
8
BLACK
6
CONTINUOUS
10
6.4389935039370076
20
-4.6631935433070861
11
6.4321808661417323
21
-4.6618384251968505
0
LINE
8
BLACK
6
CONTINUOUS
10
6.4321808661417323
20
-4.6618384251968505
11
6.4257635039370076
21
-4.6591802755905514
0
LINE
8
BLACK
6
CONTINUOUS
10
6.4257635039370076
20
-4.6591802755905514
11
6.4199880314960627
21
-4.655321220472441
0
LINE
8
BLACK
6
CONTINUOUS
10
6.4199880314960627
20
-4.655321220472441
11
6.4150764173228341
21
-4.6504096062992124
0
LINE
8
BLACK
6
CONTINUOUS
10
6.4150764173228341
20
-4.6504096062992124
11
6.4112173622047246
21
-4.6446341338582675
0
LINE
8
BLACK
6
CONTINUOUS
10
6.4112173622047246
20
-4.6446341338582675
11
6.4085592125984254
21
-4.6382167716535436
0
LINE
8
BLACK
6
CONTINUOUS
10
6.4085592125984254
20
-4.6382167716535436
11
6.407204094488189
21
-4.6314041338582674
0
LINE
8
BLACK
6
CONTINUOUS
10
6.407204094488189
20
-4.6314041338582674
11
6.407204094488189
21
-4.624458070866142
0
LINE
8
BLACK
6
CONTINUOUS
10
6.407204094488189
20
-4.624458070866142
11
6.4085592125984254
21
-4.6176454330708658
0
LINE
8
BLACK
6
CONTINUOUS
10
6.4085592125984254
20
-4.6176454330708658
11
6.4112173622047246
21
-4.6112280708661419
0
LINE
8
BLACK
6
CONTINUOUS
10
6.4112173622047246
20
-4.6112280708661419
11
6.4150764173228341
21
-4.6054525984251971
0
LINE
8
BLACK
6
CONTINUOUS
10
6.4150764173228341
20
-4.6054525984251971
11
6.4199880314960627
21
-4.6005409842519684
0
LINE
8
BLACK
6
CONTINUOUS
10
6.4199880314960627
20
-4.6005409842519684
11
6.4257635039370076
21
-4.5966819291338581
0
LINE
8
BLACK
6
CONTINUOUS
10
6.4257635039370076
20
-4.5966819291338581
11
6.4321808661417323
21
-4.5940237795275589
0
LINE
8
BLACK
6
CONTINUOUS
10
6.4321808661417323
20
-4.5940237795275589
11
6.4389935039370076
21
-4.5926686614173224
0
LINE
8
BLACK
6
CONTINUOUS
10
6.4389935039370076
20
-4.5926686614173224
11
6.4459395669291339
21
-4.5926686614173224
0
LINE
8
BLACK
6
CONTINUOUS
10
6.4459395669291339
20
-4.5926686614173224
11
6.4527522047244092
21
-4.5940237795275589
0
LINE
8
BLACK
6
CONTINUOUS
10
6.5527522047244089
20
-4.5940237795275589
11
6.5591695669291337
21
-4.5966819291338581
0
LINE
8
BLACK
6
CONTINUOUS
10
6.5591695669291337
20
-4.5966819291338581
11
6.5649450393700786
21
-4.6005409842519684
0
LINE
8
BLACK
6
CONTINUOUS
10
6.5649450393700786
20
-4.6005409842519684
11
6.5698566535433072
21
-4.6054525984251971
0
LINE
8
BLACK
6
CONTINUOUS
10
6.5698566535433072
20
-4.6054525984251971
11
6.5737157086614175
21
-4.6112280708661419
0
LINE
8
BLACK
6
CONTINUOUS
10
6.5737157086614175
20
-4.6112280708661419
11
6.5763738582677167
21
-4.6176454330708658
0
LINE
8
BLACK
6
CONTINUOUS
10
6.5763738582677167
20
-4.6176454330708658
11
6.5777289763779523
21
-4.624458070866142
0
LINE
8
BLACK
6
CONTINUOUS
10
6.5777289763779523
20
-4.624458070866142
11
6.5777289763779523
21
-4.6314041338582674
0
LINE
8
BLACK
6
CONTINUOUS
10
6.5777289763779523
20
-4.6314041338582674
11
6.5763738582677167
21
-4.6382167716535436
0
LINE
8
BLACK
6
CONTINUOUS
10
6.5763738582677167
20
-4.6382167716535436
11
6.5737157086614175
21
-4.6446341338582675
0
LINE
8
BLACK
6
CONTINUOUS
10
6.5737157086614175
20
-4.6446341338582675
11
6.5698566535433072
21
-4.6504096062992124
0
LINE
8
BLACK
6
CONTINUOUS
10
6.5698566535433072
20
-4.6504096062992124
11
6.5649450393700786
21
-4.655321220472441
0
LINE
8
BLACK
6
CONTINUOUS
10
6.5649450393700786
20
-4.655321220472441
11
6.5591695669291337
21
-4.6591802755905514
0
LINE
8
BLACK
6
CONTINUOUS
10
6.5591695669291337
20
-4.6591802755905514
11
6.5527522047244089
21
-4.6618384251968505
0
LINE
8
BLACK
6
CONTINUOUS
10
6.5527522047244089
20
-4.6618384251968505
11
6.5459395669291336
21
-4.6631935433070861
0
LINE
8
BLACK
6
CONTINUOUS
10
6.5459395669291336
20
-4.6631935433070861
11
6.5389935039370073
21
-4.6631935433070861
0
LINE
8
BLACK
6
CONTINUOUS
10
6.5389935039370073
20
-4.6631935433070861
11
6.532180866141732
21
-4.6618384251968505
0
LINE
8
BLACK
6
CONTINUOUS
10
6.532180866141732
20
-4.6618384251968505
11
6.5257635039370081
21
-4.6591802755905514
0
LINE
8
BLACK
6
CONTINUOUS
10
6.5257635039370081
20
-4.6591802755905514
11
6.5199880314960632
21
-4.655321220472441
0
LINE
8
BLACK
6
CONTINUOUS
10
6.5199880314960632
20
-4.655321220472441
11
6.5150764173228346
21
-4.6504096062992124
0
LINE
8
BLACK
6
CONTINUOUS
10
6.5150764173228346
20
-4.6504096062992124
11
6.5112173622047242
21
-4.6446341338582675
0
LINE
8
BLACK
6
CONTINUOUS
10
6.5112173622047242
20
-4.6446341338582675
11
6.5085592125984251
21
-4.6382167716535436
0
LINE
8
BLACK
6
CONTINUOUS
10
6.5085592125984251
20
-4.6382167716535436
11
6.5072040944881886
21
-4.6314041338582674
0
LINE
8
BLACK
6
CONTINUOUS
10
6.5072040944881886
20
-4.6314041338582674
11
6.5072040944881886
21
-4.624458070866142
0
LINE
8
BLACK
6
CONTINUOUS
10
6.5072040944881886
20
-4.624458070866142
11
6.5085592125984251
21
-4.6176454330708658
0
LINE
8
BLACK
6
CONTINUOUS
10
6.5085592125984251
20
-4.6176454330708658
11
6.5112173622047242
21
-4.6112280708661419
0
LINE
8
BLACK
6
CONTINUOUS
10
6.5112173622047242
20
-4.6112280708661419
11
6.5150764173228346
21
-4.6054525984251971
0
LINE
8
BLACK
6
CONTINUOUS
10
6.5150764173228346
20
-4.6054525984251971
11
6.5199880314960632
21
-4.6005409842519684
0
LINE
8
BLACK
6
CONTINUOUS
10
6.5199880314960632
20
-4.6005409842519684
11
6.5257635039370081
21
-4.5966819291338581
0
LINE
8
BLACK
6
CONTINUOUS
10
6.5257635039370081
20
-4.5966819291338581
11
6.532180866141732
21
-4.5940237795275589
0
LINE
8
BLACK
6
CONTINUOUS
10
6.532180866141732
20
-4.5940237795275589
11
6.5389935039370073
21
-4.5926686614173224
0
LINE
8
BLACK
6
CONTINUOUS
10
6.5389935039370073
20
-4.5926686614173224
11
6.5459395669291336
21
-4.5926686614173224
0
LINE
8
BLACK
6
CONTINUOUS
10
6.5459395669291336
20
-4.5926686614173224
11
6.5527522047244089
21
-4.5940237795275589
0
LINE
8
BLACK
6
CONTINUOUS
10
6.6527522047244094
20
-4.5940237795275589
11
6.6591695669291333
21
-4.5966819291338581
0
LINE
8
BLACK
6
CONTINUOUS
10
6.6591695669291333
20
-4.5966819291338581
11
6.6649450393700782
21
-4.6005409842519684
0
LINE
8
BLACK
6
CONTINUOUS
10
6.6649450393700782
20
-4.6005409842519684
11
6.6698566535433068
21
-4.6054525984251971
0
LINE
8
BLACK
6
CONTINUOUS
10
6.6698566535433068
20
-4.6054525984251971
11
6.6737157086614172
21
-4.6112280708661419
0
LINE
8
BLACK
6
CONTINUOUS
10
6.6737157086614172
20
-4.6112280708661419
11
6.6763738582677163
21
-4.6176454330708658
0
LINE
8
BLACK
6
CONTINUOUS
10
6.6763738582677163
20
-4.6176454330708658
11
6.6777289763779528
21
-4.624458070866142
0
LINE
8
BLACK
6
CONTINUOUS
10
6.6777289763779528
20
-4.624458070866142
11
6.6777289763779528
21
-4.6314041338582674
0
LINE
8
BLACK
6
CONTINUOUS
10
6.6777289763779528
20
-4.6314041338582674
11
6.6763738582677163
21
-4.6382167716535436
0
LINE
8
BLACK
6
CONTINUOUS
10
6.6763738582677163
20
-4.6382167716535436
11
6.6737157086614172
21
-4.6446341338582675
0
LINE
8
BLACK
6
CONTINUOUS
10
6.6737157086614172
20
-4.6446341338582675
11
6.6698566535433068
21
-4.6504096062992124
0
LINE
8
BLACK
6
CONTINUOUS
10
6.6698566535433068
20
-4.6504096062992124
11
6.6649450393700782
21
-4.655321220472441
0
LINE
8
BLACK
6
CONTINUOUS
10
6.6649450393700782
20
-4.655321220472441
11
6.6591695669291333
21
-4.6591802755905514
0
LINE
8
BLACK
6
CONTINUOUS
10
6.6591695669291333
20
-4.6591802755905514
11
6.6527522047244094
21
-4.6618384251968505
0
LINE
8
BLACK
6
CONTINUOUS
10
6.6527522047244094
20
-4.6618384251968505
11
6.6459395669291341
21
-4.6631935433070861
0
LINE
8
BLACK
6
CONTINUOUS
10
6.6459395669291341
20
-4.6631935433070861
11
6.6389935039370078
21
-4.6631935433070861
0
LINE
8
BLACK
6
CONTINUOUS
10
6.6389935039370078
20
-4.6631935433070861
11
6.6321808661417325
21
-4.6618384251968505
0
LINE
8
BLACK
6
CONTINUOUS
10
6.6321808661417325
20
-4.6618384251968505
11
6.6257635039370077
21
-4.6591802755905514
0
LINE
8
BLACK
6
CONTINUOUS
10
6.6257635039370077
20
-4.6591802755905514
11
6.6199880314960629
21
-4.655321220472441
0
LINE
8
BLACK
6
CONTINUOUS
10
6.6199880314960629
20
-4.655321220472441
11
6.6150764173228342
21
-4.6504096062992124
0
LINE
8
BLACK
6
CONTINUOUS
10
6.6150764173228342
20
-4.6504096062992124
11
6.6112173622047239
21
-4.6446341338582675
0
LINE
8
BLACK
6
CONTINUOUS
10
6.6112173622047239
20
-4.6446341338582675
11
6.6085592125984247
21
-4.6382167716535436
0
LINE
8
BLACK
6
CONTINUOUS
10
6.6085592125984247
20
-4.6382167716535436
11
6.6072040944881891
21
-4.6314041338582674
0
LINE
8
BLACK
6
CONTINUOUS
10
6.6072040944881891
20
-4.6314041338582674
11
6.6072040944881891
21
-4.624458070866142
0
LINE
8
BLACK
6
CONTINUOUS
10
6.6072040944881891
20
-4.624458070866142
11
6.6085592125984247
21
-4.6176454330708658
0
LINE
8
BLACK
6
CONTINUOUS
10
6.6085592125984247
20
-4.6176454330708658
11
6.6112173622047239
21
-4.6112280708661419
0
LINE
8
BLACK
6
CONTINUOUS
10
6.6112173622047239
20
-4.6112280708661419
11
6.6150764173228342
21
-4.6054525984251971
0
LINE
8
BLACK
6
CONTINUOUS
10
6.6150764173228342
20
-4.6054525984251971
11
6.6199880314960629
21
-4.6005409842519684
0
LINE
8
BLACK
6
CONTINUOUS
10
6.6199880314960629
20
-4.6005409842519684
11
6.6257635039370077
21
-4.5966819291338581
0
LINE
8
BLACK
6
CONTINUOUS
10
6.6257635039370077
20
-4.5966819291338581
11
6.6321808661417325
21
-4.5940237795275589
0
LINE
8
BLACK
6
CONTINUOUS
10
6.6321808661417325
20
-4.5940237795275589
11
6.6389935039370078
21
-4.5926686614173224
0
LINE
8
BLACK
6
CONTINUOUS
10
6.6389935039370078
20
-4.5926686614173224
11
6.6459395669291341
21
-4.5926686614173224
0
LINE
8
BLACK
6
CONTINUOUS
10
6.6459395669291341
20
-4.5926686614173224
11
6.6527522047244094
21
-4.5940237795275589
0
LINE
8
BLACK
6
CONTINUOUS
10
6.7527522047244091
20
-4.5940237795275589
11
6.7591695669291338
21
-4.5966819291338581
0
LINE
8
BLACK
6
CONTINUOUS
10
6.7591695669291338
20
-4.5966819291338581
11
6.7649450393700787
21
-4.6005409842519684
0
LINE
8
BLACK
6
CONTINUOUS
10
6.7649450393700787
20
-4.6005409842519684
11
6.7698566535433073
21
-4.6054525984251971
0
LINE
8
BLACK
6
CONTINUOUS
10
6.7698566535433073
20
-4.6054525984251971
11
6.7737157086614168
21
-4.6112280708661419
0
LINE
8
BLACK
6
CONTINUOUS
10
6.7737157086614168
20
-4.6112280708661419
11
6.776373858267716
21
-4.6176454330708658
0
LINE
8
BLACK
6
CONTINUOUS
10
6.776373858267716
20
-4.6176454330708658
11
6.7777289763779525
21
-4.624458070866142
0
LINE
8
BLACK
6
CONTINUOUS
10
6.7777289763779525
20
-4.624458070866142
11
6.7777289763779525
21
-4.6314041338582674
0
LINE
8
BLACK
6
CONTINUOUS
10
6.7777289763779525
20
-4.6314041338582674
11
6.776373858267716
21
-4.6382167716535436
0
LINE
8
BLACK
6
CONTINUOUS
10
6.776373858267716
20
-4.6382167716535436
11
6.7737157086614168
21
-4.6446341338582675
0
LINE
8
BLACK
6
CONTINUOUS
10
6.7737157086614168
20
-4.6446341338582675
11
6.7698566535433073
21
-4.6504096062992124
0
LINE
8
BLACK
6
CONTINUOUS
10
6.7698566535433073
20
-4.6504096062992124
11
6.7649450393700787
21
-4.655321220472441
0
LINE
8
BLACK
6
CONTINUOUS
10
6.7649450393700787
20
-4.655321220472441
11
6.7591695669291338
21
-4.6591802755905514
0
LINE
8
BLACK
6
CONTINUOUS
10
6.7591695669291338
20
-4.6591802755905514
11
6.7527522047244091
21
-4.6618384251968505
0
LINE
8
BLACK
6
CONTINUOUS
10
6.7527522047244091
20
-4.6618384251968505
11
6.7459395669291338
21
-4.6631935433070861
0
LINE
8
BLACK
6
CONTINUOUS
10
6.7459395669291338
20
-4.6631935433070861
11
6.7389935039370075
21
-4.6631935433070861
0
LINE
8
BLACK
6
CONTINUOUS
10
6.7389935039370075
20
-4.6631935433070861
11
6.7321808661417322
21
-4.6618384251968505
0
LINE
8
BLACK
6
CONTINUOUS
10
6.7321808661417322
20
-4.6618384251968505
11
6.7257635039370074
21
-4.6591802755905514
0
LINE
8
BLACK
6
CONTINUOUS
10
6.7257635039370074
20
-4.6591802755905514
11
6.7199880314960625
21
-4.655321220472441
0
LINE
8
BLACK
6
CONTINUOUS
10
6.7199880314960625
20
-4.655321220472441
11
6.7150764173228348
21
-4.6504096062992124
0
LINE
8
BLACK
6
CONTINUOUS
10
6.7150764173228348
20
-4.6504096062992124
11
6.7112173622047244
21
-4.6446341338582675
0
LINE
8
BLACK
6
CONTINUOUS
10
6.7112173622047244
20
-4.6446341338582675
11
6.7085592125984252
21
-4.6382167716535436
0
LINE
8
BLACK
6
CONTINUOUS
10
6.7085592125984252
20
-4.6382167716535436
11
6.7072040944881888
21
-4.6314041338582674
0
LINE
8
BLACK
6
CONTINUOUS
10
6.7072040944881888
20
-4.6314041338582674
11
6.7072040944881888
21
-4.624458070866142
0
LINE
8
BLACK
6
CONTINUOUS
10
6.7072040944881888
20
-4.624458070866142
11
6.7085592125984252
21
-4.6176454330708658
0
LINE
8
BLACK
6
CONTINUOUS
10
6.7085592125984252
20
-4.6176454330708658
11
6.7112173622047244
21
-4.6112280708661419
0
LINE
8
BLACK
6
CONTINUOUS
10
6.7112173622047244
20
-4.6112280708661419
11
6.7150764173228348
21
-4.6054525984251971
0
LINE
8
BLACK
6
CONTINUOUS
10
6.7150764173228348
20
-4.6054525984251971
11
6.7199880314960625
21
-4.6005409842519684
0
LINE
8
BLACK
6
CONTINUOUS
10
6.7199880314960625
20
-4.6005409842519684
11
6.7257635039370074
21
-4.5966819291338581
0
LINE
8
BLACK
6
CONTINUOUS
10
6.7257635039370074
20
-4.5966819291338581
11
6.7321808661417322
21
-4.5940237795275589
0
LINE
8
BLACK
6
CONTINUOUS
10
6.7321808661417322
20
-4.5940237795275589
11
6.7389935039370075
21
-4.5926686614173224
0
LINE
8
BLACK
6
CONTINUOUS
10
6.7389935039370075
20
-4.5926686614173224
11
6.7459395669291338
21
-4.5926686614173224
0
LINE
8
BLACK
6
CONTINUOUS
10
6.7459395669291338
20
-4.5926686614173224
11
6.7527522047244091
21
-4.5940237795275589
0
LINE
8
BLACK
6
CONTINUOUS
10
4.4449424015748029
20
-4.38800094488189
11
4.4474968897637792
21
-4.3897078346456695
0
LINE
8
BLACK
6
CONTINUOUS
10
4.4474968897637792
20
-4.3897078346456695
11
4.4492037795275587
21
-4.3922623228346458
0
LINE
8
BLACK
6
CONTINUOUS
10
4.4492037795275587
20
-4.3922623228346458
11
4.4498031496062991
21
-4.3952755905511811
0
LINE
8
BLACK
6
CONTINUOUS
10
4.4498031496062991
20
-4.3952755905511811
11
4.4498031496062991
21
-4.4503937007874015
0
LINE
8
BLACK
6
CONTINUOUS
10
4.4498031496062991
20
-4.4503937007874015
11
4.4492037795275587
21
-4.4534069685039368
0
LINE
8
BLACK
6
CONTINUOUS
10
4.4492037795275587
20
-4.4534069685039368
11
4.4474968897637792
21
-4.4559614566929131
0
LINE
8
BLACK
6
CONTINUOUS
10
4.4474968897637792
20
-4.4559614566929131
11
4.4449424015748029
21
-4.4576683464566926
0
LINE
8
BLACK
6
CONTINUOUS
10
4.4449424015748029
20
-4.4576683464566926
11
4.4419291338582676
21
-4.458267716535433
0
LINE
8
BLACK
6
CONTINUOUS
10
4.4419291338582676
20
-4.458267716535433
11
4.4301181102362204
21
-4.458267716535433
0
LINE
8
BLACK
6
CONTINUOUS
10
4.4301181102362204
20
-4.458267716535433
11
4.4271048425196851
21
-4.4576683464566926
0
LINE
8
BLACK
6
CONTINUOUS
10
4.4271048425196851
20
-4.4576683464566926
11
4.4245503543307088
21
-4.4559614566929131
0
LINE
8
BLACK
6
CONTINUOUS
10
4.4245503543307088
20
-4.4559614566929131
11
4.4228434645669292
21
-4.4534069685039368
0
LINE
8
BLACK
6
CONTINUOUS
10
4.4228434645669292
20
-4.4534069685039368
11
4.4222440944881889
21
-4.4503937007874015
0
LINE
8
BLACK
6
CONTINUOUS
10
4.4222440944881889
20
-4.4503937007874015
11
4.4222440944881889
21
-4.3952755905511811
0
LINE
8
BLACK
6
CONTINUOUS
10
4.4222440944881889
20
-4.3952755905511811
11
4.4228434645669292
21
-4.3922623228346458
0
LINE
8
BLACK
6
CONTINUOUS
10
4.4228434645669292
20
-4.3922623228346458
11
4.4245503543307088
21
-4.3897078346456695
0
LINE
8
BLACK
6
CONTINUOUS
10
4.4245503543307088
20
-4.3897078346456695
11
4.4271048425196851
21
-4.38800094488189
0
LINE
8
BLACK
6
CONTINUOUS
10
4.4271048425196851
20
-4.38800094488189
11
4.4301181102362204
21
-4.3874015748031496
0
LINE
8
BLACK
6
CONTINUOUS
10
4.4301181102362204
20
-4.3874015748031496
11
4.4419291338582676
21
-4.3874015748031496
0
LINE
8
BLACK
6
CONTINUOUS
10
4.4419291338582676
20
-4.3874015748031496
11
4.4449424015748029
21
-4.38800094488189
0
LINE
8
BLACK
6
CONTINUOUS
10
4.4941550000000001
20
-4.38800094488189
11
4.4967094881889764
21
-4.3897078346456695
0
LINE
8
BLACK
6
CONTINUOUS
10
4.4967094881889764
20
-4.3897078346456695
11
4.498416377952756
21
-4.3922623228346458
0
LINE
8
BLACK
6
CONTINUOUS
10
4.498416377952756
20
-4.3922623228346458
11
4.4990157480314963
21
-4.3952755905511811
0
LINE
8
BLACK
6
CONTINUOUS
10
4.4990157480314963
20
-4.3952755905511811
11
4.4990157480314963
21
-4.4503937007874015
0
LINE
8
BLACK
6
CONTINUOUS
10
4.4990157480314963
20
-4.4503937007874015
11
4.498416377952756
21
-4.4534069685039368
0
LINE
8
BLACK
6
CONTINUOUS
10
4.498416377952756
20
-4.4534069685039368
11
4.4967094881889764
21
-4.4559614566929131
0
LINE
8
BLACK
6
CONTINUOUS
10
4.4967094881889764
20
-4.4559614566929131
11
4.4941550000000001
21
-4.4576683464566926
0
LINE
8
BLACK
6
CONTINUOUS
10
4.4941550000000001
20
-4.4576683464566926
11
4.4911417322834648
21
-4.458267716535433
0
LINE
8
BLACK
6
CONTINUOUS
10
4.4911417322834648
20
-4.458267716535433
11
4.4793307086614176
21
-4.458267716535433
0
LINE
8
BLACK
6
CONTINUOUS
10
4.4793307086614176
20
-4.458267716535433
11
4.4763174409448814
21
-4.4576683464566926
0
LINE
8
BLACK
6
CONTINUOUS
10
4.4763174409448814
20
-4.4576683464566926
11
4.4737629527559051
21
-4.4559614566929131
0
LINE
8
BLACK
6
CONTINUOUS
10
4.4737629527559051
20
-4.4559614566929131
11
4.4720560629921255
21
-4.4534069685039368
0
LINE
8
BLACK
6
CONTINUOUS
10
4.4720560629921255
20
-4.4534069685039368
11
4.4714566929133861
21
-4.4503937007874015
0
LINE
8
BLACK
6
CONTINUOUS
10
4.4714566929133861
20
-4.4503937007874015
11
4.4714566929133861
21
-4.3952755905511811
0
LINE
8
BLACK
6
CONTINUOUS
10
4.4714566929133861
20
-4.3952755905511811
11
4.4720560629921255
21
-4.3922623228346458
0
LINE
8
BLACK
6
CONTINUOUS
10
4.4720560629921255
20
-4.3922623228346458
11
4.4737629527559051
21
-4.3897078346456695
0
LINE
8
BLACK
6
CONTINUOUS
10
4.4737629527559051
20
-4.3897078346456695
11
4.4763174409448814
21
-4.38800094488189
0
LINE
8
BLACK
6
CONTINUOUS
10
4.4763174409448814
20
-4.38800094488189
11
4.4793307086614176
21
-4.3874015748031496
0
LINE
8
BLACK
6
CONTINUOUS
10
4.4793307086614176
20
-4.3874015748031496
11
4.4911417322834648
21
-4.3874015748031496
0
LINE
8
BLACK
6
CONTINUOUS
10
4.4911417322834648
20
-4.3874015748031496
11
4.4941550000000001
21
-4.38800094488189
0
LINE
8
BLACK
6
CONTINUOUS
10
4.5433675984251964
20
-4.38800094488189
11
4.5459220866141727
21
-4.3897078346456695
0
LINE
8
BLACK
6
CONTINUOUS
10
4.5459220866141727
20
-4.3897078346456695
11
4.5476289763779523
21
-4.3922623228346458
0
LINE
8
BLACK
6
CONTINUOUS
10
4.5476289763779523
20
-4.3922623228346458
11
4.5482283464566926
21
-4.3952755905511811
0
LINE
8
BLACK
6
CONTINUOUS
10
4.5482283464566926
20
-4.3952755905511811
11
4.5482283464566926
21
-4.4503937007874015
0
LINE
8
BLACK
6
CONTINUOUS
10
4.5482283464566926
20
-4.4503937007874015
11
4.5476289763779523
21
-4.4534069685039368
0
LINE
8
BLACK
6
CONTINUOUS
10
4.5476289763779523
20
-4.4534069685039368
11
4.5459220866141727
21
-4.4559614566929131
0
LINE
8
BLACK
6
CONTINUOUS
10
4.5459220866141727
20
-4.4559614566929131
11
4.5433675984251964
21
-4.4576683464566926
0
LINE
8
BLACK
6
CONTINUOUS
10
4.5433675984251964
20
-4.4576683464566926
11
4.5403543307086611
21
-4.458267716535433
0
LINE
8
BLACK
6
CONTINUOUS
10
4.5403543307086611
20
-4.458267716535433
11
4.5285433070866139
21
-4.458267716535433
0
LINE
8
BLACK
6
CONTINUOUS
10
4.5285433070866139
20
-4.458267716535433
11
4.5255300393700786
21
-4.4576683464566926
0
LINE
8
BLACK
6
CONTINUOUS
10
4.5255300393700786
20
-4.4576683464566926
11
4.5229755511811023
21
-4.4559614566929131
0
LINE
8
BLACK
6
CONTINUOUS
10
4.5229755511811023
20
-4.4559614566929131
11
4.5212686614173228
21
-4.4534069685039368
0
LINE
8
BLACK
6
CONTINUOUS
10
4.5212686614173228
20
-4.4534069685039368
11
4.5206692913385824
21
-4.4503937007874015
0
LINE
8
BLACK
6
CONTINUOUS
10
4.5206692913385824
20
-4.4503937007874015
11
4.5206692913385824
21
-4.3952755905511811
0
LINE
8
BLACK
6
CONTINUOUS
10
4.5206692913385824
20
-4.3952755905511811
11
4.5212686614173228
21
-4.3922623228346458
0
LINE
8
BLACK
6
CONTINUOUS
10
4.5212686614173228
20
-4.3922623228346458
11
4.5229755511811023
21
-4.3897078346456695
0
LINE
8
BLACK
6
CONTINUOUS
10
4.5229755511811023
20
-4.3897078346456695
11
4.5255300393700786
21
-4.38800094488189
0
LINE
8
BLACK
6
CONTINUOUS
10
4.5255300393700786
20
-4.38800094488189
11
4.5285433070866139
21
-4.3874015748031496
0
LINE
8
BLACK
6
CONTINUOUS
10
4.5285433070866139
20
-4.3874015748031496
11
4.5403543307086611
21
-4.3874015748031496
0
LINE
8
BLACK
6
CONTINUOUS
10
4.5403543307086611
20
-4.3874015748031496
11
4.5433675984251964
21
-4.38800094488189
0
LINE
8
BLACK
6
CONTINUOUS
10
4.5925801968503936
20
-4.38800094488189
11
4.5951346850393699
21
-4.3897078346456695
0
LINE
8
BLACK
6
CONTINUOUS
10
4.5951346850393699
20
-4.3897078346456695
11
4.5968415748031495
21
-4.3922623228346458
0
LINE
8
BLACK
6
CONTINUOUS
10
4.5968415748031495
20
-4.3922623228346458
11
4.5974409448818898
21
-4.3952755905511811
0
LINE
8
BLACK
6
CONTINUOUS
10
4.5974409448818898
20
-4.3952755905511811
11
4.5974409448818898
21
-4.4503937007874015
0
LINE
8
BLACK
6
CONTINUOUS
10
4.5974409448818898
20
-4.4503937007874015
11
4.5968415748031495
21
-4.4534069685039368
0
LINE
8
BLACK
6
CONTINUOUS
10
4.5968415748031495
20
-4.4534069685039368
11
4.5951346850393699
21
-4.4559614566929131
0
LINE
8
BLACK
6
CONTINUOUS
10
4.5951346850393699
20
-4.4559614566929131
11
4.5925801968503936
21
-4.4576683464566926
0
LINE
8
BLACK
6
CONTINUOUS
10
4.5925801968503936
20
-4.4576683464566926
11
4.5895669291338583
21
-4.458267716535433
0
LINE
8
BLACK
6
CONTINUOUS
10
4.5895669291338583
20
-4.458267716535433
11
4.5777559055118111
21
-4.458267716535433
0
LINE
8
BLACK
6
CONTINUOUS
10
4.5777559055118111
20
-4.458267716535433
11
4.5747426377952758
21
-4.4576683464566926
0
LINE
8
BLACK
6
CONTINUOUS
10
4.5747426377952758
20
-4.4576683464566926
11
4.5721881496062995
21
-4.4559614566929131
0
LINE
8
BLACK
6
CONTINUOUS
10
4.5721881496062995
20
-4.4559614566929131
11
4.57048125984252
21
-4.4534069685039368
0
LINE
8
BLACK
6
CONTINUOUS
10
4.57048125984252
20
-4.4534069685039368
11
4.5698818897637796
21
-4.4503937007874015
0
LINE
8
BLACK
6
CONTINUOUS
10
4.5698818897637796
20
-4.4503937007874015
11
4.5698818897637796
21
-4.3952755905511811
0
LINE
8
BLACK
6
CONTINUOUS
10
4.5698818897637796
20
-4.3952755905511811
11
4.57048125984252
21
-4.3922623228346458
0
LINE
8
BLACK
6
CONTINUOUS
10
4.57048125984252
20
-4.3922623228346458
11
4.5721881496062995
21
-4.3897078346456695
0
LINE
8
BLACK
6
CONTINUOUS
10
4.5721881496062995
20
-4.3897078346456695
11
4.5747426377952758
21
-4.38800094488189
0
LINE
8
BLACK
6
CONTINUOUS
10
4.5747426377952758
20
-4.38800094488189
11
4.5777559055118111
21
-4.3874015748031496
0
LINE
8
BLACK
6
CONTINUOUS
10
4.5777559055118111
20
-4.3874015748031496
11
4.5895669291338583
21
-4.3874015748031496
0
LINE
8
BLACK
6
CONTINUOUS
10
4.5895669291338583
20
-4.3874015748031496
11
4.5925801968503936
21
-4.38800094488189
0
LINE
8
BLACK
6
CONTINUOUS
10
4.6417927952755909
20
-4.38800094488189
11
4.6443472834645672
21
-4.3897078346456695
0
LINE
8
BLACK
6
CONTINUOUS
10
4.6443472834645672
20
-4.3897078346456695
11
4.6460541732283467
21
-4.3922623228346458
0
LINE
8
BLACK
6
CONTINUOUS
10
4.6460541732283467
20
-4.3922623228346458
11
4.6466535433070861
21
-4.3952755905511811
0
LINE
8
BLACK
6
CONTINUOUS
10
4.6466535433070861
20
-4.3952755905511811
11
4.6466535433070861
21
-4.4503937007874015
0
LINE
8
BLACK
6
CONTINUOUS
10
4.6466535433070861
20
-4.4503937007874015
11
4.6460541732283467
21
-4.4534069685039368
0
LINE
8
BLACK
6
CONTINUOUS
10
4.6460541732283467
20
-4.4534069685039368
11
4.6443472834645672
21
-4.4559614566929131
0
LINE
8
BLACK
6
CONTINUOUS
10
4.6443472834645672
20
-4.4559614566929131
11
4.6417927952755909
21
-4.4576683464566926
0
LINE
8
BLACK
6
CONTINUOUS
10
4.6417927952755909
20
-4.4576683464566926
11
4.6387795275590546
21
-4.458267716535433
0
LINE
8
BLACK
6
CONTINUOUS
10
4.6387795275590546
20
-4.458267716535433
11
4.6269685039370074
21
-4.458267716535433
0
LINE
8
BLACK
6
CONTINUOUS
10
4.6269685039370074
20
-4.458267716535433
11
4.6239552362204721
21
-4.4576683464566926
0
LINE
8
BLACK
6
CONTINUOUS
10
4.6239552362204721
20
-4.4576683464566926
11
4.6214007480314958
21
-4.4559614566929131
0
LINE
8
BLACK
6
CONTINUOUS
10
4.6214007480314958
20
-4.4559614566929131
11
4.6196938582677163
21
-4.4534069685039368
0
LINE
8
BLACK
6
CONTINUOUS
10
4.6196938582677163
20
-4.4534069685039368
11
4.6190944881889759
21
-4.4503937007874015
0
LINE
8
BLACK
6
CONTINUOUS
10
4.6190944881889759
20
-4.4503937007874015
11
4.6190944881889759
21
-4.3952755905511811
0
LINE
8
BLACK
6
CONTINUOUS
10
4.6190944881889759
20
-4.3952755905511811
11
4.6196938582677163
21
-4.3922623228346458
0
LINE
8
BLACK
6
CONTINUOUS
10
4.6196938582677163
20
-4.3922623228346458
11
4.6214007480314958
21
-4.3897078346456695
0
LINE
8
BLACK
6
CONTINUOUS
10
4.6214007480314958
20
-4.3897078346456695
11
4.6239552362204721
21
-4.38800094488189
0
LINE
8
BLACK
6
CONTINUOUS
10
4.6239552362204721
20
-4.38800094488189
11
4.6269685039370074
21
-4.3874015748031496
0
LINE
8
BLACK
6
CONTINUOUS
10
4.6269685039370074
20
-4.3874015748031496
11
4.6387795275590546
21
-4.3874015748031496
0
LINE
8
BLACK
6
CONTINUOUS
10
4.6387795275590546
20
-4.3874015748031496
11
4.6417927952755909
21
-4.38800094488189
0
LINE
8
BLACK
6
CONTINUOUS
10
4.6910053937007872
20
-4.38800094488189
11
4.6935598818897635
21
-4.3897078346456695
0
LINE
8
BLACK
6
CONTINUOUS
10
4.6935598818897635
20
-4.3897078346456695
11
4.695266771653543
21
-4.3922623228346458
0
LINE
8
BLACK
6
CONTINUOUS
10
4.695266771653543
20
-4.3922623228346458
11
4.6958661417322833
21
-4.3952755905511811
0
LINE
8
BLACK
6
CONTINUOUS
10
4.6958661417322833
20
-4.3952755905511811
11
4.6958661417322833
21
-4.4503937007874015
0
LINE
8
BLACK
6
CONTINUOUS
10
4.6958661417322833
20
-4.4503937007874015
11
4.695266771653543
21
-4.4534069685039368
0
LINE
8
BLACK
6
CONTINUOUS
10
4.695266771653543
20
-4.4534069685039368
11
4.6935598818897635
21
-4.4559614566929131
0
LINE
8
BLACK
6
CONTINUOUS
10
4.6935598818897635
20
-4.4559614566929131
11
4.6910053937007872
21
-4.4576683464566926
0
LINE
8
BLACK
6
CONTINUOUS
10
4.6910053937007872
20
-4.4576683464566926
11
4.6879921259842519
21
-4.458267716535433
0
LINE
8
BLACK
6
CONTINUOUS
10
4.6879921259842519
20
-4.458267716535433
11
4.6761811023622046
21
-4.458267716535433
0
LINE
8
BLACK
6
CONTINUOUS
10
4.6761811023622046
20
-4.458267716535433
11
4.6731678346456693
21
-4.4576683464566926
0
LINE
8
BLACK
6
CONTINUOUS
10
4.6731678346456693
20
-4.4576683464566926
11
4.670613346456693
21
-4.4559614566929131
0
LINE
8
BLACK
6
CONTINUOUS
10
4.670613346456693
20
-4.4559614566929131
11
4.6689064566929135
21
-4.4534069685039368
0
LINE
8
BLACK
6
CONTINUOUS
10
4.6689064566929135
20
-4.4534069685039368
11
4.6683070866141732
21
-4.4503937007874015
0
LINE
8
BLACK
6
CONTINUOUS
10
4.6683070866141732
20
-4.4503937007874015
11
4.6683070866141732
21
-4.3952755905511811
0
LINE
8
BLACK
6
CONTINUOUS
10
4.6683070866141732
20
-4.3952755905511811
11
4.6689064566929135
21
-4.3922623228346458
0
LINE
8
BLACK
6
CONTINUOUS
10
4.6689064566929135
20
-4.3922623228346458
11
4.670613346456693
21
-4.3897078346456695
0
LINE
8
BLACK
6
CONTINUOUS
10
4.670613346456693
20
-4.3897078346456695
11
4.6731678346456693
21
-4.38800094488189
0
LINE
8
BLACK
6
CONTINUOUS
10
4.6731678346456693
20
-4.38800094488189
11
4.6761811023622046
21
-4.3874015748031496
0
LINE
8
BLACK
6
CONTINUOUS
10
4.6761811023622046
20
-4.3874015748031496
11
4.6879921259842519
21
-4.3874015748031496
0
LINE
8
BLACK
6
CONTINUOUS
10
4.6879921259842519
20
-4.3874015748031496
11
4.6910053937007872
21
-4.38800094488189
0
LINE
8
BLACK
6
CONTINUOUS
10
4.7402179921259844
20
-4.38800094488189
11
4.7427724803149607
21
-4.3897078346456695
0
LINE
8
BLACK
6
CONTINUOUS
10
4.7427724803149607
20
-4.3897078346456695
11
4.7444793700787402
21
-4.3922623228346458
0
LINE
8
BLACK
6
CONTINUOUS
10
4.7444793700787402
20
-4.3922623228346458
11
4.7450787401574805
21
-4.3952755905511811
0
LINE
8
BLACK
6
CONTINUOUS
10
4.7450787401574805
20
-4.3952755905511811
11
4.7450787401574805
21
-4.4503937007874015
0
LINE
8
BLACK
6
CONTINUOUS
10
4.7450787401574805
20
-4.4503937007874015
11
4.7444793700787402
21
-4.4534069685039368
0
LINE
8
BLACK
6
CONTINUOUS
10
4.7444793700787402
20
-4.4534069685039368
11
4.7427724803149607
21
-4.4559614566929131
0
LINE
8
BLACK
6
CONTINUOUS
10
4.7427724803149607
20
-4.4559614566929131
11
4.7402179921259844
21
-4.4576683464566926
0
LINE
8
BLACK
6
CONTINUOUS
10
4.7402179921259844
20
-4.4576683464566926
11
4.7372047244094491
21
-4.458267716535433
0
LINE
8
BLACK
6
CONTINUOUS
10
4.7372047244094491
20
-4.458267716535433
11
4.7253937007874018
21
-4.458267716535433
0
LINE
8
BLACK
6
CONTINUOUS
10
4.7253937007874018
20
-4.458267716535433
11
4.7223804330708656
21
-4.4576683464566926
0
LINE
8
BLACK
6
CONTINUOUS
10
4.7223804330708656
20
-4.4576683464566926
11
4.7198259448818893
21
-4.4559614566929131
0
LINE
8
BLACK
6
CONTINUOUS
10
4.7198259448818893
20
-4.4559614566929131
11
4.7181190551181098
21
-4.4534069685039368
0
LINE
8
BLACK
6
CONTINUOUS
10
4.7181190551181098
20
-4.4534069685039368
11
4.7175196850393704
21
-4.4503937007874015
0
LINE
8
BLACK
6
CONTINUOUS
10
4.7175196850393704
20
-4.4503937007874015
11
4.7175196850393704
21
-4.3952755905511811
0
LINE
8
BLACK
6
CONTINUOUS
10
4.7175196850393704
20
-4.3952755905511811
11
4.7181190551181098
21
-4.3922623228346458
0
LINE
8
BLACK
6
CONTINUOUS
10
4.7181190551181098
20
-4.3922623228346458
11
4.7198259448818893
21
-4.3897078346456695
0
LINE
8
BLACK
6
CONTINUOUS
10
4.7198259448818893
20
-4.3897078346456695
11
4.7223804330708656
21
-4.38800094488189
0
LINE
8
BLACK
6
CONTINUOUS
10
4.7223804330708656
20
-4.38800094488189
11
4.7253937007874018
21
-4.3874015748031496
0
LINE
8
BLACK
6
CONTINUOUS
10
4.7253937007874018
20
-4.3874015748031496
11
4.7372047244094491
21
-4.3874015748031496
0
LINE
8
BLACK
6
CONTINUOUS
10
4.7372047244094491
20
-4.3874015748031496
11
4.7402179921259844
21
-4.38800094488189
0
LINE
8
BLACK
6
CONTINUOUS
10
4.7894305905511807
20
-4.38800094488189
11
4.791985078740157
21
-4.3897078346456695
0
LINE
8
BLACK
6
CONTINUOUS
10
4.791985078740157
20
-4.3897078346456695
11
4.7936919685039365
21
-4.3922623228346458
0
LINE
8
BLACK
6
CONTINUOUS
10
4.7936919685039365
20
-4.3922623228346458
11
4.7942913385826769
21
-4.3952755905511811
0
LINE
8
BLACK
6
CONTINUOUS
10
4.7942913385826769
20
-4.3952755905511811
11
4.7942913385826769
21
-4.4503937007874015
0
LINE
8
BLACK
6
CONTINUOUS
10
4.7942913385826769
20
-4.4503937007874015
11
4.7936919685039365
21
-4.4534069685039368
0
LINE
8
BLACK
6
CONTINUOUS
10
4.7936919685039365
20
-4.4534069685039368
11
4.791985078740157
21
-4.4559614566929131
0
LINE
8
BLACK
6
CONTINUOUS
10
4.791985078740157
20
-4.4559614566929131
11
4.7894305905511807
21
-4.4576683464566926
0
LINE
8
BLACK
6
CONTINUOUS
10
4.7894305905511807
20
-4.4576683464566926
11
4.7864173228346454
21
-4.458267716535433
0
LINE
8
BLACK
6
CONTINUOUS
10
4.7864173228346454
20
-4.458267716535433
11
4.7746062992125982
21
-4.458267716535433
0
LINE
8
BLACK
6
CONTINUOUS
10
4.7746062992125982
20
-4.458267716535433
11
4.7715930314960628
21
-4.4576683464566926
0
LINE
8
BLACK
6
CONTINUOUS
10
4.7715930314960628
20
-4.4576683464566926
11
4.7690385433070865
21
-4.4559614566929131
0
LINE
8
BLACK
6
CONTINUOUS
10
4.7690385433070865
20
-4.4559614566929131
11
4.767331653543307
21
-4.4534069685039368
0
LINE
8
BLACK
6
CONTINUOUS
10
4.767331653543307
20
-4.4534069685039368
11
4.7667322834645667
21
-4.4503937007874015
0
LINE
8
BLACK
6
CONTINUOUS
10
4.7667322834645667
20
-4.4503937007874015
11
4.7667322834645667
21
-4.3952755905511811
0
LINE
8
BLACK
6
CONTINUOUS
10
4.7667322834645667
20
-4.3952755905511811
11
4.767331653543307
21
-4.3922623228346458
0
LINE
8
BLACK
6
CONTINUOUS
10
4.767331653543307
20
-4.3922623228346458
11
4.7690385433070865
21
-4.3897078346456695
0
LINE
8
BLACK
6
CONTINUOUS
10
4.7690385433070865
20
-4.3897078346456695
11
4.7715930314960628
21
-4.38800094488189
0
LINE
8
BLACK
6
CONTINUOUS
10
4.7715930314960628
20
-4.38800094488189
11
4.7746062992125982
21
-4.3874015748031496
0
LINE
8
BLACK
6
CONTINUOUS
10
4.7746062992125982
20
-4.3874015748031496
11
4.7864173228346454
21
-4.3874015748031496
0
LINE
8
BLACK
6
CONTINUOUS
10
4.7864173228346454
20
-4.3874015748031496
11
4.7894305905511807
21
-4.38800094488189
0
LINE
8
BLACK
6
CONTINUOUS
10
4.8386431889763779
20
-4.38800094488189
11
4.8411976771653542
21
-4.3897078346456695
0
LINE
8
BLACK
6
CONTINUOUS
10
4.8411976771653542
20
-4.3897078346456695
11
4.8429045669291337
21
-4.3922623228346458
0
LINE
8
BLACK
6
CONTINUOUS
10
4.8429045669291337
20
-4.3922623228346458
11
4.8435039370078741
21
-4.3952755905511811
0
LINE
8
BLACK
6
CONTINUOUS
10
4.8435039370078741
20
-4.3952755905511811
11
4.8435039370078741
21
-4.4503937007874015
0
LINE
8
BLACK
6
CONTINUOUS
10
4.8435039370078741
20
-4.4503937007874015
11
4.8429045669291337
21
-4.4534069685039368
0
LINE
8
BLACK
6
CONTINUOUS
10
4.8429045669291337
20
-4.4534069685039368
11
4.8411976771653542
21
-4.4559614566929131
0
LINE
8
BLACK
6
CONTINUOUS
10
4.8411976771653542
20
-4.4559614566929131
11
4.8386431889763779
21
-4.4576683464566926
0
LINE
8
BLACK
6
CONTINUOUS
10
4.8386431889763779
20
-4.4576683464566926
11
4.8356299212598426
21
-4.458267716535433
0
LINE
8
BLACK
6
CONTINUOUS
10
4.8356299212598426
20
-4.458267716535433
11
4.8238188976377954
21
-4.458267716535433
0
LINE
8
BLACK
6
CONTINUOUS
10
4.8238188976377954
20
-4.458267716535433
11
4.82080562992126
21
-4.4576683464566926
0
LINE
8
BLACK
6
CONTINUOUS
10
4.82080562992126
20
-4.4576683464566926
11
4.8182511417322837
21
-4.4559614566929131
0
LINE
8
BLACK
6
CONTINUOUS
10
4.8182511417322837
20
-4.4559614566929131
11
4.8165442519685042
21
-4.4534069685039368
0
LINE
8
BLACK
6
CONTINUOUS
10
4.8165442519685042
20
-4.4534069685039368
11
4.8159448818897639
21
-4.4503937007874015
0
LINE
8
BLACK
6
CONTINUOUS
10
4.8159448818897639
20
-4.4503937007874015
11
4.8159448818897639
21
-4.3952755905511811
0
LINE
8
BLACK
6
CONTINUOUS
10
4.8159448818897639
20
-4.3952755905511811
11
4.8165442519685042
21
-4.3922623228346458
0
LINE
8
BLACK
6
CONTINUOUS
10
4.8165442519685042
20
-4.3922623228346458
11
4.8182511417322837
21
-4.3897078346456695
0
LINE
8
BLACK
6
CONTINUOUS
10
4.8182511417322837
20
-4.3897078346456695
11
4.82080562992126
21
-4.38800094488189
0
LINE
8
BLACK
6
CONTINUOUS
10
4.82080562992126
20
-4.38800094488189
11
4.8238188976377954
21
-4.3874015748031496
0
LINE
8
BLACK
6
CONTINUOUS
10
4.8238188976377954
20
-4.3874015748031496
11
4.8356299212598426
21
-4.3874015748031496
0
LINE
8
BLACK
6
CONTINUOUS
10
4.8356299212598426
20
-4.3874015748031496
11
4.8386431889763779
21
-4.38800094488189
0
LINE
8
BLACK
6
CONTINUOUS
10
4.8878557874015751
20
-4.38800094488189
11
4.8904102755905514
21
-4.3897078346456695
0
LINE
8
BLACK
6
CONTINUOUS
10
4.8904102755905514
20
-4.3897078346456695
11
4.8921171653543309
21
-4.3922623228346458
0
LINE
8
BLACK
6
CONTINUOUS
10
4.8921171653543309
20
-4.3922623228346458
11
4.8927165354330704
21
-4.3952755905511811
0
LINE
8
BLACK
6
CONTINUOUS
10
4.8927165354330704
20
-4.3952755905511811
11
4.8927165354330704
21
-4.4503937007874015
0
LINE
8
BLACK
6
CONTINUOUS
10
4.8927165354330704
20
-4.4503937007874015
11
4.8921171653543309
21
-4.4534069685039368
0
LINE
8
BLACK
6
CONTINUOUS
10
4.8921171653543309
20
-4.4534069685039368
11
4.8904102755905514
21
-4.4559614566929131
0
LINE
8
BLACK
6
CONTINUOUS
10
4.8904102755905514
20
-4.4559614566929131
11
4.8878557874015751
21
-4.4576683464566926
0
LINE
8
BLACK
6
CONTINUOUS
10
4.8878557874015751
20
-4.4576683464566926
11
4.8848425196850389
21
-4.458267716535433
0
LINE
8
BLACK
6
CONTINUOUS
10
4.8848425196850389
20
-4.458267716535433
11
4.8730314960629917
21
-4.458267716535433
0
LINE
8
BLACK
6
CONTINUOUS
10
4.8730314960629917
20
-4.458267716535433
11
4.8700182283464564
21
-4.4576683464566926
0
LINE
8
BLACK
6
CONTINUOUS
10
4.8700182283464564
20
-4.4576683464566926
11
4.8674637401574801
21
-4.4559614566929131
0
LINE
8
BLACK
6
CONTINUOUS
10
4.8674637401574801
20
-4.4559614566929131
11
4.8657568503937005
21
-4.4534069685039368
0
LINE
8
BLACK
6
CONTINUOUS
10
4.8657568503937005
20
-4.4534069685039368
11
4.8651574803149602
21
-4.4503937007874015
0
LINE
8
BLACK
6
CONTINUOUS
10
4.8651574803149602
20
-4.4503937007874015
11
4.8651574803149602
21
-4.3952755905511811
0
LINE
8
BLACK
6
CONTINUOUS
10
4.8651574803149602
20
-4.3952755905511811
11
4.8657568503937005
21
-4.3922623228346458
0
LINE
8
BLACK
6
CONTINUOUS
10
4.8657568503937005
20
-4.3922623228346458
11
4.8674637401574801
21
-4.3897078346456695
0
LINE
8
BLACK
6
CONTINUOUS
10
4.8674637401574801
20
-4.3897078346456695
11
4.8700182283464564
21
-4.38800094488189
0
LINE
8
BLACK
6
CONTINUOUS
10
4.8700182283464564
20
-4.38800094488189
11
4.8730314960629917
21
-4.3874015748031496
0
LINE
8
BLACK
6
CONTINUOUS
10
4.8730314960629917
20
-4.3874015748031496
11
4.8848425196850389
21
-4.3874015748031496
0
LINE
8
BLACK
6
CONTINUOUS
10
4.8848425196850389
20
-4.3874015748031496
11
4.8878557874015751
21
-4.38800094488189
0
LINE
8
BLACK
6
CONTINUOUS
10
5.1229148425196849
20
-4.38800094488189
11
5.1254693307086612
21
-4.3897078346456695
0
LINE
8
BLACK
6
CONTINUOUS
10
5.1254693307086612
20
-4.3897078346456695
11
5.1271762204724407
21
-4.3922623228346458
0
LINE
8
BLACK
6
CONTINUOUS
10
5.1271762204724407
20
-4.3922623228346458
11
5.127775590551181
21
-4.3952755905511811
0
LINE
8
BLACK
6
CONTINUOUS
10
5.127775590551181
20
-4.3952755905511811
11
5.127775590551181
21
-4.4503937007874015
0
LINE
8
BLACK
6
CONTINUOUS
10
5.127775590551181
20
-4.4503937007874015
11
5.1271762204724407
21
-4.4534069685039368
0
LINE
8
BLACK
6
CONTINUOUS
10
5.1271762204724407
20
-4.4534069685039368
11
5.1254693307086612
21
-4.4559614566929131
0
LINE
8
BLACK
6
CONTINUOUS
10
5.1254693307086612
20
-4.4559614566929131
11
5.1229148425196849
21
-4.4576683464566926
0
LINE
8
BLACK
6
CONTINUOUS
10
5.1229148425196849
20
-4.4576683464566926
11
5.1199015748031496
21
-4.458267716535433
0
LINE
8
BLACK
6
CONTINUOUS
10
5.1199015748031496
20
-4.458267716535433
11
5.1080905511811023
21
-4.458267716535433
0
LINE
8
BLACK
6
CONTINUOUS
10
5.1080905511811023
20
-4.458267716535433
11
5.105077283464567
21
-4.4576683464566926
0
LINE
8
BLACK
6
CONTINUOUS
10
5.105077283464567
20
-4.4576683464566926
11
5.1025227952755907
21
-4.4559614566929131
0
LINE
8
BLACK
6
CONTINUOUS
10
5.1025227952755907
20
-4.4559614566929131
11
5.1008159055118112
21
-4.4534069685039368
0
LINE
8
BLACK
6
CONTINUOUS
10
5.1008159055118112
20
-4.4534069685039368
11
5.1002165354330709
21
-4.4503937007874015
0
LINE
8
BLACK
6
CONTINUOUS
10
5.1002165354330709
20
-4.4503937007874015
11
5.1002165354330709
21
-4.3952755905511811
0
LINE
8
BLACK
6
CONTINUOUS
10
5.1002165354330709
20
-4.3952755905511811
11
5.1008159055118112
21
-4.3922623228346458
0
LINE
8
BLACK
6
CONTINUOUS
10
5.1008159055118112
20
-4.3922623228346458
11
5.1025227952755907
21
-4.3897078346456695
0
LINE
8
BLACK
6
CONTINUOUS
10
5.1025227952755907
20
-4.3897078346456695
11
5.105077283464567
21
-4.38800094488189
0
LINE
8
BLACK
6
CONTINUOUS
10
5.105077283464567
20
-4.38800094488189
11
5.1080905511811023
21
-4.3874015748031496
0
LINE
8
BLACK
6
CONTINUOUS
10
5.1080905511811023
20
-4.3874015748031496
11
5.1199015748031496
21
-4.3874015748031496
0
LINE
8
BLACK
6
CONTINUOUS
10
5.1199015748031496
20
-4.3874015748031496
11
5.1229148425196849
21
-4.38800094488189
0
LINE
8
BLACK
6
CONTINUOUS
10
5.1721274409448821
20
-4.38800094488189
11
5.1746819291338584
21
-4.3897078346456695
0
LINE
8
BLACK
6
CONTINUOUS
10
5.1746819291338584
20
-4.3897078346456695
11
5.1763888188976379
21
-4.3922623228346458
0
LINE
8
BLACK
6
CONTINUOUS
10
5.1763888188976379
20
-4.3922623228346458
11
5.1769881889763782
21
-4.3952755905511811
0
LINE
8
BLACK
6
CONTINUOUS
10
5.1769881889763782
20
-4.3952755905511811
11
5.1769881889763782
21
-4.4503937007874015
0
LINE
8
BLACK
6
CONTINUOUS
10
5.1769881889763782
20
-4.4503937007874015
11
5.1763888188976379
21
-4.4534069685039368
0
LINE
8
BLACK
6
CONTINUOUS
10
5.1763888188976379
20
-4.4534069685039368
11
5.1746819291338584
21
-4.4559614566929131
0
LINE
8
BLACK
6
CONTINUOUS
10
5.1746819291338584
20
-4.4559614566929131
11
5.1721274409448821
21
-4.4576683464566926
0
LINE
8
BLACK
6
CONTINUOUS
10
5.1721274409448821
20
-4.4576683464566926
11
5.1691141732283468
21
-4.458267716535433
0
LINE
8
BLACK
6
CONTINUOUS
10
5.1691141732283468
20
-4.458267716535433
11
5.1573031496062987
21
-4.458267716535433
0
LINE
8
BLACK
6
CONTINUOUS
10
5.1573031496062987
20
-4.458267716535433
11
5.1542898818897633
21
-4.4576683464566926
0
LINE
8
BLACK
6
CONTINUOUS
10
5.1542898818897633
20
-4.4576683464566926
11
5.151735393700787
21
-4.4559614566929131
0
LINE
8
BLACK
6
CONTINUOUS
10
5.151735393700787
20
-4.4559614566929131
11
5.1500285039370075
21
-4.4534069685039368
0
LINE
8
BLACK
6
CONTINUOUS
10
5.1500285039370075
20
-4.4534069685039368
11
5.1494291338582672
21
-4.4503937007874015
0
LINE
8
BLACK
6
CONTINUOUS
10
5.1494291338582672
20
-4.4503937007874015
11
5.1494291338582672
21
-4.3952755905511811
0
LINE
8
BLACK
6
CONTINUOUS
10
5.1494291338582672
20
-4.3952755905511811
11
5.1500285039370075
21
-4.3922623228346458
0
LINE
8
BLACK
6
CONTINUOUS
10
5.1500285039370075
20
-4.3922623228346458
11
5.151735393700787
21
-4.3897078346456695
0
LINE
8
BLACK
6
CONTINUOUS
10
5.151735393700787
20
-4.3897078346456695
11
5.1542898818897633
21
-4.38800094488189
0
LINE
8
BLACK
6
CONTINUOUS
10
5.1542898818897633
20
-4.38800094488189
11
5.1573031496062987
21
-4.3874015748031496
0
LINE
8
BLACK
6
CONTINUOUS
10
5.1573031496062987
20
-4.3874015748031496
11
5.1691141732283468
21
-4.3874015748031496
0
LINE
8
BLACK
6
CONTINUOUS
10
5.1691141732283468
20
-4.3874015748031496
11
5.1721274409448821
21
-4.38800094488189
0
LINE
8
BLACK
6
CONTINUOUS
10
5.2213400393700784
20
-4.38800094488189
11
5.2238945275590547
21
-4.3897078346456695
0
LINE
8
BLACK
6
CONTINUOUS
10
5.2238945275590547
20
-4.3897078346456695
11
5.2256014173228342
21
-4.3922623228346458
0
LINE
8
BLACK
6
CONTINUOUS
10
5.2256014173228342
20
-4.3922623228346458
11
5.2262007874015746
21
-4.3952755905511811
0
LINE
8
BLACK
6
CONTINUOUS
10
5.2262007874015746
20
-4.3952755905511811
11
5.2262007874015746
21
-4.4503937007874015
0
LINE
8
BLACK
6
CONTINUOUS
10
5.2262007874015746
20
-4.4503937007874015
11
5.2256014173228342
21
-4.4534069685039368
0
LINE
8
BLACK
6
CONTINUOUS
10
5.2256014173228342
20
-4.4534069685039368
11
5.2238945275590547
21
-4.4559614566929131
0
LINE
8
BLACK
6
CONTINUOUS
10
5.2238945275590547
20
-4.4559614566929131
11
5.2213400393700784
21
-4.4576683464566926
0
LINE
8
BLACK
6
CONTINUOUS
10
5.2213400393700784
20
-4.4576683464566926
11
5.2183267716535431
21
-4.458267716535433
0
LINE
8
BLACK
6
CONTINUOUS
10
5.2183267716535431
20
-4.458267716535433
11
5.2065157480314959
21
-4.458267716535433
0
LINE
8
BLACK
6
CONTINUOUS
10
5.2065157480314959
20
-4.458267716535433
11
5.2035024803149605
21
-4.4576683464566926
0
LINE
8
BLACK
6
CONTINUOUS
10
5.2035024803149605
20
-4.4576683464566926
11
5.2009479921259842
21
-4.4559614566929131
0
LINE
8
BLACK
6
CONTINUOUS
10
5.2009479921259842
20
-4.4559614566929131
11
5.1992411023622047
21
-4.4534069685039368
0
LINE
8
BLACK
6
CONTINUOUS
10
5.1992411023622047
20
-4.4534069685039368
11
5.1986417322834644
21
-4.4503937007874015
0
LINE
8
BLACK
6
CONTINUOUS
10
5.1986417322834644
20
-4.4503937007874015
11
5.1986417322834644
21
-4.3952755905511811
0
LINE
8
BLACK
6
CONTINUOUS
10
5.1986417322834644
20
-4.3952755905511811
11
5.1992411023622047
21
-4.3922623228346458
0
LINE
8
BLACK
6
CONTINUOUS
10
5.1992411023622047
20
-4.3922623228346458
11
5.2009479921259842
21
-4.3897078346456695
0
LINE
8
BLACK
6
CONTINUOUS
10
5.2009479921259842
20
-4.3897078346456695
11
5.2035024803149605
21
-4.38800094488189
0
LINE
8
BLACK
6
CONTINUOUS
10
5.2035024803149605
20
-4.38800094488189
11
5.2065157480314959
21
-4.3874015748031496
0
LINE
8
BLACK
6
CONTINUOUS
10
5.2065157480314959
20
-4.3874015748031496
11
5.2183267716535431
21
-4.3874015748031496
0
LINE
8
BLACK
6
CONTINUOUS
10
5.2183267716535431
20
-4.3874015748031496
11
5.2213400393700784
21
-4.38800094488189
0
LINE
8
BLACK
6
CONTINUOUS
10
5.2705526377952756
20
-4.38800094488189
11
5.2731071259842519
21
-4.3897078346456695
0
LINE
8
BLACK
6
CONTINUOUS
10
5.2731071259842519
20
-4.3897078346456695
11
5.2748140157480314
21
-4.3922623228346458
0
LINE
8
BLACK
6
CONTINUOUS
10
5.2748140157480314
20
-4.3922623228346458
11
5.2754133858267718
21
-4.3952755905511811
0
LINE
8
BLACK
6
CONTINUOUS
10
5.2754133858267718
20
-4.3952755905511811
11
5.2754133858267718
21
-4.4503937007874015
0
LINE
8
BLACK
6
CONTINUOUS
10
5.2754133858267718
20
-4.4503937007874015
11
5.2748140157480314
21
-4.4534069685039368
0
LINE
8
BLACK
6
CONTINUOUS
10
5.2748140157480314
20
-4.4534069685039368
11
5.2731071259842519
21
-4.4559614566929131
0
LINE
8
BLACK
6
CONTINUOUS
10
5.2731071259842519
20
-4.4559614566929131
11
5.2705526377952756
21
-4.4576683464566926
0
LINE
8
BLACK
6
CONTINUOUS
10
5.2705526377952756
20
-4.4576683464566926
11
5.2675393700787403
21
-4.458267716535433
0
LINE
8
BLACK
6
CONTINUOUS
10
5.2675393700787403
20
-4.458267716535433
11
5.2557283464566931
21
-4.458267716535433
0
LINE
8
BLACK
6
CONTINUOUS
10
5.2557283464566931
20
-4.458267716535433
11
5.2527150787401578
21
-4.4576683464566926
0
LINE
8
BLACK
6
CONTINUOUS
10
5.2527150787401578
20
-4.4576683464566926
11
5.2501605905511806
21
-4.4559614566929131
0
LINE
8
BLACK
6
CONTINUOUS
10
5.2501605905511806
20
-4.4559614566929131
11
5.248453700787401
21
-4.4534069685039368
0
LINE
8
BLACK
6
CONTINUOUS
10
5.248453700787401
20
-4.4534069685039368
11
5.2478543307086616
21
-4.4503937007874015
0
LINE
8
BLACK
6
CONTINUOUS
10
5.2478543307086616
20
-4.4503937007874015
11
5.2478543307086616
21
-4.3952755905511811
0
LINE
8
BLACK
6
CONTINUOUS
10
5.2478543307086616
20
-4.3952755905511811
11
5.248453700787401
21
-4.3922623228346458
0
LINE
8
BLACK
6
CONTINUOUS
10
5.248453700787401
20
-4.3922623228346458
11
5.2501605905511806
21
-4.3897078346456695
0
LINE
8
BLACK
6
CONTINUOUS
10
5.2501605905511806
20
-4.3897078346456695
11
5.2527150787401578
21
-4.38800094488189
0
LINE
8
BLACK
6
CONTINUOUS
10
5.2527150787401578
20
-4.38800094488189
11
5.2557283464566931
21
-4.3874015748031496
0
LINE
8
BLACK
6
CONTINUOUS
10
5.2557283464566931
20
-4.3874015748031496
11
5.2675393700787403
21
-4.3874015748031496
0
LINE
8
BLACK
6
CONTINUOUS
10
5.2675393700787403
20
-4.3874015748031496
11
5.2705526377952756
21
-4.38800094488189
0
LINE
8
BLACK
6
CONTINUOUS
10
5.3197652362204719
20
-4.38800094488189
11
5.3223197244094491
21
-4.3897078346456695
0
LINE
8
BLACK
6
CONTINUOUS
10
5.3223197244094491
20
-4.3897078346456695
11
5.3240266141732286
21
-4.3922623228346458
0
LINE
8
BLACK
6
CONTINUOUS
10
5.3240266141732286
20
-4.3922623228346458
11
5.3246259842519681
21
-4.3952755905511811
0
LINE
8
BLACK
6
CONTINUOUS
10
5.3246259842519681
20
-4.3952755905511811
11
5.3246259842519681
21
-4.4503937007874015
0
LINE
8
BLACK
6
CONTINUOUS
10
5.3246259842519681
20
-4.4503937007874015
11
5.3240266141732286
21
-4.4534069685039368
0
LINE
8
BLACK
6
CONTINUOUS
10
5.3240266141732286
20
-4.4534069685039368
11
5.3223197244094491
21
-4.4559614566929131
0
LINE
8
BLACK
6
CONTINUOUS
10
5.3223197244094491
20
-4.4559614566929131
11
5.3197652362204719
21
-4.4576683464566926
0
LINE
8
BLACK
6
CONTINUOUS
10
5.3197652362204719
20
-4.4576683464566926
11
5.3167519685039366
21
-4.458267716535433
0
LINE
8
BLACK
6
CONTINUOUS
10
5.3167519685039366
20
-4.458267716535433
11
5.3049409448818894
21
-4.458267716535433
0
LINE
8
BLACK
6
CONTINUOUS
10
5.3049409448818894
20
-4.458267716535433
11
5.3019276771653541
21
-4.4576683464566926
0
LINE
8
BLACK
6
CONTINUOUS
10
5.3019276771653541
20
-4.4576683464566926
11
5.2993731889763778
21
-4.4559614566929131
0
LINE
8
BLACK
6
CONTINUOUS
10
5.2993731889763778
20
-4.4559614566929131
11
5.2976662992125982
21
-4.4534069685039368
0
LINE
8
BLACK
6
CONTINUOUS
10
5.2976662992125982
20
-4.4534069685039368
11
5.2970669291338579
21
-4.4503937007874015
0
LINE
8
BLACK
6
CONTINUOUS
10
5.2970669291338579
20
-4.4503937007874015
11
5.2970669291338579
21
-4.3952755905511811
0
LINE
8
BLACK
6
CONTINUOUS
10
5.2970669291338579
20
-4.3952755905511811
11
5.2976662992125982
21
-4.3922623228346458
0
LINE
8
BLACK
6
CONTINUOUS
10
5.2976662992125982
20
-4.3922623228346458
11
5.2993731889763778
21
-4.3897078346456695
0
LINE
8
BLACK
6
CONTINUOUS
10
5.2993731889763778
20
-4.3897078346456695
11
5.3019276771653541
21
-4.38800094488189
0
LINE
8
BLACK
6
CONTINUOUS
10
5.3019276771653541
20
-4.38800094488189
11
5.3049409448818894
21
-4.3874015748031496
0
LINE
8
BLACK
6
CONTINUOUS
10
5.3049409448818894
20
-4.3874015748031496
11
5.3167519685039366
21
-4.3874015748031496
0
LINE
8
BLACK
6
CONTINUOUS
10
5.3167519685039366
20
-4.3874015748031496
11
5.3197652362204719
21
-4.38800094488189
0
LINE
8
BLACK
6
CONTINUOUS
10
5.3689778346456691
20
-4.38800094488189
11
5.3715323228346454
21
-4.3897078346456695
0
LINE
8
BLACK
6
CONTINUOUS
10
5.3715323228346454
20
-4.3897078346456695
11
5.373239212598425
21
-4.3922623228346458
0
LINE
8
BLACK
6
CONTINUOUS
10
5.373239212598425
20
-4.3922623228346458
11
5.3738385826771653
21
-4.3952755905511811
0
LINE
8
BLACK
6
CONTINUOUS
10
5.3738385826771653
20
-4.3952755905511811
11
5.3738385826771653
21
-4.4503937007874015
0
LINE
8
BLACK
6
CONTINUOUS
10
5.3738385826771653
20
-4.4503937007874015
11
5.373239212598425
21
-4.4534069685039368
0
LINE
8
BLACK
6
CONTINUOUS
10
5.373239212598425
20
-4.4534069685039368
11
5.3715323228346454
21
-4.4559614566929131
0
LINE
8
BLACK
6
CONTINUOUS
10
5.3715323228346454
20
-4.4559614566929131
11
5.3689778346456691
21
-4.4576683464566926
0
LINE
8
BLACK
6
CONTINUOUS
10
5.3689778346456691
20
-4.4576683464566926
11
5.3659645669291338
21
-4.458267716535433
0
LINE
8
BLACK
6
CONTINUOUS
10
5.3659645669291338
20
-4.458267716535433
11
5.3541535433070866
21
-4.458267716535433
0
LINE
8
BLACK
6
CONTINUOUS
10
5.3541535433070866
20
-4.458267716535433
11
5.3511402755905513
21
-4.4576683464566926
0
LINE
8
BLACK
6
CONTINUOUS
10
5.3511402755905513
20
-4.4576683464566926
11
5.348585787401575
21
-4.4559614566929131
0
LINE
8
BLACK
6
CONTINUOUS
10
5.348585787401575
20
-4.4559614566929131
11
5.3468788976377954
21
-4.4534069685039368
0
LINE
8
BLACK
6
CONTINUOUS
10
5.3468788976377954
20
-4.4534069685039368
11
5.3462795275590551
21
-4.4503937007874015
0
LINE
8
BLACK
6
CONTINUOUS
10
5.3462795275590551
20
-4.4503937007874015
11
5.3462795275590551
21
-4.3952755905511811
0
LINE
8
BLACK
6
CONTINUOUS
10
5.3462795275590551
20
-4.3952755905511811
11
5.3468788976377954
21
-4.3922623228346458
0
LINE
8
BLACK
6
CONTINUOUS
10
5.3468788976377954
20
-4.3922623228346458
11
5.348585787401575
21
-4.3897078346456695
0
LINE
8
BLACK
6
CONTINUOUS
10
5.348585787401575
20
-4.3897078346456695
11
5.3511402755905513
21
-4.38800094488189
0
LINE
8
BLACK
6
CONTINUOUS
10
5.3511402755905513
20
-4.38800094488189
11
5.3541535433070866
21
-4.3874015748031496
0
LINE
8
BLACK
6
CONTINUOUS
10
5.3541535433070866
20
-4.3874015748031496
11
5.3659645669291338
21
-4.3874015748031496
0
LINE
8
BLACK
6
CONTINUOUS
10
5.3659645669291338
20
-4.3874015748031496
11
5.3689778346456691
21
-4.38800094488189
0
LINE
8
BLACK
6
CONTINUOUS
10
5.6038400393700787
20
-4.38800094488189
11
5.606394527559055
21
-4.3897078346456695
0
LINE
8
BLACK
6
CONTINUOUS
10
5.606394527559055
20
-4.3897078346456695
11
5.6081014173228345
21
-4.3922623228346458
0
LINE
8
BLACK
6
CONTINUOUS
10
5.6081014173228345
20
-4.3922623228346458
11
5.6087007874015748
21
-4.3952755905511811
0
LINE
8
BLACK
6
CONTINUOUS
10
5.6087007874015748
20
-4.3952755905511811
11
5.6087007874015748
21
-4.4503937007874015
0
LINE
8
BLACK
6
CONTINUOUS
10
5.6087007874015748
20
-4.4503937007874015
11
5.6081014173228345
21
-4.4534069685039368
0
LINE
8
BLACK
6
CONTINUOUS
10
5.6081014173228345
20
-4.4534069685039368
11
5.606394527559055
21
-4.4559614566929131
0
LINE
8
BLACK
6
CONTINUOUS
10
5.606394527559055
20
-4.4559614566929131
11
5.6038400393700787
21
-4.4576683464566926
0
LINE
8
BLACK
6
CONTINUOUS
10
5.6038400393700787
20
-4.4576683464566926
11
5.6008267716535434
21
-4.458267716535433
0
LINE
8
BLACK
6
CONTINUOUS
10
5.6008267716535434
20
-4.458267716535433
11
5.5890157480314961
21
-4.458267716535433
0
LINE
8
BLACK
6
CONTINUOUS
10
5.5890157480314961
20
-4.458267716535433
11
5.5860024803149608
21
-4.4576683464566926
0
LINE
8
BLACK
6
CONTINUOUS
10
5.5860024803149608
20
-4.4576683464566926
11
5.5834479921259845
21
-4.4559614566929131
0
LINE
8
BLACK
6
CONTINUOUS
10
5.5834479921259845
20
-4.4559614566929131
11
5.581741102362205
21
-4.4534069685039368
0
LINE
8
BLACK
6
CONTINUOUS
10
5.581741102362205
20
-4.4534069685039368
11
5.5811417322834647
21
-4.4503937007874015
0
LINE
8
BLACK
6
CONTINUOUS
10
5.5811417322834647
20
-4.4503937007874015
11
5.5811417322834647
21
-4.3952755905511811
0
LINE
8
BLACK
6
CONTINUOUS
10
5.5811417322834647
20
-4.3952755905511811
11
5.581741102362205
21
-4.3922623228346458
0
LINE
8
BLACK
6
CONTINUOUS
10
5.581741102362205
20
-4.3922623228346458
11
5.5834479921259845
21
-4.3897078346456695
0
LINE
8
BLACK
6
CONTINUOUS
10
5.5834479921259845
20
-4.3897078346456695
11
5.5860024803149608
21
-4.38800094488189
0
LINE
8
BLACK
6
CONTINUOUS
10
5.5860024803149608
20
-4.38800094488189
11
5.5890157480314961
21
-4.3874015748031496
0
LINE
8
BLACK
6
CONTINUOUS
10
5.5890157480314961
20
-4.3874015748031496
11
5.6008267716535434
21
-4.3874015748031496
0
LINE
8
BLACK
6
CONTINUOUS
10
5.6008267716535434
20
-4.3874015748031496
11
5.6038400393700787
21
-4.38800094488189
0
LINE
8
BLACK
6
CONTINUOUS
10
5.6530526377952759
20
-4.38800094488189
11
5.6556071259842522
21
-4.3897078346456695
0
LINE
8
BLACK
6
CONTINUOUS
10
5.6556071259842522
20
-4.3897078346456695
11
5.6573140157480317
21
-4.3922623228346458
0
LINE
8
BLACK
6
CONTINUOUS
10
5.6573140157480317
20
-4.3922623228346458
11
5.6579133858267712
21
-4.3952755905511811
0
LINE
8
BLACK
6
CONTINUOUS
10
5.6579133858267712
20
-4.3952755905511811
11
5.6579133858267712
21
-4.4503937007874015
0
LINE
8
BLACK
6
CONTINUOUS
10
5.6579133858267712
20
-4.4503937007874015
11
5.6573140157480317
21
-4.4534069685039368
0
LINE
8
BLACK
6
CONTINUOUS
10
5.6573140157480317
20
-4.4534069685039368
11
5.6556071259842522
21
-4.4559614566929131
0
LINE
8
BLACK
6
CONTINUOUS
10
5.6556071259842522
20
-4.4559614566929131
11
5.6530526377952759
21
-4.4576683464566926
0
LINE
8
BLACK
6
CONTINUOUS
10
5.6530526377952759
20
-4.4576683464566926
11
5.6500393700787397
21
-4.458267716535433
0
LINE
8
BLACK
6
CONTINUOUS
10
5.6500393700787397
20
-4.458267716535433
11
5.6382283464566925
21
-4.458267716535433
0
LINE
8
BLACK
6
CONTINUOUS
10
5.6382283464566925
20
-4.458267716535433
11
5.6352150787401571
21
-4.4576683464566926
0
LINE
8
BLACK
6
CONTINUOUS
10
5.6352150787401571
20
-4.4576683464566926
11
5.6326605905511808
21
-4.4559614566929131
0
LINE
8
BLACK
6
CONTINUOUS
10
5.6326605905511808
20
-4.4559614566929131
11
5.6309537007874013
21
-4.4534069685039368
0
LINE
8
BLACK
6
CONTINUOUS
10
5.6309537007874013
20
-4.4534069685039368
11
5.630354330708661
21
-4.4503937007874015
0
LINE
8
BLACK
6
CONTINUOUS
10
5.630354330708661
20
-4.4503937007874015
11
5.630354330708661
21
-4.3952755905511811
0
LINE
8
BLACK
6
CONTINUOUS
10
5.630354330708661
20
-4.3952755905511811
11
5.6309537007874013
21
-4.3922623228346458
0
LINE
8
BLACK
6
CONTINUOUS
10
5.6309537007874013
20
-4.3922623228346458
11
5.6326605905511808
21
-4.3897078346456695
0
LINE
8
BLACK
6
CONTINUOUS
10
5.6326605905511808
20
-4.3897078346456695
11
5.6352150787401571
21
-4.38800094488189
0
LINE
8
BLACK
6
CONTINUOUS
10
5.6352150787401571
20
-4.38800094488189
11
5.6382283464566925
21
-4.3874015748031496
0
LINE
8
BLACK
6
CONTINUOUS
10
5.6382283464566925
20
-4.3874015748031496
11
5.6500393700787397
21
-4.3874015748031496
0
LINE
8
BLACK
6
CONTINUOUS
10
5.6500393700787397
20
-4.3874015748031496
11
5.6530526377952759
21
-4.38800094488189
0
LINE
8
BLACK
6
CONTINUOUS
10
5.7022652362204722
20
-4.38800094488189
11
5.7048197244094485
21
-4.3897078346456695
0
LINE
8
BLACK
6
CONTINUOUS
10
5.7048197244094485
20
-4.3897078346456695
11
5.706526614173228
21
-4.3922623228346458
0
LINE
8
BLACK
6
CONTINUOUS
10
5.706526614173228
20
-4.3922623228346458
11
5.7071259842519684
21
-4.3952755905511811
0
LINE
8
BLACK
6
CONTINUOUS
10
5.7071259842519684
20
-4.3952755905511811
11
5.7071259842519684
21
-4.4503937007874015
0
LINE
8
BLACK
6
CONTINUOUS
10
5.7071259842519684
20
-4.4503937007874015
11
5.706526614173228
21
-4.4534069685039368
0
LINE
8
BLACK
6
CONTINUOUS
10
5.706526614173228
20
-4.4534069685039368
11
5.7048197244094485
21
-4.4559614566929131
0
LINE
8
BLACK
6
CONTINUOUS
10
5.7048197244094485
20
-4.4559614566929131
11
5.7022652362204722
21
-4.4576683464566926
0
LINE
8
BLACK
6
CONTINUOUS
10
5.7022652362204722
20
-4.4576683464566926
11
5.6992519685039369
21
-4.458267716535433
0
LINE
8
BLACK
6
CONTINUOUS
10
5.6992519685039369
20
-4.458267716535433
11
5.6874409448818897
21
-4.458267716535433
0
LINE
8
BLACK
6
CONTINUOUS
10
5.6874409448818897
20
-4.458267716535433
11
5.6844276771653544
21
-4.4576683464566926
0
LINE
8
BLACK
6
CONTINUOUS
10
5.6844276771653544
20
-4.4576683464566926
11
5.6818731889763781
21
-4.4559614566929131
0
LINE
8
BLACK
6
CONTINUOUS
10
5.6818731889763781
20
-4.4559614566929131
11
5.6801662992125985
21
-4.4534069685039368
0
LINE
8
BLACK
6
CONTINUOUS
10
5.6801662992125985
20
-4.4534069685039368
11
5.6795669291338582
21
-4.4503937007874015
0
LINE
8
BLACK
6
CONTINUOUS
10
5.6795669291338582
20
-4.4503937007874015
11
5.6795669291338582
21
-4.3952755905511811
0
LINE
8
BLACK
6
CONTINUOUS
10
5.6795669291338582
20
-4.3952755905511811
11
5.6801662992125985
21
-4.3922623228346458
0
LINE
8
BLACK
6
CONTINUOUS
10
5.6801662992125985
20
-4.3922623228346458
11
5.6818731889763781
21
-4.3897078346456695
0
LINE
8
BLACK
6
CONTINUOUS
10
5.6818731889763781
20
-4.3897078346456695
11
5.6844276771653544
21
-4.38800094488189
0
LINE
8
BLACK
6
CONTINUOUS
10
5.6844276771653544
20
-4.38800094488189
11
5.6874409448818897
21
-4.3874015748031496
0
LINE
8
BLACK
6
CONTINUOUS
10
5.6874409448818897
20
-4.3874015748031496
11
5.6992519685039369
21
-4.3874015748031496
0
LINE
8
BLACK
6
CONTINUOUS
10
5.6992519685039369
20
-4.3874015748031496
11
5.7022652362204722
21
-4.38800094488189
0
LINE
8
BLACK
6
CONTINUOUS
10
5.7514778346456694
20
-4.38800094488189
11
5.7540323228346457
21
-4.3897078346456695
0
LINE
8
BLACK
6
CONTINUOUS
10
5.7540323228346457
20
-4.3897078346456695
11
5.7557392125984252
21
-4.3922623228346458
0
LINE
8
BLACK
6
CONTINUOUS
10
5.7557392125984252
20
-4.3922623228346458
11
5.7563385826771656
21
-4.3952755905511811
0
LINE
8
BLACK
6
CONTINUOUS
10
5.7563385826771656
20
-4.3952755905511811
11
5.7563385826771656
21
-4.4503937007874015
0
LINE
8
BLACK
6
CONTINUOUS
10
5.7563385826771656
20
-4.4503937007874015
11
5.7557392125984252
21
-4.4534069685039368
0
LINE
8
BLACK
6
CONTINUOUS
10
5.7557392125984252
20
-4.4534069685039368
11
5.7540323228346457
21
-4.4559614566929131
0
LINE
8
BLACK
6
CONTINUOUS
10
5.7540323228346457
20
-4.4559614566929131
11
5.7514778346456694
21
-4.4576683464566926
0
LINE
8
BLACK
6
CONTINUOUS
10
5.7514778346456694
20
-4.4576683464566926
11
5.7484645669291341
21
-4.458267716535433
0
LINE
8
BLACK
6
CONTINUOUS
10
5.7484645669291341
20
-4.458267716535433
11
5.7366535433070869
21
-4.458267716535433
0
LINE
8
BLACK
6
CONTINUOUS
10
5.7366535433070869
20
-4.458267716535433
11
5.7336402755905507
21
-4.4576683464566926
0
LINE
8
BLACK
6
CONTINUOUS
10
5.7336402755905507
20
-4.4576683464566926
11
5.7310857874015744
21
-4.4559614566929131
0
LINE
8
BLACK
6
CONTINUOUS
10
5.7310857874015744
20
-4.4559614566929131
11
5.7293788976377948
21
-4.4534069685039368
0
LINE
8
BLACK
6
CONTINUOUS
10
5.7293788976377948
20
-4.4534069685039368
11
5.7287795275590554
21
-4.4503937007874015
0
LINE
8
BLACK
6
CONTINUOUS
10
5.7287795275590554
20
-4.4503937007874015
11
5.7287795275590554
21
-4.3952755905511811
0
LINE
8
BLACK
6
CONTINUOUS
10
5.7287795275590554
20
-4.3952755905511811
11
5.7293788976377948
21
-4.3922623228346458
0
LINE
8
BLACK
6
CONTINUOUS
10
5.7293788976377948
20
-4.3922623228346458
11
5.7310857874015744
21
-4.3897078346456695
0
LINE
8
BLACK
6
CONTINUOUS
10
5.7310857874015744
20
-4.3897078346456695
11
5.7336402755905507
21
-4.38800094488189
0
LINE
8
BLACK
6
CONTINUOUS
10
5.7336402755905507
20
-4.38800094488189
11
5.7366535433070869
21
-4.3874015748031496
0
LINE
8
BLACK
6
CONTINUOUS
10
5.7366535433070869
20
-4.3874015748031496
11
5.7484645669291341
21
-4.3874015748031496
0
LINE
8
BLACK
6
CONTINUOUS
10
5.7484645669291341
20
-4.3874015748031496
11
5.7514778346456694
21
-4.38800094488189
0
LINE
8
BLACK
6
CONTINUOUS
10
5.8006904330708657
20
-4.38800094488189
11
5.803244921259842
21
-4.3897078346456695
0
LINE
8
BLACK
6
CONTINUOUS
10
5.803244921259842
20
-4.3897078346456695
11
5.8049518110236216
21
-4.3922623228346458
0
LINE
8
BLACK
6
CONTINUOUS
10
5.8049518110236216
20
-4.3922623228346458
11
5.8055511811023619
21
-4.3952755905511811
0
LINE
8
BLACK
6
CONTINUOUS
10
5.8055511811023619
20
-4.3952755905511811
11
5.8055511811023619
21
-4.4503937007874015
0
LINE
8
BLACK
6
CONTINUOUS
10
5.8055511811023619
20
-4.4503937007874015
11
5.8049518110236216
21
-4.4534069685039368
0
LINE
8
BLACK
6
CONTINUOUS
10
5.8049518110236216
20
-4.4534069685039368
11
5.803244921259842
21
-4.4559614566929131
0
LINE
8
BLACK
6
CONTINUOUS
10
5.803244921259842
20
-4.4559614566929131
11
5.8006904330708657
21
-4.4576683464566926
0
LINE
8
BLACK
6
CONTINUOUS
10
5.8006904330708657
20
-4.4576683464566926
11
5.7976771653543304
21
-4.458267716535433
0
LINE
8
BLACK
6
CONTINUOUS
10
5.7976771653543304
20
-4.458267716535433
11
5.7858661417322832
21
-4.458267716535433
0
LINE
8
BLACK
6
CONTINUOUS
10
5.7858661417322832
20
-4.458267716535433
11
5.7828528740157479
21
-4.4576683464566926
0
LINE
8
BLACK
6
CONTINUOUS
10
5.7828528740157479
20
-4.4576683464566926
11
5.7802983858267716
21
-4.4559614566929131
0
LINE
8
BLACK
6
CONTINUOUS
10
5.7802983858267716
20
-4.4559614566929131
11
5.7785914960629921
21
-4.4534069685039368
0
LINE
8
BLACK
6
CONTINUOUS
10
5.7785914960629921
20
-4.4534069685039368
11
5.7779921259842517
21
-4.4503937007874015
0
LINE
8
BLACK
6
CONTINUOUS
10
5.7779921259842517
20
-4.4503937007874015
11
5.7779921259842517
21
-4.3952755905511811
0
LINE
8
BLACK
6
CONTINUOUS
10
5.7779921259842517
20
-4.3952755905511811
11
5.7785914960629921
21
-4.3922623228346458
0
LINE
8
BLACK
6
CONTINUOUS
10
5.7785914960629921
20
-4.3922623228346458
11
5.7802983858267716
21
-4.3897078346456695
0
LINE
8
BLACK
6
CONTINUOUS
10
5.7802983858267716
20
-4.3897078346456695
11
5.7828528740157479
21
-4.38800094488189
0
LINE
8
BLACK
6
CONTINUOUS
10
5.7828528740157479
20
-4.38800094488189
11
5.7858661417322832
21
-4.3874015748031496
0
LINE
8
BLACK
6
CONTINUOUS
10
5.7858661417322832
20
-4.3874015748031496
11
5.7976771653543304
21
-4.3874015748031496
0
LINE
8
BLACK
6
CONTINUOUS
10
5.7976771653543304
20
-4.3874015748031496
11
5.8006904330708657
21
-4.38800094488189
0
LINE
8
BLACK
6
CONTINUOUS
10
5.8499030314960629
20
-4.38800094488189
11
5.8524575196850392
21
-4.3897078346456695
0
LINE
8
BLACK
6
CONTINUOUS
10
5.8524575196850392
20
-4.3897078346456695
11
5.8541644094488188
21
-4.3922623228346458
0
LINE
8
BLACK
6
CONTINUOUS
10
5.8541644094488188
20
-4.3922623228346458
11
5.8547637795275591
21
-4.3952755905511811
0
LINE
8
BLACK
6
CONTINUOUS
10
5.8547637795275591
20
-4.3952755905511811
11
5.8547637795275591
21
-4.4503937007874015
0
LINE
8
BLACK
6
CONTINUOUS
10
5.8547637795275591
20
-4.4503937007874015
11
5.8541644094488188
21
-4.4534069685039368
0
LINE
8
BLACK
6
CONTINUOUS
10
5.8541644094488188
20
-4.4534069685039368
11
5.8524575196850392
21
-4.4559614566929131
0
LINE
8
BLACK
6
CONTINUOUS
10
5.8524575196850392
20
-4.4559614566929131
11
5.8499030314960629
21
-4.4576683464566926
0
LINE
8
BLACK
6
CONTINUOUS
10
5.8499030314960629
20
-4.4576683464566926
11
5.8468897637795276
21
-4.458267716535433
0
LINE
8
BLACK
6
CONTINUOUS
10
5.8468897637795276
20
-4.458267716535433
11
5.8350787401574804
21
-4.458267716535433
0
LINE
8
BLACK
6
CONTINUOUS
10
5.8350787401574804
20
-4.458267716535433
11
5.8320654724409451
21
-4.4576683464566926
0
LINE
8
BLACK
6
CONTINUOUS
10
5.8320654724409451
20
-4.4576683464566926
11
5.8295109842519688
21
-4.4559614566929131
0
LINE
8
BLACK
6
CONTINUOUS
10
5.8295109842519688
20
-4.4559614566929131
11
5.8278040944881893
21
-4.4534069685039368
0
LINE
8
BLACK
6
CONTINUOUS
10
5.8278040944881893
20
-4.4534069685039368
11
5.8272047244094489
21
-4.4503937007874015
0
LINE
8
BLACK
6
CONTINUOUS
10
5.8272047244094489
20
-4.4503937007874015
11
5.8272047244094489
21
-4.3952755905511811
0
LINE
8
BLACK
6
CONTINUOUS
10
5.8272047244094489
20
-4.3952755905511811
11
5.8278040944881893
21
-4.3922623228346458
0
LINE
8
BLACK
6
CONTINUOUS
10
5.8278040944881893
20
-4.3922623228346458
11
5.8295109842519688
21
-4.3897078346456695
0
LINE
8
BLACK
6
CONTINUOUS
10
5.8295109842519688
20
-4.3897078346456695
11
5.8320654724409451
21
-4.38800094488189
0
LINE
8
BLACK
6
CONTINUOUS
10
5.8320654724409451
20
-4.38800094488189
11
5.8350787401574804
21
-4.3874015748031496
0
LINE
8
BLACK
6
CONTINUOUS
10
5.8350787401574804
20
-4.3874015748031496
11
5.8468897637795276
21
-4.3874015748031496
0
LINE
8
BLACK
6
CONTINUOUS
10
5.8468897637795276
20
-4.3874015748031496
11
5.8499030314960629
21
-4.38800094488189
0
LINE
8
BLACK
6
CONTINUOUS
10
5.8991156299212602
20
-4.38800094488189
11
5.9016701181102365
21
-4.3897078346456695
0
LINE
8
BLACK
6
CONTINUOUS
10
5.9016701181102365
20
-4.3897078346456695
11
5.903377007874016
21
-4.3922623228346458
0
LINE
8
BLACK
6
CONTINUOUS
10
5.903377007874016
20
-4.3922623228346458
11
5.9039763779527554
21
-4.3952755905511811
0
LINE
8
BLACK
6
CONTINUOUS
10
5.9039763779527554
20
-4.3952755905511811
11
5.9039763779527554
21
-4.4503937007874015
0
LINE
8
BLACK
6
CONTINUOUS
10
5.9039763779527554
20
-4.4503937007874015
11
5.903377007874016
21
-4.4534069685039368
0
LINE
8
BLACK
6
CONTINUOUS
10
5.903377007874016
20
-4.4534069685039368
11
5.9016701181102365
21
-4.4559614566929131
0
LINE
8
BLACK
6
CONTINUOUS
10
5.9016701181102365
20
-4.4559614566929131
11
5.8991156299212602
21
-4.4576683464566926
0
LINE
8
BLACK
6
CONTINUOUS
10
5.8991156299212602
20
-4.4576683464566926
11
5.8961023622047239
21
-4.458267716535433
0
LINE
8
BLACK
6
CONTINUOUS
10
5.8961023622047239
20
-4.458267716535433
11
5.8842913385826767
21
-4.458267716535433
0
LINE
8
BLACK
6
CONTINUOUS
10
5.8842913385826767
20
-4.458267716535433
11
5.8812780708661414
21
-4.4576683464566926
0
LINE
8
BLACK
6
CONTINUOUS
10
5.8812780708661414
20
-4.4576683464566926
11
5.8787235826771651
21
-4.4559614566929131
0
LINE
8
BLACK
6
CONTINUOUS
10
5.8787235826771651
20
-4.4559614566929131
11
5.8770166929133856
21
-4.4534069685039368
0
LINE
8
BLACK
6
CONTINUOUS
10
5.8770166929133856
20
-4.4534069685039368
11
5.8764173228346452
21
-4.4503937007874015
0
LINE
8
BLACK
6
CONTINUOUS
10
5.8764173228346452
20
-4.4503937007874015
11
5.8764173228346452
21
-4.3952755905511811
0
LINE
8
BLACK
6
CONTINUOUS
10
5.8764173228346452
20
-4.3952755905511811
11
5.8770166929133856
21
-4.3922623228346458
0
LINE
8
BLACK
6
CONTINUOUS
10
5.8770166929133856
20
-4.3922623228346458
11
5.8787235826771651
21
-4.3897078346456695
0
LINE
8
BLACK
6
CONTINUOUS
10
5.8787235826771651
20
-4.3897078346456695
11
5.8812780708661414
21
-4.38800094488189
0
LINE
8
BLACK
6
CONTINUOUS
10
5.8812780708661414
20
-4.38800094488189
11
5.8842913385826767
21
-4.3874015748031496
0
LINE
8
BLACK
6
CONTINUOUS
10
5.8842913385826767
20
-4.3874015748031496
11
5.8961023622047239
21
-4.3874015748031496
0
LINE
8
BLACK
6
CONTINUOUS
10
5.8961023622047239
20
-4.3874015748031496
11
5.8991156299212602
21
-4.38800094488189
0
LINE
8
BLACK
6
CONTINUOUS
10
6.1339778346456688
20
-4.38800094488189
11
6.1365323228346451
21
-4.3897078346456695
0
LINE
8
BLACK
6
CONTINUOUS
10
6.1365323228346451
20
-4.3897078346456695
11
6.1382392125984246
21
-4.3922623228346458
0
LINE
8
BLACK
6
CONTINUOUS
10
6.1382392125984246
20
-4.3922623228346458
11
6.138838582677165
21
-4.3952755905511811
0
LINE
8
BLACK
6
CONTINUOUS
10
6.138838582677165
20
-4.3952755905511811
11
6.138838582677165
21
-4.4503937007874015
0
LINE
8
BLACK
6
CONTINUOUS
10
6.138838582677165
20
-4.4503937007874015
11
6.1382392125984246
21
-4.4534069685039368
0
LINE
8
BLACK
6
CONTINUOUS
10
6.1382392125984246
20
-4.4534069685039368
11
6.1365323228346451
21
-4.4559614566929131
0
LINE
8
BLACK
6
CONTINUOUS
10
6.1365323228346451
20
-4.4559614566929131
11
6.1339778346456688
21
-4.4576683464566926
0
LINE
8
BLACK
6
CONTINUOUS
10
6.1339778346456688
20
-4.4576683464566926
11
6.1309645669291335
21
-4.458267716535433
0
LINE
8
BLACK
6
CONTINUOUS
10
6.1309645669291335
20
-4.458267716535433
11
6.1191535433070863
21
-4.458267716535433
0
LINE
8
BLACK
6
CONTINUOUS
10
6.1191535433070863
20
-4.458267716535433
11
6.116140275590551
21
-4.4576683464566926
0
LINE
8
BLACK
6
CONTINUOUS
10
6.116140275590551
20
-4.4576683464566926
11
6.1135857874015747
21
-4.4559614566929131
0
LINE
8
BLACK
6
CONTINUOUS
10
6.1135857874015747
20
-4.4559614566929131
11
6.1118788976377951
21
-4.4534069685039368
0
LINE
8
BLACK
6
CONTINUOUS
10
6.1118788976377951
20
-4.4534069685039368
11
6.1112795275590548
21
-4.4503937007874015
0
LINE
8
BLACK
6
CONTINUOUS
10
6.1112795275590548
20
-4.4503937007874015
11
6.1112795275590548
21
-4.3952755905511811
0
LINE
8
BLACK
6
CONTINUOUS
10
6.1112795275590548
20
-4.3952755905511811
11
6.1118788976377951
21
-4.3922623228346458
0
LINE
8
BLACK
6
CONTINUOUS
10
6.1118788976377951
20
-4.3922623228346458
11
6.1135857874015747
21
-4.3897078346456695
0
LINE
8
BLACK
6
CONTINUOUS
10
6.1135857874015747
20
-4.3897078346456695
11
6.116140275590551
21
-4.38800094488189
0
LINE
8
BLACK
6
CONTINUOUS
10
6.116140275590551
20
-4.38800094488189
11
6.1191535433070863
21
-4.3874015748031496
0
LINE
8
BLACK
6
CONTINUOUS
10
6.1191535433070863
20
-4.3874015748031496
11
6.1309645669291335
21
-4.3874015748031496
0
LINE
8
BLACK
6
CONTINUOUS
10
6.1309645669291335
20
-4.3874015748031496
11
6.1339778346456688
21
-4.38800094488189
0
LINE
8
BLACK
6
CONTINUOUS
10
6.183190433070866
20
-4.38800094488189
11
6.1857449212598423
21
-4.3897078346456695
0
LINE
8
BLACK
6
CONTINUOUS
10
6.1857449212598423
20
-4.3897078346456695
11
6.1874518110236219
21
-4.3922623228346458
0
LINE
8
BLACK
6
CONTINUOUS
10
6.1874518110236219
20
-4.3922623228346458
11
6.1880511811023622
21
-4.3952755905511811
0
LINE
8
BLACK
6
CONTINUOUS
10
6.1880511811023622
20
-4.3952755905511811
11
6.1880511811023622
21
-4.4503937007874015
0
LINE
8
BLACK
6
CONTINUOUS
10
6.1880511811023622
20
-4.4503937007874015
11
6.1874518110236219
21
-4.4534069685039368
0
LINE
8
BLACK
6
CONTINUOUS
10
6.1874518110236219
20
-4.4534069685039368
11
6.1857449212598423
21
-4.4559614566929131
0
LINE
8
BLACK
6
CONTINUOUS
10
6.1857449212598423
20
-4.4559614566929131
11
6.183190433070866
21
-4.4576683464566926
0
LINE
8
BLACK
6
CONTINUOUS
10
6.183190433070866
20
-4.4576683464566926
11
6.1801771653543307
21
-4.458267716535433
0
LINE
8
BLACK
6
CONTINUOUS
10
6.1801771653543307
20
-4.458267716535433
11
6.1683661417322835
21
-4.458267716535433
0
LINE
8
BLACK
6
CONTINUOUS
10
6.1683661417322835
20
-4.458267716535433
11
6.1653528740157482
21
-4.4576683464566926
0
LINE
8
BLACK
6
CONTINUOUS
10
6.1653528740157482
20
-4.4576683464566926
11
6.1627983858267719
21
-4.4559614566929131
0
LINE
8
BLACK
6
CONTINUOUS
10
6.1627983858267719
20
-4.4559614566929131
11
6.1610914960629923
21
-4.4534069685039368
0
LINE
8
BLACK
6
CONTINUOUS
10
6.1610914960629923
20
-4.4534069685039368
11
6.160492125984252
21
-4.4503937007874015
0
LINE
8
BLACK
6
CONTINUOUS
10
6.160492125984252
20
-4.4503937007874015
11
6.160492125984252
21
-4.3952755905511811
0
LINE
8
BLACK
6
CONTINUOUS
10
6.160492125984252
20
-4.3952755905511811
11
6.1610914960629923
21
-4.3922623228346458
0
LINE
8
BLACK
6
CONTINUOUS
10
6.1610914960629923
20
-4.3922623228346458
11
6.1627983858267719
21
-4.3897078346456695
0
LINE
8
BLACK
6
CONTINUOUS
10
6.1627983858267719
20
-4.3897078346456695
11
6.1653528740157482
21
-4.38800094488189
0
LINE
8
BLACK
6
CONTINUOUS
10
6.1653528740157482
20
-4.38800094488189
11
6.1683661417322835
21
-4.3874015748031496
0
LINE
8
BLACK
6
CONTINUOUS
10
6.1683661417322835
20
-4.3874015748031496
11
6.1801771653543307
21
-4.3874015748031496
0
LINE
8
BLACK
6
CONTINUOUS
10
6.1801771653543307
20
-4.3874015748031496
11
6.183190433070866
21
-4.38800094488189
0
LINE
8
BLACK
6
CONTINUOUS
10
6.2324030314960632
20
-4.38800094488189
11
6.2349575196850395
21
-4.3897078346456695
0
LINE
8
BLACK
6
CONTINUOUS
10
6.2349575196850395
20
-4.3897078346456695
11
6.2366644094488191
21
-4.3922623228346458
0
LINE
8
BLACK
6
CONTINUOUS
10
6.2366644094488191
20
-4.3922623228346458
11
6.2372637795275585
21
-4.3952755905511811
0
LINE
8
BLACK
6
CONTINUOUS
10
6.2372637795275585
20
-4.3952755905511811
11
6.2372637795275585
21
-4.4503937007874015
0
LINE
8
BLACK
6
CONTINUOUS
10
6.2372637795275585
20
-4.4503937007874015
11
6.2366644094488191
21
-4.4534069685039368
0
LINE
8
BLACK
6
CONTINUOUS
10
6.2366644094488191
20
-4.4534069685039368
11
6.2349575196850395
21
-4.4559614566929131
0
LINE
8
BLACK
6
CONTINUOUS
10
6.2349575196850395
20
-4.4559614566929131
11
6.2324030314960632
21
-4.4576683464566926
0
LINE
8
BLACK
6
CONTINUOUS
10
6.2324030314960632
20
-4.4576683464566926
11
6.229389763779527
21
-4.458267716535433
0
LINE
8
BLACK
6
CONTINUOUS
10
6.229389763779527
20
-4.458267716535433
11
6.2175787401574798
21
-4.458267716535433
0
LINE
8
BLACK
6
CONTINUOUS
10
6.2175787401574798
20
-4.458267716535433
11
6.2145654724409445
21
-4.4576683464566926
0
LINE
8
BLACK
6
CONTINUOUS
10
6.2145654724409445
20
-4.4576683464566926
11
6.2120109842519682
21
-4.4559614566929131
0
LINE
8
BLACK
6
CONTINUOUS
10
6.2120109842519682
20
-4.4559614566929131
11
6.2103040944881887
21
-4.4534069685039368
0
LINE
8
BLACK
6
CONTINUOUS
10
6.2103040944881887
20
-4.4534069685039368
11
6.2097047244094483
21
-4.4503937007874015
0
LINE
8
BLACK
6
CONTINUOUS
10
6.2097047244094483
20
-4.4503937007874015
11
6.2097047244094483
21
-4.3952755905511811
0
LINE
8
BLACK
6
CONTINUOUS
10
6.2097047244094483
20
-4.3952755905511811
11
6.2103040944881887
21
-4.3922623228346458
0
LINE
8
BLACK
6
CONTINUOUS
10
6.2103040944881887
20
-4.3922623228346458
11
6.2120109842519682
21
-4.3897078346456695
0
LINE
8
BLACK
6
CONTINUOUS
10
6.2120109842519682
20
-4.3897078346456695
11
6.2145654724409445
21
-4.38800094488189
0
LINE
8
BLACK
6
CONTINUOUS
10
6.2145654724409445
20
-4.38800094488189
11
6.2175787401574798
21
-4.3874015748031496
0
LINE
8
BLACK
6
CONTINUOUS
10
6.2175787401574798
20
-4.3874015748031496
11
6.229389763779527
21
-4.3874015748031496
0
LINE
8
BLACK
6
CONTINUOUS
10
6.229389763779527
20
-4.3874015748031496
11
6.2324030314960632
21
-4.38800094488189
0
LINE
8
BLACK
6
CONTINUOUS
10
6.2816156299212595
20
-4.38800094488189
11
6.2841701181102358
21
-4.3897078346456695
0
LINE
8
BLACK
6
CONTINUOUS
10
6.2841701181102358
20
-4.3897078346456695
11
6.2858770078740154
21
-4.3922623228346458
0
LINE
8
BLACK
6
CONTINUOUS
10
6.2858770078740154
20
-4.3922623228346458
11
6.2864763779527557
21
-4.3952755905511811
0
LINE
8
BLACK
6
CONTINUOUS
10
6.2864763779527557
20
-4.3952755905511811
11
6.2864763779527557
21
-4.4503937007874015
0
LINE
8
BLACK
6
CONTINUOUS
10
6.2864763779527557
20
-4.4503937007874015
11
6.2858770078740154
21
-4.4534069685039368
0
LINE
8
BLACK
6
CONTINUOUS
10
6.2858770078740154
20
-4.4534069685039368
11
6.2841701181102358
21
-4.4559614566929131
0
LINE
8
BLACK
6
CONTINUOUS
10
6.2841701181102358
20
-4.4559614566929131
11
6.2816156299212595
21
-4.4576683464566926
0
LINE
8
BLACK
6
CONTINUOUS
10
6.2816156299212595
20
-4.4576683464566926
11
6.2786023622047242
21
-4.458267716535433
0
LINE
8
BLACK
6
CONTINUOUS
10
6.2786023622047242
20
-4.458267716535433
11
6.266791338582677
21
-4.458267716535433
0
LINE
8
BLACK
6
CONTINUOUS
10
6.266791338582677
20
-4.458267716535433
11
6.2637780708661417
21
-4.4576683464566926
0
LINE
8
BLACK
6
CONTINUOUS
10
6.2637780708661417
20
-4.4576683464566926
11
6.2612235826771654
21
-4.4559614566929131
0
LINE
8
BLACK
6
CONTINUOUS
10
6.2612235826771654
20
-4.4559614566929131
11
6.2595166929133859
21
-4.4534069685039368
0
LINE
8
BLACK
6
CONTINUOUS
10
6.2595166929133859
20
-4.4534069685039368
11
6.2589173228346455
21
-4.4503937007874015
0
LINE
8
BLACK
6
CONTINUOUS
10
6.2589173228346455
20
-4.4503937007874015
11
6.2589173228346455
21
-4.3952755905511811
0
LINE
8
BLACK
6
CONTINUOUS
10
6.2589173228346455
20
-4.3952755905511811
11
6.2595166929133859
21
-4.3922623228346458
0
LINE
8
BLACK
6
CONTINUOUS
10
6.2595166929133859
20
-4.3922623228346458
11
6.2612235826771654
21
-4.3897078346456695
0
LINE
8
BLACK
6
CONTINUOUS
10
6.2612235826771654
20
-4.3897078346456695
11
6.2637780708661417
21
-4.38800094488189
0
LINE
8
BLACK
6
CONTINUOUS
10
6.2637780708661417
20
-4.38800094488189
11
6.266791338582677
21
-4.3874015748031496
0
LINE
8
BLACK
6
CONTINUOUS
10
6.266791338582677
20
-4.3874015748031496
11
6.2786023622047242
21
-4.3874015748031496
0
LINE
8
BLACK
6
CONTINUOUS
10
6.2786023622047242
20
-4.3874015748031496
11
6.2816156299212595
21
-4.38800094488189
0
LINE
8
BLACK
6
CONTINUOUS
10
6.3308282283464568
20
-4.38800094488189
11
6.3333827165354331
21
-4.3897078346456695
0
LINE
8
BLACK
6
CONTINUOUS
10
6.3333827165354331
20
-4.3897078346456695
11
6.3350896062992126
21
-4.3922623228346458
0
LINE
8
BLACK
6
CONTINUOUS
10
6.3350896062992126
20
-4.3922623228346458
11
6.3356889763779529
21
-4.3952755905511811
0
LINE
8
BLACK
6
CONTINUOUS
10
6.3356889763779529
20
-4.3952755905511811
11
6.3356889763779529
21
-4.4503937007874015
0
LINE
8
BLACK
6
CONTINUOUS
10
6.3356889763779529
20
-4.4503937007874015
11
6.3350896062992126
21
-4.4534069685039368
0
LINE
8
BLACK
6
CONTINUOUS
10
6.3350896062992126
20
-4.4534069685039368
11
6.3333827165354331
21
-4.4559614566929131
0
LINE
8
BLACK
6
CONTINUOUS
10
6.3333827165354331
20
-4.4559614566929131
11
6.3308282283464568
21
-4.4576683464566926
0
LINE
8
BLACK
6
CONTINUOUS
10
6.3308282283464568
20
-4.4576683464566926
11
6.3278149606299214
21
-4.458267716535433
0
LINE
8
BLACK
6
CONTINUOUS
10
6.3278149606299214
20
-4.458267716535433
11
6.3160039370078742
21
-4.458267716535433
0
LINE
8
BLACK
6
CONTINUOUS
10
6.3160039370078742
20
-4.458267716535433
11
6.312990669291338
21
-4.4576683464566926
0
LINE
8
BLACK
6
CONTINUOUS
10
6.312990669291338
20
-4.4576683464566926
11
6.3104361811023617
21
-4.4559614566929131
0
LINE
8
BLACK
6
CONTINUOUS
10
6.3104361811023617
20
-4.4559614566929131
11
6.3087292913385822
21
-4.4534069685039368
0
LINE
8
BLACK
6
CONTINUOUS
10
6.3087292913385822
20
-4.4534069685039368
11
6.3081299212598427
21
-4.4503937007874015
0
LINE
8
BLACK
6
CONTINUOUS
10
6.3081299212598427
20
-4.4503937007874015
11
6.3081299212598427
21
-4.3952755905511811
0
LINE
8
BLACK
6
CONTINUOUS
10
6.3081299212598427
20
-4.3952755905511811
11
6.3087292913385822
21
-4.3922623228346458
0
LINE
8
BLACK
6
CONTINUOUS
10
6.3087292913385822
20
-4.3922623228346458
11
6.3104361811023617
21
-4.3897078346456695
0
LINE
8
BLACK
6
CONTINUOUS
10
6.3104361811023617
20
-4.3897078346456695
11
6.312990669291338
21
-4.38800094488189
0
LINE
8
BLACK
6
CONTINUOUS
10
6.312990669291338
20
-4.38800094488189
11
6.3160039370078742
21
-4.3874015748031496
0
LINE
8
BLACK
6
CONTINUOUS
10
6.3160039370078742
20
-4.3874015748031496
11
6.3278149606299214
21
-4.3874015748031496
0
LINE
8
BLACK
6
CONTINUOUS
10
6.3278149606299214
20
-4.3874015748031496
11
6.3308282283464568
21
-4.38800094488189
0
LINE
8
BLACK
6
CONTINUOUS
10
6.3800408267716531
20
-4.38800094488189
11
6.3825953149606294
21
-4.3897078346456695
0
LINE
8
BLACK
6
CONTINUOUS
10
6.3825953149606294
20
-4.3897078346456695
11
6.3843022047244089
21
-4.3922623228346458
0
LINE
8
BLACK
6
CONTINUOUS
10
6.3843022047244089
20
-4.3922623228346458
11
6.3849015748031492
21
-4.3952755905511811
0
LINE
8
BLACK
6
CONTINUOUS
10
6.3849015748031492
20
-4.3952755905511811
11
6.3849015748031492
21
-4.4503937007874015
0
LINE
8
BLACK
6
CONTINUOUS
10
6.3849015748031492
20
-4.4503937007874015
11
6.3843022047244089
21
-4.4534069685039368
0
LINE
8
BLACK
6
CONTINUOUS
10
6.3843022047244089
20
-4.4534069685039368
11
6.3825953149606294
21
-4.4559614566929131
0
LINE
8
BLACK
6
CONTINUOUS
10
6.3825953149606294
20
-4.4559614566929131
11
6.3800408267716531
21
-4.4576683464566926
0
LINE
8
BLACK
6
CONTINUOUS
10
6.3800408267716531
20
-4.4576683464566926
11
6.3770275590551178
21
-4.458267716535433
0
LINE
8
BLACK
6
CONTINUOUS
10
6.3770275590551178
20
-4.458267716535433
11
6.3652165354330705
21
-4.458267716535433
0
LINE
8
BLACK
6
CONTINUOUS
10
6.3652165354330705
20
-4.458267716535433
11
6.3622032677165352
21
-4.4576683464566926
0
LINE
8
BLACK
6
CONTINUOUS
10
6.3622032677165352
20
-4.4576683464566926
11
6.3596487795275589
21
-4.4559614566929131
0
LINE
8
BLACK
6
CONTINUOUS
10
6.3596487795275589
20
-4.4559614566929131
11
6.3579418897637794
21
-4.4534069685039368
0
LINE
8
BLACK
6
CONTINUOUS
10
6.3579418897637794
20
-4.4534069685039368
11
6.3573425196850391
21
-4.4503937007874015
0
LINE
8
BLACK
6
CONTINUOUS
10
6.3573425196850391
20
-4.4503937007874015
11
6.3573425196850391
21
-4.3952755905511811
0
LINE
8
BLACK
6
CONTINUOUS
10
6.3573425196850391
20
-4.3952755905511811
11
6.3579418897637794
21
-4.3922623228346458
0
LINE
8
BLACK
6
CONTINUOUS
10
6.3579418897637794
20
-4.3922623228346458
11
6.3596487795275589
21
-4.3897078346456695
0
LINE
8
BLACK
6
CONTINUOUS
10
6.3596487795275589
20
-4.3897078346456695
11
6.3622032677165352
21
-4.38800094488189
0
LINE
8
BLACK
6
CONTINUOUS
10
6.3622032677165352
20
-4.38800094488189
11
6.3652165354330705
21
-4.3874015748031496
0
LINE
8
BLACK
6
CONTINUOUS
10
6.3652165354330705
20
-4.3874015748031496
11
6.3770275590551178
21
-4.3874015748031496
0
LINE
8
BLACK
6
CONTINUOUS
10
6.3770275590551178
20
-4.3874015748031496
11
6.3800408267716531
21
-4.38800094488189
0
LINE
8
BLACK
6
CONTINUOUS
10
6.6150998818897637
20
-4.38800094488189
11
6.61765437007874
21
-4.3897078346456695
0
LINE
8
BLACK
6
CONTINUOUS
10
6.61765437007874
20
-4.3897078346456695
11
6.6193612598425196
21
-4.3922623228346458
0
LINE
8
BLACK
6
CONTINUOUS
10
6.6193612598425196
20
-4.3922623228346458
11
6.6199606299212599
21
-4.3952755905511811
0
LINE
8
BLACK
6
CONTINUOUS
10
6.6199606299212599
20
-4.3952755905511811
11
6.6199606299212599
21
-4.4503937007874015
0
LINE
8
BLACK
6
CONTINUOUS
10
6.6199606299212599
20
-4.4503937007874015
11
6.6193612598425196
21
-4.4534069685039368
0
LINE
8
BLACK
6
CONTINUOUS
10
6.6193612598425196
20
-4.4534069685039368
11
6.61765437007874
21
-4.4559614566929131
0
LINE
8
BLACK
6
CONTINUOUS
10
6.61765437007874
20
-4.4559614566929131
11
6.6150998818897637
21
-4.4576683464566926
0
LINE
8
BLACK
6
CONTINUOUS
10
6.6150998818897637
20
-4.4576683464566926
11
6.6120866141732284
21
-4.458267716535433
0
LINE
8
BLACK
6
CONTINUOUS
10
6.6120866141732284
20
-4.458267716535433
11
6.6002755905511812
21
-4.458267716535433
0
LINE
8
BLACK
6
CONTINUOUS
10
6.6002755905511812
20
-4.458267716535433
11
6.5972623228346459
21
-4.4576683464566926
0
LINE
8
BLACK
6
CONTINUOUS
10
6.5972623228346459
20
-4.4576683464566926
11
6.5947078346456696
21
-4.4559614566929131
0
LINE
8
BLACK
6
CONTINUOUS
10
6.5947078346456696
20
-4.4559614566929131
11
6.59300094488189
21
-4.4534069685039368
0
LINE
8
BLACK
6
CONTINUOUS
10
6.59300094488189
20
-4.4534069685039368
11
6.5924015748031497
21
-4.4503937007874015
0
LINE
8
BLACK
6
CONTINUOUS
10
6.5924015748031497
20
-4.4503937007874015
11
6.5924015748031497
21
-4.3952755905511811
0
LINE
8
BLACK
6
CONTINUOUS
10
6.5924015748031497
20
-4.3952755905511811
11
6.59300094488189
21
-4.3922623228346458
0
LINE
8
BLACK
6
CONTINUOUS
10
6.59300094488189
20
-4.3922623228346458
11
6.5947078346456696
21
-4.3897078346456695
0
LINE
8
BLACK
6
CONTINUOUS
10
6.5947078346456696
20
-4.3897078346456695
11
6.5972623228346459
21
-4.38800094488189
0
LINE
8
BLACK
6
CONTINUOUS
10
6.5972623228346459
20
-4.38800094488189
11
6.6002755905511812
21
-4.3874015748031496
0
LINE
8
BLACK
6
CONTINUOUS
10
6.6002755905511812
20
-4.3874015748031496
11
6.6120866141732284
21
-4.3874015748031496
0
LINE
8
BLACK
6
CONTINUOUS
10
6.6120866141732284
20
-4.3874015748031496
11
6.6150998818897637
21
-4.38800094488189
0
LINE
8
BLACK
6
CONTINUOUS
10
6.66431248031496
20
-4.38800094488189
11
6.6668669685039372
21
-4.3897078346456695
0
LINE
8
BLACK
6
CONTINUOUS
10
6.6668669685039372
20
-4.3897078346456695
11
6.6685738582677168
21
-4.3922623228346458
0
LINE
8
BLACK
6
CONTINUOUS
10
6.6685738582677168
20
-4.3922623228346458
11
6.6691732283464562
21
-4.3952755905511811
0
LINE
8
BLACK
6
CONTINUOUS
10
6.6691732283464562
20
-4.3952755905511811
11
6.6691732283464562
21
-4.4503937007874015
0
LINE
8
BLACK
6
CONTINUOUS
10
6.6691732283464562
20
-4.4503937007874015
11
6.6685738582677168
21
-4.4534069685039368
0
LINE
8
BLACK
6
CONTINUOUS
10
6.6685738582677168
20
-4.4534069685039368
11
6.6668669685039372
21
-4.4559614566929131
0
LINE
8
BLACK
6
CONTINUOUS
10
6.6668669685039372
20
-4.4559614566929131
11
6.66431248031496
21
-4.4576683464566926
0
LINE
8
BLACK
6
CONTINUOUS
10
6.66431248031496
20
-4.4576683464566926
11
6.6612992125984247
21
-4.458267716535433
0
LINE
8
BLACK
6
CONTINUOUS
10
6.6612992125984247
20
-4.458267716535433
11
6.6494881889763775
21
-4.458267716535433
0
LINE
8
BLACK
6
CONTINUOUS
10
6.6494881889763775
20
-4.458267716535433
11
6.6464749212598422
21
-4.4576683464566926
0
LINE
8
BLACK
6
CONTINUOUS
10
6.6464749212598422
20
-4.4576683464566926
11
6.6439204330708659
21
-4.4559614566929131
0
LINE
8
BLACK
6
CONTINUOUS
10
6.6439204330708659
20
-4.4559614566929131
11
6.6422135433070864
21
-4.4534069685039368
0
LINE
8
BLACK
6
CONTINUOUS
10
6.6422135433070864
20
-4.4534069685039368
11
6.641614173228346
21
-4.4503937007874015
0
LINE
8
BLACK
6
CONTINUOUS
10
6.641614173228346
20
-4.4503937007874015
11
6.641614173228346
21
-4.3952755905511811
0
LINE
8
BLACK
6
CONTINUOUS
10
6.641614173228346
20
-4.3952755905511811
11
6.6422135433070864
21
-4.3922623228346458
0
LINE
8
BLACK
6
CONTINUOUS
10
6.6422135433070864
20
-4.3922623228346458
11
6.6439204330708659
21
-4.3897078346456695
0
LINE
8
BLACK
6
CONTINUOUS
10
6.6439204330708659
20
-4.3897078346456695
11
6.6464749212598422
21
-4.38800094488189
0
LINE
8
BLACK
6
CONTINUOUS
10
6.6464749212598422
20
-4.38800094488189
11
6.6494881889763775
21
-4.3874015748031496
0
LINE
8
BLACK
6
CONTINUOUS
10
6.6494881889763775
20
-4.3874015748031496
11
6.6612992125984247
21
-4.3874015748031496
0
LINE
8
BLACK
6
CONTINUOUS
10
6.6612992125984247
20
-4.3874015748031496
11
6.66431248031496
21
-4.38800094488189
0
LINE
8
BLACK
6
CONTINUOUS
10
6.7135250787401572
20
-4.38800094488189
11
6.7160795669291335
21
-4.3897078346456695
0
LINE
8
BLACK
6
CONTINUOUS
10
6.7160795669291335
20
-4.3897078346456695
11
6.7177864566929131
21
-4.3922623228346458
0
LINE
8
BLACK
6
CONTINUOUS
10
6.7177864566929131
20
-4.3922623228346458
11
6.7183858267716534
21
-4.3952755905511811
0
LINE
8
BLACK
6
CONTINUOUS
10
6.7183858267716534
20
-4.3952755905511811
11
6.7183858267716534
21
-4.4503937007874015
0
LINE
8
BLACK
6
CONTINUOUS
10
6.7183858267716534
20
-4.4503937007874015
11
6.7177864566929131
21
-4.4534069685039368
0
LINE
8
BLACK
6
CONTINUOUS
10
6.7177864566929131
20
-4.4534069685039368
11
6.7160795669291335
21
-4.4559614566929131
0
LINE
8
BLACK
6
CONTINUOUS
10
6.7160795669291335
20
-4.4559614566929131
11
6.7135250787401572
21
-4.4576683464566926
0
LINE
8
BLACK
6
CONTINUOUS
10
6.7135250787401572
20
-4.4576683464566926
11
6.7105118110236219
21
-4.458267716535433
0
LINE
8
BLACK
6
CONTINUOUS
10
6.7105118110236219
20
-4.458267716535433
11
6.6987007874015747
21
-4.458267716535433
0
LINE
8
BLACK
6
CONTINUOUS
10
6.6987007874015747
20
-4.458267716535433
11
6.6956875196850394
21
-4.4576683464566926
0
LINE
8
BLACK
6
CONTINUOUS
10
6.6956875196850394
20
-4.4576683464566926
11
6.6931330314960631
21
-4.4559614566929131
0
LINE
8
BLACK
6
CONTINUOUS
10
6.6931330314960631
20
-4.4559614566929131
11
6.6914261417322836
21
-4.4534069685039368
0
LINE
8
BLACK
6
CONTINUOUS
10
6.6914261417322836
20
-4.4534069685039368
11
6.6908267716535432
21
-4.4503937007874015
0
LINE
8
BLACK
6
CONTINUOUS
10
6.6908267716535432
20
-4.4503937007874015
11
6.6908267716535432
21
-4.3952755905511811
0
LINE
8
BLACK
6
CONTINUOUS
10
6.6908267716535432
20
-4.3952755905511811
11
6.6914261417322836
21
-4.3922623228346458
0
LINE
8
BLACK
6
CONTINUOUS
10
6.6914261417322836
20
-4.3922623228346458
11
6.6931330314960631
21
-4.3897078346456695
0
LINE
8
BLACK
6
CONTINUOUS
10
6.6931330314960631
20
-4.3897078346456695
11
6.6956875196850394
21
-4.38800094488189
0
LINE
8
BLACK
6
CONTINUOUS
10
6.6956875196850394
20
-4.38800094488189
11
6.6987007874015747
21
-4.3874015748031496
0
LINE
8
BLACK
6
CONTINUOUS
10
6.6987007874015747
20
-4.3874015748031496
11
6.7105118110236219
21
-4.3874015748031496
0
LINE
8
BLACK
6
CONTINUOUS
10
6.7105118110236219
20
-4.3874015748031496
11
6.7135250787401572
21
-4.38800094488189
0
LINE
8
BLACK
6
CONTINUOUS
10
6.7627376771653545
20
-4.38800094488189
11
6.7652921653543308
21
-4.3897078346456695
0
LINE
8
BLACK
6
CONTINUOUS
10
6.7652921653543308
20
-4.3897078346456695
11
6.7669990551181103
21
-4.3922623228346458
0
LINE
8
BLACK
6
CONTINUOUS
10
6.7669990551181103
20
-4.3922623228346458
11
6.7675984251968506
21
-4.3952755905511811
0
LINE
8
BLACK
6
CONTINUOUS
10
6.7675984251968506
20
-4.3952755905511811
11
6.7675984251968506
21
-4.4503937007874015
0
LINE
8
BLACK
6
CONTINUOUS
10
6.7675984251968506
20
-4.4503937007874015
11
6.7669990551181103
21
-4.4534069685039368
0
LINE
8
BLACK
6
CONTINUOUS
10
6.7669990551181103
20
-4.4534069685039368
11
6.7652921653543308
21
-4.4559614566929131
0
LINE
8
BLACK
6
CONTINUOUS
10
6.7652921653543308
20
-4.4559614566929131
11
6.7627376771653545
21
-4.4576683464566926
0
LINE
8
BLACK
6
CONTINUOUS
10
6.7627376771653545
20
-4.4576683464566926
11
6.7597244094488191
21
-4.458267716535433
0
LINE
8
BLACK
6
CONTINUOUS
10
6.7597244094488191
20
-4.458267716535433
11
6.7479133858267719
21
-4.458267716535433
0
LINE
8
BLACK
6
CONTINUOUS
10
6.7479133858267719
20
-4.458267716535433
11
6.7449001181102357
21
-4.4576683464566926
0
LINE
8
BLACK
6
CONTINUOUS
10
6.7449001181102357
20
-4.4576683464566926
11
6.7423456299212594
21
-4.4559614566929131
0
LINE
8
BLACK
6
CONTINUOUS
10
6.7423456299212594
20
-4.4559614566929131
11
6.7406387401574799
21
-4.4534069685039368
0
LINE
8
BLACK
6
CONTINUOUS
10
6.7406387401574799
20
-4.4534069685039368
11
6.7400393700787404
21
-4.4503937007874015
0
LINE
8
BLACK
6
CONTINUOUS
10
6.7400393700787404
20
-4.4503937007874015
11
6.7400393700787404
21
-4.3952755905511811
0
LINE
8
BLACK
6
CONTINUOUS
10
6.7400393700787404
20
-4.3952755905511811
11
6.7406387401574799
21
-4.3922623228346458
0
LINE
8
BLACK
6
CONTINUOUS
10
6.7406387401574799
20
-4.3922623228346458
11
6.7423456299212594
21
-4.3897078346456695
0
LINE
8
BLACK
6
CONTINUOUS
10
6.7423456299212594
20
-4.3897078346456695
11
6.7449001181102357
21
-4.38800094488189
0
LINE
8
BLACK
6
CONTINUOUS
10
6.7449001181102357
20
-4.38800094488189
11
6.7479133858267719
21
-4.3874015748031496
0
LINE
8
BLACK
6
CONTINUOUS
10
6.7479133858267719
20
-4.3874015748031496
11
6.7597244094488191
21
-4.3874015748031496
0
LINE
8
BLACK
6
CONTINUOUS
10
6.7597244094488191
20
-4.3874015748031496
11
6.7627376771653545
21
-4.38800094488189
0
LINE
8
BLACK
6
CONTINUOUS
10
4.3757356299212598
20
-4.2420460236220467
11
4.3797063385826771
21
-4.2437992519685039
0
LINE
8
BLACK
6
CONTINUOUS
10
4.3797063385826771
20
-4.2437992519685039
11
4.3827755511811022
21
-4.246868464566929
0
LINE
8
BLACK
6
CONTINUOUS
10
4.3827755511811022
20
-4.246868464566929
11
4.3845287795275594
21
-4.2508391732283464
0
LINE
8
BLACK
6
CONTINUOUS
10
4.3845287795275594
20
-4.2508391732283464
11
4.3848425196850389
21
-4.2535433070866144
0
LINE
8
BLACK
6
CONTINUOUS
10
4.3848425196850389
20
-4.2535433070866144
11
4.3848425196850389
21
-4.3401574803149607
0
LINE
8
BLACK
6
CONTINUOUS
10
4.3848425196850389
20
-4.3401574803149607
11
4.3845287795275594
21
-4.3428616141732279
0
LINE
8
BLACK
6
CONTINUOUS
10
4.3845287795275594
20
-4.3428616141732279
11
4.3827755511811022
21
-4.3468323228346453
0
LINE
8
BLACK
6
CONTINUOUS
10
4.3827755511811022
20
-4.3468323228346453
11
4.3797063385826771
21
-4.3499015354330703
0
LINE
8
BLACK
6
CONTINUOUS
10
4.3797063385826771
20
-4.3499015354330703
11
4.3757356299212598
21
-4.3516547637795275
0
LINE
8
BLACK
6
CONTINUOUS
10
4.3757356299212598
20
-4.3516547637795275
11
4.3730314960629917
21
-4.351968503937008
0
LINE
8
BLACK
6
CONTINUOUS
10
4.3730314960629917
20
-4.351968503937008
11
4.353346456692913
21
-4.351968503937008
0
LINE
8
BLACK
6
CONTINUOUS
10
4.353346456692913
20
-4.351968503937008
11
4.3506423228346458
21
-4.3516547637795275
0
LINE
8
BLACK
6
CONTINUOUS
10
4.3506423228346458
20
-4.3516547637795275
11
4.3466716141732284
21
-4.3499015354330703
0
LINE
8
BLACK
6
CONTINUOUS
10
4.3466716141732284
20
-4.3499015354330703
11
4.3436024015748034
21
-4.3468323228346453
0
LINE
8
BLACK
6
CONTINUOUS
10
4.3436024015748034
20
-4.3468323228346453
11
4.3418491732283462
21
-4.3428616141732279
0
LINE
8
BLACK
6
CONTINUOUS
10
4.3418491732283462
20
-4.3428616141732279
11
4.3415354330708658
21
-4.3401574803149607
0
LINE
8
BLACK
6
CONTINUOUS
10
4.3415354330708658
20
-4.3401574803149607
11
4.3415354330708658
21
-4.2535433070866144
0
LINE
8
BLACK
6
CONTINUOUS
10
4.3415354330708658
20
-4.2535433070866144
11
4.3418491732283462
21
-4.2508391732283464
0
LINE
8
BLACK
6
CONTINUOUS
10
4.3418491732283462
20
-4.2508391732283464
11
4.3436024015748034
21
-4.246868464566929
0
LINE
8
BLACK
6
CONTINUOUS
10
4.3436024015748034
20
-4.246868464566929
11
4.3466716141732284
21
-4.2437992519685039
0
LINE
8
BLACK
6
CONTINUOUS
10
4.3466716141732284
20
-4.2437992519685039
11
4.3506423228346458
21
-4.2420460236220467
0
LINE
8
BLACK
6
CONTINUOUS
10
4.3506423228346458
20
-4.2420460236220467
11
4.353346456692913
21
-4.2417322834645672
0
LINE
8
BLACK
6
CONTINUOUS
10
4.353346456692913
20
-4.2417322834645672
11
4.3730314960629917
21
-4.2417322834645672
0
LINE
8
BLACK
6
CONTINUOUS
10
4.3730314960629917
20
-4.2417322834645672
11
4.3757356299212598
21
-4.2420460236220467
0
LINE
8
BLACK
6
CONTINUOUS
10
4.9643183070866144
20
-4.2420460236220467
11
4.9682890157480317
21
-4.2437992519685039
0
LINE
8
BLACK
6
CONTINUOUS
10
4.9682890157480317
20
-4.2437992519685039
11
4.9713582283464568
21
-4.246868464566929
0
LINE
8
BLACK
6
CONTINUOUS
10
4.9713582283464568
20
-4.246868464566929
11
4.9731114566929131
21
-4.2508391732283464
0
LINE
8
BLACK
6
CONTINUOUS
10
4.9731114566929131
20
-4.2508391732283464
11
4.9734251968503935
21
-4.2535433070866144
0
LINE
8
BLACK
6
CONTINUOUS
10
4.9734251968503935
20
-4.2535433070866144
11
4.9734251968503935
21
-4.3401574803149607
0
LINE
8
BLACK
6
CONTINUOUS
10
4.9734251968503935
20
-4.3401574803149607
11
4.9731114566929131
21
-4.3428616141732279
0
LINE
8
BLACK
6
CONTINUOUS
10
4.9731114566929131
20
-4.3428616141732279
11
4.9713582283464568
21
-4.3468323228346453
0
LINE
8
BLACK
6
CONTINUOUS
10
4.9713582283464568
20
-4.3468323228346453
11
4.9682890157480317
21
-4.3499015354330703
0
LINE
8
BLACK
6
CONTINUOUS
10
4.9682890157480317
20
-4.3499015354330703
11
4.9643183070866144
21
-4.3516547637795275
0
LINE
8
BLACK
6
CONTINUOUS
10
4.9643183070866144
20
-4.3516547637795275
11
4.9616141732283463
21
-4.351968503937008
0
LINE
8
BLACK
6
CONTINUOUS
10
4.9616141732283463
20
-4.351968503937008
11
4.9419291338582676
21
-4.351968503937008
0
LINE
8
BLACK
6
CONTINUOUS
10
4.9419291338582676
20
-4.351968503937008
11
4.9392249999999995
21
-4.3516547637795275
0
LINE
8
BLACK
6
CONTINUOUS
10
4.9392249999999995
20
-4.3516547637795275
11
4.9352542913385822
21
-4.3499015354330703
0
LINE
8
BLACK
6
CONTINUOUS
10
4.9352542913385822
20
-4.3499015354330703
11
4.9321850787401571
21
-4.3468323228346453
0
LINE
8
BLACK
6
CONTINUOUS
10
4.9321850787401571
20
-4.3468323228346453
11
4.9304318503937008
21
-4.3428616141732279
0
LINE
8
BLACK
6
CONTINUOUS
10
4.9304318503937008
20
-4.3428616141732279
11
4.9301181102362204
21
-4.3401574803149607
0
LINE
8
BLACK
6
CONTINUOUS
10
4.9301181102362204
20
-4.3401574803149607
11
4.9301181102362204
21
-4.2535433070866144
0
LINE
8
BLACK
6
CONTINUOUS
10
4.9301181102362204
20
-4.2535433070866144
11
4.9304318503937008
21
-4.2508391732283464
0
LINE
8
BLACK
6
CONTINUOUS
10
4.9304318503937008
20
-4.2508391732283464
11
4.9321850787401571
21
-4.246868464566929
0
LINE
8
BLACK
6
CONTINUOUS
10
4.9321850787401571
20
-4.246868464566929
11
4.9352542913385822
21
-4.2437992519685039
0
LINE
8
BLACK
6
CONTINUOUS
10
4.9352542913385822
20
-4.2437992519685039
11
4.9392249999999995
21
-4.2420460236220467
0
LINE
8
BLACK
6
CONTINUOUS
10
4.9392249999999995
20
-4.2420460236220467
11
4.9419291338582676
21
-4.2417322834645672
0
LINE
8
BLACK
6
CONTINUOUS
10
4.9419291338582676
20
-4.2417322834645672
11
4.9616141732283463
21
-4.2417322834645672
0
LINE
8
BLACK
6
CONTINUOUS
10
4.9616141732283463
20
-4.2417322834645672
11
4.9643183070866144
21
-4.2420460236220467
0
LINE
8
BLACK
6
CONTINUOUS
10
5.0537080708661417
20
-4.2420460236220467
11
5.0576787795275591
21
-4.2437992519685039
0
LINE
8
BLACK
6
CONTINUOUS
10
5.0576787795275591
20
-4.2437992519685039
11
5.0607479921259841
21
-4.246868464566929
0
LINE
8
BLACK
6
CONTINUOUS
10
5.0607479921259841
20
-4.246868464566929
11
5.0625012204724404
21
-4.2508391732283464
0
LINE
8
BLACK
6
CONTINUOUS
10
5.0625012204724404
20
-4.2508391732283464
11
5.0628149606299209
21
-4.2535433070866144
0
LINE
8
BLACK
6
CONTINUOUS
10
5.0628149606299209
20
-4.2535433070866144
11
5.0628149606299209
21
-4.3401574803149607
0
LINE
8
BLACK
6
CONTINUOUS
10
5.0628149606299209
20
-4.3401574803149607
11
5.0625012204724404
21
-4.3428616141732279
0
LINE
8
BLACK
6
CONTINUOUS
10
5.0625012204724404
20
-4.3428616141732279
11
5.0607479921259841
21
-4.3468323228346453
0
LINE
8
BLACK
6
CONTINUOUS
10
5.0607479921259841
20
-4.3468323228346453
11
5.0576787795275591
21
-4.3499015354330703
0
LINE
8
BLACK
6
CONTINUOUS
10
5.0576787795275591
20
-4.3499015354330703
11
5.0537080708661417
21
-4.3516547637795275
0
LINE
8
BLACK
6
CONTINUOUS
10
5.0537080708661417
20
-4.3516547637795275
11
5.0510039370078736
21
-4.351968503937008
0
LINE
8
BLACK
6
CONTINUOUS
10
5.0510039370078736
20
-4.351968503937008
11
5.0313188976377949
21
-4.351968503937008
0
LINE
8
BLACK
6
CONTINUOUS
10
5.0313188976377949
20
-4.351968503937008
11
5.0286147637795278
21
-4.3516547637795275
0
LINE
8
BLACK
6
CONTINUOUS
10
5.0286147637795278
20
-4.3516547637795275
11
5.0246440551181104
21
-4.3499015354330703
0
LINE
8
BLACK
6
CONTINUOUS
10
5.0246440551181104
20
-4.3499015354330703
11
5.0215748425196853
21
-4.3468323228346453
0
LINE
8
BLACK
6
CONTINUOUS
10
5.0215748425196853
20
-4.3468323228346453
11
5.0198216141732281
21
-4.3428616141732279
0
LINE
8
BLACK
6
CONTINUOUS
10
5.0198216141732281
20
-4.3428616141732279
11
5.0195078740157477
21
-4.3401574803149607
0
LINE
8
BLACK
6
CONTINUOUS
10
5.0195078740157477
20
-4.3401574803149607
11
5.0195078740157477
21
-4.2535433070866144
0
LINE
8
BLACK
6
CONTINUOUS
10
5.0195078740157477
20
-4.2535433070866144
11
5.0198216141732281
21
-4.2508391732283464
0
LINE
8
BLACK
6
CONTINUOUS
10
5.0198216141732281
20
-4.2508391732283464
11
5.0215748425196853
21
-4.246868464566929
0
LINE
8
BLACK
6
CONTINUOUS
10
5.0215748425196853
20
-4.246868464566929
11
5.0246440551181104
21
-4.2437992519685039
0
LINE
8
BLACK
6
CONTINUOUS
10
5.0246440551181104
20
-4.2437992519685039
11
5.0286147637795278
21
-4.2420460236220467
0
LINE
8
BLACK
6
CONTINUOUS
10
5.0286147637795278
20
-4.2420460236220467
11
5.0313188976377949
21
-4.2417322834645672
0
LINE
8
BLACK
6
CONTINUOUS
10
5.0313188976377949
20
-4.2417322834645672
11
5.0510039370078736
21
-4.2417322834645672
0
LINE
8
BLACK
6
CONTINUOUS
10
5.0510039370078736
20
-4.2417322834645672
11
5.0537080708661417
21
-4.2420460236220467
0
LINE
8
BLACK
6
CONTINUOUS
10
5.4454403543307084
20
-4.2420460236220467
11
5.4494110629921257
21
-4.2437992519685039
0
LINE
8
BLACK
6
CONTINUOUS
10
5.4494110629921257
20
-4.2437992519685039
11
5.4524802755905508
21
-4.246868464566929
0
LINE
8
BLACK
6
CONTINUOUS
10
5.4524802755905508
20
-4.246868464566929
11
5.454233503937008
21
-4.2508391732283464
0
LINE
8
BLACK
6
CONTINUOUS
10
5.454233503937008
20
-4.2508391732283464
11
5.4545472440944884
21
-4.2535433070866144
0
LINE
8
BLACK
6
CONTINUOUS
10
5.4545472440944884
20
-4.2535433070866144
11
5.4545472440944884
21
-4.3401574803149607
0
LINE
8
BLACK
6
CONTINUOUS
10
5.4545472440944884
20
-4.3401574803149607
11
5.454233503937008
21
-4.3428616141732279
0
LINE
8
BLACK
6
CONTINUOUS
10
5.454233503937008
20
-4.3428616141732279
11
5.4524802755905508
21
-4.3468323228346453
0
LINE
8
BLACK
6
CONTINUOUS
10
5.4524802755905508
20
-4.3468323228346453
11
5.4494110629921257
21
-4.3499015354330703
0
LINE
8
BLACK
6
CONTINUOUS
10
5.4494110629921257
20
-4.3499015354330703
11
5.4454403543307084
21
-4.3516547637795275
0
LINE
8
BLACK
6
CONTINUOUS
10
5.4454403543307084
20
-4.3516547637795275
11
5.4427362204724412
21
-4.351968503937008
0
LINE
8
BLACK
6
CONTINUOUS
10
5.4427362204724412
20
-4.351968503937008
11
5.4230511811023625
21
-4.351968503937008
0
LINE
8
BLACK
6
CONTINUOUS
10
5.4230511811023625
20
-4.351968503937008
11
5.4203470472440944
21
-4.3516547637795275
0
LINE
8
BLACK
6
CONTINUOUS
10
5.4203470472440944
20
-4.3516547637795275
11
5.4163763385826771
21
-4.3499015354330703
0
LINE
8
BLACK
6
CONTINUOUS
10
5.4163763385826771
20
-4.3499015354330703
11
5.413307125984252
21
-4.3468323228346453
0
LINE
8
BLACK
6
CONTINUOUS
10
5.413307125984252
20
-4.3468323228346453
11
5.4115538976377948
21
-4.3428616141732279
0
LINE
8
BLACK
6
CONTINUOUS
10
5.4115538976377948
20
-4.3428616141732279
11
5.4112401574803144
21
-4.3401574803149607
0
LINE
8
BLACK
6
CONTINUOUS
10
5.4112401574803144
20
-4.3401574803149607
11
5.4112401574803144
21
-4.2535433070866144
0
LINE
8
BLACK
6
CONTINUOUS
10
5.4112401574803144
20
-4.2535433070866144
11
5.4115538976377948
21
-4.2508391732283464
0
LINE
8
BLACK
6
CONTINUOUS
10
5.4115538976377948
20
-4.2508391732283464
11
5.413307125984252
21
-4.246868464566929
0
LINE
8
BLACK
6
CONTINUOUS
10
5.413307125984252
20
-4.246868464566929
11
5.4163763385826771
21
-4.2437992519685039
0
LINE
8
BLACK
6
CONTINUOUS
10
5.4163763385826771
20
-4.2437992519685039
11
5.4203470472440944
21
-4.2420460236220467
0
LINE
8
BLACK
6
CONTINUOUS
10
5.4203470472440944
20
-4.2420460236220467
11
5.4230511811023625
21
-4.2417322834645672
0
LINE
8
BLACK
6
CONTINUOUS
10
5.4230511811023625
20
-4.2417322834645672
11
5.4427362204724412
21
-4.2417322834645672
0
LINE
8
BLACK
6
CONTINUOUS
10
5.4427362204724412
20
-4.2417322834645672
11
5.4454403543307084
21
-4.2420460236220467
0
LINE
8
BLACK
6
CONTINUOUS
10
5.5346332677165355
20
-4.2420460236220467
11
5.5386039763779529
21
-4.2437992519685039
0
LINE
8
BLACK
6
CONTINUOUS
10
5.5386039763779529
20
-4.2437992519685039
11
5.541673188976378
21
-4.246868464566929
0
LINE
8
BLACK
6
CONTINUOUS
10
5.541673188976378
20
-4.246868464566929
11
5.5434264173228343
21
-4.2508391732283464
0
LINE
8
BLACK
6
CONTINUOUS
10
5.5434264173228343
20
-4.2508391732283464
11
5.5437401574803147
21
-4.2535433070866144
0
LINE
8
BLACK
6
CONTINUOUS
10
5.5437401574803147
20
-4.2535433070866144
11
5.5437401574803147
21
-4.3401574803149607
0
LINE
8
BLACK
6
CONTINUOUS
10
5.5437401574803147
20
-4.3401574803149607
11
5.5434264173228343
21
-4.3428616141732279
0
LINE
8
BLACK
6
CONTINUOUS
10
5.5434264173228343
20
-4.3428616141732279
11
5.541673188976378
21
-4.3468323228346453
0
LINE
8
BLACK
6
CONTINUOUS
10
5.541673188976378
20
-4.3468323228346453
11
5.5386039763779529
21
-4.3499015354330703
0
LINE
8
BLACK
6
CONTINUOUS
10
5.5386039763779529
20
-4.3499015354330703
11
5.5346332677165355
21
-4.3516547637795275
0
LINE
8
BLACK
6
CONTINUOUS
10
5.5346332677165355
20
-4.3516547637795275
11
5.5319291338582675
21
-4.351968503937008
0
LINE
8
BLACK
6
CONTINUOUS
10
5.5319291338582675
20
-4.351968503937008
11
5.5122440944881888
21
-4.351968503937008
0
LINE
8
BLACK
6
CONTINUOUS
10
5.5122440944881888
20
-4.351968503937008
11
5.5095399606299216
21
-4.3516547637795275
0
LINE
8
BLACK
6
CONTINUOUS
10
5.5095399606299216
20
-4.3516547637795275
11
5.5055692519685042
21
-4.3499015354330703
0
LINE
8
BLACK
6
CONTINUOUS
10
5.5055692519685042
20
-4.3499015354330703
11
5.5025000393700783
21
-4.3468323228346453
0
LINE
8
BLACK
6
CONTINUOUS
10
5.5025000393700783
20
-4.3468323228346453
11
5.500746811023622
21
-4.3428616141732279
0
LINE
8
BLACK
6
CONTINUOUS
10
5.500746811023622
20
-4.3428616141732279
11
5.5004330708661415
21
-4.3401574803149607
0
LINE
8
BLACK
6
CONTINUOUS
10
5.5004330708661415
20
-4.3401574803149607
11
5.5004330708661415
21
-4.2535433070866144
0
LINE
8
BLACK
6
CONTINUOUS
10
5.5004330708661415
20
-4.2535433070866144
11
5.500746811023622
21
-4.2508391732283464
0
LINE
8
BLACK
6
CONTINUOUS
10
5.500746811023622
20
-4.2508391732283464
11
5.5025000393700783
21
-4.246868464566929
0
LINE
8
BLACK
6
CONTINUOUS
10
5.5025000393700783
20
-4.246868464566929
11
5.5055692519685042
21
-4.2437992519685039
0
LINE
8
BLACK
6
CONTINUOUS
10
5.5055692519685042
20
-4.2437992519685039
11
5.5095399606299216
21
-4.2420460236220467
0
LINE
8
BLACK
6
CONTINUOUS
10
5.5095399606299216
20
-4.2420460236220467
11
5.5122440944881888
21
-4.2417322834645672
0
LINE
8
BLACK
6
CONTINUOUS
10
5.5122440944881888
20
-4.2417322834645672
11
5.5319291338582675
21
-4.2417322834645672
0
LINE
8
BLACK
6
CONTINUOUS
10
5.5319291338582675
20
-4.2417322834645672
11
5.5346332677165355
21
-4.2420460236220467
0
LINE
8
BLACK
6
CONTINUOUS
10
5.9755781496062994
20
-4.2420460236220467
11
5.9795488582677168
21
-4.2437992519685039
0
LINE
8
BLACK
6
CONTINUOUS
10
5.9795488582677168
20
-4.2437992519685039
11
5.9826180708661418
21
-4.246868464566929
0
LINE
8
BLACK
6
CONTINUOUS
10
5.9826180708661418
20
-4.246868464566929
11
5.9843712992125981
21
-4.2508391732283464
0
LINE
8
BLACK
6
CONTINUOUS
10
5.9843712992125981
20
-4.2508391732283464
11
5.9846850393700786
21
-4.2535433070866144
0
LINE
8
BLACK
6
CONTINUOUS
10
5.9846850393700786
20
-4.2535433070866144
11
5.9846850393700786
21
-4.3401574803149607
0
LINE
8
BLACK
6
CONTINUOUS
10
5.9846850393700786
20
-4.3401574803149607
11
5.9843712992125981
21
-4.3428616141732279
0
LINE
8
BLACK
6
CONTINUOUS
10
5.9843712992125981
20
-4.3428616141732279
11
5.9826180708661418
21
-4.3468323228346453
0
LINE
8
BLACK
6
CONTINUOUS
10
5.9826180708661418
20
-4.3468323228346453
11
5.9795488582677168
21
-4.3499015354330703
0
LINE
8
BLACK
6
CONTINUOUS
10
5.9795488582677168
20
-4.3499015354330703
11
5.9755781496062994
21
-4.3516547637795275
0
LINE
8
BLACK
6
CONTINUOUS
10
5.9755781496062994
20
-4.3516547637795275
11
5.9728740157480313
21
-4.351968503937008
0
LINE
8
BLACK
6
CONTINUOUS
10
5.9728740157480313
20
-4.351968503937008
11
5.9531889763779526
21
-4.351968503937008
0
LINE
8
BLACK
6
CONTINUOUS
10
5.9531889763779526
20
-4.351968503937008
11
5.9504848425196846
21
-4.3516547637795275
0
LINE
8
BLACK
6
CONTINUOUS
10
5.9504848425196846
20
-4.3516547637795275
11
5.9465141338582672
21
-4.3499015354330703
0
LINE
8
BLACK
6
CONTINUOUS
10
5.9465141338582672
20
-4.3499015354330703
11
5.9434449212598421
21
-4.3468323228346453
0
LINE
8
BLACK
6
CONTINUOUS
10
5.9434449212598421
20
-4.3468323228346453
11
5.9416916929133858
21
-4.3428616141732279
0
LINE
8
BLACK
6
CONTINUOUS
10
5.9416916929133858
20
-4.3428616141732279
11
5.9413779527559054
21
-4.3401574803149607
0
LINE
8
BLACK
6
CONTINUOUS
10
5.9413779527559054
20
-4.3401574803149607
11
5.9413779527559054
21
-4.2535433070866144
0
LINE
8
BLACK
6
CONTINUOUS
10
5.9413779527559054
20
-4.2535433070866144
11
5.9416916929133858
21
-4.2508391732283464
0
LINE
8
BLACK
6
CONTINUOUS
10
5.9416916929133858
20
-4.2508391732283464
11
5.9434449212598421
21
-4.246868464566929
0
LINE
8
BLACK
6
CONTINUOUS
10
5.9434449212598421
20
-4.246868464566929
11
5.9465141338582672
21
-4.2437992519685039
0
LINE
8
BLACK
6
CONTINUOUS
10
5.9465141338582672
20
-4.2437992519685039
11
5.9504848425196846
21
-4.2420460236220467
0
LINE
8
BLACK
6
CONTINUOUS
10
5.9504848425196846
20
-4.2420460236220467
11
5.9531889763779526
21
-4.2417322834645672
0
LINE
8
BLACK
6
CONTINUOUS
10
5.9531889763779526
20
-4.2417322834645672
11
5.9728740157480313
21
-4.2417322834645672
0
LINE
8
BLACK
6
CONTINUOUS
10
5.9728740157480313
20
-4.2417322834645672
11
5.9755781496062994
21
-4.2420460236220467
0
LINE
8
BLACK
6
CONTINUOUS
10
6.0647710629921256
20
-4.2420460236220467
11
6.068741771653543
21
-4.2437992519685039
0
LINE
8
BLACK
6
CONTINUOUS
10
6.068741771653543
20
-4.2437992519685039
11
6.0718109842519681
21
-4.246868464566929
0
LINE
8
BLACK
6
CONTINUOUS
10
6.0718109842519681
20
-4.246868464566929
11
6.0735642125984253
21
-4.2508391732283464
0
LINE
8
BLACK
6
CONTINUOUS
10
6.0735642125984253
20
-4.2508391732283464
11
6.0738779527559057
21
-4.2535433070866144
0
LINE
8
BLACK
6
CONTINUOUS
10
6.0738779527559057
20
-4.2535433070866144
11
6.0738779527559057
21
-4.3401574803149607
0
LINE
8
BLACK
6
CONTINUOUS
10
6.0738779527559057
20
-4.3401574803149607
11
6.0735642125984253
21
-4.3428616141732279
0
LINE
8
BLACK
6
CONTINUOUS
10
6.0735642125984253
20
-4.3428616141732279
11
6.0718109842519681
21
-4.3468323228346453
0
LINE
8
BLACK
6
CONTINUOUS
10
6.0718109842519681
20
-4.3468323228346453
11
6.068741771653543
21
-4.3499015354330703
0
LINE
8
BLACK
6
CONTINUOUS
10
6.068741771653543
20
-4.3499015354330703
11
6.0647710629921256
21
-4.3516547637795275
0
LINE
8
BLACK
6
CONTINUOUS
10
6.0647710629921256
20
-4.3516547637795275
11
6.0620669291338585
21
-4.351968503937008
0
LINE
8
BLACK
6
CONTINUOUS
10
6.0620669291338585
20
-4.351968503937008
11
6.0423818897637798
21
-4.351968503937008
0
LINE
8
BLACK
6
CONTINUOUS
10
6.0423818897637798
20
-4.351968503937008
11
6.0396777559055117
21
-4.3516547637795275
0
LINE
8
BLACK
6
CONTINUOUS
10
6.0396777559055117
20
-4.3516547637795275
11
6.0357070472440943
21
-4.3499015354330703
0
LINE
8
BLACK
6
CONTINUOUS
10
6.0357070472440943
20
-4.3499015354330703
11
6.0326378346456693
21
-4.3468323228346453
0
LINE
8
BLACK
6
CONTINUOUS
10
6.0326378346456693
20
-4.3468323228346453
11
6.0308846062992121
21
-4.3428616141732279
0
LINE
8
BLACK
6
CONTINUOUS
10
6.0308846062992121
20
-4.3428616141732279
11
6.0305708661417325
21
-4.3401574803149607
0
LINE
8
BLACK
6
CONTINUOUS
10
6.0305708661417325
20
-4.3401574803149607
11
6.0305708661417325
21
-4.2535433070866144
0
LINE
8
BLACK
6
CONTINUOUS
10
6.0305708661417325
20
-4.2535433070866144
11
6.0308846062992121
21
-4.2508391732283464
0
LINE
8
BLACK
6
CONTINUOUS
10
6.0308846062992121
20
-4.2508391732283464
11
6.0326378346456693
21
-4.246868464566929
0
LINE
8
BLACK
6
CONTINUOUS
10
6.0326378346456693
20
-4.246868464566929
11
6.0357070472440943
21
-4.2437992519685039
0
LINE
8
BLACK
6
CONTINUOUS
10
6.0357070472440943
20
-4.2437992519685039
11
6.0396777559055117
21
-4.2420460236220467
0
LINE
8
BLACK
6
CONTINUOUS
10
6.0396777559055117
20
-4.2420460236220467
11
6.0423818897637798
21
-4.2417322834645672
0
LINE
8
BLACK
6
CONTINUOUS
10
6.0423818897637798
20
-4.2417322834645672
11
6.0620669291338585
21
-4.2417322834645672
0
LINE
8
BLACK
6
CONTINUOUS
10
6.0620669291338585
20
-4.2417322834645672
11
6.0647710629921256
21
-4.2420460236220467
0
LINE
8
BLACK
6
CONTINUOUS
10
6.4565033464566923
20
-4.2420460236220467
11
6.4604740551181097
21
-4.2437992519685039
0
LINE
8
BLACK
6
CONTINUOUS
10
6.4604740551181097
20
-4.2437992519685039
11
6.4635432677165356
21
-4.246868464566929
0
LINE
8
BLACK
6
CONTINUOUS
10
6.4635432677165356
20
-4.246868464566929
11
6.4652964960629919
21
-4.2508391732283464
0
LINE
8
BLACK
6
CONTINUOUS
10
6.4652964960629919
20
-4.2508391732283464
11
6.4656102362204724
21
-4.2535433070866144
0
LINE
8
BLACK
6
CONTINUOUS
10
6.4656102362204724
20
-4.2535433070866144
11
6.4656102362204724
21
-4.3401574803149607
0
LINE
8
BLACK
6
CONTINUOUS
10
6.4656102362204724
20
-4.3401574803149607
11
6.4652964960629919
21
-4.3428616141732279
0
LINE
8
BLACK
6
CONTINUOUS
10
6.4652964960629919
20
-4.3428616141732279
11
6.4635432677165356
21
-4.3468323228346453
0
LINE
8
BLACK
6
CONTINUOUS
10
6.4635432677165356
20
-4.3468323228346453
11
6.4604740551181097
21
-4.3499015354330703
0
LINE
8
BLACK
6
CONTINUOUS
10
6.4604740551181097
20
-4.3499015354330703
11
6.4565033464566923
21
-4.3516547637795275
0
LINE
8
BLACK
6
CONTINUOUS
10
6.4565033464566923
20
-4.3516547637795275
11
6.4537992125984252
21
-4.351968503937008
0
LINE
8
BLACK
6
CONTINUOUS
10
6.4537992125984252
20
-4.351968503937008
11
6.4341141732283464
21
-4.351968503937008
0
LINE
8
BLACK
6
CONTINUOUS
10
6.4341141732283464
20
-4.351968503937008
11
6.4314100393700784
21
-4.3516547637795275
0
LINE
8
BLACK
6
CONTINUOUS
10
6.4314100393700784
20
-4.3516547637795275
11
6.427439330708661
21
-4.3499015354330703
0
LINE
8
BLACK
6
CONTINUOUS
10
6.427439330708661
20
-4.3499015354330703
11
6.4243701181102359
21
-4.3468323228346453
0
LINE
8
BLACK
6
CONTINUOUS
10
6.4243701181102359
20
-4.3468323228346453
11
6.4226168897637796
21
-4.3428616141732279
0
LINE
8
BLACK
6
CONTINUOUS
10
6.4226168897637796
20
-4.3428616141732279
11
6.4223031496062992
21
-4.3401574803149607
0
LINE
8
BLACK
6
CONTINUOUS
10
6.4223031496062992
20
-4.3401574803149607
11
6.4223031496062992
21
-4.2535433070866144
0
LINE
8
BLACK
6
CONTINUOUS
10
6.4223031496062992
20
-4.2535433070866144
11
6.4226168897637796
21
-4.2508391732283464
0
LINE
8
BLACK
6
CONTINUOUS
10
6.4226168897637796
20
-4.2508391732283464
11
6.4243701181102359
21
-4.246868464566929
0
LINE
8
BLACK
6
CONTINUOUS
10
6.4243701181102359
20
-4.246868464566929
11
6.427439330708661
21
-4.2437992519685039
0
LINE
8
BLACK
6
CONTINUOUS
10
6.427439330708661
20
-4.2437992519685039
11
6.4314100393700784
21
-4.2420460236220467
0
LINE
8
BLACK
6
CONTINUOUS
10
6.4314100393700784
20
-4.2420460236220467
11
6.4341141732283464
21
-4.2417322834645672
0
LINE
8
BLACK
6
CONTINUOUS
10
6.4341141732283464
20
-4.2417322834645672
11
6.4537992125984252
21
-4.2417322834645672
0
LINE
8
BLACK
6
CONTINUOUS
10
6.4537992125984252
20
-4.2417322834645672
11
6.4565033464566923
21
-4.2420460236220467
0
LINE
8
BLACK
6
CONTINUOUS
10
6.5458931102362206
20
-4.2420460236220467
11
6.5498638188976379
21
-4.2437992519685039
0
LINE
8
BLACK
6
CONTINUOUS
10
6.5498638188976379
20
-4.2437992519685039
11
6.552933031496063
21
-4.246868464566929
0
LINE
8
BLACK
6
CONTINUOUS
10
6.552933031496063
20
-4.246868464566929
11
6.5546862598425193
21
-4.2508391732283464
0
LINE
8
BLACK
6
CONTINUOUS
10
6.5546862598425193
20
-4.2508391732283464
11
6.5549999999999997
21
-4.2535433070866144
0
LINE
8
BLACK
6
CONTINUOUS
10
6.5549999999999997
20
-4.2535433070866144
11
6.5549999999999997
21
-4.3401574803149607
0
LINE
8
BLACK
6
CONTINUOUS
10
6.5549999999999997
20
-4.3401574803149607
11
6.5546862598425193
21
-4.3428616141732279
0
LINE
8
BLACK
6
CONTINUOUS
10
6.5546862598425193
20
-4.3428616141732279
11
6.552933031496063
21
-4.3468323228346453
0
LINE
8
BLACK
6
CONTINUOUS
10
6.552933031496063
20
-4.3468323228346453
11
6.5498638188976379
21
-4.3499015354330703
0
LINE
8
BLACK
6
CONTINUOUS
10
6.5498638188976379
20
-4.3499015354330703
11
6.5458931102362206
21
-4.3516547637795275
0
LINE
8
BLACK
6
CONTINUOUS
10
6.5458931102362206
20
-4.3516547637795275
11
6.5431889763779525
21
-4.351968503937008
0
LINE
8
BLACK
6
CONTINUOUS
10
6.5431889763779525
20
-4.351968503937008
11
6.5235039370078738
21
-4.351968503937008
0
LINE
8
BLACK
6
CONTINUOUS
10
6.5235039370078738
20
-4.351968503937008
11
6.5207998031496057
21
-4.3516547637795275
0
LINE
8
BLACK
6
CONTINUOUS
10
6.5207998031496057
20
-4.3516547637795275
11
6.5168290944881893
21
-4.3499015354330703
0
LINE
8
BLACK
6
CONTINUOUS
10
6.5168290944881893
20
-4.3499015354330703
11
6.5137598818897633
21
-4.3468323228346453
0
LINE
8
BLACK
6
CONTINUOUS
10
6.5137598818897633
20
-4.3468323228346453
11
6.512006653543307
21
-4.3428616141732279
0
LINE
8
BLACK
6
CONTINUOUS
10
6.512006653543307
20
-4.3428616141732279
11
6.5116929133858266
21
-4.3401574803149607
0
LINE
8
BLACK
6
CONTINUOUS
10
6.5116929133858266
20
-4.3401574803149607
11
6.5116929133858266
21
-4.2535433070866144
0
LINE
8
BLACK
6
CONTINUOUS
10
6.5116929133858266
20
-4.2535433070866144
11
6.512006653543307
21
-4.2508391732283464
0
LINE
8
BLACK
6
CONTINUOUS
10
6.512006653543307
20
-4.2508391732283464
11
6.5137598818897633
21
-4.246868464566929
0
LINE
8
BLACK
6
CONTINUOUS
10
6.5137598818897633
20
-4.246868464566929
11
6.5168290944881893
21
-4.2437992519685039
0
LINE
8
BLACK
6
CONTINUOUS
10
6.5168290944881893
20
-4.2437992519685039
11
6.5207998031496057
21
-4.2420460236220467
0
LINE
8
BLACK
6
CONTINUOUS
10
6.5207998031496057
20
-4.2420460236220467
11
6.5235039370078738
21
-4.2417322834645672
0
LINE
8
BLACK
6
CONTINUOUS
10
6.5235039370078738
20
-4.2417322834645672
11
6.5431889763779525
21
-4.2417322834645672
0
LINE
8
BLACK
6
CONTINUOUS
10
6.5431889763779525
20
-4.2417322834645672
11
6.5458931102362206
21
-4.2420460236220467
0
LINE
8
BLACK
6
CONTINUOUS
10
6.8392001968503937
20
-4.2420460236220467
11
6.8431709055118111
21
-4.2437992519685039
0
LINE
8
BLACK
6
CONTINUOUS
10
6.8431709055118111
20
-4.2437992519685039
11
6.8462401181102361
21
-4.246868464566929
0
LINE
8
BLACK
6
CONTINUOUS
10
6.8462401181102361
20
-4.246868464566929
11
6.8479933464566924
21
-4.2508391732283464
0
LINE
8
BLACK
6
CONTINUOUS
10
6.8479933464566924
20
-4.2508391732283464
11
6.8483070866141729
21
-4.2535433070866144
0
LINE
8
BLACK
6
CONTINUOUS
10
6.8483070866141729
20
-4.2535433070866144
11
6.8483070866141729
21
-4.3401574803149607
0
LINE
8
BLACK
6
CONTINUOUS
10
6.8483070866141729
20
-4.3401574803149607
11
6.8479933464566924
21
-4.3428616141732279
0
LINE
8
BLACK
6
CONTINUOUS
10
6.8479933464566924
20
-4.3428616141732279
11
6.8462401181102361
21
-4.3468323228346453
0
LINE
8
BLACK
6
CONTINUOUS
10
6.8462401181102361
20
-4.3468323228346453
11
6.8431709055118111
21
-4.3499015354330703
0
LINE
8
BLACK
6
CONTINUOUS
10
6.8431709055118111
20
-4.3499015354330703
11
6.8392001968503937
21
-4.3516547637795275
0
LINE
8
BLACK
6
CONTINUOUS
10
6.8392001968503937
20
-4.3516547637795275
11
6.8364960629921256
21
-4.351968503937008
0
LINE
8
BLACK
6
CONTINUOUS
10
6.8364960629921256
20
-4.351968503937008
11
6.8168110236220469
21
-4.351968503937008
0
LINE
8
BLACK
6
CONTINUOUS
10
6.8168110236220469
20
-4.351968503937008
11
6.8141068897637798
21
-4.3516547637795275
0
LINE
8
BLACK
6
CONTINUOUS
10
6.8141068897637798
20
-4.3516547637795275
11
6.8101361811023624
21
-4.3499015354330703
0
LINE
8
BLACK
6
CONTINUOUS
10
6.8101361811023624
20
-4.3499015354330703
11
6.8070669685039364
21
-4.3468323228346453
0
LINE
8
BLACK
6
CONTINUOUS
10
6.8070669685039364
20
-4.3468323228346453
11
6.8053137401574801
21
-4.3428616141732279
0
LINE
8
BLACK
6
CONTINUOUS
10
6.8053137401574801
20
-4.3428616141732279
11
6.8049999999999997
21
-4.3401574803149607
0
LINE
8
BLACK
6
CONTINUOUS
10
6.8049999999999997
20
-4.3401574803149607
11
6.8049999999999997
21
-4.2535433070866144
0
LINE
8
BLACK
6
CONTINUOUS
10
6.8049999999999997
20
-4.2535433070866144
11
6.8053137401574801
21
-4.2508391732283464
0
LINE
8
BLACK
6
CONTINUOUS
10
6.8053137401574801
20
-4.2508391732283464
11
6.8070669685039364
21
-4.246868464566929
0
LINE
8
BLACK
6
CONTINUOUS
10
6.8070669685039364
20
-4.246868464566929
11
6.8101361811023624
21
-4.2437992519685039
0
LINE
8
BLACK
6
CONTINUOUS
10
6.8101361811023624
20
-4.2437992519685039
11
6.8141068897637798
21
-4.2420460236220467
0
LINE
8
BLACK
6
CONTINUOUS
10
6.8141068897637798
20
-4.2420460236220467
11
6.8168110236220469
21
-4.2417322834645672
0
LINE
8
BLACK
6
CONTINUOUS
10
6.8168110236220469
20
-4.2417322834645672
11
6.8364960629921256
21
-4.2417322834645672
0
LINE
8
BLACK
6
CONTINUOUS
10
6.8364960629921256
20
-4.2417322834645672
11
6.8392001968503937
21
-4.2420460236220467
0
CIRCLE
8
BLACK
10
4.4424665354330708
20
-4.6279311023622043
40
0.0068897637795276
0
CIRCLE
8
BLACK
10
4.5424665354330704
20
-4.6279311023622043
40
0.0068897637795276
0
CIRCLE
8
BLACK
10
4.642466535433071
20
-4.6279311023622043
40
0.0068897637795276
0
CIRCLE
8
BLACK
10
4.7424665354330706
20
-4.6279311023622043
40
0.0068897637795276
0
CIRCLE
8
BLACK
10
4.8424665354330712
20
-4.6279311023622043
40
0.0068897637795276
0
CIRCLE
8
BLACK
10
4.9424665354330708
20
-4.6279311023622043
40
0.0068897637795276
0
CIRCLE
8
BLACK
10
5.0424665354330704
20
-4.6279311023622043
40
0.0068897637795276
0
CIRCLE
8
BLACK
10
5.142466535433071
20
-4.6279311023622043
40
0.0068897637795276
0
CIRCLE
8
BLACK
10
5.8424665354330712
20
-4.6279311023622043
40
0.0068897637795276
0
CIRCLE
8
BLACK
10
5.9424665354330708
20
-4.6279311023622043
40
0.0068897637795276
0
CIRCLE
8
BLACK
10
6.0424665354330704
20
-4.6279311023622043
40
0.0068897637795276
0
CIRCLE
8
BLACK
10
6.142466535433071
20
-4.6279311023622043
40
0.0068897637795276
0
CIRCLE
8
BLACK
10
6.2424665354330706
20
-4.6279311023622043
40
0.0068897637795276
0
CIRCLE
8
BLACK
10
6.3424665354330712
20
-4.6279311023622043
40
0.0068897637795276
0
CIRCLE
8
BLACK
10
6.4424665354330708
20
-4.6279311023622043
40
0.0068897637795276
0
CIRCLE
8
BLACK
10
6.5424665354330704
20
-4.6279311023622043
40
0.0068897637795276
0
CIRCLE
8
BLACK
10
6.642466535433071
20
-4.6279311023622043
40
0.0068897637795276
0
CIRCLE
8
BLACK
10
6.7424665354330706
20
-4.6279311023622043
40
0.0068897637795276
0
CIRCLE
8
BLACK
10
5.5800000000000001
20
-4.6626377952755904
40
0.0068897637795276
0
CIRCLE
8
BLACK
10
5.4799999999999995
20
-4.6626377952755904
40
0.0068897637795276
0
CIRCLE
8
BLACK
10
5.3799999999999999
20
-4.6626377952755904
40
0.0068897637795276
0
CIRCLE
8
WHITE
10
4.4424665354330708
20
-4.6279311023622043
40
0.0068897637795276
0
CIRCLE
8
WHITE
10
4.5424665354330704
20
-4.6279311023622043
40
0.0068897637795276
0
CIRCLE
8
WHITE
10
4.642466535433071
20
-4.6279311023622043
40
0.0068897637795276
0
CIRCLE
8
WHITE
10
4.7424665354330706
20
-4.6279311023622043
40
0.0068897637795276
0
CIRCLE
8
WHITE
10
4.8424665354330712
20
-4.6279311023622043
40
0.0068897637795276
0
CIRCLE
8
WHITE
10
4.9424665354330708
20
-4.6279311023622043
40
0.0068897637795276
0
CIRCLE
8
WHITE
10
5.0424665354330704
20
-4.6279311023622043
40
0.0068897637795276
0
CIRCLE
8
WHITE
10
5.142466535433071
20
-4.6279311023622043
40
0.0068897637795276
0
CIRCLE
8
WHITE
10
5.8424665354330712
20
-4.6279311023622043
40
0.0068897637795276
0
CIRCLE
8
WHITE
10
5.9424665354330708
20
-4.6279311023622043
40
0.0068897637795276
0
CIRCLE
8
WHITE
10
6.0424665354330704
20
-4.6279311023622043
40
0.0068897637795276
0
CIRCLE
8
WHITE
10
6.142466535433071
20
-4.6279311023622043
40
0.0068897637795276
0
CIRCLE
8
WHITE
10
6.2424665354330706
20
-4.6279311023622043
40
0.0068897637795276
0
CIRCLE
8
WHITE
10
6.3424665354330712
20
-4.6279311023622043
40
0.0068897637795276
0
CIRCLE
8
WHITE
10
6.4424665354330708
20
-4.6279311023622043
40
0.0068897637795276
0
CIRCLE
8
WHITE
10
6.5424665354330704
20
-4.6279311023622043
40
0.0068897637795276
0
CIRCLE
8
WHITE
10
6.642466535433071
20
-4.6279311023622043
40
0.0068897637795276
0
CIRCLE
8
WHITE
10
6.7424665354330706
20
-4.6279311023622043
40
0.0068897637795276
0
CIRCLE
8
WHITE
10
5.5800000000000001
20
-4.6626377952755904
40
0.0068897637795276
0
CIRCLE
8
WHITE
10
5.4799999999999995
20
-4.6626377952755904
40
0.0068897637795276
0
CIRCLE
8
WHITE
10
5.3799999999999999
20
-4.6626377952755904
40
0.0068897637795276
  0
ENDSEC
  0
EOF
