  0
SECTION
  2
HEADER
  9
$ANGBASE
  50
0.0
  9
$ANGDIR
  70
1
  9
$MEASUREMENT
  70
0
  0
ENDSEC
  0
SECTION
  2
TABLES
  0
TABLE
  2
LTYPE
  70
4
  0
LTYPE
  5
40F
  2
CONTINUOUS
  70
0
  3
Solid line
  72
65
  73
0
  40
0.0
  0
LTYPE
  5
410
  2
DASHDOT
 70
0
  3
Dash Dot ____ _ ____ _
 72
65
 73
4
 40
2.0
 49
1.25
 49
-0.25
 49
0.25
 49
-0.25
  0
LTYPE
  5
411
  2
DASHED
 70
0
  3
Dashed __ __ __ __ __
 72
65
 73
2
 40
0.75
 49
0.5
 49
-0.25
  0
LTYPE
  5
43B
  2
DOTTED
 70
0
  3
Dotted .  .  .  .
 72
65
 73
2
 40
0.2
 49
0.0
 49
-0.2
  0
ENDTAB
  0
TABLE
  2
STYLE
  70
4
  0
STYLE
  2
KICAD
  70
0
  40
0
  41
1
  42
1
  50
0
  71
0
  3
isocp.shx
  0
STYLE
  2
KICADB
  70
0
  40
0
  41
1
  42
1
  50
0
  71
0
  3
isocp.shx
  0
STYLE
  2
KICADI
  70
0
  40
0
  41
1
  42
1
  50
15
  71
0
  3
isocp.shx
  0
STYLE
  2
KICADBI
  70
0
  40
0
  41
1
  42
1
  50
15
  71
0
  3
isocp.shx
  0
ENDTAB
  0
TABLE
  2
LAYER
  70
1
  0
LAYER
  2
BLACK
  70
0
  62
7
  6
CONTINUOUS
  0
ENDTAB
  0
ENDSEC
  0
SECTION
  2
ENTITIES
0
LINE
8
BLACK
6
CONTINUOUS
10
5.2125282283464562
20
-4.5561556299212596
11
5.2130609055118109
21
-4.5566883070866142
0
LINE
8
BLACK
6
CONTINUOUS
10
5.2130609055118109
20
-4.5566883070866142
11
5.2131358267716532
21
-4.5570649606299209
0
LINE
8
BLACK
6
CONTINUOUS
10
5.2131358267716532
20
-4.5570649606299209
11
5.2131358267716532
21
-4.6987972440944885
0
LINE
8
BLACK
6
CONTINUOUS
10
5.2131358267716532
20
-4.6987972440944885
11
5.2130609055118109
21
-4.6991738976377952
0
LINE
8
BLACK
6
CONTINUOUS
10
5.2130609055118109
20
-4.6991738976377952
11
5.2125282283464562
21
-4.6997065748031499
0
LINE
8
BLACK
6
CONTINUOUS
10
5.2125282283464562
20
-4.6997065748031499
11
5.2121515748031495
21
-4.6997814960629922
0
LINE
8
BLACK
6
CONTINUOUS
10
5.2121515748031495
20
-4.6997814960629922
11
4.3716003937007875
21
-4.6997814960629922
0
LINE
8
BLACK
6
CONTINUOUS
10
4.3716003937007875
20
-4.6997814960629922
11
4.3712237401574798
21
-4.6997065748031499
0
LINE
8
BLACK
6
CONTINUOUS
10
4.3712237401574798
20
-4.6997065748031499
11
4.3706910629921261
21
-4.6991738976377952
0
LINE
8
BLACK
6
CONTINUOUS
10
4.3706910629921261
20
-4.6991738976377952
11
4.3706161417322837
21
-4.6987972440944885
0
LINE
8
BLACK
6
CONTINUOUS
10
4.3706161417322837
20
-4.6987972440944885
11
4.3706161417322837
21
-4.5570649606299209
0
LINE
8
BLACK
6
CONTINUOUS
10
4.3706161417322837
20
-4.5570649606299209
11
4.3706910629921261
21
-4.5566883070866142
0
LINE
8
BLACK
6
CONTINUOUS
10
4.3706910629921261
20
-4.5566883070866142
11
4.3712237401574798
21
-4.5561556299212596
0
LINE
8
BLACK
6
CONTINUOUS
10
4.3712237401574798
20
-4.5561556299212596
11
4.3716003937007875
21
-4.5560807086614172
0
LINE
8
BLACK
6
CONTINUOUS
10
4.3716003937007875
20
-4.5560807086614172
11
5.2121515748031495
21
-4.5560807086614172
0
LINE
8
BLACK
6
CONTINUOUS
10
5.2121515748031495
20
-4.5560807086614172
11
5.2125282283464562
21
-4.5561556299212596
0
LINE
8
BLACK
6
CONTINUOUS
10
4.3725846456692912
20
-4.5580492125984247
11
4.3725846456692912
21
-4.6978129921259839
0
LINE
8
BLACK
6
CONTINUOUS
10
4.3725846456692912
20
-4.6978129921259839
11
5.2111673228346458
21
-4.6978129921259839
0
LINE
8
BLACK
6
CONTINUOUS
10
5.2111673228346458
20
-4.6978129921259839
11
5.2111673228346458
21
-4.5580492125984247
0
LINE
8
BLACK
6
CONTINUOUS
10
5.2111673228346458
20
-4.5580492125984247
11
4.3725846456692912
21
-4.5580492125984247
0
LINE
8
BLACK
6
CONTINUOUS
10
6.8133156299212594
20
-4.5561556299212596
11
6.813848307086614
21
-4.5566883070866142
0
LINE
8
BLACK
6
CONTINUOUS
10
6.813848307086614
20
-4.5566883070866142
11
6.8139232283464564
21
-4.5570649606299209
0
LINE
8
BLACK
6
CONTINUOUS
10
6.8139232283464564
20
-4.5570649606299209
11
6.8139232283464564
21
-4.6987972440944885
0
LINE
8
BLACK
6
CONTINUOUS
10
6.8139232283464564
20
-4.6987972440944885
11
6.813848307086614
21
-4.6991738976377952
0
LINE
8
BLACK
6
CONTINUOUS
10
6.813848307086614
20
-4.6991738976377952
11
6.8133156299212594
21
-4.6997065748031499
0
LINE
8
BLACK
6
CONTINUOUS
10
6.8133156299212594
20
-4.6997065748031499
11
6.8129389763779526
21
-4.6997814960629922
0
LINE
8
BLACK
6
CONTINUOUS
10
6.8129389763779526
20
-4.6997814960629922
11
5.7716003937007869
21
-4.6997814960629922
0
LINE
8
BLACK
6
CONTINUOUS
10
5.7716003937007869
20
-4.6997814960629922
11
5.7712237401574802
21
-4.6997065748031499
0
LINE
8
BLACK
6
CONTINUOUS
10
5.7712237401574802
20
-4.6997065748031499
11
5.7706910629921255
21
-4.6991738976377952
0
LINE
8
BLACK
6
CONTINUOUS
10
5.7706910629921255
20
-4.6991738976377952
11
5.7706161417322832
21
-4.6987972440944885
0
LINE
8
BLACK
6
CONTINUOUS
10
5.7706161417322832
20
-4.6987972440944885
11
5.7706161417322832
21
-4.5570649606299209
0
LINE
8
BLACK
6
CONTINUOUS
10
5.7706161417322832
20
-4.5570649606299209
11
5.7706910629921255
21
-4.5566883070866142
0
LINE
8
BLACK
6
CONTINUOUS
10
5.7706910629921255
20
-4.5566883070866142
11
5.7712237401574802
21
-4.5561556299212596
0
LINE
8
BLACK
6
CONTINUOUS
10
5.7712237401574802
20
-4.5561556299212596
11
5.7716003937007869
21
-4.5560807086614172
0
LINE
8
BLACK
6
CONTINUOUS
10
5.7716003937007869
20
-4.5560807086614172
11
6.8129389763779526
21
-4.5560807086614172
0
LINE
8
BLACK
6
CONTINUOUS
10
6.8129389763779526
20
-4.5560807086614172
11
6.8133156299212594
21
-4.5561556299212596
0
LINE
8
BLACK
6
CONTINUOUS
10
5.7725846456692915
20
-4.5580492125984247
11
5.7725846456692915
21
-4.6978129921259839
0
LINE
8
BLACK
6
CONTINUOUS
10
5.7725846456692915
20
-4.6978129921259839
11
6.8119547244094489
21
-4.6978129921259839
0
LINE
8
BLACK
6
CONTINUOUS
10
6.8119547244094489
20
-4.6978129921259839
11
6.8119547244094489
21
-4.5580492125984247
0
LINE
8
BLACK
6
CONTINUOUS
10
6.8119547244094489
20
-4.5580492125984247
11
5.7725846456692915
21
-4.5580492125984247
0
CIRCLE
8
BLACK
10
4.4424665354330708
20
-4.6279311023622043
40
0.0068897637795276
0
CIRCLE
8
BLACK
10
4.5424665354330704
20
-4.6279311023622043
40
0.0068897637795276
0
CIRCLE
8
BLACK
10
4.6424664960629922
20
-4.6279311023622043
40
0.0068897637795276
0
CIRCLE
8
BLACK
10
4.7424665354330706
20
-4.6279311023622043
40
0.0068897637795276
0
CIRCLE
8
BLACK
10
4.8424665354330712
20
-4.6279311023622043
40
0.0068897637795276
0
CIRCLE
8
BLACK
10
4.9424665354330708
20
-4.6279311023622043
40
0.0068897637795276
0
CIRCLE
8
BLACK
10
5.0424665354330704
20
-4.6279311023622043
40
0.0068897637795276
0
CIRCLE
8
BLACK
10
5.1424665748031497
20
-4.6279311023622043
40
0.0068897637795276
0
CIRCLE
8
BLACK
10
5.8424665354330712
20
-4.6279311023622043
40
0.0068897637795276
0
CIRCLE
8
BLACK
10
5.942466496062992
20
-4.6279311023622043
40
0.0068897637795276
0
CIRCLE
8
BLACK
10
6.0424665748031492
20
-4.6279311023622043
40
0.0068897637795276
0
CIRCLE
8
BLACK
10
6.142466535433071
20
-4.6279311023622043
40
0.0068897637795276
0
CIRCLE
8
BLACK
10
6.2424665354330706
20
-4.6279311023622043
40
0.0068897637795276
0
CIRCLE
8
BLACK
10
6.3424665354330712
20
-4.6279311023622043
40
0.0068897637795276
0
CIRCLE
8
BLACK
10
6.442466496062992
20
-4.6279311023622043
40
0.0068897637795276
0
CIRCLE
8
BLACK
10
6.5424665354330704
20
-4.6279311023622043
40
0.0068897637795276
0
CIRCLE
8
BLACK
10
6.642466535433071
20
-4.6279311023622043
40
0.0068897637795276
0
CIRCLE
8
BLACK
10
6.7424665354330706
20
-4.6279311023622043
40
0.0068897637795276
0
CIRCLE
8
BLACK
10
4.4424665354330708
20
-4.6279311023622043
40
0.0068897637795276
0
CIRCLE
8
BLACK
10
4.5424665354330704
20
-4.6279311023622043
40
0.0068897637795276
0
CIRCLE
8
BLACK
10
4.6424664960629922
20
-4.6279311023622043
40
0.0068897637795276
0
CIRCLE
8
BLACK
10
4.7424665354330706
20
-4.6279311023622043
40
0.0068897637795276
0
CIRCLE
8
BLACK
10
4.8424665354330712
20
-4.6279311023622043
40
0.0068897637795276
0
CIRCLE
8
BLACK
10
4.9424665354330708
20
-4.6279311023622043
40
0.0068897637795276
0
CIRCLE
8
BLACK
10
5.0424665354330704
20
-4.6279311023622043
40
0.0068897637795276
0
CIRCLE
8
BLACK
10
5.1424665748031497
20
-4.6279311023622043
40
0.0068897637795276
0
CIRCLE
8
BLACK
10
5.8424665354330712
20
-4.6279311023622043
40
0.0068897637795276
0
CIRCLE
8
BLACK
10
5.942466496062992
20
-4.6279311023622043
40
0.0068897637795276
0
CIRCLE
8
BLACK
10
6.0424665748031492
20
-4.6279311023622043
40
0.0068897637795276
0
CIRCLE
8
BLACK
10
6.142466535433071
20
-4.6279311023622043
40
0.0068897637795276
0
CIRCLE
8
BLACK
10
6.2424665354330706
20
-4.6279311023622043
40
0.0068897637795276
0
CIRCLE
8
BLACK
10
6.3424665354330712
20
-4.6279311023622043
40
0.0068897637795276
0
CIRCLE
8
BLACK
10
6.442466496062992
20
-4.6279311023622043
40
0.0068897637795276
0
CIRCLE
8
BLACK
10
6.5424665354330704
20
-4.6279311023622043
40
0.0068897637795276
0
CIRCLE
8
BLACK
10
6.642466535433071
20
-4.6279311023622043
40
0.0068897637795276
0
CIRCLE
8
BLACK
10
6.7424665354330706
20
-4.6279311023622043
40
0.0068897637795276
  0
ENDSEC
  0
EOF
