  0
SECTION
  2
HEADER
  9
$ANGBASE
  50
0.0
  9
$ANGDIR
  70
1
  9
$MEASUREMENT
  70
0
  0
ENDSEC
  0
SECTION
  2
TABLES
  0
TABLE
  2
LTYPE
  70
4
  0
LTYPE
  5
40F
  2
CONTINUOUS
  70
0
  3
Solid line
  72
65
  73
0
  40
0.0
  0
LTYPE
  5
410
  2
DASHDOT
 70
0
  3
Dash Dot ____ _ ____ _
 72
65
 73
4
 40
2.0
 49
1.25
 49
-0.25
 49
0.25
 49
-0.25
  0
LTYPE
  5
411
  2
DASHED
 70
0
  3
Dashed __ __ __ __ __
 72
65
 73
2
 40
0.75
 49
0.5
 49
-0.25
  0
LTYPE
  5
43B
  2
DOTTED
 70
0
  3
Dotted .  .  .  .
 72
65
 73
2
 40
0.2
 49
0.0
 49
-0.2
  0
ENDTAB
  0
TABLE
  2
STYLE
  70
4
  0
STYLE
  2
KICAD
  70
0
  40
0
  41
1
  42
1
  50
0
  71
0
  3
isocp.shx
  0
STYLE
  2
KICADB
  70
0
  40
0
  41
1
  42
1
  50
0
  71
0
  3
isocp.shx
  0
STYLE
  2
KICADI
  70
0
  40
0
  41
1
  42
1
  50
15
  71
0
  3
isocp.shx
  0
STYLE
  2
KICADBI
  70
0
  40
0
  41
1
  42
1
  50
15
  71
0
  3
isocp.shx
  0
ENDTAB
  0
TABLE
  2
LAYER
  70
1
  0
LAYER
  2
BLACK
  70
0
  62
7
  6
CONTINUOUS
  0
ENDTAB
  0
ENDSEC
  0
SECTION
  2
ENTITIES
0
LINE
8
BLACK
6
CONTINUOUS
10
5.9382835826771654
20
-4.3898196062992128
11
5.9401994488188974
21
-4.3910997637795273
0
LINE
8
BLACK
6
CONTINUOUS
10
5.9401994488188974
20
-4.3910997637795273
11
5.9414796062992128
21
-4.3930156299212602
0
LINE
8
BLACK
6
CONTINUOUS
10
5.9414796062992128
20
-4.3930156299212602
11
5.9419291338582676
21
-4.3952755905511811
0
LINE
8
BLACK
6
CONTINUOUS
10
5.9419291338582676
20
-4.3952755905511811
11
5.9419291338582676
21
-4.4503937007874015
0
LINE
8
BLACK
6
CONTINUOUS
10
5.9419291338582676
20
-4.4503937007874015
11
5.9414796062992128
21
-4.4526536614173224
0
LINE
8
BLACK
6
CONTINUOUS
10
5.9414796062992128
20
-4.4526536614173224
11
5.9401994488188974
21
-4.4545695275590553
0
LINE
8
BLACK
6
CONTINUOUS
10
5.9401994488188974
20
-4.4545695275590553
11
5.9382835826771654
21
-4.4558496850393698
0
LINE
8
BLACK
6
CONTINUOUS
10
5.9382835826771654
20
-4.4558496850393698
11
5.9360236220472435
21
-4.4562992125984247
0
LINE
8
BLACK
6
CONTINUOUS
10
5.9360236220472435
20
-4.4562992125984247
11
5.9242125984251963
21
-4.4562992125984247
0
LINE
8
BLACK
6
CONTINUOUS
10
5.9242125984251963
20
-4.4562992125984247
11
5.9219526377952754
21
-4.4558496850393698
0
LINE
8
BLACK
6
CONTINUOUS
10
5.9219526377952754
20
-4.4558496850393698
11
5.9200367716535434
21
-4.4545695275590553
0
LINE
8
BLACK
6
CONTINUOUS
10
5.9200367716535434
20
-4.4545695275590553
11
5.918756614173228
21
-4.4526536614173224
0
LINE
8
BLACK
6
CONTINUOUS
10
5.918756614173228
20
-4.4526536614173224
11
5.9183070866141732
21
-4.4503937007874015
0
LINE
8
BLACK
6
CONTINUOUS
10
5.9183070866141732
20
-4.4503937007874015
11
5.9183070866141732
21
-4.3952755905511811
0
LINE
8
BLACK
6
CONTINUOUS
10
5.9183070866141732
20
-4.3952755905511811
11
5.918756614173228
21
-4.3930156299212602
0
LINE
8
BLACK
6
CONTINUOUS
10
5.918756614173228
20
-4.3930156299212602
11
5.9200367716535434
21
-4.3910997637795273
0
LINE
8
BLACK
6
CONTINUOUS
10
5.9200367716535434
20
-4.3910997637795273
11
5.9219526377952754
21
-4.3898196062992128
0
LINE
8
BLACK
6
CONTINUOUS
10
5.9219526377952754
20
-4.3898196062992128
11
5.9242125984251963
21
-4.3893700787401571
0
LINE
8
BLACK
6
CONTINUOUS
10
5.9242125984251963
20
-4.3893700787401571
11
5.9360236220472435
21
-4.3893700787401571
0
LINE
8
BLACK
6
CONTINUOUS
10
5.9360236220472435
20
-4.3893700787401571
11
5.9382835826771654
21
-4.3898196062992128
0
LINE
8
BLACK
6
CONTINUOUS
10
5.9874961811023617
20
-4.3898196062992128
11
5.9894120472440946
21
-4.3910997637795273
0
LINE
8
BLACK
6
CONTINUOUS
10
5.9894120472440946
20
-4.3910997637795273
11
5.9906922047244091
21
-4.3930156299212602
0
LINE
8
BLACK
6
CONTINUOUS
10
5.9906922047244091
20
-4.3930156299212602
11
5.9911417322834648
21
-4.3952755905511811
0
LINE
8
BLACK
6
CONTINUOUS
10
5.9911417322834648
20
-4.3952755905511811
11
5.9911417322834648
21
-4.4503937007874015
0
LINE
8
BLACK
6
CONTINUOUS
10
5.9911417322834648
20
-4.4503937007874015
11
5.9906922047244091
21
-4.4526536614173224
0
LINE
8
BLACK
6
CONTINUOUS
10
5.9906922047244091
20
-4.4526536614173224
11
5.9894120472440946
21
-4.4545695275590553
0
LINE
8
BLACK
6
CONTINUOUS
10
5.9894120472440946
20
-4.4545695275590553
11
5.9874961811023617
21
-4.4558496850393698
0
LINE
8
BLACK
6
CONTINUOUS
10
5.9874961811023617
20
-4.4558496850393698
11
5.9852362204724407
21
-4.4562992125984247
0
LINE
8
BLACK
6
CONTINUOUS
10
5.9852362204724407
20
-4.4562992125984247
11
5.9734251968503935
21
-4.4562992125984247
0
LINE
8
BLACK
6
CONTINUOUS
10
5.9734251968503935
20
-4.4562992125984247
11
5.9711652362204726
21
-4.4558496850393698
0
LINE
8
BLACK
6
CONTINUOUS
10
5.9711652362204726
20
-4.4558496850393698
11
5.9692493700787397
21
-4.4545695275590553
0
LINE
8
BLACK
6
CONTINUOUS
10
5.9692493700787397
20
-4.4545695275590553
11
5.9679692125984252
21
-4.4526536614173224
0
LINE
8
BLACK
6
CONTINUOUS
10
5.9679692125984252
20
-4.4526536614173224
11
5.9675196850393704
21
-4.4503937007874015
0
LINE
8
BLACK
6
CONTINUOUS
10
5.9675196850393704
20
-4.4503937007874015
11
5.9675196850393704
21
-4.3952755905511811
0
LINE
8
BLACK
6
CONTINUOUS
10
5.9675196850393704
20
-4.3952755905511811
11
5.9679692125984252
21
-4.3930156299212602
0
LINE
8
BLACK
6
CONTINUOUS
10
5.9679692125984252
20
-4.3930156299212602
11
5.9692493700787397
21
-4.3910997637795273
0
LINE
8
BLACK
6
CONTINUOUS
10
5.9692493700787397
20
-4.3910997637795273
11
5.9711652362204726
21
-4.3898196062992128
0
LINE
8
BLACK
6
CONTINUOUS
10
5.9711652362204726
20
-4.3898196062992128
11
5.9734251968503935
21
-4.3893700787401571
0
LINE
8
BLACK
6
CONTINUOUS
10
5.9734251968503935
20
-4.3893700787401571
11
5.9852362204724407
21
-4.3893700787401571
0
LINE
8
BLACK
6
CONTINUOUS
10
5.9852362204724407
20
-4.3893700787401571
11
5.9874961811023617
21
-4.3898196062992128
0
LINE
8
BLACK
6
CONTINUOUS
10
6.0367087795275589
20
-4.3898196062992128
11
6.0386246456692909
21
-4.3910997637795273
0
LINE
8
BLACK
6
CONTINUOUS
10
6.0386246456692909
20
-4.3910997637795273
11
6.0399048031496063
21
-4.3930156299212602
0
LINE
8
BLACK
6
CONTINUOUS
10
6.0399048031496063
20
-4.3930156299212602
11
6.0403543307086611
21
-4.3952755905511811
0
LINE
8
BLACK
6
CONTINUOUS
10
6.0403543307086611
20
-4.3952755905511811
11
6.0403543307086611
21
-4.4503937007874015
0
LINE
8
BLACK
6
CONTINUOUS
10
6.0403543307086611
20
-4.4503937007874015
11
6.0399048031496063
21
-4.4526536614173224
0
LINE
8
BLACK
6
CONTINUOUS
10
6.0399048031496063
20
-4.4526536614173224
11
6.0386246456692909
21
-4.4545695275590553
0
LINE
8
BLACK
6
CONTINUOUS
10
6.0386246456692909
20
-4.4545695275590553
11
6.0367087795275589
21
-4.4558496850393698
0
LINE
8
BLACK
6
CONTINUOUS
10
6.0367087795275589
20
-4.4558496850393698
11
6.034448818897638
21
-4.4562992125984247
0
LINE
8
BLACK
6
CONTINUOUS
10
6.034448818897638
20
-4.4562992125984247
11
6.0226377952755907
21
-4.4562992125984247
0
LINE
8
BLACK
6
CONTINUOUS
10
6.0226377952755907
20
-4.4562992125984247
11
6.0203778346456689
21
-4.4558496850393698
0
LINE
8
BLACK
6
CONTINUOUS
10
6.0203778346456689
20
-4.4558496850393698
11
6.0184619685039369
21
-4.4545695275590553
0
LINE
8
BLACK
6
CONTINUOUS
10
6.0184619685039369
20
-4.4545695275590553
11
6.0171818110236215
21
-4.4526536614173224
0
LINE
8
BLACK
6
CONTINUOUS
10
6.0171818110236215
20
-4.4526536614173224
11
6.0167322834645667
21
-4.4503937007874015
0
LINE
8
BLACK
6
CONTINUOUS
10
6.0167322834645667
20
-4.4503937007874015
11
6.0167322834645667
21
-4.3952755905511811
0
LINE
8
BLACK
6
CONTINUOUS
10
6.0167322834645667
20
-4.3952755905511811
11
6.0171818110236215
21
-4.3930156299212602
0
LINE
8
BLACK
6
CONTINUOUS
10
6.0171818110236215
20
-4.3930156299212602
11
6.0184619685039369
21
-4.3910997637795273
0
LINE
8
BLACK
6
CONTINUOUS
10
6.0184619685039369
20
-4.3910997637795273
11
6.0203778346456689
21
-4.3898196062992128
0
LINE
8
BLACK
6
CONTINUOUS
10
6.0203778346456689
20
-4.3898196062992128
11
6.0226377952755907
21
-4.3893700787401571
0
LINE
8
BLACK
6
CONTINUOUS
10
6.0226377952755907
20
-4.3893700787401571
11
6.034448818897638
21
-4.3893700787401571
0
LINE
8
BLACK
6
CONTINUOUS
10
6.034448818897638
20
-4.3893700787401571
11
6.0367087795275589
21
-4.3898196062992128
0
LINE
8
BLACK
6
CONTINUOUS
10
6.0859213779527561
20
-4.3898196062992128
11
6.0878372440944881
21
-4.3910997637795273
0
LINE
8
BLACK
6
CONTINUOUS
10
6.0878372440944881
20
-4.3910997637795273
11
6.0891174015748026
21
-4.3930156299212602
0
LINE
8
BLACK
6
CONTINUOUS
10
6.0891174015748026
20
-4.3930156299212602
11
6.0895669291338583
21
-4.3952755905511811
0
LINE
8
BLACK
6
CONTINUOUS
10
6.0895669291338583
20
-4.3952755905511811
11
6.0895669291338583
21
-4.4503937007874015
0
LINE
8
BLACK
6
CONTINUOUS
10
6.0895669291338583
20
-4.4503937007874015
11
6.0891174015748026
21
-4.4526536614173224
0
LINE
8
BLACK
6
CONTINUOUS
10
6.0891174015748026
20
-4.4526536614173224
11
6.0878372440944881
21
-4.4545695275590553
0
LINE
8
BLACK
6
CONTINUOUS
10
6.0878372440944881
20
-4.4545695275590553
11
6.0859213779527561
21
-4.4558496850393698
0
LINE
8
BLACK
6
CONTINUOUS
10
6.0859213779527561
20
-4.4558496850393698
11
6.0836614173228343
21
-4.4562992125984247
0
LINE
8
BLACK
6
CONTINUOUS
10
6.0836614173228343
20
-4.4562992125984247
11
6.0718503937007871
21
-4.4562992125984247
0
LINE
8
BLACK
6
CONTINUOUS
10
6.0718503937007871
20
-4.4562992125984247
11
6.0695904330708661
21
-4.4558496850393698
0
LINE
8
BLACK
6
CONTINUOUS
10
6.0695904330708661
20
-4.4558496850393698
11
6.0676745669291341
21
-4.4545695275590553
0
LINE
8
BLACK
6
CONTINUOUS
10
6.0676745669291341
20
-4.4545695275590553
11
6.0663944094488187
21
-4.4526536614173224
0
LINE
8
BLACK
6
CONTINUOUS
10
6.0663944094488187
20
-4.4526536614173224
11
6.0659448818897639
21
-4.4503937007874015
0
LINE
8
BLACK
6
CONTINUOUS
10
6.0659448818897639
20
-4.4503937007874015
11
6.0659448818897639
21
-4.3952755905511811
0
LINE
8
BLACK
6
CONTINUOUS
10
6.0659448818897639
20
-4.3952755905511811
11
6.0663944094488187
21
-4.3930156299212602
0
LINE
8
BLACK
6
CONTINUOUS
10
6.0663944094488187
20
-4.3930156299212602
11
6.0676745669291341
21
-4.3910997637795273
0
LINE
8
BLACK
6
CONTINUOUS
10
6.0676745669291341
20
-4.3910997637795273
11
6.0695904330708661
21
-4.3898196062992128
0
LINE
8
BLACK
6
CONTINUOUS
10
6.0695904330708661
20
-4.3898196062992128
11
6.0718503937007871
21
-4.3893700787401571
0
LINE
8
BLACK
6
CONTINUOUS
10
6.0718503937007871
20
-4.3893700787401571
11
6.0836614173228343
21
-4.3893700787401571
0
LINE
8
BLACK
6
CONTINUOUS
10
6.0836614173228343
20
-4.3893700787401571
11
6.0859213779527561
21
-4.3898196062992128
0
LINE
8
BLACK
6
CONTINUOUS
10
6.1351339763779524
20
-4.3898196062992128
11
6.1370498425196853
21
-4.3910997637795273
0
LINE
8
BLACK
6
CONTINUOUS
10
6.1370498425196853
20
-4.3910997637795273
11
6.1383299999999998
21
-4.3930156299212602
0
LINE
8
BLACK
6
CONTINUOUS
10
6.1383299999999998
20
-4.3930156299212602
11
6.1387795275590546
21
-4.3952755905511811
0
LINE
8
BLACK
6
CONTINUOUS
10
6.1387795275590546
20
-4.3952755905511811
11
6.1387795275590546
21
-4.4503937007874015
0
LINE
8
BLACK
6
CONTINUOUS
10
6.1387795275590546
20
-4.4503937007874015
11
6.1383299999999998
21
-4.4526536614173224
0
LINE
8
BLACK
6
CONTINUOUS
10
6.1383299999999998
20
-4.4526536614173224
11
6.1370498425196853
21
-4.4545695275590553
0
LINE
8
BLACK
6
CONTINUOUS
10
6.1370498425196853
20
-4.4545695275590553
11
6.1351339763779524
21
-4.4558496850393698
0
LINE
8
BLACK
6
CONTINUOUS
10
6.1351339763779524
20
-4.4558496850393698
11
6.1328740157480315
21
-4.4562992125984247
0
LINE
8
BLACK
6
CONTINUOUS
10
6.1328740157480315
20
-4.4562992125984247
11
6.1210629921259843
21
-4.4562992125984247
0
LINE
8
BLACK
6
CONTINUOUS
10
6.1210629921259843
20
-4.4562992125984247
11
6.1188030314960624
21
-4.4558496850393698
0
LINE
8
BLACK
6
CONTINUOUS
10
6.1188030314960624
20
-4.4558496850393698
11
6.1168871653543304
21
-4.4545695275590553
0
LINE
8
BLACK
6
CONTINUOUS
10
6.1168871653543304
20
-4.4545695275590553
11
6.1156070078740159
21
-4.4526536614173224
0
LINE
8
BLACK
6
CONTINUOUS
10
6.1156070078740159
20
-4.4526536614173224
11
6.1151574803149602
21
-4.4503937007874015
0
LINE
8
BLACK
6
CONTINUOUS
10
6.1151574803149602
20
-4.4503937007874015
11
6.1151574803149602
21
-4.3952755905511811
0
LINE
8
BLACK
6
CONTINUOUS
10
6.1151574803149602
20
-4.3952755905511811
11
6.1156070078740159
21
-4.3930156299212602
0
LINE
8
BLACK
6
CONTINUOUS
10
6.1156070078740159
20
-4.3930156299212602
11
6.1168871653543304
21
-4.3910997637795273
0
LINE
8
BLACK
6
CONTINUOUS
10
6.1168871653543304
20
-4.3910997637795273
11
6.1188030314960624
21
-4.3898196062992128
0
LINE
8
BLACK
6
CONTINUOUS
10
6.1188030314960624
20
-4.3898196062992128
11
6.1210629921259843
21
-4.3893700787401571
0
LINE
8
BLACK
6
CONTINUOUS
10
6.1210629921259843
20
-4.3893700787401571
11
6.1328740157480315
21
-4.3893700787401571
0
LINE
8
BLACK
6
CONTINUOUS
10
6.1328740157480315
20
-4.3893700787401571
11
6.1351339763779524
21
-4.3898196062992128
0
LINE
8
BLACK
6
CONTINUOUS
10
6.1843465748031496
20
-4.3898196062992128
11
6.1862624409448816
21
-4.3910997637795273
0
LINE
8
BLACK
6
CONTINUOUS
10
6.1862624409448816
20
-4.3910997637795273
11
6.187542598425197
21
-4.3930156299212602
0
LINE
8
BLACK
6
CONTINUOUS
10
6.187542598425197
20
-4.3930156299212602
11
6.1879921259842519
21
-4.3952755905511811
0
LINE
8
BLACK
6
CONTINUOUS
10
6.1879921259842519
20
-4.3952755905511811
11
6.1879921259842519
21
-4.4503937007874015
0
LINE
8
BLACK
6
CONTINUOUS
10
6.1879921259842519
20
-4.4503937007874015
11
6.187542598425197
21
-4.4526536614173224
0
LINE
8
BLACK
6
CONTINUOUS
10
6.187542598425197
20
-4.4526536614173224
11
6.1862624409448816
21
-4.4545695275590553
0
LINE
8
BLACK
6
CONTINUOUS
10
6.1862624409448816
20
-4.4545695275590553
11
6.1843465748031496
21
-4.4558496850393698
0
LINE
8
BLACK
6
CONTINUOUS
10
6.1843465748031496
20
-4.4558496850393698
11
6.1820866141732278
21
-4.4562992125984247
0
LINE
8
BLACK
6
CONTINUOUS
10
6.1820866141732278
20
-4.4562992125984247
11
6.1702755905511806
21
-4.4562992125984247
0
LINE
8
BLACK
6
CONTINUOUS
10
6.1702755905511806
20
-4.4562992125984247
11
6.1680156299212596
21
-4.4558496850393698
0
LINE
8
BLACK
6
CONTINUOUS
10
6.1680156299212596
20
-4.4558496850393698
11
6.1660997637795276
21
-4.4545695275590553
0
LINE
8
BLACK
6
CONTINUOUS
10
6.1660997637795276
20
-4.4545695275590553
11
6.1648196062992122
21
-4.4526536614173224
0
LINE
8
BLACK
6
CONTINUOUS
10
6.1648196062992122
20
-4.4526536614173224
11
6.1643700787401574
21
-4.4503937007874015
0
LINE
8
BLACK
6
CONTINUOUS
10
6.1643700787401574
20
-4.4503937007874015
11
6.1643700787401574
21
-4.3952755905511811
0
LINE
8
BLACK
6
CONTINUOUS
10
6.1643700787401574
20
-4.3952755905511811
11
6.1648196062992122
21
-4.3930156299212602
0
LINE
8
BLACK
6
CONTINUOUS
10
6.1648196062992122
20
-4.3930156299212602
11
6.1660997637795276
21
-4.3910997637795273
0
LINE
8
BLACK
6
CONTINUOUS
10
6.1660997637795276
20
-4.3910997637795273
11
6.1680156299212596
21
-4.3898196062992128
0
LINE
8
BLACK
6
CONTINUOUS
10
6.1680156299212596
20
-4.3898196062992128
11
6.1702755905511806
21
-4.3893700787401571
0
LINE
8
BLACK
6
CONTINUOUS
10
6.1702755905511806
20
-4.3893700787401571
11
6.1820866141732278
21
-4.3893700787401571
0
LINE
8
BLACK
6
CONTINUOUS
10
6.1820866141732278
20
-4.3893700787401571
11
6.1843465748031496
21
-4.3898196062992128
0
LINE
8
BLACK
6
CONTINUOUS
10
6.233559173228346
20
-4.3898196062992128
11
6.2354750393700789
21
-4.3910997637795273
0
LINE
8
BLACK
6
CONTINUOUS
10
6.2354750393700789
20
-4.3910997637795273
11
6.2367551968503934
21
-4.3930156299212602
0
LINE
8
BLACK
6
CONTINUOUS
10
6.2367551968503934
20
-4.3930156299212602
11
6.2372047244094491
21
-4.3952755905511811
0
LINE
8
BLACK
6
CONTINUOUS
10
6.2372047244094491
20
-4.3952755905511811
11
6.2372047244094491
21
-4.4503937007874015
0
LINE
8
BLACK
6
CONTINUOUS
10
6.2372047244094491
20
-4.4503937007874015
11
6.2367551968503934
21
-4.4526536614173224
0
LINE
8
BLACK
6
CONTINUOUS
10
6.2367551968503934
20
-4.4526536614173224
11
6.2354750393700789
21
-4.4545695275590553
0
LINE
8
BLACK
6
CONTINUOUS
10
6.2354750393700789
20
-4.4545695275590553
11
6.233559173228346
21
-4.4558496850393698
0
LINE
8
BLACK
6
CONTINUOUS
10
6.233559173228346
20
-4.4558496850393698
11
6.231299212598425
21
-4.4562992125984247
0
LINE
8
BLACK
6
CONTINUOUS
10
6.231299212598425
20
-4.4562992125984247
11
6.2194881889763778
21
-4.4562992125984247
0
LINE
8
BLACK
6
CONTINUOUS
10
6.2194881889763778
20
-4.4562992125984247
11
6.2172282283464568
21
-4.4558496850393698
0
LINE
8
BLACK
6
CONTINUOUS
10
6.2172282283464568
20
-4.4558496850393698
11
6.2153123622047239
21
-4.4545695275590553
0
LINE
8
BLACK
6
CONTINUOUS
10
6.2153123622047239
20
-4.4545695275590553
11
6.2140322047244094
21
-4.4526536614173224
0
LINE
8
BLACK
6
CONTINUOUS
10
6.2140322047244094
20
-4.4526536614173224
11
6.2135826771653546
21
-4.4503937007874015
0
LINE
8
BLACK
6
CONTINUOUS
10
6.2135826771653546
20
-4.4503937007874015
11
6.2135826771653546
21
-4.3952755905511811
0
LINE
8
BLACK
6
CONTINUOUS
10
6.2135826771653546
20
-4.3952755905511811
11
6.2140322047244094
21
-4.3930156299212602
0
LINE
8
BLACK
6
CONTINUOUS
10
6.2140322047244094
20
-4.3930156299212602
11
6.2153123622047239
21
-4.3910997637795273
0
LINE
8
BLACK
6
CONTINUOUS
10
6.2153123622047239
20
-4.3910997637795273
11
6.2172282283464568
21
-4.3898196062992128
0
LINE
8
BLACK
6
CONTINUOUS
10
6.2172282283464568
20
-4.3898196062992128
11
6.2194881889763778
21
-4.3893700787401571
0
LINE
8
BLACK
6
CONTINUOUS
10
6.2194881889763778
20
-4.3893700787401571
11
6.231299212598425
21
-4.3893700787401571
0
LINE
8
BLACK
6
CONTINUOUS
10
6.231299212598425
20
-4.3893700787401571
11
6.233559173228346
21
-4.3898196062992128
0
LINE
8
BLACK
6
CONTINUOUS
10
6.2827717716535432
20
-4.3898196062992128
11
6.2846876377952752
21
-4.3910997637795273
0
LINE
8
BLACK
6
CONTINUOUS
10
6.2846876377952752
20
-4.3910997637795273
11
6.2859677952755906
21
-4.3930156299212602
0
LINE
8
BLACK
6
CONTINUOUS
10
6.2859677952755906
20
-4.3930156299212602
11
6.2864173228346454
21
-4.3952755905511811
0
LINE
8
BLACK
6
CONTINUOUS
10
6.2864173228346454
20
-4.3952755905511811
11
6.2864173228346454
21
-4.4503937007874015
0
LINE
8
BLACK
6
CONTINUOUS
10
6.2864173228346454
20
-4.4503937007874015
11
6.2859677952755906
21
-4.4526536614173224
0
LINE
8
BLACK
6
CONTINUOUS
10
6.2859677952755906
20
-4.4526536614173224
11
6.2846876377952752
21
-4.4545695275590553
0
LINE
8
BLACK
6
CONTINUOUS
10
6.2846876377952752
20
-4.4545695275590553
11
6.2827717716535432
21
-4.4558496850393698
0
LINE
8
BLACK
6
CONTINUOUS
10
6.2827717716535432
20
-4.4558496850393698
11
6.2805118110236222
21
-4.4562992125984247
0
LINE
8
BLACK
6
CONTINUOUS
10
6.2805118110236222
20
-4.4562992125984247
11
6.268700787401575
21
-4.4562992125984247
0
LINE
8
BLACK
6
CONTINUOUS
10
6.268700787401575
20
-4.4562992125984247
11
6.2664408267716531
21
-4.4558496850393698
0
LINE
8
BLACK
6
CONTINUOUS
10
6.2664408267716531
20
-4.4558496850393698
11
6.2645249606299211
21
-4.4545695275590553
0
LINE
8
BLACK
6
CONTINUOUS
10
6.2645249606299211
20
-4.4545695275590553
11
6.2632448031496057
21
-4.4526536614173224
0
LINE
8
BLACK
6
CONTINUOUS
10
6.2632448031496057
20
-4.4526536614173224
11
6.2627952755905509
21
-4.4503937007874015
0
LINE
8
BLACK
6
CONTINUOUS
10
6.2627952755905509
20
-4.4503937007874015
11
6.2627952755905509
21
-4.3952755905511811
0
LINE
8
BLACK
6
CONTINUOUS
10
6.2627952755905509
20
-4.3952755905511811
11
6.2632448031496057
21
-4.3930156299212602
0
LINE
8
BLACK
6
CONTINUOUS
10
6.2632448031496057
20
-4.3930156299212602
11
6.2645249606299211
21
-4.3910997637795273
0
LINE
8
BLACK
6
CONTINUOUS
10
6.2645249606299211
20
-4.3910997637795273
11
6.2664408267716531
21
-4.3898196062992128
0
LINE
8
BLACK
6
CONTINUOUS
10
6.2664408267716531
20
-4.3898196062992128
11
6.268700787401575
21
-4.3893700787401571
0
LINE
8
BLACK
6
CONTINUOUS
10
6.268700787401575
20
-4.3893700787401571
11
6.2805118110236222
21
-4.3893700787401571
0
LINE
8
BLACK
6
CONTINUOUS
10
6.2805118110236222
20
-4.3893700787401571
11
6.2827717716535432
21
-4.3898196062992128
0
LINE
8
BLACK
6
CONTINUOUS
10
5.8708925590551182
20
-4.2444499999999996
11
5.8740857086614175
21
-4.2465835826771654
0
LINE
8
BLACK
6
CONTINUOUS
10
5.8740857086614175
20
-4.2465835826771654
11
5.8762192913385825
21
-4.2497767322834648
0
LINE
8
BLACK
6
CONTINUOUS
10
5.8762192913385825
20
-4.2497767322834648
11
5.8769685039370074
21
-4.2535433070866144
0
LINE
8
BLACK
6
CONTINUOUS
10
5.8769685039370074
20
-4.2535433070866144
11
5.8769685039370074
21
-4.3401574803149607
0
LINE
8
BLACK
6
CONTINUOUS
10
5.8769685039370074
20
-4.3401574803149607
11
5.8762192913385825
21
-4.3439240551181104
0
LINE
8
BLACK
6
CONTINUOUS
10
5.8762192913385825
20
-4.3439240551181104
11
5.8740857086614175
21
-4.3471172047244098
0
LINE
8
BLACK
6
CONTINUOUS
10
5.8740857086614175
20
-4.3471172047244098
11
5.8708925590551182
21
-4.3492507874015747
0
LINE
8
BLACK
6
CONTINUOUS
10
5.8708925590551182
20
-4.3492507874015747
11
5.8671259842519685
21
-4.3499999999999996
0
LINE
8
BLACK
6
CONTINUOUS
10
5.8671259842519685
20
-4.3499999999999996
11
5.8474409448818898
21
-4.3499999999999996
0
LINE
8
BLACK
6
CONTINUOUS
10
5.8474409448818898
20
-4.3499999999999996
11
5.8436743700787401
21
-4.3492507874015747
0
LINE
8
BLACK
6
CONTINUOUS
10
5.8436743700787401
20
-4.3492507874015747
11
5.8404812204724408
21
-4.3471172047244098
0
LINE
8
BLACK
6
CONTINUOUS
10
5.8404812204724408
20
-4.3471172047244098
11
5.8383476377952759
21
-4.3439240551181104
0
LINE
8
BLACK
6
CONTINUOUS
10
5.8383476377952759
20
-4.3439240551181104
11
5.83759842519685
21
-4.3401574803149607
0
LINE
8
BLACK
6
CONTINUOUS
10
5.83759842519685
20
-4.3401574803149607
11
5.83759842519685
21
-4.2535433070866144
0
LINE
8
BLACK
6
CONTINUOUS
10
5.83759842519685
20
-4.2535433070866144
11
5.8383476377952759
21
-4.2497767322834648
0
LINE
8
BLACK
6
CONTINUOUS
10
5.8383476377952759
20
-4.2497767322834648
11
5.8404812204724408
21
-4.2465835826771654
0
LINE
8
BLACK
6
CONTINUOUS
10
5.8404812204724408
20
-4.2465835826771654
11
5.8436743700787401
21
-4.2444499999999996
0
LINE
8
BLACK
6
CONTINUOUS
10
5.8436743700787401
20
-4.2444499999999996
11
5.8474409448818898
21
-4.2437007874015746
0
LINE
8
BLACK
6
CONTINUOUS
10
5.8474409448818898
20
-4.2437007874015746
11
5.8671259842519685
21
-4.2437007874015746
0
LINE
8
BLACK
6
CONTINUOUS
10
5.8671259842519685
20
-4.2437007874015746
11
5.8708925590551182
21
-4.2444499999999996
0
LINE
8
BLACK
6
CONTINUOUS
10
6.3610500393700784
20
-4.2444499999999996
11
6.3642431889763778
21
-4.2465835826771654
0
LINE
8
BLACK
6
CONTINUOUS
10
6.3642431889763778
20
-4.2465835826771654
11
6.3663767716535435
21
-4.2497767322834648
0
LINE
8
BLACK
6
CONTINUOUS
10
6.3663767716535435
20
-4.2497767322834648
11
6.3671259842519685
21
-4.2535433070866144
0
LINE
8
BLACK
6
CONTINUOUS
10
6.3671259842519685
20
-4.2535433070866144
11
6.3671259842519685
21
-4.3401574803149607
0
LINE
8
BLACK
6
CONTINUOUS
10
6.3671259842519685
20
-4.3401574803149607
11
6.3663767716535435
21
-4.3439240551181104
0
LINE
8
BLACK
6
CONTINUOUS
10
6.3663767716535435
20
-4.3439240551181104
11
6.3642431889763778
21
-4.3471172047244098
0
LINE
8
BLACK
6
CONTINUOUS
10
6.3642431889763778
20
-4.3471172047244098
11
6.3610500393700784
21
-4.3492507874015747
0
LINE
8
BLACK
6
CONTINUOUS
10
6.3610500393700784
20
-4.3492507874015747
11
6.3572834645669287
21
-4.3499999999999996
0
LINE
8
BLACK
6
CONTINUOUS
10
6.3572834645669287
20
-4.3499999999999996
11
6.33759842519685
21
-4.3499999999999996
0
LINE
8
BLACK
6
CONTINUOUS
10
6.33759842519685
20
-4.3499999999999996
11
6.3338318503937003
21
-4.3492507874015747
0
LINE
8
BLACK
6
CONTINUOUS
10
6.3338318503937003
20
-4.3492507874015747
11
6.3306387007874019
21
-4.3471172047244098
0
LINE
8
BLACK
6
CONTINUOUS
10
6.3306387007874019
20
-4.3471172047244098
11
6.3285051181102361
21
-4.3439240551181104
0
LINE
8
BLACK
6
CONTINUOUS
10
6.3285051181102361
20
-4.3439240551181104
11
6.3277559055118111
21
-4.3401574803149607
0
LINE
8
BLACK
6
CONTINUOUS
10
6.3277559055118111
20
-4.3401574803149607
11
6.3277559055118111
21
-4.2535433070866144
0
LINE
8
BLACK
6
CONTINUOUS
10
6.3277559055118111
20
-4.2535433070866144
11
6.3285051181102361
21
-4.2497767322834648
0
LINE
8
BLACK
6
CONTINUOUS
10
6.3285051181102361
20
-4.2497767322834648
11
6.3306387007874019
21
-4.2465835826771654
0
LINE
8
BLACK
6
CONTINUOUS
10
6.3306387007874019
20
-4.2465835826771654
11
6.3338318503937003
21
-4.2444499999999996
0
LINE
8
BLACK
6
CONTINUOUS
10
6.3338318503937003
20
-4.2444499999999996
11
6.33759842519685
21
-4.2437007874015746
0
LINE
8
BLACK
6
CONTINUOUS
10
6.33759842519685
20
-4.2437007874015746
11
6.3572834645669287
21
-4.2437007874015746
0
LINE
8
BLACK
6
CONTINUOUS
10
6.3572834645669287
20
-4.2437007874015746
11
6.3610500393700784
21
-4.2444499999999996
0
CIRCLE
8
BLACK
10
4.4424665354330708
20
-4.6279311023622043
40
0.0068897637795276
0
CIRCLE
8
BLACK
10
4.5424665354330704
20
-4.6279311023622043
40
0.0068897637795276
0
CIRCLE
8
BLACK
10
4.6424664960629922
20
-4.6279311023622043
40
0.0068897637795276
0
CIRCLE
8
BLACK
10
4.7424665354330706
20
-4.6279311023622043
40
0.0068897637795276
0
CIRCLE
8
BLACK
10
4.8424665354330712
20
-4.6279311023622043
40
0.0068897637795276
0
CIRCLE
8
BLACK
10
4.9424665354330708
20
-4.6279311023622043
40
0.0068897637795276
0
CIRCLE
8
BLACK
10
5.0424665354330704
20
-4.6279311023622043
40
0.0068897637795276
0
CIRCLE
8
BLACK
10
5.1424665748031497
20
-4.6279311023622043
40
0.0068897637795276
0
CIRCLE
8
BLACK
10
5.8424665354330712
20
-4.6279311023622043
40
0.0068897637795276
0
CIRCLE
8
BLACK
10
5.942466496062992
20
-4.6279311023622043
40
0.0068897637795276
0
CIRCLE
8
BLACK
10
6.0424665748031492
20
-4.6279311023622043
40
0.0068897637795276
0
CIRCLE
8
BLACK
10
6.142466535433071
20
-4.6279311023622043
40
0.0068897637795276
0
CIRCLE
8
BLACK
10
6.2424665354330706
20
-4.6279311023622043
40
0.0068897637795276
0
CIRCLE
8
BLACK
10
6.3424665354330712
20
-4.6279311023622043
40
0.0068897637795276
0
CIRCLE
8
BLACK
10
6.442466496062992
20
-4.6279311023622043
40
0.0068897637795276
0
CIRCLE
8
BLACK
10
6.5424665354330704
20
-4.6279311023622043
40
0.0068897637795276
0
CIRCLE
8
BLACK
10
6.642466535433071
20
-4.6279311023622043
40
0.0068897637795276
0
CIRCLE
8
BLACK
10
6.7424665354330706
20
-4.6279311023622043
40
0.0068897637795276
0
CIRCLE
8
BLACK
10
5.5800000000000001
20
-4.6626377952755904
40
0.0068897637795276
0
CIRCLE
8
BLACK
10
5.4799999999999995
20
-4.6626377952755904
40
0.0068897637795276
0
CIRCLE
8
BLACK
10
5.3800000393700786
20
-4.6626377952755904
40
0.0068897637795276
  0
ENDSEC
  0
EOF
