  0
SECTION
  2
HEADER
  9
$ANGBASE
  50
0.0
  9
$ANGDIR
  70
1
  9
$MEASUREMENT
  70
0
  0
ENDSEC
  0
SECTION
  2
TABLES
  0
TABLE
  2
LTYPE
  70
4
  0
LTYPE
  5
40F
  2
CONTINUOUS
  70
0
  3
Solid line
  72
65
  73
0
  40
0.0
  0
LTYPE
  5
410
  2
DASHDOT
 70
0
  3
Dash Dot ____ _ ____ _
 72
65
 73
4
 40
2.0
 49
1.25
 49
-0.25
 49
0.25
 49
-0.25
  0
LTYPE
  5
411
  2
DASHED
 70
0
  3
Dashed __ __ __ __ __
 72
65
 73
2
 40
0.75
 49
0.5
 49
-0.25
  0
LTYPE
  5
43B
  2
DOTTED
 70
0
  3
Dotted .  .  .  .
 72
65
 73
2
 40
0.2
 49
0.0
 49
-0.2
  0
ENDTAB
  0
TABLE
  2
STYLE
  70
4
  0
STYLE
  2
KICAD
  70
0
  40
0
  41
1
  42
1
  50
0
  71
0
  3
isocp.shx
  0
STYLE
  2
KICADB
  70
0
  40
0
  41
1
  42
1
  50
0
  71
0
  3
isocp.shx
  0
STYLE
  2
KICADI
  70
0
  40
0
  41
1
  42
1
  50
15
  71
0
  3
isocp.shx
  0
STYLE
  2
KICADBI
  70
0
  40
0
  41
1
  42
1
  50
15
  71
0
  3
isocp.shx
  0
ENDTAB
  0
TABLE
  2
LAYER
  70
1
  0
LAYER
  2
BLACK
  70
0
  62
7
  6
CONTINUOUS
  0
ENDTAB
  0
ENDSEC
  0
SECTION
  2
ENTITIES
0
LINE
8
BLACK
6
CONTINUOUS
10
6.8212066929133854
20
-4.2352145669291339
11
6.8212067322834642
21
-4.2352145669291339
0
LINE
8
BLACK
6
CONTINUOUS
10
6.8212067322834642
20
-4.2352145669291339
11
6.8297511023622048
21
-4.2358259448818893
0
LINE
8
BLACK
6
CONTINUOUS
10
6.8297511023622048
20
-4.2358259448818893
11
6.8381215354330704
21
-4.237647007874016
0
LINE
8
BLACK
6
CONTINUOUS
10
6.8381215354330704
20
-4.237647007874016
11
6.8461476377952755
21
-4.2406407480314963
0
LINE
8
BLACK
6
CONTINUOUS
10
6.8461476377952755
20
-4.2406407480314963
11
6.8536659842519683
21
-4.2447462204724404
0
LINE
8
BLACK
6
CONTINUOUS
10
6.8536659842519683
20
-4.2447462204724404
11
6.8605235826771649
21
-4.2498798031496063
0
LINE
8
BLACK
6
CONTINUOUS
10
6.8605235826771649
20
-4.2498798031496063
11
6.8665808267716537
21
-4.2559370472440943
0
LINE
8
BLACK
6
CONTINUOUS
10
6.8665808267716537
20
-4.2559370472440943
11
6.8717144094488187
21
-4.2627946456692909
0
LINE
8
BLACK
6
CONTINUOUS
10
6.8717144094488187
20
-4.2627946456692909
11
6.8758198818897638
21
-4.2703129921259846
0
LINE
8
BLACK
6
CONTINUOUS
10
6.8758198818897638
20
-4.2703129921259846
11
6.878813622047244
21
-4.2783390944881887
0
LINE
8
BLACK
6
CONTINUOUS
10
6.878813622047244
20
-4.2783390944881887
11
6.8806346850393698
21
-4.2867095275590552
0
LINE
8
BLACK
6
CONTINUOUS
10
6.8806346850393698
20
-4.2867095275590552
11
6.8812460629921262
21
-4.295253897637795
0
LINE
8
BLACK
6
CONTINUOUS
10
6.8812460629921262
20
-4.295253897637795
11
6.8812460629921262
21
-4.2952539370078737
0
LINE
8
BLACK
6
CONTINUOUS
10
6.8812460629921262
20
-4.2952539370078737
11
6.8812460629921262
21
-4.7952539370078737
0
LINE
8
BLACK
6
CONTINUOUS
10
6.8812460629921262
20
-4.7952539370078737
11
6.8812460629921262
21
-4.7952539763779525
0
LINE
8
BLACK
6
CONTINUOUS
10
6.8812460629921262
20
-4.7952539763779525
11
6.8806346850393698
21
-4.8037983464566931
0
LINE
8
BLACK
6
CONTINUOUS
10
6.8806346850393698
20
-4.8037983464566931
11
6.878813622047244
21
-4.8121687795275587
0
LINE
8
BLACK
6
CONTINUOUS
10
6.878813622047244
20
-4.8121687795275587
11
6.8758198818897638
21
-4.8201948818897637
0
LINE
8
BLACK
6
CONTINUOUS
10
6.8758198818897638
20
-4.8201948818897637
11
6.8717144094488187
21
-4.8277132283464566
0
LINE
8
BLACK
6
CONTINUOUS
10
6.8717144094488187
20
-4.8277132283464566
11
6.8665808267716537
21
-4.8345708267716532
0
LINE
8
BLACK
6
CONTINUOUS
10
6.8665808267716537
20
-4.8345708267716532
11
6.8605235826771649
21
-4.840628070866142
0
LINE
8
BLACK
6
CONTINUOUS
10
6.8605235826771649
20
-4.840628070866142
11
6.8536659842519683
21
-4.845761653543307
0
LINE
8
BLACK
6
CONTINUOUS
10
6.8536659842519683
20
-4.845761653543307
11
6.8461476377952755
21
-4.8498671259842521
0
LINE
8
BLACK
6
CONTINUOUS
10
6.8461476377952755
20
-4.8498671259842521
11
6.8381215354330704
21
-4.8528608661417323
0
LINE
8
BLACK
6
CONTINUOUS
10
6.8381215354330704
20
-4.8528608661417323
11
6.8297511023622048
21
-4.8546819291338581
0
LINE
8
BLACK
6
CONTINUOUS
10
6.8297511023622048
20
-4.8546819291338581
11
6.8212067322834642
21
-4.8552933070866144
0
LINE
8
BLACK
6
CONTINUOUS
10
6.8212067322834642
20
-4.8552933070866144
11
6.8212066929133854
21
-4.8552932677165357
0
LINE
8
BLACK
6
CONTINUOUS
10
6.8212066929133854
20
-4.8552932677165357
11
6.8212066929133854
21
-4.8552933070866144
0
LINE
8
BLACK
6
CONTINUOUS
10
6.8212066929133854
20
-4.8552933070866144
11
4.3668759842519682
21
-4.8552933070866144
0
LINE
8
BLACK
6
CONTINUOUS
10
4.3668759842519682
20
-4.8552933070866144
11
4.3668759448818895
21
-4.8552932677165357
0
LINE
8
BLACK
6
CONTINUOUS
10
4.3668759448818895
20
-4.8552932677165357
11
4.3668759448818895
21
-4.8552933070866144
0
LINE
8
BLACK
6
CONTINUOUS
10
4.3668759448818895
20
-4.8552933070866144
11
4.3583315748031497
21
-4.8546819291338581
0
LINE
8
BLACK
6
CONTINUOUS
10
4.3583315748031497
20
-4.8546819291338581
11
4.3499611417322832
21
-4.8528608661417323
0
LINE
8
BLACK
6
CONTINUOUS
10
4.3499611417322832
20
-4.8528608661417323
11
4.3419350393700791
21
-4.8498671259842521
0
LINE
8
BLACK
6
CONTINUOUS
10
4.3419350393700791
20
-4.8498671259842521
11
4.3344166929133854
21
-4.845761653543307
0
LINE
8
BLACK
6
CONTINUOUS
10
4.3344166929133854
20
-4.845761653543307
11
4.3275590944881888
21
-4.840628070866142
0
LINE
8
BLACK
6
CONTINUOUS
10
4.3275590944881888
20
-4.840628070866142
11
4.3215018503937008
21
-4.8345708267716532
0
LINE
8
BLACK
6
CONTINUOUS
10
4.3215018503937008
20
-4.8345708267716532
11
4.3163682677165349
21
-4.8277132283464566
0
LINE
8
BLACK
6
CONTINUOUS
10
4.3163682677165349
20
-4.8277132283464566
11
4.3122627952755908
21
-4.8201948818897637
0
LINE
8
BLACK
6
CONTINUOUS
10
4.3122627952755908
20
-4.8201948818897637
11
4.3092690551181105
21
-4.8121687795275587
0
LINE
8
BLACK
6
CONTINUOUS
10
4.3092690551181105
20
-4.8121687795275587
11
4.3074479921259838
21
-4.8037983464566931
0
LINE
8
BLACK
6
CONTINUOUS
10
4.3074479921259838
20
-4.8037983464566931
11
4.3068366141732284
21
-4.7952539763779525
0
LINE
8
BLACK
6
CONTINUOUS
10
4.3068366141732284
20
-4.7952539763779525
11
4.3068366141732284
21
-4.7952539370078737
0
LINE
8
BLACK
6
CONTINUOUS
10
4.3068366141732284
20
-4.7952539370078737
11
4.3068366141732284
21
-4.2952539370078737
0
LINE
8
BLACK
6
CONTINUOUS
10
4.3068366141732284
20
-4.2952539370078737
11
4.3068366141732284
21
-4.295253897637795
0
LINE
8
BLACK
6
CONTINUOUS
10
4.3068366141732284
20
-4.295253897637795
11
4.3074479921259838
21
-4.2867095275590552
0
LINE
8
BLACK
6
CONTINUOUS
10
4.3074479921259838
20
-4.2867095275590552
11
4.3092690551181105
21
-4.2783390944881887
0
LINE
8
BLACK
6
CONTINUOUS
10
4.3092690551181105
20
-4.2783390944881887
11
4.3122627952755908
21
-4.2703130314960633
0
LINE
8
BLACK
6
CONTINUOUS
10
4.3122627952755908
20
-4.2703130314960633
11
4.3163682677165349
21
-4.2627946456692909
0
LINE
8
BLACK
6
CONTINUOUS
10
4.3163682677165349
20
-4.2627946456692909
11
4.3215018503937008
21
-4.2559370472440943
0
LINE
8
BLACK
6
CONTINUOUS
10
4.3215018503937008
20
-4.2559370472440943
11
4.3275590944881888
21
-4.2498798425196851
0
LINE
8
BLACK
6
CONTINUOUS
10
4.3275590944881888
20
-4.2498798425196851
11
4.3344166929133854
21
-4.2447462204724404
0
LINE
8
BLACK
6
CONTINUOUS
10
4.3344166929133854
20
-4.2447462204724404
11
4.3419350393700791
21
-4.240640787401575
0
LINE
8
BLACK
6
CONTINUOUS
10
4.3419350393700791
20
-4.240640787401575
11
4.3499611023622045
21
-4.2376470472440948
0
LINE
8
BLACK
6
CONTINUOUS
10
4.3499611023622045
20
-4.2376470472440948
11
4.3583315354330709
21
-4.2358259448818893
0
LINE
8
BLACK
6
CONTINUOUS
10
4.3583315354330709
20
-4.2358259448818893
11
4.3668759055118107
21
-4.2352145669291339
0
LINE
8
BLACK
6
CONTINUOUS
10
4.3668759055118107
20
-4.2352145669291339
11
4.3668759448818895
21
-4.2352145669291339
0
LINE
8
BLACK
6
CONTINUOUS
10
4.3668759448818895
20
-4.2352145669291339
11
6.8212066929133854
21
-4.2352145669291339
0
LINE
8
BLACK
6
CONTINUOUS
10
4.3668759842519682
20
-4.2371830708661413
11
4.3627227165354325
21
-4.2371831889763776
0
LINE
8
BLACK
6
CONTINUOUS
10
4.3627227165354325
20
-4.2371831889763776
11
4.3545007480314961
21
-4.2383655511811025
0
LINE
8
BLACK
6
CONTINUOUS
10
4.3545007480314961
20
-4.2383655511811025
11
4.3465307086614171
21
-4.2407059842519681
0
LINE
8
BLACK
6
CONTINUOUS
10
4.3465307086614171
20
-4.2407059842519681
11
4.3389748818897633
21
-4.2441567322834644
0
LINE
8
BLACK
6
CONTINUOUS
10
4.3389748818897633
20
-4.2441567322834644
11
4.3319870078740159
21
-4.2486476771653541
0
LINE
8
BLACK
6
CONTINUOUS
10
4.3319870078740159
20
-4.2486476771653541
11
4.3257093307086611
21
-4.2540873228346454
0
LINE
8
BLACK
6
CONTINUOUS
10
4.3257093307086611
20
-4.2540873228346454
11
4.3202696850393698
21
-4.2603650000000002
0
LINE
8
BLACK
6
CONTINUOUS
10
4.3202696850393698
20
-4.2603650000000002
11
4.3157787795275588
21
-4.2673528740157476
0
LINE
8
BLACK
6
CONTINUOUS
10
4.3157787795275588
20
-4.2673528740157476
11
4.3123279921259838
21
-4.2749087007874014
0
LINE
8
BLACK
6
CONTINUOUS
10
4.3123279921259838
20
-4.2749087007874014
11
4.309987598425197
21
-4.2828787401574804
0
LINE
8
BLACK
6
CONTINUOUS
10
4.309987598425197
20
-4.2828787401574804
11
4.3088052362204721
21
-4.2911007086614168
0
LINE
8
BLACK
6
CONTINUOUS
10
4.3088052362204721
20
-4.2911007086614168
11
4.3088051181102358
21
-4.295253897637795
0
LINE
8
BLACK
6
CONTINUOUS
10
4.3088051181102358
20
-4.295253897637795
11
4.3088051181102358
21
-4.2952539370078737
0
LINE
8
BLACK
6
CONTINUOUS
10
4.3088051181102358
20
-4.2952539370078737
11
4.3088051181102358
21
-4.795253897637795
0
LINE
8
BLACK
6
CONTINUOUS
10
4.3088051181102358
20
-4.795253897637795
11
4.3088052362204721
21
-4.7994071653543307
0
LINE
8
BLACK
6
CONTINUOUS
10
4.3088052362204721
20
-4.7994071653543307
11
4.309987598425197
21
-4.807629133858268
0
LINE
8
BLACK
6
CONTINUOUS
10
4.309987598425197
20
-4.807629133858268
11
4.3123279921259838
21
-4.8155991732283461
0
LINE
8
BLACK
6
CONTINUOUS
10
4.3123279921259838
20
-4.8155991732283461
11
4.3157787795275588
21
-4.8231550393700786
0
LINE
8
BLACK
6
CONTINUOUS
10
4.3157787795275588
20
-4.8231550393700786
11
4.3202697244094486
21
-4.8301429133858269
0
LINE
8
BLACK
6
CONTINUOUS
10
4.3202697244094486
20
-4.8301429133858269
11
4.3257093700787399
21
-4.836420551181102
0
LINE
8
BLACK
6
CONTINUOUS
10
4.3257093700787399
20
-4.836420551181102
11
4.3319870078740159
21
-4.8418601968503934
0
LINE
8
BLACK
6
CONTINUOUS
10
4.3319870078740159
20
-4.8418601968503934
11
4.3389748818897633
21
-4.8463511417322831
0
LINE
8
BLACK
6
CONTINUOUS
10
4.3389748818897633
20
-4.8463511417322831
11
4.3465307480314959
21
-4.8498019291338581
0
LINE
8
BLACK
6
CONTINUOUS
10
4.3465307480314959
20
-4.8498019291338581
11
4.3545007874015749
21
-4.8521423228346459
0
LINE
8
BLACK
6
CONTINUOUS
10
4.3545007874015749
20
-4.8521423228346459
11
4.3627227559055113
21
-4.8533246850393699
0
LINE
8
BLACK
6
CONTINUOUS
10
4.3627227559055113
20
-4.8533246850393699
11
4.366876023622047
21
-4.8533248031496061
0
LINE
8
BLACK
6
CONTINUOUS
10
4.366876023622047
20
-4.8533248031496061
11
6.8212066535433067
21
-4.8533248031496061
0
LINE
8
BLACK
6
CONTINUOUS
10
6.8212066535433067
20
-4.8533248031496061
11
6.8253599212598424
21
-4.8533246850393699
0
LINE
8
BLACK
6
CONTINUOUS
10
6.8253599212598424
20
-4.8533246850393699
11
6.8335818897637797
21
-4.8521423228346459
0
LINE
8
BLACK
6
CONTINUOUS
10
6.8335818897637797
20
-4.8521423228346459
11
6.8415519291338578
21
-4.8498019291338581
0
LINE
8
BLACK
6
CONTINUOUS
10
6.8415519291338578
20
-4.8498019291338581
11
6.8491077952755903
21
-4.8463511417322831
0
LINE
8
BLACK
6
CONTINUOUS
10
6.8491077952755903
20
-4.8463511417322831
11
6.8560956692913386
21
-4.8418601968503934
0
LINE
8
BLACK
6
CONTINUOUS
10
6.8560956692913386
20
-4.8418601968503934
11
6.8623733070866137
21
-4.836420551181102
0
LINE
8
BLACK
6
CONTINUOUS
10
6.8623733070866137
20
-4.836420551181102
11
6.8678129527559051
21
-4.8301429133858269
0
LINE
8
BLACK
6
CONTINUOUS
10
6.8678129527559051
20
-4.8301429133858269
11
6.8723038976377948
21
-4.8231550393700786
0
LINE
8
BLACK
6
CONTINUOUS
10
6.8723038976377948
20
-4.8231550393700786
11
6.8757546850393698
21
-4.8155991732283461
0
LINE
8
BLACK
6
CONTINUOUS
10
6.8757546850393698
20
-4.8155991732283461
11
6.8780950787401576
21
-4.807629133858268
0
LINE
8
BLACK
6
CONTINUOUS
10
6.8780950787401576
20
-4.807629133858268
11
6.8792774409448816
21
-4.7994071653543307
0
LINE
8
BLACK
6
CONTINUOUS
10
6.8792774409448816
20
-4.7994071653543307
11
6.8792775590551178
21
-4.795253897637795
0
LINE
8
BLACK
6
CONTINUOUS
10
6.8792775590551178
20
-4.795253897637795
11
6.8792775590551178
21
-4.2952539370078737
0
LINE
8
BLACK
6
CONTINUOUS
10
6.8792775590551178
20
-4.2952539370078737
11
6.8792775590551178
21
-4.295253897637795
0
LINE
8
BLACK
6
CONTINUOUS
10
6.8792775590551178
20
-4.295253897637795
11
6.8792774409448816
21
-4.2911007086614168
0
LINE
8
BLACK
6
CONTINUOUS
10
6.8792774409448816
20
-4.2911007086614168
11
6.8780950787401576
21
-4.2828787401574804
0
LINE
8
BLACK
6
CONTINUOUS
10
6.8780950787401576
20
-4.2828787401574804
11
6.8757546850393698
21
-4.2749087007874014
0
LINE
8
BLACK
6
CONTINUOUS
10
6.8757546850393698
20
-4.2749087007874014
11
6.8723038976377948
21
-4.2673528346456688
0
LINE
8
BLACK
6
CONTINUOUS
10
6.8723038976377948
20
-4.2673528346456688
11
6.8678129527559051
21
-4.2603649606299214
0
LINE
8
BLACK
6
CONTINUOUS
10
6.8678129527559051
20
-4.2603649606299214
11
6.8623733070866137
21
-4.2540873228346454
0
LINE
8
BLACK
6
CONTINUOUS
10
6.8623733070866137
20
-4.2540873228346454
11
6.8560956692913386
21
-4.2486476771653541
0
LINE
8
BLACK
6
CONTINUOUS
10
6.8560956692913386
20
-4.2486476771653541
11
6.8491077952755903
21
-4.2441567322834644
0
LINE
8
BLACK
6
CONTINUOUS
10
6.8491077952755903
20
-4.2441567322834644
11
6.8415519291338578
21
-4.2407059448818893
0
LINE
8
BLACK
6
CONTINUOUS
10
6.8415519291338578
20
-4.2407059448818893
11
6.8335818897637797
21
-4.2383655511811025
0
LINE
8
BLACK
6
CONTINUOUS
10
6.8335818897637797
20
-4.2383655511811025
11
6.8253599212598424
21
-4.2371831889763776
0
LINE
8
BLACK
6
CONTINUOUS
10
6.8253599212598424
20
-4.2371831889763776
11
6.8212066535433067
21
-4.2371830708661413
0
LINE
8
BLACK
6
CONTINUOUS
10
6.8212066535433067
20
-4.2371830708661413
11
4.3668759842519682
21
-4.2371830708661413
0
CIRCLE
8
BLACK
10
4.4424665354330708
20
-4.6279311023622043
40
0.0068897637795276
0
CIRCLE
8
BLACK
10
4.5424665354330704
20
-4.6279311023622043
40
0.0068897637795276
0
CIRCLE
8
BLACK
10
4.6424664960629922
20
-4.6279311023622043
40
0.0068897637795276
0
CIRCLE
8
BLACK
10
4.7424665354330706
20
-4.6279311023622043
40
0.0068897637795276
0
CIRCLE
8
BLACK
10
4.8424665354330712
20
-4.6279311023622043
40
0.0068897637795276
0
CIRCLE
8
BLACK
10
4.9424665354330708
20
-4.6279311023622043
40
0.0068897637795276
0
CIRCLE
8
BLACK
10
5.0424665354330704
20
-4.6279311023622043
40
0.0068897637795276
0
CIRCLE
8
BLACK
10
5.1424665748031497
20
-4.6279311023622043
40
0.0068897637795276
0
CIRCLE
8
BLACK
10
5.8424665354330712
20
-4.6279311023622043
40
0.0068897637795276
0
CIRCLE
8
BLACK
10
5.942466496062992
20
-4.6279311023622043
40
0.0068897637795276
0
CIRCLE
8
BLACK
10
6.0424665748031492
20
-4.6279311023622043
40
0.0068897637795276
0
CIRCLE
8
BLACK
10
6.142466535433071
20
-4.6279311023622043
40
0.0068897637795276
0
CIRCLE
8
BLACK
10
6.2424665354330706
20
-4.6279311023622043
40
0.0068897637795276
0
CIRCLE
8
BLACK
10
6.3424665354330712
20
-4.6279311023622043
40
0.0068897637795276
0
CIRCLE
8
BLACK
10
6.442466496062992
20
-4.6279311023622043
40
0.0068897637795276
0
CIRCLE
8
BLACK
10
6.5424665354330704
20
-4.6279311023622043
40
0.0068897637795276
0
CIRCLE
8
BLACK
10
6.642466535433071
20
-4.6279311023622043
40
0.0068897637795276
0
CIRCLE
8
BLACK
10
6.7424665354330706
20
-4.6279311023622043
40
0.0068897637795276
0
CIRCLE
8
BLACK
10
5.5800000000000001
20
-4.6626377952755904
40
0.0068897637795276
0
CIRCLE
8
BLACK
10
5.4799999999999995
20
-4.6626377952755904
40
0.0068897637795276
0
CIRCLE
8
BLACK
10
5.3800000393700786
20
-4.6626377952755904
40
0.0068897637795276
0
CIRCLE
8
BLACK
10
4.4424665354330708
20
-4.6279311023622043
40
0.0068897637795276
0
CIRCLE
8
BLACK
10
4.5424665354330704
20
-4.6279311023622043
40
0.0068897637795276
0
CIRCLE
8
BLACK
10
4.6424664960629922
20
-4.6279311023622043
40
0.0068897637795276
0
CIRCLE
8
BLACK
10
4.7424665354330706
20
-4.6279311023622043
40
0.0068897637795276
0
CIRCLE
8
BLACK
10
4.8424665354330712
20
-4.6279311023622043
40
0.0068897637795276
0
CIRCLE
8
BLACK
10
4.9424665354330708
20
-4.6279311023622043
40
0.0068897637795276
0
CIRCLE
8
BLACK
10
5.0424665354330704
20
-4.6279311023622043
40
0.0068897637795276
0
CIRCLE
8
BLACK
10
5.1424665748031497
20
-4.6279311023622043
40
0.0068897637795276
0
CIRCLE
8
BLACK
10
5.8424665354330712
20
-4.6279311023622043
40
0.0068897637795276
0
CIRCLE
8
BLACK
10
5.942466496062992
20
-4.6279311023622043
40
0.0068897637795276
0
CIRCLE
8
BLACK
10
6.0424665748031492
20
-4.6279311023622043
40
0.0068897637795276
0
CIRCLE
8
BLACK
10
6.142466535433071
20
-4.6279311023622043
40
0.0068897637795276
0
CIRCLE
8
BLACK
10
6.2424665354330706
20
-4.6279311023622043
40
0.0068897637795276
0
CIRCLE
8
BLACK
10
6.3424665354330712
20
-4.6279311023622043
40
0.0068897637795276
0
CIRCLE
8
BLACK
10
6.442466496062992
20
-4.6279311023622043
40
0.0068897637795276
0
CIRCLE
8
BLACK
10
6.5424665354330704
20
-4.6279311023622043
40
0.0068897637795276
0
CIRCLE
8
BLACK
10
6.642466535433071
20
-4.6279311023622043
40
0.0068897637795276
0
CIRCLE
8
BLACK
10
6.7424665354330706
20
-4.6279311023622043
40
0.0068897637795276
0
CIRCLE
8
BLACK
10
5.5800000000000001
20
-4.6626377952755904
40
0.0068897637795276
0
CIRCLE
8
BLACK
10
5.4799999999999995
20
-4.6626377952755904
40
0.0068897637795276
0
CIRCLE
8
BLACK
10
5.3800000393700786
20
-4.6626377952755904
40
0.0068897637795276
  0
ENDSEC
  0
EOF
