%TF.GenerationSoftware,KiCad,Pcbnew,9.0.6+1*%
%TF.CreationDate,2026-01-02T23:56:58+00:00*%
%TF.ProjectId,TFFLIP2PH,5446464c-4950-4325-9048-2e6b69636164,A*%
%TF.SameCoordinates,Original*%
%TF.FileFunction,Legend,Bot*%
%TF.FilePolarity,Positive*%
%FSLAX46Y46*%
G04 Gerber Fmt 4.6, Leading zero omitted, Abs format (unit mm)*
G04 Created by KiCad (PCBNEW 9.0.6+1) date 2026-01-02 23:56:58*
%MOMM*%
%LPD*%
G01*
G04 APERTURE LIST*
%ADD10C,0.000000*%
%ADD11C,0.150000*%
%ADD12C,0.120000*%
%ADD13C,0.010000*%
G04 APERTURE END LIST*
D10*
G36*
X117468649Y-110658274D02*
G01*
X117389274Y-110658273D01*
X117389274Y-110578899D01*
X117468648Y-110578899D01*
X117468649Y-110658274D01*
G37*
G36*
X116278024Y-109864524D02*
G01*
X116278024Y-109943898D01*
X116198649Y-109943900D01*
X116198649Y-109864523D01*
X116278024Y-109864524D01*
G37*
G36*
X112706149Y-108832650D02*
G01*
X112706149Y-108991399D01*
X112468025Y-108991400D01*
X112468025Y-109070774D01*
X112309274Y-109070774D01*
X112309274Y-109150148D01*
X112150525Y-109150149D01*
X112150525Y-109229525D01*
X112071150Y-109229525D01*
X112071150Y-109308899D01*
X111991776Y-109308899D01*
X111991776Y-109388274D01*
X111912401Y-109388274D01*
X111912401Y-109467648D01*
X111833024Y-109467648D01*
X111833024Y-109626398D01*
X111753650Y-109626400D01*
X111753650Y-109785149D01*
X111674275Y-109785150D01*
X111674275Y-110023275D01*
X111515524Y-110023275D01*
X111515524Y-109705773D01*
X111594899Y-109705772D01*
X111594900Y-109547025D01*
X111674274Y-109547023D01*
X111674275Y-109388275D01*
X111753650Y-109388274D01*
X111753650Y-109308899D01*
X111833024Y-109308900D01*
X111833024Y-109229523D01*
X111912401Y-109229525D01*
X111912401Y-109150150D01*
X111991776Y-109150150D01*
X111991776Y-109070774D01*
X112071150Y-109070774D01*
X112071150Y-108991400D01*
X112229899Y-108991399D01*
X112229899Y-108912025D01*
X112388649Y-108912025D01*
X112388649Y-108832648D01*
X112706149Y-108832650D01*
G37*
G36*
X114690524Y-113436399D02*
G01*
X114611149Y-113436398D01*
X114611149Y-113357024D01*
X114690524Y-113357023D01*
X114690524Y-113436399D01*
G37*
G36*
X115643025Y-110023275D02*
G01*
X115563650Y-110023275D01*
X115563650Y-109943900D01*
X115643025Y-109943900D01*
X115643025Y-110023275D01*
G37*
G36*
X115246150Y-109943900D02*
G01*
X115166775Y-109943900D01*
X115166775Y-109864526D01*
X115246150Y-109864524D01*
X115246150Y-109943900D01*
G37*
G36*
X117468649Y-110420150D02*
G01*
X117389274Y-110420148D01*
X117389274Y-110340775D01*
X117468649Y-110340773D01*
X117468649Y-110420150D01*
G37*
G36*
X115166775Y-114388899D02*
G01*
X115246150Y-114388899D01*
X115246150Y-114547648D01*
X115325524Y-114547648D01*
X115325524Y-114706397D01*
X115404899Y-114706400D01*
X115404899Y-114865150D01*
X115246150Y-114865149D01*
X115246150Y-114785772D01*
X115166775Y-114785774D01*
X115166775Y-114627025D01*
X115087399Y-114627024D01*
X115087399Y-114547648D01*
X114293651Y-114547649D01*
X114293651Y-114468275D01*
X114214274Y-114468275D01*
X114214274Y-114388898D01*
X114134900Y-114388899D01*
X114134900Y-114309522D01*
X114055525Y-114309525D01*
X114055525Y-114230149D01*
X113976151Y-114230148D01*
X114293651Y-114230148D01*
X114293651Y-114309525D01*
X114373025Y-114309525D01*
X114373026Y-114388899D01*
X115008024Y-114388898D01*
X115008024Y-114309525D01*
X114928650Y-114309522D01*
X114928650Y-114230148D01*
X114293651Y-114230148D01*
X113976151Y-114230148D01*
X113976149Y-114071397D01*
X115087401Y-114071399D01*
X115087399Y-114230146D01*
X115166775Y-114230148D01*
X115166775Y-114309525D01*
X115166775Y-114388899D01*
G37*
G36*
X114690524Y-110261399D02*
G01*
X114611149Y-110261398D01*
X114611149Y-110182024D01*
X114690524Y-110182024D01*
X114690524Y-110261399D01*
G37*
G36*
X116119274Y-109864525D02*
G01*
X116119274Y-109943898D01*
X116198649Y-109943900D01*
X116198649Y-110023273D01*
X116278024Y-110023275D01*
X116278026Y-110102649D01*
X116198649Y-110102650D01*
X116198649Y-110182024D01*
X116119274Y-110182025D01*
X116119274Y-110023275D01*
X116039900Y-110023275D01*
X116039900Y-109864524D01*
X116119274Y-109864525D01*
G37*
G36*
X118024275Y-111293274D02*
G01*
X118024274Y-111372650D01*
X117944900Y-111372649D01*
X117944899Y-111293272D01*
X118024275Y-111293274D01*
G37*
G36*
X118024274Y-111769525D02*
G01*
X118024275Y-111848899D01*
X117944900Y-111848900D01*
X117944900Y-111769524D01*
X118024274Y-111769525D01*
G37*
G36*
X116436775Y-110499524D02*
G01*
X116436775Y-110578900D01*
X116357400Y-110578899D01*
X116357399Y-110499522D01*
X116436775Y-110499524D01*
G37*
G36*
X115563650Y-110658276D02*
G01*
X115246150Y-110658274D01*
X115246150Y-110578900D01*
X115563650Y-110578899D01*
X115563650Y-110658276D01*
G37*
G36*
X116754275Y-114230148D02*
G01*
X116833650Y-114230149D01*
X116833650Y-114388899D01*
X116913024Y-114388899D01*
X116913024Y-114547648D01*
X116992399Y-114547649D01*
X116992399Y-114706400D01*
X117071774Y-114706398D01*
X117071776Y-114865149D01*
X116913024Y-114865149D01*
X116913024Y-114785772D01*
X116833650Y-114785772D01*
X116833650Y-114627024D01*
X116754275Y-114627025D01*
X116754274Y-114468272D01*
X116674901Y-114468274D01*
X116674899Y-114309523D01*
X116595524Y-114309525D01*
X116595524Y-114071400D01*
X116754274Y-114071397D01*
X116754275Y-114230148D01*
G37*
G36*
X114611149Y-113515775D02*
G01*
X114531775Y-113515772D01*
X114531775Y-113436400D01*
X114611149Y-113436398D01*
X114611149Y-113515775D01*
G37*
G36*
X117309899Y-110499524D02*
G01*
X117151149Y-110499522D01*
X117151150Y-110420150D01*
X117309899Y-110420150D01*
X117309899Y-110499524D01*
G37*
G36*
X115643025Y-110499524D02*
G01*
X115643025Y-110578900D01*
X115563650Y-110578899D01*
X115563649Y-110499522D01*
X115643025Y-110499524D01*
G37*
G36*
X113261775Y-112007650D02*
G01*
X113023649Y-112007648D01*
X113023649Y-111928275D01*
X113261775Y-111928275D01*
X113261775Y-112007650D01*
G37*
G36*
X117786149Y-111690150D02*
G01*
X117786149Y-111769524D01*
X117706774Y-111769525D01*
X117706774Y-111690149D01*
X117786149Y-111690150D01*
G37*
G36*
X118183024Y-111531400D02*
G01*
X118103649Y-111531398D01*
X118103649Y-111452025D01*
X118183024Y-111452023D01*
X118183024Y-111531400D01*
G37*
G36*
X117786149Y-111928275D02*
G01*
X117706774Y-111928273D01*
X117706774Y-111848900D01*
X117786149Y-111848898D01*
X117786149Y-111928275D01*
G37*
G36*
X115246150Y-110578900D02*
G01*
X115087399Y-110578899D01*
X115087401Y-110499524D01*
X115246150Y-110499524D01*
X115246150Y-110578900D01*
G37*
G36*
X117865524Y-112007650D02*
G01*
X117786149Y-112007648D01*
X117786149Y-111928275D01*
X117865524Y-111928273D01*
X117865524Y-112007650D01*
G37*
G36*
X115722399Y-110182025D02*
G01*
X115643025Y-110182025D01*
X115643025Y-110023275D01*
X115722399Y-110023275D01*
X115722399Y-110182025D01*
G37*
G36*
X115563650Y-109864526D02*
G01*
X115563650Y-109943900D01*
X115484274Y-109943898D01*
X115484274Y-109864524D01*
X115563650Y-109864526D01*
G37*
G36*
X114928650Y-110420150D02*
G01*
X114849275Y-110420150D01*
X114849275Y-110340775D01*
X114928650Y-110340774D01*
X114928650Y-110420150D01*
G37*
G36*
X115801774Y-109547025D02*
G01*
X115801774Y-109626398D01*
X115722399Y-109626400D01*
X115722399Y-109547023D01*
X115801774Y-109547025D01*
G37*
G36*
X116516149Y-110182025D02*
G01*
X117230525Y-110182025D01*
X117230525Y-110261399D01*
X116516149Y-110261400D01*
X116516149Y-110340773D01*
X116357400Y-110340775D01*
X116357400Y-110420150D01*
X116278024Y-110420150D01*
X116278024Y-110340773D01*
X116198649Y-110340775D01*
X116198649Y-110182024D01*
X116278023Y-110182024D01*
X116278024Y-110261399D01*
X116357400Y-110261401D01*
X116357400Y-110182024D01*
X116436775Y-110182025D01*
X116436775Y-110102649D01*
X116516149Y-110102649D01*
X116516149Y-110182025D01*
G37*
G36*
X115008024Y-113277650D02*
G01*
X114928650Y-113277649D01*
X114928650Y-113198274D01*
X115008024Y-113198273D01*
X115008024Y-113277650D01*
G37*
G36*
X115404899Y-109705775D02*
G01*
X115404899Y-109785149D01*
X115325524Y-109785150D01*
X115325524Y-109705774D01*
X115404899Y-109705775D01*
G37*
G36*
X117389274Y-110340775D02*
G01*
X117230525Y-110340775D01*
X117230525Y-110261399D01*
X117389274Y-110261398D01*
X117389274Y-110340775D01*
G37*
G36*
X116119274Y-109785150D02*
G01*
X116039900Y-109785150D01*
X116039900Y-109705774D01*
X116119274Y-109705774D01*
X116119274Y-109785150D01*
G37*
G36*
X118262399Y-111848899D02*
G01*
X118262399Y-111928273D01*
X118183024Y-111928275D01*
X118183024Y-111848898D01*
X118262399Y-111848899D01*
G37*
G36*
X117627400Y-112087024D02*
G01*
X117548024Y-112087022D01*
X117548025Y-112007650D01*
X117627400Y-112007650D01*
X117627400Y-112087024D01*
G37*
G36*
X114928650Y-113357024D02*
G01*
X114849275Y-113357023D01*
X114849275Y-113277649D01*
X114928650Y-113277649D01*
X114928650Y-113357024D01*
G37*
G36*
X112706149Y-109785149D02*
G01*
X112547400Y-109785149D01*
X112547399Y-109864523D01*
X112468025Y-109864524D01*
X112468025Y-110023275D01*
X112309274Y-110023275D01*
X112309274Y-109785149D01*
X112388651Y-109785149D01*
X112388649Y-109705772D01*
X112468025Y-109705774D01*
X112468025Y-109626400D01*
X112706149Y-109626400D01*
X112706149Y-109785149D01*
G37*
G36*
X114611149Y-110499525D02*
G01*
X114452400Y-110499524D01*
X114452400Y-110420150D01*
X114611149Y-110420148D01*
X114611149Y-110499525D01*
G37*
G36*
X118262398Y-111769524D02*
G01*
X118183024Y-111769524D01*
X118183024Y-111690150D01*
X118262401Y-111690149D01*
X118262398Y-111769524D01*
G37*
G36*
X116357400Y-109864526D02*
G01*
X116278024Y-109864524D01*
X116278023Y-109785149D01*
X116357400Y-109785149D01*
X116357400Y-109864526D01*
G37*
G36*
X115087399Y-110817025D02*
G01*
X114928650Y-110817025D01*
X114928650Y-110737649D01*
X115087399Y-110737648D01*
X115087399Y-110817025D01*
G37*
G36*
X118024275Y-111531400D02*
G01*
X117944900Y-111531400D01*
X117944900Y-111452025D01*
X118024275Y-111452024D01*
X118024275Y-111531400D01*
G37*
G36*
X113817399Y-114071400D02*
G01*
X113817399Y-114230148D01*
X113896774Y-114230146D01*
X113896774Y-114388900D01*
X113976151Y-114388899D01*
X113976151Y-114547648D01*
X114055525Y-114547648D01*
X114055525Y-114706400D01*
X114134900Y-114706397D01*
X114134900Y-114865149D01*
X113103026Y-114865150D01*
X113103026Y-114785773D01*
X113023649Y-114785773D01*
X113023649Y-114706400D01*
X113896774Y-114706398D01*
X113896774Y-114627024D01*
X113817399Y-114627023D01*
X113817399Y-114547649D01*
X113103026Y-114547649D01*
X113103026Y-114468275D01*
X113023649Y-114468275D01*
X113023649Y-114388898D01*
X113738025Y-114388898D01*
X113738026Y-114309525D01*
X113658650Y-114309525D01*
X113658650Y-114230149D01*
X112785526Y-114230148D01*
X112785526Y-114150773D01*
X112706148Y-114150773D01*
X112706151Y-114071399D01*
X113817399Y-114071400D01*
G37*
G36*
X115960525Y-109547025D02*
G01*
X115960525Y-109626400D01*
X116039900Y-109626400D01*
X116039900Y-109705774D01*
X115960524Y-109705772D01*
X115960525Y-109785149D01*
X115881148Y-109785149D01*
X115881151Y-109705774D01*
X115801774Y-109705775D01*
X115801774Y-109626398D01*
X115881149Y-109626400D01*
X115881149Y-109547023D01*
X115960525Y-109547025D01*
G37*
G36*
X113817399Y-111928275D02*
G01*
X113658650Y-111928275D01*
X113658650Y-111848899D01*
X113817399Y-111848898D01*
X113817399Y-111928275D01*
G37*
G36*
X117071774Y-110658274D02*
G01*
X117230525Y-110658274D01*
X117230525Y-110737650D01*
X117309899Y-110737648D01*
X117309899Y-110896399D01*
X117389274Y-110896400D01*
X117389274Y-111055148D01*
X117389274Y-111293275D01*
X117309899Y-111293274D01*
X117309899Y-111452025D01*
X117230525Y-111452024D01*
X117230525Y-111610775D01*
X117151150Y-111610775D01*
X117151150Y-111531400D01*
X116992399Y-111531400D01*
X116992399Y-111452023D01*
X116754275Y-111452025D01*
X116754275Y-111372649D01*
X116278023Y-111372649D01*
X116278026Y-111293274D01*
X116357399Y-111293272D01*
X116357399Y-111055150D01*
X116913024Y-111055150D01*
X117071774Y-111055149D01*
X117071776Y-110896399D01*
X116913024Y-110896399D01*
X116913024Y-111055150D01*
X116357399Y-111055150D01*
X116357399Y-110896397D01*
X116436775Y-110896399D01*
X116436775Y-110737650D01*
X116516149Y-110737648D01*
X116516149Y-110658275D01*
X116674899Y-110658274D01*
X116674898Y-110578899D01*
X117071773Y-110578899D01*
X117071774Y-110658274D01*
G37*
G36*
X117548025Y-111928275D02*
G01*
X117548025Y-112007650D01*
X117468649Y-112007650D01*
X117468649Y-111928273D01*
X117548025Y-111928275D01*
G37*
G36*
X117468649Y-111610775D02*
G01*
X117389274Y-111610773D01*
X117389274Y-111531400D01*
X117468649Y-111531398D01*
X117468649Y-111610775D01*
G37*
G36*
X117944900Y-111452025D02*
G01*
X117865524Y-111452024D01*
X117865523Y-111372649D01*
X117944900Y-111372649D01*
X117944900Y-111452025D01*
G37*
G36*
X118024275Y-112007650D02*
G01*
X117944900Y-112007650D01*
X117944900Y-111928275D01*
X118024275Y-111928275D01*
X118024275Y-112007650D01*
G37*
G36*
X114849275Y-110578900D02*
G01*
X114849275Y-110658274D01*
X114690524Y-110658274D01*
X114690524Y-110578899D01*
X114849275Y-110578900D01*
G37*
G36*
X115325524Y-109705774D02*
G01*
X115246150Y-109705774D01*
X115246150Y-109626400D01*
X115325524Y-109626400D01*
X115325524Y-109705774D01*
G37*
G36*
X117706774Y-112007650D02*
G01*
X117627400Y-112007650D01*
X117627400Y-111928275D01*
X117706774Y-111928273D01*
X117706774Y-112007650D01*
G37*
G36*
X117944900Y-111531400D02*
G01*
X117944900Y-111610775D01*
X117865524Y-111610775D01*
X117865524Y-111531398D01*
X117944900Y-111531400D01*
G37*
G36*
X117865524Y-111848899D02*
G01*
X117786149Y-111848898D01*
X117786149Y-111769524D01*
X117865523Y-111769524D01*
X117865524Y-111848899D01*
G37*
G36*
X115643025Y-111134525D02*
G01*
X115484274Y-111134523D01*
X115484274Y-111055149D01*
X115643025Y-111055149D01*
X115643025Y-111134525D01*
G37*
G36*
X116516149Y-109467650D02*
G01*
X116516149Y-109547023D01*
X116278024Y-109547023D01*
X116278024Y-109467649D01*
X116516149Y-109467650D01*
G37*
G36*
X116595524Y-110499525D02*
G01*
X116436775Y-110499524D01*
X116436775Y-110420150D01*
X116595524Y-110420148D01*
X116595524Y-110499525D01*
G37*
G36*
X118183024Y-111690150D02*
G01*
X118103649Y-111690149D01*
X118103649Y-111610775D01*
X118183024Y-111610773D01*
X118183024Y-111690150D01*
G37*
G36*
X117389274Y-110499525D02*
G01*
X117389274Y-110578899D01*
X117309899Y-110578900D01*
X117309899Y-110499524D01*
X117389274Y-110499525D01*
G37*
G36*
X118024275Y-111690149D02*
G01*
X117944899Y-111690147D01*
X117944900Y-111610775D01*
X118024275Y-111610775D01*
X118024275Y-111690149D01*
G37*
G36*
X114928650Y-110658275D02*
G01*
X114928650Y-110737649D01*
X114849275Y-110737650D01*
X114849275Y-110658274D01*
X114928650Y-110658275D01*
G37*
G36*
X117706774Y-111452025D02*
G01*
X117706774Y-111531398D01*
X117786149Y-111531400D01*
X117786149Y-111610773D01*
X117706774Y-111610775D01*
X117706774Y-111690149D01*
X117627400Y-111690149D01*
X117627400Y-111769525D01*
X117548025Y-111769524D01*
X117548025Y-111848900D01*
X117468649Y-111848899D01*
X117468649Y-111928273D01*
X117389274Y-111928275D01*
X117389274Y-112007648D01*
X117309899Y-112007650D01*
X117309899Y-111769525D01*
X117230525Y-111769525D01*
X117230525Y-111610775D01*
X117389274Y-111610773D01*
X117389274Y-111769524D01*
X117468648Y-111769524D01*
X117468651Y-111690149D01*
X117548024Y-111690147D01*
X117548025Y-111610775D01*
X117627400Y-111610775D01*
X117627400Y-111452024D01*
X117706774Y-111452025D01*
G37*
G36*
X116198649Y-111372649D02*
G01*
X116278023Y-111372649D01*
X116278024Y-111452024D01*
X116119274Y-111452025D01*
X116119274Y-110817025D01*
X116198649Y-110817023D01*
X116198649Y-111372649D01*
G37*
G36*
X118262399Y-111610775D02*
G01*
X118183024Y-111610773D01*
X118183024Y-111531400D01*
X118262399Y-111531398D01*
X118262399Y-111610775D01*
G37*
G36*
X115087399Y-110023275D02*
G01*
X115087401Y-110102649D01*
X115008024Y-110102650D01*
X115008024Y-110023273D01*
X115087399Y-110023275D01*
G37*
G36*
X113976151Y-112166399D02*
G01*
X113579276Y-112166399D01*
X113579274Y-112087022D01*
X113976149Y-112087022D01*
X113976151Y-112166399D01*
G37*
G36*
X115325524Y-110896399D02*
G01*
X115325524Y-110975775D01*
X115166775Y-110975774D01*
X115166774Y-110896397D01*
X115325524Y-110896399D01*
G37*
G36*
X116198649Y-110499525D02*
G01*
X116198649Y-110578899D01*
X116119274Y-110578900D01*
X116119274Y-110499524D01*
X116198649Y-110499525D01*
G37*
G36*
X117865523Y-112166399D02*
G01*
X117786149Y-112166399D01*
X117786149Y-112087025D01*
X117865526Y-112087024D01*
X117865523Y-112166399D01*
G37*
G36*
X117706774Y-111848900D02*
G01*
X117627400Y-111848899D01*
X117627400Y-111769525D01*
X117706774Y-111769525D01*
X117706774Y-111848900D01*
G37*
G36*
X116357400Y-114230148D02*
G01*
X116436775Y-114230149D01*
X116436775Y-114309525D01*
X116436775Y-114388899D01*
X116516149Y-114388899D01*
X116516149Y-114547648D01*
X116595524Y-114547649D01*
X116595524Y-114706400D01*
X116674899Y-114706398D01*
X116674901Y-114865149D01*
X116516149Y-114865149D01*
X116516149Y-114785772D01*
X116436775Y-114785772D01*
X116436775Y-114627024D01*
X116357400Y-114627025D01*
X116357400Y-114547648D01*
X115563650Y-114547648D01*
X115563649Y-114468272D01*
X115484276Y-114468274D01*
X115484274Y-114388900D01*
X115404899Y-114388898D01*
X115404899Y-114309525D01*
X115563650Y-114309525D01*
X115643025Y-114309525D01*
X115643025Y-114388899D01*
X116278024Y-114388900D01*
X116278024Y-114309523D01*
X116198649Y-114309525D01*
X116198649Y-114230148D01*
X115563650Y-114230148D01*
X115563650Y-114309525D01*
X115404899Y-114309525D01*
X115325524Y-114309522D01*
X115325524Y-114230149D01*
X115246150Y-114230149D01*
X115246150Y-114071399D01*
X116357399Y-114071397D01*
X116357400Y-114230148D01*
G37*
G36*
X114849275Y-109943900D02*
G01*
X114769900Y-109943900D01*
X114769900Y-109864526D01*
X114849275Y-109864524D01*
X114849275Y-109943900D01*
G37*
G36*
X114769900Y-109943900D02*
G01*
X114769900Y-110023275D01*
X114690524Y-110023275D01*
X114690524Y-109943898D01*
X114769900Y-109943900D01*
G37*
G36*
X115801774Y-110420148D02*
G01*
X115722399Y-110420150D01*
X115722399Y-110182025D01*
X115801774Y-110182024D01*
X115801774Y-110420148D01*
G37*
G36*
X118103649Y-111848900D02*
G01*
X118103649Y-111928273D01*
X118024275Y-111928275D01*
X118024275Y-111848899D01*
X118103649Y-111848900D01*
G37*
G36*
X115643025Y-109388275D02*
G01*
X115643025Y-109467649D01*
X115563650Y-109467651D01*
X115563650Y-109388274D01*
X115643025Y-109388275D01*
G37*
G36*
X115404899Y-110102650D02*
G01*
X115404899Y-110182024D01*
X115325524Y-110182025D01*
X115325524Y-110102649D01*
X115404899Y-110102650D01*
G37*
G36*
X117944899Y-112087022D02*
G01*
X117865526Y-112087024D01*
X117865524Y-112007650D01*
X117944900Y-112007650D01*
X117944899Y-112087022D01*
G37*
G36*
X113658650Y-111928275D02*
G01*
X113658650Y-112007650D01*
X113579276Y-112007650D01*
X113579274Y-112087022D01*
X113261775Y-112087024D01*
X113261775Y-112007650D01*
X113499899Y-112007650D01*
X113499899Y-111928273D01*
X113658650Y-111928275D01*
G37*
G36*
X115166774Y-110896397D02*
G01*
X115087401Y-110896399D01*
X115087399Y-110817025D01*
X115166775Y-110817025D01*
X115166774Y-110896397D01*
G37*
G36*
X114531775Y-113357024D02*
G01*
X114531775Y-113436400D01*
X114452400Y-113436399D01*
X114452400Y-113357023D01*
X114531775Y-113357024D01*
G37*
G36*
X115246150Y-109626400D02*
G01*
X115166775Y-109626400D01*
X115166775Y-109547025D01*
X115246150Y-109547025D01*
X115246150Y-109626400D01*
G37*
G36*
X117151150Y-110420150D02*
G01*
X116595524Y-110420148D01*
X116595524Y-110340775D01*
X117151150Y-110340775D01*
X117151150Y-110420150D01*
G37*
G36*
X117627400Y-111372650D02*
G01*
X117548025Y-111372649D01*
X117548025Y-110817025D01*
X117627400Y-110817025D01*
X117627400Y-111372650D01*
G37*
G36*
X117548025Y-111531400D02*
G01*
X117468649Y-111531398D01*
X117468648Y-111372649D01*
X117548025Y-111372649D01*
X117548025Y-111531400D01*
G37*
G36*
X117865524Y-111610775D02*
G01*
X117865526Y-111690149D01*
X117786149Y-111690150D01*
X117786149Y-111610773D01*
X117865524Y-111610775D01*
G37*
G36*
X114849275Y-110340775D02*
G01*
X114690524Y-110340773D01*
X114690524Y-110261399D01*
X114849275Y-110261399D01*
X114849275Y-110340775D01*
G37*
G36*
X118103649Y-111452025D02*
G01*
X118024275Y-111452024D01*
X118024274Y-111372650D01*
X118103649Y-111372650D01*
X118103649Y-111452025D01*
G37*
G36*
X117786149Y-110737650D02*
G01*
X117786149Y-111293275D01*
X117865526Y-111293274D01*
X117865523Y-111372649D01*
X117786149Y-111372649D01*
X117786149Y-111452023D01*
X117706774Y-111452025D01*
X117706774Y-110737648D01*
X117786149Y-110737650D01*
G37*
G36*
X117786149Y-112087025D02*
G01*
X117706774Y-112087024D01*
X117706774Y-112007650D01*
X117786149Y-112007648D01*
X117786149Y-112087025D01*
G37*
G36*
X116039900Y-109785150D02*
G01*
X116039900Y-109864524D01*
X115960525Y-109864526D01*
X115960525Y-109785149D01*
X116039900Y-109785150D01*
G37*
G36*
X115801774Y-111213898D02*
G01*
X115643025Y-111213900D01*
X115643025Y-111134525D01*
X115801774Y-111134525D01*
X115801774Y-111213898D01*
G37*
G36*
X117627400Y-111928275D02*
G01*
X117548025Y-111928275D01*
X117548025Y-111848900D01*
X117627400Y-111848899D01*
X117627400Y-111928275D01*
G37*
G36*
X116357400Y-110658276D02*
G01*
X116278024Y-110658274D01*
X116278023Y-110578899D01*
X116357400Y-110578899D01*
X116357400Y-110658276D01*
G37*
G36*
X115246150Y-110340775D02*
G01*
X115166775Y-110340775D01*
X115166775Y-110261401D01*
X115246150Y-110261399D01*
X115246150Y-110340775D01*
G37*
G36*
X115801774Y-109467648D02*
G01*
X115722399Y-109467650D01*
X115722399Y-109388275D01*
X115801774Y-109388274D01*
X115801774Y-109467648D01*
G37*
G36*
X114769900Y-113357023D02*
G01*
X114690524Y-113357023D01*
X114690526Y-113277649D01*
X114769899Y-113277647D01*
X114769900Y-113357023D01*
G37*
G36*
X116357400Y-109943900D02*
G01*
X116357400Y-110023275D01*
X116278024Y-110023275D01*
X116278024Y-109943898D01*
X116357400Y-109943900D01*
G37*
G36*
X116278024Y-110658274D02*
G01*
X116278024Y-110817025D01*
X116198649Y-110817023D01*
X116198649Y-110658273D01*
X116278024Y-110658274D01*
G37*
G36*
X118103649Y-111610775D02*
G01*
X118024275Y-111610775D01*
X118024275Y-111531400D01*
X118103649Y-111531398D01*
X118103649Y-111610775D01*
G37*
G36*
X118183024Y-111848898D02*
G01*
X118103649Y-111848900D01*
X118103649Y-111769525D01*
X118183024Y-111769524D01*
X118183024Y-111848898D01*
G37*
G36*
X118183024Y-111928275D02*
G01*
X118183024Y-112007648D01*
X118103649Y-112007650D01*
X118103649Y-111928273D01*
X118183024Y-111928275D01*
G37*
G36*
X115484274Y-109864524D02*
G01*
X115404899Y-109864523D01*
X115404899Y-109785149D01*
X115484274Y-109785149D01*
X115484274Y-109864524D01*
G37*
G36*
X117627400Y-110499524D02*
G01*
X117627400Y-110578900D01*
X117548025Y-110578899D01*
X117548024Y-110499522D01*
X117627400Y-110499524D01*
G37*
G36*
X116357400Y-110182024D02*
G01*
X116278023Y-110182024D01*
X116278026Y-110102649D01*
X116357399Y-110102647D01*
X116357400Y-110182024D01*
G37*
G36*
X117706774Y-110737648D02*
G01*
X117627400Y-110737650D01*
X117627400Y-110578900D01*
X117706774Y-110578900D01*
X117706774Y-110737648D01*
G37*
G36*
X118103649Y-112087024D02*
G01*
X118024275Y-112087024D01*
X118024275Y-112007650D01*
X118103649Y-112007650D01*
X118103649Y-112087024D01*
G37*
G36*
X116913024Y-109229525D02*
G01*
X117230525Y-109229525D01*
X117230525Y-109308899D01*
X117468651Y-109308899D01*
X117468648Y-109388274D01*
X117548025Y-109388274D01*
X117548025Y-109467651D01*
X117706774Y-109467650D01*
X117706774Y-109547023D01*
X117865524Y-109547023D01*
X117865524Y-109626400D01*
X117944900Y-109626400D01*
X117944899Y-109705772D01*
X118024275Y-109705774D01*
X118024274Y-109785150D01*
X118103649Y-109785150D01*
X118103649Y-109864525D01*
X118183024Y-109864523D01*
X118183024Y-109943900D01*
X118262399Y-109943898D01*
X118262401Y-110102649D01*
X118341774Y-110102647D01*
X118341775Y-110340775D01*
X118262399Y-110340773D01*
X118262398Y-110182024D01*
X118183024Y-110182024D01*
X118183024Y-110023273D01*
X118103649Y-110023275D01*
X118103649Y-109943898D01*
X118024275Y-109943900D01*
X118024275Y-109864524D01*
X117944900Y-109864526D01*
X117944900Y-109785149D01*
X117865523Y-109785149D01*
X117865526Y-109705774D01*
X117786149Y-109705775D01*
X117786149Y-109626398D01*
X117627400Y-109626400D01*
X117627400Y-109547025D01*
X117468649Y-109547023D01*
X117468649Y-109467649D01*
X116516149Y-109467650D01*
X116516149Y-109388275D01*
X117151150Y-109388274D01*
X117151149Y-109308897D01*
X116833650Y-109308899D01*
X116833650Y-109229525D01*
X115801774Y-109229523D01*
X115801774Y-109308900D01*
X115722399Y-109308899D01*
X115722399Y-109388275D01*
X115643025Y-109388275D01*
X115643025Y-109308899D01*
X115563649Y-109308897D01*
X115563650Y-109388274D01*
X115166775Y-109388274D01*
X115166775Y-109547025D01*
X114849275Y-109547025D01*
X114849275Y-109626400D01*
X114769900Y-109626400D01*
X114769899Y-109705772D01*
X114690526Y-109705774D01*
X114690524Y-109785149D01*
X114611149Y-109785149D01*
X114611149Y-109864523D01*
X114531775Y-109864525D01*
X114531775Y-110102649D01*
X114611149Y-110102650D01*
X114611149Y-110182024D01*
X114373026Y-110182024D01*
X114373025Y-110340775D01*
X114214274Y-110340775D01*
X114214274Y-110261398D01*
X114055525Y-110261399D01*
X114055525Y-110182025D01*
X113896774Y-110182024D01*
X113896776Y-110102649D01*
X113738025Y-110102647D01*
X113738025Y-110023273D01*
X113182401Y-110023275D01*
X113182401Y-110102649D01*
X112944275Y-110102649D01*
X112944275Y-110182024D01*
X112864900Y-110182025D01*
X112864900Y-110261399D01*
X113182401Y-110261399D01*
X113182401Y-110340775D01*
X113420524Y-110340775D01*
X113420524Y-110420148D01*
X113579276Y-110420150D01*
X113579274Y-110499522D01*
X113738025Y-110499522D01*
X113738025Y-110578899D01*
X113817399Y-110578899D01*
X113817399Y-110658273D01*
X113896774Y-110658274D01*
X113896774Y-110737648D01*
X113976150Y-110737650D01*
X113976151Y-110817025D01*
X114055525Y-110817025D01*
X114055525Y-110896399D01*
X114134900Y-110896399D01*
X114134900Y-110975774D01*
X114214274Y-110975774D01*
X114214274Y-111055148D01*
X114293651Y-111055148D01*
X114293651Y-111134525D01*
X114373025Y-111134525D01*
X114373026Y-111213900D01*
X114452400Y-111213900D01*
X114452400Y-111293274D01*
X114531775Y-111293274D01*
X114531775Y-111372649D01*
X114611149Y-111372649D01*
X114611149Y-111452023D01*
X114690524Y-111452024D01*
X114690524Y-111531398D01*
X114769900Y-111531400D01*
X114769900Y-111610775D01*
X114849275Y-111610775D01*
X114849275Y-111690149D01*
X114928650Y-111690149D01*
X114928650Y-111769524D01*
X115008024Y-111769524D01*
X115008024Y-111848898D01*
X115087399Y-111848899D01*
X115087399Y-111928273D01*
X115246150Y-111928275D01*
X115246150Y-112007650D01*
X115404899Y-112007648D01*
X115404899Y-112087025D01*
X115643025Y-112087024D01*
X115643025Y-112166400D01*
X116039900Y-112166400D01*
X116039900Y-112245774D01*
X113976150Y-112245775D01*
X113976151Y-112166399D01*
X114928650Y-112166399D01*
X114928650Y-112007650D01*
X114849275Y-112007650D01*
X114849275Y-111928275D01*
X114769900Y-111928275D01*
X114769900Y-111848900D01*
X114690524Y-111848899D01*
X114690524Y-111769524D01*
X114134900Y-111769524D01*
X114134900Y-111848900D01*
X113817399Y-111848898D01*
X113817399Y-111769524D01*
X112864900Y-111769525D01*
X112864900Y-111848899D01*
X112706149Y-111848899D01*
X112706151Y-112087024D01*
X112785524Y-112087022D01*
X112785526Y-112166399D01*
X112864900Y-112166400D01*
X112864900Y-112245774D01*
X112944275Y-112245775D01*
X112944275Y-112325149D01*
X113023649Y-112325150D01*
X113023649Y-112404523D01*
X113182401Y-112404524D01*
X113182401Y-112483899D01*
X113420524Y-112483900D01*
X113420524Y-112563274D01*
X113658650Y-112563275D01*
X113658650Y-112642649D01*
X113896774Y-112642649D01*
X113896774Y-112722023D01*
X114214274Y-112722025D01*
X114214274Y-112801398D01*
X114531775Y-112801399D01*
X114531775Y-112880774D01*
X114769899Y-112880772D01*
X114769900Y-112960148D01*
X114928650Y-112960149D01*
X114928650Y-113039525D01*
X115087399Y-113039524D01*
X115087399Y-113198275D01*
X115008024Y-113198273D01*
X115008024Y-113118900D01*
X114928650Y-113118899D01*
X114928650Y-113198274D01*
X114849275Y-113198274D01*
X114849275Y-113277649D01*
X114769899Y-113277647D01*
X114769900Y-113198274D01*
X114690524Y-113198275D01*
X114690526Y-113277649D01*
X114611149Y-113277650D01*
X114611149Y-113357024D01*
X114531775Y-113357024D01*
X114531775Y-113277649D01*
X114452400Y-113277649D01*
X114452400Y-113357023D01*
X114373026Y-113357023D01*
X114373025Y-113436400D01*
X114293651Y-113436398D01*
X114293651Y-113515775D01*
X114134900Y-113515772D01*
X114134900Y-113277649D01*
X114214274Y-113277650D01*
X114214274Y-112960149D01*
X114134900Y-112960149D01*
X114134900Y-112801399D01*
X113817399Y-112801398D01*
X113817399Y-112722025D01*
X113579275Y-112722025D01*
X113579275Y-112642650D01*
X113341150Y-112642650D01*
X113341150Y-112563274D01*
X113103026Y-112563274D01*
X113103026Y-112483899D01*
X112944275Y-112483899D01*
X112944275Y-112404524D01*
X112864900Y-112404524D01*
X112864900Y-112325150D01*
X112785525Y-112325150D01*
X112785525Y-112245775D01*
X112706149Y-112245774D01*
X112706149Y-112166399D01*
X112626777Y-112166399D01*
X112626777Y-111769524D01*
X112706149Y-111769524D01*
X112706151Y-111690149D01*
X114055525Y-111690149D01*
X114055525Y-111610775D01*
X113976151Y-111610775D01*
X113976150Y-111531400D01*
X113896774Y-111531398D01*
X113896774Y-111452024D01*
X113817399Y-111452023D01*
X113817399Y-111372649D01*
X113738025Y-111372649D01*
X113738025Y-111293272D01*
X113658650Y-111293274D01*
X113658650Y-111213900D01*
X113579276Y-111213900D01*
X113579275Y-111134525D01*
X113499899Y-111134523D01*
X113499899Y-111055149D01*
X113420524Y-111055148D01*
X113420524Y-110975774D01*
X113341150Y-110975774D01*
X113341150Y-110896399D01*
X113261775Y-110896399D01*
X113261775Y-110817025D01*
X113182401Y-110817025D01*
X113182401Y-110737650D01*
X113103026Y-110737650D01*
X113103026Y-110658273D01*
X113023649Y-110658273D01*
X113023649Y-110578899D01*
X112944275Y-110578899D01*
X112944275Y-110499524D01*
X112864900Y-110499524D01*
X112864900Y-110420150D01*
X112785526Y-110420150D01*
X112785524Y-110102647D01*
X112864900Y-110102649D01*
X112864900Y-110023275D01*
X113103026Y-110023275D01*
X113103026Y-109943900D01*
X113817399Y-109943900D01*
X113817399Y-110023273D01*
X113976151Y-110023275D01*
X113976149Y-110102647D01*
X114134900Y-110102649D01*
X114134900Y-110182024D01*
X114293651Y-110182024D01*
X114293651Y-110102649D01*
X114373024Y-110102647D01*
X114373025Y-109943900D01*
X114452400Y-109943900D01*
X114452400Y-109785150D01*
X114531775Y-109785149D01*
X114531775Y-109705774D01*
X114611149Y-109705775D01*
X114611149Y-109626398D01*
X114690524Y-109626400D01*
X114690524Y-109547023D01*
X114769900Y-109547025D01*
X114769900Y-109467651D01*
X114928650Y-109467650D01*
X114928650Y-109388274D01*
X115087399Y-109388274D01*
X115087401Y-109308899D01*
X115325524Y-109308899D01*
X115325524Y-109229525D01*
X115722399Y-109229525D01*
X115722399Y-109150148D01*
X116913024Y-109150148D01*
X116913024Y-109229525D01*
G37*
G36*
X115008024Y-109705775D02*
G01*
X115008024Y-109785149D01*
X114928650Y-109785149D01*
X114928650Y-109705774D01*
X115008024Y-109705775D01*
G37*
G36*
X116198649Y-112087025D02*
G01*
X116198649Y-112166399D01*
X116039900Y-112166400D01*
X116039900Y-112087024D01*
X116198649Y-112087025D01*
G37*
G36*
X115166775Y-109943900D02*
G01*
X115166775Y-110023275D01*
X115087399Y-110023275D01*
X115087399Y-109943898D01*
X115166775Y-109943900D01*
G37*
G36*
X115325524Y-110261400D02*
G01*
X115246150Y-110261399D01*
X115246150Y-110182025D01*
X115325524Y-110182025D01*
X115325524Y-110261400D01*
G37*
G36*
X115087401Y-110499524D02*
G01*
X114928650Y-110499524D01*
X114928650Y-110420150D01*
X115087399Y-110420150D01*
X115087401Y-110499524D01*
G37*
G36*
X117706774Y-112166400D02*
G01*
X117627400Y-112166400D01*
X117627400Y-112087024D01*
X117706774Y-112087024D01*
X117706774Y-112166400D01*
G37*
G36*
X113023649Y-111928275D02*
G01*
X112864900Y-111928275D01*
X112864900Y-111848899D01*
X113023649Y-111848898D01*
X113023649Y-111928275D01*
G37*
G36*
X114928650Y-109864525D02*
G01*
X114849275Y-109864524D01*
X114849275Y-109785150D01*
X114928650Y-109785149D01*
X114928650Y-109864525D01*
G37*
G36*
X112706149Y-109388274D02*
G01*
X112547400Y-109388274D01*
X112547399Y-109467648D01*
X112388650Y-109467651D01*
X112388650Y-109547025D01*
X112309274Y-109547023D01*
X112309274Y-109626400D01*
X112229899Y-109626398D01*
X112229899Y-109705775D01*
X112150525Y-109705774D01*
X112150524Y-109864523D01*
X112071150Y-109864524D01*
X112071150Y-110023275D01*
X111912401Y-110023275D01*
X111912401Y-109785149D01*
X111991776Y-109785149D01*
X111991776Y-109626400D01*
X112071150Y-109626400D01*
X112071150Y-109547023D01*
X112150525Y-109547024D01*
X112150524Y-109467648D01*
X112229899Y-109467648D01*
X112229899Y-109388274D01*
X112309274Y-109388274D01*
X112309274Y-109308898D01*
X112468025Y-109308899D01*
X112468025Y-109229525D01*
X112706149Y-109229525D01*
X112706149Y-109388274D01*
G37*
G36*
X114690524Y-110578899D02*
G01*
X114611149Y-110578899D01*
X114611149Y-110499525D01*
X114690526Y-110499524D01*
X114690524Y-110578899D01*
G37*
G36*
X114452400Y-110420150D02*
G01*
X114373026Y-110420150D01*
X114373025Y-110340775D01*
X114452400Y-110340775D01*
X114452400Y-110420150D01*
G37*
G36*
X116436775Y-109943900D02*
G01*
X116357400Y-109943900D01*
X116357400Y-109864526D01*
X116436775Y-109864524D01*
X116436775Y-109943900D01*
G37*
G36*
X115881149Y-109467649D02*
G01*
X115881149Y-109547023D01*
X115801774Y-109547025D01*
X115801774Y-109467648D01*
X115881149Y-109467649D01*
G37*
G36*
X118024275Y-112087024D02*
G01*
X118024274Y-112166400D01*
X117944900Y-112166399D01*
X117944899Y-112087022D01*
X118024275Y-112087024D01*
G37*
G36*
X116436775Y-110102649D02*
G01*
X116357399Y-110102647D01*
X116357400Y-110023275D01*
X116436775Y-110023275D01*
X116436775Y-110102649D01*
G37*
G36*
X119294274Y-114230149D02*
G01*
X119373649Y-114230148D01*
X119373649Y-114388898D01*
X119453024Y-114388900D01*
X119453023Y-114547649D01*
X119532400Y-114547649D01*
X119532400Y-114706400D01*
X119611775Y-114706400D01*
X119611775Y-114865149D01*
X119691149Y-114865149D01*
X119691149Y-115023900D01*
X119532400Y-115023900D01*
X119532400Y-114944524D01*
X119453023Y-114944524D01*
X119453024Y-114785775D01*
X119373649Y-114785773D01*
X119373649Y-114627025D01*
X119294274Y-114627025D01*
X119294274Y-114547648D01*
X118579899Y-114547649D01*
X118579899Y-114468274D01*
X118500524Y-114468274D01*
X118500524Y-114388900D01*
X119214900Y-114388899D01*
X119214900Y-114309525D01*
X119135525Y-114309525D01*
X119135525Y-114230148D01*
X118183024Y-114230148D01*
X118183024Y-114150774D01*
X118103649Y-114150773D01*
X118103649Y-114071399D01*
X119294274Y-114071399D01*
X119294274Y-114230149D01*
G37*
G36*
X116198649Y-109864523D02*
G01*
X116119274Y-109864525D01*
X116119274Y-109785150D01*
X116198649Y-109785149D01*
X116198649Y-109864523D01*
G37*
G36*
X116278024Y-109626400D02*
G01*
X116198649Y-109626398D01*
X116198649Y-109705775D01*
X116119274Y-109705774D01*
X116119274Y-109626400D01*
X116039900Y-109626400D01*
X116039900Y-109547025D01*
X116278024Y-109547023D01*
X116278024Y-109626400D01*
G37*
G36*
X117944900Y-114230148D02*
G01*
X118024275Y-114230148D01*
X118024275Y-114388899D01*
X118103649Y-114388900D01*
X118103649Y-114547648D01*
X118183024Y-114547649D01*
X118183024Y-114706400D01*
X118262399Y-114706398D01*
X118262401Y-114865149D01*
X117309899Y-114865149D01*
X117309899Y-114785772D01*
X117230525Y-114785772D01*
X117230525Y-114706400D01*
X118024275Y-114706400D01*
X118024275Y-114627024D01*
X117944900Y-114627025D01*
X117944899Y-114468272D01*
X117865526Y-114468274D01*
X117865524Y-114309523D01*
X117786149Y-114309525D01*
X117786149Y-114071400D01*
X117944899Y-114071397D01*
X117944900Y-114230148D01*
G37*
G36*
X114452400Y-113515775D02*
G01*
X114373025Y-113515775D01*
X114373025Y-113436400D01*
X114452400Y-113436399D01*
X114452400Y-113515775D01*
G37*
G36*
X114849275Y-113436399D02*
G01*
X114769900Y-113436400D01*
X114769900Y-113357023D01*
X114849275Y-113357023D01*
X114849275Y-113436399D01*
G37*
G36*
X117944900Y-111769524D02*
G01*
X117865523Y-111769524D01*
X117865526Y-111690149D01*
X117944899Y-111690147D01*
X117944900Y-111769524D01*
G37*
G36*
X115008024Y-110102650D02*
G01*
X115008024Y-110182024D01*
X114928650Y-110182024D01*
X114928650Y-110102649D01*
X115008024Y-110102650D01*
G37*
G36*
X117548024Y-110499522D02*
G01*
X117468651Y-110499524D01*
X117468649Y-110420150D01*
X117548025Y-110420150D01*
X117548024Y-110499522D01*
G37*
G36*
X117944900Y-111848900D02*
G01*
X117944900Y-111928275D01*
X117865524Y-111928273D01*
X117865524Y-111848899D01*
X117944900Y-111848900D01*
G37*
G36*
X112547402Y-114230148D02*
G01*
X112626775Y-114230146D01*
X112626775Y-114309523D01*
X112626776Y-114388899D01*
X112706149Y-114388900D01*
X112706148Y-114547648D01*
X112785526Y-114547648D01*
X112785525Y-114706400D01*
X112864900Y-114706400D01*
X112864900Y-114865149D01*
X112706151Y-114865149D01*
X112706149Y-114785774D01*
X112626776Y-114785774D01*
X112626776Y-114627025D01*
X112547400Y-114627026D01*
X112547400Y-114547649D01*
X111991776Y-114547648D01*
X111991776Y-114627024D01*
X111912401Y-114627025D01*
X111912401Y-114706400D01*
X111833024Y-114706400D01*
X111833024Y-114785774D01*
X111753650Y-114785773D01*
X111753650Y-114865149D01*
X111674275Y-114865149D01*
X111674275Y-114944523D01*
X111594899Y-114944524D01*
X111594899Y-115023901D01*
X111436151Y-115023900D01*
X111436152Y-114865149D01*
X111515524Y-114865149D01*
X111515524Y-114785774D01*
X111594900Y-114785774D01*
X111594900Y-114706400D01*
X111674275Y-114706400D01*
X111674275Y-114627025D01*
X111753650Y-114627025D01*
X111753650Y-114468274D01*
X111674275Y-114468274D01*
X111674275Y-114388899D01*
X111594901Y-114388899D01*
X111594900Y-114309525D01*
X111515524Y-114309523D01*
X111515524Y-114309522D01*
X111753650Y-114309522D01*
X111833024Y-114309525D01*
X111833024Y-114388898D01*
X112468025Y-114388899D01*
X112468025Y-114309525D01*
X112388650Y-114309525D01*
X112388651Y-114230148D01*
X111753650Y-114230148D01*
X111753650Y-114309522D01*
X111515524Y-114309522D01*
X111515524Y-114230148D01*
X111436150Y-114230146D01*
X111436149Y-114150774D01*
X111356775Y-114150774D01*
X111356775Y-114071399D01*
X112547400Y-114071397D01*
X112547402Y-114230148D01*
G37*
G36*
X116278024Y-110420150D02*
G01*
X116278026Y-110499524D01*
X116198649Y-110499525D01*
X116198649Y-110420148D01*
X116278024Y-110420150D01*
G37*
G36*
X115722399Y-110499524D02*
G01*
X115643025Y-110499524D01*
X115643025Y-110420150D01*
X115722399Y-110420150D01*
X115722399Y-110499524D01*
G37*
G36*
X117548025Y-110658276D02*
G01*
X117548025Y-110817025D01*
X117468649Y-110817025D01*
X117468649Y-110658274D01*
X117548025Y-110658276D01*
G37*
G36*
X116039900Y-111293274D02*
G01*
X115801774Y-111293275D01*
X115801774Y-111213898D01*
X115960525Y-111213900D01*
X115960525Y-110737650D01*
X116039900Y-110737650D01*
X116039900Y-111293274D01*
G37*
G36*
X115722399Y-109467650D02*
G01*
X115722399Y-109547023D01*
X115643025Y-109547025D01*
X115643025Y-109467649D01*
X115722399Y-109467650D01*
G37*
G36*
X116278023Y-109785149D02*
G01*
X116198649Y-109785149D01*
X116198649Y-109705775D01*
X116278026Y-109705774D01*
X116278023Y-109785149D01*
G37*
G36*
X116119274Y-110737648D02*
G01*
X116039900Y-110737650D01*
X116039900Y-110578900D01*
X116119274Y-110578900D01*
X116119274Y-110737648D01*
G37*
G36*
X115484274Y-111055149D02*
G01*
X115325524Y-111055150D01*
X115325524Y-110975775D01*
X115484274Y-110975774D01*
X115484274Y-111055149D01*
G37*
G36*
X118103649Y-111769525D02*
G01*
X118024274Y-111769525D01*
X118024275Y-111690149D01*
X118103649Y-111690149D01*
X118103649Y-111769525D01*
G37*
G36*
X116278024Y-112007650D02*
G01*
X116278026Y-112087024D01*
X116198649Y-112087025D01*
X116198649Y-112007648D01*
X116278024Y-112007650D01*
G37*
G36*
X117865524Y-111452024D02*
G01*
X117865524Y-111531398D01*
X117786149Y-111531400D01*
X117786149Y-111452023D01*
X117865524Y-111452024D01*
G37*
D11*
X111325316Y-121094630D02*
X111325316Y-120380345D01*
X111325316Y-120380345D02*
X111277697Y-120237488D01*
X111277697Y-120237488D02*
X111182459Y-120142250D01*
X111182459Y-120142250D02*
X111039602Y-120094630D01*
X111039602Y-120094630D02*
X110944364Y-120094630D01*
X112325316Y-120094630D02*
X111753888Y-120094630D01*
X112039602Y-120094630D02*
X112039602Y-121094630D01*
X112039602Y-121094630D02*
X111944364Y-120951773D01*
X111944364Y-120951773D02*
X111849126Y-120856535D01*
X111849126Y-120856535D02*
X111753888Y-120808916D01*
D12*
%TO.C,J1*%
X111508650Y-118879450D02*
X111508650Y-117549450D01*
X112838650Y-118879450D02*
X111508650Y-118879450D01*
X114108651Y-116219450D02*
X131948651Y-116219450D01*
X114108651Y-118879450D02*
X114108651Y-116219450D01*
X114108651Y-118879450D02*
X131948651Y-118879450D01*
X131948651Y-118879450D02*
X131948651Y-116219450D01*
X147128651Y-116219450D02*
X172588650Y-116219450D01*
X147128651Y-118879450D02*
X147128651Y-116219450D01*
X147128651Y-118879450D02*
X172588650Y-118879450D01*
X172588650Y-118879450D02*
X172588650Y-116219450D01*
D13*
%TO.C,REF\u002A\u002A*%
X167916829Y-113431697D02*
X167976753Y-113453955D01*
X168001673Y-113470680D01*
X168026910Y-113494643D01*
X168044912Y-113525126D01*
X168056858Y-113566623D01*
X168063930Y-113623632D01*
X168067308Y-113700647D01*
X168068171Y-113802165D01*
X168068002Y-113854627D01*
X168067153Y-113926315D01*
X168065711Y-113983525D01*
X168063814Y-114021409D01*
X168061597Y-114035114D01*
X168047172Y-114030581D01*
X168018054Y-114018270D01*
X168017181Y-114017872D01*
X168002060Y-114009956D01*
X167991891Y-113999095D01*
X167985691Y-113980071D01*
X167982478Y-113947669D01*
X167981270Y-113896671D01*
X167981085Y-113821861D01*
X167980714Y-113774404D01*
X167976750Y-113685215D01*
X167967673Y-113619887D01*
X167952524Y-113574993D01*
X167930345Y-113547108D01*
X167900175Y-113532803D01*
X167895990Y-113531806D01*
X167839480Y-113531027D01*
X167795410Y-113556344D01*
X167764972Y-113607102D01*
X167759544Y-113621774D01*
X167747171Y-113654249D01*
X167740905Y-113669172D01*
X167728036Y-113667116D01*
X167699933Y-113655957D01*
X167673721Y-113637527D01*
X167661771Y-113602698D01*
X167665336Y-113577751D01*
X167687235Y-113527147D01*
X167722644Y-113479728D01*
X167764052Y-113446934D01*
X167781400Y-113439352D01*
X167847089Y-113426676D01*
X167916829Y-113431697D01*
G36*
X167916829Y-113431697D02*
G01*
X167976753Y-113453955D01*
X168001673Y-113470680D01*
X168026910Y-113494643D01*
X168044912Y-113525126D01*
X168056858Y-113566623D01*
X168063930Y-113623632D01*
X168067308Y-113700647D01*
X168068171Y-113802165D01*
X168068002Y-113854627D01*
X168067153Y-113926315D01*
X168065711Y-113983525D01*
X168063814Y-114021409D01*
X168061597Y-114035114D01*
X168047172Y-114030581D01*
X168018054Y-114018270D01*
X168017181Y-114017872D01*
X168002060Y-114009956D01*
X167991891Y-113999095D01*
X167985691Y-113980071D01*
X167982478Y-113947669D01*
X167981270Y-113896671D01*
X167981085Y-113821861D01*
X167980714Y-113774404D01*
X167976750Y-113685215D01*
X167967673Y-113619887D01*
X167952524Y-113574993D01*
X167930345Y-113547108D01*
X167900175Y-113532803D01*
X167895990Y-113531806D01*
X167839480Y-113531027D01*
X167795410Y-113556344D01*
X167764972Y-113607102D01*
X167759544Y-113621774D01*
X167747171Y-113654249D01*
X167740905Y-113669172D01*
X167728036Y-113667116D01*
X167699933Y-113655957D01*
X167673721Y-113637527D01*
X167661771Y-113602698D01*
X167665336Y-113577751D01*
X167687235Y-113527147D01*
X167722644Y-113479728D01*
X167764052Y-113446934D01*
X167781400Y-113439352D01*
X167847089Y-113426676D01*
X167916829Y-113431697D01*
G37*
X171865020Y-113398422D02*
X171932810Y-113430280D01*
X171988366Y-113485370D01*
X171999881Y-113502616D01*
X172009432Y-113522162D01*
X172016206Y-113546798D01*
X172020818Y-113581311D01*
X172023888Y-113630490D01*
X172026029Y-113699119D01*
X172027859Y-113791989D01*
X172032404Y-114049607D01*
X171994225Y-114035091D01*
X171959268Y-114021756D01*
X171933097Y-114008923D01*
X171916013Y-113992380D01*
X171906086Y-113967065D01*
X171901386Y-113927916D01*
X171899982Y-113869868D01*
X171899943Y-113787861D01*
X171899744Y-113722495D01*
X171898560Y-113659773D01*
X171895729Y-113616934D01*
X171890609Y-113588820D01*
X171882553Y-113570275D01*
X171870914Y-113556143D01*
X171842303Y-113536200D01*
X171794239Y-113528683D01*
X171746688Y-113547679D01*
X171743550Y-113550111D01*
X171733768Y-113561348D01*
X171726552Y-113579370D01*
X171721299Y-113608626D01*
X171717402Y-113653562D01*
X171714256Y-113718628D01*
X171711257Y-113808270D01*
X171704001Y-114048297D01*
X171642314Y-114020644D01*
X171580629Y-113992991D01*
X171580629Y-113773846D01*
X171580884Y-113714311D01*
X171583086Y-113631492D01*
X171588661Y-113569827D01*
X171598941Y-113524348D01*
X171615258Y-113490084D01*
X171638942Y-113462066D01*
X171671328Y-113435323D01*
X171717907Y-113408380D01*
X171791287Y-113390791D01*
X171865020Y-113398422D01*
G36*
X171865020Y-113398422D02*
G01*
X171932810Y-113430280D01*
X171988366Y-113485370D01*
X171999881Y-113502616D01*
X172009432Y-113522162D01*
X172016206Y-113546798D01*
X172020818Y-113581311D01*
X172023888Y-113630490D01*
X172026029Y-113699119D01*
X172027859Y-113791989D01*
X172032404Y-114049607D01*
X171994225Y-114035091D01*
X171959268Y-114021756D01*
X171933097Y-114008923D01*
X171916013Y-113992380D01*
X171906086Y-113967065D01*
X171901386Y-113927916D01*
X171899982Y-113869868D01*
X171899943Y-113787861D01*
X171899744Y-113722495D01*
X171898560Y-113659773D01*
X171895729Y-113616934D01*
X171890609Y-113588820D01*
X171882553Y-113570275D01*
X171870914Y-113556143D01*
X171842303Y-113536200D01*
X171794239Y-113528683D01*
X171746688Y-113547679D01*
X171743550Y-113550111D01*
X171733768Y-113561348D01*
X171726552Y-113579370D01*
X171721299Y-113608626D01*
X171717402Y-113653562D01*
X171714256Y-113718628D01*
X171711257Y-113808270D01*
X171704001Y-114048297D01*
X171642314Y-114020644D01*
X171580629Y-113992991D01*
X171580629Y-113773846D01*
X171580884Y-113714311D01*
X171583086Y-113631492D01*
X171588661Y-113569827D01*
X171598941Y-113524348D01*
X171615258Y-113490084D01*
X171638942Y-113462066D01*
X171671328Y-113435323D01*
X171717907Y-113408380D01*
X171791287Y-113390791D01*
X171865020Y-113398422D01*
G37*
X170041691Y-113447067D02*
X170046273Y-113449603D01*
X170083704Y-113478657D01*
X170117170Y-113516010D01*
X170123007Y-113524452D01*
X170134165Y-113544153D01*
X170142136Y-113567535D01*
X170147618Y-113599667D01*
X170151306Y-113645619D01*
X170153899Y-113710459D01*
X170156091Y-113799257D01*
X170156402Y-113814269D01*
X170157400Y-113911599D01*
X170155994Y-113980534D01*
X170152164Y-114021548D01*
X170145889Y-114035114D01*
X170126898Y-114031052D01*
X170094638Y-114018744D01*
X170087041Y-114015145D01*
X170075176Y-114006998D01*
X170066994Y-113993604D01*
X170061643Y-113970208D01*
X170058270Y-113932055D01*
X170056019Y-113874390D01*
X170054040Y-113792457D01*
X170053498Y-113768507D01*
X170051403Y-113692866D01*
X170048683Y-113639928D01*
X170044515Y-113604675D01*
X170038079Y-113582087D01*
X170028550Y-113567144D01*
X170015106Y-113554827D01*
X169975305Y-113533234D01*
X169926341Y-113529076D01*
X169882529Y-113545599D01*
X169851008Y-113579810D01*
X169838914Y-113628714D01*
X169838579Y-113642007D01*
X169831972Y-113666072D01*
X169812469Y-113669744D01*
X169774284Y-113655413D01*
X169765438Y-113650817D01*
X169741534Y-113623786D01*
X169741061Y-113583594D01*
X169763836Y-113528009D01*
X169784727Y-113497717D01*
X169838142Y-113454684D01*
X169904074Y-113430355D01*
X169974574Y-113427043D01*
X170041691Y-113447067D01*
G36*
X170041691Y-113447067D02*
G01*
X170046273Y-113449603D01*
X170083704Y-113478657D01*
X170117170Y-113516010D01*
X170123007Y-113524452D01*
X170134165Y-113544153D01*
X170142136Y-113567535D01*
X170147618Y-113599667D01*
X170151306Y-113645619D01*
X170153899Y-113710459D01*
X170156091Y-113799257D01*
X170156402Y-113814269D01*
X170157400Y-113911599D01*
X170155994Y-113980534D01*
X170152164Y-114021548D01*
X170145889Y-114035114D01*
X170126898Y-114031052D01*
X170094638Y-114018744D01*
X170087041Y-114015145D01*
X170075176Y-114006998D01*
X170066994Y-113993604D01*
X170061643Y-113970208D01*
X170058270Y-113932055D01*
X170056019Y-113874390D01*
X170054040Y-113792457D01*
X170053498Y-113768507D01*
X170051403Y-113692866D01*
X170048683Y-113639928D01*
X170044515Y-113604675D01*
X170038079Y-113582087D01*
X170028550Y-113567144D01*
X170015106Y-113554827D01*
X169975305Y-113533234D01*
X169926341Y-113529076D01*
X169882529Y-113545599D01*
X169851008Y-113579810D01*
X169838914Y-113628714D01*
X169838579Y-113642007D01*
X169831972Y-113666072D01*
X169812469Y-113669744D01*
X169774284Y-113655413D01*
X169765438Y-113650817D01*
X169741534Y-113623786D01*
X169741061Y-113583594D01*
X169763836Y-113528009D01*
X169784727Y-113497717D01*
X169838142Y-113454684D01*
X169904074Y-113430355D01*
X169974574Y-113427043D01*
X170041691Y-113447067D01*
G37*
X169087941Y-113429882D02*
X169119773Y-113442358D01*
X169156743Y-113459202D01*
X169156743Y-113945796D01*
X169110812Y-113991727D01*
X169100320Y-114002027D01*
X169071255Y-114024920D01*
X169041943Y-114032335D01*
X168998326Y-114028921D01*
X168980568Y-114026714D01*
X168934767Y-114022045D01*
X168902743Y-114020185D01*
X168893244Y-114020470D01*
X168854274Y-114023548D01*
X168807159Y-114028921D01*
X168792085Y-114030768D01*
X168754110Y-114031493D01*
X168726325Y-114020029D01*
X168694674Y-113991727D01*
X168648743Y-113945796D01*
X168648743Y-113685655D01*
X168649101Y-113608780D01*
X168650216Y-113535486D01*
X168651952Y-113477450D01*
X168654167Y-113439263D01*
X168656721Y-113425514D01*
X168657256Y-113425551D01*
X168675808Y-113432394D01*
X168707153Y-113447468D01*
X168749608Y-113469423D01*
X168753604Y-113697840D01*
X168757600Y-113926257D01*
X168844686Y-113926257D01*
X168848657Y-113675886D01*
X168849916Y-113607827D01*
X168851718Y-113535082D01*
X168853671Y-113477330D01*
X168855612Y-113439248D01*
X168857377Y-113425514D01*
X168857885Y-113425562D01*
X168875482Y-113430615D01*
X168907834Y-113441449D01*
X168953543Y-113457383D01*
X168953765Y-113677306D01*
X168953988Y-113715509D01*
X168955531Y-113789746D01*
X168958292Y-113851745D01*
X168961977Y-113895908D01*
X168966292Y-113916641D01*
X168981732Y-113927730D01*
X169013241Y-113931156D01*
X169047886Y-113926257D01*
X169051857Y-113675886D01*
X169053278Y-113612262D01*
X169056225Y-113536956D01*
X169060080Y-113477886D01*
X169064542Y-113439318D01*
X169069317Y-113425513D01*
X169087941Y-113429882D01*
G36*
X169087941Y-113429882D02*
G01*
X169119773Y-113442358D01*
X169156743Y-113459202D01*
X169156743Y-113945796D01*
X169110812Y-113991727D01*
X169100320Y-114002027D01*
X169071255Y-114024920D01*
X169041943Y-114032335D01*
X168998326Y-114028921D01*
X168980568Y-114026714D01*
X168934767Y-114022045D01*
X168902743Y-114020185D01*
X168893244Y-114020470D01*
X168854274Y-114023548D01*
X168807159Y-114028921D01*
X168792085Y-114030768D01*
X168754110Y-114031493D01*
X168726325Y-114020029D01*
X168694674Y-113991727D01*
X168648743Y-113945796D01*
X168648743Y-113685655D01*
X168649101Y-113608780D01*
X168650216Y-113535486D01*
X168651952Y-113477450D01*
X168654167Y-113439263D01*
X168656721Y-113425514D01*
X168657256Y-113425551D01*
X168675808Y-113432394D01*
X168707153Y-113447468D01*
X168749608Y-113469423D01*
X168753604Y-113697840D01*
X168757600Y-113926257D01*
X168844686Y-113926257D01*
X168848657Y-113675886D01*
X168849916Y-113607827D01*
X168851718Y-113535082D01*
X168853671Y-113477330D01*
X168855612Y-113439248D01*
X168857377Y-113425514D01*
X168857885Y-113425562D01*
X168875482Y-113430615D01*
X168907834Y-113441449D01*
X168953543Y-113457383D01*
X168953765Y-113677306D01*
X168953988Y-113715509D01*
X168955531Y-113789746D01*
X168958292Y-113851745D01*
X168961977Y-113895908D01*
X168966292Y-113916641D01*
X168981732Y-113927730D01*
X169013241Y-113931156D01*
X169047886Y-113926257D01*
X169051857Y-113675886D01*
X169053278Y-113612262D01*
X169056225Y-113536956D01*
X169060080Y-113477886D01*
X169064542Y-113439318D01*
X169069317Y-113425513D01*
X169087941Y-113429882D01*
G37*
X171112543Y-113230044D02*
X171159714Y-113249942D01*
X171159714Y-113647109D01*
X171159519Y-113750098D01*
X171158998Y-113842741D01*
X171158200Y-113921300D01*
X171157172Y-113982039D01*
X171155963Y-114021223D01*
X171154623Y-114035114D01*
X171154099Y-114035069D01*
X171136287Y-114030020D01*
X171103823Y-114019181D01*
X171058114Y-114003246D01*
X171058114Y-113798773D01*
X171057824Y-113718432D01*
X171056475Y-113660162D01*
X171053369Y-113620509D01*
X171047812Y-113594218D01*
X171039107Y-113576036D01*
X171026556Y-113560707D01*
X171017999Y-113552555D01*
X170971728Y-113529975D01*
X170920728Y-113531975D01*
X170873994Y-113558673D01*
X170867189Y-113565298D01*
X170856293Y-113579056D01*
X170848836Y-113597242D01*
X170844169Y-113624777D01*
X170841641Y-113666581D01*
X170840602Y-113727573D01*
X170840400Y-113812673D01*
X170840304Y-113855834D01*
X170839674Y-113926824D01*
X170838556Y-113983676D01*
X170837063Y-114021428D01*
X170835309Y-114035114D01*
X170834785Y-114035068D01*
X170816973Y-114030020D01*
X170784509Y-114019180D01*
X170738800Y-114003246D01*
X170738822Y-113797837D01*
X170738857Y-113779551D01*
X170740778Y-113684226D01*
X170746678Y-113612143D01*
X170758001Y-113558413D01*
X170776187Y-113518149D01*
X170802679Y-113486460D01*
X170838918Y-113458461D01*
X170874263Y-113440933D01*
X170930773Y-113427384D01*
X170986356Y-113426615D01*
X171029086Y-113439795D01*
X171032299Y-113441615D01*
X171042205Y-113441420D01*
X171048975Y-113426172D01*
X171053861Y-113391212D01*
X171058114Y-113331889D01*
X171065371Y-113210147D01*
X171112543Y-113230044D01*
G36*
X171112543Y-113230044D02*
G01*
X171159714Y-113249942D01*
X171159714Y-113647109D01*
X171159519Y-113750098D01*
X171158998Y-113842741D01*
X171158200Y-113921300D01*
X171157172Y-113982039D01*
X171155963Y-114021223D01*
X171154623Y-114035114D01*
X171154099Y-114035069D01*
X171136287Y-114030020D01*
X171103823Y-114019181D01*
X171058114Y-114003246D01*
X171058114Y-113798773D01*
X171057824Y-113718432D01*
X171056475Y-113660162D01*
X171053369Y-113620509D01*
X171047812Y-113594218D01*
X171039107Y-113576036D01*
X171026556Y-113560707D01*
X171017999Y-113552555D01*
X170971728Y-113529975D01*
X170920728Y-113531975D01*
X170873994Y-113558673D01*
X170867189Y-113565298D01*
X170856293Y-113579056D01*
X170848836Y-113597242D01*
X170844169Y-113624777D01*
X170841641Y-113666581D01*
X170840602Y-113727573D01*
X170840400Y-113812673D01*
X170840304Y-113855834D01*
X170839674Y-113926824D01*
X170838556Y-113983676D01*
X170837063Y-114021428D01*
X170835309Y-114035114D01*
X170834785Y-114035068D01*
X170816973Y-114030020D01*
X170784509Y-114019180D01*
X170738800Y-114003246D01*
X170738822Y-113797837D01*
X170738857Y-113779551D01*
X170740778Y-113684226D01*
X170746678Y-113612143D01*
X170758001Y-113558413D01*
X170776187Y-113518149D01*
X170802679Y-113486460D01*
X170838918Y-113458461D01*
X170874263Y-113440933D01*
X170930773Y-113427384D01*
X170986356Y-113426615D01*
X171029086Y-113439795D01*
X171032299Y-113441615D01*
X171042205Y-113441420D01*
X171048975Y-113426172D01*
X171053861Y-113391212D01*
X171058114Y-113331889D01*
X171065371Y-113210147D01*
X171112543Y-113230044D01*
G37*
X173699714Y-113715801D02*
X173699701Y-113731535D01*
X173698914Y-113801719D01*
X173696210Y-113850622D01*
X173690606Y-113884778D01*
X173681119Y-113910724D01*
X173666768Y-113934997D01*
X173663237Y-113940033D01*
X173625879Y-113979743D01*
X173583311Y-114009692D01*
X173561452Y-114019410D01*
X173482908Y-114035619D01*
X173405232Y-114025135D01*
X173333645Y-113989307D01*
X173273374Y-113929487D01*
X173268286Y-113921473D01*
X173251730Y-113874941D01*
X173240573Y-113810152D01*
X173235160Y-113735327D01*
X173235769Y-113666113D01*
X173382248Y-113666113D01*
X173383402Y-113761999D01*
X173383866Y-113768169D01*
X173390629Y-113821077D01*
X173402670Y-113854629D01*
X173423005Y-113877616D01*
X173457097Y-113899148D01*
X173490814Y-113900280D01*
X173525543Y-113875458D01*
X173531584Y-113868925D01*
X173543417Y-113849379D01*
X173550404Y-113820986D01*
X173553727Y-113777030D01*
X173554571Y-113710792D01*
X173553125Y-113648750D01*
X173545907Y-113589641D01*
X173531006Y-113552286D01*
X173506636Y-113532752D01*
X173471008Y-113527114D01*
X173457440Y-113528236D01*
X173419430Y-113548794D01*
X173394312Y-113594899D01*
X173382248Y-113666113D01*
X173235769Y-113666113D01*
X173235834Y-113658696D01*
X173242937Y-113588482D01*
X173256815Y-113532912D01*
X173274649Y-113495901D01*
X173324855Y-113438333D01*
X173392885Y-113402562D01*
X173476158Y-113390266D01*
X173498399Y-113390931D01*
X173563891Y-113404547D01*
X173617687Y-113438849D01*
X173667057Y-113497938D01*
X173669995Y-113502322D01*
X173683287Y-113525899D01*
X173691932Y-113552549D01*
X173696904Y-113588759D01*
X173699174Y-113641013D01*
X173699678Y-113710792D01*
X173699714Y-113715801D01*
G36*
X173699714Y-113715801D02*
G01*
X173699701Y-113731535D01*
X173698914Y-113801719D01*
X173696210Y-113850622D01*
X173690606Y-113884778D01*
X173681119Y-113910724D01*
X173666768Y-113934997D01*
X173663237Y-113940033D01*
X173625879Y-113979743D01*
X173583311Y-114009692D01*
X173561452Y-114019410D01*
X173482908Y-114035619D01*
X173405232Y-114025135D01*
X173333645Y-113989307D01*
X173273374Y-113929487D01*
X173268286Y-113921473D01*
X173251730Y-113874941D01*
X173240573Y-113810152D01*
X173235160Y-113735327D01*
X173235769Y-113666113D01*
X173382248Y-113666113D01*
X173383402Y-113761999D01*
X173383866Y-113768169D01*
X173390629Y-113821077D01*
X173402670Y-113854629D01*
X173423005Y-113877616D01*
X173457097Y-113899148D01*
X173490814Y-113900280D01*
X173525543Y-113875458D01*
X173531584Y-113868925D01*
X173543417Y-113849379D01*
X173550404Y-113820986D01*
X173553727Y-113777030D01*
X173554571Y-113710792D01*
X173553125Y-113648750D01*
X173545907Y-113589641D01*
X173531006Y-113552286D01*
X173506636Y-113532752D01*
X173471008Y-113527114D01*
X173457440Y-113528236D01*
X173419430Y-113548794D01*
X173394312Y-113594899D01*
X173382248Y-113666113D01*
X173235769Y-113666113D01*
X173235834Y-113658696D01*
X173242937Y-113588482D01*
X173256815Y-113532912D01*
X173274649Y-113495901D01*
X173324855Y-113438333D01*
X173392885Y-113402562D01*
X173476158Y-113390266D01*
X173498399Y-113390931D01*
X173563891Y-113404547D01*
X173617687Y-113438849D01*
X173667057Y-113497938D01*
X173669995Y-113502322D01*
X173683287Y-113525899D01*
X173691932Y-113552549D01*
X173696904Y-113588759D01*
X173699174Y-113641013D01*
X173699678Y-113710792D01*
X173699714Y-113715801D01*
G37*
X167574590Y-113733222D02*
X167574307Y-113771905D01*
X167570762Y-113848121D01*
X167561483Y-113903894D01*
X167544375Y-113945213D01*
X167517344Y-113978067D01*
X167478292Y-114008446D01*
X167453445Y-114022260D01*
X167413615Y-114031565D01*
X167357665Y-114030830D01*
X167326384Y-114027883D01*
X167288653Y-114018883D01*
X167258494Y-113999320D01*
X167223408Y-113962867D01*
X167218720Y-113957543D01*
X167187177Y-113916569D01*
X167172128Y-113880883D01*
X167168286Y-113838566D01*
X167168286Y-113776378D01*
X167211742Y-113792782D01*
X167243424Y-113811957D01*
X167270961Y-113856947D01*
X167276711Y-113871351D01*
X167308855Y-113912146D01*
X167352611Y-113932681D01*
X167400254Y-113930835D01*
X167444057Y-113904486D01*
X167459111Y-113888055D01*
X167472763Y-113863267D01*
X167468493Y-113840744D01*
X167443916Y-113817564D01*
X167396650Y-113790802D01*
X167324313Y-113757534D01*
X167175543Y-113692416D01*
X167171595Y-113627908D01*
X167173079Y-113586820D01*
X167270010Y-113586820D01*
X167277368Y-113612257D01*
X167310848Y-113639414D01*
X167371614Y-113670315D01*
X167381669Y-113674791D01*
X167429751Y-113695617D01*
X167465726Y-113710265D01*
X167482444Y-113715800D01*
X167484977Y-113711726D01*
X167485993Y-113686847D01*
X167482369Y-113646857D01*
X167473242Y-113607753D01*
X167444773Y-113558484D01*
X167403678Y-113530722D01*
X167354590Y-113526964D01*
X167302143Y-113549709D01*
X167287609Y-113561081D01*
X167270010Y-113586820D01*
X167173079Y-113586820D01*
X167173338Y-113579664D01*
X167195281Y-113518696D01*
X167222979Y-113485097D01*
X167280406Y-113447566D01*
X167348527Y-113428606D01*
X167418947Y-113430107D01*
X167483267Y-113453955D01*
X167497426Y-113463113D01*
X167529904Y-113491449D01*
X167552116Y-113527295D01*
X167565804Y-113575984D01*
X167572715Y-113642849D01*
X167573628Y-113686847D01*
X167574590Y-113733222D01*
G36*
X167574590Y-113733222D02*
G01*
X167574307Y-113771905D01*
X167570762Y-113848121D01*
X167561483Y-113903894D01*
X167544375Y-113945213D01*
X167517344Y-113978067D01*
X167478292Y-114008446D01*
X167453445Y-114022260D01*
X167413615Y-114031565D01*
X167357665Y-114030830D01*
X167326384Y-114027883D01*
X167288653Y-114018883D01*
X167258494Y-113999320D01*
X167223408Y-113962867D01*
X167218720Y-113957543D01*
X167187177Y-113916569D01*
X167172128Y-113880883D01*
X167168286Y-113838566D01*
X167168286Y-113776378D01*
X167211742Y-113792782D01*
X167243424Y-113811957D01*
X167270961Y-113856947D01*
X167276711Y-113871351D01*
X167308855Y-113912146D01*
X167352611Y-113932681D01*
X167400254Y-113930835D01*
X167444057Y-113904486D01*
X167459111Y-113888055D01*
X167472763Y-113863267D01*
X167468493Y-113840744D01*
X167443916Y-113817564D01*
X167396650Y-113790802D01*
X167324313Y-113757534D01*
X167175543Y-113692416D01*
X167171595Y-113627908D01*
X167173079Y-113586820D01*
X167270010Y-113586820D01*
X167277368Y-113612257D01*
X167310848Y-113639414D01*
X167371614Y-113670315D01*
X167381669Y-113674791D01*
X167429751Y-113695617D01*
X167465726Y-113710265D01*
X167482444Y-113715800D01*
X167484977Y-113711726D01*
X167485993Y-113686847D01*
X167482369Y-113646857D01*
X167473242Y-113607753D01*
X167444773Y-113558484D01*
X167403678Y-113530722D01*
X167354590Y-113526964D01*
X167302143Y-113549709D01*
X167287609Y-113561081D01*
X167270010Y-113586820D01*
X167173079Y-113586820D01*
X167173338Y-113579664D01*
X167195281Y-113518696D01*
X167222979Y-113485097D01*
X167280406Y-113447566D01*
X167348527Y-113428606D01*
X167418947Y-113430107D01*
X167483267Y-113453955D01*
X167497426Y-113463113D01*
X167529904Y-113491449D01*
X167552116Y-113527295D01*
X167565804Y-113575984D01*
X167572715Y-113642849D01*
X167573628Y-113686847D01*
X167574590Y-113733222D01*
G37*
X169664698Y-113730314D02*
X169663537Y-113786913D01*
X169655345Y-113864062D01*
X169637519Y-113921876D01*
X169607975Y-113966022D01*
X169564625Y-114002168D01*
X169523332Y-114023063D01*
X169453987Y-114034690D01*
X169384736Y-114021977D01*
X169322145Y-113986545D01*
X169272779Y-113930018D01*
X169266818Y-113919595D01*
X169258945Y-113901333D01*
X169253106Y-113878029D01*
X169248999Y-113845685D01*
X169246325Y-113800303D01*
X169244781Y-113737887D01*
X169244734Y-113732348D01*
X169345429Y-113732348D01*
X169345773Y-113785177D01*
X169347942Y-113832962D01*
X169353307Y-113863809D01*
X169363217Y-113884535D01*
X169379021Y-113901956D01*
X169382724Y-113905305D01*
X169430299Y-113930019D01*
X169480636Y-113927490D01*
X169527517Y-113897888D01*
X169541477Y-113882553D01*
X169553160Y-113862222D01*
X169559686Y-113834114D01*
X169562524Y-113791150D01*
X169563143Y-113726247D01*
X169562837Y-113676722D01*
X169560722Y-113628382D01*
X169555390Y-113597187D01*
X169545460Y-113576247D01*
X169529550Y-113558673D01*
X169520204Y-113550759D01*
X169471776Y-113529443D01*
X169421040Y-113532798D01*
X169376987Y-113560707D01*
X169367504Y-113571773D01*
X169355939Y-113592609D01*
X169349252Y-113621706D01*
X169346173Y-113665981D01*
X169345429Y-113732348D01*
X169244734Y-113732348D01*
X169244067Y-113654437D01*
X169243883Y-113545958D01*
X169243830Y-113209201D01*
X169291000Y-113228963D01*
X169303472Y-113234370D01*
X169323323Y-113246585D01*
X169334687Y-113265082D01*
X169340933Y-113297429D01*
X169345429Y-113351193D01*
X169349535Y-113399466D01*
X169354964Y-113431157D01*
X169362739Y-113442983D01*
X169374457Y-113439812D01*
X169404317Y-113428667D01*
X169457684Y-113425904D01*
X169515093Y-113436225D01*
X169564625Y-113458461D01*
X169591876Y-113479043D01*
X169626864Y-113519200D01*
X169649274Y-113570686D01*
X169661190Y-113639168D01*
X169664542Y-113726247D01*
X169664698Y-113730314D01*
G36*
X169664698Y-113730314D02*
G01*
X169663537Y-113786913D01*
X169655345Y-113864062D01*
X169637519Y-113921876D01*
X169607975Y-113966022D01*
X169564625Y-114002168D01*
X169523332Y-114023063D01*
X169453987Y-114034690D01*
X169384736Y-114021977D01*
X169322145Y-113986545D01*
X169272779Y-113930018D01*
X169266818Y-113919595D01*
X169258945Y-113901333D01*
X169253106Y-113878029D01*
X169248999Y-113845685D01*
X169246325Y-113800303D01*
X169244781Y-113737887D01*
X169244734Y-113732348D01*
X169345429Y-113732348D01*
X169345773Y-113785177D01*
X169347942Y-113832962D01*
X169353307Y-113863809D01*
X169363217Y-113884535D01*
X169379021Y-113901956D01*
X169382724Y-113905305D01*
X169430299Y-113930019D01*
X169480636Y-113927490D01*
X169527517Y-113897888D01*
X169541477Y-113882553D01*
X169553160Y-113862222D01*
X169559686Y-113834114D01*
X169562524Y-113791150D01*
X169563143Y-113726247D01*
X169562837Y-113676722D01*
X169560722Y-113628382D01*
X169555390Y-113597187D01*
X169545460Y-113576247D01*
X169529550Y-113558673D01*
X169520204Y-113550759D01*
X169471776Y-113529443D01*
X169421040Y-113532798D01*
X169376987Y-113560707D01*
X169367504Y-113571773D01*
X169355939Y-113592609D01*
X169349252Y-113621706D01*
X169346173Y-113665981D01*
X169345429Y-113732348D01*
X169244734Y-113732348D01*
X169244067Y-113654437D01*
X169243883Y-113545958D01*
X169243830Y-113209201D01*
X169291000Y-113228963D01*
X169303472Y-113234370D01*
X169323323Y-113246585D01*
X169334687Y-113265082D01*
X169340933Y-113297429D01*
X169345429Y-113351193D01*
X169349535Y-113399466D01*
X169354964Y-113431157D01*
X169362739Y-113442983D01*
X169374457Y-113439812D01*
X169404317Y-113428667D01*
X169457684Y-113425904D01*
X169515093Y-113436225D01*
X169564625Y-113458461D01*
X169591876Y-113479043D01*
X169626864Y-113519200D01*
X169649274Y-113570686D01*
X169661190Y-113639168D01*
X169664542Y-113726247D01*
X169664698Y-113730314D01*
G37*
X172399937Y-113393960D02*
X172467347Y-113418478D01*
X172528544Y-113467902D01*
X172562450Y-113516812D01*
X172586806Y-113586627D01*
X172590767Y-113623348D01*
X172596299Y-113674655D01*
X172591684Y-113784678D01*
X172589078Y-113807987D01*
X172569660Y-113890952D01*
X172534573Y-113954047D01*
X172481212Y-114002408D01*
X172478196Y-114004404D01*
X172410362Y-114032785D01*
X172339535Y-114035311D01*
X172271289Y-114013698D01*
X172211196Y-113969662D01*
X172164828Y-113904922D01*
X172164050Y-113903361D01*
X172148643Y-113863158D01*
X172137357Y-113817466D01*
X172131370Y-113774572D01*
X172131861Y-113742760D01*
X172140007Y-113730314D01*
X172147244Y-113731071D01*
X172181851Y-113744835D01*
X172221077Y-113770146D01*
X172254448Y-113799445D01*
X172271483Y-113825172D01*
X172289192Y-113860071D01*
X172325485Y-113891811D01*
X172367630Y-113904486D01*
X172383077Y-113900821D01*
X172413569Y-113882374D01*
X172440128Y-113856766D01*
X172451486Y-113833535D01*
X172451482Y-113833448D01*
X172438596Y-113822779D01*
X172404241Y-113803533D01*
X172353593Y-113778413D01*
X172291829Y-113750124D01*
X172291489Y-113749974D01*
X172224388Y-113720098D01*
X172179411Y-113698573D01*
X172152145Y-113682037D01*
X172138178Y-113667131D01*
X172133097Y-113650493D01*
X172132490Y-113628762D01*
X172136711Y-113587613D01*
X172280000Y-113587613D01*
X172294791Y-113600549D01*
X172331644Y-113619933D01*
X172332725Y-113620481D01*
X172376205Y-113641187D01*
X172415102Y-113657705D01*
X172439778Y-113664693D01*
X172449676Y-113655353D01*
X172451486Y-113623349D01*
X172443966Y-113583515D01*
X172417897Y-113547318D01*
X172380154Y-113528550D01*
X172338077Y-113530445D01*
X172299005Y-113556232D01*
X172283647Y-113574050D01*
X172280000Y-113587613D01*
X172136711Y-113587613D01*
X172137832Y-113576686D01*
X172164251Y-113505935D01*
X172208473Y-113450335D01*
X172265697Y-113411839D01*
X172331120Y-113392397D01*
X172399937Y-113393960D01*
G36*
X172399937Y-113393960D02*
G01*
X172467347Y-113418478D01*
X172528544Y-113467902D01*
X172562450Y-113516812D01*
X172586806Y-113586627D01*
X172590767Y-113623348D01*
X172596299Y-113674655D01*
X172591684Y-113784678D01*
X172589078Y-113807987D01*
X172569660Y-113890952D01*
X172534573Y-113954047D01*
X172481212Y-114002408D01*
X172478196Y-114004404D01*
X172410362Y-114032785D01*
X172339535Y-114035311D01*
X172271289Y-114013698D01*
X172211196Y-113969662D01*
X172164828Y-113904922D01*
X172164050Y-113903361D01*
X172148643Y-113863158D01*
X172137357Y-113817466D01*
X172131370Y-113774572D01*
X172131861Y-113742760D01*
X172140007Y-113730314D01*
X172147244Y-113731071D01*
X172181851Y-113744835D01*
X172221077Y-113770146D01*
X172254448Y-113799445D01*
X172271483Y-113825172D01*
X172289192Y-113860071D01*
X172325485Y-113891811D01*
X172367630Y-113904486D01*
X172383077Y-113900821D01*
X172413569Y-113882374D01*
X172440128Y-113856766D01*
X172451486Y-113833535D01*
X172451482Y-113833448D01*
X172438596Y-113822779D01*
X172404241Y-113803533D01*
X172353593Y-113778413D01*
X172291829Y-113750124D01*
X172291489Y-113749974D01*
X172224388Y-113720098D01*
X172179411Y-113698573D01*
X172152145Y-113682037D01*
X172138178Y-113667131D01*
X172133097Y-113650493D01*
X172132490Y-113628762D01*
X172136711Y-113587613D01*
X172280000Y-113587613D01*
X172294791Y-113600549D01*
X172331644Y-113619933D01*
X172332725Y-113620481D01*
X172376205Y-113641187D01*
X172415102Y-113657705D01*
X172439778Y-113664693D01*
X172449676Y-113655353D01*
X172451486Y-113623349D01*
X172443966Y-113583515D01*
X172417897Y-113547318D01*
X172380154Y-113528550D01*
X172338077Y-113530445D01*
X172299005Y-113556232D01*
X172283647Y-113574050D01*
X172280000Y-113587613D01*
X172136711Y-113587613D01*
X172137832Y-113576686D01*
X172164251Y-113505935D01*
X172208473Y-113450335D01*
X172265697Y-113411839D01*
X172331120Y-113392397D01*
X172399937Y-113393960D01*
G37*
X170523483Y-113441170D02*
X170573376Y-113470261D01*
X170595325Y-113492927D01*
X170637504Y-113560682D01*
X170651714Y-113634550D01*
X170651714Y-113685370D01*
X170604999Y-113665728D01*
X170572692Y-113645908D01*
X170547230Y-113604760D01*
X170544616Y-113596275D01*
X170516478Y-113553051D01*
X170474067Y-113529703D01*
X170425370Y-113528700D01*
X170378373Y-113552514D01*
X170371357Y-113558656D01*
X170347893Y-113585345D01*
X170344019Y-113608614D01*
X170361768Y-113631462D01*
X170403179Y-113656887D01*
X170470286Y-113687888D01*
X170474824Y-113689852D01*
X170549322Y-113724591D01*
X170600203Y-113755363D01*
X170631525Y-113786088D01*
X170647343Y-113820682D01*
X170651714Y-113863062D01*
X170645986Y-113910046D01*
X170617062Y-113970185D01*
X170566178Y-114013389D01*
X170529374Y-114026359D01*
X170477434Y-114033456D01*
X170426999Y-114031940D01*
X170390983Y-114021233D01*
X170387158Y-114018566D01*
X170376998Y-113999937D01*
X170384048Y-113967105D01*
X170396297Y-113941334D01*
X170415939Y-113930606D01*
X170453191Y-113931139D01*
X170504909Y-113928062D01*
X170538701Y-113906812D01*
X170550114Y-113867477D01*
X170550104Y-113866347D01*
X170543187Y-113843513D01*
X170519659Y-113822563D01*
X170473914Y-113798415D01*
X170411704Y-113769341D01*
X170370499Y-113753525D01*
X170346712Y-113754544D01*
X170335597Y-113775437D01*
X170332409Y-113819241D01*
X170332400Y-113888993D01*
X170332044Y-113932052D01*
X170330413Y-113985226D01*
X170327761Y-114021622D01*
X170324422Y-114035114D01*
X170323530Y-114035023D01*
X170304237Y-114027710D01*
X170272284Y-114012278D01*
X170228124Y-113989442D01*
X170233371Y-113783678D01*
X170233736Y-113770032D01*
X170237904Y-113674251D01*
X170245268Y-113602062D01*
X170257330Y-113548658D01*
X170275593Y-113509233D01*
X170301560Y-113478980D01*
X170336733Y-113453093D01*
X170337384Y-113452687D01*
X170394256Y-113431568D01*
X170460033Y-113428000D01*
X170523483Y-113441170D01*
G36*
X170523483Y-113441170D02*
G01*
X170573376Y-113470261D01*
X170595325Y-113492927D01*
X170637504Y-113560682D01*
X170651714Y-113634550D01*
X170651714Y-113685370D01*
X170604999Y-113665728D01*
X170572692Y-113645908D01*
X170547230Y-113604760D01*
X170544616Y-113596275D01*
X170516478Y-113553051D01*
X170474067Y-113529703D01*
X170425370Y-113528700D01*
X170378373Y-113552514D01*
X170371357Y-113558656D01*
X170347893Y-113585345D01*
X170344019Y-113608614D01*
X170361768Y-113631462D01*
X170403179Y-113656887D01*
X170470286Y-113687888D01*
X170474824Y-113689852D01*
X170549322Y-113724591D01*
X170600203Y-113755363D01*
X170631525Y-113786088D01*
X170647343Y-113820682D01*
X170651714Y-113863062D01*
X170645986Y-113910046D01*
X170617062Y-113970185D01*
X170566178Y-114013389D01*
X170529374Y-114026359D01*
X170477434Y-114033456D01*
X170426999Y-114031940D01*
X170390983Y-114021233D01*
X170387158Y-114018566D01*
X170376998Y-113999937D01*
X170384048Y-113967105D01*
X170396297Y-113941334D01*
X170415939Y-113930606D01*
X170453191Y-113931139D01*
X170504909Y-113928062D01*
X170538701Y-113906812D01*
X170550114Y-113867477D01*
X170550104Y-113866347D01*
X170543187Y-113843513D01*
X170519659Y-113822563D01*
X170473914Y-113798415D01*
X170411704Y-113769341D01*
X170370499Y-113753525D01*
X170346712Y-113754544D01*
X170335597Y-113775437D01*
X170332409Y-113819241D01*
X170332400Y-113888993D01*
X170332044Y-113932052D01*
X170330413Y-113985226D01*
X170327761Y-114021622D01*
X170324422Y-114035114D01*
X170323530Y-114035023D01*
X170304237Y-114027710D01*
X170272284Y-114012278D01*
X170228124Y-113989442D01*
X170233371Y-113783678D01*
X170233736Y-113770032D01*
X170237904Y-113674251D01*
X170245268Y-113602062D01*
X170257330Y-113548658D01*
X170275593Y-113509233D01*
X170301560Y-113478980D01*
X170336733Y-113453093D01*
X170337384Y-113452687D01*
X170394256Y-113431568D01*
X170460033Y-113428000D01*
X170523483Y-113441170D01*
G37*
X168401495Y-113426819D02*
X168432599Y-113434721D01*
X168461559Y-113454417D01*
X168498831Y-113491084D01*
X168522801Y-113516978D01*
X168547770Y-113550597D01*
X168559031Y-113582106D01*
X168561657Y-113622085D01*
X168561658Y-113687517D01*
X168517036Y-113664442D01*
X168481673Y-113636324D01*
X168457451Y-113598448D01*
X168453291Y-113588151D01*
X168421594Y-113548237D01*
X168377554Y-113528224D01*
X168329531Y-113530172D01*
X168285886Y-113556144D01*
X168267420Y-113577235D01*
X168256663Y-113604219D01*
X168268178Y-113628234D01*
X168303981Y-113652391D01*
X168366090Y-113679799D01*
X168375515Y-113683585D01*
X168432058Y-113708359D01*
X168480580Y-113732790D01*
X168511451Y-113752086D01*
X168542371Y-113786553D01*
X168562927Y-113841557D01*
X168560744Y-113900582D01*
X168536424Y-113956445D01*
X168490568Y-114001955D01*
X168453438Y-114021327D01*
X168381711Y-114034892D01*
X168341852Y-114033062D01*
X168304953Y-114023169D01*
X168290798Y-114002406D01*
X168296091Y-113968213D01*
X168297631Y-113963692D01*
X168309842Y-113939716D01*
X168330174Y-113930642D01*
X168368908Y-113931249D01*
X168396257Y-113932074D01*
X168428257Y-113924992D01*
X168450182Y-113903819D01*
X168462670Y-113877752D01*
X168464062Y-113850445D01*
X168463998Y-113850285D01*
X168447806Y-113835530D01*
X168413155Y-113814057D01*
X168368321Y-113790058D01*
X168321582Y-113767726D01*
X168281217Y-113751252D01*
X168255504Y-113744829D01*
X168251679Y-113751118D01*
X168246864Y-113780715D01*
X168243566Y-113829047D01*
X168242343Y-113889972D01*
X168242058Y-113932142D01*
X168240718Y-113985254D01*
X168238528Y-114021625D01*
X168235769Y-114035114D01*
X168221344Y-114030581D01*
X168192226Y-114018270D01*
X168155257Y-114001426D01*
X168155257Y-113785321D01*
X168155493Y-113729927D01*
X168157729Y-113645807D01*
X168163423Y-113583401D01*
X168173903Y-113537958D01*
X168190497Y-113504733D01*
X168214531Y-113478978D01*
X168247333Y-113455944D01*
X168289124Y-113436935D01*
X168366287Y-113425514D01*
X168401495Y-113426819D01*
G36*
X168401495Y-113426819D02*
G01*
X168432599Y-113434721D01*
X168461559Y-113454417D01*
X168498831Y-113491084D01*
X168522801Y-113516978D01*
X168547770Y-113550597D01*
X168559031Y-113582106D01*
X168561657Y-113622085D01*
X168561658Y-113687517D01*
X168517036Y-113664442D01*
X168481673Y-113636324D01*
X168457451Y-113598448D01*
X168453291Y-113588151D01*
X168421594Y-113548237D01*
X168377554Y-113528224D01*
X168329531Y-113530172D01*
X168285886Y-113556144D01*
X168267420Y-113577235D01*
X168256663Y-113604219D01*
X168268178Y-113628234D01*
X168303981Y-113652391D01*
X168366090Y-113679799D01*
X168375515Y-113683585D01*
X168432058Y-113708359D01*
X168480580Y-113732790D01*
X168511451Y-113752086D01*
X168542371Y-113786553D01*
X168562927Y-113841557D01*
X168560744Y-113900582D01*
X168536424Y-113956445D01*
X168490568Y-114001955D01*
X168453438Y-114021327D01*
X168381711Y-114034892D01*
X168341852Y-114033062D01*
X168304953Y-114023169D01*
X168290798Y-114002406D01*
X168296091Y-113968213D01*
X168297631Y-113963692D01*
X168309842Y-113939716D01*
X168330174Y-113930642D01*
X168368908Y-113931249D01*
X168396257Y-113932074D01*
X168428257Y-113924992D01*
X168450182Y-113903819D01*
X168462670Y-113877752D01*
X168464062Y-113850445D01*
X168463998Y-113850285D01*
X168447806Y-113835530D01*
X168413155Y-113814057D01*
X168368321Y-113790058D01*
X168321582Y-113767726D01*
X168281217Y-113751252D01*
X168255504Y-113744829D01*
X168251679Y-113751118D01*
X168246864Y-113780715D01*
X168243566Y-113829047D01*
X168242343Y-113889972D01*
X168242058Y-113932142D01*
X168240718Y-113985254D01*
X168238528Y-114021625D01*
X168235769Y-114035114D01*
X168221344Y-114030581D01*
X168192226Y-114018270D01*
X168155257Y-114001426D01*
X168155257Y-113785321D01*
X168155493Y-113729927D01*
X168157729Y-113645807D01*
X168163423Y-113583401D01*
X168173903Y-113537958D01*
X168190497Y-113504733D01*
X168214531Y-113478978D01*
X168247333Y-113455944D01*
X168289124Y-113436935D01*
X168366287Y-113425514D01*
X168401495Y-113426819D01*
G37*
X173143815Y-113782124D02*
X173145252Y-113893600D01*
X173145651Y-113925939D01*
X173146929Y-114034055D01*
X173147186Y-114116786D01*
X173145634Y-114177026D01*
X173141490Y-114217672D01*
X173133964Y-114241623D01*
X173122271Y-114251771D01*
X173105624Y-114251014D01*
X173083236Y-114242248D01*
X173054321Y-114228369D01*
X173048142Y-114225408D01*
X173022413Y-114210911D01*
X173008976Y-114193665D01*
X173003834Y-114164907D01*
X173002990Y-114115883D01*
X173002952Y-114027857D01*
X172912276Y-114027857D01*
X172856498Y-114025415D01*
X172812640Y-114015508D01*
X172776218Y-113995486D01*
X172773503Y-113993530D01*
X172736546Y-113960469D01*
X172710826Y-113920531D01*
X172694606Y-113868257D01*
X172686148Y-113798188D01*
X172684083Y-113719030D01*
X172828858Y-113719030D01*
X172828882Y-113732297D01*
X172830261Y-113792184D01*
X172834688Y-113831332D01*
X172843461Y-113856753D01*
X172857886Y-113875457D01*
X172858784Y-113876350D01*
X172894237Y-113900552D01*
X172928596Y-113898167D01*
X172967403Y-113868860D01*
X172976895Y-113858844D01*
X172990876Y-113838308D01*
X172998760Y-113811597D01*
X173002245Y-113771099D01*
X173003029Y-113709203D01*
X173002350Y-113671730D01*
X172994983Y-113603580D01*
X172978168Y-113558930D01*
X172950234Y-113534526D01*
X172909509Y-113527114D01*
X172892350Y-113528694D01*
X172862660Y-113544366D01*
X172843031Y-113579291D01*
X172832188Y-113636501D01*
X172828858Y-113719030D01*
X172684083Y-113719030D01*
X172683714Y-113704867D01*
X172684253Y-113636769D01*
X172686707Y-113585187D01*
X172692158Y-113549416D01*
X172701686Y-113522615D01*
X172716371Y-113497937D01*
X172729852Y-113479080D01*
X172778799Y-113428168D01*
X172834256Y-113400518D01*
X172903928Y-113391765D01*
X172983664Y-113400490D01*
X173052595Y-113431785D01*
X173107113Y-113486981D01*
X173111223Y-113492824D01*
X173120808Y-113508353D01*
X173128151Y-113526098D01*
X173133612Y-113549890D01*
X173137550Y-113583557D01*
X173140323Y-113630933D01*
X173142292Y-113695845D01*
X173142528Y-113709203D01*
X173143815Y-113782124D01*
G36*
X173143815Y-113782124D02*
G01*
X173145252Y-113893600D01*
X173145651Y-113925939D01*
X173146929Y-114034055D01*
X173147186Y-114116786D01*
X173145634Y-114177026D01*
X173141490Y-114217672D01*
X173133964Y-114241623D01*
X173122271Y-114251771D01*
X173105624Y-114251014D01*
X173083236Y-114242248D01*
X173054321Y-114228369D01*
X173048142Y-114225408D01*
X173022413Y-114210911D01*
X173008976Y-114193665D01*
X173003834Y-114164907D01*
X173002990Y-114115883D01*
X173002952Y-114027857D01*
X172912276Y-114027857D01*
X172856498Y-114025415D01*
X172812640Y-114015508D01*
X172776218Y-113995486D01*
X172773503Y-113993530D01*
X172736546Y-113960469D01*
X172710826Y-113920531D01*
X172694606Y-113868257D01*
X172686148Y-113798188D01*
X172684083Y-113719030D01*
X172828858Y-113719030D01*
X172828882Y-113732297D01*
X172830261Y-113792184D01*
X172834688Y-113831332D01*
X172843461Y-113856753D01*
X172857886Y-113875457D01*
X172858784Y-113876350D01*
X172894237Y-113900552D01*
X172928596Y-113898167D01*
X172967403Y-113868860D01*
X172976895Y-113858844D01*
X172990876Y-113838308D01*
X172998760Y-113811597D01*
X173002245Y-113771099D01*
X173003029Y-113709203D01*
X173002350Y-113671730D01*
X172994983Y-113603580D01*
X172978168Y-113558930D01*
X172950234Y-113534526D01*
X172909509Y-113527114D01*
X172892350Y-113528694D01*
X172862660Y-113544366D01*
X172843031Y-113579291D01*
X172832188Y-113636501D01*
X172828858Y-113719030D01*
X172684083Y-113719030D01*
X172683714Y-113704867D01*
X172684253Y-113636769D01*
X172686707Y-113585187D01*
X172692158Y-113549416D01*
X172701686Y-113522615D01*
X172716371Y-113497937D01*
X172729852Y-113479080D01*
X172778799Y-113428168D01*
X172834256Y-113400518D01*
X172903928Y-113391765D01*
X172983664Y-113400490D01*
X173052595Y-113431785D01*
X173107113Y-113486981D01*
X173111223Y-113492824D01*
X173120808Y-113508353D01*
X173128151Y-113526098D01*
X173133612Y-113549890D01*
X173137550Y-113583557D01*
X173140323Y-113630933D01*
X173142292Y-113695845D01*
X173142528Y-113709203D01*
X173143815Y-113782124D01*
G37*
X170547933Y-108722971D02*
X170623856Y-108723466D01*
X170678491Y-108724735D01*
X170715500Y-108727147D01*
X170738547Y-108731067D01*
X170751296Y-108736862D01*
X170757411Y-108744899D01*
X170760556Y-108755543D01*
X170760646Y-108755925D01*
X170765814Y-108780947D01*
X170775209Y-108829281D01*
X170787867Y-108895860D01*
X170802825Y-108975614D01*
X170819119Y-109063475D01*
X170820448Y-109070664D01*
X170836691Y-109155940D01*
X170851805Y-109230842D01*
X170864808Y-109290819D01*
X170874715Y-109331317D01*
X170880544Y-109347784D01*
X170880575Y-109347810D01*
X170898943Y-109356920D01*
X170936640Y-109372057D01*
X170985543Y-109389958D01*
X170988297Y-109390930D01*
X171050817Y-109414559D01*
X171123543Y-109444195D01*
X171191294Y-109473662D01*
X171302703Y-109524226D01*
X171549399Y-109355760D01*
X171566775Y-109343911D01*
X171641202Y-109293547D01*
X171707615Y-109249212D01*
X171762039Y-109213516D01*
X171800506Y-109189071D01*
X171819042Y-109178489D01*
X171831743Y-109180916D01*
X171860579Y-109199710D01*
X171905143Y-109236930D01*
X171966670Y-109293620D01*
X172046398Y-109370827D01*
X172053532Y-109377855D01*
X172116796Y-109440823D01*
X172172990Y-109497868D01*
X172218677Y-109545417D01*
X172250414Y-109579897D01*
X172264764Y-109597731D01*
X172264810Y-109597817D01*
X172266633Y-109611395D01*
X172259910Y-109633420D01*
X172242946Y-109666904D01*
X172214044Y-109714861D01*
X172171508Y-109780304D01*
X172113644Y-109866245D01*
X172103783Y-109880751D01*
X172053913Y-109954234D01*
X172009905Y-110019287D01*
X171974381Y-110072017D01*
X171949959Y-110108536D01*
X171939263Y-110124956D01*
X171938458Y-110128434D01*
X171943518Y-110154385D01*
X171958677Y-110196759D01*
X171981463Y-110248329D01*
X172012429Y-110315770D01*
X172047004Y-110395795D01*
X172076367Y-110468229D01*
X172083645Y-110486977D01*
X172102710Y-110534846D01*
X172116715Y-110568196D01*
X172123041Y-110580714D01*
X172130025Y-110581650D01*
X172161413Y-110587061D01*
X172212787Y-110596406D01*
X172278802Y-110608669D01*
X172354112Y-110622832D01*
X172433376Y-110637880D01*
X172511243Y-110652795D01*
X172582369Y-110666561D01*
X172641412Y-110678162D01*
X172683022Y-110686580D01*
X172701857Y-110690798D01*
X172704980Y-110691989D01*
X172712591Y-110698405D01*
X172718254Y-110712065D01*
X172722251Y-110736599D01*
X172724865Y-110775638D01*
X172726384Y-110832813D01*
X172727086Y-110911754D01*
X172727257Y-111016092D01*
X172727257Y-111333399D01*
X172651057Y-111348439D01*
X172641841Y-111350242D01*
X172592891Y-111359579D01*
X172525205Y-111372269D01*
X172446478Y-111386873D01*
X172364400Y-111401956D01*
X172332078Y-111408022D01*
X172259855Y-111422781D01*
X172199666Y-111436737D01*
X172157040Y-111448552D01*
X172137510Y-111456887D01*
X172128660Y-111470505D01*
X172112548Y-111506538D01*
X172096065Y-111553172D01*
X172090263Y-111570634D01*
X172068906Y-111627958D01*
X172041359Y-111695802D01*
X172012107Y-111762955D01*
X171996463Y-111798030D01*
X171974174Y-111850422D01*
X171958857Y-111889658D01*
X171953162Y-111909163D01*
X171953478Y-111910636D01*
X171964282Y-111931329D01*
X171988639Y-111971265D01*
X172024082Y-112026572D01*
X172068136Y-112093381D01*
X172118333Y-112167820D01*
X172283501Y-112410223D01*
X172066502Y-112627583D01*
X172045516Y-112648499D01*
X171981342Y-112711104D01*
X171923990Y-112765095D01*
X171876820Y-112807426D01*
X171843192Y-112835057D01*
X171826467Y-112844943D01*
X171808303Y-112837421D01*
X171770265Y-112815827D01*
X171716726Y-112782751D01*
X171651884Y-112740792D01*
X171579940Y-112692543D01*
X171509275Y-112644891D01*
X171445526Y-112602928D01*
X171393513Y-112569765D01*
X171357279Y-112547978D01*
X171340867Y-112540143D01*
X171339905Y-112540214D01*
X171318103Y-112547938D01*
X171279440Y-112565923D01*
X171231612Y-112590613D01*
X171231110Y-112590884D01*
X171167587Y-112622699D01*
X171124061Y-112638242D01*
X171097052Y-112638284D01*
X171083090Y-112623600D01*
X171077180Y-112609144D01*
X171061229Y-112570431D01*
X171036660Y-112510915D01*
X171004779Y-112433765D01*
X170966893Y-112342141D01*
X170924310Y-112239207D01*
X170878337Y-112128126D01*
X170836668Y-112027072D01*
X170794268Y-111923380D01*
X170756755Y-111830719D01*
X170725388Y-111752241D01*
X170701425Y-111691100D01*
X170686123Y-111650443D01*
X170680743Y-111633425D01*
X170691018Y-111617819D01*
X170719563Y-111591762D01*
X170759971Y-111561487D01*
X170856979Y-111482284D01*
X170943793Y-111381075D01*
X171007321Y-111269716D01*
X171047177Y-111151493D01*
X171062964Y-111029695D01*
X171054296Y-110907609D01*
X171020778Y-110788525D01*
X170962021Y-110675729D01*
X170877632Y-110572511D01*
X170833631Y-110532313D01*
X170728211Y-110461238D01*
X170615410Y-110414901D01*
X170498525Y-110392199D01*
X170380853Y-110392028D01*
X170265690Y-110413287D01*
X170156335Y-110454870D01*
X170056083Y-110515676D01*
X169968233Y-110594601D01*
X169896080Y-110690541D01*
X169842922Y-110802395D01*
X169812057Y-110929057D01*
X169806392Y-110990107D01*
X169814185Y-111122376D01*
X169849284Y-111247866D01*
X169910649Y-111364359D01*
X169997243Y-111469639D01*
X170108029Y-111561487D01*
X170146931Y-111590530D01*
X170176104Y-111616872D01*
X170187257Y-111633400D01*
X170182810Y-111647809D01*
X170168378Y-111686415D01*
X170145173Y-111745801D01*
X170114452Y-111822815D01*
X170077474Y-111914303D01*
X170035496Y-112017116D01*
X169989779Y-112128102D01*
X169948178Y-112228672D01*
X169905222Y-112332547D01*
X169866829Y-112425418D01*
X169834305Y-112504125D01*
X169808958Y-112565499D01*
X169792096Y-112606379D01*
X169785024Y-112623600D01*
X169784943Y-112623804D01*
X169770798Y-112638345D01*
X169743659Y-112638179D01*
X169700023Y-112622527D01*
X169636388Y-112590613D01*
X169631379Y-112587926D01*
X169584125Y-112563750D01*
X169546812Y-112546637D01*
X169527133Y-112540143D01*
X169511005Y-112547818D01*
X169474960Y-112569471D01*
X169423092Y-112602528D01*
X169359445Y-112644410D01*
X169288060Y-112692543D01*
X169217724Y-112739731D01*
X169152670Y-112781867D01*
X169098820Y-112815178D01*
X169060374Y-112837069D01*
X169041534Y-112844943D01*
X169038325Y-112843943D01*
X169015954Y-112828184D01*
X168977733Y-112795633D01*
X168927021Y-112749333D01*
X168867181Y-112692326D01*
X168801571Y-112627658D01*
X168584648Y-112410372D01*
X168753601Y-112161853D01*
X168922553Y-111913333D01*
X168871183Y-111802196D01*
X168871031Y-111801865D01*
X168840183Y-111731018D01*
X168808661Y-111652123D01*
X168783266Y-111582200D01*
X168779423Y-111570922D01*
X168760047Y-111518567D01*
X168742574Y-111477883D01*
X168730388Y-111456887D01*
X168725426Y-111453922D01*
X168695634Y-111443975D01*
X168645047Y-111431105D01*
X168579194Y-111416654D01*
X168503600Y-111401956D01*
X168480957Y-111397811D01*
X168399038Y-111382716D01*
X168322600Y-111368499D01*
X168259337Y-111356595D01*
X168216943Y-111348439D01*
X168140743Y-111333399D01*
X168140743Y-111016092D01*
X168140760Y-110977076D01*
X168141083Y-110881892D01*
X168142033Y-110810855D01*
X168143896Y-110760334D01*
X168146955Y-110726698D01*
X168151494Y-110706317D01*
X168157795Y-110695562D01*
X168166143Y-110690798D01*
X168174224Y-110688870D01*
X168207172Y-110682045D01*
X168259736Y-110671622D01*
X168326569Y-110658618D01*
X168402328Y-110644049D01*
X168481665Y-110628933D01*
X168559237Y-110614285D01*
X168629698Y-110601123D01*
X168687702Y-110590463D01*
X168727904Y-110583321D01*
X168744959Y-110580714D01*
X168746112Y-110579141D01*
X168755385Y-110558719D01*
X168771432Y-110519645D01*
X168791635Y-110468229D01*
X168819672Y-110398953D01*
X168854186Y-110318890D01*
X168886538Y-110248328D01*
X168893952Y-110232489D01*
X168914755Y-110182893D01*
X168927219Y-110144638D01*
X168928862Y-110124956D01*
X168928015Y-110123562D01*
X168914548Y-110103020D01*
X168887850Y-110063116D01*
X168850539Y-110007740D01*
X168805234Y-109940777D01*
X168754552Y-109866117D01*
X168697445Y-109781292D01*
X168654607Y-109715400D01*
X168625460Y-109667078D01*
X168608317Y-109633333D01*
X168601495Y-109611172D01*
X168603306Y-109597602D01*
X168603915Y-109596584D01*
X168620297Y-109576810D01*
X168653695Y-109540775D01*
X168700671Y-109492051D01*
X168757786Y-109434212D01*
X168821603Y-109370827D01*
X168887802Y-109306505D01*
X168952648Y-109246046D01*
X169000299Y-109205255D01*
X169031990Y-109183084D01*
X169048958Y-109178489D01*
X169051176Y-109179521D01*
X169074524Y-109193437D01*
X169116912Y-109220630D01*
X169174369Y-109258489D01*
X169242923Y-109304403D01*
X169318601Y-109355760D01*
X169565298Y-109524226D01*
X169676706Y-109473662D01*
X169679943Y-109472197D01*
X169748343Y-109442565D01*
X169820907Y-109413093D01*
X169882457Y-109389958D01*
X169882730Y-109389862D01*
X169931595Y-109371967D01*
X169969212Y-109356853D01*
X169987457Y-109347784D01*
X169987752Y-109347455D01*
X169993946Y-109328882D01*
X170004139Y-109286645D01*
X170017348Y-109225296D01*
X170032590Y-109149389D01*
X170048881Y-109063475D01*
X170049449Y-109060396D01*
X170065713Y-108972728D01*
X170080609Y-108893341D01*
X170093171Y-108827301D01*
X170102438Y-108779679D01*
X170107444Y-108755543D01*
X170107764Y-108754205D01*
X170111060Y-108743873D01*
X170117738Y-108736106D01*
X170131462Y-108730540D01*
X170155895Y-108726807D01*
X170194702Y-108724542D01*
X170251546Y-108723378D01*
X170330090Y-108722948D01*
X170434000Y-108722886D01*
X170447056Y-108722886D01*
X170547933Y-108722971D01*
G36*
X170547933Y-108722971D02*
G01*
X170623856Y-108723466D01*
X170678491Y-108724735D01*
X170715500Y-108727147D01*
X170738547Y-108731067D01*
X170751296Y-108736862D01*
X170757411Y-108744899D01*
X170760556Y-108755543D01*
X170760646Y-108755925D01*
X170765814Y-108780947D01*
X170775209Y-108829281D01*
X170787867Y-108895860D01*
X170802825Y-108975614D01*
X170819119Y-109063475D01*
X170820448Y-109070664D01*
X170836691Y-109155940D01*
X170851805Y-109230842D01*
X170864808Y-109290819D01*
X170874715Y-109331317D01*
X170880544Y-109347784D01*
X170880575Y-109347810D01*
X170898943Y-109356920D01*
X170936640Y-109372057D01*
X170985543Y-109389958D01*
X170988297Y-109390930D01*
X171050817Y-109414559D01*
X171123543Y-109444195D01*
X171191294Y-109473662D01*
X171302703Y-109524226D01*
X171549399Y-109355760D01*
X171566775Y-109343911D01*
X171641202Y-109293547D01*
X171707615Y-109249212D01*
X171762039Y-109213516D01*
X171800506Y-109189071D01*
X171819042Y-109178489D01*
X171831743Y-109180916D01*
X171860579Y-109199710D01*
X171905143Y-109236930D01*
X171966670Y-109293620D01*
X172046398Y-109370827D01*
X172053532Y-109377855D01*
X172116796Y-109440823D01*
X172172990Y-109497868D01*
X172218677Y-109545417D01*
X172250414Y-109579897D01*
X172264764Y-109597731D01*
X172264810Y-109597817D01*
X172266633Y-109611395D01*
X172259910Y-109633420D01*
X172242946Y-109666904D01*
X172214044Y-109714861D01*
X172171508Y-109780304D01*
X172113644Y-109866245D01*
X172103783Y-109880751D01*
X172053913Y-109954234D01*
X172009905Y-110019287D01*
X171974381Y-110072017D01*
X171949959Y-110108536D01*
X171939263Y-110124956D01*
X171938458Y-110128434D01*
X171943518Y-110154385D01*
X171958677Y-110196759D01*
X171981463Y-110248329D01*
X172012429Y-110315770D01*
X172047004Y-110395795D01*
X172076367Y-110468229D01*
X172083645Y-110486977D01*
X172102710Y-110534846D01*
X172116715Y-110568196D01*
X172123041Y-110580714D01*
X172130025Y-110581650D01*
X172161413Y-110587061D01*
X172212787Y-110596406D01*
X172278802Y-110608669D01*
X172354112Y-110622832D01*
X172433376Y-110637880D01*
X172511243Y-110652795D01*
X172582369Y-110666561D01*
X172641412Y-110678162D01*
X172683022Y-110686580D01*
X172701857Y-110690798D01*
X172704980Y-110691989D01*
X172712591Y-110698405D01*
X172718254Y-110712065D01*
X172722251Y-110736599D01*
X172724865Y-110775638D01*
X172726384Y-110832813D01*
X172727086Y-110911754D01*
X172727257Y-111016092D01*
X172727257Y-111333399D01*
X172651057Y-111348439D01*
X172641841Y-111350242D01*
X172592891Y-111359579D01*
X172525205Y-111372269D01*
X172446478Y-111386873D01*
X172364400Y-111401956D01*
X172332078Y-111408022D01*
X172259855Y-111422781D01*
X172199666Y-111436737D01*
X172157040Y-111448552D01*
X172137510Y-111456887D01*
X172128660Y-111470505D01*
X172112548Y-111506538D01*
X172096065Y-111553172D01*
X172090263Y-111570634D01*
X172068906Y-111627958D01*
X172041359Y-111695802D01*
X172012107Y-111762955D01*
X171996463Y-111798030D01*
X171974174Y-111850422D01*
X171958857Y-111889658D01*
X171953162Y-111909163D01*
X171953478Y-111910636D01*
X171964282Y-111931329D01*
X171988639Y-111971265D01*
X172024082Y-112026572D01*
X172068136Y-112093381D01*
X172118333Y-112167820D01*
X172283501Y-112410223D01*
X172066502Y-112627583D01*
X172045516Y-112648499D01*
X171981342Y-112711104D01*
X171923990Y-112765095D01*
X171876820Y-112807426D01*
X171843192Y-112835057D01*
X171826467Y-112844943D01*
X171808303Y-112837421D01*
X171770265Y-112815827D01*
X171716726Y-112782751D01*
X171651884Y-112740792D01*
X171579940Y-112692543D01*
X171509275Y-112644891D01*
X171445526Y-112602928D01*
X171393513Y-112569765D01*
X171357279Y-112547978D01*
X171340867Y-112540143D01*
X171339905Y-112540214D01*
X171318103Y-112547938D01*
X171279440Y-112565923D01*
X171231612Y-112590613D01*
X171231110Y-112590884D01*
X171167587Y-112622699D01*
X171124061Y-112638242D01*
X171097052Y-112638284D01*
X171083090Y-112623600D01*
X171077180Y-112609144D01*
X171061229Y-112570431D01*
X171036660Y-112510915D01*
X171004779Y-112433765D01*
X170966893Y-112342141D01*
X170924310Y-112239207D01*
X170878337Y-112128126D01*
X170836668Y-112027072D01*
X170794268Y-111923380D01*
X170756755Y-111830719D01*
X170725388Y-111752241D01*
X170701425Y-111691100D01*
X170686123Y-111650443D01*
X170680743Y-111633425D01*
X170691018Y-111617819D01*
X170719563Y-111591762D01*
X170759971Y-111561487D01*
X170856979Y-111482284D01*
X170943793Y-111381075D01*
X171007321Y-111269716D01*
X171047177Y-111151493D01*
X171062964Y-111029695D01*
X171054296Y-110907609D01*
X171020778Y-110788525D01*
X170962021Y-110675729D01*
X170877632Y-110572511D01*
X170833631Y-110532313D01*
X170728211Y-110461238D01*
X170615410Y-110414901D01*
X170498525Y-110392199D01*
X170380853Y-110392028D01*
X170265690Y-110413287D01*
X170156335Y-110454870D01*
X170056083Y-110515676D01*
X169968233Y-110594601D01*
X169896080Y-110690541D01*
X169842922Y-110802395D01*
X169812057Y-110929057D01*
X169806392Y-110990107D01*
X169814185Y-111122376D01*
X169849284Y-111247866D01*
X169910649Y-111364359D01*
X169997243Y-111469639D01*
X170108029Y-111561487D01*
X170146931Y-111590530D01*
X170176104Y-111616872D01*
X170187257Y-111633400D01*
X170182810Y-111647809D01*
X170168378Y-111686415D01*
X170145173Y-111745801D01*
X170114452Y-111822815D01*
X170077474Y-111914303D01*
X170035496Y-112017116D01*
X169989779Y-112128102D01*
X169948178Y-112228672D01*
X169905222Y-112332547D01*
X169866829Y-112425418D01*
X169834305Y-112504125D01*
X169808958Y-112565499D01*
X169792096Y-112606379D01*
X169785024Y-112623600D01*
X169784943Y-112623804D01*
X169770798Y-112638345D01*
X169743659Y-112638179D01*
X169700023Y-112622527D01*
X169636388Y-112590613D01*
X169631379Y-112587926D01*
X169584125Y-112563750D01*
X169546812Y-112546637D01*
X169527133Y-112540143D01*
X169511005Y-112547818D01*
X169474960Y-112569471D01*
X169423092Y-112602528D01*
X169359445Y-112644410D01*
X169288060Y-112692543D01*
X169217724Y-112739731D01*
X169152670Y-112781867D01*
X169098820Y-112815178D01*
X169060374Y-112837069D01*
X169041534Y-112844943D01*
X169038325Y-112843943D01*
X169015954Y-112828184D01*
X168977733Y-112795633D01*
X168927021Y-112749333D01*
X168867181Y-112692326D01*
X168801571Y-112627658D01*
X168584648Y-112410372D01*
X168753601Y-112161853D01*
X168922553Y-111913333D01*
X168871183Y-111802196D01*
X168871031Y-111801865D01*
X168840183Y-111731018D01*
X168808661Y-111652123D01*
X168783266Y-111582200D01*
X168779423Y-111570922D01*
X168760047Y-111518567D01*
X168742574Y-111477883D01*
X168730388Y-111456887D01*
X168725426Y-111453922D01*
X168695634Y-111443975D01*
X168645047Y-111431105D01*
X168579194Y-111416654D01*
X168503600Y-111401956D01*
X168480957Y-111397811D01*
X168399038Y-111382716D01*
X168322600Y-111368499D01*
X168259337Y-111356595D01*
X168216943Y-111348439D01*
X168140743Y-111333399D01*
X168140743Y-111016092D01*
X168140760Y-110977076D01*
X168141083Y-110881892D01*
X168142033Y-110810855D01*
X168143896Y-110760334D01*
X168146955Y-110726698D01*
X168151494Y-110706317D01*
X168157795Y-110695562D01*
X168166143Y-110690798D01*
X168174224Y-110688870D01*
X168207172Y-110682045D01*
X168259736Y-110671622D01*
X168326569Y-110658618D01*
X168402328Y-110644049D01*
X168481665Y-110628933D01*
X168559237Y-110614285D01*
X168629698Y-110601123D01*
X168687702Y-110590463D01*
X168727904Y-110583321D01*
X168744959Y-110580714D01*
X168746112Y-110579141D01*
X168755385Y-110558719D01*
X168771432Y-110519645D01*
X168791635Y-110468229D01*
X168819672Y-110398953D01*
X168854186Y-110318890D01*
X168886538Y-110248328D01*
X168893952Y-110232489D01*
X168914755Y-110182893D01*
X168927219Y-110144638D01*
X168928862Y-110124956D01*
X168928015Y-110123562D01*
X168914548Y-110103020D01*
X168887850Y-110063116D01*
X168850539Y-110007740D01*
X168805234Y-109940777D01*
X168754552Y-109866117D01*
X168697445Y-109781292D01*
X168654607Y-109715400D01*
X168625460Y-109667078D01*
X168608317Y-109633333D01*
X168601495Y-109611172D01*
X168603306Y-109597602D01*
X168603915Y-109596584D01*
X168620297Y-109576810D01*
X168653695Y-109540775D01*
X168700671Y-109492051D01*
X168757786Y-109434212D01*
X168821603Y-109370827D01*
X168887802Y-109306505D01*
X168952648Y-109246046D01*
X169000299Y-109205255D01*
X169031990Y-109183084D01*
X169048958Y-109178489D01*
X169051176Y-109179521D01*
X169074524Y-109193437D01*
X169116912Y-109220630D01*
X169174369Y-109258489D01*
X169242923Y-109304403D01*
X169318601Y-109355760D01*
X169565298Y-109524226D01*
X169676706Y-109473662D01*
X169679943Y-109472197D01*
X169748343Y-109442565D01*
X169820907Y-109413093D01*
X169882457Y-109389958D01*
X169882730Y-109389862D01*
X169931595Y-109371967D01*
X169969212Y-109356853D01*
X169987457Y-109347784D01*
X169987752Y-109347455D01*
X169993946Y-109328882D01*
X170004139Y-109286645D01*
X170017348Y-109225296D01*
X170032590Y-109149389D01*
X170048881Y-109063475D01*
X170049449Y-109060396D01*
X170065713Y-108972728D01*
X170080609Y-108893341D01*
X170093171Y-108827301D01*
X170102438Y-108779679D01*
X170107444Y-108755543D01*
X170107764Y-108754205D01*
X170111060Y-108743873D01*
X170117738Y-108736106D01*
X170131462Y-108730540D01*
X170155895Y-108726807D01*
X170194702Y-108724542D01*
X170251546Y-108723378D01*
X170330090Y-108722948D01*
X170434000Y-108722886D01*
X170447056Y-108722886D01*
X170547933Y-108722971D01*
G37*
%TD*%
M02*
