%TF.GenerationSoftware,KiCad,Pcbnew,9.0.6+1*%
%TF.CreationDate,2026-01-03T22:32:55+00:00*%
%TF.ProjectId,TFFLIP2PH,5446464c-4950-4325-9048-2e6b69636164,A*%
%TF.SameCoordinates,Original*%
%TF.FileFunction,Legend,Top*%
%TF.FilePolarity,Positive*%
%FSLAX46Y46*%
G04 Gerber Fmt 4.6, Leading zero omitted, Abs format (unit mm)*
G04 Created by KiCad (PCBNEW 9.0.6+1) date 2026-01-03 22:32:55*
%MOMM*%
%LPD*%
G01*
G04 APERTURE LIST*
%ADD10C,0.150000*%
%ADD11C,0.120000*%
%ADD12C,0.000000*%
G04 APERTURE END LIST*
D10*
X169338666Y-113844818D02*
X169338666Y-114559103D01*
X169338666Y-114559103D02*
X169291047Y-114701960D01*
X169291047Y-114701960D02*
X169195809Y-114797199D01*
X169195809Y-114797199D02*
X169052952Y-114844818D01*
X169052952Y-114844818D02*
X168957714Y-114844818D01*
X169719619Y-113844818D02*
X170386285Y-113844818D01*
X170386285Y-113844818D02*
X169957714Y-114844818D01*
X117599666Y-113772818D02*
X117599666Y-114487103D01*
X117599666Y-114487103D02*
X117552047Y-114629960D01*
X117552047Y-114629960D02*
X117456809Y-114725199D01*
X117456809Y-114725199D02*
X117313952Y-114772818D01*
X117313952Y-114772818D02*
X117218714Y-114772818D01*
X118028238Y-113868056D02*
X118075857Y-113820437D01*
X118075857Y-113820437D02*
X118171095Y-113772818D01*
X118171095Y-113772818D02*
X118409190Y-113772818D01*
X118409190Y-113772818D02*
X118504428Y-113820437D01*
X118504428Y-113820437D02*
X118552047Y-113868056D01*
X118552047Y-113868056D02*
X118599666Y-113963294D01*
X118599666Y-113963294D02*
X118599666Y-114058532D01*
X118599666Y-114058532D02*
X118552047Y-114201389D01*
X118552047Y-114201389D02*
X117980619Y-114772818D01*
X117980619Y-114772818D02*
X118599666Y-114772818D01*
X132411916Y-114026818D02*
X132411916Y-114741103D01*
X132411916Y-114741103D02*
X132364297Y-114883960D01*
X132364297Y-114883960D02*
X132269059Y-114979199D01*
X132269059Y-114979199D02*
X132126202Y-115026818D01*
X132126202Y-115026818D02*
X132030964Y-115026818D01*
X132792869Y-114026818D02*
X133411916Y-114026818D01*
X133411916Y-114026818D02*
X133078583Y-114407770D01*
X133078583Y-114407770D02*
X133221440Y-114407770D01*
X133221440Y-114407770D02*
X133316678Y-114455389D01*
X133316678Y-114455389D02*
X133364297Y-114503008D01*
X133364297Y-114503008D02*
X133411916Y-114598246D01*
X133411916Y-114598246D02*
X133411916Y-114836341D01*
X133411916Y-114836341D02*
X133364297Y-114931579D01*
X133364297Y-114931579D02*
X133316678Y-114979199D01*
X133316678Y-114979199D02*
X133221440Y-115026818D01*
X133221440Y-115026818D02*
X132935726Y-115026818D01*
X132935726Y-115026818D02*
X132840488Y-114979199D01*
X132840488Y-114979199D02*
X132792869Y-114931579D01*
X145344166Y-114026818D02*
X145344166Y-114741103D01*
X145344166Y-114741103D02*
X145296547Y-114883960D01*
X145296547Y-114883960D02*
X145201309Y-114979199D01*
X145201309Y-114979199D02*
X145058452Y-115026818D01*
X145058452Y-115026818D02*
X144963214Y-115026818D01*
X146248928Y-114026818D02*
X146058452Y-114026818D01*
X146058452Y-114026818D02*
X145963214Y-114074437D01*
X145963214Y-114074437D02*
X145915595Y-114122056D01*
X145915595Y-114122056D02*
X145820357Y-114264913D01*
X145820357Y-114264913D02*
X145772738Y-114455389D01*
X145772738Y-114455389D02*
X145772738Y-114836341D01*
X145772738Y-114836341D02*
X145820357Y-114931579D01*
X145820357Y-114931579D02*
X145867976Y-114979199D01*
X145867976Y-114979199D02*
X145963214Y-115026818D01*
X145963214Y-115026818D02*
X146153690Y-115026818D01*
X146153690Y-115026818D02*
X146248928Y-114979199D01*
X146248928Y-114979199D02*
X146296547Y-114931579D01*
X146296547Y-114931579D02*
X146344166Y-114836341D01*
X146344166Y-114836341D02*
X146344166Y-114598246D01*
X146344166Y-114598246D02*
X146296547Y-114503008D01*
X146296547Y-114503008D02*
X146248928Y-114455389D01*
X146248928Y-114455389D02*
X146153690Y-114407770D01*
X146153690Y-114407770D02*
X145963214Y-114407770D01*
X145963214Y-114407770D02*
X145867976Y-114455389D01*
X145867976Y-114455389D02*
X145820357Y-114503008D01*
X145820357Y-114503008D02*
X145772738Y-114598246D01*
X158276416Y-114098818D02*
X158276416Y-114813103D01*
X158276416Y-114813103D02*
X158228797Y-114955960D01*
X158228797Y-114955960D02*
X158133559Y-115051199D01*
X158133559Y-115051199D02*
X157990702Y-115098818D01*
X157990702Y-115098818D02*
X157895464Y-115098818D01*
X159228797Y-114098818D02*
X158752607Y-114098818D01*
X158752607Y-114098818D02*
X158704988Y-114575008D01*
X158704988Y-114575008D02*
X158752607Y-114527389D01*
X158752607Y-114527389D02*
X158847845Y-114479770D01*
X158847845Y-114479770D02*
X159085940Y-114479770D01*
X159085940Y-114479770D02*
X159181178Y-114527389D01*
X159181178Y-114527389D02*
X159228797Y-114575008D01*
X159228797Y-114575008D02*
X159276416Y-114670246D01*
X159276416Y-114670246D02*
X159276416Y-114908341D01*
X159276416Y-114908341D02*
X159228797Y-115003579D01*
X159228797Y-115003579D02*
X159181178Y-115051199D01*
X159181178Y-115051199D02*
X159085940Y-115098818D01*
X159085940Y-115098818D02*
X158847845Y-115098818D01*
X158847845Y-115098818D02*
X158752607Y-115051199D01*
X158752607Y-115051199D02*
X158704988Y-115003579D01*
D11*
%TO.C,J7*%
X165437000Y-110750000D02*
X165437000Y-112200000D01*
X165437000Y-112200000D02*
X167237000Y-112200001D01*
X172107000Y-112200001D02*
X172107000Y-113190000D01*
X172637000Y-107930000D02*
X166707000Y-107930000D01*
X173907000Y-110750000D02*
X173907000Y-112200000D01*
X173907000Y-112200000D02*
X172107000Y-112200001D01*
%TO.C,J2*%
X109948000Y-110678000D02*
X109948000Y-112128000D01*
X109948000Y-112128000D02*
X111748000Y-112128000D01*
X124118000Y-112128000D02*
X124118000Y-113118000D01*
X124648000Y-107858001D02*
X111218000Y-107858001D01*
X125918000Y-110678000D02*
X125918000Y-112128000D01*
X125918000Y-112128000D02*
X124118000Y-112128000D01*
%TO.C,J3*%
X127260250Y-110932000D02*
X127260250Y-112382000D01*
X127260250Y-112382000D02*
X129060250Y-112382000D01*
X136430250Y-112382000D02*
X136430250Y-113372000D01*
X136960250Y-108112001D02*
X128530250Y-108112001D01*
X138230250Y-110932000D02*
X138230250Y-112382000D01*
X138230250Y-112382000D02*
X136430250Y-112382000D01*
%TO.C,J6*%
X139567500Y-110932000D02*
X139567500Y-112382000D01*
X139567500Y-112382000D02*
X141367500Y-112382000D01*
X149987500Y-112382000D02*
X149987500Y-113372000D01*
X150517500Y-108112000D02*
X140837500Y-108112000D01*
X151787500Y-110932000D02*
X151787500Y-112382000D01*
X151787500Y-112382000D02*
X149987500Y-112382000D01*
%TO.C,J5*%
X153124750Y-111004000D02*
X153124750Y-112454000D01*
X153124750Y-112454000D02*
X154924750Y-112454000D01*
X162294750Y-112454000D02*
X162294750Y-113444000D01*
X162824750Y-108184001D02*
X154394750Y-108184001D01*
X164094750Y-111004000D02*
X164094750Y-112454000D01*
X164094750Y-112454000D02*
X162294750Y-112454000D01*
D12*
%TO.C,G1*%
G36*
X123653922Y-119927671D02*
G01*
X123240690Y-119927671D01*
X123240690Y-121121452D01*
X122974385Y-121121452D01*
X122974385Y-119927671D01*
X122561153Y-119927671D01*
X122561153Y-119661365D01*
X123653922Y-119661365D01*
X123653922Y-119927671D01*
G37*
G36*
X130605405Y-119927671D02*
G01*
X129944233Y-119927671D01*
X129944233Y-120230417D01*
X130199060Y-120232858D01*
X130453886Y-120235299D01*
X130458982Y-120497013D01*
X129944233Y-120497013D01*
X129944233Y-120864330D01*
X130623771Y-120864330D01*
X130623771Y-121121452D01*
X129668745Y-121121452D01*
X129668745Y-119661365D01*
X130605405Y-119661365D01*
X130605405Y-119927671D01*
G37*
G36*
X125003814Y-121121452D02*
G01*
X124728326Y-121121452D01*
X124728326Y-120497013D01*
X124067154Y-120497013D01*
X124067154Y-121121452D01*
X123800849Y-121121452D01*
X123800849Y-119661365D01*
X124067154Y-119661365D01*
X124067154Y-120239890D01*
X124728064Y-120239890D01*
X124730491Y-119952924D01*
X124732917Y-119665957D01*
X124868366Y-119663416D01*
X125003814Y-119660874D01*
X125003814Y-121121452D01*
G37*
G36*
X127910213Y-119665957D02*
G01*
X127912564Y-120393705D01*
X127914915Y-121121452D01*
X127685250Y-121121452D01*
X127356950Y-120628976D01*
X127028651Y-120136501D01*
X127026276Y-120628976D01*
X127023900Y-121121452D01*
X126757755Y-121121452D01*
X126757755Y-119661365D01*
X126888611Y-119661370D01*
X127019468Y-119661375D01*
X127327097Y-120126465D01*
X127634725Y-120591556D01*
X127637105Y-120126216D01*
X127639485Y-119660875D01*
X127910213Y-119665957D01*
G37*
G36*
X132878542Y-117895696D02*
G01*
X132876027Y-117910151D01*
X132870589Y-117941218D01*
X132862487Y-117987419D01*
X132851981Y-118047279D01*
X132839330Y-118119320D01*
X132824794Y-118202065D01*
X132808631Y-118294039D01*
X132791102Y-118393764D01*
X132772465Y-118499764D01*
X132752980Y-118610562D01*
X132750671Y-118623694D01*
X132628728Y-119317005D01*
X132494037Y-119319547D01*
X132439304Y-119320225D01*
X132400706Y-119319762D01*
X132376035Y-119318007D01*
X132363088Y-119314809D01*
X132359636Y-119310364D01*
X132361239Y-119299678D01*
X132365795Y-119272297D01*
X132373061Y-119229610D01*
X132382797Y-119173007D01*
X132394762Y-119103879D01*
X132408713Y-119023617D01*
X132424411Y-118933609D01*
X132441612Y-118835247D01*
X132460077Y-118729920D01*
X132479563Y-118619019D01*
X132486012Y-118582370D01*
X132612098Y-117866101D01*
X132884472Y-117861009D01*
X132878542Y-117895696D01*
G37*
G36*
X133254586Y-121472238D02*
G01*
X133279275Y-121473990D01*
X133292239Y-121477184D01*
X133295705Y-121481637D01*
X133294099Y-121492322D01*
X133289539Y-121519703D01*
X133282267Y-121562389D01*
X133272523Y-121618991D01*
X133260549Y-121688117D01*
X133246587Y-121768379D01*
X133230878Y-121858385D01*
X133213664Y-121956745D01*
X133195186Y-122062071D01*
X133175686Y-122172970D01*
X133169230Y-122209630D01*
X133043055Y-122925899D01*
X132770879Y-122930991D01*
X132776827Y-122896305D01*
X132779344Y-122881849D01*
X132784781Y-122850782D01*
X132792878Y-122804579D01*
X132803378Y-122744718D01*
X132816020Y-122672675D01*
X132830545Y-122589927D01*
X132846694Y-122497951D01*
X132864209Y-122398224D01*
X132882829Y-122292222D01*
X132902295Y-122181421D01*
X132904600Y-122168307D01*
X133026424Y-121474995D01*
X133161214Y-121472454D01*
X133215967Y-121471776D01*
X133254586Y-121472238D01*
G37*
G36*
X133728768Y-117862710D02*
G01*
X133773634Y-117863207D01*
X133793490Y-117863553D01*
X133926212Y-117866101D01*
X133809054Y-118531864D01*
X133789720Y-118641757D01*
X133771096Y-118747673D01*
X133753461Y-118848021D01*
X133737095Y-118941209D01*
X133722275Y-119025645D01*
X133709282Y-119099738D01*
X133698395Y-119161897D01*
X133689893Y-119210528D01*
X133684056Y-119244041D01*
X133681370Y-119259612D01*
X133670846Y-119321597D01*
X133396667Y-119321597D01*
X133401623Y-119300935D01*
X133403964Y-119288796D01*
X133409219Y-119259991D01*
X133417135Y-119215943D01*
X133427462Y-119158077D01*
X133439945Y-119087817D01*
X133454332Y-119006587D01*
X133470371Y-118915811D01*
X133487810Y-118816914D01*
X133506396Y-118711319D01*
X133525875Y-118600451D01*
X133530562Y-118573751D01*
X133550139Y-118462368D01*
X133568844Y-118356308D01*
X133586428Y-118256950D01*
X133602645Y-118165671D01*
X133617248Y-118083851D01*
X133629991Y-118012868D01*
X133640625Y-117954100D01*
X133648906Y-117908925D01*
X133654584Y-117878723D01*
X133657415Y-117864871D01*
X133657655Y-117864116D01*
X133667445Y-117863178D01*
X133692261Y-117862705D01*
X133728768Y-117862710D01*
G37*
G36*
X134347735Y-121491065D02*
G01*
X134345438Y-121503256D01*
X134340241Y-121532090D01*
X134332401Y-121576118D01*
X134322173Y-121633891D01*
X134309811Y-121703960D01*
X134295572Y-121784874D01*
X134279711Y-121875186D01*
X134262483Y-121973445D01*
X134244143Y-122078202D01*
X134224946Y-122188007D01*
X134223575Y-122195856D01*
X134204306Y-122306101D01*
X134185861Y-122411504D01*
X134168497Y-122510602D01*
X134152471Y-122601933D01*
X134138041Y-122684036D01*
X134125463Y-122755447D01*
X134114996Y-122814706D01*
X134106896Y-122860350D01*
X134101421Y-122890916D01*
X134098827Y-122904943D01*
X134098767Y-122905237D01*
X134093461Y-122930491D01*
X133961038Y-122930491D01*
X133905905Y-122930071D01*
X133867112Y-122928697D01*
X133842651Y-122926194D01*
X133830514Y-122922389D01*
X133828275Y-122919012D01*
X133829773Y-122908367D01*
X133834216Y-122881022D01*
X133841365Y-122838364D01*
X133850982Y-122781781D01*
X133862828Y-122712660D01*
X133876664Y-122632388D01*
X133892251Y-122542353D01*
X133909351Y-122443942D01*
X133927725Y-122338544D01*
X133947134Y-122227544D01*
X133953893Y-122188968D01*
X134079850Y-121470404D01*
X134352392Y-121470404D01*
X134347735Y-121491065D01*
G37*
G36*
X132057489Y-121471572D02*
G01*
X132102327Y-121472095D01*
X132122383Y-121472447D01*
X132255293Y-121474995D01*
X132142404Y-122117801D01*
X132123295Y-122226585D01*
X132104771Y-122331990D01*
X132087131Y-122432315D01*
X132070675Y-122525860D01*
X132055702Y-122610924D01*
X132042512Y-122685806D01*
X132031403Y-122748806D01*
X132022676Y-122798224D01*
X132016630Y-122832359D01*
X132014279Y-122845548D01*
X131999042Y-122930491D01*
X131866974Y-122930491D01*
X131815353Y-122930385D01*
X131779305Y-122929793D01*
X131756036Y-122928300D01*
X131742754Y-122925489D01*
X131736664Y-122920947D01*
X131734975Y-122914257D01*
X131734906Y-122910869D01*
X131736446Y-122899200D01*
X131740873Y-122871318D01*
X131747895Y-122828886D01*
X131757221Y-122773573D01*
X131768558Y-122707042D01*
X131781616Y-122630961D01*
X131796103Y-122546994D01*
X131811727Y-122456808D01*
X131828196Y-122362068D01*
X131845220Y-122264440D01*
X131862507Y-122165590D01*
X131879764Y-122067184D01*
X131896702Y-121970887D01*
X131913027Y-121878364D01*
X131928448Y-121791283D01*
X131942675Y-121711308D01*
X131955415Y-121640105D01*
X131966377Y-121579341D01*
X131975269Y-121530680D01*
X131981799Y-121495789D01*
X131985677Y-121476333D01*
X131986609Y-121472762D01*
X131996307Y-121471913D01*
X132021041Y-121471514D01*
X132057489Y-121471572D01*
G37*
G36*
X134890598Y-117861958D02*
G01*
X134930429Y-117863191D01*
X134959750Y-117865040D01*
X134975315Y-117867339D01*
X134976970Y-117868397D01*
X134975499Y-117878308D01*
X134971088Y-117904937D01*
X134963975Y-117946912D01*
X134954397Y-118002861D01*
X134942589Y-118071414D01*
X134928790Y-118151199D01*
X134913236Y-118240844D01*
X134896164Y-118338978D01*
X134877811Y-118444229D01*
X134858414Y-118555227D01*
X134850851Y-118598441D01*
X134724244Y-119321597D01*
X134451595Y-119321597D01*
X134456877Y-119296344D01*
X134459278Y-119283400D01*
X134464576Y-119253826D01*
X134472515Y-119209083D01*
X134482837Y-119150633D01*
X134495286Y-119079939D01*
X134509604Y-118998462D01*
X134525534Y-118907665D01*
X134542818Y-118809010D01*
X134561200Y-118703959D01*
X134580423Y-118593973D01*
X134581647Y-118586962D01*
X134600892Y-118476857D01*
X134619300Y-118371698D01*
X134636615Y-118272936D01*
X134652582Y-118182020D01*
X134666945Y-118100400D01*
X134679449Y-118029524D01*
X134689839Y-117970842D01*
X134697860Y-117925803D01*
X134703255Y-117895857D01*
X134705770Y-117882453D01*
X134705832Y-117882172D01*
X134708312Y-117874118D01*
X134713403Y-117868486D01*
X134723989Y-117864844D01*
X134742956Y-117862759D01*
X134773192Y-117861796D01*
X134817582Y-117861523D01*
X134843504Y-117861510D01*
X134890598Y-117861958D01*
G37*
G36*
X133560627Y-119663172D02*
G01*
X133590324Y-119664160D01*
X133606336Y-119665784D01*
X133608225Y-119666723D01*
X133606674Y-119677167D01*
X133602241Y-119703841D01*
X133595249Y-119744893D01*
X133586025Y-119798469D01*
X133574895Y-119862717D01*
X133562184Y-119935784D01*
X133548218Y-120015816D01*
X133533322Y-120100962D01*
X133517823Y-120189367D01*
X133502045Y-120279179D01*
X133486315Y-120368545D01*
X133470958Y-120455613D01*
X133456299Y-120538528D01*
X133442666Y-120615439D01*
X133430382Y-120684493D01*
X133419774Y-120743835D01*
X133411168Y-120791614D01*
X133404889Y-120825977D01*
X133401263Y-120845071D01*
X133400562Y-120848260D01*
X133400162Y-120853008D01*
X133403430Y-120856719D01*
X133412327Y-120859520D01*
X133428813Y-120861538D01*
X133454850Y-120862900D01*
X133492398Y-120863733D01*
X133543418Y-120864163D01*
X133609872Y-120864317D01*
X133649104Y-120864330D01*
X133902428Y-120864330D01*
X133897955Y-120884992D01*
X133894411Y-120903125D01*
X133888771Y-120933901D01*
X133882027Y-120971855D01*
X133879160Y-120988300D01*
X133872142Y-121028369D01*
X133865727Y-121064239D01*
X133860959Y-121090092D01*
X133859772Y-121096199D01*
X133854705Y-121121452D01*
X133469751Y-121121452D01*
X133371628Y-121121342D01*
X133290522Y-121120984D01*
X133225087Y-121120338D01*
X133173976Y-121119365D01*
X133135840Y-121118023D01*
X133109334Y-121116273D01*
X133093110Y-121114075D01*
X133085821Y-121111388D01*
X133085097Y-121109974D01*
X133086703Y-121099327D01*
X133091262Y-121071985D01*
X133098534Y-121029336D01*
X133108278Y-120972770D01*
X133120251Y-120903676D01*
X133134212Y-120823445D01*
X133149920Y-120733464D01*
X133167133Y-120635125D01*
X133185610Y-120529816D01*
X133205109Y-120418927D01*
X133211572Y-120382226D01*
X133337747Y-119665957D01*
X133472986Y-119663416D01*
X133520447Y-119662898D01*
X133560627Y-119663172D01*
G37*
G36*
X128532357Y-119663865D02*
G01*
X128621210Y-119665185D01*
X128693921Y-119666506D01*
X128752713Y-119667960D01*
X128799811Y-119669679D01*
X128837437Y-119671794D01*
X128867814Y-119674439D01*
X128893167Y-119677745D01*
X128915719Y-119681843D01*
X128937692Y-119686867D01*
X128943293Y-119688267D01*
X129052807Y-119724585D01*
X129150725Y-119774890D01*
X129236460Y-119838602D01*
X129309423Y-119915146D01*
X129369028Y-120003942D01*
X129414687Y-120104414D01*
X129435717Y-120172254D01*
X129452082Y-120257577D01*
X129460268Y-120351980D01*
X129460203Y-120448677D01*
X129451816Y-120540878D01*
X129440205Y-120602245D01*
X129405451Y-120709968D01*
X129356341Y-120807575D01*
X129293750Y-120893946D01*
X129218558Y-120967964D01*
X129131641Y-121028509D01*
X129087480Y-121051759D01*
X129055146Y-121067003D01*
X129026470Y-121079599D01*
X128999295Y-121089820D01*
X128971463Y-121097939D01*
X128940819Y-121104229D01*
X128905204Y-121108962D01*
X128862464Y-121112411D01*
X128810439Y-121114849D01*
X128746975Y-121116549D01*
X128669914Y-121117783D01*
X128577099Y-121118823D01*
X128555314Y-121119043D01*
X128199476Y-121122620D01*
X128199476Y-120882696D01*
X128199476Y-119909305D01*
X128465781Y-119909305D01*
X128465781Y-120882696D01*
X128635213Y-120882696D01*
X128693063Y-120882130D01*
X128748121Y-120880560D01*
X128796320Y-120878179D01*
X128833594Y-120875181D01*
X128853308Y-120872363D01*
X128931468Y-120846926D01*
X128999789Y-120806325D01*
X129057514Y-120751358D01*
X129103886Y-120682826D01*
X129138147Y-120601526D01*
X129149722Y-120559675D01*
X129158774Y-120503602D01*
X129163203Y-120436431D01*
X129163084Y-120364818D01*
X129158494Y-120295419D01*
X129149506Y-120234890D01*
X129145884Y-120219145D01*
X129126725Y-120155577D01*
X129103818Y-120104291D01*
X129073975Y-120059212D01*
X129043685Y-120024293D01*
X129008185Y-119990156D01*
X128971765Y-119963225D01*
X128931725Y-119942729D01*
X128885371Y-119927895D01*
X128830004Y-119917951D01*
X128762929Y-119912125D01*
X128681448Y-119909644D01*
X128642552Y-119909414D01*
X128465781Y-119909305D01*
X128199476Y-119909305D01*
X128199476Y-119659216D01*
X128532357Y-119663865D01*
G37*
G36*
X131151789Y-119666692D02*
G01*
X131248002Y-119667092D01*
X131328029Y-119667982D01*
X131394050Y-119669614D01*
X131448243Y-119672242D01*
X131492789Y-119676118D01*
X131529866Y-119681496D01*
X131561652Y-119688628D01*
X131590328Y-119697768D01*
X131618072Y-119709169D01*
X131647064Y-119723084D01*
X131649964Y-119724547D01*
X131722665Y-119770557D01*
X131780676Y-119827561D01*
X131823930Y-119895480D01*
X131850657Y-119967618D01*
X131859213Y-120015471D01*
X131863343Y-120073651D01*
X131863175Y-120135907D01*
X131858837Y-120195987D01*
X131850457Y-120247640D01*
X131844487Y-120269263D01*
X131809103Y-120346357D01*
X131758474Y-120413372D01*
X131693067Y-120469737D01*
X131666034Y-120487287D01*
X131643606Y-120500875D01*
X131628793Y-120510030D01*
X131625992Y-120511865D01*
X131629434Y-120520220D01*
X131640684Y-120542916D01*
X131658798Y-120578148D01*
X131682833Y-120624112D01*
X131711844Y-120679002D01*
X131744887Y-120741014D01*
X131781018Y-120808342D01*
X131782102Y-120810355D01*
X131818564Y-120878106D01*
X131852258Y-120940810D01*
X131882195Y-120996616D01*
X131907385Y-121043676D01*
X131926838Y-121080141D01*
X131939564Y-121104161D01*
X131944574Y-121113887D01*
X131944583Y-121113909D01*
X131936959Y-121116414D01*
X131913916Y-121118567D01*
X131878400Y-121120219D01*
X131833355Y-121121219D01*
X131796148Y-121121452D01*
X131644651Y-121121452D01*
X131507799Y-120857443D01*
X131370947Y-120593433D01*
X131101283Y-120588351D01*
X131101283Y-121121452D01*
X130825685Y-121121452D01*
X130828036Y-120393705D01*
X130828140Y-120361425D01*
X130829668Y-119888590D01*
X131101283Y-119888590D01*
X131101283Y-120361425D01*
X131250506Y-120357039D01*
X131318111Y-120354364D01*
X131369832Y-120350659D01*
X131408133Y-120345669D01*
X131435480Y-120339139D01*
X131440421Y-120337415D01*
X131497568Y-120308516D01*
X131539544Y-120269848D01*
X131566953Y-120220512D01*
X131580400Y-120159606D01*
X131582072Y-120126007D01*
X131575254Y-120057674D01*
X131554333Y-120000621D01*
X131519593Y-119955307D01*
X131471318Y-119922191D01*
X131450105Y-119913130D01*
X131425131Y-119906320D01*
X131389918Y-119901031D01*
X131342025Y-119897014D01*
X131279007Y-119894020D01*
X131255097Y-119893233D01*
X131101283Y-119888590D01*
X130829668Y-119888590D01*
X130830387Y-119665957D01*
X131151789Y-119666692D01*
G37*
G36*
X125545607Y-120092053D02*
G01*
X125545831Y-120195653D01*
X125546479Y-120291189D01*
X125547520Y-120377007D01*
X125548921Y-120451449D01*
X125550649Y-120512860D01*
X125552671Y-120559585D01*
X125554956Y-120589966D01*
X125555492Y-120594300D01*
X125572634Y-120678892D01*
X125598888Y-120747934D01*
X125635153Y-120802305D01*
X125682333Y-120842884D01*
X125741329Y-120870548D01*
X125813043Y-120886179D01*
X125858864Y-120889992D01*
X125942614Y-120888175D01*
X126013130Y-120874132D01*
X126071556Y-120847066D01*
X126119034Y-120806182D01*
X126156705Y-120750685D01*
X126185712Y-120679778D01*
X126192248Y-120657738D01*
X126196289Y-120641953D01*
X126199703Y-120625099D01*
X126202558Y-120605469D01*
X126204925Y-120581360D01*
X126206871Y-120551068D01*
X126208467Y-120512887D01*
X126209781Y-120465113D01*
X126210883Y-120406042D01*
X126211840Y-120333968D01*
X126212723Y-120247188D01*
X126213601Y-120143996D01*
X126213733Y-120127399D01*
X126217423Y-119661365D01*
X126483264Y-119661365D01*
X126480036Y-120168723D01*
X126479321Y-120278242D01*
X126478638Y-120371022D01*
X126477920Y-120448687D01*
X126477099Y-120512865D01*
X126476105Y-120565181D01*
X126474873Y-120607261D01*
X126473332Y-120640731D01*
X126471417Y-120667217D01*
X126469058Y-120688344D01*
X126466187Y-120705738D01*
X126462737Y-120721027D01*
X126458640Y-120735834D01*
X126455953Y-120744802D01*
X126417537Y-120844812D01*
X126367212Y-120931705D01*
X126305521Y-121004903D01*
X126233006Y-121063830D01*
X126150210Y-121107905D01*
X126097779Y-121126411D01*
X126062703Y-121134672D01*
X126016755Y-121142735D01*
X125966478Y-121149730D01*
X125918413Y-121154792D01*
X125879101Y-121157053D01*
X125867251Y-121156977D01*
X125841067Y-121155266D01*
X125804986Y-121152005D01*
X125771137Y-121148384D01*
X125670822Y-121128501D01*
X125579765Y-121093583D01*
X125499045Y-121044362D01*
X125429741Y-120981570D01*
X125372932Y-120905940D01*
X125348608Y-120861618D01*
X125332299Y-120826323D01*
X125318339Y-120791167D01*
X125306565Y-120754473D01*
X125296814Y-120714565D01*
X125288922Y-120669763D01*
X125282727Y-120618392D01*
X125278064Y-120558773D01*
X125274772Y-120489228D01*
X125272687Y-120408082D01*
X125271646Y-120313655D01*
X125271485Y-120204271D01*
X125272042Y-120078253D01*
X125272066Y-120074598D01*
X125274711Y-119665957D01*
X125410159Y-119663416D01*
X125545607Y-119660874D01*
X125545607Y-120092053D01*
G37*
G36*
X134995127Y-119663046D02*
G01*
X135016941Y-119663405D01*
X135153014Y-119665957D01*
X134847245Y-120060823D01*
X134789242Y-120135856D01*
X134734392Y-120207061D01*
X134683775Y-120273017D01*
X134638469Y-120332306D01*
X134599557Y-120383509D01*
X134568117Y-120425207D01*
X134545229Y-120455982D01*
X134531973Y-120474413D01*
X134529246Y-120478647D01*
X134524740Y-120493086D01*
X134517683Y-120523285D01*
X134508547Y-120566887D01*
X134497800Y-120621536D01*
X134485910Y-120684874D01*
X134473348Y-120754546D01*
X134466192Y-120795458D01*
X134453720Y-120867228D01*
X134442067Y-120933643D01*
X134431642Y-120992420D01*
X134422855Y-121041273D01*
X134416115Y-121077919D01*
X134411832Y-121100073D01*
X134410635Y-121105382D01*
X134407051Y-121111717D01*
X134398765Y-121116145D01*
X134382941Y-121119001D01*
X134356743Y-121120615D01*
X134317334Y-121121320D01*
X134273369Y-121121452D01*
X134226408Y-121121081D01*
X134186764Y-121120061D01*
X134157674Y-121118531D01*
X134142372Y-121116630D01*
X134140835Y-121115766D01*
X134142368Y-121105701D01*
X134146727Y-121079652D01*
X134153549Y-121039720D01*
X134162471Y-120988008D01*
X134173131Y-120926618D01*
X134185166Y-120857653D01*
X134196071Y-120795420D01*
X134251307Y-120480760D01*
X134081284Y-120075912D01*
X134047233Y-119994729D01*
X134015457Y-119918771D01*
X133986647Y-119849702D01*
X133961493Y-119789190D01*
X133940687Y-119738899D01*
X133924920Y-119700495D01*
X133914882Y-119675645D01*
X133911264Y-119666013D01*
X133911261Y-119665982D01*
X133919923Y-119664399D01*
X133943835Y-119663340D01*
X133979888Y-119662860D01*
X134024973Y-119663015D01*
X134054675Y-119663428D01*
X134198088Y-119665957D01*
X134314093Y-119952711D01*
X134341725Y-120020690D01*
X134367272Y-120082908D01*
X134389904Y-120137400D01*
X134408795Y-120182198D01*
X134423117Y-120215336D01*
X134432044Y-120234848D01*
X134434689Y-120239359D01*
X134440979Y-120232203D01*
X134456949Y-120211849D01*
X134481394Y-120179891D01*
X134513110Y-120137924D01*
X134550892Y-120087543D01*
X134593537Y-120030343D01*
X134639840Y-119967919D01*
X134650272Y-119953814D01*
X134697428Y-119890258D01*
X134741414Y-119831431D01*
X134780990Y-119778958D01*
X134814915Y-119734463D01*
X134841950Y-119699571D01*
X134860853Y-119675907D01*
X134870385Y-119665095D01*
X134871066Y-119664614D01*
X134883306Y-119663453D01*
X134910401Y-119662785D01*
X134948843Y-119662640D01*
X134995127Y-119663046D01*
G37*
G36*
X132931192Y-119661532D02*
G01*
X132996971Y-119661900D01*
X133054577Y-119662470D01*
X133101799Y-119663246D01*
X133136426Y-119664236D01*
X133156246Y-119665446D01*
X133160084Y-119666250D01*
X133160354Y-119676593D01*
X133157671Y-119701510D01*
X133152499Y-119737528D01*
X133145298Y-119781174D01*
X133143298Y-119792515D01*
X133135308Y-119837739D01*
X133128638Y-119876379D01*
X133123891Y-119904880D01*
X133121669Y-119919685D01*
X133121579Y-119920783D01*
X133112743Y-119922445D01*
X133087702Y-119923963D01*
X133048613Y-119925286D01*
X132997637Y-119926366D01*
X132936933Y-119927151D01*
X132868659Y-119927592D01*
X132823735Y-119927671D01*
X132525940Y-119927671D01*
X132516384Y-119975881D01*
X132510270Y-120007919D01*
X132502508Y-120050241D01*
X132494527Y-120095025D01*
X132492483Y-120106738D01*
X132485563Y-120146061D01*
X132479339Y-120180454D01*
X132474807Y-120204457D01*
X132473664Y-120210046D01*
X132469191Y-120230707D01*
X132698939Y-120230707D01*
X132773237Y-120230912D01*
X132830851Y-120231580D01*
X132873458Y-120232796D01*
X132902738Y-120234643D01*
X132920368Y-120237207D01*
X132928026Y-120240569D01*
X132928673Y-120242186D01*
X132927088Y-120254830D01*
X132922857Y-120281175D01*
X132916755Y-120316878D01*
X132909554Y-120357596D01*
X132902029Y-120398983D01*
X132894952Y-120436698D01*
X132889096Y-120466396D01*
X132886985Y-120476351D01*
X132882423Y-120497013D01*
X132423976Y-120497013D01*
X132419288Y-120517674D01*
X132416527Y-120532005D01*
X132411143Y-120561832D01*
X132403593Y-120604545D01*
X132394336Y-120657535D01*
X132383830Y-120718192D01*
X132372915Y-120781684D01*
X132361314Y-120849127D01*
X132350217Y-120913118D01*
X132340151Y-120970659D01*
X132331642Y-121018754D01*
X132325217Y-121054406D01*
X132321679Y-121073242D01*
X132312129Y-121121452D01*
X132179627Y-121121452D01*
X132127276Y-121121225D01*
X132090610Y-121120347D01*
X132066955Y-121118519D01*
X132053634Y-121115446D01*
X132047969Y-121110829D01*
X132047126Y-121106744D01*
X132048682Y-121095022D01*
X132053155Y-121067047D01*
X132060249Y-121024491D01*
X132069669Y-120969028D01*
X132081120Y-120902329D01*
X132094308Y-120826068D01*
X132108937Y-120741917D01*
X132124712Y-120651548D01*
X132141339Y-120556635D01*
X132158522Y-120458850D01*
X132175966Y-120359865D01*
X132193377Y-120261353D01*
X132210458Y-120164987D01*
X132226917Y-120072439D01*
X132242456Y-119985382D01*
X132256782Y-119905489D01*
X132269599Y-119834432D01*
X132280613Y-119773884D01*
X132289528Y-119725518D01*
X132296049Y-119691005D01*
X132299882Y-119672019D01*
X132300726Y-119668817D01*
X132310444Y-119667417D01*
X132336316Y-119666144D01*
X132376130Y-119665006D01*
X132427675Y-119664009D01*
X132488740Y-119663159D01*
X132557112Y-119662464D01*
X132630581Y-119661930D01*
X132706935Y-119661562D01*
X132783963Y-119661369D01*
X132859452Y-119661357D01*
X132931192Y-119661532D01*
G37*
%TD*%
M02*
