%TF.GenerationSoftware,KiCad,Pcbnew,9.0.6+1*%
%TF.CreationDate,2026-01-07T09:47:47+00:00*%
%TF.ProjectId,TFFLIP2PH,5446464c-4950-4325-9048-2e6b69636164,A*%
%TF.SameCoordinates,Original*%
%TF.FileFunction,Paste,Top*%
%TF.FilePolarity,Positive*%
%FSLAX46Y46*%
G04 Gerber Fmt 4.6, Leading zero omitted, Abs format (unit mm)*
G04 Created by KiCad (PCBNEW 9.0.6+1) date 2026-01-07 09:47:47*
%MOMM*%
%LPD*%
G01*
G04 APERTURE LIST*
G04 Aperture macros list*
%AMRoundRect*
0 Rectangle with rounded corners*
0 $1 Rounding radius*
0 $2 $3 $4 $5 $6 $7 $8 $9 X,Y pos of 4 corners*
0 Add a 4 corners polygon primitive as box body*
4,1,4,$2,$3,$4,$5,$6,$7,$8,$9,$2,$3,0*
0 Add four circle primitives for the rounded corners*
1,1,$1+$1,$2,$3*
1,1,$1+$1,$4,$5*
1,1,$1+$1,$6,$7*
1,1,$1+$1,$8,$9*
0 Add four rect primitives between the rounded corners*
20,1,$1+$1,$2,$3,$4,$5,0*
20,1,$1+$1,$4,$5,$6,$7,0*
20,1,$1+$1,$6,$7,$8,$9,0*
20,1,$1+$1,$8,$9,$2,$3,0*%
G04 Aperture macros list end*
%ADD10RoundRect,0.150000X0.150000X0.700000X-0.150000X0.700000X-0.150000X-0.700000X0.150000X-0.700000X0*%
%ADD11RoundRect,0.250000X0.250000X1.100000X-0.250000X1.100000X-0.250000X-1.100000X0.250000X-1.100000X0*%
G04 APERTURE END LIST*
D10*
%TO.C,J7*%
X171547000Y-112340000D03*
X170297000Y-112340000D03*
X169047000Y-112340000D03*
X167797000Y-112340000D03*
D11*
X173397000Y-109140000D03*
X165947000Y-109140000D03*
%TD*%
D10*
%TO.C,J2*%
X123925000Y-112340000D03*
X122675000Y-112340000D03*
X121425000Y-112340000D03*
X120175000Y-112340000D03*
X118925000Y-112340000D03*
X117675000Y-112340000D03*
X116425000Y-112340000D03*
X115175000Y-112340000D03*
X113925000Y-112340000D03*
X112675000Y-112340000D03*
D11*
X125775000Y-109140000D03*
X110825000Y-109140000D03*
%TD*%
D10*
%TO.C,J3*%
X136145500Y-112340000D03*
X134895500Y-112340000D03*
X133645500Y-112340000D03*
X132395500Y-112340000D03*
X131145500Y-112340000D03*
X129895500Y-112340000D03*
D11*
X137995500Y-109140000D03*
X128045500Y-109140000D03*
%TD*%
D10*
%TO.C,J6*%
X149611000Y-112340000D03*
X148361000Y-112340000D03*
X147111000Y-112340000D03*
X145861000Y-112340000D03*
X144611000Y-112340000D03*
X143361000Y-112340000D03*
X142111000Y-112340000D03*
D11*
X151461000Y-109140000D03*
X140261000Y-109140000D03*
%TD*%
D10*
%TO.C,J5*%
X161826500Y-112340000D03*
X160576500Y-112340000D03*
X159326500Y-112340000D03*
X158076500Y-112340000D03*
X156826500Y-112340000D03*
X155576500Y-112340000D03*
D11*
X163676500Y-109140000D03*
X153726500Y-109140000D03*
%TD*%
M02*
