%TF.GenerationSoftware,KiCad,Pcbnew,9.0.6+1*%
%TF.CreationDate,2026-01-05T23:11:26+00:00*%
%TF.ProjectId,TFFLIP2PH,5446464c-4950-4325-9048-2e6b69636164,A*%
%TF.SameCoordinates,Original*%
%TF.FileFunction,Copper,L1,Top*%
%TF.FilePolarity,Positive*%
%FSLAX46Y46*%
G04 Gerber Fmt 4.6, Leading zero omitted, Abs format (unit mm)*
G04 Created by KiCad (PCBNEW 9.0.6+1) date 2026-01-05 23:11:26*
%MOMM*%
%LPD*%
G01*
G04 APERTURE LIST*
G04 Aperture macros list*
%AMRoundRect*
0 Rectangle with rounded corners*
0 $1 Rounding radius*
0 $2 $3 $4 $5 $6 $7 $8 $9 X,Y pos of 4 corners*
0 Add a 4 corners polygon primitive as box body*
4,1,4,$2,$3,$4,$5,$6,$7,$8,$9,$2,$3,0*
0 Add four circle primitives for the rounded corners*
1,1,$1+$1,$2,$3*
1,1,$1+$1,$4,$5*
1,1,$1+$1,$6,$7*
1,1,$1+$1,$8,$9*
0 Add four rect primitives between the rounded corners*
20,1,$1+$1,$2,$3,$4,$5,0*
20,1,$1+$1,$4,$5,$6,$7,0*
20,1,$1+$1,$6,$7,$8,$9,0*
20,1,$1+$1,$8,$9,$2,$3,0*%
G04 Aperture macros list end*
%TA.AperFunction,SMDPad,CuDef*%
%ADD10RoundRect,0.150000X0.150000X0.700000X-0.150000X0.700000X-0.150000X-0.700000X0.150000X-0.700000X0*%
%TD*%
%TA.AperFunction,SMDPad,CuDef*%
%ADD11RoundRect,0.250000X0.250000X1.100000X-0.250000X1.100000X-0.250000X-1.100000X0.250000X-1.100000X0*%
%TD*%
%TA.AperFunction,ComponentPad*%
%ADD12R,1.700000X1.700000*%
%TD*%
%TA.AperFunction,ComponentPad*%
%ADD13O,1.700000X1.700000*%
%TD*%
%TA.AperFunction,ComponentPad*%
%ADD14C,1.700000*%
%TD*%
%TA.AperFunction,ViaPad*%
%ADD15C,0.800000*%
%TD*%
%TA.AperFunction,Conductor*%
%ADD16C,0.400000*%
%TD*%
%TA.AperFunction,Conductor*%
%ADD17C,0.700000*%
%TD*%
G04 APERTURE END LIST*
D10*
%TO.P,J7,1*%
%TO.N,+5V*%
X171547000Y-112340000D03*
%TO.P,J7,2*%
%TO.N,/SCL*%
X170297000Y-112340000D03*
%TO.P,J7,3*%
%TO.N,/SDA*%
X169047000Y-112340000D03*
%TO.P,J7,4*%
%TO.N,GND*%
X167797000Y-112340000D03*
D11*
%TO.P,J7,MP*%
X173397000Y-109140000D03*
X165947000Y-109140000D03*
%TD*%
D10*
%TO.P,J2,1*%
%TO.N,+5V*%
X123925000Y-112340000D03*
%TO.P,J2,2*%
%TO.N,/TXD*%
X122675000Y-112340000D03*
%TO.P,J2,3*%
%TO.N,/RXD*%
X121425000Y-112340000D03*
%TO.P,J2,4*%
%TO.N,/SCL*%
X120175000Y-112340000D03*
%TO.P,J2,5*%
%TO.N,/SDA*%
X118925000Y-112340000D03*
%TO.P,J2,6*%
%TO.N,/GEO_STAT*%
X117675000Y-112340000D03*
%TO.P,J2,7*%
%TO.N,/EXTINT*%
X116425000Y-112340000D03*
%TO.P,J2,8*%
%TO.N,+3.3V*%
X115175000Y-112340000D03*
%TO.P,J2,9*%
%TO.N,/BUZZER*%
X113925000Y-112340000D03*
%TO.P,J2,10*%
%TO.N,GND*%
X112675000Y-112340000D03*
D11*
%TO.P,J2,MP*%
X125775000Y-109140000D03*
X110825000Y-109140000D03*
%TD*%
D10*
%TO.P,J3,1*%
%TO.N,+5V*%
X136145500Y-112340000D03*
%TO.P,J3,2*%
%TO.N,/TXD*%
X134895500Y-112340000D03*
%TO.P,J3,3*%
%TO.N,/RXD*%
X133645500Y-112340000D03*
%TO.P,J3,4*%
%TO.N,/SCL*%
X132395500Y-112340000D03*
%TO.P,J3,5*%
%TO.N,/SDA*%
X131145500Y-112340000D03*
%TO.P,J3,6*%
%TO.N,GND*%
X129895500Y-112340000D03*
D11*
%TO.P,J3,MP*%
X137995500Y-109140000D03*
X128045500Y-109140000D03*
%TD*%
D10*
%TO.P,J6,1*%
%TO.N,+5V*%
X149611000Y-112340000D03*
%TO.P,J6,2*%
%TO.N,/#RTS*%
X148360999Y-112340000D03*
%TO.P,J6,3*%
%TO.N,/#CTS*%
X147111000Y-112340000D03*
%TO.P,J6,4*%
%TO.N,/MOSI*%
X145861000Y-112340001D03*
%TO.P,J6,5*%
%TO.N,/SS1*%
X144611000Y-112340000D03*
%TO.P,J6,6*%
%TO.N,/SS2*%
X143361001Y-112340000D03*
%TO.P,J6,7*%
%TO.N,GND*%
X142111000Y-112340000D03*
D11*
%TO.P,J6,MP*%
X151461000Y-109140000D03*
X140261000Y-109140000D03*
%TD*%
D10*
%TO.P,J5,1*%
%TO.N,+5V*%
X161826500Y-112340000D03*
%TO.P,J5,2*%
%TO.N,/TXD*%
X160576500Y-112340000D03*
%TO.P,J5,3*%
%TO.N,/RXD*%
X159326500Y-112340000D03*
%TO.P,J5,4*%
%TO.N,/#CTS*%
X158076500Y-112340000D03*
%TO.P,J5,5*%
%TO.N,/#RTS*%
X156826500Y-112340000D03*
%TO.P,J5,6*%
%TO.N,GND*%
X155576500Y-112340000D03*
D11*
%TO.P,J5,MP*%
X163676500Y-109140000D03*
X153726500Y-109140000D03*
%TD*%
D12*
%TO.P,J1,1,5V*%
%TO.N,+5V*%
X112838650Y-117549450D03*
D13*
%TO.P,J1,2,PA7*%
%TO.N,/MOSI*%
X115378650Y-117549450D03*
%TO.P,J1,3,PA6*%
%TO.N,/#CTS*%
X117918649Y-117549450D03*
%TO.P,J1,4,PA4*%
%TO.N,/SS1*%
X120458650Y-117549450D03*
%TO.P,J1,5,PB3*%
%TO.N,/#RTS*%
X122998650Y-117549450D03*
%TO.P,J1,6,PB2*%
%TO.N,/SS2*%
X125538650Y-117549450D03*
%TO.P,J1,7,PC3*%
%TO.N,/GEO_STAT*%
X128078650Y-117549450D03*
%TO.P,J1,8,GND*%
%TO.N,GND*%
X130618651Y-117549450D03*
D14*
%TO.P,J1,9,3.3V*%
%TO.N,+3.3V*%
X148398650Y-117549450D03*
D13*
%TO.P,J1,10,PA14*%
%TO.N,/TIMEPULSE*%
X150938649Y-117549450D03*
%TO.P,J1,11,GND*%
%TO.N,GND*%
X153478651Y-117549450D03*
%TO.P,J1,12,PA13*%
%TO.N,/EXTINT*%
X156018650Y-117549450D03*
%TO.P,J1,13,PB6*%
%TO.N,/TXD*%
X158558650Y-117549450D03*
%TO.P,J1,14,PB7*%
%TO.N,/RXD*%
X161098650Y-117549450D03*
%TO.P,J1,15,PC1*%
%TO.N,/SDA*%
X163638649Y-117549450D03*
%TO.P,J1,16,PC0*%
%TO.N,/SCL*%
X166178650Y-117549450D03*
%TO.P,J1,17,PB14*%
%TO.N,/BUZZER*%
X168718650Y-117549450D03*
%TO.P,J1,18,GND*%
%TO.N,GND*%
X171258650Y-117549450D03*
%TD*%
D12*
%TO.P,J4,1*%
%TO.N,/MOSI*%
X141732000Y-118431000D03*
D14*
%TO.P,J4,2*%
%TO.N,+5V*%
X139192000Y-118431000D03*
%TO.P,J4,3*%
%TO.N,GND*%
X136652001Y-118431000D03*
%TD*%
D15*
%TO.N,GND*%
X166751000Y-112395000D03*
X143510000Y-109982000D03*
X112649000Y-113919000D03*
X131603398Y-115613193D03*
X151638000Y-113916000D03*
X156083000Y-110744000D03*
%TO.N,/EXTINT*%
X116459000Y-110490000D03*
%TO.N,/GEO_STAT*%
X148844000Y-115316000D03*
X154593264Y-115021365D03*
%TO.N,+3.3V*%
X115189000Y-115316000D03*
%TO.N,/#CTS*%
X146943508Y-115735000D03*
%TO.N,/#RTS*%
X147743508Y-114935000D03*
X138102625Y-114516000D03*
%TO.N,/RXD*%
X133604000Y-111125000D03*
X121412000Y-113919000D03*
X158623000Y-110744000D03*
X145923000Y-115316000D03*
X135509000Y-114808000D03*
X151638000Y-121031000D03*
X161088423Y-114235949D03*
%TO.N,/TXD*%
X158558650Y-114554000D03*
X126365000Y-113665000D03*
%TO.N,/SDA*%
X145072000Y-117945000D03*
X134239000Y-117094000D03*
%TO.N,/SCL*%
X133604000Y-114568422D03*
X130048000Y-114046000D03*
%TD*%
D16*
%TO.N,/SS1*%
X144611000Y-113637759D02*
X144611000Y-112340000D01*
X139954000Y-120015000D02*
X140462000Y-119507000D01*
X140462000Y-117348000D02*
X141529641Y-116280359D01*
X120458650Y-117549450D02*
X122924200Y-120015000D01*
X122924200Y-120015000D02*
X139954000Y-120015000D01*
X141529641Y-116280359D02*
X141968400Y-116280359D01*
X140462000Y-119507000D02*
X140462000Y-117348000D01*
X141968400Y-116280359D02*
X144611000Y-113637759D01*
D17*
%TO.N,+5V*%
X146116000Y-109032000D02*
X143063000Y-109032000D01*
X134830499Y-110175000D02*
X129500212Y-110175000D01*
X170800999Y-110744000D02*
X166832712Y-110744000D01*
X153090000Y-112340000D02*
X149611000Y-112340000D01*
X171547000Y-111490001D02*
X170800999Y-110744000D01*
X111506000Y-111252000D02*
X111506000Y-114666800D01*
X118056503Y-110744000D02*
X116852503Y-109540000D01*
X112014000Y-110744000D02*
X111506000Y-111252000D01*
X159070000Y-109794000D02*
X155636000Y-109794000D01*
X111506000Y-114666800D02*
X112838650Y-115999450D01*
X116852503Y-109540000D02*
X116065497Y-109540000D01*
X171547000Y-112340000D02*
X171547000Y-111490001D01*
X149611000Y-112340000D02*
X149611000Y-111490001D01*
X166832712Y-110744000D02*
X165236712Y-112340000D01*
X112838650Y-115999450D02*
X112838650Y-117549450D01*
X149611000Y-111490001D02*
X149059999Y-110939000D01*
X123925000Y-112340000D02*
X123925000Y-111490001D01*
X160215000Y-110939000D02*
X159070000Y-109794000D01*
X139755000Y-112340000D02*
X136145500Y-112340000D01*
X127335212Y-112340000D02*
X123925000Y-112340000D01*
X136145500Y-111490001D02*
X134830499Y-110175000D01*
X165236712Y-112340000D02*
X161826500Y-112340000D01*
X155636000Y-109794000D02*
X153090000Y-112340000D01*
X114861497Y-110744000D02*
X112014000Y-110744000D01*
X123178999Y-110744000D02*
X118056503Y-110744000D01*
X149059999Y-110939000D02*
X148023000Y-110939000D01*
X161826500Y-112340000D02*
X161826500Y-111490001D01*
X136145500Y-112340000D02*
X136145500Y-111490001D01*
X123925000Y-111490001D02*
X123178999Y-110744000D01*
X148023000Y-110939000D02*
X146116000Y-109032000D01*
X116065497Y-109540000D02*
X114861497Y-110744000D01*
X143063000Y-109032000D02*
X139755000Y-112340000D01*
X129500212Y-110175000D02*
X127335212Y-112340000D01*
X161826500Y-111490001D02*
X161275499Y-110939000D01*
X161275499Y-110939000D02*
X160215000Y-110939000D01*
D16*
%TO.N,GND*%
X112675000Y-113893000D02*
X112649000Y-113919000D01*
X166806000Y-112340000D02*
X166751000Y-112395000D01*
X130618651Y-117549450D02*
X131603398Y-116564703D01*
X131603398Y-116564703D02*
X131603398Y-115613193D01*
X112675000Y-112340000D02*
X112675000Y-113893000D01*
X167797000Y-112340000D02*
X166806000Y-112340000D01*
X142111000Y-111381000D02*
X143510000Y-109982000D01*
X142111000Y-112340000D02*
X142111000Y-111381000D01*
X155576500Y-112340000D02*
X155576500Y-111250500D01*
X155576500Y-111250500D02*
X156083000Y-110744000D01*
%TO.N,/EXTINT*%
X116425000Y-110524000D02*
X116459000Y-110490000D01*
X116425000Y-112340000D02*
X116425000Y-110524000D01*
%TO.N,/SS2*%
X134528804Y-117894000D02*
X133622354Y-118800450D01*
X133622354Y-118800450D02*
X126789650Y-118800450D01*
X142835000Y-113716000D02*
X137771254Y-113716000D01*
X137771254Y-113716000D02*
X135039000Y-116448254D01*
X126789650Y-118800450D02*
X125538650Y-117549450D01*
X143361001Y-112340000D02*
X143361001Y-113189999D01*
X143361001Y-113189999D02*
X142835000Y-113716000D01*
X135039000Y-116448254D02*
X135039000Y-117425371D01*
X134570371Y-117894000D02*
X134528804Y-117894000D01*
X135039000Y-117425371D02*
X134570371Y-117894000D01*
%TO.N,/GEO_STAT*%
X120404001Y-115919000D02*
X126448200Y-115919000D01*
X154298629Y-115316000D02*
X148844000Y-115316000D01*
X154593264Y-115021365D02*
X154298629Y-115316000D01*
X117675000Y-113189999D02*
X120404001Y-115919000D01*
X117675000Y-112340000D02*
X117675000Y-113189999D01*
X126448200Y-115919000D02*
X128078650Y-117549450D01*
D17*
%TO.N,+3.3V*%
X115189000Y-112354000D02*
X115189000Y-115316000D01*
X115175000Y-112340000D02*
X115189000Y-112354000D01*
D16*
%TO.N,/BUZZER*%
X114089650Y-118029632D02*
X118361018Y-122301000D01*
X114089650Y-112504650D02*
X114089650Y-118029632D01*
X118361018Y-122301000D02*
X163967100Y-122301000D01*
X163967100Y-122301000D02*
X168718650Y-117549450D01*
X113925000Y-112340000D02*
X114089650Y-112504650D01*
%TO.N,/#CTS*%
X148343371Y-116173000D02*
X147905371Y-115735000D01*
X146943508Y-113923508D02*
X146943508Y-115735000D01*
X147111000Y-112340000D02*
X147111000Y-113747000D01*
X146939000Y-113919000D02*
X146943508Y-113923508D01*
X158076500Y-112340000D02*
X158076500Y-113189999D01*
X158076500Y-113189999D02*
X155093499Y-116173000D01*
X147111000Y-113747000D02*
X146939000Y-113919000D01*
X155093499Y-116173000D02*
X148343371Y-116173000D01*
X147905371Y-115735000D02*
X146943508Y-115735000D01*
%TO.N,/#RTS*%
X156826500Y-113189999D02*
X155795134Y-114221365D01*
X156826500Y-112340000D02*
X156826500Y-113189999D01*
X148360999Y-113447628D02*
X148360999Y-112340000D01*
X152226371Y-114716000D02*
X151049629Y-114716000D01*
X148247000Y-114262000D02*
X147743508Y-114765492D01*
X147743508Y-114765492D02*
X147743508Y-114935000D01*
X149860000Y-114262000D02*
X148247000Y-114262000D01*
X148360999Y-114148001D02*
X148247000Y-114262000D01*
X148360999Y-112340000D02*
X148360999Y-114148001D01*
X122998650Y-117549450D02*
X124849650Y-119400450D01*
X150595629Y-114262000D02*
X149860000Y-114262000D01*
X134818899Y-118494000D02*
X138102625Y-115210274D01*
X124849650Y-119400450D02*
X133870882Y-119400450D01*
X152721006Y-114221365D02*
X152226371Y-114716000D01*
X134777332Y-118494000D02*
X134818899Y-118494000D01*
X133870882Y-119400450D02*
X134777332Y-118494000D01*
X149860000Y-114262000D02*
X149175371Y-114262000D01*
X155795134Y-114221365D02*
X152721006Y-114221365D01*
X151049629Y-114716000D02*
X150595629Y-114262000D01*
X138102625Y-115210274D02*
X138102625Y-114516000D01*
%TO.N,/RXD*%
X161098650Y-117549450D02*
X161098650Y-114246176D01*
X135509000Y-114808000D02*
X133645500Y-112944500D01*
X161098650Y-114246176D02*
X161088423Y-114235949D01*
X159326500Y-112340000D02*
X159326500Y-111447500D01*
X133604000Y-112298500D02*
X133645500Y-112340000D01*
X143891000Y-118745000D02*
X144272000Y-118364000D01*
X144272000Y-116967000D02*
X145923000Y-115316000D01*
X133604000Y-111125000D02*
X133604000Y-112298500D01*
X121425000Y-112340000D02*
X121425000Y-113906000D01*
X133645500Y-112944500D02*
X133645500Y-112340000D01*
X121425000Y-113906000D02*
X121412000Y-113919000D01*
X146177000Y-121031000D02*
X143891000Y-118745000D01*
X159326500Y-111447500D02*
X158623000Y-110744000D01*
X151638000Y-121031000D02*
X146177000Y-121031000D01*
X144272000Y-118364000D02*
X144272000Y-116967000D01*
%TO.N,/TXD*%
X123150001Y-113665000D02*
X126365000Y-113665000D01*
X158558650Y-117549450D02*
X158558650Y-114554000D01*
X159639000Y-114554000D02*
X158558650Y-114554000D01*
X122675000Y-113189999D02*
X123150001Y-113665000D01*
X160576500Y-112340000D02*
X160576500Y-113616500D01*
X122675000Y-112340000D02*
X122675000Y-113189999D01*
X160576500Y-113616500D02*
X159639000Y-114554000D01*
%TO.N,/SDA*%
X165364099Y-115824000D02*
X163638649Y-117549450D01*
X118925000Y-113411899D02*
X120832101Y-115319000D01*
X133398501Y-116253501D02*
X134239000Y-117094000D01*
X131145500Y-114079871D02*
X131965422Y-114899793D01*
X131145500Y-113189999D02*
X131145500Y-112340000D01*
X169047000Y-112340000D02*
X169047000Y-113189999D01*
X166412999Y-115824000D02*
X165364099Y-115824000D01*
X160957099Y-120231000D02*
X151306629Y-120231000D01*
X151268629Y-120269000D02*
X146812000Y-120269000D01*
X129906371Y-115319000D02*
X131145500Y-114079871D01*
X132804000Y-114899793D02*
X133398501Y-115494294D01*
X169047000Y-113189999D02*
X166412999Y-115824000D01*
X145072000Y-118529000D02*
X145072000Y-117945000D01*
X131145500Y-114079871D02*
X131145500Y-113189999D01*
X146812000Y-120269000D02*
X145072000Y-118529000D01*
X118925000Y-112340000D02*
X118925000Y-113411899D01*
X133398501Y-115494294D02*
X133398501Y-116253501D01*
X120832101Y-115319000D02*
X129906371Y-115319000D01*
X131965422Y-114899793D02*
X132804000Y-114899793D01*
X163638649Y-117549450D02*
X160957099Y-120231000D01*
X151306629Y-120231000D02*
X151268629Y-120269000D01*
%TO.N,/SCL*%
X170297000Y-113431100D02*
X166178650Y-117549450D01*
X120175000Y-113813371D02*
X121080629Y-114719000D01*
X121080629Y-114719000D02*
X129375000Y-114719000D01*
X120175000Y-112340000D02*
X120175000Y-113813371D01*
X129375000Y-114719000D02*
X130048000Y-114046000D01*
X132395500Y-112340000D02*
X132395500Y-113359922D01*
X132395500Y-113359922D02*
X133604000Y-114568422D01*
X170297000Y-112340000D02*
X170297000Y-113431100D01*
%TO.N,/MOSI*%
X141732000Y-119681000D02*
X141732000Y-118431000D01*
X145123000Y-115040000D02*
X141732000Y-118431000D01*
X118444200Y-120615000D02*
X140798000Y-120615000D01*
X115378650Y-117549450D02*
X118444200Y-120615000D01*
X140798000Y-120615000D02*
X141732000Y-119681000D01*
X145861000Y-114246629D02*
X145123000Y-114984629D01*
X145123000Y-114984629D02*
X145123000Y-115040000D01*
X145861000Y-112340001D02*
X145861000Y-114246629D01*
%TD*%
%TA.AperFunction,Conductor*%
%TO.N,GND*%
G36*
X146134941Y-116207554D02*
G01*
X146150537Y-116208950D01*
X146166324Y-116221214D01*
X146184652Y-116229192D01*
X146203263Y-116249910D01*
X146205714Y-116251814D01*
X146208238Y-116255448D01*
X146244046Y-116309038D01*
X146369469Y-116434461D01*
X146369473Y-116434464D01*
X146516954Y-116533009D01*
X146516967Y-116533016D01*
X146639871Y-116583923D01*
X146680842Y-116600894D01*
X146680844Y-116600894D01*
X146680849Y-116600896D01*
X146854812Y-116635499D01*
X146854815Y-116635500D01*
X146854817Y-116635500D01*
X147032201Y-116635500D01*
X147143645Y-116613332D01*
X147213237Y-116619559D01*
X147268414Y-116662422D01*
X147291659Y-116728311D01*
X147275591Y-116796309D01*
X147268156Y-116807834D01*
X147243598Y-116841634D01*
X147147094Y-117031035D01*
X147081403Y-117233210D01*
X147070912Y-117299450D01*
X147048150Y-117443163D01*
X147048150Y-117655737D01*
X147051272Y-117675450D01*
X147079917Y-117856309D01*
X147081404Y-117865693D01*
X147145718Y-118063631D01*
X147147094Y-118067864D01*
X147243601Y-118257270D01*
X147368540Y-118429236D01*
X147518863Y-118579559D01*
X147690829Y-118704498D01*
X147690831Y-118704499D01*
X147690834Y-118704501D01*
X147880238Y-118801007D01*
X148082407Y-118866696D01*
X148292363Y-118899950D01*
X148292364Y-118899950D01*
X148504936Y-118899950D01*
X148504937Y-118899950D01*
X148714893Y-118866696D01*
X148917062Y-118801007D01*
X149106466Y-118704501D01*
X149192788Y-118641785D01*
X149278436Y-118579559D01*
X149278438Y-118579556D01*
X149278442Y-118579554D01*
X149428754Y-118429242D01*
X149428756Y-118429238D01*
X149428759Y-118429236D01*
X149553698Y-118257270D01*
X149553697Y-118257270D01*
X149553701Y-118257266D01*
X149558162Y-118248508D01*
X149606133Y-118197712D01*
X149673953Y-118180914D01*
X149740090Y-118203448D01*
X149779133Y-118248504D01*
X149783598Y-118257267D01*
X149908539Y-118429236D01*
X150058862Y-118579559D01*
X150230828Y-118704498D01*
X150230830Y-118704499D01*
X150230833Y-118704501D01*
X150420237Y-118801007D01*
X150622406Y-118866696D01*
X150832362Y-118899950D01*
X150832363Y-118899950D01*
X151044935Y-118899950D01*
X151044936Y-118899950D01*
X151254892Y-118866696D01*
X151457061Y-118801007D01*
X151646465Y-118704501D01*
X151732787Y-118641785D01*
X151818435Y-118579559D01*
X151818437Y-118579556D01*
X151818441Y-118579554D01*
X151968753Y-118429242D01*
X151968755Y-118429238D01*
X151968758Y-118429236D01*
X152073284Y-118285366D01*
X152093700Y-118257266D01*
X152098443Y-118247956D01*
X152146413Y-118197159D01*
X152214233Y-118180359D01*
X152280369Y-118202893D01*
X152319413Y-118247948D01*
X152324028Y-118257005D01*
X152448923Y-118428909D01*
X152448927Y-118428914D01*
X152599186Y-118579173D01*
X152599191Y-118579177D01*
X152771093Y-118704070D01*
X152960433Y-118800545D01*
X153162522Y-118866207D01*
X153228651Y-118876681D01*
X153228651Y-117982462D01*
X153285658Y-118015375D01*
X153412825Y-118049450D01*
X153544477Y-118049450D01*
X153671644Y-118015375D01*
X153728651Y-117982462D01*
X153728651Y-118876680D01*
X153794777Y-118866207D01*
X153794780Y-118866207D01*
X153996868Y-118800545D01*
X154186208Y-118704070D01*
X154358110Y-118579177D01*
X154358115Y-118579173D01*
X154508374Y-118428914D01*
X154508378Y-118428909D01*
X154633272Y-118257006D01*
X154637881Y-118247961D01*
X154685852Y-118197162D01*
X154753672Y-118180362D01*
X154819808Y-118202896D01*
X154858852Y-118247951D01*
X154863599Y-118257267D01*
X154988540Y-118429236D01*
X155138863Y-118579559D01*
X155310829Y-118704498D01*
X155310831Y-118704499D01*
X155310834Y-118704501D01*
X155500238Y-118801007D01*
X155702407Y-118866696D01*
X155912363Y-118899950D01*
X155912364Y-118899950D01*
X156124936Y-118899950D01*
X156124937Y-118899950D01*
X156334893Y-118866696D01*
X156537062Y-118801007D01*
X156726466Y-118704501D01*
X156812788Y-118641785D01*
X156898436Y-118579559D01*
X156898438Y-118579556D01*
X156898442Y-118579554D01*
X157048754Y-118429242D01*
X157048756Y-118429238D01*
X157048759Y-118429236D01*
X157173698Y-118257270D01*
X157173697Y-118257270D01*
X157173701Y-118257266D01*
X157178164Y-118248504D01*
X157226138Y-118197709D01*
X157293958Y-118180913D01*
X157360094Y-118203449D01*
X157399134Y-118248504D01*
X157403241Y-118256565D01*
X157403601Y-118257270D01*
X157528540Y-118429236D01*
X157678863Y-118579559D01*
X157850829Y-118704498D01*
X157850831Y-118704499D01*
X157850834Y-118704501D01*
X158040238Y-118801007D01*
X158242407Y-118866696D01*
X158452363Y-118899950D01*
X158452364Y-118899950D01*
X158664936Y-118899950D01*
X158664937Y-118899950D01*
X158874893Y-118866696D01*
X159077062Y-118801007D01*
X159266466Y-118704501D01*
X159352788Y-118641785D01*
X159438436Y-118579559D01*
X159438438Y-118579556D01*
X159438442Y-118579554D01*
X159588754Y-118429242D01*
X159588756Y-118429238D01*
X159588759Y-118429236D01*
X159713698Y-118257270D01*
X159713697Y-118257270D01*
X159713701Y-118257266D01*
X159718164Y-118248504D01*
X159766138Y-118197709D01*
X159833958Y-118180913D01*
X159900094Y-118203449D01*
X159939134Y-118248504D01*
X159943241Y-118256565D01*
X159943601Y-118257270D01*
X160068540Y-118429236D01*
X160218863Y-118579559D01*
X160390829Y-118704498D01*
X160390831Y-118704499D01*
X160390834Y-118704501D01*
X160580238Y-118801007D01*
X160782407Y-118866696D01*
X160992363Y-118899950D01*
X160992364Y-118899950D01*
X160998129Y-118899950D01*
X161065168Y-118919635D01*
X161110923Y-118972439D01*
X161120867Y-119041597D01*
X161091842Y-119105153D01*
X161085810Y-119111631D01*
X160703261Y-119494181D01*
X160641938Y-119527666D01*
X160615580Y-119530500D01*
X151237634Y-119530500D01*
X151102307Y-119557418D01*
X151102299Y-119557420D01*
X151098337Y-119559062D01*
X151050887Y-119568500D01*
X147153519Y-119568500D01*
X147086480Y-119548815D01*
X147065838Y-119532181D01*
X145938906Y-118405249D01*
X145905421Y-118343926D01*
X145910405Y-118274234D01*
X145911999Y-118270180D01*
X145937894Y-118207666D01*
X145972500Y-118033691D01*
X145972500Y-117856309D01*
X145972500Y-117856306D01*
X145972499Y-117856304D01*
X145937896Y-117682341D01*
X145937893Y-117682332D01*
X145935042Y-117675450D01*
X145887494Y-117560656D01*
X145870016Y-117518459D01*
X145870009Y-117518446D01*
X145771464Y-117370965D01*
X145771461Y-117370961D01*
X145646038Y-117245538D01*
X145646034Y-117245535D01*
X145498553Y-117146990D01*
X145498540Y-117146983D01*
X145375929Y-117096197D01*
X145321525Y-117052356D01*
X145299460Y-116986062D01*
X145316739Y-116918363D01*
X145335696Y-116893959D01*
X145986925Y-116242730D01*
X146048246Y-116209247D01*
X146050236Y-116208831D01*
X146080951Y-116202722D01*
X146100858Y-116204504D01*
X146120589Y-116201307D01*
X146134941Y-116207554D01*
G37*
%TD.AperFunction*%
%TA.AperFunction,Conductor*%
G36*
X142609279Y-114436185D02*
G01*
X142655034Y-114488989D01*
X142664978Y-114558147D01*
X142635953Y-114621703D01*
X142629921Y-114628181D01*
X141714562Y-115543540D01*
X141653239Y-115577025D01*
X141626881Y-115579859D01*
X141460646Y-115579859D01*
X141363932Y-115599097D01*
X141363930Y-115599097D01*
X141357920Y-115600293D01*
X141325312Y-115606779D01*
X141294186Y-115619672D01*
X141288583Y-115621992D01*
X141288579Y-115621994D01*
X141197832Y-115659582D01*
X141087937Y-115733013D01*
X141083094Y-115736248D01*
X141083093Y-115736249D01*
X139917888Y-116901453D01*
X139917887Y-116901454D01*
X139841224Y-117016190D01*
X139809972Y-117091640D01*
X139766131Y-117146043D01*
X139699837Y-117168108D01*
X139657093Y-117162118D01*
X139508240Y-117113753D01*
X139344358Y-117087797D01*
X139298287Y-117080500D01*
X139085713Y-117080500D01*
X139039642Y-117087797D01*
X138875760Y-117113753D01*
X138673585Y-117179444D01*
X138484179Y-117275951D01*
X138312213Y-117400890D01*
X138161890Y-117551213D01*
X138036950Y-117723181D01*
X138032201Y-117732501D01*
X137984223Y-117783294D01*
X137916402Y-117800086D01*
X137850268Y-117777545D01*
X137811232Y-117732491D01*
X137806625Y-117723449D01*
X137767271Y-117669282D01*
X137767270Y-117669282D01*
X137134963Y-118301589D01*
X137117926Y-118238007D01*
X137052100Y-118123993D01*
X136959008Y-118030901D01*
X136844994Y-117965075D01*
X136781408Y-117948036D01*
X137413717Y-117315728D01*
X137359551Y-117276375D01*
X137291437Y-117241669D01*
X137240641Y-117193694D01*
X137223846Y-117125873D01*
X137246384Y-117059738D01*
X137260040Y-117043515D01*
X138646739Y-115656817D01*
X138723400Y-115542085D01*
X138737741Y-115507464D01*
X138762840Y-115446867D01*
X138776205Y-115414602D01*
X138790122Y-115344638D01*
X138803125Y-115279270D01*
X138803125Y-115126099D01*
X138822810Y-115059060D01*
X138824023Y-115057208D01*
X138826607Y-115053341D01*
X138900638Y-114942547D01*
X138968519Y-114778666D01*
X138970363Y-114769399D01*
X138995566Y-114642691D01*
X139003125Y-114604691D01*
X139003125Y-114540500D01*
X139022810Y-114473461D01*
X139075614Y-114427706D01*
X139127125Y-114416500D01*
X142542240Y-114416500D01*
X142609279Y-114436185D01*
G37*
%TD.AperFunction*%
%TA.AperFunction,Conductor*%
G36*
X131188832Y-115129708D02*
G01*
X131233180Y-115158209D01*
X131518876Y-115443905D01*
X131633614Y-115520570D01*
X131761089Y-115573371D01*
X131761094Y-115573373D01*
X131761098Y-115573373D01*
X131761099Y-115573374D01*
X131896425Y-115600293D01*
X131896428Y-115600293D01*
X131896429Y-115600293D01*
X132462481Y-115600293D01*
X132491924Y-115608938D01*
X132521907Y-115615461D01*
X132526922Y-115619215D01*
X132529520Y-115619978D01*
X132550157Y-115636607D01*
X132661683Y-115748132D01*
X132695167Y-115809453D01*
X132698001Y-115835812D01*
X132698001Y-116184507D01*
X132698001Y-116322495D01*
X132698001Y-116322497D01*
X132698000Y-116322497D01*
X132724919Y-116457823D01*
X132724922Y-116457833D01*
X132777723Y-116585308D01*
X132854388Y-116700046D01*
X132854389Y-116700047D01*
X133312266Y-117157923D01*
X133345751Y-117219246D01*
X133346202Y-117221413D01*
X133373103Y-117356658D01*
X133373106Y-117356667D01*
X133440983Y-117520540D01*
X133440990Y-117520553D01*
X133539535Y-117668034D01*
X133539538Y-117668038D01*
X133564142Y-117692642D01*
X133597627Y-117753965D01*
X133592643Y-117823657D01*
X133564142Y-117868004D01*
X133368516Y-118063631D01*
X133307193Y-118097116D01*
X133280835Y-118099950D01*
X132029928Y-118099950D01*
X131962889Y-118080265D01*
X131917134Y-118027461D01*
X131907190Y-117958303D01*
X131911997Y-117937632D01*
X131935408Y-117865579D01*
X131935408Y-117865576D01*
X131945882Y-117799450D01*
X131051663Y-117799450D01*
X131084576Y-117742443D01*
X131118651Y-117615276D01*
X131118651Y-117483624D01*
X131084576Y-117356457D01*
X131051663Y-117299450D01*
X131945882Y-117299450D01*
X131935408Y-117233323D01*
X131935408Y-117233320D01*
X131869746Y-117031232D01*
X131773271Y-116841892D01*
X131648378Y-116669990D01*
X131648374Y-116669985D01*
X131498115Y-116519726D01*
X131498110Y-116519722D01*
X131326208Y-116394829D01*
X131136866Y-116298353D01*
X130934775Y-116232691D01*
X130868651Y-116222218D01*
X130868651Y-117116438D01*
X130811644Y-117083525D01*
X130684477Y-117049450D01*
X130552825Y-117049450D01*
X130425658Y-117083525D01*
X130368651Y-117116438D01*
X130368651Y-116222218D01*
X130368650Y-116222218D01*
X130302526Y-116232691D01*
X130100435Y-116298353D01*
X129911093Y-116394829D01*
X129739191Y-116519722D01*
X129739186Y-116519726D01*
X129588927Y-116669985D01*
X129588923Y-116669990D01*
X129464028Y-116841894D01*
X129459414Y-116850950D01*
X129411439Y-116901744D01*
X129343617Y-116918538D01*
X129277483Y-116895999D01*
X129238446Y-116850946D01*
X129233700Y-116841632D01*
X129108759Y-116669663D01*
X128958436Y-116519340D01*
X128786470Y-116394401D01*
X128597064Y-116297894D01*
X128597063Y-116297893D01*
X128597062Y-116297893D01*
X128484842Y-116261430D01*
X128427167Y-116221993D01*
X128399969Y-116157635D01*
X128411884Y-116088788D01*
X128459128Y-116037313D01*
X128523161Y-116019500D01*
X129975367Y-116019500D01*
X130075091Y-115999663D01*
X130110699Y-115992580D01*
X130181281Y-115963344D01*
X130238178Y-115939777D01*
X130238179Y-115939776D01*
X130238182Y-115939775D01*
X130352914Y-115863114D01*
X131057820Y-115158207D01*
X131119141Y-115124724D01*
X131188832Y-115129708D01*
G37*
%TD.AperFunction*%
%TA.AperFunction,Conductor*%
G36*
X166902898Y-111964720D02*
G01*
X166916334Y-111965681D01*
X166934060Y-111978951D01*
X166954203Y-111988150D01*
X166961485Y-111999481D01*
X166972267Y-112007553D01*
X166980004Y-112028298D01*
X166991977Y-112046928D01*
X166995128Y-112068846D01*
X166996684Y-112073017D01*
X166997000Y-112081863D01*
X166997000Y-112090000D01*
X167673000Y-112090000D01*
X167740039Y-112109685D01*
X167785794Y-112162489D01*
X167797000Y-112214000D01*
X167797000Y-112466000D01*
X167777315Y-112533039D01*
X167724511Y-112578794D01*
X167673000Y-112590000D01*
X166997000Y-112590000D01*
X166997000Y-113105649D01*
X166999899Y-113142489D01*
X166999900Y-113142495D01*
X167045716Y-113300193D01*
X167045717Y-113300196D01*
X167129314Y-113441552D01*
X167129321Y-113441561D01*
X167245438Y-113557678D01*
X167245446Y-113557684D01*
X167386352Y-113641015D01*
X167434035Y-113692084D01*
X167446539Y-113760825D01*
X167419894Y-113825415D01*
X167410912Y-113835428D01*
X166159161Y-115087181D01*
X166097838Y-115120666D01*
X166071480Y-115123500D01*
X165295103Y-115123500D01*
X165159776Y-115150418D01*
X165159766Y-115150421D01*
X165032291Y-115203222D01*
X164917553Y-115279887D01*
X164008498Y-116188942D01*
X163947175Y-116222427D01*
X163901420Y-116223734D01*
X163744936Y-116198950D01*
X163532362Y-116198950D01*
X163497296Y-116204504D01*
X163322409Y-116232203D01*
X163120234Y-116297894D01*
X162930828Y-116394401D01*
X162758862Y-116519340D01*
X162608539Y-116669663D01*
X162483597Y-116841633D01*
X162479131Y-116850399D01*
X162431155Y-116901192D01*
X162363333Y-116917985D01*
X162297199Y-116895445D01*
X162258163Y-116850392D01*
X162253832Y-116841892D01*
X162253701Y-116841634D01*
X162253699Y-116841631D01*
X162253698Y-116841629D01*
X162128759Y-116669663D01*
X161978436Y-116519340D01*
X161850265Y-116426220D01*
X161807599Y-116370891D01*
X161799150Y-116325902D01*
X161799150Y-114830742D01*
X161818835Y-114763703D01*
X161820048Y-114761851D01*
X161886436Y-114662496D01*
X161954317Y-114498615D01*
X161959321Y-114473461D01*
X161988922Y-114324644D01*
X161988923Y-114324642D01*
X161988923Y-114147255D01*
X161988922Y-114147253D01*
X161954319Y-113973290D01*
X161954316Y-113973281D01*
X161908203Y-113861952D01*
X161900734Y-113792483D01*
X161932010Y-113730004D01*
X161992099Y-113694352D01*
X162022764Y-113690500D01*
X162042186Y-113690500D01*
X162042194Y-113690500D01*
X162079069Y-113687598D01*
X162079071Y-113687597D01*
X162079073Y-113687597D01*
X162120691Y-113675505D01*
X162236898Y-113641744D01*
X162378365Y-113558081D01*
X162494581Y-113441865D01*
X162578244Y-113300398D01*
X162584197Y-113279906D01*
X162621803Y-113221020D01*
X162685275Y-113191813D01*
X162703274Y-113190500D01*
X165320480Y-113190500D01*
X165320481Y-113190499D01*
X165484794Y-113157816D01*
X165561061Y-113126225D01*
X165639575Y-113093704D01*
X165778874Y-113000627D01*
X166785319Y-111994182D01*
X166804755Y-111983569D01*
X166821489Y-111969069D01*
X166834820Y-111967152D01*
X166846642Y-111960697D01*
X166868728Y-111962276D01*
X166890647Y-111959125D01*
X166902898Y-111964720D01*
G37*
%TD.AperFunction*%
%TA.AperFunction,Conductor*%
G36*
X112868039Y-112359685D02*
G01*
X112913794Y-112412489D01*
X112925000Y-112464000D01*
X112925000Y-113687295D01*
X112925001Y-113687295D01*
X112927486Y-113687100D01*
X113085198Y-113641281D01*
X113202029Y-113572188D01*
X113269753Y-113555005D01*
X113336015Y-113577165D01*
X113379779Y-113631631D01*
X113389150Y-113678920D01*
X113389150Y-115047799D01*
X113369465Y-115114838D01*
X113316661Y-115160593D01*
X113247503Y-115170537D01*
X113183947Y-115141512D01*
X113177469Y-115135480D01*
X112392819Y-114350830D01*
X112359334Y-114289507D01*
X112356500Y-114263149D01*
X112356500Y-113804855D01*
X112376185Y-113737816D01*
X112396329Y-113713799D01*
X112425000Y-113687295D01*
X112425000Y-112464000D01*
X112444685Y-112396961D01*
X112497489Y-112351206D01*
X112549000Y-112340000D01*
X112801000Y-112340000D01*
X112868039Y-112359685D01*
G37*
%TD.AperFunction*%
%TA.AperFunction,Conductor*%
G36*
X129014833Y-111965680D02*
G01*
X129070767Y-112007551D01*
X129095184Y-112073016D01*
X129095500Y-112081862D01*
X129095500Y-112090000D01*
X129771500Y-112090000D01*
X129838539Y-112109685D01*
X129884294Y-112162489D01*
X129895500Y-112214000D01*
X129895500Y-112466000D01*
X129875815Y-112533039D01*
X129823011Y-112578794D01*
X129771500Y-112590000D01*
X129095500Y-112590000D01*
X129095500Y-113105649D01*
X129098399Y-113142489D01*
X129098400Y-113142495D01*
X129144216Y-113300193D01*
X129144217Y-113300196D01*
X129227814Y-113441552D01*
X129227821Y-113441561D01*
X129240403Y-113454143D01*
X129273888Y-113515466D01*
X129268904Y-113585158D01*
X129255830Y-113610707D01*
X129249990Y-113619448D01*
X129249983Y-113619460D01*
X129182106Y-113783332D01*
X129182104Y-113783340D01*
X129155202Y-113918585D01*
X129146568Y-113935089D01*
X129142695Y-113953308D01*
X129123477Y-113979232D01*
X129122817Y-113980496D01*
X129121677Y-113981662D01*
X129121571Y-113981769D01*
X129060406Y-114015541D01*
X129033479Y-114018500D01*
X127363921Y-114018500D01*
X127296882Y-113998815D01*
X127251127Y-113946011D01*
X127241183Y-113876853D01*
X127242304Y-113870309D01*
X127265072Y-113755841D01*
X127265500Y-113753691D01*
X127265500Y-113576309D01*
X127265500Y-113576306D01*
X127265499Y-113576304D01*
X127230896Y-113402341D01*
X127230894Y-113402336D01*
X127230894Y-113402334D01*
X127214166Y-113361950D01*
X127206698Y-113292483D01*
X127237973Y-113230004D01*
X127298062Y-113194352D01*
X127328728Y-113190500D01*
X127418980Y-113190500D01*
X127418981Y-113190499D01*
X127583294Y-113157816D01*
X127659561Y-113126225D01*
X127738075Y-113093704D01*
X127877374Y-113000627D01*
X128883820Y-111994180D01*
X128945142Y-111960696D01*
X129014833Y-111965680D01*
G37*
%TD.AperFunction*%
%TA.AperFunction,Conductor*%
G36*
X154702977Y-112032324D02*
G01*
X154747325Y-112060825D01*
X154776500Y-112090000D01*
X155452500Y-112090000D01*
X155519539Y-112109685D01*
X155565294Y-112162489D01*
X155576500Y-112214000D01*
X155576500Y-112466000D01*
X155556815Y-112533039D01*
X155504011Y-112578794D01*
X155452500Y-112590000D01*
X154776500Y-112590000D01*
X154776500Y-113105649D01*
X154779399Y-113142489D01*
X154779400Y-113142495D01*
X154825216Y-113300193D01*
X154825217Y-113300196D01*
X154845057Y-113333744D01*
X154862240Y-113401468D01*
X154840080Y-113467731D01*
X154785613Y-113511494D01*
X154738325Y-113520865D01*
X152652011Y-113520865D01*
X152516683Y-113547783D01*
X152516673Y-113547786D01*
X152389198Y-113600587D01*
X152274460Y-113677252D01*
X152274459Y-113677253D01*
X151972533Y-113979181D01*
X151911210Y-114012666D01*
X151884852Y-114015500D01*
X151391148Y-114015500D01*
X151324109Y-113995815D01*
X151303467Y-113979181D01*
X151042175Y-113717888D01*
X151042174Y-113717887D01*
X150927436Y-113641222D01*
X150799961Y-113588421D01*
X150799951Y-113588418D01*
X150664625Y-113561500D01*
X150664623Y-113561500D01*
X150664622Y-113561500D01*
X150425724Y-113561500D01*
X150423331Y-113560797D01*
X150420912Y-113561407D01*
X150389979Y-113551004D01*
X150358685Y-113541815D01*
X150357051Y-113539930D01*
X150354687Y-113539135D01*
X150334285Y-113513656D01*
X150312930Y-113489011D01*
X150312575Y-113486543D01*
X150311015Y-113484595D01*
X150307627Y-113452130D01*
X150302986Y-113419853D01*
X150303941Y-113416816D01*
X150303763Y-113415103D01*
X150308308Y-113402947D01*
X150315014Y-113381650D01*
X150316883Y-113377944D01*
X150362744Y-113300398D01*
X150371897Y-113268890D01*
X150377064Y-113258650D01*
X150393423Y-113241187D01*
X150406303Y-113221020D01*
X150416875Y-113216155D01*
X150424833Y-113207661D01*
X150448038Y-113201815D01*
X150469775Y-113191813D01*
X150487774Y-113190500D01*
X153173768Y-113190500D01*
X153173769Y-113190499D01*
X153338082Y-113157816D01*
X153414349Y-113126225D01*
X153492863Y-113093704D01*
X153632162Y-113000627D01*
X154571965Y-112060823D01*
X154633286Y-112027340D01*
X154702977Y-112032324D01*
G37*
%TD.AperFunction*%
%TA.AperFunction,Conductor*%
G36*
X142054039Y-112109685D02*
G01*
X142099794Y-112162489D01*
X142111000Y-112214000D01*
X142111000Y-112466000D01*
X142091315Y-112533039D01*
X142038511Y-112578794D01*
X141987000Y-112590000D01*
X141311000Y-112590000D01*
X141311000Y-112891500D01*
X141291315Y-112958539D01*
X141238511Y-113004294D01*
X141187000Y-113015500D01*
X140581652Y-113015500D01*
X140514613Y-112995815D01*
X140468858Y-112943011D01*
X140458914Y-112873853D01*
X140487939Y-112810297D01*
X140493971Y-112803819D01*
X140957789Y-112340000D01*
X141171714Y-112126074D01*
X141233036Y-112092590D01*
X141259638Y-112094492D01*
X141259638Y-112090000D01*
X141987000Y-112090000D01*
X142054039Y-112109685D01*
G37*
%TD.AperFunction*%
%TA.AperFunction,Conductor*%
G36*
X145779388Y-109902185D02*
G01*
X145800030Y-109918819D01*
X146273908Y-110392697D01*
X146725094Y-110843882D01*
X146736688Y-110865116D01*
X146751901Y-110883934D01*
X146753133Y-110895232D01*
X146758579Y-110905205D01*
X146756853Y-110929336D01*
X146759477Y-110953391D01*
X146754405Y-110963561D01*
X146753595Y-110974896D01*
X146739095Y-110994264D01*
X146728298Y-111015919D01*
X146714589Y-111027000D01*
X146711723Y-111030830D01*
X146701017Y-111037972D01*
X146700851Y-111038107D01*
X146700417Y-111038365D01*
X146559135Y-111121919D01*
X146557731Y-111123322D01*
X146549437Y-111128261D01*
X146522671Y-111135136D01*
X146496946Y-111145233D01*
X146489308Y-111143706D01*
X146481764Y-111145645D01*
X146455526Y-111136957D01*
X146428430Y-111131543D01*
X146422830Y-111126130D01*
X146419993Y-111125191D01*
X146419580Y-111125891D01*
X146416364Y-111123989D01*
X146415436Y-111123682D01*
X146413728Y-111122430D01*
X146271396Y-111038256D01*
X146271393Y-111038255D01*
X146113573Y-110992403D01*
X146113567Y-110992402D01*
X146076701Y-110989501D01*
X146076694Y-110989501D01*
X145645306Y-110989501D01*
X145645298Y-110989501D01*
X145608432Y-110992402D01*
X145608426Y-110992403D01*
X145450606Y-111038255D01*
X145450603Y-111038256D01*
X145302420Y-111125891D01*
X145301254Y-111123920D01*
X145246942Y-111145233D01*
X145178427Y-111131541D01*
X145169595Y-111125864D01*
X145169580Y-111125890D01*
X145064988Y-111064035D01*
X145021398Y-111038256D01*
X145021397Y-111038255D01*
X145021396Y-111038255D01*
X145021393Y-111038254D01*
X144863573Y-110992402D01*
X144863567Y-110992401D01*
X144826701Y-110989500D01*
X144826694Y-110989500D01*
X144395306Y-110989500D01*
X144395298Y-110989500D01*
X144358432Y-110992401D01*
X144358426Y-110992402D01*
X144200606Y-111038254D01*
X144200603Y-111038255D01*
X144052420Y-111125890D01*
X144051254Y-111123919D01*
X143996942Y-111145232D01*
X143928427Y-111131540D01*
X143919596Y-111125864D01*
X143919581Y-111125890D01*
X143814989Y-111064035D01*
X143771399Y-111038256D01*
X143771398Y-111038255D01*
X143771397Y-111038255D01*
X143771394Y-111038254D01*
X143613574Y-110992402D01*
X143613568Y-110992401D01*
X143576702Y-110989500D01*
X143576695Y-110989500D01*
X143145307Y-110989500D01*
X143145299Y-110989500D01*
X143108433Y-110992401D01*
X143108427Y-110992402D01*
X142950607Y-111038254D01*
X142950604Y-111038255D01*
X142802421Y-111125890D01*
X142801330Y-111124045D01*
X142746542Y-111145551D01*
X142678026Y-111131865D01*
X142674446Y-111129913D01*
X142492879Y-111027004D01*
X142478254Y-111011908D01*
X142460543Y-111000598D01*
X142454433Y-110987321D01*
X142444262Y-110976823D01*
X142440120Y-110956217D01*
X142431335Y-110937126D01*
X142433373Y-110922651D01*
X142430494Y-110908323D01*
X142438148Y-110888752D01*
X142441080Y-110867940D01*
X142453055Y-110850639D01*
X142455944Y-110843254D01*
X142460402Y-110840025D01*
X142466338Y-110831450D01*
X143378969Y-109918818D01*
X143440292Y-109885334D01*
X143466650Y-109882500D01*
X145712349Y-109882500D01*
X145779388Y-109902185D01*
G37*
%TD.AperFunction*%
%TA.AperFunction,Conductor*%
G36*
X157607185Y-110647050D02*
G01*
X157616147Y-110645762D01*
X157640187Y-110656740D01*
X157665539Y-110664185D01*
X157671466Y-110671025D01*
X157679703Y-110674787D01*
X157693992Y-110697021D01*
X157711294Y-110716989D01*
X157713581Y-110727503D01*
X157717477Y-110733565D01*
X157722500Y-110768500D01*
X157722500Y-110832695D01*
X157736141Y-110901272D01*
X157729914Y-110970863D01*
X157687051Y-111026041D01*
X157672747Y-111034166D01*
X157672817Y-111034285D01*
X157666102Y-111038255D01*
X157666102Y-111038256D01*
X157622512Y-111064035D01*
X157517920Y-111125890D01*
X157516754Y-111123919D01*
X157462442Y-111145232D01*
X157393927Y-111131540D01*
X157385095Y-111125864D01*
X157385080Y-111125890D01*
X157280488Y-111064035D01*
X157236898Y-111038256D01*
X157236897Y-111038255D01*
X157236896Y-111038255D01*
X157236893Y-111038254D01*
X157079073Y-110992402D01*
X157079067Y-110992401D01*
X157042201Y-110989500D01*
X157042194Y-110989500D01*
X156610806Y-110989500D01*
X156610798Y-110989500D01*
X156573932Y-110992401D01*
X156573926Y-110992402D01*
X156416106Y-111038254D01*
X156416103Y-111038255D01*
X156267920Y-111125890D01*
X156266829Y-111124045D01*
X156212037Y-111145551D01*
X156143521Y-111131862D01*
X156134792Y-111126252D01*
X156134771Y-111126288D01*
X155986696Y-111038717D01*
X155986695Y-111038716D01*
X155883806Y-111008824D01*
X155824921Y-110971217D01*
X155795715Y-110907745D01*
X155805461Y-110838558D01*
X155830716Y-110802072D01*
X155951972Y-110680816D01*
X156013293Y-110647334D01*
X156039651Y-110644500D01*
X157598500Y-110644500D01*
X157607185Y-110647050D01*
G37*
%TD.AperFunction*%
%TA.AperFunction,Conductor*%
G36*
X124772719Y-107629635D02*
G01*
X124818474Y-107682439D01*
X124828418Y-107751597D01*
X124823386Y-107772954D01*
X124785494Y-107887302D01*
X124785493Y-107887309D01*
X124775000Y-107990013D01*
X124775000Y-108890000D01*
X126774999Y-108890000D01*
X126774999Y-107990028D01*
X126774998Y-107990013D01*
X126764505Y-107887302D01*
X126726614Y-107772954D01*
X126725634Y-107744489D01*
X126721582Y-107716303D01*
X126724449Y-107710024D01*
X126724212Y-107703126D01*
X126738775Y-107678654D01*
X126750607Y-107652747D01*
X126756414Y-107649014D01*
X126759944Y-107643084D01*
X126785426Y-107630370D01*
X126809385Y-107614973D01*
X126819080Y-107613578D01*
X126822464Y-107611891D01*
X126844320Y-107609950D01*
X126976180Y-107609950D01*
X127043219Y-107629635D01*
X127088974Y-107682439D01*
X127098918Y-107751597D01*
X127093886Y-107772954D01*
X127055994Y-107887302D01*
X127055993Y-107887309D01*
X127045500Y-107990013D01*
X127045500Y-108890000D01*
X129045499Y-108890000D01*
X129045499Y-107990028D01*
X129045498Y-107990013D01*
X129035005Y-107887302D01*
X128997114Y-107772954D01*
X128994712Y-107703126D01*
X129030444Y-107643084D01*
X129092964Y-107611891D01*
X129114820Y-107609950D01*
X136926180Y-107609950D01*
X136993219Y-107629635D01*
X137038974Y-107682439D01*
X137048918Y-107751597D01*
X137043886Y-107772954D01*
X137005994Y-107887302D01*
X137005993Y-107887309D01*
X136995500Y-107990013D01*
X136995500Y-108890000D01*
X138995499Y-108890000D01*
X138995499Y-107990028D01*
X138995498Y-107990013D01*
X138985005Y-107887302D01*
X138947114Y-107772954D01*
X138946134Y-107744489D01*
X138942082Y-107716303D01*
X138944949Y-107710024D01*
X138944712Y-107703126D01*
X138959275Y-107678654D01*
X138971107Y-107652747D01*
X138976914Y-107649014D01*
X138980444Y-107643084D01*
X139005926Y-107630370D01*
X139029885Y-107614973D01*
X139039580Y-107613578D01*
X139042964Y-107611891D01*
X139064820Y-107609950D01*
X139191680Y-107609950D01*
X139258719Y-107629635D01*
X139304474Y-107682439D01*
X139314418Y-107751597D01*
X139309386Y-107772954D01*
X139271494Y-107887302D01*
X139271493Y-107887309D01*
X139261000Y-107990013D01*
X139261000Y-108890000D01*
X141260999Y-108890000D01*
X141260999Y-107990028D01*
X141260998Y-107990013D01*
X141250505Y-107887302D01*
X141212614Y-107772954D01*
X141210212Y-107703126D01*
X141245944Y-107643084D01*
X141308464Y-107611891D01*
X141330320Y-107609950D01*
X150391680Y-107609950D01*
X150458719Y-107629635D01*
X150504474Y-107682439D01*
X150514418Y-107751597D01*
X150509386Y-107772954D01*
X150471494Y-107887302D01*
X150471493Y-107887309D01*
X150461000Y-107990013D01*
X150461000Y-108890000D01*
X152460999Y-108890000D01*
X152460999Y-107990028D01*
X152460998Y-107990013D01*
X152450505Y-107887302D01*
X152412614Y-107772954D01*
X152411634Y-107744489D01*
X152407582Y-107716303D01*
X152410449Y-107710024D01*
X152410212Y-107703126D01*
X152424775Y-107678654D01*
X152436607Y-107652747D01*
X152442414Y-107649014D01*
X152445944Y-107643084D01*
X152471426Y-107630370D01*
X152495385Y-107614973D01*
X152505080Y-107613578D01*
X152508464Y-107611891D01*
X152530320Y-107609950D01*
X152657180Y-107609950D01*
X152724219Y-107629635D01*
X152769974Y-107682439D01*
X152779918Y-107751597D01*
X152774886Y-107772954D01*
X152736994Y-107887302D01*
X152736993Y-107887309D01*
X152726500Y-107990013D01*
X152726500Y-108890000D01*
X154726499Y-108890000D01*
X154726499Y-107990028D01*
X154726498Y-107990013D01*
X154716005Y-107887302D01*
X154678114Y-107772954D01*
X154675712Y-107703126D01*
X154711444Y-107643084D01*
X154773964Y-107611891D01*
X154795820Y-107609950D01*
X162607180Y-107609950D01*
X162674219Y-107629635D01*
X162719974Y-107682439D01*
X162729918Y-107751597D01*
X162724886Y-107772954D01*
X162686994Y-107887302D01*
X162686993Y-107887309D01*
X162676500Y-107990013D01*
X162676500Y-108890000D01*
X164676499Y-108890000D01*
X164676499Y-107990028D01*
X164676498Y-107990013D01*
X164666005Y-107887302D01*
X164628114Y-107772954D01*
X164627134Y-107744489D01*
X164623082Y-107716303D01*
X164625949Y-107710024D01*
X164625712Y-107703126D01*
X164640275Y-107678654D01*
X164652107Y-107652747D01*
X164657914Y-107649014D01*
X164661444Y-107643084D01*
X164686926Y-107630370D01*
X164710885Y-107614973D01*
X164720580Y-107613578D01*
X164723964Y-107611891D01*
X164745820Y-107609950D01*
X164877680Y-107609950D01*
X164944719Y-107629635D01*
X164990474Y-107682439D01*
X165000418Y-107751597D01*
X164995386Y-107772954D01*
X164957494Y-107887302D01*
X164957493Y-107887309D01*
X164947000Y-107990013D01*
X164947000Y-108890000D01*
X166946999Y-108890000D01*
X166946999Y-107990028D01*
X166946998Y-107990013D01*
X166936505Y-107887302D01*
X166898614Y-107772954D01*
X166896212Y-107703126D01*
X166931944Y-107643084D01*
X166994464Y-107611891D01*
X167016320Y-107609950D01*
X172327680Y-107609950D01*
X172394719Y-107629635D01*
X172440474Y-107682439D01*
X172450418Y-107751597D01*
X172445386Y-107772954D01*
X172407494Y-107887302D01*
X172407493Y-107887309D01*
X172397000Y-107990013D01*
X172397000Y-108890000D01*
X174396999Y-108890000D01*
X174396999Y-108587430D01*
X174400793Y-108574508D01*
X174399832Y-108561073D01*
X174410446Y-108541634D01*
X174416684Y-108520391D01*
X174426861Y-108511571D01*
X174433317Y-108499750D01*
X174452754Y-108489135D01*
X174469488Y-108474636D01*
X174482817Y-108472719D01*
X174494639Y-108466264D01*
X174516727Y-108467843D01*
X174538646Y-108464692D01*
X174550898Y-108470287D01*
X174564331Y-108471248D01*
X174582057Y-108484517D01*
X174602202Y-108493717D01*
X174610702Y-108505959D01*
X174620265Y-108513118D01*
X174637180Y-108544095D01*
X174684703Y-108671504D01*
X174689688Y-108688478D01*
X174731097Y-108878810D01*
X174733615Y-108896321D01*
X174747834Y-109095033D01*
X174748150Y-109103883D01*
X174748150Y-121795016D01*
X174747834Y-121803866D01*
X174733615Y-122002578D01*
X174731097Y-122020089D01*
X174689688Y-122210421D01*
X174684703Y-122227396D01*
X174616632Y-122409891D01*
X174609283Y-122425983D01*
X174515932Y-122596939D01*
X174506367Y-122611822D01*
X174389636Y-122767754D01*
X174378050Y-122781124D01*
X174240324Y-122918850D01*
X174226954Y-122930436D01*
X174071022Y-123047167D01*
X174056139Y-123056732D01*
X173885183Y-123150083D01*
X173869091Y-123157432D01*
X173686596Y-123225503D01*
X173669621Y-123230488D01*
X173479289Y-123271897D01*
X173461778Y-123274415D01*
X173263066Y-123288634D01*
X173254216Y-123288950D01*
X110923084Y-123288950D01*
X110914234Y-123288634D01*
X110715521Y-123274415D01*
X110698010Y-123271897D01*
X110507678Y-123230488D01*
X110490703Y-123225503D01*
X110308208Y-123157432D01*
X110292116Y-123150083D01*
X110121160Y-123056732D01*
X110106277Y-123047167D01*
X109950345Y-122930436D01*
X109936975Y-122918850D01*
X109799249Y-122781124D01*
X109787663Y-122767754D01*
X109670932Y-122611822D01*
X109661367Y-122596939D01*
X109568016Y-122425983D01*
X109560667Y-122409891D01*
X109492596Y-122227396D01*
X109487611Y-122210421D01*
X109446202Y-122020089D01*
X109443684Y-122002578D01*
X109429466Y-121803866D01*
X109429150Y-121795016D01*
X109429150Y-109390000D01*
X109825001Y-109390000D01*
X109825001Y-110289986D01*
X109835494Y-110392697D01*
X109890641Y-110559119D01*
X109890643Y-110559124D01*
X109982684Y-110708345D01*
X110106654Y-110832315D01*
X110255875Y-110924356D01*
X110255880Y-110924358D01*
X110422302Y-110979505D01*
X110422309Y-110979506D01*
X110525018Y-110989999D01*
X110539851Y-110989999D01*
X110606892Y-111009680D01*
X110652650Y-111062481D01*
X110662597Y-111131639D01*
X110661476Y-111138189D01*
X110655500Y-111168234D01*
X110655500Y-114750571D01*
X110688182Y-114914879D01*
X110688184Y-114914884D01*
X110697339Y-114936984D01*
X110697340Y-114936987D01*
X110752292Y-115069656D01*
X110752299Y-115069669D01*
X110845372Y-115208961D01*
X110845375Y-115208965D01*
X111728480Y-116092069D01*
X111761965Y-116153392D01*
X111756981Y-116223083D01*
X111715111Y-116279016D01*
X111631102Y-116341905D01*
X111544856Y-116457114D01*
X111544852Y-116457121D01*
X111494558Y-116591967D01*
X111488151Y-116651566D01*
X111488150Y-116651585D01*
X111488150Y-118447320D01*
X111488151Y-118447326D01*
X111494558Y-118506933D01*
X111544852Y-118641778D01*
X111544856Y-118641785D01*
X111631102Y-118756994D01*
X111631105Y-118756997D01*
X111746314Y-118843243D01*
X111746321Y-118843247D01*
X111881167Y-118893541D01*
X111881166Y-118893541D01*
X111888094Y-118894285D01*
X111940777Y-118899950D01*
X113736522Y-118899949D01*
X113796133Y-118893541D01*
X113842931Y-118876085D01*
X113912623Y-118871100D01*
X113973946Y-118904585D01*
X113973947Y-118904586D01*
X117914471Y-122845111D01*
X117914472Y-122845112D01*
X118029210Y-122921777D01*
X118156685Y-122974578D01*
X118156690Y-122974580D01*
X118156694Y-122974580D01*
X118156695Y-122974581D01*
X118292021Y-123001500D01*
X118292024Y-123001500D01*
X164036096Y-123001500D01*
X164127140Y-122983389D01*
X164171428Y-122974580D01*
X164235169Y-122948177D01*
X164298907Y-122921777D01*
X164298908Y-122921776D01*
X164298911Y-122921775D01*
X164413643Y-122845114D01*
X168348799Y-118909955D01*
X168410120Y-118876472D01*
X168455876Y-118875165D01*
X168516647Y-118884790D01*
X168612363Y-118899950D01*
X168612364Y-118899950D01*
X168824936Y-118899950D01*
X168824937Y-118899950D01*
X169034893Y-118866696D01*
X169237062Y-118801007D01*
X169426466Y-118704501D01*
X169512788Y-118641785D01*
X169598436Y-118579559D01*
X169598438Y-118579556D01*
X169598442Y-118579554D01*
X169748754Y-118429242D01*
X169748756Y-118429238D01*
X169748759Y-118429236D01*
X169853285Y-118285366D01*
X169873701Y-118257266D01*
X169878443Y-118247958D01*
X169926413Y-118197161D01*
X169994233Y-118180361D01*
X170060369Y-118202895D01*
X170099413Y-118247950D01*
X170104027Y-118257005D01*
X170228922Y-118428909D01*
X170228926Y-118428914D01*
X170379185Y-118579173D01*
X170379190Y-118579177D01*
X170551092Y-118704070D01*
X170740432Y-118800545D01*
X170942521Y-118866207D01*
X171008650Y-118876681D01*
X171008650Y-117982462D01*
X171065657Y-118015375D01*
X171192824Y-118049450D01*
X171324476Y-118049450D01*
X171451643Y-118015375D01*
X171508650Y-117982462D01*
X171508650Y-118876680D01*
X171574776Y-118866207D01*
X171574779Y-118866207D01*
X171776867Y-118800545D01*
X171966207Y-118704070D01*
X172138109Y-118579177D01*
X172138114Y-118579173D01*
X172288373Y-118428914D01*
X172288377Y-118428909D01*
X172413270Y-118257007D01*
X172509745Y-118067667D01*
X172575407Y-117865579D01*
X172575407Y-117865576D01*
X172585881Y-117799450D01*
X171691662Y-117799450D01*
X171724575Y-117742443D01*
X171758650Y-117615276D01*
X171758650Y-117483624D01*
X171724575Y-117356457D01*
X171691662Y-117299450D01*
X172585881Y-117299450D01*
X172575407Y-117233323D01*
X172575407Y-117233320D01*
X172509745Y-117031232D01*
X172413270Y-116841892D01*
X172288377Y-116669990D01*
X172288373Y-116669985D01*
X172138114Y-116519726D01*
X172138109Y-116519722D01*
X171966207Y-116394829D01*
X171776865Y-116298353D01*
X171574774Y-116232691D01*
X171508650Y-116222218D01*
X171508650Y-117116438D01*
X171451643Y-117083525D01*
X171324476Y-117049450D01*
X171192824Y-117049450D01*
X171065657Y-117083525D01*
X171008650Y-117116438D01*
X171008650Y-116222218D01*
X171008649Y-116222218D01*
X170942525Y-116232691D01*
X170740434Y-116298353D01*
X170551092Y-116394829D01*
X170379190Y-116519722D01*
X170379185Y-116519726D01*
X170228926Y-116669985D01*
X170228922Y-116669990D01*
X170104028Y-116841893D01*
X170099412Y-116850952D01*
X170051434Y-116901745D01*
X169983613Y-116918537D01*
X169917479Y-116895996D01*
X169878444Y-116850943D01*
X169873701Y-116841634D01*
X169873699Y-116841631D01*
X169873698Y-116841629D01*
X169748759Y-116669663D01*
X169598436Y-116519340D01*
X169426470Y-116394401D01*
X169237064Y-116297894D01*
X169237063Y-116297893D01*
X169237062Y-116297893D01*
X169034893Y-116232204D01*
X169034891Y-116232203D01*
X169034890Y-116232203D01*
X168860003Y-116204504D01*
X168824937Y-116198950D01*
X168819168Y-116198950D01*
X168752129Y-116179265D01*
X168706374Y-116126461D01*
X168696430Y-116057303D01*
X168725455Y-115993747D01*
X168731487Y-115987269D01*
X170841106Y-113877650D01*
X170841113Y-113877643D01*
X170841641Y-113876853D01*
X170842531Y-113875523D01*
X170917768Y-113762921D01*
X170917775Y-113762911D01*
X170946462Y-113693653D01*
X170990301Y-113639252D01*
X171056595Y-113617186D01*
X171124142Y-113634375D01*
X171136602Y-113641744D01*
X171161498Y-113648977D01*
X171294426Y-113687597D01*
X171294429Y-113687597D01*
X171294431Y-113687598D01*
X171331306Y-113690500D01*
X171331314Y-113690500D01*
X171762686Y-113690500D01*
X171762694Y-113690500D01*
X171799569Y-113687598D01*
X171799571Y-113687597D01*
X171799573Y-113687597D01*
X171841191Y-113675505D01*
X171957398Y-113641744D01*
X172098865Y-113558081D01*
X172215081Y-113441865D01*
X172298744Y-113300398D01*
X172340169Y-113157815D01*
X172344597Y-113142573D01*
X172344598Y-113142567D01*
X172347499Y-113105701D01*
X172347500Y-113105694D01*
X172347500Y-112654551D01*
X172356939Y-112607098D01*
X172364816Y-112588082D01*
X172397500Y-112423767D01*
X172397500Y-111406234D01*
X172364816Y-111241919D01*
X172342101Y-111187081D01*
X172334294Y-111168234D01*
X172319229Y-111131862D01*
X172300704Y-111087138D01*
X172300702Y-111087136D01*
X172300702Y-111087134D01*
X172207627Y-110947839D01*
X172207624Y-110947835D01*
X171549775Y-110289986D01*
X172397001Y-110289986D01*
X172407494Y-110392697D01*
X172462641Y-110559119D01*
X172462643Y-110559124D01*
X172554684Y-110708345D01*
X172678654Y-110832315D01*
X172827875Y-110924356D01*
X172827880Y-110924358D01*
X172994302Y-110979505D01*
X172994309Y-110979506D01*
X173097019Y-110989999D01*
X173647000Y-110989999D01*
X173696972Y-110989999D01*
X173696986Y-110989998D01*
X173799697Y-110979505D01*
X173966119Y-110924358D01*
X173966124Y-110924356D01*
X174115345Y-110832315D01*
X174239315Y-110708345D01*
X174331356Y-110559124D01*
X174331358Y-110559119D01*
X174386505Y-110392697D01*
X174386506Y-110392690D01*
X174396999Y-110289986D01*
X174397000Y-110289973D01*
X174397000Y-109390000D01*
X173647000Y-109390000D01*
X173647000Y-110989999D01*
X173097019Y-110989999D01*
X173146999Y-110989998D01*
X173147000Y-110989998D01*
X173147000Y-109390000D01*
X172397001Y-109390000D01*
X172397001Y-110289986D01*
X171549775Y-110289986D01*
X171343164Y-110083375D01*
X171343160Y-110083372D01*
X171203865Y-109990297D01*
X171203862Y-109990296D01*
X171089347Y-109942863D01*
X171049081Y-109926184D01*
X171049073Y-109926182D01*
X170884770Y-109893500D01*
X170884766Y-109893500D01*
X167071000Y-109893500D01*
X167003961Y-109873815D01*
X166958206Y-109821011D01*
X166947000Y-109769500D01*
X166947000Y-109390000D01*
X164947001Y-109390000D01*
X164947001Y-110289986D01*
X164957494Y-110392697D01*
X165012641Y-110559119D01*
X165012643Y-110559124D01*
X165104684Y-110708345D01*
X165228655Y-110832316D01*
X165228659Y-110832319D01*
X165288740Y-110869378D01*
X165335465Y-110921326D01*
X165346686Y-110990288D01*
X165318843Y-111054370D01*
X165311324Y-111062597D01*
X164920742Y-111453181D01*
X164859419Y-111486666D01*
X164833061Y-111489500D01*
X162795327Y-111489500D01*
X162768291Y-111481561D01*
X162740520Y-111476731D01*
X162735207Y-111471846D01*
X162728288Y-111469815D01*
X162709838Y-111448523D01*
X162689085Y-111429443D01*
X162685682Y-111420645D01*
X162682533Y-111417011D01*
X162675374Y-111396921D01*
X162674432Y-111393328D01*
X162644316Y-111241919D01*
X162621601Y-111187081D01*
X162613794Y-111168234D01*
X162580206Y-111087143D01*
X162580205Y-111087141D01*
X162580204Y-111087138D01*
X162487126Y-110947839D01*
X162487122Y-110947835D01*
X162487120Y-110947832D01*
X162487119Y-110947831D01*
X161829275Y-110289986D01*
X162676501Y-110289986D01*
X162686994Y-110392697D01*
X162742141Y-110559119D01*
X162742143Y-110559124D01*
X162834184Y-110708345D01*
X162958154Y-110832315D01*
X163107375Y-110924356D01*
X163107380Y-110924358D01*
X163273802Y-110979505D01*
X163273809Y-110979506D01*
X163376519Y-110989999D01*
X163926500Y-110989999D01*
X163976472Y-110989999D01*
X163976486Y-110989998D01*
X164079197Y-110979505D01*
X164245619Y-110924358D01*
X164245624Y-110924356D01*
X164394845Y-110832315D01*
X164518815Y-110708345D01*
X164610856Y-110559124D01*
X164610858Y-110559119D01*
X164666005Y-110392697D01*
X164666006Y-110392690D01*
X164676499Y-110289986D01*
X164676500Y-110289973D01*
X164676500Y-109390000D01*
X163926500Y-109390000D01*
X163926500Y-110989999D01*
X163376519Y-110989999D01*
X163426499Y-110989998D01*
X163426500Y-110989998D01*
X163426500Y-109390000D01*
X162676501Y-109390000D01*
X162676501Y-110289986D01*
X161829275Y-110289986D01*
X161817664Y-110278375D01*
X161817660Y-110278372D01*
X161678365Y-110185297D01*
X161678362Y-110185296D01*
X161568915Y-110139962D01*
X161568913Y-110139961D01*
X161523585Y-110121185D01*
X161523573Y-110121182D01*
X161359270Y-110088500D01*
X161359266Y-110088500D01*
X160618651Y-110088500D01*
X160551612Y-110068815D01*
X160530970Y-110052181D01*
X159905109Y-109426319D01*
X159612165Y-109133375D01*
X159612161Y-109133372D01*
X159472869Y-109040299D01*
X159472856Y-109040292D01*
X159354860Y-108991418D01*
X159354858Y-108991417D01*
X159318086Y-108976185D01*
X159318074Y-108976182D01*
X159153771Y-108943500D01*
X159153767Y-108943500D01*
X155552233Y-108943500D01*
X155552228Y-108943500D01*
X155387925Y-108976182D01*
X155387913Y-108976185D01*
X155351139Y-108991418D01*
X155233143Y-109040292D01*
X155233130Y-109040299D01*
X155093838Y-109133372D01*
X155093834Y-109133375D01*
X154869536Y-109357673D01*
X154808213Y-109391158D01*
X154777863Y-109388987D01*
X154777863Y-109390000D01*
X152726501Y-109390000D01*
X152726501Y-110289986D01*
X152736994Y-110392697D01*
X152792141Y-110559119D01*
X152792143Y-110559124D01*
X152884184Y-110708345D01*
X153008154Y-110832315D01*
X153113879Y-110897527D01*
X153160603Y-110949475D01*
X153171826Y-111018438D01*
X153143982Y-111082520D01*
X153136463Y-111090747D01*
X152774030Y-111453181D01*
X152712707Y-111486666D01*
X152686349Y-111489500D01*
X150579827Y-111489500D01*
X150552791Y-111481561D01*
X150525020Y-111476731D01*
X150519707Y-111471846D01*
X150512788Y-111469815D01*
X150494338Y-111448523D01*
X150473585Y-111429443D01*
X150470182Y-111420645D01*
X150467033Y-111417011D01*
X150459874Y-111396921D01*
X150458932Y-111393328D01*
X150428816Y-111241919D01*
X150406101Y-111187081D01*
X150398294Y-111168234D01*
X150364706Y-111087143D01*
X150364705Y-111087141D01*
X150364704Y-111087138D01*
X150271626Y-110947839D01*
X150271622Y-110947835D01*
X150271620Y-110947832D01*
X150271619Y-110947831D01*
X149613775Y-110289986D01*
X150461001Y-110289986D01*
X150471494Y-110392697D01*
X150526641Y-110559119D01*
X150526643Y-110559124D01*
X150618684Y-110708345D01*
X150742654Y-110832315D01*
X150891875Y-110924356D01*
X150891880Y-110924358D01*
X151058302Y-110979505D01*
X151058309Y-110979506D01*
X151161019Y-110989999D01*
X151711000Y-110989999D01*
X151760972Y-110989999D01*
X151760986Y-110989998D01*
X151863697Y-110979505D01*
X152030119Y-110924358D01*
X152030124Y-110924356D01*
X152179345Y-110832315D01*
X152303315Y-110708345D01*
X152395356Y-110559124D01*
X152395358Y-110559119D01*
X152450505Y-110392697D01*
X152450506Y-110392690D01*
X152460999Y-110289986D01*
X152461000Y-110289973D01*
X152461000Y-109390000D01*
X151711000Y-109390000D01*
X151711000Y-110989999D01*
X151161019Y-110989999D01*
X151210999Y-110989998D01*
X151211000Y-110989998D01*
X151211000Y-109390000D01*
X150461001Y-109390000D01*
X150461001Y-110289986D01*
X149613775Y-110289986D01*
X149602164Y-110278375D01*
X149602160Y-110278372D01*
X149462865Y-110185297D01*
X149462862Y-110185296D01*
X149353415Y-110139962D01*
X149353413Y-110139961D01*
X149308085Y-110121185D01*
X149308073Y-110121182D01*
X149143770Y-110088500D01*
X149143766Y-110088500D01*
X148426650Y-110088500D01*
X148359611Y-110068815D01*
X148338969Y-110052181D01*
X147713108Y-109426319D01*
X146658165Y-108371375D01*
X146658161Y-108371372D01*
X146518866Y-108278297D01*
X146518863Y-108278296D01*
X146409416Y-108232962D01*
X146409414Y-108232961D01*
X146364086Y-108214185D01*
X146364074Y-108214182D01*
X146199771Y-108181500D01*
X146199767Y-108181500D01*
X142979233Y-108181500D01*
X142979228Y-108181500D01*
X142814925Y-108214182D01*
X142814917Y-108214184D01*
X142660135Y-108278297D01*
X142660129Y-108278301D01*
X142520838Y-108371373D01*
X142520834Y-108371376D01*
X141469286Y-109422924D01*
X141407963Y-109456409D01*
X141338271Y-109451425D01*
X141293923Y-109422924D01*
X141260999Y-109390000D01*
X139261001Y-109390000D01*
X139261001Y-110289986D01*
X139271494Y-110392697D01*
X139326641Y-110559119D01*
X139326643Y-110559124D01*
X139418684Y-110708345D01*
X139542654Y-110832315D01*
X139691875Y-110924356D01*
X139691878Y-110924357D01*
X139708336Y-110929811D01*
X139765780Y-110969584D01*
X139792603Y-111034100D01*
X139780288Y-111102876D01*
X139757012Y-111135198D01*
X139439030Y-111453181D01*
X139377707Y-111486666D01*
X139351349Y-111489500D01*
X137114327Y-111489500D01*
X137047288Y-111469815D01*
X137001533Y-111417011D01*
X136992710Y-111389691D01*
X136963317Y-111241926D01*
X136963316Y-111241919D01*
X136923942Y-111146863D01*
X136923266Y-111145232D01*
X136913031Y-111120520D01*
X136899204Y-111087138D01*
X136899202Y-111087135D01*
X136899201Y-111087132D01*
X136846875Y-111008824D01*
X136806126Y-110947839D01*
X136806121Y-110947834D01*
X136806119Y-110947831D01*
X136148274Y-110289986D01*
X136995501Y-110289986D01*
X137005994Y-110392697D01*
X137061141Y-110559119D01*
X137061143Y-110559124D01*
X137153184Y-110708345D01*
X137277154Y-110832315D01*
X137426375Y-110924356D01*
X137426380Y-110924358D01*
X137592802Y-110979505D01*
X137592809Y-110979506D01*
X137695519Y-110989999D01*
X138245500Y-110989999D01*
X138295472Y-110989999D01*
X138295486Y-110989998D01*
X138398197Y-110979505D01*
X138564619Y-110924358D01*
X138564624Y-110924356D01*
X138713845Y-110832315D01*
X138837815Y-110708345D01*
X138929856Y-110559124D01*
X138929858Y-110559119D01*
X138985005Y-110392697D01*
X138985006Y-110392690D01*
X138995499Y-110289986D01*
X138995500Y-110289973D01*
X138995500Y-109390000D01*
X138245500Y-109390000D01*
X138245500Y-110989999D01*
X137695519Y-110989999D01*
X137745499Y-110989998D01*
X137745500Y-110989998D01*
X137745500Y-109390000D01*
X136995501Y-109390000D01*
X136995501Y-110289986D01*
X136148274Y-110289986D01*
X135372664Y-109514375D01*
X135372660Y-109514372D01*
X135271339Y-109446671D01*
X135271336Y-109446669D01*
X135233362Y-109421296D01*
X135123914Y-109375962D01*
X135120858Y-109374696D01*
X135120839Y-109374687D01*
X135078585Y-109357185D01*
X135078573Y-109357182D01*
X134914270Y-109324500D01*
X134914266Y-109324500D01*
X129416445Y-109324500D01*
X129416440Y-109324500D01*
X129252137Y-109357182D01*
X129252129Y-109357184D01*
X129159364Y-109395609D01*
X129089894Y-109403078D01*
X129063768Y-109390000D01*
X127045501Y-109390000D01*
X127045501Y-110289986D01*
X127055994Y-110392697D01*
X127111141Y-110559119D01*
X127111143Y-110559124D01*
X127203184Y-110708345D01*
X127327155Y-110832316D01*
X127327159Y-110832319D01*
X127387240Y-110869378D01*
X127433965Y-110921326D01*
X127445186Y-110990288D01*
X127417343Y-111054370D01*
X127409824Y-111062597D01*
X127019242Y-111453181D01*
X126957919Y-111486666D01*
X126931561Y-111489500D01*
X124893827Y-111489500D01*
X124866791Y-111481561D01*
X124839020Y-111476731D01*
X124833707Y-111471846D01*
X124826788Y-111469815D01*
X124808338Y-111448523D01*
X124787585Y-111429443D01*
X124784182Y-111420645D01*
X124781033Y-111417011D01*
X124773874Y-111396921D01*
X124772932Y-111393328D01*
X124742816Y-111241919D01*
X124720101Y-111187081D01*
X124712294Y-111168234D01*
X124697229Y-111131862D01*
X124678704Y-111087138D01*
X124678702Y-111087136D01*
X124678702Y-111087134D01*
X124585627Y-110947839D01*
X124585624Y-110947835D01*
X123927775Y-110289986D01*
X124775001Y-110289986D01*
X124785494Y-110392697D01*
X124840641Y-110559119D01*
X124840643Y-110559124D01*
X124932684Y-110708345D01*
X125056654Y-110832315D01*
X125205875Y-110924356D01*
X125205880Y-110924358D01*
X125372302Y-110979505D01*
X125372309Y-110979506D01*
X125475019Y-110989999D01*
X126025000Y-110989999D01*
X126074972Y-110989999D01*
X126074986Y-110989998D01*
X126177697Y-110979505D01*
X126344119Y-110924358D01*
X126344124Y-110924356D01*
X126493345Y-110832315D01*
X126617315Y-110708345D01*
X126709356Y-110559124D01*
X126709358Y-110559119D01*
X126764505Y-110392697D01*
X126764506Y-110392690D01*
X126774999Y-110289986D01*
X126775000Y-110289973D01*
X126775000Y-109390000D01*
X126025000Y-109390000D01*
X126025000Y-110989999D01*
X125475019Y-110989999D01*
X125524999Y-110989998D01*
X125525000Y-110989998D01*
X125525000Y-109390000D01*
X124775001Y-109390000D01*
X124775001Y-110289986D01*
X123927775Y-110289986D01*
X123721164Y-110083375D01*
X123721160Y-110083372D01*
X123581865Y-109990297D01*
X123581862Y-109990296D01*
X123467347Y-109942863D01*
X123427081Y-109926184D01*
X123427073Y-109926182D01*
X123262770Y-109893500D01*
X123262766Y-109893500D01*
X118460153Y-109893500D01*
X118393114Y-109873815D01*
X118372472Y-109857181D01*
X117941611Y-109426319D01*
X117394668Y-108879375D01*
X117394664Y-108879372D01*
X117255369Y-108786297D01*
X117255366Y-108786296D01*
X117145919Y-108740962D01*
X117145917Y-108740961D01*
X117100589Y-108722185D01*
X117100577Y-108722182D01*
X116936274Y-108689500D01*
X116936270Y-108689500D01*
X115981730Y-108689500D01*
X115981725Y-108689500D01*
X115817422Y-108722182D01*
X115817410Y-108722185D01*
X115772080Y-108740962D01*
X115662640Y-108786292D01*
X115662634Y-108786295D01*
X115662634Y-108786296D01*
X115523337Y-108879373D01*
X115523328Y-108879379D01*
X115523328Y-108879380D01*
X114545527Y-109857181D01*
X114484204Y-109890666D01*
X114457846Y-109893500D01*
X111948999Y-109893500D01*
X111881960Y-109873815D01*
X111836205Y-109821011D01*
X111824999Y-109769500D01*
X111825000Y-109390000D01*
X109825001Y-109390000D01*
X109429150Y-109390000D01*
X109429150Y-109103883D01*
X109429466Y-109095033D01*
X109433382Y-109040299D01*
X109443684Y-108896320D01*
X109446202Y-108878810D01*
X109487611Y-108688474D01*
X109492596Y-108671503D01*
X109523956Y-108587430D01*
X109560668Y-108489003D01*
X109568016Y-108472916D01*
X109569452Y-108470287D01*
X109592169Y-108428684D01*
X109641574Y-108379281D01*
X109709847Y-108364430D01*
X109775311Y-108388848D01*
X109817182Y-108444782D01*
X109825000Y-108488114D01*
X109825000Y-108890000D01*
X111824999Y-108890000D01*
X111824999Y-107990028D01*
X111824998Y-107990013D01*
X111814505Y-107887302D01*
X111776614Y-107772954D01*
X111774212Y-107703126D01*
X111809944Y-107643084D01*
X111872464Y-107611891D01*
X111894320Y-107609950D01*
X124705680Y-107609950D01*
X124772719Y-107629635D01*
G37*
%TD.AperFunction*%
%TD*%
M02*
