M48
; DRILL file {KiCad 9.0.6+1} date 2026-01-29T23:47:34+0000
; FORMAT={3:3/ absolute / metric / suppress leading zeros}
; #@! TF.CreationDate,2026-01-29T23:47:34+00:00
; #@! TF.GenerationSoftware,Kicad,Pcbnew,9.0.6+1
; #@! TF.FileFunction,Plated,1,2,PTH
FMAT,2
METRIC,TZ
; #@! TA.AperFunction,Plated,PTH,ViaDrill
T1C0.400
; #@! TA.AperFunction,Plated,PTH,ComponentDrill
T2C0.900
; #@! TA.AperFunction,Plated,PTH,ComponentDrill
T3C1.000
%
G90
G05
T1
X112649Y-113919
X115189Y-115316
X116459Y-110490
X121412Y-113919
X126365Y-113665
X130175Y-113792
X131406Y-114135
X131971Y-115998
X133096Y-117983
X133604Y-111125
X133604Y-114568
X134482Y-116383
X135001Y-109982
X135509Y-114808
X138103Y-114516
X141097Y-112395
X144526Y-110109
X145923Y-114694
X146141Y-116780
X146944Y-115735
X147828Y-121285
X148247Y-114262
X148844Y-115316
X151511Y-114173
X154658Y-114960
X154940Y-121285
X157353Y-109982
X158115Y-110744
X158559Y-114554
X159524Y-119685
X161088Y-114236
X166751Y-112395
X171196Y-108839
T2
X112839Y-117549
X115379Y-117549
X117919Y-117549
X120459Y-117549
X122999Y-117549
X125539Y-117549
X128079Y-117549
X130619Y-117549
X150939Y-117549
X153479Y-117549
X156019Y-117549
X158559Y-117549
X161099Y-117549
X163639Y-117549
X166179Y-117549
X168719Y-117549
X171259Y-117549
T3
X136652Y-118431
X139192Y-118431
X141732Y-118431
X148399Y-117549
M30
