%TF.GenerationSoftware,KiCad,Pcbnew,9.0.6+1*%
%TF.CreationDate,2026-01-02T23:04:04+00:00*%
%TF.ProjectId,TFFLIP2PH,5446464c-4950-4325-9048-2e6b69636164,A*%
%TF.SameCoordinates,Original*%
%TF.FileFunction,Legend,Top*%
%TF.FilePolarity,Positive*%
%FSLAX46Y46*%
G04 Gerber Fmt 4.6, Leading zero omitted, Abs format (unit mm)*
G04 Created by KiCad (PCBNEW 9.0.6+1) date 2026-01-02 23:04:04*
%MOMM*%
%LPD*%
G01*
G04 APERTURE LIST*
%ADD10C,0.000000*%
%ADD11C,0.150000*%
%ADD12C,0.120000*%
%ADD13C,0.010000*%
G04 APERTURE END LIST*
D10*
G36*
X137315575Y-111782225D02*
G01*
X137236200Y-111782225D01*
X137236200Y-111702850D01*
X137315575Y-111702850D01*
X137315575Y-111782225D01*
G37*
G36*
X138506200Y-111067850D02*
G01*
X138426825Y-111067850D01*
X138426825Y-110988475D01*
X138506200Y-110988475D01*
X138506200Y-111067850D01*
G37*
G36*
X142316200Y-110035975D02*
G01*
X142474950Y-110035975D01*
X142474950Y-110115350D01*
X142633699Y-110115350D01*
X142633699Y-110194725D01*
X142713074Y-110194725D01*
X142713074Y-110274100D01*
X142792449Y-110274100D01*
X142792449Y-110353475D01*
X142871825Y-110353475D01*
X142871825Y-110432850D01*
X142951200Y-110432850D01*
X142951200Y-110512225D01*
X143030575Y-110512225D01*
X143030575Y-110670975D01*
X143109950Y-110670975D01*
X143109950Y-110829725D01*
X143189325Y-110829725D01*
X143189325Y-111147225D01*
X143030575Y-111147225D01*
X143030575Y-110909100D01*
X142951200Y-110909100D01*
X142951200Y-110750350D01*
X142871825Y-110750350D01*
X142871825Y-110591600D01*
X142792449Y-110591600D01*
X142792449Y-110512225D01*
X142713074Y-110512225D01*
X142713074Y-110432850D01*
X142633699Y-110432850D01*
X142633699Y-110353475D01*
X142554325Y-110353475D01*
X142554325Y-110274100D01*
X142395575Y-110274100D01*
X142395575Y-110194725D01*
X142236825Y-110194725D01*
X142236825Y-110115350D01*
X141998700Y-110115350D01*
X141998700Y-109956600D01*
X142316200Y-109956600D01*
X142316200Y-110035975D01*
G37*
G36*
X140093700Y-114560350D02*
G01*
X140014325Y-114560350D01*
X140014325Y-114480975D01*
X140093700Y-114480975D01*
X140093700Y-114560350D01*
G37*
G36*
X139141200Y-111147225D02*
G01*
X139061825Y-111147225D01*
X139061825Y-111067850D01*
X139141200Y-111067850D01*
X139141200Y-111147225D01*
G37*
G36*
X139538075Y-111067850D02*
G01*
X139458700Y-111067850D01*
X139458700Y-110988475D01*
X139538075Y-110988475D01*
X139538075Y-111067850D01*
G37*
G36*
X137315575Y-111544100D02*
G01*
X137236200Y-111544100D01*
X137236200Y-111464725D01*
X137315575Y-111464725D01*
X137315575Y-111544100D01*
G37*
G36*
X140728700Y-115354099D02*
G01*
X140649325Y-115354099D01*
X140649325Y-115433475D01*
X140569950Y-115433475D01*
X140569950Y-115512850D01*
X140490575Y-115512850D01*
X140490575Y-115592225D01*
X140411199Y-115592225D01*
X140411199Y-115671600D01*
X139617450Y-115671600D01*
X139617450Y-115750975D01*
X139538075Y-115750975D01*
X139538075Y-115909724D01*
X139458700Y-115909724D01*
X139458700Y-115989100D01*
X139299950Y-115989100D01*
X139299950Y-115830350D01*
X139379325Y-115830350D01*
X139379325Y-115671600D01*
X139458700Y-115671600D01*
X139458700Y-115512850D01*
X139538075Y-115512850D01*
X139696825Y-115512850D01*
X140331825Y-115512850D01*
X140331825Y-115433475D01*
X140411199Y-115433475D01*
X140411199Y-115354099D01*
X139776200Y-115354099D01*
X139776200Y-115433475D01*
X139696825Y-115433475D01*
X139696825Y-115512850D01*
X139538075Y-115512850D01*
X139538075Y-115433475D01*
X139538075Y-115354099D01*
X139617450Y-115354099D01*
X139617450Y-115195350D01*
X140728700Y-115195350D01*
X140728700Y-115354099D01*
G37*
G36*
X140093700Y-111385350D02*
G01*
X140014325Y-111385350D01*
X140014325Y-111305975D01*
X140093700Y-111305975D01*
X140093700Y-111385350D01*
G37*
G36*
X138664950Y-111147225D02*
G01*
X138585575Y-111147225D01*
X138585575Y-111305975D01*
X138506200Y-111305975D01*
X138506200Y-111226600D01*
X138426825Y-111226600D01*
X138426825Y-111147225D01*
X138506200Y-111147225D01*
X138506200Y-111067850D01*
X138585575Y-111067850D01*
X138585575Y-110988475D01*
X138664950Y-110988475D01*
X138664950Y-111147225D01*
G37*
G36*
X136759950Y-112496600D02*
G01*
X136680575Y-112496600D01*
X136680575Y-112417225D01*
X136759950Y-112417225D01*
X136759950Y-112496600D01*
G37*
G36*
X136759950Y-112972850D02*
G01*
X136680575Y-112972850D01*
X136680575Y-112893475D01*
X136759950Y-112893475D01*
X136759950Y-112972850D01*
G37*
G36*
X138347450Y-111702850D02*
G01*
X138268075Y-111702850D01*
X138268075Y-111623475D01*
X138347450Y-111623475D01*
X138347450Y-111702850D01*
G37*
G36*
X139458700Y-111782225D02*
G01*
X139141200Y-111782225D01*
X139141200Y-111702850D01*
X139458700Y-111702850D01*
X139458700Y-111782225D01*
G37*
G36*
X138109325Y-115433475D02*
G01*
X138029950Y-115433475D01*
X138029950Y-115592225D01*
X137950575Y-115592225D01*
X137950575Y-115750975D01*
X137871200Y-115750975D01*
X137871200Y-115909724D01*
X137791825Y-115909724D01*
X137791825Y-115989100D01*
X137633075Y-115989100D01*
X137633075Y-115830350D01*
X137712450Y-115830350D01*
X137712450Y-115671600D01*
X137791825Y-115671600D01*
X137791825Y-115512850D01*
X137871200Y-115512850D01*
X137871200Y-115354099D01*
X137950575Y-115354099D01*
X137950575Y-115195350D01*
X138109325Y-115195350D01*
X138109325Y-115433475D01*
G37*
G36*
X140173075Y-114639725D02*
G01*
X140093700Y-114639725D01*
X140093700Y-114560350D01*
X140173075Y-114560350D01*
X140173075Y-114639725D01*
G37*
G36*
X137553700Y-111623475D02*
G01*
X137394950Y-111623475D01*
X137394950Y-111544100D01*
X137553700Y-111544100D01*
X137553700Y-111623475D01*
G37*
G36*
X139141200Y-111702850D02*
G01*
X139061825Y-111702850D01*
X139061825Y-111623475D01*
X139141200Y-111623475D01*
X139141200Y-111702850D01*
G37*
G36*
X141681200Y-113131600D02*
G01*
X141443075Y-113131600D01*
X141443075Y-113052225D01*
X141681200Y-113052225D01*
X141681200Y-113131600D01*
G37*
G36*
X136998075Y-112893475D02*
G01*
X136918700Y-112893475D01*
X136918700Y-112814100D01*
X136998075Y-112814100D01*
X136998075Y-112893475D01*
G37*
G36*
X136601200Y-112655350D02*
G01*
X136521825Y-112655350D01*
X136521825Y-112575975D01*
X136601200Y-112575975D01*
X136601200Y-112655350D01*
G37*
G36*
X136998075Y-113052225D02*
G01*
X136918700Y-113052225D01*
X136918700Y-112972850D01*
X136998075Y-112972850D01*
X136998075Y-113052225D01*
G37*
G36*
X139617450Y-111702850D02*
G01*
X139458700Y-111702850D01*
X139458700Y-111623475D01*
X139617450Y-111623475D01*
X139617450Y-111702850D01*
G37*
G36*
X136918700Y-113131600D02*
G01*
X136839325Y-113131600D01*
X136839325Y-113052225D01*
X136918700Y-113052225D01*
X136918700Y-113131600D01*
G37*
G36*
X139061825Y-111305975D02*
G01*
X138982450Y-111305975D01*
X138982450Y-111147225D01*
X139061825Y-111147225D01*
X139061825Y-111305975D01*
G37*
G36*
X139220575Y-111067850D02*
G01*
X139141200Y-111067850D01*
X139141200Y-110988475D01*
X139220575Y-110988475D01*
X139220575Y-111067850D01*
G37*
G36*
X139855575Y-111544100D02*
G01*
X139776200Y-111544100D01*
X139776200Y-111464725D01*
X139855575Y-111464725D01*
X139855575Y-111544100D01*
G37*
G36*
X138982450Y-110750350D02*
G01*
X138903075Y-110750350D01*
X138903075Y-110670975D01*
X138982450Y-110670975D01*
X138982450Y-110750350D01*
G37*
G36*
X138268075Y-111305975D02*
G01*
X138347450Y-111305975D01*
X138347450Y-111385350D01*
X138426825Y-111385350D01*
X138426825Y-111305975D01*
X138506200Y-111305975D01*
X138506200Y-111464725D01*
X138426825Y-111464725D01*
X138426825Y-111544100D01*
X138347450Y-111544100D01*
X138347450Y-111464725D01*
X138188700Y-111464725D01*
X138188700Y-111385350D01*
X137474325Y-111385350D01*
X137474325Y-111305975D01*
X138188700Y-111305975D01*
X138188700Y-111226600D01*
X138268075Y-111226600D01*
X138268075Y-111305975D01*
G37*
G36*
X139776200Y-114401600D02*
G01*
X139696825Y-114401600D01*
X139696825Y-114322225D01*
X139776200Y-114322225D01*
X139776200Y-114401600D01*
G37*
G36*
X139379325Y-110909100D02*
G01*
X139299950Y-110909100D01*
X139299950Y-110829725D01*
X139379325Y-110829725D01*
X139379325Y-110909100D01*
G37*
G36*
X137474325Y-111464725D02*
G01*
X137315575Y-111464725D01*
X137315575Y-111385350D01*
X137474325Y-111385350D01*
X137474325Y-111464725D01*
G37*
G36*
X138664950Y-110909100D02*
G01*
X138585575Y-110909100D01*
X138585575Y-110829725D01*
X138664950Y-110829725D01*
X138664950Y-110909100D01*
G37*
G36*
X136521825Y-113052225D02*
G01*
X136442450Y-113052225D01*
X136442450Y-112972850D01*
X136521825Y-112972850D01*
X136521825Y-113052225D01*
G37*
G36*
X137156825Y-113210975D02*
G01*
X137077450Y-113210975D01*
X137077450Y-113131600D01*
X137156825Y-113131600D01*
X137156825Y-113210975D01*
G37*
G36*
X139855575Y-114480975D02*
G01*
X139776200Y-114480975D01*
X139776200Y-114401600D01*
X139855575Y-114401600D01*
X139855575Y-114480975D01*
G37*
G36*
X142236825Y-110829725D02*
G01*
X142316200Y-110829725D01*
X142316200Y-110909100D01*
X142395575Y-110909100D01*
X142395575Y-111147225D01*
X142236825Y-111147225D01*
X142236825Y-110988475D01*
X142157449Y-110988475D01*
X142157449Y-110909100D01*
X141998700Y-110909100D01*
X141998700Y-110750350D01*
X142236825Y-110750350D01*
X142236825Y-110829725D01*
G37*
G36*
X140252450Y-111623475D02*
G01*
X140093700Y-111623475D01*
X140093700Y-111544100D01*
X140252450Y-111544100D01*
X140252450Y-111623475D01*
G37*
G36*
X136521825Y-112893475D02*
G01*
X136442450Y-112893475D01*
X136442450Y-112814100D01*
X136521825Y-112814100D01*
X136521825Y-112893475D01*
G37*
G36*
X138426825Y-110988475D02*
G01*
X138347450Y-110988475D01*
X138347450Y-110909100D01*
X138426825Y-110909100D01*
X138426825Y-110988475D01*
G37*
G36*
X139776200Y-111940975D02*
G01*
X139617450Y-111940975D01*
X139617450Y-111861600D01*
X139776200Y-111861600D01*
X139776200Y-111940975D01*
G37*
G36*
X136759950Y-112655350D02*
G01*
X136680575Y-112655350D01*
X136680575Y-112575975D01*
X136759950Y-112575975D01*
X136759950Y-112655350D01*
G37*
G36*
X141998700Y-115274725D02*
G01*
X141919325Y-115274725D01*
X141919325Y-115354099D01*
X141046200Y-115354099D01*
X141046200Y-115433475D01*
X140966824Y-115433475D01*
X140966824Y-115512850D01*
X141681200Y-115512850D01*
X141681200Y-115592225D01*
X141601824Y-115592225D01*
X141601824Y-115671600D01*
X140887450Y-115671600D01*
X140887450Y-115750975D01*
X140808075Y-115750975D01*
X140808075Y-115830350D01*
X141681200Y-115830350D01*
X141681200Y-115909724D01*
X141601824Y-115909724D01*
X141601824Y-115989100D01*
X140569950Y-115989100D01*
X140569950Y-115830350D01*
X140649325Y-115830350D01*
X140649325Y-115671600D01*
X140728700Y-115671600D01*
X140728700Y-115512850D01*
X140808075Y-115512850D01*
X140808075Y-115354099D01*
X140887450Y-115354099D01*
X140887450Y-115195350D01*
X141998700Y-115195350D01*
X141998700Y-115274725D01*
G37*
G36*
X138823700Y-110750350D02*
G01*
X138903075Y-110750350D01*
X138903075Y-110829725D01*
X138823700Y-110829725D01*
X138823700Y-110909100D01*
X138744325Y-110909100D01*
X138744325Y-110829725D01*
X138664950Y-110829725D01*
X138664950Y-110750350D01*
X138744325Y-110750350D01*
X138744325Y-110670975D01*
X138823700Y-110670975D01*
X138823700Y-110750350D01*
G37*
G36*
X141046200Y-113052225D02*
G01*
X140887450Y-113052225D01*
X140887450Y-112972850D01*
X141046200Y-112972850D01*
X141046200Y-113052225D01*
G37*
G36*
X138029950Y-111782225D02*
G01*
X138188700Y-111782225D01*
X138188700Y-111861600D01*
X138268075Y-111861600D01*
X138268075Y-112020350D01*
X138347450Y-112020350D01*
X138347450Y-112417225D01*
X138426825Y-112417225D01*
X138426825Y-112496600D01*
X137950575Y-112496600D01*
X137950575Y-112575975D01*
X137712450Y-112575975D01*
X137712450Y-112655350D01*
X137553700Y-112655350D01*
X137553700Y-112734725D01*
X137474325Y-112734725D01*
X137474325Y-112575975D01*
X137394950Y-112575975D01*
X137394950Y-112417225D01*
X137315575Y-112417225D01*
X137315575Y-112179100D01*
X137315575Y-112020350D01*
X137394950Y-112020350D01*
X137633075Y-112020350D01*
X137633075Y-112179100D01*
X137791825Y-112179100D01*
X137791825Y-112020350D01*
X137633075Y-112020350D01*
X137394950Y-112020350D01*
X137394950Y-111861600D01*
X137474325Y-111861600D01*
X137474325Y-111782225D01*
X137633075Y-111782225D01*
X137633075Y-111702850D01*
X138029950Y-111702850D01*
X138029950Y-111782225D01*
G37*
G36*
X137236200Y-113131600D02*
G01*
X137156825Y-113131600D01*
X137156825Y-113052225D01*
X137236200Y-113052225D01*
X137236200Y-113131600D01*
G37*
G36*
X137315575Y-112734725D02*
G01*
X137236200Y-112734725D01*
X137236200Y-112655350D01*
X137315575Y-112655350D01*
X137315575Y-112734725D01*
G37*
G36*
X136839325Y-112575975D02*
G01*
X136759950Y-112575975D01*
X136759950Y-112496600D01*
X136839325Y-112496600D01*
X136839325Y-112575975D01*
G37*
G36*
X136759950Y-113131600D02*
G01*
X136680575Y-113131600D01*
X136680575Y-113052225D01*
X136759950Y-113052225D01*
X136759950Y-113131600D01*
G37*
G36*
X140014325Y-111782225D02*
G01*
X139855575Y-111782225D01*
X139855575Y-111702850D01*
X140014325Y-111702850D01*
X140014325Y-111782225D01*
G37*
G36*
X139458700Y-110829725D02*
G01*
X139379325Y-110829725D01*
X139379325Y-110750350D01*
X139458700Y-110750350D01*
X139458700Y-110829725D01*
G37*
G36*
X137077450Y-113131600D02*
G01*
X136998075Y-113131600D01*
X136998075Y-113052225D01*
X137077450Y-113052225D01*
X137077450Y-113131600D01*
G37*
G36*
X136839325Y-112734725D02*
G01*
X136759950Y-112734725D01*
X136759950Y-112655350D01*
X136839325Y-112655350D01*
X136839325Y-112734725D01*
G37*
G36*
X136918700Y-112972850D02*
G01*
X136839325Y-112972850D01*
X136839325Y-112893475D01*
X136918700Y-112893475D01*
X136918700Y-112972850D01*
G37*
G36*
X139220575Y-112258475D02*
G01*
X139061825Y-112258475D01*
X139061825Y-112179100D01*
X139220575Y-112179100D01*
X139220575Y-112258475D01*
G37*
G36*
X138426825Y-110670975D02*
G01*
X138188700Y-110670975D01*
X138188700Y-110591600D01*
X138426825Y-110591600D01*
X138426825Y-110670975D01*
G37*
G36*
X138268075Y-111623475D02*
G01*
X138109325Y-111623475D01*
X138109325Y-111544100D01*
X138268075Y-111544100D01*
X138268075Y-111623475D01*
G37*
G36*
X136601200Y-112814100D02*
G01*
X136521825Y-112814100D01*
X136521825Y-112734725D01*
X136601200Y-112734725D01*
X136601200Y-112814100D01*
G37*
G36*
X137394950Y-111702850D02*
G01*
X137315575Y-111702850D01*
X137315575Y-111623475D01*
X137394950Y-111623475D01*
X137394950Y-111702850D01*
G37*
G36*
X136759950Y-112814100D02*
G01*
X136680575Y-112814100D01*
X136680575Y-112734725D01*
X136759950Y-112734725D01*
X136759950Y-112814100D01*
G37*
G36*
X139855575Y-111861600D02*
G01*
X139776200Y-111861600D01*
X139776200Y-111782225D01*
X139855575Y-111782225D01*
X139855575Y-111861600D01*
G37*
G36*
X137077450Y-112734725D02*
G01*
X137156825Y-112734725D01*
X137156825Y-112814100D01*
X137236200Y-112814100D01*
X137236200Y-112893475D01*
X137315575Y-112893475D01*
X137315575Y-112734725D01*
X137474325Y-112734725D01*
X137474325Y-112893475D01*
X137394950Y-112893475D01*
X137394950Y-113131600D01*
X137315575Y-113131600D01*
X137315575Y-113052225D01*
X137236200Y-113052225D01*
X137236200Y-112972850D01*
X137156825Y-112972850D01*
X137156825Y-112893475D01*
X137077450Y-112893475D01*
X137077450Y-112814100D01*
X136998075Y-112814100D01*
X136998075Y-112734725D01*
X136918700Y-112734725D01*
X136918700Y-112655350D01*
X136998075Y-112655350D01*
X136998075Y-112575975D01*
X137077450Y-112575975D01*
X137077450Y-112734725D01*
G37*
G36*
X138585575Y-112575975D02*
G01*
X138426825Y-112575975D01*
X138426825Y-112496600D01*
X138506200Y-112496600D01*
X138506200Y-111940975D01*
X138585575Y-111940975D01*
X138585575Y-112575975D01*
G37*
G36*
X136521825Y-112734725D02*
G01*
X136442450Y-112734725D01*
X136442450Y-112655350D01*
X136521825Y-112655350D01*
X136521825Y-112734725D01*
G37*
G36*
X139696825Y-111226600D02*
G01*
X139617450Y-111226600D01*
X139617450Y-111147225D01*
X139696825Y-111147225D01*
X139696825Y-111226600D01*
G37*
G36*
X141125575Y-113290350D02*
G01*
X140728700Y-113290350D01*
X140728700Y-113210975D01*
X141125575Y-113210975D01*
X141125575Y-113290350D01*
G37*
G36*
X139538075Y-112099725D02*
G01*
X139379325Y-112099725D01*
X139379325Y-112020350D01*
X139538075Y-112020350D01*
X139538075Y-112099725D01*
G37*
G36*
X138585575Y-111702850D02*
G01*
X138506200Y-111702850D01*
X138506200Y-111623475D01*
X138585575Y-111623475D01*
X138585575Y-111702850D01*
G37*
G36*
X136918700Y-113290350D02*
G01*
X136839325Y-113290350D01*
X136839325Y-113210975D01*
X136918700Y-113210975D01*
X136918700Y-113290350D01*
G37*
G36*
X137077450Y-112972850D02*
G01*
X136998075Y-112972850D01*
X136998075Y-112893475D01*
X137077450Y-112893475D01*
X137077450Y-112972850D01*
G37*
G36*
X139458700Y-115354099D02*
G01*
X139379325Y-115354099D01*
X139379325Y-115433475D01*
X139299950Y-115433475D01*
X139299950Y-115512850D01*
X139220575Y-115512850D01*
X139220575Y-115592225D01*
X139141200Y-115592225D01*
X139141200Y-115671600D01*
X138347450Y-115671600D01*
X138347450Y-115750975D01*
X138268075Y-115750975D01*
X138268075Y-115909724D01*
X138188700Y-115909724D01*
X138188700Y-115989100D01*
X138029950Y-115989100D01*
X138029950Y-115830350D01*
X138109325Y-115830350D01*
X138109325Y-115671600D01*
X138188700Y-115671600D01*
X138188700Y-115512850D01*
X138268075Y-115512850D01*
X138426825Y-115512850D01*
X139061825Y-115512850D01*
X139061825Y-115433475D01*
X139141200Y-115433475D01*
X139141200Y-115354099D01*
X138506200Y-115354099D01*
X138506200Y-115433475D01*
X138426825Y-115433475D01*
X138426825Y-115512850D01*
X138268075Y-115512850D01*
X138268075Y-115433475D01*
X138268075Y-115354099D01*
X138347450Y-115354099D01*
X138347450Y-115195350D01*
X139458700Y-115195350D01*
X139458700Y-115354099D01*
G37*
G36*
X139934950Y-111067850D02*
G01*
X139855575Y-111067850D01*
X139855575Y-110988475D01*
X139934950Y-110988475D01*
X139934950Y-111067850D01*
G37*
G36*
X140014325Y-111147225D02*
G01*
X139934950Y-111147225D01*
X139934950Y-111067850D01*
X140014325Y-111067850D01*
X140014325Y-111147225D01*
G37*
G36*
X138982450Y-111544100D02*
G01*
X138903075Y-111544100D01*
X138903075Y-111305975D01*
X138982450Y-111305975D01*
X138982450Y-111544100D01*
G37*
G36*
X136680575Y-113052225D02*
G01*
X136601200Y-113052225D01*
X136601200Y-112972850D01*
X136680575Y-112972850D01*
X136680575Y-113052225D01*
G37*
G36*
X139141200Y-110591600D02*
G01*
X139061825Y-110591600D01*
X139061825Y-110512225D01*
X139141200Y-110512225D01*
X139141200Y-110591600D01*
G37*
G36*
X139379325Y-111305975D02*
G01*
X139299950Y-111305975D01*
X139299950Y-111226600D01*
X139379325Y-111226600D01*
X139379325Y-111305975D01*
G37*
G36*
X136839325Y-113210975D02*
G01*
X136759950Y-113210975D01*
X136759950Y-113131600D01*
X136839325Y-113131600D01*
X136839325Y-113210975D01*
G37*
G36*
X141204950Y-113131600D02*
G01*
X141443075Y-113131600D01*
X141443075Y-113210975D01*
X141125575Y-113210975D01*
X141125575Y-113131600D01*
X141046200Y-113131600D01*
X141046200Y-113052225D01*
X141204950Y-113052225D01*
X141204950Y-113131600D01*
G37*
G36*
X139617450Y-112020350D02*
G01*
X139538075Y-112020350D01*
X139538075Y-111940975D01*
X139617450Y-111940975D01*
X139617450Y-112020350D01*
G37*
G36*
X140252450Y-114560350D02*
G01*
X140173075Y-114560350D01*
X140173075Y-114480975D01*
X140252450Y-114480975D01*
X140252450Y-114560350D01*
G37*
G36*
X139538075Y-110750350D02*
G01*
X139458700Y-110750350D01*
X139458700Y-110670975D01*
X139538075Y-110670975D01*
X139538075Y-110750350D01*
G37*
G36*
X138109325Y-111544100D02*
G01*
X137553700Y-111544100D01*
X137553700Y-111464725D01*
X138109325Y-111464725D01*
X138109325Y-111544100D01*
G37*
G36*
X137156825Y-112496600D02*
G01*
X137077450Y-112496600D01*
X137077450Y-111940975D01*
X137156825Y-111940975D01*
X137156825Y-112496600D01*
G37*
G36*
X137236200Y-112655350D02*
G01*
X137156825Y-112655350D01*
X137156825Y-112496600D01*
X137236200Y-112496600D01*
X137236200Y-112655350D01*
G37*
G36*
X136918700Y-112814100D02*
G01*
X136839325Y-112814100D01*
X136839325Y-112734725D01*
X136918700Y-112734725D01*
X136918700Y-112814100D01*
G37*
G36*
X140014325Y-111464725D02*
G01*
X139855575Y-111464725D01*
X139855575Y-111385350D01*
X140014325Y-111385350D01*
X140014325Y-111464725D01*
G37*
G36*
X136680575Y-112575975D02*
G01*
X136601200Y-112575975D01*
X136601200Y-112496600D01*
X136680575Y-112496600D01*
X136680575Y-112575975D01*
G37*
G36*
X136998075Y-112575975D02*
G01*
X136918700Y-112575975D01*
X136918700Y-112496600D01*
X136839325Y-112496600D01*
X136839325Y-112417225D01*
X136918700Y-112417225D01*
X136918700Y-111861600D01*
X136998075Y-111861600D01*
X136998075Y-112575975D01*
G37*
G36*
X136998075Y-113210975D02*
G01*
X136918700Y-113210975D01*
X136918700Y-113131600D01*
X136998075Y-113131600D01*
X136998075Y-113210975D01*
G37*
G36*
X138744325Y-110988475D02*
G01*
X138664950Y-110988475D01*
X138664950Y-110909100D01*
X138744325Y-110909100D01*
X138744325Y-110988475D01*
G37*
G36*
X139061825Y-112337850D02*
G01*
X138903075Y-112337850D01*
X138903075Y-112258475D01*
X139061825Y-112258475D01*
X139061825Y-112337850D01*
G37*
G36*
X137156825Y-113052225D02*
G01*
X137077450Y-113052225D01*
X137077450Y-112972850D01*
X137156825Y-112972850D01*
X137156825Y-113052225D01*
G37*
G36*
X138426825Y-111782225D02*
G01*
X138347450Y-111782225D01*
X138347450Y-111702850D01*
X138426825Y-111702850D01*
X138426825Y-111782225D01*
G37*
G36*
X139538075Y-111464725D02*
G01*
X139458700Y-111464725D01*
X139458700Y-111385350D01*
X139538075Y-111385350D01*
X139538075Y-111464725D01*
G37*
G36*
X138982450Y-110591600D02*
G01*
X138903075Y-110591600D01*
X138903075Y-110512225D01*
X138982450Y-110512225D01*
X138982450Y-110591600D01*
G37*
G36*
X140014325Y-114480975D02*
G01*
X139934950Y-114480975D01*
X139934950Y-114401600D01*
X140014325Y-114401600D01*
X140014325Y-114480975D01*
G37*
G36*
X138426825Y-111147225D02*
G01*
X138347450Y-111147225D01*
X138347450Y-111067850D01*
X138426825Y-111067850D01*
X138426825Y-111147225D01*
G37*
G36*
X138506200Y-111940975D02*
G01*
X138426825Y-111940975D01*
X138426825Y-111782225D01*
X138506200Y-111782225D01*
X138506200Y-111940975D01*
G37*
G36*
X136680575Y-112734725D02*
G01*
X136601200Y-112734725D01*
X136601200Y-112655350D01*
X136680575Y-112655350D01*
X136680575Y-112734725D01*
G37*
G36*
X136601200Y-112972850D02*
G01*
X136521825Y-112972850D01*
X136521825Y-112893475D01*
X136601200Y-112893475D01*
X136601200Y-112972850D01*
G37*
G36*
X136601200Y-113131600D02*
G01*
X136521825Y-113131600D01*
X136521825Y-113052225D01*
X136601200Y-113052225D01*
X136601200Y-113131600D01*
G37*
G36*
X139299950Y-110988475D02*
G01*
X139220575Y-110988475D01*
X139220575Y-110909100D01*
X139299950Y-110909100D01*
X139299950Y-110988475D01*
G37*
G36*
X137156825Y-111702850D02*
G01*
X137077450Y-111702850D01*
X137077450Y-111623475D01*
X137156825Y-111623475D01*
X137156825Y-111702850D01*
G37*
G36*
X138426825Y-111305975D02*
G01*
X138347450Y-111305975D01*
X138347450Y-111226600D01*
X138426825Y-111226600D01*
X138426825Y-111305975D01*
G37*
G36*
X137077450Y-111861600D02*
G01*
X136998075Y-111861600D01*
X136998075Y-111702850D01*
X137077450Y-111702850D01*
X137077450Y-111861600D01*
G37*
G36*
X136680575Y-113210975D02*
G01*
X136601200Y-113210975D01*
X136601200Y-113131600D01*
X136680575Y-113131600D01*
X136680575Y-113210975D01*
G37*
G36*
X138982450Y-110353475D02*
G01*
X139379325Y-110353475D01*
X139379325Y-110432850D01*
X139617450Y-110432850D01*
X139617450Y-110512225D01*
X139776200Y-110512225D01*
X139776200Y-110591600D01*
X139934950Y-110591600D01*
X139934950Y-110670975D01*
X140014325Y-110670975D01*
X140014325Y-110750350D01*
X140093700Y-110750350D01*
X140093700Y-110829725D01*
X140173075Y-110829725D01*
X140173075Y-110909100D01*
X140252450Y-110909100D01*
X140252450Y-111067850D01*
X140331825Y-111067850D01*
X140331825Y-111226600D01*
X140411199Y-111226600D01*
X140411199Y-111305975D01*
X140569950Y-111305975D01*
X140569950Y-111226600D01*
X140728700Y-111226600D01*
X140728700Y-111147225D01*
X140887450Y-111147225D01*
X140887450Y-111067850D01*
X141601824Y-111067850D01*
X141601824Y-111147225D01*
X141839950Y-111147225D01*
X141839950Y-111226600D01*
X141919325Y-111226600D01*
X141919325Y-111544100D01*
X141839950Y-111544100D01*
X141839950Y-111623475D01*
X141760575Y-111623475D01*
X141760575Y-111702850D01*
X141681200Y-111702850D01*
X141681200Y-111782225D01*
X141601824Y-111782225D01*
X141601824Y-111861600D01*
X141522449Y-111861600D01*
X141522449Y-111940975D01*
X141443075Y-111940975D01*
X141443075Y-112020350D01*
X141363700Y-112020350D01*
X141363700Y-112099725D01*
X141284325Y-112099725D01*
X141284325Y-112179100D01*
X141204950Y-112179100D01*
X141204950Y-112258475D01*
X141125575Y-112258475D01*
X141125575Y-112337850D01*
X141046200Y-112337850D01*
X141046200Y-112417225D01*
X140966824Y-112417225D01*
X140966824Y-112496600D01*
X140887450Y-112496600D01*
X140887450Y-112575975D01*
X140808075Y-112575975D01*
X140808075Y-112655350D01*
X140728700Y-112655350D01*
X140728700Y-112734725D01*
X140649325Y-112734725D01*
X140649325Y-112814100D01*
X141998700Y-112814100D01*
X141998700Y-112893475D01*
X142078074Y-112893475D01*
X142078074Y-113290350D01*
X141998700Y-113290350D01*
X141998700Y-113369725D01*
X141919325Y-113369725D01*
X141919325Y-113449100D01*
X141839950Y-113449100D01*
X141839950Y-113528475D01*
X141760575Y-113528475D01*
X141760575Y-113607850D01*
X141601824Y-113607850D01*
X141601824Y-113687225D01*
X141363700Y-113687225D01*
X141363700Y-113766600D01*
X141125575Y-113766600D01*
X141125575Y-113845975D01*
X140887450Y-113845975D01*
X140887450Y-113925350D01*
X140569950Y-113925350D01*
X140569950Y-114084100D01*
X140490575Y-114084100D01*
X140490575Y-114401600D01*
X140569950Y-114401600D01*
X140569950Y-114639725D01*
X140411199Y-114639725D01*
X140411199Y-114560350D01*
X140331825Y-114560350D01*
X140331825Y-114480975D01*
X140252450Y-114480975D01*
X140252450Y-114401600D01*
X140173075Y-114401600D01*
X140173075Y-114480975D01*
X140093700Y-114480975D01*
X140093700Y-114401600D01*
X140014325Y-114401600D01*
X140014325Y-114322225D01*
X139934950Y-114322225D01*
X139934950Y-114401600D01*
X139855575Y-114401600D01*
X139855575Y-114322225D01*
X139776200Y-114322225D01*
X139776200Y-114242850D01*
X139696825Y-114242850D01*
X139696825Y-114322225D01*
X139617450Y-114322225D01*
X139617450Y-114163475D01*
X139776200Y-114163475D01*
X139776200Y-114084100D01*
X139934950Y-114084100D01*
X139934950Y-114004725D01*
X140173075Y-114004725D01*
X140173075Y-113925350D01*
X140490575Y-113925350D01*
X140490575Y-113845975D01*
X140808075Y-113845975D01*
X140808075Y-113766600D01*
X141046200Y-113766600D01*
X141046200Y-113687225D01*
X141284325Y-113687225D01*
X141284325Y-113607850D01*
X141522449Y-113607850D01*
X141522449Y-113528475D01*
X141681200Y-113528475D01*
X141681200Y-113449100D01*
X141760575Y-113449100D01*
X141760575Y-113369725D01*
X141839950Y-113369725D01*
X141839950Y-113290350D01*
X141919325Y-113290350D01*
X141919325Y-113210975D01*
X141998700Y-113210975D01*
X141998700Y-112972850D01*
X141839950Y-112972850D01*
X141839950Y-112893475D01*
X140887450Y-112893475D01*
X140887450Y-112972850D01*
X140569950Y-112972850D01*
X140569950Y-112893475D01*
X140014325Y-112893475D01*
X140014325Y-112972850D01*
X139934950Y-112972850D01*
X139934950Y-113052225D01*
X139855575Y-113052225D01*
X139855575Y-113131600D01*
X139776200Y-113131600D01*
X139776200Y-113290350D01*
X140728700Y-113290350D01*
X140728700Y-113369725D01*
X138664950Y-113369725D01*
X138664950Y-113290350D01*
X139061825Y-113290350D01*
X139061825Y-113210975D01*
X139299950Y-113210975D01*
X139299950Y-113131600D01*
X139458700Y-113131600D01*
X139458700Y-113052225D01*
X139617450Y-113052225D01*
X139617450Y-112972850D01*
X139696825Y-112972850D01*
X139696825Y-112893475D01*
X139776200Y-112893475D01*
X139776200Y-112814100D01*
X139855575Y-112814100D01*
X139855575Y-112734725D01*
X139934950Y-112734725D01*
X139934950Y-112655350D01*
X140014325Y-112655350D01*
X140014325Y-112575975D01*
X140093700Y-112575975D01*
X140093700Y-112496600D01*
X140173075Y-112496600D01*
X140173075Y-112417225D01*
X140252450Y-112417225D01*
X140252450Y-112337850D01*
X140331825Y-112337850D01*
X140331825Y-112258475D01*
X140411199Y-112258475D01*
X140411199Y-112179100D01*
X140490575Y-112179100D01*
X140490575Y-112099725D01*
X140569950Y-112099725D01*
X140569950Y-112020350D01*
X140649325Y-112020350D01*
X140649325Y-111940975D01*
X140728700Y-111940975D01*
X140728700Y-111861600D01*
X140808075Y-111861600D01*
X140808075Y-111782225D01*
X140887450Y-111782225D01*
X140887450Y-111702850D01*
X140966824Y-111702850D01*
X140966824Y-111623475D01*
X141125575Y-111623475D01*
X141125575Y-111544100D01*
X141284325Y-111544100D01*
X141284325Y-111464725D01*
X141522449Y-111464725D01*
X141522449Y-111385350D01*
X141839950Y-111385350D01*
X141839950Y-111305975D01*
X141760575Y-111305975D01*
X141760575Y-111226600D01*
X141522449Y-111226600D01*
X141522449Y-111147225D01*
X140966824Y-111147225D01*
X140966824Y-111226600D01*
X140808075Y-111226600D01*
X140808075Y-111305975D01*
X140649325Y-111305975D01*
X140649325Y-111385350D01*
X140490575Y-111385350D01*
X140490575Y-111464725D01*
X140331825Y-111464725D01*
X140331825Y-111305975D01*
X140093700Y-111305975D01*
X140093700Y-111226600D01*
X140173075Y-111226600D01*
X140173075Y-110988475D01*
X140093700Y-110988475D01*
X140093700Y-110909100D01*
X140014325Y-110909100D01*
X140014325Y-110829725D01*
X139934950Y-110829725D01*
X139934950Y-110750350D01*
X139855575Y-110750350D01*
X139855575Y-110670975D01*
X139538075Y-110670975D01*
X139538075Y-110512225D01*
X139141200Y-110512225D01*
X139141200Y-110432850D01*
X139061825Y-110432850D01*
X139061825Y-110512225D01*
X138982450Y-110512225D01*
X138982450Y-110432850D01*
X138903075Y-110432850D01*
X138903075Y-110353475D01*
X137871200Y-110353475D01*
X137871200Y-110432850D01*
X137553700Y-110432850D01*
X137553700Y-110512225D01*
X138188700Y-110512225D01*
X138188700Y-110591600D01*
X137236200Y-110591600D01*
X137236200Y-110670975D01*
X137077450Y-110670975D01*
X137077450Y-110750350D01*
X136918700Y-110750350D01*
X136918700Y-110829725D01*
X136839325Y-110829725D01*
X136839325Y-110909100D01*
X136759950Y-110909100D01*
X136759950Y-110988475D01*
X136680575Y-110988475D01*
X136680575Y-111067850D01*
X136601200Y-111067850D01*
X136601200Y-111147225D01*
X136521825Y-111147225D01*
X136521825Y-111305975D01*
X136442450Y-111305975D01*
X136442450Y-111464725D01*
X136363075Y-111464725D01*
X136363075Y-111226600D01*
X136442450Y-111226600D01*
X136442450Y-111067850D01*
X136521825Y-111067850D01*
X136521825Y-110988475D01*
X136601200Y-110988475D01*
X136601200Y-110909100D01*
X136680575Y-110909100D01*
X136680575Y-110829725D01*
X136759950Y-110829725D01*
X136759950Y-110750350D01*
X136839325Y-110750350D01*
X136839325Y-110670975D01*
X136998075Y-110670975D01*
X136998075Y-110591600D01*
X137156825Y-110591600D01*
X137156825Y-110512225D01*
X137236200Y-110512225D01*
X137236200Y-110432850D01*
X137474325Y-110432850D01*
X137474325Y-110353475D01*
X137791825Y-110353475D01*
X137791825Y-110274100D01*
X138982450Y-110274100D01*
X138982450Y-110353475D01*
G37*
G36*
X139776200Y-110909100D02*
G01*
X139696825Y-110909100D01*
X139696825Y-110829725D01*
X139776200Y-110829725D01*
X139776200Y-110909100D01*
G37*
G36*
X138664950Y-113290350D02*
G01*
X138506200Y-113290350D01*
X138506200Y-113210975D01*
X138664950Y-113210975D01*
X138664950Y-113290350D01*
G37*
G36*
X139617450Y-111147225D02*
G01*
X139538075Y-111147225D01*
X139538075Y-111067850D01*
X139617450Y-111067850D01*
X139617450Y-111147225D01*
G37*
G36*
X139458700Y-111385350D02*
G01*
X139379325Y-111385350D01*
X139379325Y-111305975D01*
X139458700Y-111305975D01*
X139458700Y-111385350D01*
G37*
G36*
X139776200Y-111623475D02*
G01*
X139617450Y-111623475D01*
X139617450Y-111544100D01*
X139776200Y-111544100D01*
X139776200Y-111623475D01*
G37*
G36*
X137077450Y-113290350D02*
G01*
X136998075Y-113290350D01*
X136998075Y-113210975D01*
X137077450Y-113210975D01*
X137077450Y-113290350D01*
G37*
G36*
X141839950Y-113052225D02*
G01*
X141681200Y-113052225D01*
X141681200Y-112972850D01*
X141839950Y-112972850D01*
X141839950Y-113052225D01*
G37*
G36*
X139855575Y-110988475D02*
G01*
X139776200Y-110988475D01*
X139776200Y-110909100D01*
X139855575Y-110909100D01*
X139855575Y-110988475D01*
G37*
G36*
X142236825Y-110432850D02*
G01*
X142395575Y-110432850D01*
X142395575Y-110512225D01*
X142474950Y-110512225D01*
X142474950Y-110591600D01*
X142554325Y-110591600D01*
X142554325Y-110670975D01*
X142633699Y-110670975D01*
X142633699Y-110750350D01*
X142713074Y-110750350D01*
X142713074Y-110909100D01*
X142792449Y-110909100D01*
X142792449Y-111147225D01*
X142633699Y-111147225D01*
X142633699Y-110988475D01*
X142554325Y-110988475D01*
X142554325Y-110829725D01*
X142474950Y-110829725D01*
X142474950Y-110750350D01*
X142395575Y-110750350D01*
X142395575Y-110670975D01*
X142316200Y-110670975D01*
X142316200Y-110591600D01*
X142157449Y-110591600D01*
X142157449Y-110512225D01*
X141998700Y-110512225D01*
X141998700Y-110353475D01*
X142236825Y-110353475D01*
X142236825Y-110432850D01*
G37*
G36*
X140093700Y-111702850D02*
G01*
X140014325Y-111702850D01*
X140014325Y-111623475D01*
X140093700Y-111623475D01*
X140093700Y-111702850D01*
G37*
G36*
X140331825Y-111544100D02*
G01*
X140252450Y-111544100D01*
X140252450Y-111464725D01*
X140331825Y-111464725D01*
X140331825Y-111544100D01*
G37*
G36*
X138347450Y-111067850D02*
G01*
X138268075Y-111067850D01*
X138268075Y-110988475D01*
X138347450Y-110988475D01*
X138347450Y-111067850D01*
G37*
G36*
X138903075Y-110670975D02*
G01*
X138823700Y-110670975D01*
X138823700Y-110591600D01*
X138903075Y-110591600D01*
X138903075Y-110670975D01*
G37*
G36*
X136759950Y-113290350D02*
G01*
X136680575Y-113290350D01*
X136680575Y-113210975D01*
X136759950Y-113210975D01*
X136759950Y-113290350D01*
G37*
G36*
X138347450Y-111226600D02*
G01*
X138268075Y-111226600D01*
X138268075Y-111147225D01*
X138347450Y-111147225D01*
X138347450Y-111226600D01*
G37*
G36*
X136601200Y-115274725D02*
G01*
X136521825Y-115274725D01*
X136521825Y-115354099D01*
X135569325Y-115354099D01*
X135569325Y-115433475D01*
X135489950Y-115433475D01*
X135489950Y-115512850D01*
X136204325Y-115512850D01*
X136204325Y-115592225D01*
X136124950Y-115592225D01*
X136124950Y-115671600D01*
X135410575Y-115671600D01*
X135410575Y-115750975D01*
X135331200Y-115750975D01*
X135331200Y-115909724D01*
X135251825Y-115909724D01*
X135251825Y-116068475D01*
X135172450Y-116068475D01*
X135172450Y-116147850D01*
X135013700Y-116147850D01*
X135013700Y-115989100D01*
X135093075Y-115989100D01*
X135093075Y-115830350D01*
X135172450Y-115830350D01*
X135172450Y-115671600D01*
X135251825Y-115671600D01*
X135251825Y-115512850D01*
X135331200Y-115512850D01*
X135331200Y-115354099D01*
X135410575Y-115354099D01*
X135410575Y-115195350D01*
X136601200Y-115195350D01*
X136601200Y-115274725D01*
G37*
G36*
X138585575Y-110988475D02*
G01*
X138506200Y-110988475D01*
X138506200Y-110909100D01*
X138585575Y-110909100D01*
X138585575Y-110988475D01*
G37*
G36*
X138664950Y-110750350D02*
G01*
X138585575Y-110750350D01*
X138585575Y-110829725D01*
X138506200Y-110829725D01*
X138506200Y-110750350D01*
X138426825Y-110750350D01*
X138426825Y-110670975D01*
X138664950Y-110670975D01*
X138664950Y-110750350D01*
G37*
G36*
X136918700Y-115433475D02*
G01*
X136839325Y-115433475D01*
X136839325Y-115592225D01*
X136759950Y-115592225D01*
X136759950Y-115750975D01*
X136680575Y-115750975D01*
X136680575Y-115830350D01*
X137474325Y-115830350D01*
X137474325Y-115909724D01*
X137394950Y-115909724D01*
X137394950Y-115989100D01*
X136442450Y-115989100D01*
X136442450Y-115830350D01*
X136521825Y-115830350D01*
X136521825Y-115671600D01*
X136601200Y-115671600D01*
X136601200Y-115512850D01*
X136680575Y-115512850D01*
X136680575Y-115354099D01*
X136759950Y-115354099D01*
X136759950Y-115195350D01*
X136918700Y-115195350D01*
X136918700Y-115433475D01*
G37*
G36*
X140331825Y-114639725D02*
G01*
X140252450Y-114639725D01*
X140252450Y-114560350D01*
X140331825Y-114560350D01*
X140331825Y-114639725D01*
G37*
G36*
X139934950Y-114560350D02*
G01*
X139855575Y-114560350D01*
X139855575Y-114480975D01*
X139934950Y-114480975D01*
X139934950Y-114560350D01*
G37*
G36*
X136839325Y-112893475D02*
G01*
X136759950Y-112893475D01*
X136759950Y-112814100D01*
X136839325Y-112814100D01*
X136839325Y-112893475D01*
G37*
G36*
X139776200Y-111305975D02*
G01*
X139696825Y-111305975D01*
X139696825Y-111226600D01*
X139776200Y-111226600D01*
X139776200Y-111305975D01*
G37*
G36*
X137236200Y-111623475D02*
G01*
X137156825Y-111623475D01*
X137156825Y-111544100D01*
X137236200Y-111544100D01*
X137236200Y-111623475D01*
G37*
G36*
X136839325Y-113052225D02*
G01*
X136759950Y-113052225D01*
X136759950Y-112972850D01*
X136839325Y-112972850D01*
X136839325Y-113052225D01*
G37*
G36*
X143348074Y-115274725D02*
G01*
X143268699Y-115274725D01*
X143268699Y-115354099D01*
X143189325Y-115354099D01*
X143189325Y-115433475D01*
X143109950Y-115433475D01*
X143109950Y-115512850D01*
X143030575Y-115512850D01*
X143030575Y-115592225D01*
X142951200Y-115592225D01*
X142951200Y-115750975D01*
X143030575Y-115750975D01*
X143030575Y-115830350D01*
X143109950Y-115830350D01*
X143109950Y-115909724D01*
X143189325Y-115909724D01*
X143189325Y-115989100D01*
X143268699Y-115989100D01*
X143268699Y-116147850D01*
X143109950Y-116147850D01*
X143109950Y-116068475D01*
X143030575Y-116068475D01*
X143030575Y-115989100D01*
X142951200Y-115989100D01*
X142951200Y-115909724D01*
X142871825Y-115909724D01*
X142871825Y-115830350D01*
X142792449Y-115830350D01*
X142792449Y-115750975D01*
X142713074Y-115750975D01*
X142713074Y-115671600D01*
X142157449Y-115671600D01*
X142157449Y-115750975D01*
X142078074Y-115750975D01*
X142078074Y-115909724D01*
X141998700Y-115909724D01*
X141998700Y-115989100D01*
X141839950Y-115989100D01*
X141839950Y-115830350D01*
X141919325Y-115830350D01*
X141919325Y-115671600D01*
X141998700Y-115671600D01*
X141998700Y-115512850D01*
X142078074Y-115512850D01*
X142236825Y-115512850D01*
X142871825Y-115512850D01*
X142871825Y-115433475D01*
X142951200Y-115433475D01*
X142951200Y-115354099D01*
X142316200Y-115354099D01*
X142316200Y-115433475D01*
X142236825Y-115433475D01*
X142236825Y-115512850D01*
X142078074Y-115512850D01*
X142078074Y-115433475D01*
X142078074Y-115354099D01*
X142157449Y-115354099D01*
X142157449Y-115195350D01*
X143348074Y-115195350D01*
X143348074Y-115274725D01*
G37*
G36*
X138506200Y-111623475D02*
G01*
X138426825Y-111623475D01*
X138426825Y-111544100D01*
X138506200Y-111544100D01*
X138506200Y-111623475D01*
G37*
G36*
X139061825Y-111623475D02*
G01*
X138982450Y-111623475D01*
X138982450Y-111544100D01*
X139061825Y-111544100D01*
X139061825Y-111623475D01*
G37*
G36*
X137236200Y-111940975D02*
G01*
X137156825Y-111940975D01*
X137156825Y-111782225D01*
X137236200Y-111782225D01*
X137236200Y-111940975D01*
G37*
G36*
X138744325Y-112337850D02*
G01*
X138903075Y-112337850D01*
X138903075Y-112417225D01*
X138664950Y-112417225D01*
X138664950Y-111861600D01*
X138744325Y-111861600D01*
X138744325Y-112337850D01*
G37*
G36*
X139061825Y-110670975D02*
G01*
X138982450Y-110670975D01*
X138982450Y-110591600D01*
X139061825Y-110591600D01*
X139061825Y-110670975D01*
G37*
G36*
X138506200Y-110909100D02*
G01*
X138426825Y-110909100D01*
X138426825Y-110829725D01*
X138506200Y-110829725D01*
X138506200Y-110909100D01*
G37*
G36*
X138664950Y-111861600D02*
G01*
X138585575Y-111861600D01*
X138585575Y-111702850D01*
X138664950Y-111702850D01*
X138664950Y-111861600D01*
G37*
G36*
X139379325Y-112179100D02*
G01*
X139220575Y-112179100D01*
X139220575Y-112099725D01*
X139379325Y-112099725D01*
X139379325Y-112179100D01*
G37*
G36*
X136680575Y-112893475D02*
G01*
X136601200Y-112893475D01*
X136601200Y-112814100D01*
X136680575Y-112814100D01*
X136680575Y-112893475D01*
G37*
G36*
X138506200Y-113210975D02*
G01*
X138426825Y-113210975D01*
X138426825Y-113131600D01*
X138506200Y-113131600D01*
X138506200Y-113210975D01*
G37*
G36*
X136918700Y-112655350D02*
G01*
X136839325Y-112655350D01*
X136839325Y-112575975D01*
X136918700Y-112575975D01*
X136918700Y-112655350D01*
G37*
D11*
X111066666Y-109454819D02*
X111066666Y-110169104D01*
X111066666Y-110169104D02*
X111019047Y-110311961D01*
X111019047Y-110311961D02*
X110923809Y-110407200D01*
X110923809Y-110407200D02*
X110780952Y-110454819D01*
X110780952Y-110454819D02*
X110685714Y-110454819D01*
X112066666Y-110454819D02*
X111495238Y-110454819D01*
X111780952Y-110454819D02*
X111780952Y-109454819D01*
X111780952Y-109454819D02*
X111685714Y-109597676D01*
X111685714Y-109597676D02*
X111590476Y-109692914D01*
X111590476Y-109692914D02*
X111495238Y-109740533D01*
D12*
%TO.C,J1*%
X111250000Y-111670000D02*
X111250000Y-113000000D01*
X112580000Y-111670000D02*
X111250000Y-111670000D01*
X113850000Y-111670000D02*
X113850000Y-114330000D01*
X113850000Y-111670000D02*
X131690000Y-111670000D01*
X113850000Y-114330000D02*
X131690000Y-114330000D01*
X131690000Y-111670000D02*
X131690000Y-114330000D01*
X146870000Y-111670000D02*
X146870000Y-114330000D01*
X146870000Y-111670000D02*
X172330000Y-111670000D01*
X146870000Y-114330000D02*
X172330000Y-114330000D01*
X172330000Y-111670000D02*
X172330000Y-114330000D01*
D13*
%TO.C,REF\u002A\u002A*%
X115652600Y-121958752D02*
X115669948Y-121966334D01*
X115711356Y-121999128D01*
X115746765Y-122046547D01*
X115768664Y-122097151D01*
X115772229Y-122122098D01*
X115760279Y-122156927D01*
X115734067Y-122175357D01*
X115705964Y-122186516D01*
X115693095Y-122188572D01*
X115686829Y-122173649D01*
X115674456Y-122141175D01*
X115669028Y-122126502D01*
X115638590Y-122075744D01*
X115594520Y-122050427D01*
X115538010Y-122051206D01*
X115533825Y-122052203D01*
X115503655Y-122066507D01*
X115481476Y-122094393D01*
X115466327Y-122139287D01*
X115457250Y-122204615D01*
X115453286Y-122293804D01*
X115452914Y-122341261D01*
X115452730Y-122416071D01*
X115451522Y-122467069D01*
X115448309Y-122499471D01*
X115442109Y-122518495D01*
X115431940Y-122529356D01*
X115416819Y-122537272D01*
X115415946Y-122537670D01*
X115386828Y-122549981D01*
X115372403Y-122554514D01*
X115370186Y-122540809D01*
X115368289Y-122502925D01*
X115366847Y-122445715D01*
X115365998Y-122374027D01*
X115365829Y-122321565D01*
X115366692Y-122220047D01*
X115370070Y-122143032D01*
X115377142Y-122086023D01*
X115389088Y-122044526D01*
X115407090Y-122014043D01*
X115432327Y-121990080D01*
X115457247Y-121973355D01*
X115517171Y-121951097D01*
X115586911Y-121946076D01*
X115652600Y-121958752D01*
G36*
X115652600Y-121958752D02*
G01*
X115669948Y-121966334D01*
X115711356Y-121999128D01*
X115746765Y-122046547D01*
X115768664Y-122097151D01*
X115772229Y-122122098D01*
X115760279Y-122156927D01*
X115734067Y-122175357D01*
X115705964Y-122186516D01*
X115693095Y-122188572D01*
X115686829Y-122173649D01*
X115674456Y-122141175D01*
X115669028Y-122126502D01*
X115638590Y-122075744D01*
X115594520Y-122050427D01*
X115538010Y-122051206D01*
X115533825Y-122052203D01*
X115503655Y-122066507D01*
X115481476Y-122094393D01*
X115466327Y-122139287D01*
X115457250Y-122204615D01*
X115453286Y-122293804D01*
X115452914Y-122341261D01*
X115452730Y-122416071D01*
X115451522Y-122467069D01*
X115448309Y-122499471D01*
X115442109Y-122518495D01*
X115431940Y-122529356D01*
X115416819Y-122537272D01*
X115415946Y-122537670D01*
X115386828Y-122549981D01*
X115372403Y-122554514D01*
X115370186Y-122540809D01*
X115368289Y-122502925D01*
X115366847Y-122445715D01*
X115365998Y-122374027D01*
X115365829Y-122321565D01*
X115366692Y-122220047D01*
X115370070Y-122143032D01*
X115377142Y-122086023D01*
X115389088Y-122044526D01*
X115407090Y-122014043D01*
X115432327Y-121990080D01*
X115457247Y-121973355D01*
X115517171Y-121951097D01*
X115586911Y-121946076D01*
X115652600Y-121958752D01*
G37*
X111716093Y-121927780D02*
X111762672Y-121954723D01*
X111795057Y-121981466D01*
X111818742Y-122009484D01*
X111835059Y-122043748D01*
X111845339Y-122089227D01*
X111850914Y-122150892D01*
X111853116Y-122233711D01*
X111853371Y-122293246D01*
X111853371Y-122512391D01*
X111791686Y-122540044D01*
X111730000Y-122567697D01*
X111722743Y-122327670D01*
X111719744Y-122238028D01*
X111716598Y-122172962D01*
X111712701Y-122128026D01*
X111707447Y-122098770D01*
X111700231Y-122080748D01*
X111690450Y-122069511D01*
X111687312Y-122067079D01*
X111639761Y-122048083D01*
X111591697Y-122055600D01*
X111563086Y-122075543D01*
X111551447Y-122089675D01*
X111543391Y-122108220D01*
X111538271Y-122136334D01*
X111535441Y-122179173D01*
X111534256Y-122241895D01*
X111534057Y-122307261D01*
X111534018Y-122389268D01*
X111532614Y-122447316D01*
X111527914Y-122486465D01*
X111517987Y-122511780D01*
X111500903Y-122528323D01*
X111474732Y-122541156D01*
X111439775Y-122554491D01*
X111401596Y-122569007D01*
X111406141Y-122311389D01*
X111407971Y-122218519D01*
X111410112Y-122149889D01*
X111413181Y-122100711D01*
X111417794Y-122066198D01*
X111424568Y-122041562D01*
X111434119Y-122022016D01*
X111445634Y-122004770D01*
X111501190Y-121949680D01*
X111568980Y-121917822D01*
X111642713Y-121910191D01*
X111716093Y-121927780D01*
G36*
X111716093Y-121927780D02*
G01*
X111762672Y-121954723D01*
X111795057Y-121981466D01*
X111818742Y-122009484D01*
X111835059Y-122043748D01*
X111845339Y-122089227D01*
X111850914Y-122150892D01*
X111853116Y-122233711D01*
X111853371Y-122293246D01*
X111853371Y-122512391D01*
X111791686Y-122540044D01*
X111730000Y-122567697D01*
X111722743Y-122327670D01*
X111719744Y-122238028D01*
X111716598Y-122172962D01*
X111712701Y-122128026D01*
X111707447Y-122098770D01*
X111700231Y-122080748D01*
X111690450Y-122069511D01*
X111687312Y-122067079D01*
X111639761Y-122048083D01*
X111591697Y-122055600D01*
X111563086Y-122075543D01*
X111551447Y-122089675D01*
X111543391Y-122108220D01*
X111538271Y-122136334D01*
X111535441Y-122179173D01*
X111534256Y-122241895D01*
X111534057Y-122307261D01*
X111534018Y-122389268D01*
X111532614Y-122447316D01*
X111527914Y-122486465D01*
X111517987Y-122511780D01*
X111500903Y-122528323D01*
X111474732Y-122541156D01*
X111439775Y-122554491D01*
X111401596Y-122569007D01*
X111406141Y-122311389D01*
X111407971Y-122218519D01*
X111410112Y-122149889D01*
X111413181Y-122100711D01*
X111417794Y-122066198D01*
X111424568Y-122041562D01*
X111434119Y-122022016D01*
X111445634Y-122004770D01*
X111501190Y-121949680D01*
X111568980Y-121917822D01*
X111642713Y-121910191D01*
X111716093Y-121927780D01*
G37*
X113529926Y-121949755D02*
X113595858Y-121974084D01*
X113649273Y-122017117D01*
X113670164Y-122047409D01*
X113692939Y-122102994D01*
X113692466Y-122143186D01*
X113668562Y-122170217D01*
X113659717Y-122174813D01*
X113621530Y-122189144D01*
X113602028Y-122185472D01*
X113595422Y-122161407D01*
X113595086Y-122148114D01*
X113582992Y-122099210D01*
X113551471Y-122064999D01*
X113507659Y-122048476D01*
X113458695Y-122052634D01*
X113418894Y-122074227D01*
X113405450Y-122086544D01*
X113395921Y-122101487D01*
X113389485Y-122124075D01*
X113385317Y-122159328D01*
X113382597Y-122212266D01*
X113380502Y-122287907D01*
X113379960Y-122311857D01*
X113377981Y-122393790D01*
X113375731Y-122451455D01*
X113372357Y-122489608D01*
X113367006Y-122513004D01*
X113358824Y-122526398D01*
X113346959Y-122534545D01*
X113339362Y-122538144D01*
X113307102Y-122550452D01*
X113288111Y-122554514D01*
X113281836Y-122540948D01*
X113278006Y-122499934D01*
X113276600Y-122430999D01*
X113277598Y-122333669D01*
X113277908Y-122318657D01*
X113280101Y-122229859D01*
X113282693Y-122165019D01*
X113286382Y-122119067D01*
X113291864Y-122086935D01*
X113299835Y-122063553D01*
X113310993Y-122043852D01*
X113316830Y-122035410D01*
X113350296Y-121998057D01*
X113387727Y-121969003D01*
X113392309Y-121966467D01*
X113459426Y-121946443D01*
X113529926Y-121949755D01*
G36*
X113529926Y-121949755D02*
G01*
X113595858Y-121974084D01*
X113649273Y-122017117D01*
X113670164Y-122047409D01*
X113692939Y-122102994D01*
X113692466Y-122143186D01*
X113668562Y-122170217D01*
X113659717Y-122174813D01*
X113621530Y-122189144D01*
X113602028Y-122185472D01*
X113595422Y-122161407D01*
X113595086Y-122148114D01*
X113582992Y-122099210D01*
X113551471Y-122064999D01*
X113507659Y-122048476D01*
X113458695Y-122052634D01*
X113418894Y-122074227D01*
X113405450Y-122086544D01*
X113395921Y-122101487D01*
X113389485Y-122124075D01*
X113385317Y-122159328D01*
X113382597Y-122212266D01*
X113380502Y-122287907D01*
X113379960Y-122311857D01*
X113377981Y-122393790D01*
X113375731Y-122451455D01*
X113372357Y-122489608D01*
X113367006Y-122513004D01*
X113358824Y-122526398D01*
X113346959Y-122534545D01*
X113339362Y-122538144D01*
X113307102Y-122550452D01*
X113288111Y-122554514D01*
X113281836Y-122540948D01*
X113278006Y-122499934D01*
X113276600Y-122430999D01*
X113277598Y-122333669D01*
X113277908Y-122318657D01*
X113280101Y-122229859D01*
X113282693Y-122165019D01*
X113286382Y-122119067D01*
X113291864Y-122086935D01*
X113299835Y-122063553D01*
X113310993Y-122043852D01*
X113316830Y-122035410D01*
X113350296Y-121998057D01*
X113387727Y-121969003D01*
X113392309Y-121966467D01*
X113459426Y-121946443D01*
X113529926Y-121949755D01*
G37*
X112375886Y-121851289D02*
X112380139Y-121910613D01*
X112385025Y-121945572D01*
X112391795Y-121960820D01*
X112401702Y-121961015D01*
X112404914Y-121959195D01*
X112447644Y-121946015D01*
X112503227Y-121946785D01*
X112559737Y-121960333D01*
X112595082Y-121977861D01*
X112631321Y-122005861D01*
X112657813Y-122037549D01*
X112675999Y-122077813D01*
X112687322Y-122131543D01*
X112693222Y-122203626D01*
X112695143Y-122298951D01*
X112695177Y-122317237D01*
X112695200Y-122522646D01*
X112649491Y-122538580D01*
X112617027Y-122549420D01*
X112599215Y-122554468D01*
X112598691Y-122554514D01*
X112596937Y-122540828D01*
X112595444Y-122503076D01*
X112594326Y-122446224D01*
X112593697Y-122375234D01*
X112593600Y-122332073D01*
X112593398Y-122246973D01*
X112592358Y-122185981D01*
X112589831Y-122144177D01*
X112585164Y-122116642D01*
X112577707Y-122098456D01*
X112566811Y-122084698D01*
X112560007Y-122078073D01*
X112513272Y-122051375D01*
X112462272Y-122049375D01*
X112416001Y-122071955D01*
X112407444Y-122080107D01*
X112394893Y-122095436D01*
X112386188Y-122113618D01*
X112380631Y-122139909D01*
X112377526Y-122179562D01*
X112376176Y-122237832D01*
X112375886Y-122318173D01*
X112375886Y-122522646D01*
X112330177Y-122538580D01*
X112297713Y-122549420D01*
X112279901Y-122554468D01*
X112279377Y-122554514D01*
X112278037Y-122540623D01*
X112276828Y-122501439D01*
X112275801Y-122440700D01*
X112275002Y-122362141D01*
X112274481Y-122269498D01*
X112274286Y-122166509D01*
X112274286Y-121769342D01*
X112321457Y-121749444D01*
X112368629Y-121729547D01*
X112375886Y-121851289D01*
G36*
X112375886Y-121851289D02*
G01*
X112380139Y-121910613D01*
X112385025Y-121945572D01*
X112391795Y-121960820D01*
X112401702Y-121961015D01*
X112404914Y-121959195D01*
X112447644Y-121946015D01*
X112503227Y-121946785D01*
X112559737Y-121960333D01*
X112595082Y-121977861D01*
X112631321Y-122005861D01*
X112657813Y-122037549D01*
X112675999Y-122077813D01*
X112687322Y-122131543D01*
X112693222Y-122203626D01*
X112695143Y-122298951D01*
X112695177Y-122317237D01*
X112695200Y-122522646D01*
X112649491Y-122538580D01*
X112617027Y-122549420D01*
X112599215Y-122554468D01*
X112598691Y-122554514D01*
X112596937Y-122540828D01*
X112595444Y-122503076D01*
X112594326Y-122446224D01*
X112593697Y-122375234D01*
X112593600Y-122332073D01*
X112593398Y-122246973D01*
X112592358Y-122185981D01*
X112589831Y-122144177D01*
X112585164Y-122116642D01*
X112577707Y-122098456D01*
X112566811Y-122084698D01*
X112560007Y-122078073D01*
X112513272Y-122051375D01*
X112462272Y-122049375D01*
X112416001Y-122071955D01*
X112407444Y-122080107D01*
X112394893Y-122095436D01*
X112386188Y-122113618D01*
X112380631Y-122139909D01*
X112377526Y-122179562D01*
X112376176Y-122237832D01*
X112375886Y-122318173D01*
X112375886Y-122522646D01*
X112330177Y-122538580D01*
X112297713Y-122549420D01*
X112279901Y-122554468D01*
X112279377Y-122554514D01*
X112278037Y-122540623D01*
X112276828Y-122501439D01*
X112275801Y-122440700D01*
X112275002Y-122362141D01*
X112274481Y-122269498D01*
X112274286Y-122166509D01*
X112274286Y-121769342D01*
X112321457Y-121749444D01*
X112368629Y-121729547D01*
X112375886Y-121851289D01*
G37*
X114779833Y-121958663D02*
X114782048Y-121996850D01*
X114783784Y-122054886D01*
X114784899Y-122128180D01*
X114785257Y-122205055D01*
X114785257Y-122465196D01*
X114739326Y-122511127D01*
X114707675Y-122539429D01*
X114679890Y-122550893D01*
X114641915Y-122550168D01*
X114626840Y-122548321D01*
X114579726Y-122542948D01*
X114540756Y-122539869D01*
X114531257Y-122539585D01*
X114499233Y-122541445D01*
X114453432Y-122546114D01*
X114435674Y-122548321D01*
X114392057Y-122551735D01*
X114362745Y-122544320D01*
X114333680Y-122521427D01*
X114323188Y-122511127D01*
X114277257Y-122465196D01*
X114277257Y-121978602D01*
X114314226Y-121961758D01*
X114346059Y-121949282D01*
X114364683Y-121944914D01*
X114369458Y-121958718D01*
X114373921Y-121997286D01*
X114377775Y-122056356D01*
X114380722Y-122131663D01*
X114382143Y-122195286D01*
X114386114Y-122445657D01*
X114420759Y-122450556D01*
X114452268Y-122447131D01*
X114467708Y-122436041D01*
X114472023Y-122415308D01*
X114475708Y-122371145D01*
X114478469Y-122309146D01*
X114480012Y-122234909D01*
X114480235Y-122196706D01*
X114480457Y-121976783D01*
X114526166Y-121960849D01*
X114558518Y-121950015D01*
X114576115Y-121944962D01*
X114576623Y-121944914D01*
X114578388Y-121958648D01*
X114580329Y-121996730D01*
X114582282Y-122054482D01*
X114584084Y-122127227D01*
X114585343Y-122195286D01*
X114589314Y-122445657D01*
X114676400Y-122445657D01*
X114680396Y-122217240D01*
X114684392Y-121988822D01*
X114726847Y-121966868D01*
X114758192Y-121951793D01*
X114776744Y-121944951D01*
X114777279Y-121944914D01*
X114779833Y-121958663D01*
G36*
X114779833Y-121958663D02*
G01*
X114782048Y-121996850D01*
X114783784Y-122054886D01*
X114784899Y-122128180D01*
X114785257Y-122205055D01*
X114785257Y-122465196D01*
X114739326Y-122511127D01*
X114707675Y-122539429D01*
X114679890Y-122550893D01*
X114641915Y-122550168D01*
X114626840Y-122548321D01*
X114579726Y-122542948D01*
X114540756Y-122539869D01*
X114531257Y-122539585D01*
X114499233Y-122541445D01*
X114453432Y-122546114D01*
X114435674Y-122548321D01*
X114392057Y-122551735D01*
X114362745Y-122544320D01*
X114333680Y-122521427D01*
X114323188Y-122511127D01*
X114277257Y-122465196D01*
X114277257Y-121978602D01*
X114314226Y-121961758D01*
X114346059Y-121949282D01*
X114364683Y-121944914D01*
X114369458Y-121958718D01*
X114373921Y-121997286D01*
X114377775Y-122056356D01*
X114380722Y-122131663D01*
X114382143Y-122195286D01*
X114386114Y-122445657D01*
X114420759Y-122450556D01*
X114452268Y-122447131D01*
X114467708Y-122436041D01*
X114472023Y-122415308D01*
X114475708Y-122371145D01*
X114478469Y-122309146D01*
X114480012Y-122234909D01*
X114480235Y-122196706D01*
X114480457Y-121976783D01*
X114526166Y-121960849D01*
X114558518Y-121950015D01*
X114576115Y-121944962D01*
X114576623Y-121944914D01*
X114578388Y-121958648D01*
X114580329Y-121996730D01*
X114582282Y-122054482D01*
X114584084Y-122127227D01*
X114585343Y-122195286D01*
X114589314Y-122445657D01*
X114676400Y-122445657D01*
X114680396Y-122217240D01*
X114684392Y-121988822D01*
X114726847Y-121966868D01*
X114758192Y-121951793D01*
X114776744Y-121944951D01*
X114777279Y-121944914D01*
X114779833Y-121958663D01*
G37*
X110041115Y-121921962D02*
X110109145Y-121957733D01*
X110159351Y-122015301D01*
X110177185Y-122052312D01*
X110191063Y-122107882D01*
X110198167Y-122178096D01*
X110198840Y-122254727D01*
X110193427Y-122329552D01*
X110182270Y-122394342D01*
X110165714Y-122440873D01*
X110160626Y-122448887D01*
X110100355Y-122508707D01*
X110028769Y-122544535D01*
X109951092Y-122555020D01*
X109872548Y-122538810D01*
X109850689Y-122529092D01*
X109808122Y-122499143D01*
X109770763Y-122459433D01*
X109767232Y-122454397D01*
X109752881Y-122430124D01*
X109743394Y-122404178D01*
X109737790Y-122370022D01*
X109735086Y-122321119D01*
X109734299Y-122250935D01*
X109734286Y-122235200D01*
X109734322Y-122230192D01*
X109879429Y-122230192D01*
X109880273Y-122296430D01*
X109883596Y-122340386D01*
X109890583Y-122368779D01*
X109902416Y-122388325D01*
X109908457Y-122394857D01*
X109943186Y-122419680D01*
X109976903Y-122418548D01*
X110010995Y-122397016D01*
X110031329Y-122374029D01*
X110043371Y-122340478D01*
X110050134Y-122287569D01*
X110050598Y-122281399D01*
X110051752Y-122185513D01*
X110039688Y-122114299D01*
X110014570Y-122068194D01*
X109976560Y-122047635D01*
X109962992Y-122046514D01*
X109927364Y-122052152D01*
X109902994Y-122071686D01*
X109888093Y-122109042D01*
X109880875Y-122168150D01*
X109879429Y-122230192D01*
X109734322Y-122230192D01*
X109734826Y-122160413D01*
X109737096Y-122108159D01*
X109742068Y-122071949D01*
X109750713Y-122045299D01*
X109764005Y-122021722D01*
X109766943Y-122017338D01*
X109816313Y-121958249D01*
X109870109Y-121923947D01*
X109935602Y-121910331D01*
X109957842Y-121909665D01*
X110041115Y-121921962D01*
G36*
X110041115Y-121921962D02*
G01*
X110109145Y-121957733D01*
X110159351Y-122015301D01*
X110177185Y-122052312D01*
X110191063Y-122107882D01*
X110198167Y-122178096D01*
X110198840Y-122254727D01*
X110193427Y-122329552D01*
X110182270Y-122394342D01*
X110165714Y-122440873D01*
X110160626Y-122448887D01*
X110100355Y-122508707D01*
X110028769Y-122544535D01*
X109951092Y-122555020D01*
X109872548Y-122538810D01*
X109850689Y-122529092D01*
X109808122Y-122499143D01*
X109770763Y-122459433D01*
X109767232Y-122454397D01*
X109752881Y-122430124D01*
X109743394Y-122404178D01*
X109737790Y-122370022D01*
X109735086Y-122321119D01*
X109734299Y-122250935D01*
X109734286Y-122235200D01*
X109734322Y-122230192D01*
X109879429Y-122230192D01*
X109880273Y-122296430D01*
X109883596Y-122340386D01*
X109890583Y-122368779D01*
X109902416Y-122388325D01*
X109908457Y-122394857D01*
X109943186Y-122419680D01*
X109976903Y-122418548D01*
X110010995Y-122397016D01*
X110031329Y-122374029D01*
X110043371Y-122340478D01*
X110050134Y-122287569D01*
X110050598Y-122281399D01*
X110051752Y-122185513D01*
X110039688Y-122114299D01*
X110014570Y-122068194D01*
X109976560Y-122047635D01*
X109962992Y-122046514D01*
X109927364Y-122052152D01*
X109902994Y-122071686D01*
X109888093Y-122109042D01*
X109880875Y-122168150D01*
X109879429Y-122230192D01*
X109734322Y-122230192D01*
X109734826Y-122160413D01*
X109737096Y-122108159D01*
X109742068Y-122071949D01*
X109750713Y-122045299D01*
X109764005Y-122021722D01*
X109766943Y-122017338D01*
X109816313Y-121958249D01*
X109870109Y-121923947D01*
X109935602Y-121910331D01*
X109957842Y-121909665D01*
X110041115Y-121921962D01*
G37*
X116153595Y-121966966D02*
X116211021Y-122004497D01*
X116238719Y-122038096D01*
X116260662Y-122099064D01*
X116262405Y-122147308D01*
X116258457Y-122211816D01*
X116109686Y-122276934D01*
X116037349Y-122310202D01*
X115990084Y-122336964D01*
X115965507Y-122360144D01*
X115961237Y-122382667D01*
X115974889Y-122407455D01*
X115989943Y-122423886D01*
X116033746Y-122450235D01*
X116081389Y-122452081D01*
X116125145Y-122431546D01*
X116157289Y-122390752D01*
X116163038Y-122376347D01*
X116190576Y-122331356D01*
X116222258Y-122312182D01*
X116265714Y-122295779D01*
X116265714Y-122357966D01*
X116261872Y-122400283D01*
X116246823Y-122435969D01*
X116215280Y-122476943D01*
X116210592Y-122482267D01*
X116175506Y-122518720D01*
X116145347Y-122538283D01*
X116107615Y-122547283D01*
X116076335Y-122550230D01*
X116020385Y-122550965D01*
X115980555Y-122541660D01*
X115955708Y-122527846D01*
X115916656Y-122497467D01*
X115889625Y-122464613D01*
X115872517Y-122423294D01*
X115863238Y-122367521D01*
X115859693Y-122291305D01*
X115859410Y-122252622D01*
X115860372Y-122206247D01*
X115948007Y-122206247D01*
X115949023Y-122231126D01*
X115951556Y-122235200D01*
X115968274Y-122229665D01*
X116004249Y-122215017D01*
X116052331Y-122194190D01*
X116062386Y-122189714D01*
X116123152Y-122158814D01*
X116156632Y-122131657D01*
X116163990Y-122106220D01*
X116146391Y-122080481D01*
X116131856Y-122069109D01*
X116079410Y-122046364D01*
X116030322Y-122050122D01*
X115989227Y-122077884D01*
X115960758Y-122127152D01*
X115951631Y-122166257D01*
X115948007Y-122206247D01*
X115860372Y-122206247D01*
X115861285Y-122162249D01*
X115868196Y-122095384D01*
X115881884Y-122046695D01*
X115904096Y-122010849D01*
X115936574Y-121982513D01*
X115950733Y-121973355D01*
X116015053Y-121949507D01*
X116085473Y-121948006D01*
X116153595Y-121966966D01*
G36*
X116153595Y-121966966D02*
G01*
X116211021Y-122004497D01*
X116238719Y-122038096D01*
X116260662Y-122099064D01*
X116262405Y-122147308D01*
X116258457Y-122211816D01*
X116109686Y-122276934D01*
X116037349Y-122310202D01*
X115990084Y-122336964D01*
X115965507Y-122360144D01*
X115961237Y-122382667D01*
X115974889Y-122407455D01*
X115989943Y-122423886D01*
X116033746Y-122450235D01*
X116081389Y-122452081D01*
X116125145Y-122431546D01*
X116157289Y-122390752D01*
X116163038Y-122376347D01*
X116190576Y-122331356D01*
X116222258Y-122312182D01*
X116265714Y-122295779D01*
X116265714Y-122357966D01*
X116261872Y-122400283D01*
X116246823Y-122435969D01*
X116215280Y-122476943D01*
X116210592Y-122482267D01*
X116175506Y-122518720D01*
X116145347Y-122538283D01*
X116107615Y-122547283D01*
X116076335Y-122550230D01*
X116020385Y-122550965D01*
X115980555Y-122541660D01*
X115955708Y-122527846D01*
X115916656Y-122497467D01*
X115889625Y-122464613D01*
X115872517Y-122423294D01*
X115863238Y-122367521D01*
X115859693Y-122291305D01*
X115859410Y-122252622D01*
X115860372Y-122206247D01*
X115948007Y-122206247D01*
X115949023Y-122231126D01*
X115951556Y-122235200D01*
X115968274Y-122229665D01*
X116004249Y-122215017D01*
X116052331Y-122194190D01*
X116062386Y-122189714D01*
X116123152Y-122158814D01*
X116156632Y-122131657D01*
X116163990Y-122106220D01*
X116146391Y-122080481D01*
X116131856Y-122069109D01*
X116079410Y-122046364D01*
X116030322Y-122050122D01*
X115989227Y-122077884D01*
X115960758Y-122127152D01*
X115951631Y-122166257D01*
X115948007Y-122206247D01*
X115860372Y-122206247D01*
X115861285Y-122162249D01*
X115868196Y-122095384D01*
X115881884Y-122046695D01*
X115904096Y-122010849D01*
X115936574Y-121982513D01*
X115950733Y-121973355D01*
X116015053Y-121949507D01*
X116085473Y-121948006D01*
X116153595Y-121966966D01*
G37*
X114190117Y-122065358D02*
X114189933Y-122173837D01*
X114189219Y-122257287D01*
X114187675Y-122319704D01*
X114185001Y-122365085D01*
X114180894Y-122397429D01*
X114175055Y-122420733D01*
X114167182Y-122438995D01*
X114161221Y-122449418D01*
X114111855Y-122505945D01*
X114049264Y-122541377D01*
X113980013Y-122554090D01*
X113910668Y-122542463D01*
X113869375Y-122521568D01*
X113826025Y-122485422D01*
X113796481Y-122441276D01*
X113778655Y-122383462D01*
X113770463Y-122306313D01*
X113769302Y-122249714D01*
X113769458Y-122245647D01*
X113870857Y-122245647D01*
X113871476Y-122310550D01*
X113874314Y-122353514D01*
X113880840Y-122381622D01*
X113892523Y-122401953D01*
X113906483Y-122417288D01*
X113953365Y-122446890D01*
X114003701Y-122449419D01*
X114051276Y-122424705D01*
X114054979Y-122421356D01*
X114070783Y-122403935D01*
X114080693Y-122383209D01*
X114086058Y-122352362D01*
X114088228Y-122304577D01*
X114088571Y-122251748D01*
X114087827Y-122185381D01*
X114084748Y-122141106D01*
X114078061Y-122112009D01*
X114066496Y-122091173D01*
X114057013Y-122080107D01*
X114012960Y-122052198D01*
X113962224Y-122048843D01*
X113913796Y-122070159D01*
X113904450Y-122078073D01*
X113888540Y-122095647D01*
X113878610Y-122116587D01*
X113873278Y-122147782D01*
X113871163Y-122196122D01*
X113870857Y-122245647D01*
X113769458Y-122245647D01*
X113772810Y-122158568D01*
X113784726Y-122090086D01*
X113807135Y-122038600D01*
X113842124Y-121998443D01*
X113869375Y-121977861D01*
X113918907Y-121955625D01*
X113976316Y-121945304D01*
X114029682Y-121948067D01*
X114059543Y-121959212D01*
X114071261Y-121962383D01*
X114079037Y-121950557D01*
X114084465Y-121918866D01*
X114088571Y-121870593D01*
X114093067Y-121816829D01*
X114099313Y-121784482D01*
X114110676Y-121765985D01*
X114130528Y-121753770D01*
X114143000Y-121748362D01*
X114190171Y-121728601D01*
X114190117Y-122065358D01*
G36*
X114190117Y-122065358D02*
G01*
X114189933Y-122173837D01*
X114189219Y-122257287D01*
X114187675Y-122319704D01*
X114185001Y-122365085D01*
X114180894Y-122397429D01*
X114175055Y-122420733D01*
X114167182Y-122438995D01*
X114161221Y-122449418D01*
X114111855Y-122505945D01*
X114049264Y-122541377D01*
X113980013Y-122554090D01*
X113910668Y-122542463D01*
X113869375Y-122521568D01*
X113826025Y-122485422D01*
X113796481Y-122441276D01*
X113778655Y-122383462D01*
X113770463Y-122306313D01*
X113769302Y-122249714D01*
X113769458Y-122245647D01*
X113870857Y-122245647D01*
X113871476Y-122310550D01*
X113874314Y-122353514D01*
X113880840Y-122381622D01*
X113892523Y-122401953D01*
X113906483Y-122417288D01*
X113953365Y-122446890D01*
X114003701Y-122449419D01*
X114051276Y-122424705D01*
X114054979Y-122421356D01*
X114070783Y-122403935D01*
X114080693Y-122383209D01*
X114086058Y-122352362D01*
X114088228Y-122304577D01*
X114088571Y-122251748D01*
X114087827Y-122185381D01*
X114084748Y-122141106D01*
X114078061Y-122112009D01*
X114066496Y-122091173D01*
X114057013Y-122080107D01*
X114012960Y-122052198D01*
X113962224Y-122048843D01*
X113913796Y-122070159D01*
X113904450Y-122078073D01*
X113888540Y-122095647D01*
X113878610Y-122116587D01*
X113873278Y-122147782D01*
X113871163Y-122196122D01*
X113870857Y-122245647D01*
X113769458Y-122245647D01*
X113772810Y-122158568D01*
X113784726Y-122090086D01*
X113807135Y-122038600D01*
X113842124Y-121998443D01*
X113869375Y-121977861D01*
X113918907Y-121955625D01*
X113976316Y-121945304D01*
X114029682Y-121948067D01*
X114059543Y-121959212D01*
X114071261Y-121962383D01*
X114079037Y-121950557D01*
X114084465Y-121918866D01*
X114088571Y-121870593D01*
X114093067Y-121816829D01*
X114099313Y-121784482D01*
X114110676Y-121765985D01*
X114130528Y-121753770D01*
X114143000Y-121748362D01*
X114190171Y-121728601D01*
X114190117Y-122065358D01*
G37*
X111168303Y-121931239D02*
X111225527Y-121969735D01*
X111269749Y-122025335D01*
X111296167Y-122096086D01*
X111301510Y-122148162D01*
X111300903Y-122169893D01*
X111295822Y-122186531D01*
X111281855Y-122201437D01*
X111254589Y-122217973D01*
X111209612Y-122239498D01*
X111142511Y-122269374D01*
X111142171Y-122269524D01*
X111080407Y-122297813D01*
X111029759Y-122322933D01*
X110995404Y-122342179D01*
X110982518Y-122352848D01*
X110982514Y-122352934D01*
X110993872Y-122376166D01*
X111020431Y-122401774D01*
X111050923Y-122420221D01*
X111066370Y-122423886D01*
X111108515Y-122411212D01*
X111144808Y-122379471D01*
X111162517Y-122344572D01*
X111179552Y-122318845D01*
X111212922Y-122289546D01*
X111252149Y-122264235D01*
X111286756Y-122250471D01*
X111293993Y-122249714D01*
X111302139Y-122262160D01*
X111302630Y-122293972D01*
X111296643Y-122336866D01*
X111285357Y-122382558D01*
X111269950Y-122422761D01*
X111269171Y-122424322D01*
X111222804Y-122489062D01*
X111162711Y-122533097D01*
X111094465Y-122554711D01*
X111023638Y-122552185D01*
X110955804Y-122523804D01*
X110952788Y-122521808D01*
X110899427Y-122473448D01*
X110864340Y-122410352D01*
X110844922Y-122327387D01*
X110842316Y-122304078D01*
X110837701Y-122194055D01*
X110843233Y-122142748D01*
X110982514Y-122142748D01*
X110984324Y-122174753D01*
X110994222Y-122184093D01*
X111018898Y-122177105D01*
X111057795Y-122160587D01*
X111101275Y-122139881D01*
X111102356Y-122139333D01*
X111139209Y-122119949D01*
X111154000Y-122107013D01*
X111150353Y-122093451D01*
X111134995Y-122075632D01*
X111095923Y-122049845D01*
X111053846Y-122047950D01*
X111016103Y-122066717D01*
X110990034Y-122102915D01*
X110982514Y-122142748D01*
X110843233Y-122142748D01*
X110847194Y-122106027D01*
X110871550Y-122036212D01*
X110905456Y-121987302D01*
X110966653Y-121937878D01*
X111034063Y-121913359D01*
X111102880Y-121911797D01*
X111168303Y-121931239D01*
G36*
X111168303Y-121931239D02*
G01*
X111225527Y-121969735D01*
X111269749Y-122025335D01*
X111296167Y-122096086D01*
X111301510Y-122148162D01*
X111300903Y-122169893D01*
X111295822Y-122186531D01*
X111281855Y-122201437D01*
X111254589Y-122217973D01*
X111209612Y-122239498D01*
X111142511Y-122269374D01*
X111142171Y-122269524D01*
X111080407Y-122297813D01*
X111029759Y-122322933D01*
X110995404Y-122342179D01*
X110982518Y-122352848D01*
X110982514Y-122352934D01*
X110993872Y-122376166D01*
X111020431Y-122401774D01*
X111050923Y-122420221D01*
X111066370Y-122423886D01*
X111108515Y-122411212D01*
X111144808Y-122379471D01*
X111162517Y-122344572D01*
X111179552Y-122318845D01*
X111212922Y-122289546D01*
X111252149Y-122264235D01*
X111286756Y-122250471D01*
X111293993Y-122249714D01*
X111302139Y-122262160D01*
X111302630Y-122293972D01*
X111296643Y-122336866D01*
X111285357Y-122382558D01*
X111269950Y-122422761D01*
X111269171Y-122424322D01*
X111222804Y-122489062D01*
X111162711Y-122533097D01*
X111094465Y-122554711D01*
X111023638Y-122552185D01*
X110955804Y-122523804D01*
X110952788Y-122521808D01*
X110899427Y-122473448D01*
X110864340Y-122410352D01*
X110844922Y-122327387D01*
X110842316Y-122304078D01*
X110837701Y-122194055D01*
X110843233Y-122142748D01*
X110982514Y-122142748D01*
X110984324Y-122174753D01*
X110994222Y-122184093D01*
X111018898Y-122177105D01*
X111057795Y-122160587D01*
X111101275Y-122139881D01*
X111102356Y-122139333D01*
X111139209Y-122119949D01*
X111154000Y-122107013D01*
X111150353Y-122093451D01*
X111134995Y-122075632D01*
X111095923Y-122049845D01*
X111053846Y-122047950D01*
X111016103Y-122066717D01*
X110990034Y-122102915D01*
X110982514Y-122142748D01*
X110843233Y-122142748D01*
X110847194Y-122106027D01*
X110871550Y-122036212D01*
X110905456Y-121987302D01*
X110966653Y-121937878D01*
X111034063Y-121913359D01*
X111102880Y-121911797D01*
X111168303Y-121931239D01*
G37*
X113039744Y-121950968D02*
X113096616Y-121972087D01*
X113097267Y-121972493D01*
X113132440Y-121998380D01*
X113158407Y-122028633D01*
X113176670Y-122068058D01*
X113188732Y-122121462D01*
X113196096Y-122193651D01*
X113200264Y-122289432D01*
X113200629Y-122303078D01*
X113205876Y-122508842D01*
X113161716Y-122531678D01*
X113129763Y-122547110D01*
X113110470Y-122554423D01*
X113109578Y-122554514D01*
X113106239Y-122541022D01*
X113103587Y-122504626D01*
X113101956Y-122451452D01*
X113101600Y-122408393D01*
X113101592Y-122338641D01*
X113098403Y-122294837D01*
X113087288Y-122273944D01*
X113063501Y-122272925D01*
X113022296Y-122288741D01*
X112960086Y-122317815D01*
X112914341Y-122341963D01*
X112890813Y-122362913D01*
X112883896Y-122385747D01*
X112883886Y-122386877D01*
X112895299Y-122426212D01*
X112929092Y-122447462D01*
X112980809Y-122450539D01*
X113018061Y-122450006D01*
X113037703Y-122460735D01*
X113049952Y-122486505D01*
X113057002Y-122519337D01*
X113046842Y-122537966D01*
X113043017Y-122540632D01*
X113007001Y-122551340D01*
X112956566Y-122552856D01*
X112904626Y-122545759D01*
X112867822Y-122532788D01*
X112816938Y-122489585D01*
X112788014Y-122429446D01*
X112782286Y-122382462D01*
X112786657Y-122340082D01*
X112802475Y-122305488D01*
X112833797Y-122274763D01*
X112884678Y-122243990D01*
X112959176Y-122209252D01*
X112963714Y-122207288D01*
X113030821Y-122176287D01*
X113072232Y-122150862D01*
X113089981Y-122128014D01*
X113086107Y-122104745D01*
X113062643Y-122078056D01*
X113055627Y-122071914D01*
X113008630Y-122048100D01*
X112959933Y-122049103D01*
X112917522Y-122072451D01*
X112889384Y-122115675D01*
X112886769Y-122124160D01*
X112861308Y-122165308D01*
X112829001Y-122185128D01*
X112782286Y-122204770D01*
X112782286Y-122153950D01*
X112796496Y-122080082D01*
X112838675Y-122012327D01*
X112860624Y-121989661D01*
X112910517Y-121960569D01*
X112973967Y-121947400D01*
X113039744Y-121950968D01*
G36*
X113039744Y-121950968D02*
G01*
X113096616Y-121972087D01*
X113097267Y-121972493D01*
X113132440Y-121998380D01*
X113158407Y-122028633D01*
X113176670Y-122068058D01*
X113188732Y-122121462D01*
X113196096Y-122193651D01*
X113200264Y-122289432D01*
X113200629Y-122303078D01*
X113205876Y-122508842D01*
X113161716Y-122531678D01*
X113129763Y-122547110D01*
X113110470Y-122554423D01*
X113109578Y-122554514D01*
X113106239Y-122541022D01*
X113103587Y-122504626D01*
X113101956Y-122451452D01*
X113101600Y-122408393D01*
X113101592Y-122338641D01*
X113098403Y-122294837D01*
X113087288Y-122273944D01*
X113063501Y-122272925D01*
X113022296Y-122288741D01*
X112960086Y-122317815D01*
X112914341Y-122341963D01*
X112890813Y-122362913D01*
X112883896Y-122385747D01*
X112883886Y-122386877D01*
X112895299Y-122426212D01*
X112929092Y-122447462D01*
X112980809Y-122450539D01*
X113018061Y-122450006D01*
X113037703Y-122460735D01*
X113049952Y-122486505D01*
X113057002Y-122519337D01*
X113046842Y-122537966D01*
X113043017Y-122540632D01*
X113007001Y-122551340D01*
X112956566Y-122552856D01*
X112904626Y-122545759D01*
X112867822Y-122532788D01*
X112816938Y-122489585D01*
X112788014Y-122429446D01*
X112782286Y-122382462D01*
X112786657Y-122340082D01*
X112802475Y-122305488D01*
X112833797Y-122274763D01*
X112884678Y-122243990D01*
X112959176Y-122209252D01*
X112963714Y-122207288D01*
X113030821Y-122176287D01*
X113072232Y-122150862D01*
X113089981Y-122128014D01*
X113086107Y-122104745D01*
X113062643Y-122078056D01*
X113055627Y-122071914D01*
X113008630Y-122048100D01*
X112959933Y-122049103D01*
X112917522Y-122072451D01*
X112889384Y-122115675D01*
X112886769Y-122124160D01*
X112861308Y-122165308D01*
X112829001Y-122185128D01*
X112782286Y-122204770D01*
X112782286Y-122153950D01*
X112796496Y-122080082D01*
X112838675Y-122012327D01*
X112860624Y-121989661D01*
X112910517Y-121960569D01*
X112973967Y-121947400D01*
X113039744Y-121950968D01*
G37*
X110599744Y-121919918D02*
X110655201Y-121947568D01*
X110704148Y-121998480D01*
X110717629Y-122017338D01*
X110732314Y-122042015D01*
X110741842Y-122068816D01*
X110747293Y-122104587D01*
X110749747Y-122156169D01*
X110750286Y-122224267D01*
X110747852Y-122317588D01*
X110739394Y-122387657D01*
X110723174Y-122439931D01*
X110697454Y-122479869D01*
X110660497Y-122512929D01*
X110657782Y-122514886D01*
X110621360Y-122534908D01*
X110577502Y-122544815D01*
X110521724Y-122547257D01*
X110431048Y-122547257D01*
X110431010Y-122635283D01*
X110430166Y-122684308D01*
X110425024Y-122713065D01*
X110411587Y-122730311D01*
X110385858Y-122744808D01*
X110379679Y-122747769D01*
X110350764Y-122761648D01*
X110328376Y-122770414D01*
X110311729Y-122771171D01*
X110300036Y-122761023D01*
X110292510Y-122737073D01*
X110288366Y-122696426D01*
X110286815Y-122636186D01*
X110287071Y-122553455D01*
X110288349Y-122445339D01*
X110288748Y-122413000D01*
X110290185Y-122301524D01*
X110291472Y-122228603D01*
X110430971Y-122228603D01*
X110431755Y-122290499D01*
X110435240Y-122330997D01*
X110443124Y-122357708D01*
X110457105Y-122378244D01*
X110466597Y-122388260D01*
X110505404Y-122417567D01*
X110539763Y-122419952D01*
X110575216Y-122395750D01*
X110576114Y-122394857D01*
X110590539Y-122376153D01*
X110599313Y-122350732D01*
X110603739Y-122311584D01*
X110605118Y-122251697D01*
X110605143Y-122238430D01*
X110601812Y-122155901D01*
X110590969Y-122098691D01*
X110571340Y-122063766D01*
X110541650Y-122048094D01*
X110524491Y-122046514D01*
X110483766Y-122053926D01*
X110455832Y-122078330D01*
X110439017Y-122122980D01*
X110431650Y-122191130D01*
X110430971Y-122228603D01*
X110291472Y-122228603D01*
X110291708Y-122215245D01*
X110293677Y-122150333D01*
X110296450Y-122102958D01*
X110300388Y-122069290D01*
X110305849Y-122045498D01*
X110313192Y-122027753D01*
X110322777Y-122012224D01*
X110326887Y-122006381D01*
X110381405Y-121951185D01*
X110450336Y-121919890D01*
X110530072Y-121911165D01*
X110599744Y-121919918D01*
G36*
X110599744Y-121919918D02*
G01*
X110655201Y-121947568D01*
X110704148Y-121998480D01*
X110717629Y-122017338D01*
X110732314Y-122042015D01*
X110741842Y-122068816D01*
X110747293Y-122104587D01*
X110749747Y-122156169D01*
X110750286Y-122224267D01*
X110747852Y-122317588D01*
X110739394Y-122387657D01*
X110723174Y-122439931D01*
X110697454Y-122479869D01*
X110660497Y-122512929D01*
X110657782Y-122514886D01*
X110621360Y-122534908D01*
X110577502Y-122544815D01*
X110521724Y-122547257D01*
X110431048Y-122547257D01*
X110431010Y-122635283D01*
X110430166Y-122684308D01*
X110425024Y-122713065D01*
X110411587Y-122730311D01*
X110385858Y-122744808D01*
X110379679Y-122747769D01*
X110350764Y-122761648D01*
X110328376Y-122770414D01*
X110311729Y-122771171D01*
X110300036Y-122761023D01*
X110292510Y-122737073D01*
X110288366Y-122696426D01*
X110286815Y-122636186D01*
X110287071Y-122553455D01*
X110288349Y-122445339D01*
X110288748Y-122413000D01*
X110290185Y-122301524D01*
X110291472Y-122228603D01*
X110430971Y-122228603D01*
X110431755Y-122290499D01*
X110435240Y-122330997D01*
X110443124Y-122357708D01*
X110457105Y-122378244D01*
X110466597Y-122388260D01*
X110505404Y-122417567D01*
X110539763Y-122419952D01*
X110575216Y-122395750D01*
X110576114Y-122394857D01*
X110590539Y-122376153D01*
X110599313Y-122350732D01*
X110603739Y-122311584D01*
X110605118Y-122251697D01*
X110605143Y-122238430D01*
X110601812Y-122155901D01*
X110590969Y-122098691D01*
X110571340Y-122063766D01*
X110541650Y-122048094D01*
X110524491Y-122046514D01*
X110483766Y-122053926D01*
X110455832Y-122078330D01*
X110439017Y-122122980D01*
X110431650Y-122191130D01*
X110430971Y-122228603D01*
X110291472Y-122228603D01*
X110291708Y-122215245D01*
X110293677Y-122150333D01*
X110296450Y-122102958D01*
X110300388Y-122069290D01*
X110305849Y-122045498D01*
X110313192Y-122027753D01*
X110322777Y-122012224D01*
X110326887Y-122006381D01*
X110381405Y-121951185D01*
X110450336Y-121919890D01*
X110530072Y-121911165D01*
X110599744Y-121919918D01*
G37*
X115144876Y-121956335D02*
X115186667Y-121975344D01*
X115219469Y-121998378D01*
X115243503Y-122024133D01*
X115260097Y-122057358D01*
X115270577Y-122102800D01*
X115276271Y-122165207D01*
X115278507Y-122249327D01*
X115278743Y-122304721D01*
X115278743Y-122520826D01*
X115241774Y-122537670D01*
X115212656Y-122549981D01*
X115198231Y-122554514D01*
X115195472Y-122541025D01*
X115193282Y-122504653D01*
X115191942Y-122451542D01*
X115191657Y-122409372D01*
X115190434Y-122348447D01*
X115187136Y-122300115D01*
X115182321Y-122270518D01*
X115178496Y-122264229D01*
X115152783Y-122270652D01*
X115112418Y-122287125D01*
X115065679Y-122309458D01*
X115020845Y-122333457D01*
X114986193Y-122354930D01*
X114970002Y-122369685D01*
X114969938Y-122369845D01*
X114971330Y-122397152D01*
X114983818Y-122423219D01*
X115005743Y-122444392D01*
X115037743Y-122451474D01*
X115065092Y-122450649D01*
X115103826Y-122450042D01*
X115124158Y-122459116D01*
X115136369Y-122483092D01*
X115137909Y-122487613D01*
X115143203Y-122521806D01*
X115129047Y-122542568D01*
X115092148Y-122552462D01*
X115052289Y-122554292D01*
X114980562Y-122540727D01*
X114943432Y-122521355D01*
X114897576Y-122475845D01*
X114873256Y-122419983D01*
X114871073Y-122360957D01*
X114891629Y-122305953D01*
X114922549Y-122271486D01*
X114953420Y-122252189D01*
X115001942Y-122227759D01*
X115058485Y-122202985D01*
X115067910Y-122199199D01*
X115130019Y-122171791D01*
X115165822Y-122147634D01*
X115177337Y-122123619D01*
X115166580Y-122096635D01*
X115148114Y-122075543D01*
X115104469Y-122049572D01*
X115056446Y-122047624D01*
X115012406Y-122067637D01*
X114980709Y-122107551D01*
X114976549Y-122117848D01*
X114952327Y-122155724D01*
X114916965Y-122183842D01*
X114872343Y-122206917D01*
X114872343Y-122141485D01*
X114874969Y-122101506D01*
X114886230Y-122069997D01*
X114911199Y-122036378D01*
X114935169Y-122010484D01*
X114972441Y-121973817D01*
X115001401Y-121954121D01*
X115032505Y-121946220D01*
X115067713Y-121944914D01*
X115144876Y-121956335D01*
G36*
X115144876Y-121956335D02*
G01*
X115186667Y-121975344D01*
X115219469Y-121998378D01*
X115243503Y-122024133D01*
X115260097Y-122057358D01*
X115270577Y-122102800D01*
X115276271Y-122165207D01*
X115278507Y-122249327D01*
X115278743Y-122304721D01*
X115278743Y-122520826D01*
X115241774Y-122537670D01*
X115212656Y-122549981D01*
X115198231Y-122554514D01*
X115195472Y-122541025D01*
X115193282Y-122504653D01*
X115191942Y-122451542D01*
X115191657Y-122409372D01*
X115190434Y-122348447D01*
X115187136Y-122300115D01*
X115182321Y-122270518D01*
X115178496Y-122264229D01*
X115152783Y-122270652D01*
X115112418Y-122287125D01*
X115065679Y-122309458D01*
X115020845Y-122333457D01*
X114986193Y-122354930D01*
X114970002Y-122369685D01*
X114969938Y-122369845D01*
X114971330Y-122397152D01*
X114983818Y-122423219D01*
X115005743Y-122444392D01*
X115037743Y-122451474D01*
X115065092Y-122450649D01*
X115103826Y-122450042D01*
X115124158Y-122459116D01*
X115136369Y-122483092D01*
X115137909Y-122487613D01*
X115143203Y-122521806D01*
X115129047Y-122542568D01*
X115092148Y-122552462D01*
X115052289Y-122554292D01*
X114980562Y-122540727D01*
X114943432Y-122521355D01*
X114897576Y-122475845D01*
X114873256Y-122419983D01*
X114871073Y-122360957D01*
X114891629Y-122305953D01*
X114922549Y-122271486D01*
X114953420Y-122252189D01*
X115001942Y-122227759D01*
X115058485Y-122202985D01*
X115067910Y-122199199D01*
X115130019Y-122171791D01*
X115165822Y-122147634D01*
X115177337Y-122123619D01*
X115166580Y-122096635D01*
X115148114Y-122075543D01*
X115104469Y-122049572D01*
X115056446Y-122047624D01*
X115012406Y-122067637D01*
X114980709Y-122107551D01*
X114976549Y-122117848D01*
X114952327Y-122155724D01*
X114916965Y-122183842D01*
X114872343Y-122206917D01*
X114872343Y-122141485D01*
X114874969Y-122101506D01*
X114886230Y-122069997D01*
X114911199Y-122036378D01*
X114935169Y-122010484D01*
X114972441Y-121973817D01*
X115001401Y-121954121D01*
X115032505Y-121946220D01*
X115067713Y-121944914D01*
X115144876Y-121956335D01*
G37*
X113103910Y-117242348D02*
X113182454Y-117242778D01*
X113239298Y-117243942D01*
X113278105Y-117246207D01*
X113302538Y-117249940D01*
X113316262Y-117255506D01*
X113322940Y-117263273D01*
X113326236Y-117273605D01*
X113326556Y-117274943D01*
X113331562Y-117299079D01*
X113340829Y-117346701D01*
X113353392Y-117412741D01*
X113368287Y-117492128D01*
X113384551Y-117579796D01*
X113385119Y-117582875D01*
X113401410Y-117668789D01*
X113416652Y-117744696D01*
X113429861Y-117806045D01*
X113440054Y-117848282D01*
X113446248Y-117866855D01*
X113446543Y-117867184D01*
X113464788Y-117876253D01*
X113502405Y-117891367D01*
X113551271Y-117909262D01*
X113551543Y-117909358D01*
X113613093Y-117932493D01*
X113685657Y-117961965D01*
X113754057Y-117991597D01*
X113757294Y-117993062D01*
X113868702Y-118043626D01*
X114115399Y-117875160D01*
X114191077Y-117823803D01*
X114259631Y-117777889D01*
X114317088Y-117740030D01*
X114359476Y-117712837D01*
X114382825Y-117698921D01*
X114385042Y-117697889D01*
X114402010Y-117702484D01*
X114433701Y-117724655D01*
X114481352Y-117765447D01*
X114546198Y-117825905D01*
X114612397Y-117890227D01*
X114676214Y-117953612D01*
X114733329Y-118011451D01*
X114780305Y-118060175D01*
X114813703Y-118096210D01*
X114830085Y-118115984D01*
X114830694Y-118117002D01*
X114832505Y-118130572D01*
X114825683Y-118152733D01*
X114808540Y-118186478D01*
X114779393Y-118234800D01*
X114736555Y-118300692D01*
X114679448Y-118385517D01*
X114628766Y-118460177D01*
X114583461Y-118527140D01*
X114546150Y-118582516D01*
X114519452Y-118622420D01*
X114505985Y-118642962D01*
X114505137Y-118644356D01*
X114506781Y-118664038D01*
X114519245Y-118702293D01*
X114540048Y-118751889D01*
X114547462Y-118767728D01*
X114579814Y-118838290D01*
X114614328Y-118918353D01*
X114642365Y-118987629D01*
X114662568Y-119039045D01*
X114678615Y-119078119D01*
X114687888Y-119098541D01*
X114689041Y-119100114D01*
X114706096Y-119102721D01*
X114746298Y-119109863D01*
X114804302Y-119120523D01*
X114874763Y-119133685D01*
X114952335Y-119148333D01*
X115031672Y-119163449D01*
X115107431Y-119178018D01*
X115174264Y-119191022D01*
X115226828Y-119201445D01*
X115259776Y-119208270D01*
X115267857Y-119210199D01*
X115276205Y-119214962D01*
X115282506Y-119225718D01*
X115287045Y-119246098D01*
X115290104Y-119279734D01*
X115291967Y-119330255D01*
X115292918Y-119401292D01*
X115293240Y-119496476D01*
X115293257Y-119535492D01*
X115293257Y-119852799D01*
X115217057Y-119867839D01*
X115174663Y-119875995D01*
X115111400Y-119887899D01*
X115034962Y-119902116D01*
X114953043Y-119917210D01*
X114930400Y-119921355D01*
X114854806Y-119936053D01*
X114788953Y-119950505D01*
X114738366Y-119963375D01*
X114708574Y-119973322D01*
X114703612Y-119976287D01*
X114691426Y-119997283D01*
X114673953Y-120037967D01*
X114654577Y-120090322D01*
X114650734Y-120101600D01*
X114625339Y-120171523D01*
X114593817Y-120250418D01*
X114562969Y-120321266D01*
X114562817Y-120321595D01*
X114511447Y-120432733D01*
X114680399Y-120681253D01*
X114849352Y-120929772D01*
X114632429Y-121147058D01*
X114566819Y-121211726D01*
X114506979Y-121268733D01*
X114456267Y-121315033D01*
X114418046Y-121347584D01*
X114395675Y-121363343D01*
X114392466Y-121364343D01*
X114373626Y-121356469D01*
X114335180Y-121334578D01*
X114281330Y-121301267D01*
X114216276Y-121259131D01*
X114145940Y-121211943D01*
X114074555Y-121163810D01*
X114010908Y-121121928D01*
X113959041Y-121088871D01*
X113922995Y-121067218D01*
X113906867Y-121059543D01*
X113887189Y-121066037D01*
X113849875Y-121083150D01*
X113802621Y-121107326D01*
X113797612Y-121110013D01*
X113733977Y-121141927D01*
X113690341Y-121157579D01*
X113663202Y-121157745D01*
X113649057Y-121143204D01*
X113648975Y-121143000D01*
X113641905Y-121125779D01*
X113625042Y-121084899D01*
X113599695Y-121023525D01*
X113567171Y-120944819D01*
X113528778Y-120851947D01*
X113485822Y-120748072D01*
X113444222Y-120647502D01*
X113398504Y-120536516D01*
X113356526Y-120433703D01*
X113319548Y-120342215D01*
X113288827Y-120265201D01*
X113265622Y-120205815D01*
X113251190Y-120167209D01*
X113246743Y-120152800D01*
X113257896Y-120136272D01*
X113287069Y-120109930D01*
X113325971Y-120080887D01*
X113436757Y-119989039D01*
X113523351Y-119883759D01*
X113584716Y-119767266D01*
X113619815Y-119641776D01*
X113627608Y-119509507D01*
X113621943Y-119448457D01*
X113591078Y-119321795D01*
X113537920Y-119209941D01*
X113465767Y-119114001D01*
X113377917Y-119035076D01*
X113277665Y-118974270D01*
X113168310Y-118932687D01*
X113053147Y-118911428D01*
X112935475Y-118911599D01*
X112818590Y-118934301D01*
X112705789Y-118980638D01*
X112600369Y-119051713D01*
X112556368Y-119091911D01*
X112471979Y-119195129D01*
X112413222Y-119307925D01*
X112379704Y-119427010D01*
X112371035Y-119549095D01*
X112386823Y-119670893D01*
X112426678Y-119789116D01*
X112490207Y-119900475D01*
X112577021Y-120001684D01*
X112674029Y-120080887D01*
X112714437Y-120111162D01*
X112742982Y-120137219D01*
X112753257Y-120152825D01*
X112747877Y-120169843D01*
X112732575Y-120210500D01*
X112708612Y-120271642D01*
X112677244Y-120350119D01*
X112639732Y-120442780D01*
X112597333Y-120546472D01*
X112555663Y-120647526D01*
X112509690Y-120758607D01*
X112467107Y-120861541D01*
X112429221Y-120953165D01*
X112397340Y-121030316D01*
X112372771Y-121089831D01*
X112356820Y-121128544D01*
X112350910Y-121143000D01*
X112336948Y-121157685D01*
X112309940Y-121157642D01*
X112266413Y-121142099D01*
X112202890Y-121110284D01*
X112202388Y-121110013D01*
X112154560Y-121085323D01*
X112115897Y-121067338D01*
X112094095Y-121059614D01*
X112093133Y-121059543D01*
X112076721Y-121067378D01*
X112040487Y-121089165D01*
X111988474Y-121122328D01*
X111924725Y-121164291D01*
X111854060Y-121211943D01*
X111782116Y-121260191D01*
X111717274Y-121302151D01*
X111663735Y-121335227D01*
X111625697Y-121356821D01*
X111607533Y-121364343D01*
X111590808Y-121354457D01*
X111557180Y-121326826D01*
X111510010Y-121284495D01*
X111452658Y-121230505D01*
X111388484Y-121167899D01*
X111367497Y-121146983D01*
X111150499Y-120929623D01*
X111315668Y-120687220D01*
X111365864Y-120612781D01*
X111409919Y-120545972D01*
X111445362Y-120490665D01*
X111469719Y-120450729D01*
X111480522Y-120430036D01*
X111480838Y-120428563D01*
X111475143Y-120409058D01*
X111459826Y-120369822D01*
X111437537Y-120317430D01*
X111421893Y-120282355D01*
X111392641Y-120215201D01*
X111365094Y-120147358D01*
X111343737Y-120090034D01*
X111337935Y-120072572D01*
X111321452Y-120025938D01*
X111305340Y-119989905D01*
X111296490Y-119976287D01*
X111276960Y-119967952D01*
X111234334Y-119956137D01*
X111174145Y-119942181D01*
X111101922Y-119927422D01*
X111069600Y-119921355D01*
X110987522Y-119906273D01*
X110908795Y-119891669D01*
X110841109Y-119878980D01*
X110792160Y-119869642D01*
X110782943Y-119867839D01*
X110706743Y-119852799D01*
X110706743Y-119535492D01*
X110706914Y-119431154D01*
X110707616Y-119352213D01*
X110709134Y-119295038D01*
X110711749Y-119255999D01*
X110715746Y-119231465D01*
X110721409Y-119217805D01*
X110729020Y-119211389D01*
X110732143Y-119210199D01*
X110750978Y-119205980D01*
X110792588Y-119197562D01*
X110851630Y-119185961D01*
X110922757Y-119172195D01*
X111000625Y-119157280D01*
X111079887Y-119142232D01*
X111155198Y-119128069D01*
X111221213Y-119115806D01*
X111272587Y-119106461D01*
X111303975Y-119101050D01*
X111310959Y-119100114D01*
X111317285Y-119087596D01*
X111331290Y-119054246D01*
X111350355Y-119006377D01*
X111357634Y-118987629D01*
X111386996Y-118915195D01*
X111421571Y-118835170D01*
X111452537Y-118767728D01*
X111475323Y-118716159D01*
X111490482Y-118673785D01*
X111495542Y-118647834D01*
X111494736Y-118644356D01*
X111484041Y-118627936D01*
X111459620Y-118591417D01*
X111424095Y-118538687D01*
X111380087Y-118473635D01*
X111330217Y-118400151D01*
X111320356Y-118385645D01*
X111262492Y-118299704D01*
X111219956Y-118234261D01*
X111191054Y-118186304D01*
X111174090Y-118152820D01*
X111167367Y-118130795D01*
X111169190Y-118117217D01*
X111169236Y-118117131D01*
X111183586Y-118099297D01*
X111215323Y-118064817D01*
X111261010Y-118017268D01*
X111317204Y-117960222D01*
X111380468Y-117897255D01*
X111387602Y-117890227D01*
X111467330Y-117813020D01*
X111528857Y-117756330D01*
X111573421Y-117719110D01*
X111602257Y-117700315D01*
X111614958Y-117697889D01*
X111633494Y-117708471D01*
X111671961Y-117732916D01*
X111726386Y-117768612D01*
X111792798Y-117812947D01*
X111867225Y-117863311D01*
X111884601Y-117875160D01*
X112131297Y-118043626D01*
X112242706Y-117993062D01*
X112310457Y-117963595D01*
X112383183Y-117933959D01*
X112445703Y-117910330D01*
X112448457Y-117909358D01*
X112497360Y-117891457D01*
X112535057Y-117876320D01*
X112553425Y-117867210D01*
X112553456Y-117867184D01*
X112559285Y-117850717D01*
X112569192Y-117810219D01*
X112582195Y-117750242D01*
X112597309Y-117675340D01*
X112613552Y-117590064D01*
X112614881Y-117582875D01*
X112631175Y-117495014D01*
X112646133Y-117415260D01*
X112658791Y-117348681D01*
X112668186Y-117300347D01*
X112673354Y-117275325D01*
X112673444Y-117274943D01*
X112676589Y-117264299D01*
X112682704Y-117256262D01*
X112695453Y-117250467D01*
X112718500Y-117246547D01*
X112755509Y-117244135D01*
X112810144Y-117242865D01*
X112886067Y-117242371D01*
X112986944Y-117242286D01*
X113000000Y-117242286D01*
X113103910Y-117242348D01*
G36*
X113103910Y-117242348D02*
G01*
X113182454Y-117242778D01*
X113239298Y-117243942D01*
X113278105Y-117246207D01*
X113302538Y-117249940D01*
X113316262Y-117255506D01*
X113322940Y-117263273D01*
X113326236Y-117273605D01*
X113326556Y-117274943D01*
X113331562Y-117299079D01*
X113340829Y-117346701D01*
X113353392Y-117412741D01*
X113368287Y-117492128D01*
X113384551Y-117579796D01*
X113385119Y-117582875D01*
X113401410Y-117668789D01*
X113416652Y-117744696D01*
X113429861Y-117806045D01*
X113440054Y-117848282D01*
X113446248Y-117866855D01*
X113446543Y-117867184D01*
X113464788Y-117876253D01*
X113502405Y-117891367D01*
X113551271Y-117909262D01*
X113551543Y-117909358D01*
X113613093Y-117932493D01*
X113685657Y-117961965D01*
X113754057Y-117991597D01*
X113757294Y-117993062D01*
X113868702Y-118043626D01*
X114115399Y-117875160D01*
X114191077Y-117823803D01*
X114259631Y-117777889D01*
X114317088Y-117740030D01*
X114359476Y-117712837D01*
X114382825Y-117698921D01*
X114385042Y-117697889D01*
X114402010Y-117702484D01*
X114433701Y-117724655D01*
X114481352Y-117765447D01*
X114546198Y-117825905D01*
X114612397Y-117890227D01*
X114676214Y-117953612D01*
X114733329Y-118011451D01*
X114780305Y-118060175D01*
X114813703Y-118096210D01*
X114830085Y-118115984D01*
X114830694Y-118117002D01*
X114832505Y-118130572D01*
X114825683Y-118152733D01*
X114808540Y-118186478D01*
X114779393Y-118234800D01*
X114736555Y-118300692D01*
X114679448Y-118385517D01*
X114628766Y-118460177D01*
X114583461Y-118527140D01*
X114546150Y-118582516D01*
X114519452Y-118622420D01*
X114505985Y-118642962D01*
X114505137Y-118644356D01*
X114506781Y-118664038D01*
X114519245Y-118702293D01*
X114540048Y-118751889D01*
X114547462Y-118767728D01*
X114579814Y-118838290D01*
X114614328Y-118918353D01*
X114642365Y-118987629D01*
X114662568Y-119039045D01*
X114678615Y-119078119D01*
X114687888Y-119098541D01*
X114689041Y-119100114D01*
X114706096Y-119102721D01*
X114746298Y-119109863D01*
X114804302Y-119120523D01*
X114874763Y-119133685D01*
X114952335Y-119148333D01*
X115031672Y-119163449D01*
X115107431Y-119178018D01*
X115174264Y-119191022D01*
X115226828Y-119201445D01*
X115259776Y-119208270D01*
X115267857Y-119210199D01*
X115276205Y-119214962D01*
X115282506Y-119225718D01*
X115287045Y-119246098D01*
X115290104Y-119279734D01*
X115291967Y-119330255D01*
X115292918Y-119401292D01*
X115293240Y-119496476D01*
X115293257Y-119535492D01*
X115293257Y-119852799D01*
X115217057Y-119867839D01*
X115174663Y-119875995D01*
X115111400Y-119887899D01*
X115034962Y-119902116D01*
X114953043Y-119917210D01*
X114930400Y-119921355D01*
X114854806Y-119936053D01*
X114788953Y-119950505D01*
X114738366Y-119963375D01*
X114708574Y-119973322D01*
X114703612Y-119976287D01*
X114691426Y-119997283D01*
X114673953Y-120037967D01*
X114654577Y-120090322D01*
X114650734Y-120101600D01*
X114625339Y-120171523D01*
X114593817Y-120250418D01*
X114562969Y-120321266D01*
X114562817Y-120321595D01*
X114511447Y-120432733D01*
X114680399Y-120681253D01*
X114849352Y-120929772D01*
X114632429Y-121147058D01*
X114566819Y-121211726D01*
X114506979Y-121268733D01*
X114456267Y-121315033D01*
X114418046Y-121347584D01*
X114395675Y-121363343D01*
X114392466Y-121364343D01*
X114373626Y-121356469D01*
X114335180Y-121334578D01*
X114281330Y-121301267D01*
X114216276Y-121259131D01*
X114145940Y-121211943D01*
X114074555Y-121163810D01*
X114010908Y-121121928D01*
X113959041Y-121088871D01*
X113922995Y-121067218D01*
X113906867Y-121059543D01*
X113887189Y-121066037D01*
X113849875Y-121083150D01*
X113802621Y-121107326D01*
X113797612Y-121110013D01*
X113733977Y-121141927D01*
X113690341Y-121157579D01*
X113663202Y-121157745D01*
X113649057Y-121143204D01*
X113648975Y-121143000D01*
X113641905Y-121125779D01*
X113625042Y-121084899D01*
X113599695Y-121023525D01*
X113567171Y-120944819D01*
X113528778Y-120851947D01*
X113485822Y-120748072D01*
X113444222Y-120647502D01*
X113398504Y-120536516D01*
X113356526Y-120433703D01*
X113319548Y-120342215D01*
X113288827Y-120265201D01*
X113265622Y-120205815D01*
X113251190Y-120167209D01*
X113246743Y-120152800D01*
X113257896Y-120136272D01*
X113287069Y-120109930D01*
X113325971Y-120080887D01*
X113436757Y-119989039D01*
X113523351Y-119883759D01*
X113584716Y-119767266D01*
X113619815Y-119641776D01*
X113627608Y-119509507D01*
X113621943Y-119448457D01*
X113591078Y-119321795D01*
X113537920Y-119209941D01*
X113465767Y-119114001D01*
X113377917Y-119035076D01*
X113277665Y-118974270D01*
X113168310Y-118932687D01*
X113053147Y-118911428D01*
X112935475Y-118911599D01*
X112818590Y-118934301D01*
X112705789Y-118980638D01*
X112600369Y-119051713D01*
X112556368Y-119091911D01*
X112471979Y-119195129D01*
X112413222Y-119307925D01*
X112379704Y-119427010D01*
X112371035Y-119549095D01*
X112386823Y-119670893D01*
X112426678Y-119789116D01*
X112490207Y-119900475D01*
X112577021Y-120001684D01*
X112674029Y-120080887D01*
X112714437Y-120111162D01*
X112742982Y-120137219D01*
X112753257Y-120152825D01*
X112747877Y-120169843D01*
X112732575Y-120210500D01*
X112708612Y-120271642D01*
X112677244Y-120350119D01*
X112639732Y-120442780D01*
X112597333Y-120546472D01*
X112555663Y-120647526D01*
X112509690Y-120758607D01*
X112467107Y-120861541D01*
X112429221Y-120953165D01*
X112397340Y-121030316D01*
X112372771Y-121089831D01*
X112356820Y-121128544D01*
X112350910Y-121143000D01*
X112336948Y-121157685D01*
X112309940Y-121157642D01*
X112266413Y-121142099D01*
X112202890Y-121110284D01*
X112202388Y-121110013D01*
X112154560Y-121085323D01*
X112115897Y-121067338D01*
X112094095Y-121059614D01*
X112093133Y-121059543D01*
X112076721Y-121067378D01*
X112040487Y-121089165D01*
X111988474Y-121122328D01*
X111924725Y-121164291D01*
X111854060Y-121211943D01*
X111782116Y-121260191D01*
X111717274Y-121302151D01*
X111663735Y-121335227D01*
X111625697Y-121356821D01*
X111607533Y-121364343D01*
X111590808Y-121354457D01*
X111557180Y-121326826D01*
X111510010Y-121284495D01*
X111452658Y-121230505D01*
X111388484Y-121167899D01*
X111367497Y-121146983D01*
X111150499Y-120929623D01*
X111315668Y-120687220D01*
X111365864Y-120612781D01*
X111409919Y-120545972D01*
X111445362Y-120490665D01*
X111469719Y-120450729D01*
X111480522Y-120430036D01*
X111480838Y-120428563D01*
X111475143Y-120409058D01*
X111459826Y-120369822D01*
X111437537Y-120317430D01*
X111421893Y-120282355D01*
X111392641Y-120215201D01*
X111365094Y-120147358D01*
X111343737Y-120090034D01*
X111337935Y-120072572D01*
X111321452Y-120025938D01*
X111305340Y-119989905D01*
X111296490Y-119976287D01*
X111276960Y-119967952D01*
X111234334Y-119956137D01*
X111174145Y-119942181D01*
X111101922Y-119927422D01*
X111069600Y-119921355D01*
X110987522Y-119906273D01*
X110908795Y-119891669D01*
X110841109Y-119878980D01*
X110792160Y-119869642D01*
X110782943Y-119867839D01*
X110706743Y-119852799D01*
X110706743Y-119535492D01*
X110706914Y-119431154D01*
X110707616Y-119352213D01*
X110709134Y-119295038D01*
X110711749Y-119255999D01*
X110715746Y-119231465D01*
X110721409Y-119217805D01*
X110729020Y-119211389D01*
X110732143Y-119210199D01*
X110750978Y-119205980D01*
X110792588Y-119197562D01*
X110851630Y-119185961D01*
X110922757Y-119172195D01*
X111000625Y-119157280D01*
X111079887Y-119142232D01*
X111155198Y-119128069D01*
X111221213Y-119115806D01*
X111272587Y-119106461D01*
X111303975Y-119101050D01*
X111310959Y-119100114D01*
X111317285Y-119087596D01*
X111331290Y-119054246D01*
X111350355Y-119006377D01*
X111357634Y-118987629D01*
X111386996Y-118915195D01*
X111421571Y-118835170D01*
X111452537Y-118767728D01*
X111475323Y-118716159D01*
X111490482Y-118673785D01*
X111495542Y-118647834D01*
X111494736Y-118644356D01*
X111484041Y-118627936D01*
X111459620Y-118591417D01*
X111424095Y-118538687D01*
X111380087Y-118473635D01*
X111330217Y-118400151D01*
X111320356Y-118385645D01*
X111262492Y-118299704D01*
X111219956Y-118234261D01*
X111191054Y-118186304D01*
X111174090Y-118152820D01*
X111167367Y-118130795D01*
X111169190Y-118117217D01*
X111169236Y-118117131D01*
X111183586Y-118099297D01*
X111215323Y-118064817D01*
X111261010Y-118017268D01*
X111317204Y-117960222D01*
X111380468Y-117897255D01*
X111387602Y-117890227D01*
X111467330Y-117813020D01*
X111528857Y-117756330D01*
X111573421Y-117719110D01*
X111602257Y-117700315D01*
X111614958Y-117697889D01*
X111633494Y-117708471D01*
X111671961Y-117732916D01*
X111726386Y-117768612D01*
X111792798Y-117812947D01*
X111867225Y-117863311D01*
X111884601Y-117875160D01*
X112131297Y-118043626D01*
X112242706Y-117993062D01*
X112310457Y-117963595D01*
X112383183Y-117933959D01*
X112445703Y-117910330D01*
X112448457Y-117909358D01*
X112497360Y-117891457D01*
X112535057Y-117876320D01*
X112553425Y-117867210D01*
X112553456Y-117867184D01*
X112559285Y-117850717D01*
X112569192Y-117810219D01*
X112582195Y-117750242D01*
X112597309Y-117675340D01*
X112613552Y-117590064D01*
X112614881Y-117582875D01*
X112631175Y-117495014D01*
X112646133Y-117415260D01*
X112658791Y-117348681D01*
X112668186Y-117300347D01*
X112673354Y-117275325D01*
X112673444Y-117274943D01*
X112676589Y-117264299D01*
X112682704Y-117256262D01*
X112695453Y-117250467D01*
X112718500Y-117246547D01*
X112755509Y-117244135D01*
X112810144Y-117242865D01*
X112886067Y-117242371D01*
X112986944Y-117242286D01*
X113000000Y-117242286D01*
X113103910Y-117242348D01*
G37*
%TD*%
M02*
