M48
; DRILL file {KiCad 9.0.6+1} date 2026-01-03T22:32:55+0000
; FORMAT={3:3/ absolute / metric / suppress leading zeros}
; #@! TF.CreationDate,2026-01-03T22:32:55+00:00
; #@! TF.GenerationSoftware,Kicad,Pcbnew,9.0.6+1
; #@! TF.FileFunction,Plated,1,2,PTH
FMAT,2
METRIC,TZ
; #@! TA.AperFunction,Plated,PTH,ComponentDrill
T1C1.000
%
G90
G05
T1
X112839Y-117549
X115379Y-117549
X117919Y-117549
X120459Y-117549
X122999Y-117549
X125539Y-117549
X128079Y-117549
X130619Y-117549
X136652Y-118431
X139192Y-118431
X141732Y-118431
X148399Y-117549
X150939Y-117549
X153479Y-117549
X156019Y-117549
X158559Y-117549
X161099Y-117549
X163639Y-117549
X166179Y-117549
X168719Y-117549
X171259Y-117549
M30
