%TF.GenerationSoftware,KiCad,Pcbnew,9.0.6+1*%
%TF.CreationDate,2026-01-05T23:11:26+00:00*%
%TF.ProjectId,TFFLIP2PH,5446464c-4950-4325-9048-2e6b69636164,A*%
%TF.SameCoordinates,Original*%
%TF.FileFunction,Copper,L2,Bot*%
%TF.FilePolarity,Positive*%
%FSLAX46Y46*%
G04 Gerber Fmt 4.6, Leading zero omitted, Abs format (unit mm)*
G04 Created by KiCad (PCBNEW 9.0.6+1) date 2026-01-05 23:11:26*
%MOMM*%
%LPD*%
G01*
G04 APERTURE LIST*
G04 Aperture macros list*
%AMRoundRect*
0 Rectangle with rounded corners*
0 $1 Rounding radius*
0 $2 $3 $4 $5 $6 $7 $8 $9 X,Y pos of 4 corners*
0 Add a 4 corners polygon primitive as box body*
4,1,4,$2,$3,$4,$5,$6,$7,$8,$9,$2,$3,0*
0 Add four circle primitives for the rounded corners*
1,1,$1+$1,$2,$3*
1,1,$1+$1,$4,$5*
1,1,$1+$1,$6,$7*
1,1,$1+$1,$8,$9*
0 Add four rect primitives between the rounded corners*
20,1,$1+$1,$2,$3,$4,$5,0*
20,1,$1+$1,$4,$5,$6,$7,0*
20,1,$1+$1,$6,$7,$8,$9,0*
20,1,$1+$1,$8,$9,$2,$3,0*%
G04 Aperture macros list end*
%TA.AperFunction,ComponentPad*%
%ADD10R,1.700000X1.700000*%
%TD*%
%TA.AperFunction,ComponentPad*%
%ADD11O,1.700000X1.700000*%
%TD*%
%TA.AperFunction,ComponentPad*%
%ADD12C,1.700000*%
%TD*%
%TA.AperFunction,SMDPad,CuDef*%
%ADD13RoundRect,0.150000X-0.150000X-0.700000X0.150000X-0.700000X0.150000X0.700000X-0.150000X0.700000X0*%
%TD*%
%TA.AperFunction,SMDPad,CuDef*%
%ADD14RoundRect,0.250000X-0.250000X-1.100000X0.250000X-1.100000X0.250000X1.100000X-0.250000X1.100000X0*%
%TD*%
%TA.AperFunction,ViaPad*%
%ADD15C,0.800000*%
%TD*%
%TA.AperFunction,Conductor*%
%ADD16C,0.400000*%
%TD*%
%TA.AperFunction,Conductor*%
%ADD17C,0.700000*%
%TD*%
G04 APERTURE END LIST*
D10*
%TO.P,J1,1,5V*%
%TO.N,+5V*%
X112838650Y-117549450D03*
D11*
%TO.P,J1,2,PA7*%
%TO.N,/MOSI*%
X115378650Y-117549450D03*
%TO.P,J1,3,PA6*%
%TO.N,/#CTS*%
X117918649Y-117549450D03*
%TO.P,J1,4,PA4*%
%TO.N,/SS1*%
X120458650Y-117549450D03*
%TO.P,J1,5,PB3*%
%TO.N,/#RTS*%
X122998650Y-117549450D03*
%TO.P,J1,6,PB2*%
%TO.N,/SS2*%
X125538650Y-117549450D03*
%TO.P,J1,7,PC3*%
%TO.N,/GEO_STAT*%
X128078650Y-117549450D03*
%TO.P,J1,8,GND*%
%TO.N,GND*%
X130618651Y-117549450D03*
D12*
%TO.P,J1,9,3.3V*%
%TO.N,+3.3V*%
X148398650Y-117549450D03*
D11*
%TO.P,J1,10,PA14*%
%TO.N,/TIMEPULSE*%
X150938649Y-117549450D03*
%TO.P,J1,11,GND*%
%TO.N,GND*%
X153478651Y-117549450D03*
%TO.P,J1,12,PA13*%
%TO.N,/EXTINT*%
X156018650Y-117549450D03*
%TO.P,J1,13,PB6*%
%TO.N,/TXD*%
X158558650Y-117549450D03*
%TO.P,J1,14,PB7*%
%TO.N,/RXD*%
X161098650Y-117549450D03*
%TO.P,J1,15,PC1*%
%TO.N,/SDA*%
X163638649Y-117549450D03*
%TO.P,J1,16,PC0*%
%TO.N,/SCL*%
X166178650Y-117549450D03*
%TO.P,J1,17,PB14*%
%TO.N,/BUZZER*%
X168718650Y-117549450D03*
%TO.P,J1,18,GND*%
%TO.N,GND*%
X171258650Y-117549450D03*
%TD*%
D13*
%TO.P,J9,1*%
%TO.N,/TIMEPULSE*%
X150625000Y-112340000D03*
%TO.P,J9,2*%
%TO.N,/EXTINT*%
X151875000Y-112340000D03*
%TO.P,J9,3*%
%TO.N,/GEO_STAT*%
X153125000Y-112340000D03*
%TO.P,J9,4*%
%TO.N,/SDA*%
X154375000Y-112340000D03*
%TO.P,J9,5*%
%TO.N,/SCL*%
X155625000Y-112340000D03*
%TO.P,J9,6*%
%TO.N,/TXD*%
X156875000Y-112340000D03*
%TO.P,J9,7*%
%TO.N,/RXD*%
X158125000Y-112340000D03*
%TO.P,J9,8*%
%TO.N,GND*%
X159375000Y-112340000D03*
D14*
%TO.P,J9,MP*%
X148775000Y-109140000D03*
X161225000Y-109140000D03*
%TD*%
D10*
%TO.P,J4,1*%
%TO.N,/MOSI*%
X141732000Y-118431000D03*
D12*
%TO.P,J4,2*%
%TO.N,+5V*%
X139192000Y-118431000D03*
%TO.P,J4,3*%
%TO.N,GND*%
X136652001Y-118431000D03*
%TD*%
D13*
%TO.P,J8,1*%
%TO.N,unconnected-(J8-Pad1)*%
X123875000Y-112340000D03*
%TO.P,J8,2*%
%TO.N,/RXD*%
X125125000Y-112340000D03*
%TO.P,J8,3*%
%TO.N,/TXD*%
X126375000Y-112340000D03*
%TO.P,J8,4*%
%TO.N,/#RTS*%
X127625000Y-112340000D03*
%TO.P,J8,5*%
%TO.N,/#CTS*%
X128875000Y-112340000D03*
%TO.P,J8,6*%
%TO.N,GND*%
X130125000Y-112340000D03*
D14*
%TO.P,J8,MP*%
X122025000Y-109140000D03*
X131975000Y-109140000D03*
%TD*%
D15*
%TO.N,GND*%
X166751000Y-112395000D03*
X143510000Y-109982000D03*
X112649000Y-113919000D03*
X131603398Y-115613193D03*
X151638000Y-113916000D03*
X156083000Y-110744000D03*
%TO.N,/EXTINT*%
X116459000Y-110490000D03*
%TO.N,/GEO_STAT*%
X148844000Y-115316000D03*
X154593264Y-115021365D03*
%TO.N,+3.3V*%
X115189000Y-115316000D03*
%TO.N,/#CTS*%
X146943508Y-115735000D03*
%TO.N,/#RTS*%
X147743508Y-114935000D03*
X138102625Y-114516000D03*
%TO.N,/RXD*%
X133604000Y-111125000D03*
X121412000Y-113919000D03*
X158623000Y-110744000D03*
X145923000Y-115316000D03*
X135509000Y-114808000D03*
X151638000Y-121031000D03*
X161088423Y-114235949D03*
%TO.N,/TXD*%
X158558650Y-114554000D03*
X126365000Y-113665000D03*
%TO.N,/SDA*%
X145072000Y-117945000D03*
X134239000Y-117094000D03*
%TO.N,/SCL*%
X133604000Y-114568422D03*
X130048000Y-114046000D03*
%TD*%
D16*
%TO.N,/TIMEPULSE*%
X150938649Y-116347369D02*
X150938649Y-117549450D01*
X150584000Y-113460629D02*
X150584000Y-115992720D01*
X150584000Y-115992720D02*
X150938649Y-116347369D01*
X150625000Y-112340000D02*
X150625000Y-113419629D01*
X150625000Y-113419629D02*
X150584000Y-113460629D01*
D17*
%TO.N,+5V*%
X112838650Y-117549450D02*
X115420200Y-120131000D01*
X115420200Y-120131000D02*
X137492000Y-120131000D01*
X137492000Y-120131000D02*
X139192000Y-118431000D01*
D16*
%TO.N,GND*%
X131603398Y-115596040D02*
X131603398Y-115613193D01*
X131756438Y-115443000D02*
X131603398Y-115596040D01*
X153478651Y-117549450D02*
X151638000Y-115708799D01*
X151638000Y-115708799D02*
X151638000Y-113916000D01*
%TO.N,/EXTINT*%
X152438000Y-113997472D02*
X152438000Y-113584629D01*
X151875000Y-113021629D02*
X151875000Y-112340000D01*
X151875000Y-111490001D02*
X151875000Y-112340000D01*
X130793420Y-110236000D02*
X131448420Y-110891000D01*
X154331200Y-115862000D02*
X154302528Y-115862000D01*
X133272629Y-110325000D02*
X136360000Y-110325000D01*
X136360000Y-110325000D02*
X136926000Y-110891000D01*
X124079000Y-110236000D02*
X130793420Y-110236000D01*
X154302528Y-115862000D02*
X152438000Y-113997472D01*
X132706629Y-110891000D02*
X133272629Y-110325000D01*
X116459000Y-110490000D02*
X116860000Y-110891000D01*
X156018650Y-117549450D02*
X154331200Y-115862000D01*
X123424000Y-110891000D02*
X124079000Y-110236000D01*
X151275999Y-110891000D02*
X151875000Y-111490001D01*
X136926000Y-110891000D02*
X151275999Y-110891000D01*
X131448420Y-110891000D02*
X132706629Y-110891000D01*
X152438000Y-113584629D02*
X151875000Y-113021629D01*
X116860000Y-110891000D02*
X123424000Y-110891000D01*
%TO.N,/GEO_STAT*%
X153125000Y-112340000D02*
X153125000Y-113553101D01*
X134513369Y-118800450D02*
X136133819Y-117180000D01*
X140481000Y-117950818D02*
X140481000Y-119682000D01*
X153125000Y-113553101D02*
X154593264Y-115021365D01*
X136133819Y-117180000D02*
X139710182Y-117180000D01*
X144478000Y-119682000D02*
X148844000Y-115316000D01*
X129329650Y-118800450D02*
X134513369Y-118800450D01*
X139710182Y-117180000D02*
X140481000Y-117950818D01*
X140481000Y-119682000D02*
X144478000Y-119682000D01*
X128078650Y-117549450D02*
X129329650Y-118800450D01*
D17*
%TO.N,+3.3V*%
X144155100Y-121793000D02*
X114280200Y-121793000D01*
X111252000Y-116334100D02*
X112270100Y-115316000D01*
X111252000Y-118764800D02*
X111252000Y-116334100D01*
X114280200Y-121793000D02*
X111252000Y-118764800D01*
X148398650Y-117549450D02*
X144155100Y-121793000D01*
X112270100Y-115316000D02*
X115189000Y-115316000D01*
D16*
%TO.N,/#CTS*%
X126789650Y-117069268D02*
X126789650Y-118067632D01*
X129042359Y-116280359D02*
X131139193Y-116280359D01*
X146562508Y-116116000D02*
X146943508Y-115735000D01*
X128875000Y-116113000D02*
X127745918Y-116113000D01*
X143685528Y-116116000D02*
X146562508Y-116116000D01*
X128875000Y-116113000D02*
X129042359Y-116280359D01*
X125477282Y-119380000D02*
X118364000Y-119380000D01*
X135336404Y-116280359D02*
X135636763Y-115980000D01*
X132067603Y-116280359D02*
X135336404Y-116280359D01*
X131272027Y-116413193D02*
X131934769Y-116413193D01*
X135636763Y-115980000D02*
X143549528Y-115980000D01*
X131934769Y-116413193D02*
X132067603Y-116280359D01*
X118364000Y-119380000D02*
X117918649Y-118934649D01*
X128875000Y-112340000D02*
X128875000Y-116113000D01*
X143549528Y-115980000D02*
X143685528Y-116116000D01*
X117918649Y-118934649D02*
X117918649Y-117549450D01*
X128875000Y-112340000D02*
X128875000Y-113189999D01*
X131139193Y-116280359D02*
X131272027Y-116413193D01*
X126789650Y-118067632D02*
X125477282Y-119380000D01*
X127745918Y-116113000D02*
X126789650Y-117069268D01*
%TO.N,/#RTS*%
X127625000Y-114818000D02*
X127254000Y-115189000D01*
X127254000Y-115189000D02*
X125349000Y-115189000D01*
X123981966Y-116566134D02*
X122998650Y-117549450D01*
X127625000Y-112340000D02*
X127625000Y-114818000D01*
X146673371Y-114935000D02*
X146254371Y-114516000D01*
X125349000Y-115189000D02*
X123981966Y-116556034D01*
X123981966Y-116556034D02*
X123981966Y-116566134D01*
X147743508Y-114935000D02*
X146673371Y-114935000D01*
X146254371Y-114516000D02*
X138102625Y-114516000D01*
%TO.N,/RXD*%
X161025474Y-114173000D02*
X161088423Y-114235949D01*
X125125000Y-112340000D02*
X125125000Y-111958026D01*
X145923000Y-115316000D02*
X136017000Y-115316000D01*
X124395999Y-113919000D02*
X125125000Y-113189999D01*
X157617100Y-121031000D02*
X151638000Y-121031000D01*
X130521000Y-111090000D02*
X131064000Y-111633000D01*
X136017000Y-115316000D02*
X135509000Y-114808000D01*
X131064000Y-111633000D02*
X133096000Y-111633000D01*
X158125000Y-111242000D02*
X158623000Y-110744000D01*
X125993026Y-111090000D02*
X130521000Y-111090000D01*
X158125000Y-112340000D02*
X158125000Y-112723388D01*
X133096000Y-111633000D02*
X133604000Y-111125000D01*
X125125000Y-111958026D02*
X125993026Y-111090000D01*
X161098650Y-117549450D02*
X157617100Y-121031000D01*
X158125000Y-112340000D02*
X158125000Y-111242000D01*
X125125000Y-113189999D02*
X125125000Y-112340000D01*
X121412000Y-113919000D02*
X124395999Y-113919000D01*
X159574612Y-114173000D02*
X161025474Y-114173000D01*
X158125000Y-112723388D02*
X159574612Y-114173000D01*
%TO.N,/TXD*%
X158558650Y-114554000D02*
X157861000Y-114554000D01*
X126365000Y-113665000D02*
X126365000Y-112350000D01*
X156875000Y-113568000D02*
X156875000Y-112340000D01*
X157861000Y-114554000D02*
X156875000Y-113568000D01*
X126365000Y-112350000D02*
X126375000Y-112340000D01*
%TO.N,/SDA*%
X139958710Y-116580000D02*
X140211503Y-116832793D01*
X157139001Y-115954000D02*
X154375000Y-113189999D01*
X135885291Y-116580000D02*
X139958710Y-116580000D01*
X143959793Y-116832793D02*
X145072000Y-117945000D01*
X135371291Y-117094000D02*
X135885291Y-116580000D01*
X140211503Y-116832793D02*
X143959793Y-116832793D01*
X163638649Y-117549450D02*
X162043199Y-115954000D01*
X154375000Y-113189999D02*
X154375000Y-112340000D01*
X162043199Y-115954000D02*
X157139001Y-115954000D01*
X134239000Y-117094000D02*
X135371291Y-117094000D01*
%TO.N,/SCL*%
X161897100Y-121831000D02*
X151306629Y-121831000D01*
X166178650Y-117549450D02*
X163983200Y-115354000D01*
X134138050Y-114568422D02*
X133604000Y-114568422D01*
X149687649Y-115603722D02*
X149771000Y-115520371D01*
X133081578Y-114046000D02*
X133604000Y-114568422D01*
X166178650Y-117549450D02*
X161897100Y-121831000D01*
X149687649Y-118067632D02*
X149687649Y-115603722D01*
X150838000Y-121362371D02*
X150838000Y-119217983D01*
X130048000Y-114046000D02*
X133081578Y-114046000D01*
X155625000Y-113189999D02*
X155625000Y-112340000D01*
X149771000Y-115520371D02*
X149771000Y-113830000D01*
X135461472Y-113245000D02*
X134138050Y-114568422D01*
X150838000Y-119217983D02*
X149687649Y-118067632D01*
X157789002Y-115354000D02*
X155625000Y-113189999D01*
X151306629Y-121831000D02*
X150838000Y-121362371D01*
X149186000Y-113245000D02*
X135461472Y-113245000D01*
X163983200Y-115354000D02*
X157789002Y-115354000D01*
X149771000Y-113830000D02*
X149186000Y-113245000D01*
%TD*%
%TA.AperFunction,Conductor*%
%TO.N,GND*%
G36*
X153728651Y-118876680D02*
G01*
X153794777Y-118866207D01*
X153794780Y-118866207D01*
X153996868Y-118800545D01*
X154186208Y-118704070D01*
X154358110Y-118579177D01*
X154358115Y-118579173D01*
X154508374Y-118428914D01*
X154508378Y-118428909D01*
X154633272Y-118257006D01*
X154637881Y-118247961D01*
X154685852Y-118197162D01*
X154753672Y-118180362D01*
X154819808Y-118202896D01*
X154858852Y-118247951D01*
X154863599Y-118257267D01*
X154988540Y-118429236D01*
X155138863Y-118579559D01*
X155310829Y-118704498D01*
X155310831Y-118704499D01*
X155310834Y-118704501D01*
X155500238Y-118801007D01*
X155702407Y-118866696D01*
X155912363Y-118899950D01*
X155912364Y-118899950D01*
X156124936Y-118899950D01*
X156124937Y-118899950D01*
X156334893Y-118866696D01*
X156537062Y-118801007D01*
X156726466Y-118704501D01*
X156783029Y-118663406D01*
X156898436Y-118579559D01*
X156898438Y-118579556D01*
X156898442Y-118579554D01*
X157048754Y-118429242D01*
X157048756Y-118429238D01*
X157048759Y-118429236D01*
X157173698Y-118257270D01*
X157173697Y-118257270D01*
X157173701Y-118257266D01*
X157178164Y-118248504D01*
X157226138Y-118197709D01*
X157293958Y-118180913D01*
X157360094Y-118203449D01*
X157399134Y-118248504D01*
X157403241Y-118256565D01*
X157403601Y-118257270D01*
X157528540Y-118429236D01*
X157678863Y-118579559D01*
X157850829Y-118704498D01*
X157850831Y-118704499D01*
X157850834Y-118704501D01*
X158040238Y-118801007D01*
X158242407Y-118866696D01*
X158452363Y-118899950D01*
X158452364Y-118899950D01*
X158458130Y-118899950D01*
X158525169Y-118919635D01*
X158570924Y-118972439D01*
X158580868Y-119041597D01*
X158551843Y-119105153D01*
X158545811Y-119111631D01*
X157363262Y-120294181D01*
X157301939Y-120327666D01*
X157275581Y-120330500D01*
X152248100Y-120330500D01*
X152181061Y-120310815D01*
X152179209Y-120309602D01*
X152064549Y-120232988D01*
X152064547Y-120232987D01*
X151900667Y-120165106D01*
X151900658Y-120165103D01*
X151726694Y-120130500D01*
X151726691Y-120130500D01*
X151662500Y-120130500D01*
X151595461Y-120110815D01*
X151549706Y-120058011D01*
X151538500Y-120006500D01*
X151538500Y-119148985D01*
X151536263Y-119137744D01*
X151536262Y-119137741D01*
X151535172Y-119132261D01*
X151511580Y-119013655D01*
X151470682Y-118914920D01*
X151468818Y-118908584D01*
X151468799Y-118879990D01*
X151465743Y-118851557D01*
X151468778Y-118845493D01*
X151468774Y-118838715D01*
X151484215Y-118814654D01*
X151497018Y-118789078D01*
X151504016Y-118783800D01*
X151506511Y-118779913D01*
X151513271Y-118776820D01*
X151531479Y-118763089D01*
X151646465Y-118704501D01*
X151703028Y-118663406D01*
X151818435Y-118579559D01*
X151818437Y-118579556D01*
X151818441Y-118579554D01*
X151968753Y-118429242D01*
X151968755Y-118429238D01*
X151968758Y-118429236D01*
X152093697Y-118257270D01*
X152093700Y-118257266D01*
X152098443Y-118247956D01*
X152146413Y-118197159D01*
X152214233Y-118180359D01*
X152280369Y-118202893D01*
X152319413Y-118247948D01*
X152324028Y-118257005D01*
X152448923Y-118428909D01*
X152448927Y-118428914D01*
X152599186Y-118579173D01*
X152599191Y-118579177D01*
X152771093Y-118704070D01*
X152960433Y-118800545D01*
X153162522Y-118866207D01*
X153228651Y-118876681D01*
X153228651Y-117982462D01*
X153285658Y-118015375D01*
X153412825Y-118049450D01*
X153544477Y-118049450D01*
X153671644Y-118015375D01*
X153728651Y-117982462D01*
X153728651Y-118876680D01*
G37*
%TD.AperFunction*%
%TA.AperFunction,Conductor*%
G36*
X133281539Y-117000544D02*
G01*
X133327294Y-117053348D01*
X133338500Y-117104859D01*
X133338500Y-117182695D01*
X133373103Y-117356658D01*
X133373106Y-117356667D01*
X133440983Y-117520540D01*
X133440990Y-117520553D01*
X133539535Y-117668034D01*
X133539538Y-117668038D01*
X133664961Y-117793461D01*
X133664965Y-117793464D01*
X133783770Y-117872848D01*
X133828575Y-117926460D01*
X133837282Y-117995785D01*
X133807127Y-118058813D01*
X133747684Y-118095532D01*
X133714879Y-118099950D01*
X132029928Y-118099950D01*
X131962889Y-118080265D01*
X131917134Y-118027461D01*
X131907190Y-117958303D01*
X131911997Y-117937632D01*
X131935408Y-117865579D01*
X131935408Y-117865576D01*
X131945882Y-117799450D01*
X131051663Y-117799450D01*
X131084576Y-117742443D01*
X131118651Y-117615276D01*
X131118651Y-117483624D01*
X131084576Y-117356457D01*
X131051663Y-117299450D01*
X131945882Y-117299450D01*
X131937778Y-117248284D01*
X131946732Y-117178991D01*
X131991728Y-117125539D01*
X132036060Y-117107269D01*
X132075494Y-117099424D01*
X132139097Y-117086773D01*
X132266580Y-117033968D01*
X132314789Y-117001755D01*
X132381467Y-116980879D01*
X132383679Y-116980859D01*
X133214500Y-116980859D01*
X133281539Y-117000544D01*
G37*
%TD.AperFunction*%
%TA.AperFunction,Conductor*%
G36*
X151425331Y-113629957D02*
G01*
X151426147Y-113629840D01*
X151457754Y-113638780D01*
X151464596Y-113641740D01*
X151464602Y-113641744D01*
X151490203Y-113649182D01*
X151543291Y-113680577D01*
X151701181Y-113838467D01*
X151734666Y-113899790D01*
X151737500Y-113926148D01*
X151737500Y-113928478D01*
X151737500Y-114066466D01*
X151737500Y-114066468D01*
X151737499Y-114066468D01*
X151764418Y-114201794D01*
X151764421Y-114201804D01*
X151817222Y-114329279D01*
X151893887Y-114444017D01*
X151893888Y-114444018D01*
X153692332Y-116242461D01*
X153725817Y-116303784D01*
X153728651Y-116330142D01*
X153728651Y-117116438D01*
X153671644Y-117083525D01*
X153544477Y-117049450D01*
X153412825Y-117049450D01*
X153285658Y-117083525D01*
X153228651Y-117116438D01*
X153228651Y-116222218D01*
X153228650Y-116222218D01*
X153162526Y-116232691D01*
X152960435Y-116298353D01*
X152771093Y-116394829D01*
X152599191Y-116519722D01*
X152599186Y-116519726D01*
X152448927Y-116669985D01*
X152448923Y-116669990D01*
X152324029Y-116841893D01*
X152319412Y-116850954D01*
X152271435Y-116901747D01*
X152203613Y-116918539D01*
X152137479Y-116895998D01*
X152098444Y-116850945D01*
X152093700Y-116841634D01*
X152093698Y-116841631D01*
X152093697Y-116841629D01*
X151968758Y-116669663D01*
X151818435Y-116519340D01*
X151690264Y-116426220D01*
X151647598Y-116370891D01*
X151640865Y-116346459D01*
X151639149Y-116336251D01*
X151639149Y-116278376D01*
X151612229Y-116143041D01*
X151608259Y-116133457D01*
X151596282Y-116104543D01*
X151584472Y-116076030D01*
X151565881Y-116031147D01*
X151559424Y-116015558D01*
X151559423Y-116015556D01*
X151559422Y-116015554D01*
X151482764Y-115900828D01*
X151471436Y-115889500D01*
X151385191Y-115803255D01*
X151320818Y-115738881D01*
X151287334Y-115677557D01*
X151284500Y-115651200D01*
X151284500Y-113752578D01*
X151294008Y-113720194D01*
X151302870Y-113687630D01*
X151303823Y-113686769D01*
X151304185Y-113685539D01*
X151329672Y-113663453D01*
X151354752Y-113640832D01*
X151356019Y-113640623D01*
X151356989Y-113639784D01*
X151390387Y-113634981D01*
X151423699Y-113629513D01*
X151425331Y-113629957D01*
G37*
%TD.AperFunction*%
%TA.AperFunction,Conductor*%
G36*
X132687521Y-114766185D02*
G01*
X132733276Y-114818989D01*
X132735730Y-114825479D01*
X132735775Y-114825461D01*
X132805983Y-114994962D01*
X132805990Y-114994975D01*
X132904535Y-115142456D01*
X132904538Y-115142460D01*
X133029961Y-115267883D01*
X133029965Y-115267886D01*
X133156982Y-115352757D01*
X133201787Y-115406369D01*
X133210494Y-115475694D01*
X133180339Y-115538722D01*
X133120896Y-115575441D01*
X133088091Y-115579859D01*
X131998607Y-115579859D01*
X131863280Y-115606777D01*
X131863270Y-115606780D01*
X131735795Y-115659582D01*
X131687583Y-115691796D01*
X131669536Y-115697446D01*
X131653628Y-115707670D01*
X131622665Y-115712121D01*
X131620905Y-115712673D01*
X131618693Y-115712693D01*
X131588103Y-115712693D01*
X131521064Y-115693008D01*
X131519213Y-115691796D01*
X131471004Y-115659584D01*
X131471001Y-115659582D01*
X131471000Y-115659582D01*
X131343525Y-115606780D01*
X131343515Y-115606777D01*
X131208189Y-115579859D01*
X131208187Y-115579859D01*
X131208186Y-115579859D01*
X129699500Y-115579859D01*
X129632461Y-115560174D01*
X129586706Y-115507370D01*
X129575500Y-115455859D01*
X129575500Y-115010556D01*
X129595185Y-114943517D01*
X129647989Y-114897762D01*
X129717147Y-114887818D01*
X129746942Y-114895991D01*
X129785334Y-114911894D01*
X129785340Y-114911895D01*
X129785341Y-114911896D01*
X129959304Y-114946499D01*
X129959307Y-114946500D01*
X129959309Y-114946500D01*
X130136693Y-114946500D01*
X130136694Y-114946499D01*
X130194682Y-114934964D01*
X130310658Y-114911896D01*
X130310661Y-114911894D01*
X130310666Y-114911894D01*
X130474547Y-114844013D01*
X130589209Y-114767397D01*
X130655886Y-114746520D01*
X130658100Y-114746500D01*
X132620482Y-114746500D01*
X132687521Y-114766185D01*
G37*
%TD.AperFunction*%
%TA.AperFunction,Conductor*%
G36*
X136085520Y-111045185D02*
G01*
X136106162Y-111061819D01*
X136479453Y-111435111D01*
X136479454Y-111435112D01*
X136594192Y-111511777D01*
X136721667Y-111564578D01*
X136721672Y-111564580D01*
X136721676Y-111564580D01*
X136721677Y-111564581D01*
X136857003Y-111591500D01*
X136857006Y-111591500D01*
X136857007Y-111591500D01*
X149700500Y-111591500D01*
X149767539Y-111611185D01*
X149813294Y-111663989D01*
X149824500Y-111715500D01*
X149824500Y-112597159D01*
X149804815Y-112664198D01*
X149752011Y-112709953D01*
X149682853Y-112719897D01*
X149631610Y-112700262D01*
X149577635Y-112664198D01*
X149517811Y-112624225D01*
X149517808Y-112624223D01*
X149517807Y-112624223D01*
X149390332Y-112571421D01*
X149390322Y-112571418D01*
X149254996Y-112544500D01*
X149254994Y-112544500D01*
X149254993Y-112544500D01*
X135392479Y-112544500D01*
X135392475Y-112544500D01*
X135284062Y-112566065D01*
X135284061Y-112566065D01*
X135270603Y-112568742D01*
X135257145Y-112571419D01*
X135230740Y-112582356D01*
X135204338Y-112593292D01*
X135204336Y-112593293D01*
X135204335Y-112593292D01*
X135129663Y-112624223D01*
X135031495Y-112689818D01*
X135031493Y-112689819D01*
X135014930Y-112700885D01*
X135014925Y-112700889D01*
X134028929Y-113686885D01*
X133967606Y-113720370D01*
X133911916Y-113719685D01*
X133902627Y-113717423D01*
X133866666Y-113702528D01*
X133728824Y-113675109D01*
X133726272Y-113674488D01*
X133698205Y-113658253D01*
X133669502Y-113643239D01*
X133667976Y-113641741D01*
X133528121Y-113501886D01*
X133513993Y-113492446D01*
X133413385Y-113425222D01*
X133285910Y-113372421D01*
X133285900Y-113372418D01*
X133150574Y-113345500D01*
X133150572Y-113345500D01*
X133150571Y-113345500D01*
X131028273Y-113345500D01*
X130961234Y-113325815D01*
X130915479Y-113273011D01*
X130905535Y-113203853D01*
X130909197Y-113186905D01*
X130922099Y-113142495D01*
X130922100Y-113142489D01*
X130924999Y-113105649D01*
X130925000Y-113105634D01*
X130925000Y-112590000D01*
X130249000Y-112590000D01*
X130181961Y-112570315D01*
X130136206Y-112517511D01*
X130125000Y-112466000D01*
X130125000Y-112214000D01*
X130127550Y-112205314D01*
X130126262Y-112196353D01*
X130137240Y-112172312D01*
X130144685Y-112146961D01*
X130151525Y-112141033D01*
X130155287Y-112132797D01*
X130177521Y-112118507D01*
X130197489Y-112101206D01*
X130208003Y-112098918D01*
X130214065Y-112095023D01*
X130249000Y-112090000D01*
X130478981Y-112090000D01*
X130546020Y-112109685D01*
X130566663Y-112126320D01*
X130617453Y-112177111D01*
X130617454Y-112177112D01*
X130732192Y-112253777D01*
X130859667Y-112306578D01*
X130859672Y-112306580D01*
X130859676Y-112306580D01*
X130859677Y-112306581D01*
X130995003Y-112333500D01*
X130995006Y-112333500D01*
X133164996Y-112333500D01*
X133256040Y-112315389D01*
X133300328Y-112306580D01*
X133364069Y-112280177D01*
X133427807Y-112253777D01*
X133427808Y-112253776D01*
X133427811Y-112253775D01*
X133542543Y-112177114D01*
X133667924Y-112051731D01*
X133729245Y-112018248D01*
X133731274Y-112017825D01*
X133866666Y-111990894D01*
X134030547Y-111923013D01*
X134178035Y-111824464D01*
X134303464Y-111699035D01*
X134402013Y-111551547D01*
X134469894Y-111387666D01*
X134471458Y-111379806D01*
X134504499Y-111213695D01*
X134504500Y-111213693D01*
X134504500Y-111149500D01*
X134524185Y-111082461D01*
X134576989Y-111036706D01*
X134628500Y-111025500D01*
X136018481Y-111025500D01*
X136085520Y-111045185D01*
G37*
%TD.AperFunction*%
%TA.AperFunction,Conductor*%
G36*
X121022719Y-107629635D02*
G01*
X121068474Y-107682439D01*
X121078418Y-107751597D01*
X121073386Y-107772954D01*
X121035494Y-107887302D01*
X121035493Y-107887309D01*
X121025000Y-107990013D01*
X121025000Y-108890000D01*
X123024999Y-108890000D01*
X123024999Y-107990028D01*
X123024998Y-107990013D01*
X123014505Y-107887302D01*
X122976614Y-107772954D01*
X122974212Y-107703126D01*
X123009944Y-107643084D01*
X123072464Y-107611891D01*
X123094320Y-107609950D01*
X130905680Y-107609950D01*
X130972719Y-107629635D01*
X131018474Y-107682439D01*
X131028418Y-107751597D01*
X131023386Y-107772954D01*
X130985494Y-107887302D01*
X130985493Y-107887309D01*
X130975000Y-107990013D01*
X130975000Y-108890000D01*
X132974999Y-108890000D01*
X132974999Y-107990028D01*
X132974998Y-107990013D01*
X132964505Y-107887302D01*
X132926614Y-107772954D01*
X132924212Y-107703126D01*
X132959944Y-107643084D01*
X133022464Y-107611891D01*
X133044320Y-107609950D01*
X147705680Y-107609950D01*
X147772719Y-107629635D01*
X147818474Y-107682439D01*
X147828418Y-107751597D01*
X147823386Y-107772954D01*
X147785494Y-107887302D01*
X147785493Y-107887309D01*
X147775000Y-107990013D01*
X147775000Y-108890000D01*
X149774999Y-108890000D01*
X149774999Y-107990028D01*
X149774998Y-107990013D01*
X149764505Y-107887302D01*
X149726614Y-107772954D01*
X149724212Y-107703126D01*
X149759944Y-107643084D01*
X149822464Y-107611891D01*
X149844320Y-107609950D01*
X160155680Y-107609950D01*
X160222719Y-107629635D01*
X160268474Y-107682439D01*
X160278418Y-107751597D01*
X160273386Y-107772954D01*
X160235494Y-107887302D01*
X160235493Y-107887309D01*
X160225000Y-107990013D01*
X160225000Y-108890000D01*
X162224999Y-108890000D01*
X162224999Y-107990028D01*
X162224998Y-107990013D01*
X162214505Y-107887302D01*
X162176614Y-107772954D01*
X162174212Y-107703126D01*
X162209944Y-107643084D01*
X162272464Y-107611891D01*
X162294320Y-107609950D01*
X173254216Y-107609950D01*
X173263066Y-107610266D01*
X173461778Y-107624484D01*
X173479289Y-107627002D01*
X173669621Y-107668411D01*
X173686596Y-107673396D01*
X173869091Y-107741467D01*
X173885183Y-107748816D01*
X173890276Y-107751597D01*
X174056144Y-107842170D01*
X174071018Y-107851730D01*
X174226954Y-107968463D01*
X174240324Y-107980049D01*
X174378050Y-108117775D01*
X174389636Y-108131145D01*
X174506367Y-108287077D01*
X174515932Y-108301960D01*
X174609283Y-108472916D01*
X174616632Y-108489008D01*
X174684703Y-108671503D01*
X174689688Y-108688478D01*
X174731097Y-108878810D01*
X174733615Y-108896321D01*
X174747834Y-109095033D01*
X174748150Y-109103883D01*
X174748150Y-121795016D01*
X174747834Y-121803866D01*
X174733615Y-122002578D01*
X174731097Y-122020089D01*
X174689688Y-122210421D01*
X174684703Y-122227396D01*
X174616632Y-122409891D01*
X174609283Y-122425983D01*
X174515932Y-122596939D01*
X174506367Y-122611822D01*
X174389636Y-122767754D01*
X174378050Y-122781124D01*
X174240324Y-122918850D01*
X174226954Y-122930436D01*
X174071022Y-123047167D01*
X174056139Y-123056732D01*
X173885183Y-123150083D01*
X173869091Y-123157432D01*
X173686596Y-123225503D01*
X173669621Y-123230488D01*
X173479289Y-123271897D01*
X173461778Y-123274415D01*
X173263066Y-123288634D01*
X173254216Y-123288950D01*
X110923084Y-123288950D01*
X110914234Y-123288634D01*
X110715521Y-123274415D01*
X110698010Y-123271897D01*
X110507678Y-123230488D01*
X110490703Y-123225503D01*
X110308208Y-123157432D01*
X110292116Y-123150083D01*
X110121160Y-123056732D01*
X110106277Y-123047167D01*
X109950345Y-122930436D01*
X109936975Y-122918850D01*
X109799249Y-122781124D01*
X109787663Y-122767754D01*
X109742152Y-122706959D01*
X109670930Y-122611818D01*
X109661367Y-122596939D01*
X109658690Y-122592037D01*
X109568016Y-122425983D01*
X109560667Y-122409891D01*
X109492596Y-122227396D01*
X109487611Y-122210421D01*
X109446202Y-122020089D01*
X109443684Y-122002578D01*
X109429466Y-121803866D01*
X109429150Y-121795016D01*
X109429150Y-116250328D01*
X110401500Y-116250328D01*
X110401500Y-118848571D01*
X110434181Y-119012874D01*
X110434184Y-119012883D01*
X110448808Y-119048188D01*
X110498292Y-119167656D01*
X110498299Y-119167669D01*
X110591372Y-119306961D01*
X110591375Y-119306965D01*
X113738034Y-122453624D01*
X113738042Y-122453630D01*
X113877327Y-122546697D01*
X113877330Y-122546698D01*
X113877338Y-122546704D01*
X113968006Y-122584259D01*
X114032118Y-122610816D01*
X114037176Y-122611822D01*
X114196428Y-122643499D01*
X114196432Y-122643500D01*
X114196433Y-122643500D01*
X144238868Y-122643500D01*
X144238869Y-122643499D01*
X144293638Y-122632605D01*
X144403174Y-122610818D01*
X144403178Y-122610816D01*
X144403182Y-122610816D01*
X144431785Y-122598967D01*
X144448508Y-122592040D01*
X144448509Y-122592039D01*
X144448515Y-122592037D01*
X144557963Y-122546704D01*
X144697262Y-122453627D01*
X148214619Y-118936268D01*
X148275942Y-118902784D01*
X148302300Y-118899950D01*
X148504936Y-118899950D01*
X148504937Y-118899950D01*
X148714893Y-118866696D01*
X148917062Y-118801007D01*
X149106466Y-118704501D01*
X149141312Y-118679184D01*
X149152491Y-118671062D01*
X149218297Y-118647581D01*
X149286351Y-118663406D01*
X149313058Y-118683698D01*
X150101181Y-119471821D01*
X150134666Y-119533144D01*
X150137500Y-119559502D01*
X150137500Y-121293377D01*
X150137500Y-121431365D01*
X150137500Y-121431367D01*
X150137499Y-121431367D01*
X150164418Y-121566693D01*
X150164421Y-121566703D01*
X150217222Y-121694178D01*
X150293887Y-121808916D01*
X150293888Y-121808917D01*
X150762515Y-122277542D01*
X150813630Y-122328657D01*
X150860088Y-122375115D01*
X150974811Y-122451771D01*
X150974815Y-122451773D01*
X150974818Y-122451775D01*
X151049495Y-122482707D01*
X151102300Y-122504580D01*
X151129220Y-122509934D01*
X151226259Y-122529237D01*
X151237635Y-122531500D01*
X151237636Y-122531500D01*
X161966096Y-122531500D01*
X162074512Y-122509934D01*
X162101428Y-122504580D01*
X162224433Y-122453630D01*
X162228907Y-122451777D01*
X162228908Y-122451776D01*
X162228911Y-122451775D01*
X162343643Y-122375114D01*
X165808800Y-118909955D01*
X165870121Y-118876472D01*
X165915877Y-118875165D01*
X165972417Y-118884120D01*
X166072363Y-118899950D01*
X166072364Y-118899950D01*
X166284936Y-118899950D01*
X166284937Y-118899950D01*
X166494893Y-118866696D01*
X166697062Y-118801007D01*
X166886466Y-118704501D01*
X166943029Y-118663406D01*
X167058436Y-118579559D01*
X167058438Y-118579556D01*
X167058442Y-118579554D01*
X167208754Y-118429242D01*
X167208756Y-118429238D01*
X167208759Y-118429236D01*
X167333698Y-118257270D01*
X167333697Y-118257270D01*
X167333701Y-118257266D01*
X167338164Y-118248504D01*
X167386138Y-118197709D01*
X167453958Y-118180913D01*
X167520094Y-118203449D01*
X167559134Y-118248504D01*
X167563241Y-118256565D01*
X167563601Y-118257270D01*
X167688540Y-118429236D01*
X167838863Y-118579559D01*
X168010829Y-118704498D01*
X168010831Y-118704499D01*
X168010834Y-118704501D01*
X168200238Y-118801007D01*
X168402407Y-118866696D01*
X168612363Y-118899950D01*
X168612364Y-118899950D01*
X168824936Y-118899950D01*
X168824937Y-118899950D01*
X169034893Y-118866696D01*
X169237062Y-118801007D01*
X169426466Y-118704501D01*
X169483029Y-118663406D01*
X169598436Y-118579559D01*
X169598438Y-118579556D01*
X169598442Y-118579554D01*
X169748754Y-118429242D01*
X169748756Y-118429238D01*
X169748759Y-118429236D01*
X169873698Y-118257270D01*
X169873701Y-118257266D01*
X169878443Y-118247958D01*
X169926413Y-118197161D01*
X169994233Y-118180361D01*
X170060369Y-118202895D01*
X170099413Y-118247950D01*
X170104027Y-118257005D01*
X170228922Y-118428909D01*
X170228926Y-118428914D01*
X170379185Y-118579173D01*
X170379190Y-118579177D01*
X170551092Y-118704070D01*
X170740432Y-118800545D01*
X170942521Y-118866207D01*
X171008650Y-118876681D01*
X171008650Y-117982462D01*
X171065657Y-118015375D01*
X171192824Y-118049450D01*
X171324476Y-118049450D01*
X171451643Y-118015375D01*
X171508650Y-117982462D01*
X171508650Y-118876681D01*
X171574776Y-118866207D01*
X171574779Y-118866207D01*
X171776867Y-118800545D01*
X171966207Y-118704070D01*
X172138109Y-118579177D01*
X172138114Y-118579173D01*
X172288373Y-118428914D01*
X172288377Y-118428909D01*
X172413270Y-118257007D01*
X172509745Y-118067667D01*
X172575407Y-117865579D01*
X172575407Y-117865576D01*
X172585881Y-117799450D01*
X171691662Y-117799450D01*
X171724575Y-117742443D01*
X171758650Y-117615276D01*
X171758650Y-117483624D01*
X171724575Y-117356457D01*
X171691662Y-117299450D01*
X172585881Y-117299450D01*
X172575407Y-117233323D01*
X172575407Y-117233320D01*
X172509745Y-117031232D01*
X172413270Y-116841892D01*
X172288377Y-116669990D01*
X172288373Y-116669985D01*
X172138114Y-116519726D01*
X172138109Y-116519722D01*
X171966207Y-116394829D01*
X171776865Y-116298353D01*
X171574774Y-116232691D01*
X171508650Y-116222218D01*
X171508650Y-117116438D01*
X171451643Y-117083525D01*
X171324476Y-117049450D01*
X171192824Y-117049450D01*
X171065657Y-117083525D01*
X171008650Y-117116438D01*
X171008650Y-116222218D01*
X171008649Y-116222218D01*
X170942525Y-116232691D01*
X170740434Y-116298353D01*
X170551092Y-116394829D01*
X170379190Y-116519722D01*
X170379185Y-116519726D01*
X170228926Y-116669985D01*
X170228922Y-116669990D01*
X170104028Y-116841893D01*
X170099412Y-116850952D01*
X170051434Y-116901745D01*
X169983613Y-116918537D01*
X169917479Y-116895996D01*
X169878444Y-116850943D01*
X169873701Y-116841634D01*
X169873699Y-116841631D01*
X169873698Y-116841629D01*
X169748759Y-116669663D01*
X169598436Y-116519340D01*
X169426470Y-116394401D01*
X169237064Y-116297894D01*
X169237063Y-116297893D01*
X169237062Y-116297893D01*
X169034893Y-116232204D01*
X169034891Y-116232203D01*
X169034890Y-116232203D01*
X168867346Y-116205667D01*
X168824937Y-116198950D01*
X168612363Y-116198950D01*
X168569954Y-116205667D01*
X168402410Y-116232203D01*
X168200235Y-116297894D01*
X168010829Y-116394401D01*
X167838863Y-116519340D01*
X167688540Y-116669663D01*
X167563599Y-116841632D01*
X167559134Y-116850396D01*
X167511159Y-116901192D01*
X167443338Y-116917986D01*
X167377203Y-116895448D01*
X167338166Y-116850396D01*
X167333700Y-116841632D01*
X167208759Y-116669663D01*
X167058436Y-116519340D01*
X166886470Y-116394401D01*
X166697064Y-116297894D01*
X166697063Y-116297893D01*
X166697062Y-116297893D01*
X166494893Y-116232204D01*
X166494891Y-116232203D01*
X166494890Y-116232203D01*
X166327346Y-116205667D01*
X166284937Y-116198950D01*
X166072363Y-116198950D01*
X165915877Y-116223734D01*
X165846584Y-116214779D01*
X165808799Y-116188942D01*
X164429746Y-114809888D01*
X164429745Y-114809887D01*
X164315007Y-114733222D01*
X164187532Y-114680421D01*
X164187522Y-114680418D01*
X164052196Y-114653500D01*
X164052194Y-114653500D01*
X164052193Y-114653500D01*
X162074528Y-114653500D01*
X162007489Y-114633815D01*
X161961734Y-114581011D01*
X161951790Y-114511853D01*
X161953392Y-114504642D01*
X161953129Y-114504590D01*
X161988000Y-114329279D01*
X161988923Y-114324640D01*
X161988923Y-114147258D01*
X161988923Y-114147255D01*
X161988922Y-114147253D01*
X161954319Y-113973290D01*
X161954316Y-113973281D01*
X161954302Y-113973248D01*
X161893578Y-113826644D01*
X161886439Y-113809408D01*
X161886432Y-113809395D01*
X161787887Y-113661914D01*
X161787884Y-113661910D01*
X161662461Y-113536487D01*
X161662457Y-113536484D01*
X161514976Y-113437939D01*
X161514963Y-113437932D01*
X161351090Y-113370055D01*
X161351081Y-113370052D01*
X161177117Y-113335449D01*
X161177114Y-113335449D01*
X160999732Y-113335449D01*
X160999729Y-113335449D01*
X160825764Y-113370052D01*
X160825755Y-113370055D01*
X160661880Y-113437933D01*
X160661879Y-113437934D01*
X160641424Y-113451602D01*
X160574747Y-113472480D01*
X160572533Y-113472500D01*
X160240492Y-113472500D01*
X160173453Y-113452815D01*
X160127698Y-113400011D01*
X160117754Y-113330853D01*
X160124290Y-113307743D01*
X160124106Y-113307690D01*
X160172099Y-113142495D01*
X160172100Y-113142489D01*
X160174999Y-113105649D01*
X160175000Y-113105634D01*
X160175000Y-112590000D01*
X159499000Y-112590000D01*
X159431961Y-112570315D01*
X159386206Y-112517511D01*
X159375000Y-112466000D01*
X159375000Y-112214000D01*
X159394685Y-112146961D01*
X159447489Y-112101206D01*
X159499000Y-112090000D01*
X160175000Y-112090000D01*
X160175000Y-111574365D01*
X160174999Y-111574350D01*
X160172100Y-111537510D01*
X160172099Y-111537504D01*
X160126283Y-111379806D01*
X160126282Y-111379803D01*
X160042685Y-111238447D01*
X160042678Y-111238438D01*
X159926561Y-111122321D01*
X159926552Y-111122314D01*
X159785196Y-111038717D01*
X159785193Y-111038716D01*
X159627495Y-110992900D01*
X159621255Y-110991761D01*
X159621739Y-110989107D01*
X159567475Y-110968379D01*
X159526047Y-110912117D01*
X159520950Y-110845509D01*
X159523500Y-110832691D01*
X159523500Y-110655309D01*
X159523500Y-110655306D01*
X159523499Y-110655304D01*
X159488896Y-110481341D01*
X159488893Y-110481332D01*
X159421016Y-110317459D01*
X159421009Y-110317446D01*
X159402661Y-110289986D01*
X160225001Y-110289986D01*
X160235494Y-110392697D01*
X160290641Y-110559119D01*
X160290643Y-110559124D01*
X160382684Y-110708345D01*
X160506654Y-110832315D01*
X160655875Y-110924356D01*
X160655880Y-110924358D01*
X160822302Y-110979505D01*
X160822309Y-110979506D01*
X160925019Y-110989999D01*
X161475000Y-110989999D01*
X161524972Y-110989999D01*
X161524986Y-110989998D01*
X161627697Y-110979505D01*
X161794119Y-110924358D01*
X161794124Y-110924356D01*
X161943345Y-110832315D01*
X162067315Y-110708345D01*
X162159356Y-110559124D01*
X162159358Y-110559119D01*
X162214505Y-110392697D01*
X162214506Y-110392690D01*
X162224999Y-110289986D01*
X162225000Y-110289973D01*
X162225000Y-109390000D01*
X161475000Y-109390000D01*
X161475000Y-110989999D01*
X160925019Y-110989999D01*
X160974999Y-110989998D01*
X160975000Y-110989998D01*
X160975000Y-109390000D01*
X160225001Y-109390000D01*
X160225001Y-110289986D01*
X159402661Y-110289986D01*
X159322464Y-110169965D01*
X159322461Y-110169961D01*
X159197038Y-110044538D01*
X159197034Y-110044535D01*
X159049553Y-109945990D01*
X159049540Y-109945983D01*
X158885667Y-109878106D01*
X158885658Y-109878103D01*
X158711694Y-109843500D01*
X158711691Y-109843500D01*
X158534309Y-109843500D01*
X158534306Y-109843500D01*
X158360341Y-109878103D01*
X158360332Y-109878106D01*
X158196459Y-109945983D01*
X158196446Y-109945990D01*
X158048965Y-110044535D01*
X158048961Y-110044538D01*
X157923538Y-110169961D01*
X157923535Y-110169965D01*
X157824990Y-110317446D01*
X157824983Y-110317459D01*
X157757107Y-110481329D01*
X157757104Y-110481339D01*
X157730201Y-110616586D01*
X157697815Y-110678497D01*
X157696266Y-110680074D01*
X157580889Y-110795453D01*
X157580885Y-110795457D01*
X157504224Y-110910189D01*
X157473242Y-110984987D01*
X157429401Y-111039391D01*
X157363106Y-111061455D01*
X157295560Y-111044266D01*
X157294195Y-111043459D01*
X157285398Y-111038256D01*
X157285397Y-111038255D01*
X157285396Y-111038255D01*
X157285393Y-111038254D01*
X157127573Y-110992402D01*
X157127567Y-110992401D01*
X157090701Y-110989500D01*
X157090694Y-110989500D01*
X156659306Y-110989500D01*
X156659298Y-110989500D01*
X156622432Y-110992401D01*
X156622426Y-110992402D01*
X156464606Y-111038254D01*
X156464603Y-111038255D01*
X156316420Y-111125890D01*
X156315254Y-111123919D01*
X156260942Y-111145232D01*
X156192427Y-111131540D01*
X156183595Y-111125864D01*
X156183580Y-111125890D01*
X156075241Y-111061819D01*
X156035398Y-111038256D01*
X156035397Y-111038255D01*
X156035396Y-111038255D01*
X156035393Y-111038254D01*
X155877573Y-110992402D01*
X155877567Y-110992401D01*
X155840701Y-110989500D01*
X155840694Y-110989500D01*
X155409306Y-110989500D01*
X155409298Y-110989500D01*
X155372432Y-110992401D01*
X155372426Y-110992402D01*
X155214606Y-111038254D01*
X155214603Y-111038255D01*
X155066420Y-111125890D01*
X155065254Y-111123919D01*
X155010942Y-111145232D01*
X154942427Y-111131540D01*
X154933595Y-111125864D01*
X154933580Y-111125890D01*
X154825241Y-111061819D01*
X154785398Y-111038256D01*
X154785397Y-111038255D01*
X154785396Y-111038255D01*
X154785393Y-111038254D01*
X154627573Y-110992402D01*
X154627567Y-110992401D01*
X154590701Y-110989500D01*
X154590694Y-110989500D01*
X154159306Y-110989500D01*
X154159298Y-110989500D01*
X154122432Y-110992401D01*
X154122426Y-110992402D01*
X153964606Y-111038254D01*
X153964603Y-111038255D01*
X153816420Y-111125890D01*
X153815254Y-111123919D01*
X153760942Y-111145232D01*
X153692427Y-111131540D01*
X153683595Y-111125864D01*
X153683580Y-111125890D01*
X153575241Y-111061819D01*
X153535398Y-111038256D01*
X153535397Y-111038255D01*
X153535396Y-111038255D01*
X153535393Y-111038254D01*
X153377573Y-110992402D01*
X153377567Y-110992401D01*
X153340701Y-110989500D01*
X153340694Y-110989500D01*
X152909306Y-110989500D01*
X152909298Y-110989500D01*
X152872432Y-110992401D01*
X152872426Y-110992402D01*
X152714606Y-111038254D01*
X152714605Y-111038254D01*
X152601333Y-111105242D01*
X152533609Y-111122423D01*
X152467347Y-111100263D01*
X152446929Y-111082433D01*
X152440438Y-111075373D01*
X152419114Y-111043459D01*
X152321542Y-110945887D01*
X152171108Y-110795453D01*
X151722545Y-110346888D01*
X151722544Y-110346887D01*
X151607806Y-110270222D01*
X151480331Y-110217421D01*
X151480321Y-110217418D01*
X151344995Y-110190500D01*
X151344993Y-110190500D01*
X151344992Y-110190500D01*
X149899000Y-110190500D01*
X149831961Y-110170815D01*
X149786206Y-110118011D01*
X149775000Y-110066500D01*
X149775000Y-109390000D01*
X147775001Y-109390000D01*
X147775001Y-110066500D01*
X147755316Y-110133539D01*
X147702512Y-110179294D01*
X147651001Y-110190500D01*
X137267519Y-110190500D01*
X137200480Y-110170815D01*
X137179838Y-110154181D01*
X136806546Y-109780888D01*
X136806545Y-109780887D01*
X136691807Y-109704222D01*
X136564332Y-109651421D01*
X136564322Y-109651418D01*
X136428996Y-109624500D01*
X136428994Y-109624500D01*
X136428993Y-109624500D01*
X133341623Y-109624500D01*
X133203635Y-109624500D01*
X133203632Y-109624500D01*
X133123190Y-109640501D01*
X133053599Y-109634274D01*
X132998421Y-109591411D01*
X132975177Y-109525521D01*
X132974999Y-109518883D01*
X132975000Y-109390000D01*
X130975001Y-109390000D01*
X130975001Y-109411500D01*
X130955316Y-109478539D01*
X130902512Y-109524294D01*
X130851001Y-109535500D01*
X124010004Y-109535500D01*
X123874677Y-109562418D01*
X123874667Y-109562421D01*
X123747192Y-109615222D01*
X123632454Y-109691887D01*
X123632453Y-109691888D01*
X123236681Y-110087661D01*
X123175358Y-110121146D01*
X123105666Y-110116162D01*
X123049733Y-110074290D01*
X123025316Y-110008826D01*
X123025000Y-109999980D01*
X123025000Y-109390000D01*
X121025001Y-109390000D01*
X121025001Y-110066500D01*
X121005316Y-110133539D01*
X120952512Y-110179294D01*
X120901001Y-110190500D01*
X117392491Y-110190500D01*
X117325452Y-110170815D01*
X117279697Y-110118011D01*
X117277943Y-110113984D01*
X117257013Y-110063453D01*
X117257009Y-110063446D01*
X117158464Y-109915965D01*
X117158461Y-109915961D01*
X117033038Y-109790538D01*
X117033034Y-109790535D01*
X116885553Y-109691990D01*
X116885540Y-109691983D01*
X116721667Y-109624106D01*
X116721658Y-109624103D01*
X116547694Y-109589500D01*
X116547691Y-109589500D01*
X116370309Y-109589500D01*
X116370306Y-109589500D01*
X116196341Y-109624103D01*
X116196332Y-109624106D01*
X116032459Y-109691983D01*
X116032446Y-109691990D01*
X115884965Y-109790535D01*
X115884961Y-109790538D01*
X115759538Y-109915961D01*
X115759535Y-109915965D01*
X115660990Y-110063446D01*
X115660983Y-110063459D01*
X115593106Y-110227332D01*
X115593103Y-110227341D01*
X115558500Y-110401304D01*
X115558500Y-110578695D01*
X115593103Y-110752658D01*
X115593106Y-110752667D01*
X115660983Y-110916540D01*
X115660990Y-110916553D01*
X115759535Y-111064034D01*
X115759538Y-111064038D01*
X115884961Y-111189461D01*
X115884965Y-111189464D01*
X116032446Y-111288009D01*
X116032459Y-111288016D01*
X116104933Y-111318035D01*
X116196334Y-111355894D01*
X116331588Y-111382797D01*
X116393495Y-111415180D01*
X116395077Y-111416734D01*
X116413454Y-111435112D01*
X116528192Y-111511777D01*
X116655667Y-111564578D01*
X116655672Y-111564580D01*
X116655676Y-111564580D01*
X116655677Y-111564581D01*
X116791003Y-111591500D01*
X116791006Y-111591500D01*
X116791007Y-111591500D01*
X122950500Y-111591500D01*
X123017539Y-111611185D01*
X123063294Y-111663989D01*
X123074500Y-111715500D01*
X123074500Y-113094500D01*
X123054815Y-113161539D01*
X123002011Y-113207294D01*
X122950500Y-113218500D01*
X122022100Y-113218500D01*
X121955061Y-113198815D01*
X121953209Y-113197602D01*
X121838549Y-113120988D01*
X121838547Y-113120987D01*
X121674667Y-113053106D01*
X121674658Y-113053103D01*
X121500694Y-113018500D01*
X121500691Y-113018500D01*
X121323309Y-113018500D01*
X121323306Y-113018500D01*
X121149341Y-113053103D01*
X121149332Y-113053106D01*
X120985459Y-113120983D01*
X120985446Y-113120990D01*
X120837965Y-113219535D01*
X120837961Y-113219538D01*
X120712538Y-113344961D01*
X120712535Y-113344965D01*
X120613990Y-113492446D01*
X120613983Y-113492459D01*
X120546106Y-113656332D01*
X120546103Y-113656341D01*
X120511500Y-113830304D01*
X120511500Y-114007695D01*
X120546103Y-114181658D01*
X120546106Y-114181667D01*
X120613983Y-114345540D01*
X120613990Y-114345553D01*
X120712535Y-114493034D01*
X120712538Y-114493038D01*
X120837961Y-114618461D01*
X120837965Y-114618464D01*
X120985446Y-114717009D01*
X120985459Y-114717016D01*
X121104166Y-114766185D01*
X121149334Y-114784894D01*
X121149336Y-114784894D01*
X121149341Y-114784896D01*
X121323304Y-114819499D01*
X121323307Y-114819500D01*
X121323309Y-114819500D01*
X121500693Y-114819500D01*
X121500694Y-114819499D01*
X121558682Y-114807964D01*
X121674658Y-114784896D01*
X121674661Y-114784894D01*
X121674666Y-114784894D01*
X121838547Y-114717013D01*
X121953209Y-114640397D01*
X122019886Y-114619520D01*
X122022100Y-114619500D01*
X124464995Y-114619500D01*
X124556039Y-114601389D01*
X124600327Y-114592580D01*
X124629447Y-114580517D01*
X124698916Y-114573048D01*
X124761396Y-114604322D01*
X124797049Y-114664411D01*
X124794556Y-114734236D01*
X124764582Y-114782759D01*
X123437854Y-116109488D01*
X123437849Y-116109494D01*
X123424297Y-116129776D01*
X123408878Y-116148563D01*
X123368499Y-116188942D01*
X123307176Y-116222427D01*
X123261421Y-116223734D01*
X123104937Y-116198950D01*
X122892363Y-116198950D01*
X122849954Y-116205667D01*
X122682410Y-116232203D01*
X122480235Y-116297894D01*
X122290829Y-116394401D01*
X122118863Y-116519340D01*
X121968540Y-116669663D01*
X121843599Y-116841632D01*
X121839134Y-116850396D01*
X121791159Y-116901192D01*
X121723338Y-116917986D01*
X121657203Y-116895448D01*
X121618166Y-116850396D01*
X121613700Y-116841632D01*
X121488759Y-116669663D01*
X121338436Y-116519340D01*
X121166470Y-116394401D01*
X120977064Y-116297894D01*
X120977063Y-116297893D01*
X120977062Y-116297893D01*
X120774893Y-116232204D01*
X120774891Y-116232203D01*
X120774890Y-116232203D01*
X120607346Y-116205667D01*
X120564937Y-116198950D01*
X120352363Y-116198950D01*
X120309954Y-116205667D01*
X120142410Y-116232203D01*
X119940235Y-116297894D01*
X119750829Y-116394401D01*
X119578863Y-116519340D01*
X119428540Y-116669663D01*
X119303598Y-116841634D01*
X119303596Y-116841637D01*
X119299131Y-116850400D01*
X119251155Y-116901194D01*
X119183333Y-116917987D01*
X119117199Y-116895447D01*
X119078163Y-116850394D01*
X119073831Y-116841892D01*
X119073700Y-116841634D01*
X119073698Y-116841631D01*
X119073697Y-116841629D01*
X118948758Y-116669663D01*
X118798435Y-116519340D01*
X118626469Y-116394401D01*
X118437063Y-116297894D01*
X118437062Y-116297893D01*
X118437061Y-116297893D01*
X118234892Y-116232204D01*
X118234890Y-116232203D01*
X118234889Y-116232203D01*
X118067345Y-116205667D01*
X118024936Y-116198950D01*
X117812362Y-116198950D01*
X117769953Y-116205667D01*
X117602409Y-116232203D01*
X117400234Y-116297894D01*
X117210828Y-116394401D01*
X117038862Y-116519340D01*
X116888539Y-116669663D01*
X116763597Y-116841633D01*
X116759131Y-116850399D01*
X116711155Y-116901192D01*
X116643333Y-116917985D01*
X116577199Y-116895445D01*
X116538163Y-116850392D01*
X116533832Y-116841892D01*
X116533701Y-116841634D01*
X116533699Y-116841631D01*
X116533698Y-116841629D01*
X116408759Y-116669663D01*
X116258436Y-116519340D01*
X116086470Y-116394401D01*
X115897064Y-116297894D01*
X115897063Y-116297893D01*
X115897062Y-116297893D01*
X115765632Y-116255188D01*
X115707957Y-116215751D01*
X115680759Y-116151393D01*
X115692674Y-116082546D01*
X115735062Y-116034155D01*
X115744902Y-116027580D01*
X115763035Y-116015464D01*
X115888464Y-115890035D01*
X115987013Y-115742547D01*
X115988532Y-115738881D01*
X115996958Y-115718535D01*
X116054894Y-115578666D01*
X116055536Y-115575441D01*
X116089499Y-115404695D01*
X116089500Y-115404693D01*
X116089500Y-115227306D01*
X116089499Y-115227304D01*
X116054896Y-115053341D01*
X116054893Y-115053332D01*
X115987016Y-114889459D01*
X115987009Y-114889446D01*
X115888464Y-114741965D01*
X115888461Y-114741961D01*
X115763038Y-114616538D01*
X115763034Y-114616535D01*
X115615553Y-114517990D01*
X115615540Y-114517983D01*
X115451667Y-114450106D01*
X115451658Y-114450103D01*
X115277694Y-114415500D01*
X115277691Y-114415500D01*
X115100309Y-114415500D01*
X115100306Y-114415500D01*
X114926341Y-114450103D01*
X114926337Y-114450105D01*
X114926335Y-114450105D01*
X114926334Y-114450106D01*
X114911953Y-114456062D01*
X114864505Y-114465500D01*
X112186328Y-114465500D01*
X112022025Y-114498182D01*
X112022022Y-114498183D01*
X112022021Y-114498183D01*
X112022018Y-114498184D01*
X111997227Y-114508453D01*
X111997225Y-114508454D01*
X111997224Y-114508453D01*
X111867233Y-114562297D01*
X111727938Y-114655372D01*
X111727934Y-114655375D01*
X110591375Y-115791934D01*
X110591372Y-115791938D01*
X110498297Y-115931233D01*
X110498296Y-115931236D01*
X110458390Y-116027579D01*
X110458390Y-116027580D01*
X110434184Y-116086017D01*
X110434182Y-116086025D01*
X110401500Y-116250328D01*
X109429150Y-116250328D01*
X109429150Y-109103883D01*
X109429466Y-109095033D01*
X109443684Y-108896321D01*
X109446202Y-108878810D01*
X109487611Y-108688478D01*
X109492596Y-108671503D01*
X109530367Y-108570243D01*
X109560668Y-108489003D01*
X109568016Y-108472916D01*
X109661373Y-108301949D01*
X109670925Y-108287087D01*
X109787669Y-108131137D01*
X109799242Y-108117782D01*
X109936981Y-107980043D01*
X109950336Y-107968470D01*
X110106285Y-107851726D01*
X110121155Y-107842170D01*
X110292122Y-107748812D01*
X110308193Y-107741472D01*
X110490706Y-107673394D01*
X110507673Y-107668411D01*
X110698011Y-107627001D01*
X110715519Y-107624484D01*
X110846763Y-107615093D01*
X110914233Y-107610266D01*
X110923083Y-107609950D01*
X120955680Y-107609950D01*
X121022719Y-107629635D01*
G37*
%TD.AperFunction*%
%TD*%
M02*
