M48
; DRILL file {KiCad 9.0.6+1} date 2026-01-05T23:11:26+0000
; FORMAT={3:3/ absolute / metric / suppress leading zeros}
; #@! TF.CreationDate,2026-01-05T23:11:26+00:00
; #@! TF.GenerationSoftware,Kicad,Pcbnew,9.0.6+1
; #@! TF.FileFunction,Plated,1,2,PTH
FMAT,2
METRIC,TZ
; #@! TA.AperFunction,Plated,PTH,ViaDrill
T1C0.400
; #@! TA.AperFunction,Plated,PTH,ComponentDrill
T2C1.000
%
G90
G05
T1
X112649Y-113919
X115189Y-115316
X116459Y-110490
X121412Y-113919
X126365Y-113665
X130048Y-114046
X131603Y-115613
X133604Y-111125
X133604Y-114568
X134239Y-117094
X135509Y-114808
X138103Y-114516
X143510Y-109982
X145072Y-117945
X145923Y-115316
X146944Y-115735
X147744Y-114935
X148844Y-115316
X151638Y-113916
X151638Y-121031
X154593Y-115021
X156083Y-110744
X158559Y-114554
X158623Y-110744
X161088Y-114236
X166751Y-112395
T2
X112839Y-117549
X115379Y-117549
X117919Y-117549
X120459Y-117549
X122999Y-117549
X125539Y-117549
X128079Y-117549
X130619Y-117549
X136652Y-118431
X139192Y-118431
X141732Y-118431
X148399Y-117549
X150939Y-117549
X153479Y-117549
X156019Y-117549
X158559Y-117549
X161099Y-117549
X163639Y-117549
X166179Y-117549
X168719Y-117549
X171259Y-117549
M30
