%TF.GenerationSoftware,KiCad,Pcbnew,9.0.6+1*%
%TF.CreationDate,2026-01-03T22:32:55+00:00*%
%TF.ProjectId,TFFLIP2PH,5446464c-4950-4325-9048-2e6b69636164,A*%
%TF.SameCoordinates,Original*%
%TF.FileFunction,Soldermask,Top*%
%TF.FilePolarity,Negative*%
%FSLAX46Y46*%
G04 Gerber Fmt 4.6, Leading zero omitted, Abs format (unit mm)*
G04 Created by KiCad (PCBNEW 9.0.6+1) date 2026-01-03 22:32:55*
%MOMM*%
%LPD*%
G01*
G04 APERTURE LIST*
G04 Aperture macros list*
%AMRoundRect*
0 Rectangle with rounded corners*
0 $1 Rounding radius*
0 $2 $3 $4 $5 $6 $7 $8 $9 X,Y pos of 4 corners*
0 Add a 4 corners polygon primitive as box body*
4,1,4,$2,$3,$4,$5,$6,$7,$8,$9,$2,$3,0*
0 Add four circle primitives for the rounded corners*
1,1,$1+$1,$2,$3*
1,1,$1+$1,$4,$5*
1,1,$1+$1,$6,$7*
1,1,$1+$1,$8,$9*
0 Add four rect primitives between the rounded corners*
20,1,$1+$1,$2,$3,$4,$5,0*
20,1,$1+$1,$4,$5,$6,$7,0*
20,1,$1+$1,$6,$7,$8,$9,0*
20,1,$1+$1,$8,$9,$2,$3,0*%
G04 Aperture macros list end*
%ADD10RoundRect,0.150000X0.150000X0.700000X-0.150000X0.700000X-0.150000X-0.700000X0.150000X-0.700000X0*%
%ADD11RoundRect,0.250000X0.250000X1.100000X-0.250000X1.100000X-0.250000X-1.100000X0.250000X-1.100000X0*%
%ADD12R,1.700000X1.700000*%
%ADD13O,1.700000X1.700000*%
%ADD14C,1.700000*%
G04 APERTURE END LIST*
D10*
%TO.C,J7*%
X171547000Y-112340000D03*
X170297000Y-112340000D03*
X169047000Y-112340000D03*
X167797000Y-112340000D03*
D11*
X173397000Y-109140000D03*
X165947000Y-109140000D03*
%TD*%
D10*
%TO.C,J2*%
X123558000Y-112268000D03*
X122308000Y-112268000D03*
X121058000Y-112268000D03*
X119808000Y-112268000D03*
X118558000Y-112268000D03*
X117308000Y-112268000D03*
X116058000Y-112268000D03*
X114808000Y-112268000D03*
X113558000Y-112268000D03*
X112308000Y-112268000D03*
D11*
X125408000Y-109068000D03*
X110458000Y-109068000D03*
%TD*%
D10*
%TO.C,J3*%
X135870250Y-112522000D03*
X134620250Y-112522000D03*
X133370250Y-112522000D03*
X132120250Y-112522000D03*
X130870250Y-112522000D03*
X129620250Y-112522000D03*
D11*
X137720250Y-109322000D03*
X127770250Y-109322000D03*
%TD*%
D10*
%TO.C,J6*%
X149427500Y-112522000D03*
X148177499Y-112522000D03*
X146927500Y-112522000D03*
X145677500Y-112522001D03*
X144427500Y-112522000D03*
X143177501Y-112522000D03*
X141927500Y-112522000D03*
D11*
X151277500Y-109322000D03*
X140077500Y-109322000D03*
%TD*%
D10*
%TO.C,J5*%
X161734750Y-112594000D03*
X160484750Y-112594000D03*
X159234750Y-112594000D03*
X157984750Y-112594000D03*
X156734750Y-112594000D03*
X155484750Y-112594000D03*
D11*
X163584750Y-109394000D03*
X153634750Y-109394000D03*
%TD*%
D12*
%TO.C,J1*%
X112838650Y-117549450D03*
D13*
X115378650Y-117549450D03*
X117918649Y-117549450D03*
X120458650Y-117549450D03*
X122998650Y-117549450D03*
X125538650Y-117549450D03*
X128078650Y-117549450D03*
X130618651Y-117549450D03*
D14*
X148398650Y-117549450D03*
D13*
X150938649Y-117549450D03*
X153478651Y-117549450D03*
X156018650Y-117549450D03*
X158558650Y-117549450D03*
X161098650Y-117549450D03*
X163638649Y-117549450D03*
X166178650Y-117549450D03*
X168718650Y-117549450D03*
X171258650Y-117549450D03*
%TD*%
D12*
%TO.C,J4*%
X141732000Y-118431000D03*
D14*
X139192000Y-118431000D03*
X136652001Y-118431000D03*
%TD*%
M02*
